<svg xmlns="http://www.w3.org/2000/svg" xmlns:xlink="http://www.w3.org/1999/xlink" viewBox="0 0 499.88 550.31"><defs><style>.cls-1{isolation:isolate;}.cls-2{fill:#cacaca;}.cls-3{fill:#323c68;}.cls-4{fill:#022140;}.cls-5{fill:#f5111a;}.cls-6{fill:#454d77;}.cls-7{fill:#021728;}.cls-8{fill:#242e54;}.cls-9{fill:#202b4c;}.cls-10,.cls-25{fill:#191717;}.cls-11{fill:#ee893e;}.cls-12{fill:#2d292a;}.cls-13{fill:url(#linear-gradient);}.cls-14{fill:url(#linear-gradient-2);}.cls-15{fill:url(#linear-gradient-3);}.cls-16{fill:#d6753e;}.cls-17{fill:url(#linear-gradient-4);}.cls-18{fill:url(#linear-gradient-5);}.cls-19,.cls-25{opacity:0.05;}.cls-19,.cls-25,.cls-32{mix-blend-mode:screen;}.cls-19{fill:url(#linear-gradient-6);}.cls-20{fill:#161515;}.cls-21{fill:#232121;}.cls-22{fill:#ededbb;}.cls-23{fill:#d69547;}.cls-24{opacity:0.5;}.cls-26{fill:url(#linear-gradient-7);}.cls-27{fill:url(#linear-gradient-8);}.cls-28{fill:#d7d8da;}.cls-29{fill:#ccc;}.cls-30{fill:#e6e7e8;}.cls-31{fill:url(#linear-gradient-9);}.cls-32{opacity:0.35;fill:url(#linear-gradient-10);}.cls-33{fill:url(#linear-gradient-11);}.cls-34{fill:url(#linear-gradient-12);}.cls-35{fill:#9e512b;}.cls-36{fill:#542713;}.cls-37{fill:#fff;}</style><linearGradient id="linear-gradient" x1="-9097.96" y1="160.33" x2="-9062.33" y2="160.33" gradientTransform="translate(9340.15)" gradientUnits="userSpaceOnUse"><stop offset="0" stop-color="#d69547"/><stop offset="1" stop-color="#cc6806"/></linearGradient><linearGradient id="linear-gradient-2" x1="-10062.77" y1="115.82" x2="-10060.41" y2="132.33" gradientTransform="translate(10427.42)" gradientUnits="userSpaceOnUse"><stop offset="0" stop-color="#ea8632"/><stop offset="1" stop-color="#d6721e"/></linearGradient><linearGradient id="linear-gradient-3" x1="-10066.93" y1="59.77" x2="-10058.67" y2="83.95" xlink:href="#linear-gradient-2"/><linearGradient id="linear-gradient-4" x1="-10138.6" y1="77.2" x2="-10111.08" y2="171.56" gradientTransform="translate(10427.42)" gradientUnits="userSpaceOnUse"><stop offset="0" stop-color="#f0cd59"/><stop offset="1" stop-color="#f7931a"/></linearGradient><linearGradient id="linear-gradient-5" x1="3084.11" y1="10132.51" x2="3103.34" y2="10192.82" gradientTransform="matrix(-0.17, -0.99, -0.99, 0.17, 10810.56, 1511.43)" gradientUnits="userSpaceOnUse"><stop offset="0" stop-color="#191717"/><stop offset="0.19" stop-color="#1c1a1a"/><stop offset="1" stop-color="#232121"/></linearGradient><linearGradient id="linear-gradient-6" x1="-147.71" y1="10565.02" x2="-127.77" y2="10540.65" gradientTransform="matrix(0.18, -0.98, -0.98, -0.18, 10681.04, 1975.28)" gradientUnits="userSpaceOnUse"><stop offset="0"/><stop offset="0.37" stop-color="#020202"/><stop offset="0.51" stop-color="#090909"/><stop offset="0.6" stop-color="#141414"/><stop offset="0.68" stop-color="#252525"/><stop offset="0.75" stop-color="#3b3b3b"/><stop offset="0.8" stop-color="#575757"/><stop offset="0.86" stop-color="#777"/><stop offset="0.91" stop-color="#9d9d9d"/><stop offset="0.95" stop-color="#c8c8c8"/><stop offset="0.99" stop-color="#f6f6f6"/><stop offset="1" stop-color="#fff"/></linearGradient><linearGradient id="linear-gradient-7" x1="-2384.85" y1="-9881.9" x2="-2336.49" y2="-9881.9" gradientTransform="translate(10518.67 572.65) rotate(-74.28)" xlink:href="#linear-gradient"/><linearGradient id="linear-gradient-8" x1="9373.78" y1="123.91" x2="9365.96" y2="186.19" gradientTransform="matrix(-1, 0, 0, 1, 9735.2, 0)" gradientUnits="userSpaceOnUse"><stop offset="0" stop-color="#191717"/><stop offset="0.5" stop-color="#262223"/><stop offset="1" stop-color="#2d292a"/></linearGradient><linearGradient id="linear-gradient-9" x1="9451.61" y1="180.65" x2="9440.53" y2="132.32" gradientTransform="matrix(-1, 0, 0, 1, 9735.2, 0)" gradientUnits="userSpaceOnUse"><stop offset="0" stop-color="#f7931a"/><stop offset="1" stop-color="#f0cd59"/></linearGradient><linearGradient id="linear-gradient-10" x1="9438.7" y1="138.06" x2="9447.97" y2="167.12" gradientTransform="matrix(-1, 0, 0, 1, 9735.2, 0)" gradientUnits="userSpaceOnUse"><stop offset="0" stop-color="#fff"/><stop offset="0.04" stop-color="#f1f1f1"/><stop offset="0.25" stop-color="#a9a9a9"/><stop offset="0.45" stop-color="#6d6d6d"/><stop offset="0.63" stop-color="#3e3e3e"/><stop offset="0.78" stop-color="#1c1c1c"/><stop offset="0.91" stop-color="#070707"/><stop offset="1"/></linearGradient><linearGradient id="linear-gradient-11" x1="-10066.93" y1="60.19" x2="-10058.68" y2="84.37" xlink:href="#linear-gradient-2"/><linearGradient id="linear-gradient-12" x1="9370.73" y1="246.97" x2="9497.99" y2="40.71" xlink:href="#linear-gradient-9"/></defs><title>Top Advertisers Reflected Update</title><g class="cls-1"><g id="Layer_2" data-name="Layer 2"><g id="Layer_1-2" data-name="Layer 1"><path class="cls-2" d="M0,427.91c-.33,16.58,13.92,32.36,38.88,46a2.13,2.13,0,0,0,.4.2l.14,0,179,70.66L316,505.94S242,353.81,223.22,354.87c-3.87.22-23.69-6.26-27.49-6l-3.82.29c-3.27.24-6.53.52-9.75.81C166,351.44,150.59,353.4,136,355.8c-38.55,6.35-71.17,15.78-94.78,27.41l-.55.28C15.19,396.13.33,411.34,0,427.91Z"/><path class="cls-3" d="M297.11,213.12l.57,324.27v4.26c.65,0,1.75-4.25,2.41-4.25A566.54,566.54,0,0,0,387,531l-.56-311.43a568,568,0,0,0-86.94-6.42Z"/><path class="cls-4" d="M122,309.57l1.56,198.48c2.86,1.88,5.84,6.05,9.23,7.81,34.76,18.12,97.71,21.6,168.52,21.81V220.43C282.54,219,122,309.57,122,309.57Z"/><path class="cls-3" d="M100.47,277.11V489.59c2.19,10,12.69,19.35,29.48,27.41V243.59C111.26,253.33,100.47,264.81,100.47,277.11Z"/><path class="cls-5" d="M100.4,277.27c0,12.35,10.84,23.9,29.63,33.69a2.09,2.09,0,0,0,.3.14h.1L297.11,278.2l.45-.09.49-.1,32.06-21.21,13-8.6,43.33-28.66a567.9,567.9,0,0,0-86.93-6.43c-.81,0-1.61,0-2.42,0-15,.05-29.53.63-43.53,1.7q-4.32.33-8.56.72l-2.84.27q-3.65.35-7.25.75c-12,1.32-23.46,3-34.3,5-28.62,5.28-52.78,12.79-70.2,21.79l-.4.22C111.24,253.38,100.4,264.92,100.4,277.27Z"/><path class="cls-6" d="M100.4,277.27c0,12.35,10.84,23.9,29.63,33.69a2.09,2.09,0,0,0,.3.14h.1L297.11,278.2l.45-.09.49-.1,32.06-21.21,13-8.6,43.33-28.66a567.9,567.9,0,0,0-86.93-6.43c-.81,0-1.61,0-2.42,0-15,.05-29.53.63-43.53,1.7q-4.32.33-8.56.72l-2.84.27q-3.65.35-7.25.75c-12,1.32-23.46,3-34.3,5-28.62,5.28-52.78,12.79-70.2,21.79l-.4.22C111.24,253.38,100.4,264.92,100.4,277.27Z"/><rect class="cls-3" x="302.3" y="336.22" width="196.91" height="148.65"/><path class="cls-6" d="M302.3,337.24l196.69,0a21.06,21.06,0,0,0,.89-6.08c0-25.16-45-46.94-110.42-57.45l-.26.12Z"/><polygon class="cls-4" points="425.52 384.95 425.52 433.05 425.52 537.32 425.52 537.38 300.88 540.87 300.88 383.52 300.88 383.35 425.52 384.95"/><polygon class="cls-6" points="300.89 383.36 425.52 433.05 455.9 440.26 496.63 408.05 499.14 393.93 499.21 385.89 300.89 383.36"/><path class="cls-3" d="M425.53,433.05V537.32c42.21-10.9,70.23-27.29,73.68-45.81V385.89c-2.1,17.7-26.61,33.54-64.65,44.67C431.63,431.41,428.61,432.25,425.53,433.05Z"/><polygon class="cls-6" points="127.48 456.22 139.17 496.52 300.54 516.3 425.52 483.74 425.49 483.72 302.79 432.24 127.48 456.22"/><path class="cls-4" d="M127.48,456.22V515.7c2.13,1.3,4.37,2.57,6.75,3.8,35.08,18.28,97.56,30.53,169,30.8h2.44a573.7,573.7,0,0,0,87.91-6.5c11.28-1.77,22-3.86,31.95-6.24V483.72q-12.21,2.7-25.66,4.8a573.7,573.7,0,0,1-87.91,6.5h-2.44c-71.41-.27-133.89-12.51-169-30.8a106.84,106.84,0,0,1-9.48-5.52C129.8,457.88,128.62,457.05,127.48,456.22Z"/><polygon class="cls-7" points="159.01 435.01 276.78 415.66 276.78 309.49 159.01 330.52 159.01 435.01"/><polygon class="cls-3" points="187.61 442.58 191.82 444.26 273.41 413.14 277.62 308.65 273.41 306.97 187.61 338.09 187.61 442.58"/><polygon class="cls-6" points="191.82 444.26 277.62 414.82 277.62 308.65 191.82 339.77 191.82 444.26"/><ellipse class="cls-4" cx="207.88" cy="390.81" rx="4.05" ry="8.26" transform="translate(-18.17 10.22) rotate(-2.7)"/><ellipse class="cls-3" cx="209.03" cy="390.84" rx="4.05" ry="8.26" transform="translate(-18.17 10.28) rotate(-2.7)"/><path class="cls-3" d="M223.46,151.78v3.44l.14,68.31,0,30.08.94-.19.19,0,.23,0,.27-.18,14.46-9.57,6-4,17.05-11.27v-2.31l-.15-71.45a249.4,249.4,0,0,0-38.13-2.82Z"/><path class="cls-8" d="M147.31,268.22l-.19-30.32-.44-43.83,3.52-2c13.47-7.52,61.55-34.11,73.27-36.87a6.28,6.28,0,0,1,1.82-.23v98.17l-.27.18-.23,0-.19,0-.94.19L150.2,268.1Z"/><path class="cls-9" d="M147.31,268.22a33.45,33.45,0,0,1-10.1-7.68V179.91c0-5.42,4.76-10.48,13-14.77v103Z"/><path class="cls-6" d="M137.21,179.91c0,5.41,4.76,10.47,13,14.77l.13.06h0l73.08-14.42.2,0,.21,0,14.06-9.3,5.7-3.77,19-12.56a247.87,247.87,0,0,0-38.11-2.82h-1.06c-6.56,0-13,.27-19.08.74-1.27.1-2.52.2-3.76.32l-1.24.11-3.18.33c-5.26.58-10.29,1.32-15,2.2-12.55,2.32-23.14,5.61-30.78,9.56l-.17.09C142,169.43,137.21,174.49,137.21,179.91Z"/><path class="cls-10" d="M168.71,159.31a3.67,3.67,0,0,1,.25-1.76,5.86,5.86,0,0,1,2.59-2.67,15.06,15.06,0,0,1,5.35-1.8c.19,0,.32-.08.32-.29q0-3.15,0-6.31s0,0,0-.08v-2.35c0-.13,0-.26,0-.39v-8.85a.73.73,0,0,1,.06-.41c.11,0,.18.07.25.12,1.09.69,2.19,1.38,3.27,2.09.78.51,1.59,1,2.34,1.52v8.65c0,1.11,0,2.23,0,3.34v2.58a1,1,0,0,0,.06.41c-.11,1.39,0,2.78-.05,4.25a11.33,11.33,0,0,0,1-1.12,10.44,10.44,0,0,0,1.53-2.64,5.31,5.31,0,0,1,1.42.43,8.31,8.31,0,0,1,3.93,2.79,3.83,3.83,0,0,1,.68,2.63c-.06,0-.09,0-.11.09a4.3,4.3,0,0,1-1.48,2.33,11.54,11.54,0,0,1-5,2.37,20.67,20.67,0,0,1-7,.5,17.36,17.36,0,0,1-5.53-1.38,8.3,8.3,0,0,1-3.08-2.21A4.54,4.54,0,0,1,168.71,159.31Z"/><path class="cls-11" d="M183.13,138.13c-.75-.55-1.56-1-2.34-1.52-1.08-.71-2.18-1.4-3.27-2.09-.07-.05-.14-.13-.25-.12s-.17-.15-.26-.21c-3-1.92-6-3.84-9-5.73a2,2,0,0,1-1-1.78,5,5,0,0,1,.27-1.54,8.18,8.18,0,0,1,1.18-2,6.23,6.23,0,0,1,1.31-1.08,3,3,0,0,1,1.9-.45,1.49,1.49,0,0,1,.3.09l15.45,6.45,2.32,1-.26.17a9.3,9.3,0,0,0-4.88,7.75,11.15,11.15,0,0,0,.14,2Zm-1.73-7.53a1.85,1.85,0,1,0,1.86-1.67A1.74,1.74,0,0,0,181.4,130.6Z"/><path class="cls-8" d="M168.44,123.18a8.18,8.18,0,0,0-1.18,2,10.73,10.73,0,0,0-1.35-.46,4.94,4.94,0,0,0-5.9,2.25,6.94,6.94,0,0,0-1,3.66,10.75,10.75,0,0,0,4.38,8.66,19.14,19.14,0,0,0,7,3.24c2.24.6,4.56.9,6.78,1.56v2.35a39.55,39.55,0,0,0-4.13-1c-1.26-.24-2.52-.45-3.74-.8a19.35,19.35,0,0,1-9.14-5.2,12.29,12.29,0,0,1-3.58-9.48,8.71,8.71,0,0,1,1.43-4.34,7.53,7.53,0,0,1,8.38-3.07A12.69,12.69,0,0,1,168.44,123.18Z"/><path class="cls-10" d="M184.72,139.1a11.15,11.15,0,0,1-.14-2,9.3,9.3,0,0,1,4.88-7.75l.26-.17a12.55,12.55,0,0,1,3.37-1.15,11,11,0,0,1,11.32,4.74c3.49,5.79-.24,12.87-7.42,14-5.76.93-11.09-2.5-12.21-7.53Zm9.09-10.49a10.35,10.35,0,0,0-6.06,2.83,7.74,7.74,0,0,0-2.23,5.88c.16,3.87,4,8,9.62,7.72a9.2,9.2,0,0,0,7.34-4,7.21,7.21,0,0,0,1.29-4.66,7.81,7.81,0,0,0-3.25-5.85A9.23,9.23,0,0,0,193.81,128.61Z"/><path class="cls-8" d="M168.71,159.31a4.54,4.54,0,0,0,.88,1.84,8.3,8.3,0,0,0,3.08,2.21,17.36,17.36,0,0,0,5.53,1.38,20.67,20.67,0,0,0,7-.5,11.54,11.54,0,0,0,5-2.37,4.3,4.3,0,0,0,1.48-2.33c0-.06,0-.09.11-.09a4.26,4.26,0,0,0,0,.5,4.26,4.26,0,0,1-2,3.77,12.52,12.52,0,0,1-5.1,2.15,20.52,20.52,0,0,1-10.55-.49,10.27,10.27,0,0,1-3.75-2A4,4,0,0,1,168.7,160C168.71,159.77,168.71,159.54,168.71,159.31Z"/><path class="cls-8" d="M185.7,153.6a10.44,10.44,0,0,1-1.53,2.64,11.33,11.33,0,0,1-1,1.12c0-1.47-.06-2.86.05-4.25a.84.84,0,0,0,.23-.54,3.06,3.06,0,0,0-.29-2.45c0-1.11,0-2.23,0-3.34a.14.14,0,0,1,.14,0,5.94,5.94,0,0,1,2.74,5.09A8.82,8.82,0,0,1,185.7,153.6Z"/><path class="cls-11" d="M181.4,130.6a1.85,1.85,0,0,1,3.69,0,1.85,1.85,0,0,1-3.69,0Z"/><path class="cls-12" d="M185.53,137.32c.15,3.87,4,8,9.61,7.72a9.14,9.14,0,0,0,7.33-4,7.1,7.1,0,0,0,1.3-4.66,7.78,7.78,0,0,0-3.25-5.85,9.27,9.27,0,0,0-6.7-1.93,10.32,10.32,0,0,0-6.08,2.83A7.74,7.74,0,0,0,185.53,137.32Zm4-3.16a2.73,2.73,0,0,1,2.87-2.43,2.67,2.67,0,0,1,2.73,2.66,2.82,2.82,0,0,1-5.6-.23Z"/><path class="cls-12" d="M189.56,134.16a2.82,2.82,0,0,0,5.6.23,2.67,2.67,0,0,0-2.73-2.66A2.73,2.73,0,0,0,189.56,134.16Z"/><path class="cls-13" d="M271.83,144.88s-5.47,19.91-17.79,16.7c0,0-5.25-1.82-8.39-5.46s-3.86.07-3.28,2.4,8.9,27,32.45,13l3-14.37-1.45-7.73Z"/><path class="cls-14" d="M373.63,135.38a4.89,4.89,0,0,0-1.92-4.31c4.27-.51,7.61-2.25,7.44-6.51s-3.38-6-7.46-6.7a4.92,4.92,0,0,0,2.28-4.43c-.35-9-19.37-1.2-19.37-1.2l-.1,7,0,.87-.12,8.1,0,1-.11,6.82S373,144.35,373.63,135.38Z"/><path class="cls-15" d="M377.25,77.35a6,6,0,0,0-4.32-3.83c4.5-2.72,7.33-6.35,5-11s-6.81-5-11.69-3.68a6,6,0,0,0,.3-6.08c-4.92-9.82-22.15,8.45-22.15,8.45L347.78,69l.42,1L352.15,79l.49,1.13L356,87.81S381.08,87.64,377.25,77.35Z"/><path class="cls-16" d="M343.35,229.21s32.38,13.64,49.78-.08L387.8,220l-38-.15c-.39,0-9.41,1.8-9.41,1.8Z"/><path class="cls-17" d="M340.3,176.66l.14,9.3s20.77,23,40.05,23c0,0,33.17,3.47,38.19-44.74,0,0,1.54,97.19-73.67,62.48l-3.09,16.2-19.28-25.07-32.4,3.47-12,18.13-1.9-94.37s-58.78,8.33-69.45,9.51c0,0-20.83-123,56.31-128.43,102.21-11.57,94.5,72.12,94.5,72.12l.74,50.21Z"/><path class="cls-18" d="M253.62,179.91c3.21.88,6.68,1,8.41.22,10.66-4.81,21-7,31.32-12.56,4.57-2.47,9.26-5,12.12-9.82,5.3-8.84-5.33-19-14.66-16.18-8,2.42-7.95,3-15.66,6.22,0,0-16.64,13.52-19.93,10.42,0,0-2.1-2.61-4.48-2.59,0,0-11.62,8.24-9.22,11.5C241.52,167.12,250.4,179,253.62,179.91Z"/><path class="cls-19" d="M268.92,174.2s19.81-7.57,28.2-20.51C300.77,168.42,268.92,174.2,268.92,174.2Z"/><path class="cls-20" d="M352.63,213.06c5.4-10.16,1.76-28.19,1.76-28.19C355,190,319.5,207.5,310,206c-17.79-2.81-39.21-8.58-39.21-8.58l6.42,7a69.77,69.77,0,0,0,0,13.68c.07.85-3.4,4.19-3.84,12.26,7.26-1,17.55,4.95,20.17-.21a19.33,19.33,0,0,1,18.68-10.68c9.85.66,14.9,13,16.74,14.22,4.36,2.94,14.31,2,16.2.43S347.63,222.5,352.63,213.06Z"/><path class="cls-10" d="M352.63,213.06c5.4-10.16,1.76-28.19,1.76-28.19C355,190,319.5,207.5,310,206c-17.79-2.81-39.21-8.58-39.21-8.58s6.92,4.07,6.42,7c-.9,10.91,1.46,13,35,15,9.86.61,14.9,13,16.74,14.22,4.36,2.94,14.31,2,16.2.43S347.63,222.5,352.63,213.06Z"/><path class="cls-21" d="M362.5,116.85l8.94,69.09s-28.47,41.4-86.69,15.34c0,0-2.35,7.36-7,3.83a29,29,0,0,1-7.28-8.21l-.49-11.06a21.48,21.48,0,0,1-1.78,3.57c-1.75-2.36,3.21-13.4,3.21-13.4s2.82-20,4.69-23.95S362.5,116.85,362.5,116.85Z"/><path class="cls-22" d="M330.26,122.55c-.49-17.63-3.86-23.43-7.95-23.43s-8.34,15.17-7.95,33.75Z"/><path class="cls-23" d="M288.32,95.78c0,3.91-6.34,7.08-14.16,7.08S260,99.69,260,95.78s6.33-7.08,14.15-7.08S288.32,91.87,288.32,95.78Z"/><path class="cls-23" d="M244,94.34c.46,1.93-1.89,4.13-5.23,4.93s-6.43-.13-6.88-2.06,1.88-4.13,5.23-4.92S243.49,92.42,244,94.34Z"/><path class="cls-23" d="M302.13,101.23c.33,1.39-1.36,3-3.78,3.56s-4.65-.09-5-1.49,1.36-3,3.78-3.56S301.8,99.84,302.13,101.23Z"/><path class="cls-23" d="M274,108.37c.33,1.38-1.35,2.95-3.74,3.52s-4.59-.09-4.92-1.47,1.35-3,3.74-3.52S273.69,107,274,108.37Z"/><path class="cls-16" d="M290.84,142.28a288.83,288.83,0,0,1-32.19,7.13c-10,1.67-19,2.76-26.64,3.51-15.22,1.49-24.68,1.67-24.68,1.67s9.39-1.09,24.45-3.48c7.52-1.21,16.46-2.74,26.31-4.73s20.63-4.41,31.74-7.61,21.5-6.89,30.3-11.47a62.91,62.91,0,0,0,11.7-7.65,29.91,29.91,0,0,0,7.61-9.23,19.76,19.76,0,0,0,2.15-9.58c0-.37,0-.73,0-1.09s-.09-.7-.14-1a14.58,14.58,0,0,0-.32-2c-.14-.63-.28-1.22-.42-1.79s-.35-1.09-.52-1.59a32.83,32.83,0,0,0-1.92-4.49l-.78-1.52s.31.5.92,1.45a31.17,31.17,0,0,1,2.31,4.35l.66,1.58c.19.57.38,1.17.58,1.8a16.89,16.89,0,0,1,.48,2c.07.36.14.72.22,1.08s.07.76.11,1.14a21,21,0,0,1-1.65,10.42,31.26,31.26,0,0,1-7.61,10.33A61.94,61.94,0,0,1,321.6,130C312.66,135.06,302.1,139,290.84,142.28Z"/><path class="cls-16" d="M294.78,34.36a14.11,14.11,0,0,0-5.91,2.17,16,16,0,0,0-4.25,4.24,33.8,33.8,0,0,0-4.39,9.92c-.87,3.06-1.35,5.63-1.7,7.41s-.55,2.76-.55,2.76,0-1,0-2.82a57.88,57.88,0,0,1,.48-7.73A30.47,30.47,0,0,1,282,39.12a17.68,17.68,0,0,1,4.85-5.47,17,17,0,0,1,11.5-3,12.76,12.76,0,0,1,3.94,1.19,13,13,0,0,1,3.19,2.33,16,16,0,0,1,2.21,2.9A28,28,0,0,1,311,48.43a49.23,49.23,0,0,1,.11,7.75C311,58,310.88,59,310.88,59l-.33-2.79a67.27,67.27,0,0,0-1.35-7.47,29.8,29.8,0,0,0-4.08-10,13.33,13.33,0,0,0-1.92-2.18A10.07,10.07,0,0,0,300.8,35a9.89,9.89,0,0,0-2.85-.75A14.18,14.18,0,0,0,294.78,34.36Z"/><path class="cls-16" d="M238.42,38.46l-1.37.21-1.26.43-.63.2-.57.31c-.38.22-.78.38-1.14.62a14.59,14.59,0,0,0-3.59,3.55,29.06,29.06,0,0,0-3.82,8.4c-.77,2.6-1.23,4.8-1.55,6.32s-.51,2.36-.51,2.36,0-.87-.06-2.42a48.5,48.5,0,0,1,.33-6.63,26.08,26.08,0,0,1,3-9.69,16,16,0,0,1,4.2-4.77c.45-.33,1-.59,1.46-.89l.76-.43c.27-.12.54-.21.82-.31l1.67-.59,1.74-.29a12.18,12.18,0,0,1,3.57-.1,10.51,10.51,0,0,1,6.24,3.11,13.45,13.45,0,0,1,1.91,2.53,23.76,23.76,0,0,1,2.77,9.81,42.9,42.9,0,0,1,0,6.66c-.12,1.56-.25,2.41-.25,2.41s-.12-.87-.32-2.39-.58-3.75-1.24-6.38A25.79,25.79,0,0,0,247,42.06,9.11,9.11,0,0,0,243.42,39,8.58,8.58,0,0,0,238.42,38.46Z"/><path class="cls-23" d="M295.17.62c12.66,1.8,31.54,17,32.8,28,.43-.05,3-13.81-9.34-22.56S295.17.62,295.17.62Z"/><path class="cls-23" d="M215.36,34.23C210.9,24.72,222.12,9,232.73,5.76c-.13-.42-13.4-.09-20.53,13.24C208,27,215.36,34.23,215.36,34.23Z"/><g class="cls-24"><path class="cls-10" d="M381.35,176.51c-.4-1.84-.86-3.67-1.34-5.49-2.93-11.21-3.32-21.69-7.07-32.68-1.66-4.86-3.4-9.87-7.59-13.46-7.76-6.64-11.56,4.65-18.24,11.64-9,9.48,1.12,7.06,1.83,9.75.26,1-3,6-12.49,14.6,7.92-1.33,15.3-5.35,15.57-4.17,0,0-.91,4.25-8.65,9.87-8.89,6.44-3.58,3.89,11.09.8-.36,2-4.85,7-15.64,10.4,0,0,17.14.43,16.77,2.76,0,0-2.17-.62-1.57,6.11,0,0,3.64,7.61,6.6,5.93S379.85,185.82,381.35,176.51Z"/><path class="cls-25" d="M375.37,163.31s-4.12-20.6-15.36-30.94C375,131.25,375.37,163.31,375.37,163.31Z"/></g><path class="cls-26" d="M350.8,184.5c5-2.32,8.63-7.55,8.63-7.55,4.42-7.56,1.52-13.06-2.62-17.09,6.17-2.46,9.28-9.25,8.73-15.6,5.7,4,10,9.71,11.27,12.85,11.53,29.2-21.62,31.84-24.38,31.76S345.8,186.83,350.8,184.5Z"/><path class="cls-27" d="M382.87,176.69c-.4-1.85-.86-3.7-1.35-5.54-2.95-11.31-3.35-21.9-7.13-33-1.68-4.91-3.44-10-7.67-13.59-7.82-6.71-19.63,2.07-18.4,11.75,1.05,8.29,1.63,8.34,3.52,16.47,0,0,10.54,18.68,6.94,21.4,0,0-4.77,3-5.15,5.33,0,0,.65,13.13,6.51,12.33C360.14,191.86,381.37,186.09,382.87,176.69Z"/><polygon class="cls-28" points="301.21 134.66 293.99 137.53 286.72 128.47 277.43 154.6 287.97 156.68 301.21 156.68 310.88 146.29 301.21 134.66"/><polygon class="cls-29" points="291.44 134.66 299.29 143.12 292.07 147.7 294.15 156.26 280.52 178.69 278.01 157.77 287.51 147.05 281.92 140.1 291.44 134.66"/><path class="cls-30" d="M293.58,134.66l-10.34,9.16s-.4-17.31,3.22-19.33,3.63-3,3.63-3Z"/><path class="cls-29" d="M358.16,110.16h2.21v6.24s-29.09,17.86-37.46,23.46c-11.12,7.46-19.13,8.76-19.13,8.76s-11.68-11-10.27-12.63S358.16,110.16,358.16,110.16Z"/><polygon class="cls-31" points="293.36 134.66 301.21 143.12 293.99 147.7 296.08 156.26 282.45 178.69 279.94 157.77 289.44 147.05 283.85 140.1 293.36 134.66"/><polygon class="cls-32" points="293.39 136.49 298 143.5 292.82 147.51 294.5 155.61 283.23 178.27 292 155.46 291.4 147.33 294.71 143.35 293.39 136.49"/><path class="cls-12" d="M275.69,142.21l-12.93,6.88s17.4,35.35,17.91,34a42.84,42.84,0,0,0,2.24-6.81s-3-30.19,8.49-58.43c-6.95,3.57-22.2,12.84-24.62,24.31l8.76-.9"/><path class="cls-30" d="M358.16,108.58h2.21v6.25s-29.09,17.85-37.46,23.46c-11.12,7.45-19.13,8.76-19.13,8.76s-11.68-11-10.27-12.64S358.16,108.58,358.16,108.58Z"/><path class="cls-12" d="M357.88,108.58V105.9s4.69-1,5.71,1.53c4.23,10.47-15.25,30.55-20.84,33s-18.88,4.68-20.09,4.38,5.44,6.65,5.44,6.65-42.19,23.31-47.43,31.71c0,0,3.87-13,7.3-18.42a58.61,58.61,0,0,1,20.95-20.9C321.38,136.25,366.34,115.13,357.88,108.58Z"/><path class="cls-10" d="M280.6,183.34c5.31-8.44,48-31.35,48-31.35s-6.64-7-5.43-6.64,14.49-2,20.09-4.37,25.61-22.75,20.84-33c-1.24-2.68-3.28-2.21-4.49-2.3.41.25,2,.53,2.48,1.69,4.24,10.47-15.25,30.56-20.83,33s-18.88,4.67-20.09,4.37,5.43,6.66,5.43,6.66-38.52,18.53-45.92,31.67C279.93,185.32,280.67,183.07,280.6,183.34Z"/><path class="cls-10" d="M269.13,141.51l8.8-.38.1.92-13.33,6.08s11.75,27.28,15.64,35c-4.36-7.52-17.58-34-17.58-34l12.93-6.88-.15-.9-8.76.9c2.42-11.47,17.67-20.74,24.62-24.31-.44,1.08-.85,2.17-1.25,3.25C282.34,125.25,271.63,132.41,269.13,141.51Z"/><path class="cls-33" d="M377.24,77.77a6,6,0,0,0-4.32-3.83c4.5-2.72,7.33-6.35,5-11s-6.81-5-11.69-3.69a6,6,0,0,0,.3-6.07c-4.92-9.82-22.15,8.45-22.15,8.45l3.39,7.78.42,1,3.95,9.08.5,1.13L356,88.22S381.07,88.06,377.24,77.77Z"/><path class="cls-34" d="M206.92,155c1.61-.18,4.3-.51,7.7-.95,19.29-2.54,74.86-8.9,98.94-20.8s44.26-21.21,44.26-28.59-.1-6-.1-6a75.39,75.39,0,0,0-1.24-18.62c0-.12,0-.26-.07-.39-4.57-24-22.87-61.07-93.18-53.11C186.09,32,206.92,155,206.92,155Z"/><path class="cls-22" d="M330.26,123c-.5-17.62-3.87-23.42-7.95-23.42s-8.35,15.17-8,33.74Z"/><path class="cls-23" d="M288.31,96.2c0,3.9-6.34,7.07-14.16,7.07S260,100.1,260,96.2s6.33-7.08,14.15-7.08S288.31,92.29,288.31,96.2Z"/><path class="cls-23" d="M243.94,94.76c.46,1.93-1.89,4.13-5.23,4.92s-6.43-.12-6.88-2.05,1.88-4.13,5.23-4.92S243.48,92.84,243.94,94.76Z"/><path class="cls-23" d="M302.12,101.64c.33,1.4-1.36,3-3.78,3.57s-4.65-.1-5-1.49,1.37-3,3.79-3.56S301.79,100.25,302.12,101.64Z"/><path class="cls-23" d="M274,108.78c.33,1.38-1.35,3-3.74,3.52s-4.59-.09-4.92-1.46,1.35-3,3.74-3.52S273.68,107.41,274,108.78Z"/><path class="cls-16" d="M290.83,142.7a288.83,288.83,0,0,1-32.19,7.13c-10,1.67-19,2.75-26.64,3.51-15.22,1.49-24.68,1.66-24.68,1.66s9.4-1.08,24.45-3.48c7.52-1.2,16.46-2.73,26.31-4.72s20.64-4.41,31.74-7.61,21.5-6.89,30.3-11.47a62.58,62.58,0,0,0,11.7-7.65,30,30,0,0,0,7.61-9.23,19.8,19.8,0,0,0,2.16-9.58l0-1.09c-.05-.35-.09-.7-.13-1a14.71,14.71,0,0,0-.33-2l-.41-1.79c-.19-.55-.36-1.08-.53-1.58a31.75,31.75,0,0,0-1.92-4.49l-.78-1.53s.31.5.92,1.45a31.24,31.24,0,0,1,2.32,4.36c.2.5.43,1,.66,1.58l.57,1.8a16,16,0,0,1,.48,2c.07.35.15.71.22,1.08s.07.75.11,1.14a20.89,20.89,0,0,1-1.65,10.42,31.09,31.09,0,0,1-7.61,10.32,61.51,61.51,0,0,1-11.89,8.49C312.65,135.48,302.09,139.45,290.83,142.7Z"/><path class="cls-23" d="M295.16,1c12.67,1.8,31.54,17,32.8,28,.43-.06,3-13.82-9.34-22.57S295.16,1,295.16,1Z"/><path class="cls-23" d="M215.35,34.64c-4.46-9.5,6.76-25.26,17.37-28.46-.13-.42-13.4-.1-20.52,13.23C207.94,27.38,215.35,34.64,215.35,34.64Z"/><path class="cls-16" d="M262.22,46.07c.21,14-15.13,24.61-29.28,18.71-8.26-3.54-11.79-10.61-13-18.87,0-7.08,3.53-13,9.43-17.69,10.62-5.9,25.95-2.36,31.16,9.82A20.38,20.38,0,0,1,262.22,46.07Z"/><path class="cls-22" d="M261.63,43.71c.2,13.6-14.7,23.92-28.46,18.19-8-3.44-11.47-10.32-12.61-18.35,0-6.88,3.44-12.61,9.17-17.19,10.32-5.74,25.22-2.3,30.29,9.55A19.93,19.93,0,0,1,261.63,43.71Z"/><path class="cls-35" d="M248.27,47.68A8.26,8.26,0,1,1,240,39.42,8.25,8.25,0,0,1,248.27,47.68Z"/><path class="cls-36" d="M245.32,46.5a5.31,5.31,0,1,1-5.3-5.31A5.3,5.3,0,0,1,245.32,46.5Z"/><path class="cls-23" d="M236.93,71.68A33.24,33.24,0,0,1,214,65.63a27.56,27.56,0,0,0,44.08-4.7A33.26,33.26,0,0,1,236.93,71.68Z"/><path class="cls-16" d="M270.69,45.8c-.23-14.78,16-26,30.91-19.76,8.72,3.74,12.45,11.21,13.69,19.93,0,7.47-2.92,14.2-10,18.68-11.21,6.22-27.4,2.49-32.91-10.38A21.45,21.45,0,0,1,270.69,45.8Z"/><path class="cls-22" d="M271.87,43.44c-.21-14,15.12-24.6,29.27-18.71,8.26,3.54,11.8,10.62,13,18.88,0,7.07-2.57,13.42-9.44,17.69-10.61,5.9-25.95,2.36-31.16-9.83A20.3,20.3,0,0,1,271.87,43.44Z"/><path class="cls-35" d="M301.94,47.68a8.26,8.26,0,1,1-8.26-8.26A8.26,8.26,0,0,1,301.94,47.68Z"/><path class="cls-36" d="M299,46.5a5.31,5.31,0,1,1-5.31-5.31A5.31,5.31,0,0,1,299,46.5Z"/><path class="cls-37" d="M301.39,40.41a3.88,3.88,0,1,1-3.88-3.88A3.88,3.88,0,0,1,301.39,40.41Z"/><path class="cls-37" d="M248,40.41a3.89,3.89,0,1,1-3.88-3.88A3.88,3.88,0,0,1,248,40.41Z"/><path class="cls-23" d="M297.61,72.74a37.83,37.83,0,0,1-25.26-9.58,31.38,31.38,0,0,0,50.48-.07A37.85,37.85,0,0,1,297.61,72.74Z"/><path class="cls-23" d="M294.39,68.86A31,31,0,0,1,274,60.32a25.72,25.72,0,0,0,41.34,1.33A31,31,0,0,1,294.39,68.86Z"/><path class="cls-23" d="M235,67.81a27.54,27.54,0,0,1-17.22-9.54,22.87,22.87,0,0,0,36.42,5.2A27.54,27.54,0,0,1,235,67.81Z"/><path class="cls-10" d="M281.07,190.5a2.81,2.81,0,1,0,2.79-3.2A3,3,0,0,0,281.07,190.5Z"/><path class="cls-12" d="M281,190.5a2.63,2.63,0,1,0,2.6-3A2.82,2.82,0,0,0,281,190.5Z"/><path class="cls-10" d="M280.55,195.07a16.84,16.84,0,0,0,4.07,6,21.94,21.94,0,0,0,2,1.75,1.39,1.39,0,0,0-.56.67c-.4-.35-.8-.72-1.2-1.12C282.13,199.65,280.41,196.64,280.55,195.07Z"/></g></g></g></svg>