<svg xmlns="http://www.w3.org/2000/svg" xmlns:xlink="http://www.w3.org/1999/xlink" viewBox="0 0 597.99 377.14"><defs><style>.cls-1{isolation:isolate;}.cls-2,.cls-5,.cls-9{fill:#2a436f;}.cls-2,.cls-3{fill-rule:evenodd;}.cls-2{opacity:0.15;}.cls-3{fill:#f8fcfe;}.cls-4{fill:url(#New_Gradient_Swatch_2);}.cls-6{opacity:0.6;}.cls-7,.cls-8{fill:#bdc3c7;}.cls-10,.cls-7,.cls-9{opacity:0.5;}.cls-10,.cls-11{fill:#ffa05f;}.cls-12{fill:#4d5667;}.cls-13{fill:#3f444c;mix-blend-mode:screen;}.cls-13,.cls-14,.cls-17{opacity:0.4;}.cls-15,.cls-17{fill:#dae9f2;}.cls-16{fill:#243f66;}.cls-18{fill:#f1f2eb;stroke:#f1f2eb;stroke-miterlimit:10;stroke-width:1.93px;}</style><linearGradient id="New_Gradient_Swatch_2" x1="132.33" y1="170.06" x2="506.93" y2="170.06" gradientTransform="matrix(-1, 0, 0, 1, 610.44, 0)" gradientUnits="userSpaceOnUse"><stop offset="0" stop-color="#eaeced"/><stop offset="0.1" stop-color="#edf0f1"/><stop offset="0.5" stop-color="#f5f9fb"/><stop offset="1" stop-color="#f8fcfe"/></linearGradient></defs><title>Element 2</title><g class="cls-1"><g id="Layer_2" data-name="Layer 2"><g id="Layer_1-2" data-name="Layer 1"><path class="cls-2" d="M494.76,73.62a692.47,692.47,0,0,0-64.93-28.35c-39.64-15.22-82-23.16-123.65-26.21-1.8-.13-3.61-.26-5.41-.37C201.51,12.41,107.19,33.41,64.62,49.15c-61.17,22.61-104.78,78.28-7.3,94s135.62,29.63,178.06,57.61q23.75,15.65,27.4,41.07,2.1,14.46-2.32,32.08a139.55,139.55,0,0,1-4.36,14c-13.44,50.6,33.44,93.77,138.38,88.85s193.94-83.94,202.42-157C603.84,160,578.63,116.17,494.76,73.62Z"/><path class="cls-2" d="M225.47,81.67a226.54,226.54,0,0,0-21.28-9.29,142.38,142.38,0,0,0-40.52-8.59l-1.78-.12c-32.53-2.06-63.44,4.82-77.39,10-20,7.41-34.35,25.66-2.4,30.8s44.45,9.71,58.36,18.88q7.78,5.13,9,13.46a27.26,27.26,0,0,1-.76,10.51,45.28,45.28,0,0,1-1.43,4.6c-4.4,16.59,11,30.74,45.36,29.12s63.56-27.51,66.34-51.46C261.22,110,253,95.62,225.47,81.67Z"/><path class="cls-3" d="M217.43,70a226.54,226.54,0,0,0-21.28-9.29,142.37,142.37,0,0,0-40.53-8.59L153.85,52c-32.53-2.06-63.44,4.82-77.4,10-20,7.41-34.34,25.66-2.39,30.8s44.45,9.71,58.36,18.88q7.79,5.13,9,13.46a27.26,27.26,0,0,1-.76,10.51,45.28,45.28,0,0,1-1.43,4.6c-4.4,16.59,11,30.74,45.35,29.12s63.57-27.51,66.35-51.45C253.18,98.26,244.92,83.91,217.43,70Z"/><path class="cls-4" d="M477.18,192a1.37,1.37,0,0,1,0,2.59L333.82,277.94a4.92,4.92,0,0,1-4.48,0L104.44,148.09c-1.24-.71-1.25-1.88,0-2.59L247.8,62.18a5,5,0,0,1,4.47,0Z"/><path class="cls-5" d="M477.2,194.62,333.82,277.94a4.92,4.92,0,0,1-4.48,0L104.44,148.09a1.58,1.58,0,0,1-.94-1.3v7.3a1.58,1.58,0,0,0,.93,1.3L329.33,285.24a5,5,0,0,0,4.47,0l143.38-83.32a1.58,1.58,0,0,0,.92-1.29v-7.3A1.57,1.57,0,0,1,477.2,194.62Z"/><g class="cls-6"><path class="cls-7" d="M354.74,146.72a4.69,4.69,0,0,0,1.54,3l0,18.88-66.57-38.43.11-37.08c.89.25,1.56-.29,1.56-1.39a6.37,6.37,0,0,1,1.18.57C316,105.84,325.66,129,354.74,146.72Z"/></g><path class="cls-8" d="M222.78,33.4A4.53,4.53,0,0,1,224.84,37a1.64,1.64,0,0,1-.4,1.16,1.13,1.13,0,0,1-1.17.23l-.15,53.43,65.53,37.84.11-37.08a4.66,4.66,0,0,1-1.55-3c0-1.45.93-2,2.07-1.32a4.56,4.56,0,0,1,2.05,3.47c0,1.19-.67,1.73-1.56,1.48l-.11,37.08,66.57,38.43,0-18.88a4.69,4.69,0,0,1-1.54-3c0-1.49.92-2,2.06-1.36a4.51,4.51,0,0,1,2.05,3.56c-.09,1.18-.73,1.63-1.56,1.39l-.05,18.88L417,203.69a1.33,1.33,0,0,1,.32-.6,1.31,1.31,0,0,1,1.68,0,4.51,4.51,0,0,1,2,3.56c0,1.31-.93,1.84-2.06,1.18a4.57,4.57,0,0,1-2-2.94L222.11,92.35l.15-54.59a4.61,4.61,0,0,1-1.55-3.19C220.72,33.27,221.64,32.74,222.78,33.4Z"/><g class="cls-6"><path class="cls-7" d="M358.84,149.15c28.41,16.94,52.09,45.81,58.45,53.94a1.33,1.33,0,0,0-.32.6L357.24,169.2l.05-18.88A1.16,1.16,0,0,0,358.84,149.15Z"/></g><g class="cls-6"><path class="cls-7" d="M287.21,89.48a4.66,4.66,0,0,0,1.55,3l-.11,37.08L223.12,91.77l.15-53.43a1.13,1.13,0,0,0,1.17-.23c5.23,7,22.83,28.57,54.44,46.82C281.55,86.47,284.33,88,287.21,89.48Z"/></g><g class="cls-6"><path class="cls-9" d="M325.06,149.18c29.45,19.19,53.07,62.38,58.75,73.36a1,1,0,0,0-.62.67l-59.71-34.47.11-38.26C324.41,150.67,325,150.18,325.06,149.18Z"/></g><g class="cls-6"><path class="cls-9" d="M253.41,93.88a4.65,4.65,0,0,0,1.36,2.87L254.63,149l-65.17-37.62.22-77a1.09,1.09,0,0,0,1.31-.86c6.64,6,28,25.91,35.41,42.24,3.29,7.27,6.67,10.91,10.19,12.94C241.86,91.76,247.43,91.2,253.41,93.88Z"/></g><path class="cls-5" d="M189,29.41A4.54,4.54,0,0,1,191.06,33a2.47,2.47,0,0,1-.07.57,1.09,1.09,0,0,1-1.31.86l-.22,77L254.63,149l.14-52.23a4.65,4.65,0,0,1-1.36-2.87c0-1.45.93-2,2.06-1.32a4.54,4.54,0,0,1,2.06,3.55c-.11,1.12-.65,1.56-1.38,1.44L256,149.78l66.29,38.27.11-38.25a4.67,4.67,0,0,1-1.45-2.91c0-1.5.92-2,2.06-1.38a4.51,4.51,0,0,1,2.05,3.56c0,1.11-.65,1.6-1.47,1.41l-.11,38.26,59.71,34.47a1,1,0,0,1,.62-.67,1.54,1.54,0,0,1,1.31.2,4.54,4.54,0,0,1,2.06,3.56c0,1.31-.93,1.84-2.07,1.18a4.55,4.55,0,0,1-1.93-2.69L188.08,112.14l.22-78.53a4.57,4.57,0,0,1-1.36-3C186.94,29.28,187.86,28.76,189,29.41Z"/><g class="cls-6"><path class="cls-9" d="M321,146.89a4.67,4.67,0,0,0,1.45,2.91l-.11,38.25L256,149.78l.15-52.23c.73.12,1.27-.32,1.36-1.18,9.88,8.2,18.23,32.53,33.84,41.54C306.52,146.67,314,144.09,321,146.89Z"/></g><g class="cls-6"><path class="cls-10" d="M282.83,170.19a4.75,4.75,0,0,0,1.35,2.69l-.11,37.24-66.2-38.23.2-70.9c.8.13,1.38-.41,1.38-1.44a3.2,3.2,0,0,1,1.18.48C244.1,113.58,253.74,151.58,282.83,170.19Z"/></g><path class="cls-11" d="M150.94,27.33A4.54,4.54,0,0,1,153,30.89a1.31,1.31,0,0,1-.85,1.41,1.18,1.18,0,0,1-.53,0l-.29,101.17L216.5,171.1l.2-70.91a4.74,4.74,0,0,1-1.36-2.75c0-1.57.92-2.1,2.06-1.44a4.53,4.53,0,0,1,2,3.38c0,1.2-.58,1.74-1.38,1.61l-.2,70.9,66.2,38.23.11-37.24a4.75,4.75,0,0,1-1.35-2.69c0-1.64.91-2.16,2.05-1.51a4.51,4.51,0,0,1,2.05,3.56c-.22,1.21-.73,1.54-1.38,1.43l-.1,37.24,59.25,34.21a1.85,1.85,0,0,1,2.3-.26,4.53,4.53,0,0,1,2.05,3.56c0,1.31-.93,1.83-2.07,1.18a4.57,4.57,0,0,1-1.92-2.7L150,134.26l.3-102.74a4.51,4.51,0,0,1-1.37-3C148.88,27.2,149.81,26.67,150.94,27.33Z"/><g class="cls-6"><path class="cls-10" d="M319.9,218.15a157.11,157.11,0,0,0,24.8,27l-59.25-34.21.1-37.24a1.09,1.09,0,0,0,1.32-.91C300.94,182.73,309.68,204.17,319.9,218.15Z"/></g><g class="cls-6"><path class="cls-10" d="M215.34,97.44a4.74,4.74,0,0,0,1.36,2.75l-.2,70.91-65.17-37.62.29-101.17a1.18,1.18,0,0,0,.53,0c4.59,9.39,22.26,42,54.84,60.79C209.68,94.64,212.46,96.1,215.34,97.44Z"/></g><polygon class="cls-12" points="121.55 61.59 129.2 57.14 131.01 60.68 123.36 65.13 121.55 61.59"/><polygon class="cls-12" points="114.31 47.45 121.97 43 126.49 51.84 118.83 56.29 114.31 47.45"/><path class="cls-5" d="M114.31,47.45l4.52,8.84,2.72,5.3,1.81,3.54-33,12.72a5.38,5.38,0,0,1-4.54-.72,14.81,14.81,0,0,1-5.4-6c-2.5-4.88-2.09-9.77.9-10.93Z"/><path class="cls-13" d="M114.31,47.45l4.52,8.84s-37,17.53-38.39,14.81c-2.5-4.88-2.09-9.77.9-10.93Z"/><polygon class="cls-12" points="81.34 60.17 88.99 55.72 121.97 43 114.31 47.45 81.34 60.17"/><g class="cls-14"><polygon class="cls-15" points="121.55 61.59 129.2 57.14 131.01 60.68 123.36 65.13 121.55 61.59"/></g><g class="cls-14"><polygon class="cls-15" points="114.31 47.45 121.97 43 126.49 51.84 118.83 56.29 114.31 47.45"/></g><polygon class="cls-16" points="81.34 60.17 88.99 55.72 121.97 43 114.31 47.45 81.34 60.17"/><path class="cls-12" d="M123.65,48.08q1.11,2.69,2.49,5.39t2.94,5.21l-7.53,2.91-2.72-5.3L116.12,51Z"/><polygon class="cls-12" points="116.12 50.98 123.78 46.54 131.31 43.63 123.65 48.08 116.12 50.98"/><polygon class="cls-12" points="116.12 50.98 123.78 46.54 131.31 43.63 123.65 48.08 116.12 50.98"/><path class="cls-12" d="M125,29.85V30c0,.1,0,.19,0,.28v.33a.62.62,0,0,0,0,.13,2.43,2.43,0,0,0,0,.27v.09c0,.11,0,.23,0,.34a1,1,0,0,0,0,.18c0,.12,0,.24,0,.35a1.93,1.93,0,0,1,0,.24c0,.07,0,.14,0,.21,0,.24,0,.49.06.74,0,.08,0,.17,0,.25s0,.12,0,.17l0,.13.06.55c0,.13,0,.25,0,.38s0,.27.06.4,0,.37.07.55,0,.08,0,.11c.07.48.15,1,.24,1.46,0,.2.09.42.13.63.13.64.27,1.28.43,1.93a.08.08,0,0,1,0,0l.27,1.06.08.26v0a.74.74,0,0,1,0,.14c.1.35.21.7.31,1.06l0,.1a.25.25,0,0,0,0,.09c0,.16.09.32.14.47s.13.39.18.58c.16.46.32.92.49,1.39,0,0,0,0,0,.07s.09.22.12.32,0,.11.07.16l.12.34c.06.16.12.32.19.48s.13.33.2.5.1.27.16.41l.07.18c.17.39.34.77.5,1.16s.43,1,.66,1.43l.24.49c.06.14.14.29.2.43s.25.5.38.75c.21.42.43.84.66,1.25s.47.85.71,1.27c.07.11.13.23.19.34s.14.25.22.37c.18.3.36.58.53.88l.51.81c.18.29.37.57.55.85l.19.29.31.47.65.93.67.93.54.71c.25.33.5.66.76,1l.7.87.53.61a6.4,6.4,0,0,0,.42.49l.35.39.38.42a2.73,2.73,0,0,0,.23.25,45.84,45.84,0,0,0,3.38,3.32l.32.28.3.27.09.08.22.19.15.12,0,0,.46.38.35.29.11.09a3.33,3.33,0,0,1,.32.24l.63.47.16.13.48.34.41.29.19.13a2.11,2.11,0,0,0,.27.18l.76.5s0,0,0,0l.51.33.1.05.42.26.25.14c.35.2.7.4,1.06.58l.33.17.23.12.17.09.17.08c.34.16.68.33,1,.48l.47.19.17.08c.68.28,1.37.53,2.06.74l.11,0,.23.07.85.23.19,0,.53.12.17,0,.09,0,.24,0,.19,0,.37.06.13,0,.14,0h.11l.09,0,.61.06.23,0H160a0,0,0,0,0,0,0l.77,0h.89l.57,0h.05l.63-.07.15,0,.09,0,.32-.05.24,0,.11,0a3.57,3.57,0,0,0,.47-.11l.48-.12.41-.13.07,0,.08,0,.13,0,.37-.13,3.24-1.88L173.53,71l-.64.22-.41.13-.48.12-.42.1-.59.11h-.05l-.17,0-.83.09a10.87,10.87,0,0,1-1.14,0c-.11,0-.22,0-.33,0s-.51,0-.76,0l-.44,0-.62-.07-.47-.06-.56-.1-.49-.09-.53-.11-.52-.13-.5-.14-.53-.17-.49-.16-.54-.19c-.17,0-.32-.12-.48-.18l-.55-.22-.48-.2-.56-.26-.47-.22-.57-.28-.46-.25c-.32-.16-.62-.33-.93-.51s-.88-.52-1.31-.8l-.16-.1-1.05-.7-.42-.3-.8-.59-.46-.35-.78-.62-.47-.38c-.27-.22-.54-.46-.81-.7l-.41-.35c-.38-.34-.76-.7-1.14-1.06l-.05,0c-.4-.38-.79-.77-1.18-1.16l-.33-.36c-.28-.28-.55-.57-.82-.87-.13-.13-.25-.27-.38-.42l-.77-.88-.35-.41L145,57.29l-.21-.26c-.37-.47-.74-1-1.1-1.44s-.87-1.22-1.3-1.84c-.17-.25-.34-.5-.5-.75s-.38-.57-.56-.86-.34-.54-.51-.82l-.53-.87-.4-.71c-.25-.42-.48-.84-.71-1.27l-.67-1.25c-.2-.39-.39-.79-.58-1.18l-.24-.49-.55-1.21-.09-.19c-.2-.46-.4-.91-.58-1.37l-.17-.41c-.13-.33-.26-.65-.38-1-.07-.16-.13-.33-.19-.5s-.23-.61-.33-.92c-.06-.16-.12-.33-.17-.49-.11-.32-.21-.63-.31-.95-.05-.15-.11-.31-.15-.46-.13-.42-.26-.84-.37-1.26a.74.74,0,0,1,0-.14c-.13-.47-.26-.93-.37-1.4,0-.14-.07-.29-.1-.43-.08-.32-.15-.64-.22-1s-.07-.35-.1-.53-.12-.56-.17-.85l-.09-.54c0-.27-.09-.54-.13-.8s-.06-.38-.08-.56-.07-.52-.1-.78l-.06-.54c0-.26,0-.52-.07-.78s0-.35,0-.52,0-.53-.05-.79,0-.32,0-.49,0-.57,0-.86v-.39c0-.36,0-.72,0-1.07a1,1,0,0,0,0-.17c0-.4,0-.8.07-1.2l.06-.55c0-.22,0-.45.07-.66s.07-.45.1-.67,0-.35.08-.52c.07-.4.15-.8.24-1.19a.83.83,0,0,1,0-.15,8.33,8.33,0,0,1,.27-1c0-.12.07-.24.1-.35.09-.3.2-.6.3-.89,0-.13.09-.24.13-.37.16-.4.32-.79.5-1.17l0-.12c.05-.1.11-.2.16-.31l.3-.58.21-.35c.1-.17.2-.34.31-.51l.14-.2c.13-.19.25-.38.39-.55l.17-.24a1,1,0,0,0,.13-.16l.3-.35.15-.18c.19-.22.4-.43.61-.63l.12-.12.53-.47.22-.18.5-.38.22-.16c.24-.16.48-.32.74-.47l-7.53,4.38c-.2.11-.41.23-.6.36l-.27.19-.21.15c-.15.11-.3.21-.44.33a1.49,1.49,0,0,0-.28.23l-.53.46-.1.1,0,0-.25.26q-.37.39-.72.81a2.78,2.78,0,0,0-.21.27l-.18.23-.39.54-.13.21h0l-.05.07-.08.13-.18.3-.2.35c-.11.19-.2.38-.31.58l-.15.31a0,0,0,0,0,0,0,.13.13,0,0,0,0,.05s0,0,0,0c-.18.38-.35.77-.5,1.17l0,.09,0,.08a.49.49,0,0,0,0,.11.32.32,0,0,1,0,.09c-.1.29-.2.58-.29.88l-.06.17s0,.05,0,.08,0,0,0,.05a.43.43,0,0,1,0,.05c0,.15-.08.3-.13.45s-.1.39-.14.6l0,.13v0c0,.12-.05.24-.08.35s-.09.44-.13.66l0,.18s0,0,0,0,0,.28-.06.41-.08.53-.11.79-.05.41-.07.61,0,.26,0,.39,0,.39,0,.59,0,.3,0,.45,0,.33,0,.5C125.05,29.17,125,29.51,125,29.85Z"/><path class="cls-12" d="M188.56,57.72v-.48c0-.3,0-.6,0-.91a.86.86,0,0,1,0-.16l0-.61,0-.72a2.28,2.28,0,0,1,0-.26l-.06-.65c0-.2,0-.39,0-.59s0-.25,0-.37,0-.45-.08-.68,0-.32-.05-.48-.05-.33-.07-.49-.07-.46-.1-.69,0-.24-.05-.37-.08-.42-.11-.62l-.12-.69c0-.09,0-.18-.05-.27,0-.26-.1-.52-.15-.78s-.09-.43-.14-.65l0-.18-.24-1-.12-.55a.19.19,0,0,1,0-.08c-.14-.54-.28-1.09-.43-1.64h0c0-.06,0-.12-.05-.18-.13-.48-.27-1-.42-1.43,0,0,0-.09,0-.14s-.12-.38-.19-.57-.19-.61-.29-.91l-.09-.27-.21-.61L185,39c-.05-.16-.12-.32-.18-.48s-.15-.41-.23-.62-.11-.29-.16-.43-.21-.52-.32-.78-.13-.35-.2-.52-.05-.13-.08-.19c-.21-.5-.42-1-.64-1.48v0c0-.07-.07-.15-.11-.23-.19-.42-.38-.85-.58-1.28l-.11-.22-.3-.62-.36-.76-.36-.7c-.19-.37-.38-.74-.58-1.1-.08-.16-.17-.31-.25-.46l-.87-1.57c-.11-.18-.21-.38-.32-.56l-.19-.33c-.22-.37-.45-.73-.67-1.09s-.41-.68-.63-1-.46-.71-.69-1.07-.31-.47-.46-.71l-.16-.22c-.53-.78-1.07-1.55-1.62-2.29l0,0c-.42-.57-.85-1.13-1.29-1.69l-.06-.07-.27-.34-.86-1.06-.22-.26-.45-.52-.51-.6-.44-.48c-.16-.18-.31-.36-.47-.53l-.3-.33-.72-.75c-.14-.14-.27-.29-.41-.44l-.13-.13c-.44-.45-.88-.88-1.33-1.31h0l-.09-.07c-.42-.41-.85-.81-1.28-1.2l-.12-.11-.51-.44-.76-.66L164.45,9l-.58-.47-.57-.46-.39-.3-.58-.44-.4-.31-.61-.43-.51-.36-.23-.17-1.08-.71-.2-.13,0,0c-.43-.28-.87-.54-1.3-.8l-.3-.17-1-.55-.18-.09-.58-.3-.5-.26-.21-.1-.58-.27c-.15-.07-.3-.15-.46-.21L154,2.35l-.58-.25L153,1.93l-.28-.11-.59-.22-.37-.14-.31-.1-.6-.2-.34-.11L150.13,1l-.62-.17L149.19.7l-.32-.07-.66-.15-.32-.07-.29,0-.7-.11-.34-.06-.25,0c-.26,0-.51-.06-.77-.08l-.35,0H145q-.48,0-1,0h-.39c-.48,0-1,0-1.42.07h-.08c-.32,0-.64.07-1,.12l-.21,0-.6.1-.2,0-.53.12-.59.16-.52.16-.34.1-.45.17c-.38.14-.74.3-1.1.47s-.7.36-1,.55L128,6.55a14.93,14.93,0,0,1,2.13-1c.26-.1.53-.19.8-.27a4.48,4.48,0,0,1,.52-.16l.59-.16.52-.12q.41-.09.81-.15l.21,0c.34,0,.68-.08,1-.11s.94-.06,1.41-.07h.4q.48,0,1,0l.54,0,.77.08.58.08.7.12.62.12.65.15.65.16.62.17.66.2.61.2.68.24.59.22.69.28.59.25.7.32.58.27.7.36.59.3,1.15.64c.54.31,1.09.64,1.63,1l.2.13c.44.28.87.57,1.3.87l.52.37,1,.73.58.45,1,.76.57.47c.34.28.68.58,1,.87l.51.44c.47.43.94.86,1.41,1.31l.08.07c.49.47,1,1,1.46,1.45l.42.44c.34.36.68.71,1,1.08l.48.53c.32.35.63.72,1,1.08l.44.52c.37.43.73.88,1.08,1.32l.28.34c.46.58.91,1.18,1.36,1.79s1.09,1.51,1.62,2.29l.63.93.69,1.06.63,1,.66,1.09L172,32q.45.78.87,1.56c.28.52.57,1,.84,1.57s.48,1,.72,1.46l.3.61c.24.51.47,1,.69,1.52a2.14,2.14,0,0,1,.1.22c.26.57.5,1.14.73,1.71l.21.51c.16.41.32.81.47,1.21l.24.63c.14.38.28.76.41,1.14l.21.61c.14.4.26.79.39,1.18.06.2.13.39.18.58.17.53.32,1.06.47,1.58a1,1,0,0,0,.05.16q.24.89.45,1.74c.05.18.08.36.13.54l.27,1.18c0,.23.09.44.13.66l.21,1c0,.23.08.46.11.69s.12.66.16,1,.07.46.1.69.09.65.13,1,0,.45.07.67l.09,1c0,.22,0,.43.05.65l.06,1c0,.21,0,.41,0,.61,0,.36,0,.71,0,1.07,0,.16,0,.32,0,.48,0,.46,0,.91,0,1.36v.18c0,.51-.06,1-.1,1.51,0,.23-.05.45-.07.68s-.05.55-.09.82-.08.56-.12.83-.06.43-.1.65c-.09.5-.18,1-.29,1.47a1.46,1.46,0,0,0-.05.2c-.11.44-.22.87-.34,1.29,0,.15-.09.29-.14.44-.11.37-.23.74-.36,1.1-.06.15-.11.3-.17.46-.19.49-.4,1-.62,1.45l-.06.15c-.07.13-.14.26-.2.39s-.25.49-.38.72-.17.29-.25.43l-.39.64-.18.26c-.15.23-.31.45-.47.67l-.23.3c-.17.21-.34.43-.52.64s-.13.15-.19.22c-.25.27-.5.53-.76.79l-.15.14-.66.59-.27.22c-.21.16-.41.32-.63.47l-.27.2c-.3.2-.6.4-.92.58l7.66-4.44.92-.59.27-.19c.21-.16.42-.31.62-.48l.27-.22c.23-.19.45-.38.66-.59l.16-.14c.26-.25.51-.52.75-.79.07-.07.13-.15.19-.22s.36-.42.53-.64l.22-.29.48-.68c.06-.09.12-.17.17-.26a.86.86,0,0,0,.07-.1c.11-.17.21-.36.32-.54s.17-.28.25-.42.26-.49.38-.73.14-.26.2-.39l0,0,.05-.12c.22-.47.42-1,.61-1.45l.09-.22.08-.24c.13-.36.25-.73.37-1.1,0-.11.07-.21.1-.31l0-.12c.13-.43.24-.87.34-1.31,0,0,0-.11,0-.17v0q.17-.72.3-1.47v0c0-.2.06-.4.09-.61s.09-.55.13-.83v-.05c0-.25.05-.51.07-.76s.06-.46.08-.69v0c0-.48.07-1,.09-1.46h0v-.2c0-.42,0-.85,0-1.27Z"/><path class="cls-17" d="M125,29.85V30c0,.1,0,.19,0,.28v.33a.62.62,0,0,0,0,.13,2.43,2.43,0,0,0,0,.27v.09c0,.11,0,.23,0,.34a1,1,0,0,0,0,.18c0,.12,0,.24,0,.35a1.93,1.93,0,0,1,0,.24c0,.07,0,.14,0,.21,0,.24,0,.49.06.74,0,.08,0,.17,0,.25s0,.12,0,.17l0,.13.06.55c0,.13,0,.25,0,.38s0,.27.06.4,0,.37.07.55,0,.08,0,.11c.07.48.15,1,.24,1.46,0,.2.09.42.13.63.13.64.27,1.28.43,1.93a.08.08,0,0,1,0,0l.27,1.06.08.26v0a.74.74,0,0,1,0,.14c.1.35.21.7.31,1.06l0,.1a.25.25,0,0,0,0,.09c0,.16.09.32.14.47s.13.39.18.58c.16.46.32.92.49,1.39,0,0,0,0,0,.07s.09.22.12.32,0,.11.07.16l.12.34c.06.16.12.32.19.48s.13.33.2.5.1.27.16.41l.07.18c.17.39.34.77.5,1.16s.43,1,.66,1.43l.24.49c.06.14.14.29.2.43s.25.5.38.75c.21.42.43.84.66,1.25s.47.85.71,1.27c.07.11.13.23.19.34s.14.25.22.37c.18.3.36.58.53.88l.51.81c.18.29.37.57.55.85l.19.29.31.47.65.93.67.93.54.71c.25.33.5.66.76,1l.7.87.53.61a6.4,6.4,0,0,0,.42.49l.35.39.38.42a2.73,2.73,0,0,0,.23.25,45.84,45.84,0,0,0,3.38,3.32l.32.28.3.27.09.08.22.19.15.12,0,0,.46.38.35.29.11.09a3.33,3.33,0,0,1,.32.24l.63.47.16.13.48.34.41.29.19.13a2.11,2.11,0,0,0,.27.18l.76.5s0,0,0,0l.51.33.1.05.42.26.25.14c.35.2.7.4,1.06.58l.33.17.23.12.17.09.17.08c.34.16.68.33,1,.48l.47.19.17.08c.68.28,1.37.53,2.06.74l.11,0,.23.07.85.23.19,0,.53.12.17,0,.09,0,.24,0,.19,0,.37.06.13,0,.14,0h.11l.09,0,.61.06.23,0H160a0,0,0,0,0,0,0l.77,0h.89l.57,0h.05l.63-.07.15,0,.09,0,.32-.05.24,0,.11,0a3.57,3.57,0,0,0,.47-.11l.48-.12.41-.13.07,0,.08,0,.13,0,.37-.13,1.75-.24,5.9-4.21-.64.22-.41.13-.48.12-.42.1-.59.11h-.05l-.17,0-.83.09a10.87,10.87,0,0,1-1.14,0c-.11,0-.22,0-.33,0s-.51,0-.76,0l-.44,0-.62-.07-.47-.06-.56-.1-.49-.09-.53-.11-.52-.13-.5-.14-.53-.17-.49-.16-.54-.19c-.17,0-.32-.12-.48-.18l-.55-.22-.48-.2-.56-.26-.47-.22-.57-.28-.46-.25c-.32-.16-.62-.33-.93-.51s-.88-.52-1.31-.8l-.16-.1-1.05-.7-.42-.3-.8-.59-.46-.35-.78-.62-.47-.38c-.27-.22-.54-.46-.81-.7l-.41-.35c-.38-.34-.76-.7-1.14-1.06l-.05,0c-.4-.38-.79-.77-1.18-1.16l-.33-.36c-.28-.28-.55-.57-.82-.87-.13-.13-.25-.27-.38-.42l-.77-.88-.35-.41L145,57.29l-.21-.26c-.37-.47-.74-1-1.1-1.44s-.87-1.22-1.3-1.84c-.17-.25-.34-.5-.5-.75s-.38-.57-.56-.86-.34-.54-.51-.82l-.53-.87-.4-.71c-.25-.42-.48-.84-.71-1.27l-.67-1.25c-.2-.39-.39-.79-.58-1.18l-.24-.49-.55-1.21-.09-.19c-.2-.46-.4-.91-.58-1.37l-.17-.41c-.13-.33-.26-.65-.38-1-.07-.16-.13-.33-.19-.5s-.23-.61-.33-.92c-.06-.16-.12-.33-.17-.49-.11-.32-.21-.63-.31-.95-.05-.15-.11-.31-.15-.46-.13-.42-.26-.84-.37-1.26a.74.74,0,0,1,0-.14c-.13-.47-.26-.93-.37-1.4,0-.14-.07-.29-.1-.43-.08-.32-.15-.64-.22-1s-.07-.35-.1-.53-.12-.56-.17-.85l-.09-.54c0-.27-.09-.54-.13-.8s-.06-.38-.08-.56-.07-.52-.1-.78l-.06-.54c0-.26,0-.52-.07-.78s0-.35,0-.52,0-.53-.05-.79,0-.32,0-.49,0-.57,0-.86v-.39c0-.36,0-.72,0-1.07a1,1,0,0,0,0-.17c0-.4,0-.8.07-1.2l.06-.55c0-.22,0-.45.07-.66s.07-.45.1-.67,0-.35.08-.52c.07-.4.15-.8.24-1.19a.83.83,0,0,1,0-.15,8.33,8.33,0,0,1,.27-1c0-.12.07-.24.1-.35.09-.3.2-.6.3-.89,0-.13.09-.24.13-.37.16-.4.32-.79.5-1.17l0-.12c.05-.1.11-.2.16-.31l.3-.58.21-.35c.1-.17.2-.34.31-.51l.14-.2c.13-.19.25-.38.39-.55l.17-.24a1,1,0,0,0,.13-.16l.3-.35.15-.18c.19-.22.4-.43.61-.63l.12-.12.53-.47.22-.18.5-.38.22-.16c.24-.16.48-.32.74-.47l-7.53,4.38c-.2.11-.41.23-.6.36l-.27.19-.21.15c-.15.11-.3.21-.44.33a1.49,1.49,0,0,0-.28.23l-.53.46-.1.1,0,0-.25.26q-.37.39-.72.81a2.78,2.78,0,0,0-.21.27l-.18.23-.39.54-.13.21h0l-.05.07-.08.13-.18.3-.2.35c-.11.19-.2.38-.31.58l-.15.31a0,0,0,0,0,0,0,.13.13,0,0,0,0,.05s0,0,0,0c-.18.38-.35.77-.5,1.17l0,.09,0,.08a.49.49,0,0,0,0,.11.32.32,0,0,1,0,.09c-.1.29-.2.58-.29.88l-.06.17s0,.05,0,.08,0,0,0,.05a.43.43,0,0,1,0,.05c0,.15-.08.3-.13.45s-.1.39-.14.6l0,.13v0c0,.12-.05.24-.08.35s-.09.44-.13.66l0,.18s0,0,0,0,0,.28-.06.41-.08.53-.11.79-.05.41-.07.61,0,.26,0,.39,0,.39,0,.59,0,.3,0,.45,0,.33,0,.5C125.05,29.17,125,29.51,125,29.85Z"/><path class="cls-17" d="M188.56,57.72v-.48c0-.3,0-.6,0-.91a.86.86,0,0,1,0-.16l0-.61,0-.72a2.28,2.28,0,0,1,0-.26l-.06-.65c0-.2,0-.39,0-.59s0-.25,0-.37,0-.45-.08-.68,0-.32-.05-.48-.05-.33-.07-.49-.07-.46-.1-.69,0-.24-.05-.37-.08-.42-.11-.62l-.12-.69c0-.09,0-.18-.05-.27,0-.26-.1-.52-.15-.78s-.09-.43-.14-.65l0-.18-.24-1-.12-.55a.19.19,0,0,1,0-.08c-.14-.54-.28-1.09-.43-1.64h0c0-.06,0-.12-.05-.18-.13-.48-.27-1-.42-1.43,0,0,0-.09,0-.14s-.12-.38-.19-.57-.19-.61-.29-.91l-.09-.27-.21-.61L185,39c-.05-.16-.12-.32-.18-.48s-.15-.41-.23-.62-.11-.29-.16-.43-.21-.52-.32-.78-.13-.35-.2-.52-.05-.13-.08-.19c-.21-.5-.42-1-.64-1.48v0c0-.07-.07-.15-.11-.23-.19-.42-.38-.85-.58-1.28l-.11-.22-.3-.62-.36-.76-.36-.7c-.19-.37-.38-.74-.58-1.1-.08-.16-.17-.31-.25-.46l-.87-1.57c-.11-.18-.21-.38-.32-.56l-.19-.33c-.22-.37-.45-.73-.67-1.09s-.41-.68-.63-1-.46-.71-.69-1.07-.31-.47-.46-.71l-.16-.22c-.53-.78-1.07-1.55-1.62-2.29l0,0c-.42-.57-.85-1.13-1.29-1.69l-.06-.07-.27-.34-.86-1.06-.22-.26-.45-.52-.51-.6-.44-.48c-.16-.18-.31-.36-.47-.53l-.3-.33-.72-.75c-.14-.14-.27-.29-.41-.44l-.13-.13c-.44-.45-.88-.88-1.33-1.31h0l-.09-.07c-.42-.41-.85-.81-1.28-1.2l-.12-.11-.51-.44-.76-.66L164.45,9l-.58-.47-.57-.46-.39-.3-.58-.44-.4-.31-.61-.43-.51-.36-.23-.17-1.08-.71-.2-.13,0,0c-.43-.28-.87-.54-1.3-.8l-.3-.17-1-.55-.18-.09-.58-.3-.5-.26-.21-.1-.58-.27c-.15-.07-.3-.15-.46-.21L154,2.35l-.58-.25L153,1.93l-.28-.11-.59-.22-.37-.14-.31-.1-.6-.2-.34-.11L150.13,1l-.62-.17L149.19.7l-.32-.07-.66-.15-.32-.07-.29,0-.7-.11-.34-.06-.25,0c-.26,0-.51-.06-.77-.08l-.35,0H145q-.48,0-1,0h-.39c-.48,0-1,0-1.42.07h-.08c-.32,0-.64.07-1,.12l-.21,0-.6.1-.2,0-.53.12-.59.16-.52.16-.34.1-.45.17c-.38.14-.74.3-1.1.47s-.7.36-1,.55L128,6.55a14.93,14.93,0,0,1,2.13-1c.26-.1.53-.19.8-.27a4.48,4.48,0,0,1,.52-.16l.59-.16.52-.12q.41-.09.81-.15l.21,0c.34,0,.68-.08,1-.11s.94-.06,1.41-.07h.4q.48,0,1,0l.54,0,.77.08.58.08.7.12.62.12.65.15.65.16.62.17.66.2.61.2.68.24.59.22.69.28.59.25.7.32.58.27.7.36.59.3,1.15.64c.54.31,1.09.64,1.63,1l.2.13c.44.28.87.57,1.3.87l.52.37,1,.73.58.45,1,.76.57.47c.34.28.68.58,1,.87l.51.44c.47.43.94.86,1.41,1.31l.08.07c.49.47,1,1,1.46,1.45l.42.44c.34.36.68.71,1,1.08l.48.53c.32.35.63.72,1,1.08l.44.52c.37.43.73.88,1.08,1.32l.28.34c.46.58.91,1.18,1.36,1.79s1.09,1.51,1.62,2.29l.63.93.69,1.06.63,1,.66,1.09L172,32q.45.78.87,1.56c.28.52.57,1,.84,1.57s.48,1,.72,1.46l.3.61c.24.51.47,1,.69,1.52a2.14,2.14,0,0,1,.1.22c.26.57.5,1.14.73,1.71l.21.51c.16.41.32.81.47,1.21l.24.63c.14.38.28.76.41,1.14l.21.61c.14.4.26.79.39,1.18.06.2.13.39.18.58.17.53.32,1.06.47,1.58a1,1,0,0,0,.05.16q.24.89.45,1.74c.05.18.08.36.13.54l.27,1.18c0,.23.09.44.13.66l.21,1c0,.23.08.46.11.69s.12.66.16,1,.07.46.1.69.09.65.13,1,0,.45.07.67l.09,1c0,.22,0,.43.05.65l.06,1c0,.21,0,.41,0,.61,0,.36,0,.71,0,1.07,0,.16,0,.32,0,.48,0,.46,0,.91,0,1.36v.18c0,.51-.06,1-.1,1.51,0,.23-.05.45-.07.68s-.05.55-.09.82-.08.56-.12.83-.06.43-.1.65c-.09.5-.18,1-.29,1.47a1.46,1.46,0,0,0-.05.2c-.11.44-.22.87-.34,1.29,0,.15-.09.29-.14.44-.11.37-.23.74-.36,1.1-.06.15-.11.3-.17.46-.19.49-.4,1-.62,1.45l-.06.15c-.07.13-.14.26-.2.39s-.25.49-.38.72-.17.29-.25.43l-.39.64-.18.26c-.15.23-.31.45-.47.67l-.23.3c-.17.21-.34.43-.52.64s-.13.15-.19.22c-.25.27-.5.53-.76.79l-.15.14-.66.59-.27.22c-.21.16-.41.32-.63.47l-.27.2c-.3.2-.6.4-.92.58l7.66-4.44.92-.59.27-.19c.21-.16.42-.31.62-.48l.27-.22c.23-.19.45-.38.66-.59l.16-.14c.26-.25.51-.52.75-.79.07-.07.13-.15.19-.22s.36-.42.53-.64l.22-.29.48-.68c.06-.09.12-.17.17-.26a.86.86,0,0,0,.07-.1c.11-.17.21-.36.32-.54s.17-.28.25-.42.26-.49.38-.73.14-.26.2-.39l0,0,.05-.12c.22-.47.42-1,.61-1.45l.09-.22.08-.24c.13-.36.25-.73.37-1.1,0-.11.07-.21.1-.31l0-.12c.13-.43.24-.87.34-1.31,0,0,0-.11,0-.17v0q.17-.72.3-1.47v0c0-.2.06-.4.09-.61s.09-.55.13-.83v-.05c0-.25.05-.51.07-.76s.06-.46.08-.69v0c0-.48.07-1,.09-1.46h0v-.2c0-.42,0-.85,0-1.27Z"/><path class="cls-12" d="M121.8,43.06s0,0,0,0c.4,1.25.86,2.52,1.36,3.79.15.4.32.8.48,1.2.59,1.42,1.24,2.86,1.94,4.28.18.37.36.74.55,1.1.73,1.42,1.48,2.8,2.28,4.14.21.36.43.72.65,1.08.48.77,1,1.53,1.47,2.27,5.57,8.37,12.42,15,19.31,18.94s14.1,5.4,19.92,3.16A15.47,15.47,0,0,0,172,82c.28-.16.55-.34.82-.53l.26-.19,0,0,.69-.52.18-.15.33-.29a5.11,5.11,0,0,0,.48-.45,10.12,10.12,0,0,0,.95-1c.18-.2.36-.42.52-.63l.22-.3.25-.33c.12-.16.23-.32.34-.49l.13-.2.33-.55.25-.42c.07-.12.13-.24.19-.37s.13-.24.19-.36a1.74,1.74,0,0,1,.1-.19l.17-.35c.28-.61.55-1.25.78-1.91.19-.5.35-1,.5-1.54s.26-1,.38-1.44l0-.14c0-.21.08-.41.13-.62a.09.09,0,0,1,0,0c0-.24.09-.48.13-.72s.07-.42.1-.64.09-.55.13-.83a.17.17,0,0,1,0-.07c.05-.45.1-.92.14-1.38,0-.06,0-.11,0-.17s0-.42,0-.63,0-.5,0-.76a.55.55,0,0,0,0-.18c0-.22,0-.45,0-.67s0-.46,0-.69V62c0-.33,0-.67,0-1v-.36c0-.1,0-.19,0-.29a46.09,46.09,0,0,0-.5-5.24c-.24-1.62-.57-3.28-1-5l0-.15c-.07-.29-.15-.58-.22-.87s-.18-.69-.28-1c-.15-.53-.3-1-.47-1.58l0-.13c-.05-.18-.11-.36-.17-.54-.12-.36-.24-.72-.35-1.09a1.34,1.34,0,0,1-.07-.18c-.38-1.12-.81-2.26-1.27-3.39v0l-.21-.51c-.11-.28-.23-.57-.36-.85s-.24-.58-.37-.86a2.14,2.14,0,0,0-.1-.22c-.22-.5-.45-1-.7-1.52s-.37-.79-.57-1.18-.29-.6-.44-.89l-.44-.85c-.57-1.07-1.16-2.14-1.78-3.17-.22-.37-.44-.73-.67-1.09,0-.08-.09-.16-.14-.24-.29-.47-.59-.94-.89-1.4l-.29-.44c-.2-.31-.41-.63-.62-.93s-.53-.78-.8-1.16c-1.13-1.6-2.32-3.13-3.54-4.58-.14-.18-.29-.35-.44-.51-.31-.37-.63-.74-1-1.09s-.69-.77-1-1.14-.43-.46-.66-.69l-.21-.22c-.24-.25-.48-.49-.73-.73s-.72-.72-1.09-1.06-.71-.66-1.06-1c-.71-.65-1.44-1.27-2.16-1.85l-1-.77-.57-.44-1-.73-.52-.37c-.43-.3-.86-.59-1.3-.87a1.07,1.07,0,0,0-.21-.13q-.4-.27-.81-.51L150,8.69c-.22-.13-.42-.25-.64-.36l-.51-.28-.59-.3c-.23-.13-.47-.24-.7-.36L147,7.12c-.65-.31-1.29-.58-1.94-.83a.25.25,0,0,0-.09,0l-.54-.2c-.43-.16-.86-.31-1.29-.44-.59-.19-1.18-.35-1.77-.49l-.16,0L140.89,5l-.33-.07-.62-.12a19.69,19.69,0,0,0-2.49-.31h-.16c-.29,0-.57,0-.86,0H136l-.71,0c-.43,0-.85,0-1.28.1l-.46.06-.2,0a13.75,13.75,0,0,0-2.38.57h-.06l-.4.14-.4.14-.68.28-.66.31-.58.31C118.77,11.69,116.42,26.57,121.8,43.06Zm6.28,2.45L127.9,45s0,0,0-.07c-.17-.47-.33-.93-.49-1.39L127,42.42l0-.1c-.13-.41-.24-.82-.35-1.22l-.08-.26c-.1-.37-.19-.74-.28-1.1-.16-.65-.3-1.29-.43-1.93,0-.21-.09-.43-.13-.63-.09-.5-.17-1-.24-1.46s-.11-.71-.15-1.06-.09-.71-.13-1.06l0-.42c0-.25,0-.5-.06-.74l0-.45c0-.18,0-.35,0-.53s0-.23,0-.34v-.36a.62.62,0,0,1,0-.13c0-.2,0-.41,0-.61v-.17c0-.34,0-.68,0-1,0-.17,0-.33,0-.5s0-.3,0-.45,0-.39,0-.59.06-.67.11-1,.07-.53.11-.79,0-.29.07-.43l0-.18c0-.22.09-.44.13-.66l.12-.5c0-.21.09-.4.14-.6s.09-.3.13-.45a.43.43,0,0,0,0-.05.65.65,0,0,0,0-.13c.12-.39.25-.77.38-1.14l.07-.19q.24-.65.54-1.26s0,0,0,0,0-.05,0-.08l.15-.31c.1-.2.2-.39.31-.58a4,4,0,0,1,.2-.35l.18-.3.13-.2h0a9.68,9.68,0,0,1,.7-1,1.78,1.78,0,0,1,.21-.27q.34-.42.72-.81l.28-.28.1-.1c.17-.16.35-.32.53-.46a1.49,1.49,0,0,1,.28-.23,10.31,10.31,0,0,1,.92-.67c.19-.13.4-.25.6-.36a11.54,11.54,0,0,1,1.59-.75,13.16,13.16,0,0,1,2.55-.69c4.13-.67,8.81.53,13.47,3.23,7.1,4.1,14.15,11.65,19.06,21.24,7.09,13.86,7.54,27.76,1.92,34.77a12.13,12.13,0,0,1-5.11,3.77l-.5.18-.08,0-.48.15a3.74,3.74,0,0,1-.48.12,3.57,3.57,0,0,1-.47.11l-.35.07-.32.05-.24,0-.63.07-.62,0h-.89l-.77,0a0,0,0,0,1,0,0h-.19c-.28,0-.56,0-.84-.08l-.09,0-.25,0-.13,0-.37-.06-.52-.09-.17,0-.72-.16-.85-.23-.34-.1c-.69-.21-1.38-.46-2.06-.74l-.64-.27c-.35-.15-.69-.32-1-.48l-.34-.17c-.18-.09-.38-.18-.56-.29-.36-.18-.71-.38-1.06-.58l-.67-.4-.1-.05-.54-.35-.76-.5-.46-.31-.41-.29-.64-.47-.63-.47-.43-.33-.35-.29-.46-.38,0,0-.37-.31-.09-.08c-.21-.18-.42-.36-.62-.55a45.84,45.84,0,0,1-3.38-3.32c-.21-.22-.41-.44-.61-.67l-.35-.39a6.4,6.4,0,0,1-.42-.49l-.53-.61c-.23-.29-.47-.57-.7-.87s-.51-.64-.76-1l-.54-.71-.67-.93c-.22-.3-.44-.61-.65-.93l-.31-.47c-.62-.91-1.21-1.86-1.78-2.83-.08-.12-.15-.25-.22-.37-.3-.52-.61-1.06-.9-1.61s-.45-.83-.66-1.25c-.13-.25-.26-.5-.38-.75s-.3-.61-.44-.92c-.23-.48-.45-1-.66-1.43l-.5-1.16-.07-.18c-.13-.3-.25-.61-.36-.91s-.13-.32-.19-.48Z"/><path class="cls-18" d="M132.69,25.46c0,.13,0,.26,0,.39s0,.57,0,.86,0,.33,0,.48,0,.53.05.79,0,.35,0,.53,0,.51.07.77l.06.55c0,.25.07.52.1.78s0,.37.08.55.08.53.13.8.06.37.1.55.1.57.16.85.07.35.11.52.14.63.21,1c0,.14.07.28.1.43.12.46.24.93.37,1.4,0,0,0,.09,0,.14.12.41.24.84.37,1.25l.15.47c.1.31.2.63.31.95,0,.16.11.32.17.49s.22.61.33.92.12.34.19.5l.38,1c.06.13.11.27.17.41.19.45.38.91.58,1.37l.09.19.55,1.21.24.49.58,1.17c.22.43.45.84.67,1.26l.71,1.27c.14.23.27.47.41.71s.35.58.53.87.34.56.51.82.36.57.55.85l.5.76c.43.62.86,1.24,1.3,1.84l1.1,1.44a2.65,2.65,0,0,1,.21.26l.88,1.07.35.41.77.88.39.42c.27.29.54.59.81.87.11.12.22.24.34.35q.58.6,1.17,1.17l.05,0,.73.69.42.37.4.35.82.7.46.38.78.61.46.36.05,0,.76.55.41.29c.35.25.7.48,1.05.71l.16.1c.44.28.88.54,1.31.8s.62.35.93.51l.47.24c.19.1.37.2.57.29l.46.22.56.26.48.19.55.23.48.18.54.19.49.16.53.16.51.14.52.13.52.12.5.09.56.1.46.06.62.07.44,0c.25,0,.51,0,.77,0a1.69,1.69,0,0,0,.32,0c.38,0,.76,0,1.14,0l.21,0,.62-.08.17,0,.05,0c5.63-7,5.17-20.9-1.92-34.76-4.91-9.59-11.95-17.14-19.06-21.25-4.66-2.69-9.34-3.9-13.47-3.22l-.13.16-.17.24c-.14.17-.26.36-.39.54l-.14.21c-.1.17-.2.34-.31.51s-.14.23-.2.35-.21.38-.31.58l-.16.31a.61.61,0,0,1,0,.12c-.17.37-.34.77-.49,1.17-.05.12-.1.24-.14.37-.1.29-.2.58-.29.88,0,.12-.08.23-.11.35q-.15.51-.27,1.05s0,.1,0,.15c-.09.39-.17.78-.24,1.18,0,.17-.06.35-.08.52s-.07.45-.1.67,0,.45-.07.67l-.06.54c0,.4-.06.8-.07,1.21a.81.81,0,0,1,0,.16C132.7,24.74,132.69,25.1,132.69,25.46Z"/><path class="cls-11" d="M150.51,42.63l-.07,20.57.42.37.4.35.82.7.46.38.78.61.46.36.05,0,.06-21.43.31,0a3,3,0,0,0,1-.08c1.26-.33,2.09-1.55,2.09-3.47a11.14,11.14,0,0,0-5.07-8.77c-2.8-1.62-5.08-.32-5.08,2.9A11.2,11.2,0,0,0,150.51,42.63Z"/><g class="cls-6"><path class="cls-10" d="M153.83,66l.76.55.41.29c.35.25.7.48,1.05.71l.16.1c.44.28.88.54,1.31.8s.62.35.93.51l.47.24c.19.1.37.2.57.29l.46.22.56.26.48.19.55.23.48.18.54.19.49.16.53.16.51.14.52.13.52.12.5.09.56.1.46.06.62.07.44,0c.25,0,.51,0,.77,0a1.69,1.69,0,0,0,.32,0c.38,0,.76,0,1.14,0l.21,0C163,60,158.07,50.43,155.2,44.54a3,3,0,0,1-1,.08l-.31,0Z"/></g><path class="cls-11" d="M143.63,34.48c-.19,4.65,3.19,9.92,7.68,12a8.63,8.63,0,0,0,3.63.86c3.48,0,5.92-2.51,6.08-6.25.19-4.65-3.19-9.93-7.69-12a8.59,8.59,0,0,0-3.62-.86C146.23,28.23,143.79,30.74,143.63,34.48Zm1.7.06c.16-3.95,3.42-5.71,7.29-3.92s6.87,6.45,6.7,10.41S155.9,46.75,152,45,145.16,38.5,145.33,34.54Z"/><path class="cls-2" d="M477.24,219.2A226.54,226.54,0,0,0,456,209.91a142.37,142.37,0,0,0-40.53-8.59l-1.77-.12c-32.53-2.06-63.45,4.82-77.4,10-20.05,7.41-34.34,25.66-2.39,30.8s44.45,9.71,58.36,18.88q7.78,5.13,9,13.46a27.26,27.26,0,0,1-.76,10.51,45.43,45.43,0,0,1-1.43,4.61c-4.41,16.58,11,30.73,45.35,29.12S507.93,291,510.71,267.1C513,247.5,504.73,233.15,477.24,219.2Z"/><path class="cls-3" d="M469.2,207.49a228.87,228.87,0,0,0-21.28-9.29,142.45,142.45,0,0,0-40.53-8.59l-1.77-.12c-32.53-2.06-63.45,4.83-77.4,10-20.05,7.41-34.34,25.66-2.39,30.8s44.45,9.71,58.36,18.88q7.77,5.13,9,13.46a27.32,27.32,0,0,1-.76,10.52,46.07,46.07,0,0,1-1.43,4.6c-4.41,16.58,11,30.73,45.35,29.12s63.56-27.51,66.34-51.46C505,235.79,496.68,221.44,469.2,207.49Z"/></g></g></g></svg>