<svg xmlns="http://www.w3.org/2000/svg" xmlns:xlink="http://www.w3.org/1999/xlink" viewBox="0 0 597.99 554.3"><defs><style>.cls-1,.cls-2,.cls-69{fill:#ffa05f;}.cls-1,.cls-3,.cls-5,.cls-7{clip-rule:evenodd;}.cls-3,.cls-4{fill:none;}.cls-5,.cls-6,.cls-74{fill:#eaeaea;}.cls-10,.cls-7,.cls-77,.cls-8{fill:#2a436f;}.cls-9{isolation:isolate;}.cls-10,.cls-69,.cls-74,.cls-77,.cls-93{fill-rule:evenodd;}.cls-10{opacity:0.15;}.cls-11{fill:#bdc3c7;}.cls-12{fill:#f7f7f7;}.cls-13,.cls-64{fill:#f1f2eb;}.cls-13{stroke:#f1f2eb;stroke-miterlimit:10;stroke-width:1.93px;}.cls-14{fill:#c3bab8;}.cls-15{fill:#beb5b3;}.cls-16{fill:#b9b0af;}.cls-17{fill:#b5acaa;}.cls-18{fill:#b0a7a6;}.cls-19{fill:#aba2a1;}.cls-20{fill:#a69e9c;}.cls-21{fill:#a19998;}.cls-22{fill:#9c9493;}.cls-23{fill:#97908f;}.cls-24{fill:#928b8a;}.cls-25{fill:#8e8785;}.cls-26{fill:#898281;}.cls-27{fill:#847d7c;}.cls-28{fill:#7f7978;}.cls-29{fill:#827c7b;}.cls-30{fill:#d2c8c6;}.cls-31{fill:#1e5d9d;}.cls-32{fill:#305fc2;}.cls-33{fill:#05192b;}.cls-34{fill:#051a2d;}.cls-35{fill:#051b2e;}.cls-36{fill:#051c30;}.cls-37{fill:#051d32;}.cls-38{fill:#061e33;}.cls-39{fill:#061f35;}.cls-40{fill:#062037;}.cls-41{fill:#062138;}.cls-42{fill:#06223a;}.cls-43{fill:#06233c;}.cls-44{fill:#07243d;}.cls-45{fill:#07253f;}.cls-46{fill:#072641;}.cls-47{fill:#072742;}.cls-48{fill:#12385f;}.cls-49{fill:#133a62;}.cls-50{fill:#143c66;}.cls-51{fill:#143f6a;}.cls-52{fill:#15416d;}.cls-53{fill:#164371;}.cls-54{fill:#164574;}.cls-55{fill:#174778;}.cls-56{fill:#18497c;}.cls-57{fill:#194c7f;}.cls-58{fill:#194e83;}.cls-59{fill:#1a5087;}.cls-60{fill:#1b528a;}.cls-61{fill:#1b548e;}.cls-62{fill:#1c5692;}.cls-63{fill:#fff;}.cls-65{opacity:0.5;}.cls-66{opacity:0.6;mix-blend-mode:multiply;}.cls-67{fill:#c3b6d3;}.cls-68{fill:#4b4e85;}.cls-70{clip-path:url(#clip-path);}.cls-71{clip-path:url(#clip-path-2);}.cls-72{clip-path:url(#clip-path-3);}.cls-73{clip-path:url(#clip-path-4);}.cls-75{clip-path:url(#clip-path-5);}.cls-76{clip-path:url(#clip-path-6);}.cls-78{clip-path:url(#clip-path-7);}.cls-79{clip-path:url(#clip-path-8);}.cls-80{clip-path:url(#clip-path-9);}.cls-81{clip-path:url(#clip-path-10);}.cls-82{clip-path:url(#clip-path-11);}.cls-83{fill:#ff4f98;}.cls-84{clip-path:url(#clip-path-13);}.cls-85{clip-path:url(#clip-path-15);}.cls-86{clip-path:url(#clip-path-17);}.cls-87{clip-path:url(#clip-path-19);}.cls-88{clip-path:url(#clip-path-21);}.cls-89{clip-path:url(#clip-path-23);}.cls-90{clip-path:url(#clip-path-25);}.cls-91{clip-path:url(#clip-path-27);}.cls-92{clip-path:url(#clip-path-29);}.cls-93{fill:#f8fcfe;}</style><clipPath id="clip-path" transform="translate(0 0)"><path class="cls-1" d="M351.72,179.53l-.23.12c-.82-14.06-7.9-17-7.9-17a132.83,132.83,0,0,1,0,13.76c6.39,2.22,6.8,5.66,8,7.62l.92-.56Z"/></clipPath><clipPath id="clip-path-2" transform="translate(0 0)"><rect class="cls-2" x="105.36" width="474.78" height="356.09"/></clipPath><clipPath id="clip-path-3" transform="translate(0 0)"><path class="cls-3" d="M344.49,162.11s8.52,3.52,7.94,21.37c-1.14-2-1.55-5.4-7.94-7.61a132.72,132.72,0,0,0,0-13.76"/></clipPath><clipPath id="clip-path-4" transform="translate(0 0)"><rect class="cls-4" x="105.33" width="474.78" height="356.09"/></clipPath><clipPath id="clip-path-5" transform="translate(0 0)"><path class="cls-5" d="M320,204.74l4.71-.77a60.21,60.21,0,0,1-.76,8.71A10.83,10.83,0,0,1,320,218.8h0a10.83,10.83,0,0,1-3.94-6.12,60.93,60.93,0,0,1-.77-8.71Z"/></clipPath><clipPath id="clip-path-6" transform="translate(0 0)"><rect class="cls-6" x="105.36" width="474.78" height="356.09"/></clipPath><clipPath id="clip-path-7" transform="translate(0 0)"><path class="cls-7" d="M316.07,202.08a7.35,7.35,0,0,1,7.8,0h1.24v2.09c0,1.78-2.3,3.22-5.14,3.22s-5.13-1.44-5.13-3.22v-2.09Z"/></clipPath><clipPath id="clip-path-8" transform="translate(0 0)"><rect class="cls-8" x="105.36" width="474.78" height="356.09"/></clipPath><clipPath id="clip-path-9" transform="translate(0 0)"><path class="cls-3" d="M326.21,196v5.24c0,2.16-2.79,3.91-6.24,3.91s-6.24-1.75-6.24-3.91V196Z"/></clipPath><clipPath id="clip-path-10" transform="translate(0 0)"><rect class="cls-4" x="105.36" width="474.78" height="356.09"/></clipPath><clipPath id="clip-path-11" transform="translate(0 0)"><path class="cls-3" d="M313.73,196c0,2.15,2.8,3.9,6.24,3.9s6.24-1.75,6.24-3.9-2.79-3.91-6.24-3.91-6.24,1.75-6.24,3.91"/></clipPath><clipPath id="clip-path-13" transform="translate(0 0)"><path class="cls-5" d="M334.78,204.74l4.71-.77a60.21,60.21,0,0,1-.76,8.71,10.77,10.77,0,0,1-4,6.12h0a10.87,10.87,0,0,1-3.95-6.12,60.21,60.21,0,0,1-.76-8.71Z"/></clipPath><clipPath id="clip-path-15" transform="translate(0 0)"><path class="cls-7" d="M330.87,202.08a7.35,7.35,0,0,1,7.8,0h1.23v2.09c0,1.78-2.3,3.22-5.13,3.22s-5.13-1.44-5.13-3.22v-2.09Z"/></clipPath><clipPath id="clip-path-17" transform="translate(0 0)"><path class="cls-3" d="M341,196v5.24c0,2.16-2.8,3.91-6.24,3.91s-6.24-1.75-6.24-3.91V196Z"/></clipPath><clipPath id="clip-path-19" transform="translate(0 0)"><path class="cls-3" d="M328.53,196c0,2.15,2.8,3.9,6.24,3.9S341,198.14,341,196s-2.8-3.91-6.24-3.91-6.24,1.75-6.24,3.91"/></clipPath><clipPath id="clip-path-21" transform="translate(0 0)"><path class="cls-5" d="M327.38,209.08l4.71-.76a60.31,60.31,0,0,1-.76,8.71,10.79,10.79,0,0,1-3.94,6.11h0a10.83,10.83,0,0,1-3.95-6.11,60.31,60.31,0,0,1-.76-8.71Z"/></clipPath><clipPath id="clip-path-23" transform="translate(0 0)"><path class="cls-7" d="M323.47,206.43a7.3,7.3,0,0,1,7.8,0h1.23v2.08c0,1.78-2.29,3.22-5.13,3.22s-5.13-1.44-5.13-3.22v-2.08Z"/></clipPath><clipPath id="clip-path-25" transform="translate(0 0)"><path class="cls-3" d="M333.61,200.33v5.24c0,2.16-2.8,3.91-6.24,3.91s-6.24-1.75-6.24-3.91v-5.24Z"/></clipPath><clipPath id="clip-path-27" transform="translate(0 0)"><path class="cls-7" d="M321.13,200.33c0,2.16,2.8,3.9,6.24,3.9s6.24-1.74,6.24-3.9-2.8-3.91-6.24-3.91-6.24,1.75-6.24,3.91"/></clipPath><clipPath id="clip-path-29" transform="translate(0 0)"><path class="cls-5" d="M305.21,136.68c1.7-19.52,7.15-38.81,13.22-51.91,6.23-13.44,8.93-12,8.93-12s2.71-1.48,8.93,12c6.07,13.1,11.52,32.39,13.23,51.91a8.93,8.93,0,0,1,.12,1.47c0,7.7-10,13.95-22.28,13.95s-22.28-6.25-22.28-13.95a8.93,8.93,0,0,1,.13-1.47"/></clipPath></defs><title>Element 1 </title><g class="cls-9"><g id="Layer_2" data-name="Layer 2"><g id="Layer_1-2" data-name="Layer 1"><path class="cls-10" d="M103.23,250.78a692.47,692.47,0,0,1,64.93-28.35c39.64-15.22,82-23.16,123.65-26.21,1.8-.13,3.61-.26,5.41-.37,99.26-6.28,193.58,14.72,236.15,30.46,61.17,22.61,104.78,78.28,7.3,94S405.05,349.9,362.61,377.88q-23.75,15.64-27.4,41.07-2.1,14.46,2.32,32.08a139.55,139.55,0,0,0,4.36,14c13.44,50.6-33.44,93.77-138.38,88.85S9.57,470,1.09,396.91C-5.85,337.13,19.36,293.33,103.23,250.78Z" transform="translate(0 0)"/><path class="cls-11" d="M362.61,377.88l30.2-17.6a9.38,9.38,0,0,1,8.39,0l24.45,13.62c2.38,1.33,2.47,3.47.21,4.78l-30.19,17.59a9.4,9.4,0,0,1-8.4,0l-24.44-13.62C360.45,381.33,360.35,379.19,362.61,377.88Z" transform="translate(0 0)"/><path class="cls-12" d="M197.4,374.07l125.19,69.75a10.42,10.42,0,0,0,9.3,0l176-102.53c2.5-1.45,2.39-3.82-.25-5.3L382.44,266.26a10.41,10.41,0,0,0-9.31,0l-176,102.53C194.66,370.22,194.76,372.6,197.4,374.07Zm165.21,3.81,30.2-17.6a9.38,9.38,0,0,1,8.39,0l24.45,13.62c2.38,1.33,2.47,3.47.21,4.78l-30.19,17.59a9.4,9.4,0,0,1-8.4,0l-24.44-13.62C360.45,381.33,360.35,379.19,362.61,377.88Zm-142.32-3.2L384,279.29l65.55,36.52-163.74,95.4Z" transform="translate(0 0)"/><path class="cls-11" d="M197.4,374.07l125.19,69.75a7.93,7.93,0,0,0,1,.47l.16,0a9.1,9.1,0,0,0,.93.27l.19.05a9,9,0,0,0,1.06.18l.17,0a10,10,0,0,0,1.09.06h.17a10,10,0,0,0,1.11-.06l.19,0c.27,0,.54-.08.8-.14s.44-.1.65-.16a4.58,4.58,0,0,0,.49-.15,7.26,7.26,0,0,0,1.27-.55l176-102.53c.15-.09.26-.19.39-.28a4.07,4.07,0,0,0,.45-.34,3.66,3.66,0,0,0,.5-.56l.07-.11a2.77,2.77,0,0,0,.29-.6.25.25,0,0,1,0-.07,2.13,2.13,0,0,0,.08-.66l.31,8.53v0a2.22,2.22,0,0,1,0,.37,2.1,2.1,0,0,1-.06.24.19.19,0,0,1,0,.07.13.13,0,0,1,0,.06,3.76,3.76,0,0,1-.16.37c0,.05-.08.11-.11.17l-.07.11s0,.07-.07.1a3.1,3.1,0,0,1-.39.43l0,0a4,4,0,0,1-.45.33,2.67,2.67,0,0,1-.32.24l-.07,0-176,102.53a7.26,7.26,0,0,1-1.27.55l-.15.07-.34.08c-.22.06-.43.12-.66.16l-.23.06-.56.07-.22,0h0l-.73.05h-.67l-.65,0-.25,0-.16,0-.23,0-.66-.11-.18,0-.19-.05-.33-.08c-.2-.05-.4-.13-.59-.19l-.16-.06-.06,0a5.27,5.27,0,0,1-1-.45L197.71,382.59a3.41,3.41,0,0,1-2.05-2.67l-.31-8.53A3.44,3.44,0,0,0,197.4,374.07Z" transform="translate(0 0)"/><polygon class="cls-13" points="453.28 313.62 282.9 412.88 214.7 374.88 385.07 275.62 453.28 313.62"/><path class="cls-13" d="M219.42,371.76l.06,2.1a.86.86,0,0,0,.51.66l6.18,3.45.25.11.2.05a.24.24,0,0,0,.1,0h0s0,0,.06,0l.15,0,.17,0h.51l.21,0h.08s0,0,.07,0a.7.7,0,0,0,.14,0,1.52,1.52,0,0,0,.34-.15l4-2.35.06,1.43a.81.81,0,0,0,.5.65l6,3.36.18.09a1.67,1.67,0,0,0,.23.12l.19.06.12,0h0l0,0,.17,0,.16,0h.51a1.38,1.38,0,0,1,.2,0,.3.3,0,0,1,.12,0h.05l.14,0a2.83,2.83,0,0,0,.35-.15l7.67-4.48h0a1,1,0,0,0,.19-.15.41.41,0,0,0,.09-.1s0,0,0,0v0l0,0,0-.1s0-.06,0-.08,0-.07,0-.1l-.06-1.66.65.36a.91.91,0,0,0,.22.11,1.5,1.5,0,0,1,.2.07l.1,0h.07a.86.86,0,0,1,.17,0l.16,0h.49l.21,0s0,0,.08,0H252l.14,0a3.49,3.49,0,0,0,.34-.15l6.15-3.6.06,1.47a.84.84,0,0,0,.5.66l5.3,2.95a.32.32,0,0,1,0,.09h0a.92.92,0,0,1-.32.29l-16.8,9.79a2.11,2.11,0,0,1-.48.17.32.32,0,0,1-.09,0,3.31,3.31,0,0,1-.56.06h0a2.54,2.54,0,0,1-.61-.07h0a2.41,2.41,0,0,1-.53-.2L238.9,383a.86.86,0,0,1-.51-.66l.07,2.13a.86.86,0,0,0,.52.66l6.19,3.45a1.23,1.23,0,0,0,.23.11,2,2,0,0,0,.19.07h.1l.05,0h0a.45.45,0,0,1,.16,0h.17a.41.41,0,0,1,.15,0h.12l0,0h.18l.21,0,.09,0,.07,0,.14,0a1.3,1.3,0,0,0,.34-.15l.45-.26.06,1.44a.84.84,0,0,0,.5.66l6.19,3.44.23.11.21.07.1,0h.07a.65.65,0,0,0,.16,0h.17a.36.36,0,0,0,.15,0h.17a.52.52,0,0,0,.18,0l.24,0h.06l.06,0,.14,0a2.29,2.29,0,0,0,.35-.16l.44-.26.05,1.43a.89.89,0,0,0,.51.66l6.18,3.45.23.1a1.52,1.52,0,0,0,.2.06.38.38,0,0,0,.1,0h0l0,0a.86.86,0,0,1,.17,0h.66a1.52,1.52,0,0,0,.21,0l.09,0,.08,0a.37.37,0,0,0,.14,0,1.43,1.43,0,0,0,.34-.14l2.41-1.4.06,1.53a.84.84,0,0,0,.5.67l6.19,3.45.23.11.19,0,.12,0h0l.17,0h.1l.08,2a.81.81,0,0,0,.51.66l6.18,3.45c.07,0,.16.07.23.12l.21,0a.29.29,0,0,0,.1,0h.07a.45.45,0,0,0,.16,0l.17,0h.32a.52.52,0,0,0,.18,0,1.1,1.1,0,0,0,.24,0,.14.14,0,0,1,.07,0H285l.14,0a2.16,2.16,0,0,0,.34-.15l6-3.47s0,0,0,0a.72.72,0,0,0,.21-.16.26.26,0,0,0,.09-.09l0,0v0l0,0,0-.1s0-.05,0-.08v-.11l-.05-1.63.62.35.24.11.2.05a.2.2,0,0,0,.11,0l0,0h0l.17,0a.66.66,0,0,0,.15,0h.51l.24,0h.05a.32.32,0,0,1,.09,0,.31.31,0,0,0,.13,0,1.6,1.6,0,0,0,.35-.15l7.68-4.47,0,0a.7.7,0,0,0,.19-.15c.05,0,.07-.07.1-.09a.13.13,0,0,1,0-.05h0l.05,0a.62.62,0,0,0,0-.1s0-.05,0-.08a.34.34,0,0,1,0-.1l-.07-1.67.65.36a.82.82,0,0,0,.23.11l.2.07.11,0h.06a.86.86,0,0,0,.17,0l.15,0h.52l.2,0,.08,0h.08l.14,0a1.37,1.37,0,0,0,.35-.15l7.67-4.46,0,0a.8.8,0,0,0,.2-.15l.1-.11,0,0h0s0,0,0-.06a.2.2,0,0,0,0-.08s0-.07,0-.09,0-.06,0-.1v0l-.07-1.64.64.36a1.33,1.33,0,0,0,.24.11l.2.07.1,0h.07a.86.86,0,0,0,.17,0l.15,0a.49.49,0,0,1,.17,0h.34a1.52,1.52,0,0,1,.21,0s0,0,.08,0h.07l.14,0a2.28,2.28,0,0,0,.36-.15l7.67-4.48h0a1.15,1.15,0,0,0,.2-.14,1.27,1.27,0,0,0,.1-.12s0,0,0,0h0a.09.09,0,0,0,0-.06.14.14,0,0,0,0-.08.36.36,0,0,0,0-.1s0-.05,0-.08h0l-.06-1.66.64.36.25.11.2.06.08,0h0s0,0,.06,0l.15,0,.16,0h.52a.54.54,0,0,0,.19,0h.1l.07,0a.58.58,0,0,0,.14,0,1.69,1.69,0,0,0,.36-.15l7.67-4.47h0a1.16,1.16,0,0,0,.2-.16l.1-.09a.07.07,0,0,1,0,0v0s0,0,0,0a.21.21,0,0,0,0-.1.19.19,0,0,0,0-.08.34.34,0,0,0,0-.09l-.06-1.66.63.34a2.25,2.25,0,0,0,.45.18.29.29,0,0,0,.1,0h0l0,0,.16,0a.5.5,0,0,0,.17,0h.49l.24,0h.05l.07,0,.16,0a2.07,2.07,0,0,0,.34-.15l51.69-30.12h0a1.91,1.91,0,0,0,.21-.14l.09-.11s0,0,0,0h0a.61.61,0,0,1,0-.06.59.59,0,0,1,0-.08.16.16,0,0,1,0-.1V348h0l-.06-1.66.64.35a1.33,1.33,0,0,0,.24.11l.2.07.1,0h.07a1,1,0,0,0,.17,0h.15a.5.5,0,0,0,.16,0h.17a.52.52,0,0,0,.18,0l.24,0h.05l.07,0,.15,0a2.16,2.16,0,0,0,.34-.16l7.69-4.47h0a.83.83,0,0,0,.2-.16.36.36,0,0,0,.1-.11,0,0,0,0,0,0,0v0l.05,0,0-.09s0-.06,0-.1a.08.08,0,0,0,0-.08v0l-.05-1.64.64.34a.9.9,0,0,0,.24.12,1.17,1.17,0,0,0,.2.06l.08,0h0l.06,0,.17,0a.36.36,0,0,0,.15,0h.51a.63.63,0,0,0,.19,0l.09,0,.08,0a.7.7,0,0,0,.14,0,1.84,1.84,0,0,0,.35-.15l7.67-4.47h0a1.6,1.6,0,0,0,.19-.16l.11-.11v0l0-.05,0-.09s0,0,0-.08,0-.07,0-.1l-.07-1.79.75.41a1.08,1.08,0,0,0,.24.12l.2.07.1,0h0l.05,0,.17,0H415a.76.76,0,0,0,.21,0h.09s.05,0,.07,0l.15,0a2.07,2.07,0,0,0,.34-.15l7.68-4.47s0,0,0,0a.66.66,0,0,0,.21-.15.56.56,0,0,0,.11-.11v0a.11.11,0,0,0,0-.05.36.36,0,0,1,0-.09s0-.06,0-.09v-.09h0L423.9,327l.63.34a.74.74,0,0,0,.24.11l.2.08.1,0h0l0,0,.17,0,.16,0h.5a1.2,1.2,0,0,0,.2,0l.11,0h.05a.58.58,0,0,0,.14,0,1.39,1.39,0,0,0,.35-.16l7.67-4.48h0a1,1,0,0,0,.19-.15l.1-.11,0,0,0,0,0,0a.36.36,0,0,0,0-.09.24.24,0,0,0,0-.09s0-.06,0-.09l-.09-2.15a.6.6,0,0,1-.09.34l0,0a.92.92,0,0,1-.32.29l-7.68,4.47a2.47,2.47,0,0,1-.5.19l-.07,0a2.59,2.59,0,0,1-.56,0h0a3,3,0,0,1-.59,0s0,0,0,0a2.15,2.15,0,0,1-.54-.19l-6.19-3.45a.85.85,0,0,1-.5-.67l.08,2.14a.84.84,0,0,0,.5.66l5.39,3a1.28,1.28,0,0,1-.3.25l-7.68,4.47a2.1,2.1,0,0,1-.48.2h-.09a2.36,2.36,0,0,1-.55.07h0a3.17,3.17,0,0,1-.61-.07v0a2.39,2.39,0,0,1-.53-.19l-6.18-3.45a.6.6,0,0,1-.19-.15l1.34-.79h0a.8.8,0,0,0,.2-.15.54.54,0,0,0,.09-.12,0,0,0,0,0,0,0h0l0-.06a.28.28,0,0,0,0-.08.25.25,0,0,0,0-.1.19.19,0,0,0,0-.08h0l-.07-2.07,1,.56c.07.05.15.07.23.12l.2.05a.38.38,0,0,1,.1,0h.07l.16,0h.17a.34.34,0,0,0,.15,0h.17a.52.52,0,0,0,.18,0,.75.75,0,0,0,.21,0h.08a.32.32,0,0,1,.09,0,.7.7,0,0,1,.14,0,1.54,1.54,0,0,0,.34-.17l4.36-2.51v0a1,1,0,0,0,.19-.15l.11-.11v-.06a.07.07,0,0,0,0,0s0-.05,0-.08a.3.3,0,0,0,0-.1s0-.05,0-.08h0l-.06-1.7.69.37a1.75,1.75,0,0,0,.24.11.68.68,0,0,0,.2.07.29.29,0,0,0,.1,0h.07a.66.66,0,0,0,.15,0l.16,0H419l.19,0a.24.24,0,0,0,.1,0h.07l.14,0a1.3,1.3,0,0,0,.36-.15l8.76-5.11h0l.21-.15c0-.05.07-.07.09-.11a0,0,0,0,1,0,0h0s0,0,0-.06,0-.06,0-.08a.19.19,0,0,0,0-.1.22.22,0,0,0,0-.08v0L429,313.5l9.92,5.51a1.2,1.2,0,0,0,.23.11.81.81,0,0,0,.22.07s.05,0,.09,0h0s0,0,.06,0l.15,0,.17,0h.49l.21,0h.09l.06,0,.16,0a2.07,2.07,0,0,0,.34-.15l5.81-3.39h0a1,1,0,0,0,.19-.15l.11-.11v0h0l0,0a1,1,0,0,1,0-.1s0-.06,0-.08,0-.07,0-.1l-.08-2.14a.6.6,0,0,1-.1.33v0a.85.85,0,0,1-.33.28l-5.82,3.39a1.72,1.72,0,0,1-.48.19l-.07,0a2.77,2.77,0,0,1-.56.07h0a3.81,3.81,0,0,1-.59-.07,0,0,0,0,1,0,0,2.15,2.15,0,0,1-.54-.19l-15.68-8.74a.92.92,0,0,1-.21-.17l5.05-3h0a.71.71,0,0,0,.21-.15l.09-.1,0,0h0l0-.06a.19.19,0,0,0,.05-.09.54.54,0,0,1,0-.08.31.31,0,0,0,0-.1h0l-.07-2.13a.52.52,0,0,1-.11.33h0a1.3,1.3,0,0,1-.34.31l-5.81,3.38a2.17,2.17,0,0,1-.53.2h0a2.54,2.54,0,0,1-.56.05h0a2.76,2.76,0,0,1-.59-.05l0,0a2.22,2.22,0,0,1-.53-.19l-15.62-8.7a1.16,1.16,0,0,1-.2-.18l5-2.93,0,0a1.25,1.25,0,0,0,.19-.15,1.09,1.09,0,0,0,.1-.11l0,0v0l0,0a.3.3,0,0,1,0-.1.24.24,0,0,0,0-.08s0-.07,0-.1l-.08-2.14a.7.7,0,0,1-.1.33l0,0a.94.94,0,0,1-.32.3l-8.31,4.83a1.71,1.71,0,0,1-.48.18s-.06,0-.07,0a3.58,3.58,0,0,1-.58.05h0a1.88,1.88,0,0,1-.58-.07h0a2.14,2.14,0,0,1-.52-.19l-6.19-3.45a1.55,1.55,0,0,1-.23-.19l7.52-4.4h0a.8.8,0,0,0,.2-.15.87.87,0,0,0,.09-.11l0,0h0l0,0,0-.09s0-.07,0-.09a.28.28,0,0,0,0-.09h0l-.07-2.14a.5.5,0,0,1-.11.34v0a1.26,1.26,0,0,1-.34.29l-25.9,15.08a1.68,1.68,0,0,1-.48.2h-.09a2.52,2.52,0,0,1-.56.07h0a3,3,0,0,1-.59-.07h0a2.17,2.17,0,0,1-.54-.21L365,298.65a.7.7,0,0,1-.16-.14l3.38-2,0,0a.9.9,0,0,0,.2-.14.54.54,0,0,0,.09-.12h0v0s0-.05,0-.05a.36.36,0,0,1,0-.09.29.29,0,0,0,0-.09.28.28,0,0,0,0-.09h0l-.06-1.66.63.36.24.11.21.07.09,0h.08a.76.76,0,0,0,.16,0l.16,0h.5l.21,0s.06,0,.08,0H371l.16,0a1.47,1.47,0,0,0,.34-.15l7.68-4.48h0a1.91,1.91,0,0,0,.21-.14l.09-.11a0,0,0,0,0,0,0h0l0-.06,0-.08a.28.28,0,0,1,0-.1.28.28,0,0,0,0-.08h0l0-1.4.4.23.24.11.2.07.1,0h0l0,0,.17,0h.66a1.2,1.2,0,0,0,.2,0l.08,0a.15.15,0,0,0,.08,0,.37.37,0,0,0,.14,0,1.09,1.09,0,0,0,.35-.15l7.69-4.47h0a1.6,1.6,0,0,0,.19-.16.52.52,0,0,0,.1-.11l0,0,0,0,0-.05,0-.09a.64.64,0,0,0,0-.09s0-.06,0-.09h0l-.09-2.14a.57.57,0,0,1-.1.35h0a.87.87,0,0,1-.33.29l-7.67,4.47a2.48,2.48,0,0,1-.5.2s0,0-.07,0a2.65,2.65,0,0,1-.56.05h0a3,3,0,0,1-.59-.05s0,0,0,0a2.23,2.23,0,0,1-.55-.19l-6.18-3.45a.86.86,0,0,1-.51-.66l.09,2.14a.83.83,0,0,0,.5.65l5.43,3a.47.47,0,0,1-.13.11l-7.67,4.47a1.66,1.66,0,0,1-.49.18l-.08,0a2.54,2.54,0,0,1-.56.05h0a2.16,2.16,0,0,1-.61-.07h0a2.22,2.22,0,0,1-.53-.19L363,289a.84.84,0,0,1-.5-.67l.07,2.14a.86.86,0,0,0,.5.65l5.38,3a.79.79,0,0,1-.28.26l-7.68,4.47a1.71,1.71,0,0,1-.48.18s-.06,0-.08,0a2.59,2.59,0,0,1-.56,0h0a2.92,2.92,0,0,1-.6,0l0,0a2.15,2.15,0,0,1-.54-.19L352,295.44a.8.8,0,0,1-.48-.62l.06,2.09a.86.86,0,0,0,.51.66l5.32,3s0,0,0,0v0a1.46,1.46,0,0,1-.34.29l-7.67,4.47a2.38,2.38,0,0,1-.49.19l-.08,0a2.59,2.59,0,0,1-.56.05h0a2.94,2.94,0,0,1-.59-.05s0,0,0,0a2.14,2.14,0,0,1-.52-.19l-6.19-3.45a.82.82,0,0,1-.5-.67l.06,2.15a.84.84,0,0,0,.51.64l5.38,3a1,1,0,0,1-.28.25l-7.68,4.47a3.45,3.45,0,0,1-.48.2h-.09a2.57,2.57,0,0,1-.57,0h0a3,3,0,0,1-.59,0v0a2,2,0,0,1-.54-.19l-6.19-3.45a.85.85,0,0,1-.5-.65l.08,2.13a.83.83,0,0,0,.5.65l5.37,3a.79.79,0,0,1-.28.26l-7.68,4.48a2.46,2.46,0,0,1-.5.18l-.07,0a3.31,3.31,0,0,1-.56.06h0a2.73,2.73,0,0,1-.59-.07h0a2.33,2.33,0,0,1-.54-.21l-6.19-3.45a.84.84,0,0,1-.5-.65l.08,2.13a.84.84,0,0,0,.5.66l5.39,3a1.14,1.14,0,0,1-.3.27l-7.68,4.47a1.71,1.71,0,0,1-.48.18s-.06,0-.07,0a5.29,5.29,0,0,1-.56,0h0a3,3,0,0,1-.59-.07h0a1.73,1.73,0,0,1-.53-.21l-6.18-3.43a.85.85,0,0,1-.51-.67l.09,2.14a.83.83,0,0,0,.48.65l5.39,3a.84.84,0,0,1-.29.27L305.37,331a1.6,1.6,0,0,1-.48.19l-.08,0a2.52,2.52,0,0,1-.56.07h0a3.81,3.81,0,0,1-.59-.07h0a3.08,3.08,0,0,1-.53-.21l-6.18-3.45a.84.84,0,0,1-.51-.65l.07,2.12a.88.88,0,0,0,.51.67l5.38,3a.8.8,0,0,1-.29.25l-7.67,4.47a1.93,1.93,0,0,1-.51.19l-.06,0a2.52,2.52,0,0,1-.56.07h0a3.08,3.08,0,0,1-.61-.07h0a3.25,3.25,0,0,1-.53-.21l-6.2-3.45a.83.83,0,0,1-.49-.65l.07,2.13a.84.84,0,0,0,.5.66l5.37,3a1.06,1.06,0,0,1-.31.28l-7.68,4.47a2.53,2.53,0,0,1-.48.19.15.15,0,0,0-.09,0,2.54,2.54,0,0,1-.56.05h0a2.76,2.76,0,0,1-.59-.05l0,0a2.3,2.3,0,0,1-.54-.19l-6.19-3.45a1.42,1.42,0,0,1-.36-.31.69.69,0,0,1-.13-.36l.07,2.15a.82.82,0,0,0,.5.64l5.39,3a1,1,0,0,1-.29.25l-7.67,4.47a3.26,3.26,0,0,1-.5.2h-.07a2.54,2.54,0,0,1-.56.05h0a2.86,2.86,0,0,1-.6-.05s0,0,0,0a2.47,2.47,0,0,1-.54-.19l-6.18-3.45a1.29,1.29,0,0,1-.37-.31.62.62,0,0,1-.14-.35l.09,2.14a.8.8,0,0,0,.5.64l5.38,3a1.33,1.33,0,0,1-.3.27l-7.67,4.48a2,2,0,0,1-.5.18l-.07,0a3.55,3.55,0,0,1-.57.06h0a3.06,3.06,0,0,1-.59-.07h0a2.25,2.25,0,0,1-.55-.21l-6.18-3.45a.87.87,0,0,1-.51-.65l.09,2.13a.81.81,0,0,0,.5.66l5.38,3a1.45,1.45,0,0,1-.28.27L250.38,363a1.66,1.66,0,0,1-.49.18l-.08,0a4.66,4.66,0,0,1-.56.05h0a3.17,3.17,0,0,1-.61-.07h0a2.22,2.22,0,0,1-.53-.19l-6.19-3.46a.8.8,0,0,1-.5-.66l.07,2.14a.86.86,0,0,0,.5.65l5.38,3a1.05,1.05,0,0,1-.29.26l-7.68,4.47a1.67,1.67,0,0,1-.49.19l-.08,0a2.45,2.45,0,0,1-.56.07h0a2.89,2.89,0,0,1-.59-.08h0a2.22,2.22,0,0,1-.53-.19L230.9,366a.83.83,0,0,1-.5-.65l.07,2.12a.86.86,0,0,0,.5.65l5.39,3a1.51,1.51,0,0,1-.29.26l-7.68,4.46a1.8,1.8,0,0,1-.51.19.08.08,0,0,1,0,0,2.6,2.6,0,0,1-.56.07h0a3,3,0,0,1-.59-.07h0a2.17,2.17,0,0,1-.54-.21l-6.19-3.45A.8.8,0,0,1,219.42,371.76Zm149.63-64.9,1.12-.65h0l.2-.15a.73.73,0,0,0,.1-.13h0a.39.39,0,0,0,0-.06.18.18,0,0,0,.05-.08s0-.07,0-.1a.09.09,0,0,0,0-.09v0l-.05-1.71.71.4.24.11.2.06.1,0h.07l.15,0,.16,0h.32a.52.52,0,0,0,.18,0l.2,0,.1,0,.07,0,.14,0,.35-.16,6.68-3.89,0,1.52a.89.89,0,0,0,.51.66L387,306l.23.11.2.06s.07,0,.09,0h.08a.86.86,0,0,0,.17,0h.15a.44.44,0,0,0,.16,0h.16a.47.47,0,0,0,.17,0l.24,0,.05,0,.09,0,.14,0a3.49,3.49,0,0,0,.34-.15l2.8-1.64.06,1.49a.86.86,0,0,0,.5.66l6.19,3.44a1.23,1.23,0,0,0,.23.11l.2.07.11,0h.06a.76.76,0,0,1,.16,0h.16l.16,0h.17a.52.52,0,0,1,.18,0l.21,0,.08,0h.09l.13-.05a1.23,1.23,0,0,0,.35-.15l.4-.23.05,1.38a.85.85,0,0,0,.49.66l5.15,2.87c0,.07,0,.14,0,.19l0,0a1,1,0,0,1-.34.3L396.67,321a1.85,1.85,0,0,1-.5.18l-.06,0a3.55,3.55,0,0,1-.56.06h0a2.9,2.9,0,0,1-.6-.07h0a2.41,2.41,0,0,1-.53-.2l-6.18-3.45c-.07,0-.1-.09-.16-.13l6.92-4h0l.21-.15a.87.87,0,0,1,.09-.11v0h0a.61.61,0,0,1,0-.06l0-.09s0-.06,0-.09v-.11l-.07-2.12a.58.58,0,0,1-.1.33h0a1,1,0,0,1-.33.3l-15.19,8.86a3,3,0,0,1-.51.19h-.06a2.53,2.53,0,0,1-.56.06h0a2.48,2.48,0,0,1-.61-.07h0a2.87,2.87,0,0,1-.54-.2l-6.19-3.45a1.07,1.07,0,0,1-.16-.14l3.32-1.94h0a1,1,0,0,0,.19-.15,1.14,1.14,0,0,0,.11-.11v0h0l0,0a.51.51,0,0,1,0-.1.31.31,0,0,0,0-.08.19.19,0,0,0,0-.1l-.07-1.8,2.89,1.61-.08-2.13L369.23,307Z" transform="translate(0 0)"/><path class="cls-11" d="M373.68,281.45l7.68-4.47a2.59,2.59,0,0,1,2.29,0l6.18,3.45c.66.37.69.95.07,1.31l-7.68,4.47a2.53,2.53,0,0,1-2.29,0l-6.19-3.44C373.1,282.4,373.06,281.81,373.68,281.45Z" transform="translate(0 0)"/><path class="cls-11" d="M362.91,287.73l7.68-4.47a2.54,2.54,0,0,1,2.28,0l6.19,3.45c.65.36.69.94.07,1.3l-7.68,4.48a2.56,2.56,0,0,1-2.29,0L363,289C362.33,288.67,362.29,288.09,362.91,287.73Z" transform="translate(0 0)"/><path class="cls-11" d="M351.93,294.13l7.67-4.47a2.56,2.56,0,0,1,2.29,0l6.19,3.45c.65.36.67.95.06,1.31l-7.67,4.47a2.57,2.57,0,0,1-2.31,0L352,295.44C351.33,295.08,351.31,294.49,351.93,294.13Z" transform="translate(0 0)"/><path class="cls-11" d="M340.82,300.6l7.68-4.47a2.57,2.57,0,0,1,2.28,0l6.19,3.45c.65.36.68.95.06,1.31l-7.67,4.47a2.55,2.55,0,0,1-2.3,0l-6.19-3.45C340.23,301.55,340.2,301,340.82,300.6Z" transform="translate(0 0)"/><path class="cls-11" d="M329.83,307l7.68-4.47a2.61,2.61,0,0,1,2.28,0L346,306c.65.36.68.95.07,1.31l-7.68,4.47a2.58,2.58,0,0,1-2.3,0l-6.19-3.45C329.24,308,329.21,307.36,329.83,307Z" transform="translate(0 0)"/><path class="cls-11" d="M318.83,313.41l7.68-4.47a2.57,2.57,0,0,1,2.28,0l6.19,3.45c.65.36.68.95.07,1.31l-7.68,4.47a2.58,2.58,0,0,1-2.3,0l-6.18-3.45C318.24,314.36,318.21,313.77,318.83,313.41Z" transform="translate(0 0)"/><path class="cls-11" d="M307.83,319.82l7.68-4.47a2.55,2.55,0,0,1,2.3,0l6.18,3.44c.65.37.68.95.06,1.31l-7.68,4.48a2.6,2.6,0,0,1-2.29,0l-6.19-3.45C307.25,320.76,307.22,320.18,307.83,319.82Z" transform="translate(0 0)"/><path class="cls-11" d="M296.84,326.23l7.68-4.48a2.61,2.61,0,0,1,2.28,0L313,325.2c.65.37.68.95.07,1.31L305.38,331a2.58,2.58,0,0,1-2.3,0l-6.19-3.45C296.25,327.17,296.22,326.58,296.84,326.23Z" transform="translate(0 0)"/><path class="cls-11" d="M285.85,332.63l7.67-4.47a2.56,2.56,0,0,1,2.29,0l6.19,3.45c.65.36.68.94.06,1.3l-7.67,4.48a2.58,2.58,0,0,1-2.3,0l-6.19-3.45C285.26,333.57,285.23,333,285.85,332.63Z" transform="translate(0 0)"/><path class="cls-11" d="M274.82,339.05l7.68-4.47a2.56,2.56,0,0,1,2.29,0L291,338c.65.36.68,1,.06,1.31l-7.68,4.47a2.53,2.53,0,0,1-2.29,0l-6.19-3.44C274.24,340,274.21,339.41,274.82,339.05Z" transform="translate(0 0)"/><path class="cls-11" d="M263.83,345.45l7.68-4.47a2.56,2.56,0,0,1,2.29,0l6.19,3.44c.65.37.68.95.06,1.31l-7.68,4.47a2.53,2.53,0,0,1-2.29,0l-6.19-3.44C263.25,346.4,263.22,345.81,263.83,345.45Z" transform="translate(0 0)"/><path class="cls-11" d="M252.83,351.86l7.68-4.47a2.54,2.54,0,0,1,2.28,0l6.19,3.44c.65.36.69,1,.07,1.31l-7.68,4.47a2.53,2.53,0,0,1-2.29,0l-6.19-3.44C252.25,352.81,252.21,352.22,252.83,351.86Z" transform="translate(0 0)"/><path class="cls-11" d="M241.85,358.27l7.67-4.48a2.63,2.63,0,0,1,2.29,0l6.19,3.45c.65.37.67.95.06,1.31L250.39,363a2.61,2.61,0,0,1-2.31,0l-6.18-3.45C241.25,359.21,241.23,358.62,241.85,358.27Z" transform="translate(0 0)"/><path class="cls-11" d="M230.84,364.68l7.68-4.48a2.56,2.56,0,0,1,2.29,0l6.18,3.44c.66.37.69,1,.07,1.31l-7.68,4.47a2.53,2.53,0,0,1-2.29,0L230.9,366C230.26,365.62,230.22,365,230.84,364.68Z" transform="translate(0 0)"/><path class="cls-11" d="M219.85,371.08l7.68-4.47a2.56,2.56,0,0,1,2.29,0l6.19,3.44c.65.37.68.95.06,1.31l-7.68,4.48a2.56,2.56,0,0,1-2.29,0l-6.19-3.45C219.27,372,219.24,371.44,219.85,371.08Z" transform="translate(0 0)"/><path class="cls-11" d="M365,297.35l25.9-15.08a2.54,2.54,0,0,1,2.28,0l6.19,3.45c.65.36.68.94.06,1.3l-25.9,15.09a2.51,2.51,0,0,1-2.28,0L365,298.66C364.36,298.29,364.33,297.71,365,297.35Z" transform="translate(0 0)"/><path class="cls-11" d="M353.89,303.8l7.68-4.47a2.53,2.53,0,0,1,2.29,0l6.19,3.45c.65.36.67,1,.05,1.31l-7.68,4.47a2.54,2.54,0,0,1-2.28,0L354,305.1C353.3,304.74,353.28,304.15,353.89,303.8Z" transform="translate(0 0)"/><path class="cls-11" d="M342.9,310.2l7.68-4.48a2.6,2.6,0,0,1,2.29,0l6.19,3.45c.65.36.67.94.05,1.3L351.43,315a2.56,2.56,0,0,1-2.29,0L343,311.5C342.3,311.14,342.29,310.56,342.9,310.2Z" transform="translate(0 0)"/><path class="cls-11" d="M331.9,316.61l7.68-4.48a2.6,2.6,0,0,1,2.29,0l6.18,3.45c.65.36.68.94.06,1.3l-7.68,4.47a2.54,2.54,0,0,1-2.28,0L332,317.91C331.31,317.55,331.28,317,331.9,316.61Z" transform="translate(0 0)"/><path class="cls-11" d="M320.92,323l7.67-4.47a2.56,2.56,0,0,1,2.29,0l6.19,3.45c.65.36.67.94.06,1.3l-7.68,4.47a2.55,2.55,0,0,1-2.3,0L321,324.32C320.31,324,320.3,323.37,320.92,323Z" transform="translate(0 0)"/><path class="cls-11" d="M309.91,329.42l7.68-4.47a2.56,2.56,0,0,1,2.29,0l6.18,3.45c.66.36.68.94.06,1.3l-7.68,4.47a2.54,2.54,0,0,1-2.28,0L310,330.72C309.32,330.36,309.29,329.78,309.91,329.42Z" transform="translate(0 0)"/><path class="cls-11" d="M298.92,335.82l7.68-4.47a2.56,2.56,0,0,1,2.29,0l6.19,3.45c.65.36.67.94.05,1.3l-7.68,4.48a2.54,2.54,0,0,1-2.28,0L299,337.13C298.33,336.76,298.31,336.18,298.92,335.82Z" transform="translate(0 0)"/><path class="cls-11" d="M287.9,342.24l7.68-4.47a2.51,2.51,0,0,1,2.28,0l6.19,3.44c.65.36.67.95.06,1.3L296.43,347a2.56,2.56,0,0,1-2.29,0L288,343.55C287.3,343.19,287.28,342.6,287.9,342.24Z" transform="translate(0 0)"/><path class="cls-11" d="M276.91,348.65l7.68-4.47a2.54,2.54,0,0,1,2.28,0l6.19,3.45c.65.36.67.94.06,1.3l-7.68,4.47a2.56,2.56,0,0,1-2.29,0L277,350C276.31,349.59,276.29,349,276.91,348.65Z" transform="translate(0 0)"/><path class="cls-11" d="M265.9,355.06l7.68-4.47a2.58,2.58,0,0,1,2.3,0l6.18,3.45c.65.37.67,1,.05,1.31l-7.67,4.47a2.56,2.56,0,0,1-2.29,0L266,356.36C265.31,356,265.29,355.42,265.9,355.06Z" transform="translate(0 0)"/><path class="cls-11" d="M254.92,361.46,262.6,357a2.54,2.54,0,0,1,2.28,0l6.19,3.45c.65.36.68.94.06,1.3l-7.68,4.47a2.53,2.53,0,0,1-2.29,0L255,362.77C254.32,362.41,254.3,361.82,254.92,361.46Z" transform="translate(0 0)"/><path class="cls-11" d="M243.92,367.87l7.67-4.47a2.56,2.56,0,0,1,2.29,0l6.19,3.45c.65.36.67.94.06,1.3l-7.68,4.47a2.56,2.56,0,0,1-2.29,0L244,369.17C243.32,368.81,243.3,368.23,243.92,367.87Z" transform="translate(0 0)"/><path class="cls-11" d="M232.93,374.27l7.68-4.47a2.54,2.54,0,0,1,2.28,0l6.19,3.45c.65.36.67.95.06,1.3L241.46,379a2.53,2.53,0,0,1-2.29,0L233,375.58C232.33,375.22,232.31,374.63,232.93,374.27Z" transform="translate(0 0)"/><path class="cls-11" d="M392.11,292.42l8.29-4.83a2.56,2.56,0,0,1,2.29,0l6.18,3.45c.66.36.68.94.06,1.3l-8.29,4.84a2.53,2.53,0,0,1-2.29,0l-6.19-3.44C391.51,293.36,391.49,292.79,392.11,292.42Z" transform="translate(0 0)"/><path class="cls-11" d="M380.66,299.09l8.29-4.83a2.58,2.58,0,0,1,2.3,0l6.18,3.45c.66.36.67.94.05,1.3l-8.29,4.84a2.53,2.53,0,0,1-2.29,0l-6.18-3.44C380.06,300,380,299.45,380.66,299.09Z" transform="translate(0 0)"/><path class="cls-11" d="M404.11,296.28l5.81-3.39a2.58,2.58,0,0,1,2.3,0l15.61,8.7c.65.37.68.94.06,1.3l-5.82,3.39a2.54,2.54,0,0,1-2.28,0l-15.62-8.7C403.52,297.23,403.49,296.64,404.11,296.28Z" transform="translate(0 0)"/><path class="cls-11" d="M392.49,303.05l8.29-4.83a2.58,2.58,0,0,1,2.3,0l6.19,3.45c.64.35.67.94.05,1.3L401,307.81a2.58,2.58,0,0,1-2.3,0l-6.18-3.45C391.89,304,391.87,303.41,392.49,303.05Z" transform="translate(0 0)"/><path class="cls-11" d="M358.07,312.18l7.68-4.47a2.53,2.53,0,0,1,2.29,0l6.19,3.45c.64.35.68.94.06,1.3l-7.68,4.47a2.54,2.54,0,0,1-2.28,0l-6.19-3.45C357.49,313.13,357.45,312.54,358.07,312.18Z" transform="translate(0 0)"/><path class="cls-11" d="M369.17,305.71l7.68-4.47a2.55,2.55,0,0,1,2.3,0l9.48,5.28,2.27,1.26,3.92,2.18c.65.37.68.95.06,1.32l-15.19,8.85a2.58,2.58,0,0,1-2.3,0l-6.19-3.45c-.64-.36-.67-.94-.05-1.3l6.4-3.73L369.24,307C368.59,306.66,368.56,306.07,369.17,305.71Z" transform="translate(0 0)"/><path class="cls-11" d="M347.08,318.59l7.68-4.48a2.58,2.58,0,0,1,2.3,0l6.19,3.45c.64.35.67.94.05,1.3l-7.68,4.48a2.6,2.6,0,0,1-2.29,0l-6.18-3.45C346.49,319.53,346.47,318.94,347.08,318.59Z" transform="translate(0 0)"/><path class="cls-11" d="M336.08,325l7.68-4.47a2.62,2.62,0,0,1,2.3,0l6.18,3.45c.65.35.67.94.06,1.3l-7.68,4.47a2.56,2.56,0,0,1-2.29,0l-6.19-3.45C335.49,325.94,335.47,325.35,336.08,325Z" transform="translate(0 0)"/><path class="cls-11" d="M325.09,331.4l7.68-4.48a2.58,2.58,0,0,1,2.3,0l6.19,3.45c.64.35.67.94.05,1.3l-7.68,4.48a2.56,2.56,0,0,1-2.29,0l-6.18-3.45C324.51,332.34,324.47,331.76,325.09,331.4Z" transform="translate(0 0)"/><path class="cls-11" d="M314.09,337.81l7.68-4.48a2.58,2.58,0,0,1,2.3,0l6.19,3.45c.64.35.66.94.05,1.3l-7.68,4.48a2.6,2.6,0,0,1-2.29,0l-6.18-3.44C313.5,338.75,313.48,338.16,314.09,337.81Z" transform="translate(0 0)"/><path class="cls-11" d="M303.1,344.21l7.68-4.47a2.56,2.56,0,0,1,2.29,0l6.19,3.45c.64.36.68.94.06,1.3L311.64,349a2.54,2.54,0,0,1-2.28,0l-6.19-3.44C302.52,345.15,302.48,344.57,303.1,344.21Z" transform="translate(0 0)"/><path class="cls-11" d="M292.08,350.63l7.67-4.47a2.61,2.61,0,0,1,2.31,0l6.18,3.45c.65.36.67.95.05,1.31l-7.68,4.47a2.54,2.54,0,0,1-2.28,0l-6.19-3.45C291.49,351.58,291.46,351,292.08,350.63Z" transform="translate(0 0)"/><path class="cls-11" d="M281.09,357l7.68-4.47a2.6,2.6,0,0,1,2.29,0l6.19,3.45c.64.35.67.94.06,1.3l-7.68,4.47a2.56,2.56,0,0,1-2.29,0l-6.19-3.44C280.5,358,280.47,357.4,281.09,357Z" transform="translate(0 0)"/><path class="cls-11" d="M270.09,363.44l7.68-4.47a2.56,2.56,0,0,1,2.29,0l6.19,3.45c.64.35.67.94.06,1.3l-7.68,4.47a2.56,2.56,0,0,1-2.29,0l-6.19-3.45C269.5,364.39,269.47,363.8,270.09,363.44Z" transform="translate(0 0)"/><path class="cls-11" d="M259.09,369.85l7.68-4.47a2.55,2.55,0,0,1,2.3,0l6.19,3.45c.64.36.67.94.05,1.31l-7.68,4.47a2.57,2.57,0,0,1-2.28,0l-6.19-3.44C258.51,370.79,258.48,370.2,259.09,369.85Z" transform="translate(0 0)"/><path class="cls-11" d="M238.83,381.66l16.79-9.79a2.56,2.56,0,0,1,2.29,0l6.19,3.45c.64.36.68.94.06,1.3l-16.79,9.78a2.56,2.56,0,0,1-2.29,0L238.9,383C238.24,382.6,238.22,382,238.83,381.66Z" transform="translate(0 0)"/><path class="cls-11" d="M360.16,321.78l7.68-4.47a2.54,2.54,0,0,1,2.28,0l6.19,3.45c.65.36.68.95.07,1.3l-7.68,4.48a2.58,2.58,0,0,1-2.3,0l-6.19-3.45C359.57,322.73,359.54,322.14,360.16,321.78Z" transform="translate(0 0)"/><path class="cls-11" d="M349.16,328.19l7.68-4.48a2.54,2.54,0,0,1,2.28,0l6.19,3.45c.65.36.68.94.07,1.3L357.7,333a2.58,2.58,0,0,1-2.3,0l-6.18-3.45C348.57,329.13,348.54,328.55,349.16,328.19Z" transform="translate(0 0)"/><path class="cls-11" d="M338.16,334.59l7.68-4.47a2.56,2.56,0,0,1,2.29,0l6.19,3.45c.65.36.68.95.06,1.31l-7.68,4.47a2.53,2.53,0,0,1-2.29,0l-6.19-3.45C337.58,335.54,337.55,335,338.16,334.59Z" transform="translate(0 0)"/><path class="cls-11" d="M327.17,341l7.68-4.48a2.57,2.57,0,0,1,2.28,0l6.19,3.45c.65.36.68.95.07,1.3l-7.68,4.48a2.55,2.55,0,0,1-2.3,0l-6.19-3.44C326.58,342,326.55,341.36,327.17,341Z" transform="translate(0 0)"/><path class="cls-11" d="M316.18,347.4l7.67-4.47a2.6,2.6,0,0,1,2.29,0l6.19,3.45c.65.37.68.95.06,1.31l-7.67,4.47a2.55,2.55,0,0,1-2.3,0l-6.19-3.44C315.59,348.35,315.56,347.76,316.18,347.4Z" transform="translate(0 0)"/><path class="cls-11" d="M305.15,353.83l7.68-4.48a2.6,2.6,0,0,1,2.29,0l6.19,3.45c.65.36.68.95.06,1.31l-7.68,4.48a2.62,2.62,0,0,1-2.3,0l-6.18-3.45C304.56,354.77,304.54,354.18,305.15,353.83Z" transform="translate(0 0)"/><path class="cls-11" d="M294.16,360.23l7.68-4.48a2.6,2.6,0,0,1,2.29,0l6.18,3.45c.65.36.69.94.07,1.3L302.7,365a2.56,2.56,0,0,1-2.29,0l-6.19-3.45C293.58,361.17,293.54,360.59,294.16,360.23Z" transform="translate(0 0)"/><path class="cls-11" d="M283.16,366.64l7.68-4.47a2.56,2.56,0,0,1,2.29,0l6.19,3.45c.65.37.68.95.06,1.31l-7.68,4.48a2.56,2.56,0,0,1-2.29,0l-6.19-3.45C282.58,367.58,282.54,367,283.16,366.64Z" transform="translate(0 0)"/><path class="cls-11" d="M272.17,373l7.68-4.47a2.56,2.56,0,0,1,2.29,0l6.19,3.45c.65.36.67,1,.06,1.3l-7.68,4.48a2.55,2.55,0,0,1-2.3,0l-6.19-3.44C271.58,374,271.56,373.4,272.17,373Z" transform="translate(0 0)"/><path class="cls-11" d="M261.17,379.45l7.68-4.47a2.56,2.56,0,0,1,2.29,0l6.18,3.45c.66.36.69.94.07,1.3l-7.68,4.48a2.56,2.56,0,0,1-2.29,0l-6.19-3.45C260.59,380.39,260.55,379.81,261.17,379.45Z" transform="translate(0 0)"/><path class="cls-11" d="M248.31,386.94l9.55-5.56a2.56,2.56,0,0,1,2.29,0l6.19,3.45c.65.36.67.95.06,1.31l-9.55,5.56a2.6,2.6,0,0,1-2.29,0l-6.19-3.45C247.73,387.89,247.7,387.3,248.31,386.94Z" transform="translate(0 0)"/><path class="cls-11" d="M401.92,308.31l8.3-4.84a2.54,2.54,0,0,1,2.28,0l6.19,3.45c.65.36.68.94.06,1.3l-8.3,4.83a2.53,2.53,0,0,1-2.29,0L402,309.61C401.32,309.25,401.3,308.67,401.92,308.31Z" transform="translate(0 0)"/><path class="cls-11" d="M388.13,316.28l10.13-5.9a2.55,2.55,0,0,1,2.3,0l6.18,3.45c.65.36.67.94.06,1.3L396.67,321a2.56,2.56,0,0,1-2.29,0l-6.19-3.45C387.54,317.22,387.52,316.63,388.13,316.28Z" transform="translate(0 0)"/><path class="cls-11" d="M377,322.74l7.67-4.47a2.58,2.58,0,0,1,2.3,0l6.19,3.45c.64.35.67.94.05,1.3l-7.67,4.47a2.56,2.56,0,0,1-2.29,0l-6.19-3.45C376.44,323.69,376.41,323.1,377,322.74Z" transform="translate(0 0)"/><path class="cls-11" d="M366,329.15l7.68-4.47a2.58,2.58,0,0,1,2.3,0l6.19,3.45c.64.35.67.94.05,1.3l-7.68,4.48a2.57,2.57,0,0,1-2.28,0l-6.19-3.45C365.45,330.09,365.42,329.5,366,329.15Z" transform="translate(0 0)"/><path class="cls-11" d="M355,335.55l7.68-4.47a2.56,2.56,0,0,1,2.29,0l6.19,3.45c.64.35.67.94.06,1.3l-7.68,4.47a2.58,2.58,0,0,1-2.3,0l-6.18-3.44C354.45,336.5,354.42,335.92,355,335.55Z" transform="translate(0 0)"/><path class="cls-11" d="M344,342l7.68-4.47a2.58,2.58,0,0,1,2.3,0l6.19,3.45c.64.36.67.94.05,1.3l-7.68,4.48a2.54,2.54,0,0,1-2.28,0l-6.19-3.44C343.46,342.9,343.42,342.32,344,342Z" transform="translate(0 0)"/><path class="cls-11" d="M333,348.37l7.69-4.48a2.6,2.6,0,0,1,2.29,0l6.19,3.45c.64.36.67.94.06,1.3l-7.69,4.48a2.57,2.57,0,0,1-2.28,0l-6.19-3.44C332.46,349.31,332.43,348.73,333,348.37Z" transform="translate(0 0)"/><path class="cls-11" d="M322.06,354.77l7.67-4.47a2.58,2.58,0,0,1,2.3,0l6.19,3.45c.64.36.67.95,0,1.3l-7.67,4.48a2.56,2.56,0,0,1-2.29,0l-6.19-3.44C321.47,355.71,321.44,355.13,322.06,354.77Z" transform="translate(0 0)"/><path class="cls-11" d="M311,361.19l7.68-4.47a2.55,2.55,0,0,1,2.3,0l6.19,3.44c.64.36.67.95.05,1.31L319.57,366a2.56,2.56,0,0,1-2.29,0l-6.18-3.45C310.44,362.14,310.41,361.55,311,361.19Z" transform="translate(0 0)"/><path class="cls-11" d="M300,367.59l7.68-4.47a2.6,2.6,0,0,1,2.29,0l6.19,3.45c.65.36.67.94.06,1.3l-7.68,4.47a2.56,2.56,0,0,1-2.29,0l-6.19-3.44C299.45,368.54,299.42,368,300,367.59Z" transform="translate(0 0)"/><path class="cls-11" d="M289,374l7.68-4.48a2.56,2.56,0,0,1,2.29,0L305.2,373c.64.36.68.94.06,1.3l-7.68,4.47a2.54,2.54,0,0,1-2.28,0l-6.19-3.45C288.46,375,288.42,374.36,289,374Z" transform="translate(0 0)"/><path class="cls-11" d="M278.05,380.41l7.68-4.47a2.58,2.58,0,0,1,2.3,0l6.19,3.45c.64.36.66.94,0,1.3l-7.67,4.48a2.6,2.6,0,0,1-2.29,0l-6.19-3.44C277.46,381.35,277.44,380.76,278.05,380.41Z" transform="translate(0 0)"/><path class="cls-11" d="M257.78,392.22l16.79-9.79a2.58,2.58,0,0,1,2.3,0l6.19,3.45c.64.36.67.94.05,1.3L266.32,397a2.57,2.57,0,0,1-2.28,0l-6.19-3.45C257.2,393.16,257.17,392.57,257.78,392.22Z" transform="translate(0 0)"/><path class="cls-11" d="M423.06,306.84l5.82-3.38a2.5,2.5,0,0,1,2.29,0l15.68,8.73c.65.37.69.95.07,1.31l-5.82,3.39a2.56,2.56,0,0,1-2.29,0l-15.68-8.74C422.48,307.79,422.44,307.2,423.06,306.84Z" transform="translate(0 0)"/><path class="cls-11" d="M411.21,313.75l8.76-5.11a2.56,2.56,0,0,1,2.29,0l6.19,3.45c.64.36.68.94.06,1.3l-8.76,5.11a2.56,2.56,0,0,1-2.29,0l-6.19-3.45C410.62,314.7,410.59,314.11,411.21,313.75Z" transform="translate(0 0)"/><path class="cls-11" d="M403.5,318.24l4.34-2.53a2.55,2.55,0,0,1,2.3,0l6.19,3.45c.64.35.67.94.05,1.3L412,323a2.58,2.58,0,0,1-2.3,0l-6.18-3.45C402.91,319.19,402.88,318.6,403.5,318.24Z" transform="translate(0 0)"/><path class="cls-11" d="M395.27,323l4.54-2.65a2.55,2.55,0,0,1,2.3,0l6.18,3.44c.64.36.68,1,.06,1.31l-4.54,2.64a2.62,2.62,0,0,1-2.3,0l-6.18-3.45C394.67,324,394.65,323.4,395.27,323Z" transform="translate(0 0)"/><path class="cls-11" d="M379.21,332.39l12.58-7.33a2.58,2.58,0,0,1,2.3,0l6.19,3.45c.64.35.67.94.05,1.3l-12.58,7.33a2.58,2.58,0,0,1-2.3,0l-6.18-3.45C378.62,333.34,378.59,332.75,379.21,332.39Z" transform="translate(0 0)"/><path class="cls-11" d="M368.21,338.8l7.67-4.47a2.58,2.58,0,0,1,2.3,0l6.19,3.44c.64.36.67,1,.05,1.31l-7.67,4.47a2.6,2.6,0,0,1-2.29,0l-6.19-3.45C367.62,339.75,367.59,339.16,368.21,338.8Z" transform="translate(0 0)"/><path class="cls-11" d="M357.21,345.21l7.68-4.48a2.55,2.55,0,0,1,2.3,0l6.19,3.45c.64.35.67.94.05,1.3L365.75,350a2.57,2.57,0,0,1-2.28,0l-6.19-3.45C356.63,346.15,356.6,345.56,357.21,345.21Z" transform="translate(0 0)"/><path class="cls-11" d="M346.22,351.61l7.68-4.47a2.53,2.53,0,0,1,2.29,0l6.19,3.45c.64.35.67.94.06,1.3l-7.68,4.47a2.56,2.56,0,0,1-2.29,0l-6.19-3.45C345.63,352.56,345.6,352,346.22,351.61Z" transform="translate(0 0)"/><path class="cls-11" d="M335.22,358l7.68-4.48a2.58,2.58,0,0,1,2.3,0l6.19,3.45c.64.36.67.94.05,1.3l-7.68,4.48a2.54,2.54,0,0,1-2.28,0l-6.19-3.45C334.64,359,334.61,358.38,335.22,358Z" transform="translate(0 0)"/><path class="cls-11" d="M324.2,364.44l7.68-4.47a2.58,2.58,0,0,1,2.3,0l6.19,3.45c.64.36.66.95.05,1.31l-7.68,4.47a2.59,2.59,0,0,1-2.29,0l-6.19-3.45C323.61,365.39,323.59,364.8,324.2,364.44Z" transform="translate(0 0)"/><path class="cls-11" d="M313.21,370.84l7.68-4.47a2.56,2.56,0,0,1,2.29,0l6.19,3.45c.64.35.68.94.06,1.3l-7.68,4.47a2.54,2.54,0,0,1-2.28,0l-6.19-3.45C312.63,371.79,312.59,371.2,313.21,370.84Z" transform="translate(0 0)"/><path class="cls-11" d="M302.21,377.25l7.68-4.47a2.58,2.58,0,0,1,2.3,0l6.19,3.45c.64.36.67.95.05,1.31L310.75,382a2.56,2.56,0,0,1-2.29,0l-6.18-3.45C301.63,378.2,301.59,377.61,302.21,377.25Z" transform="translate(0 0)"/><path class="cls-11" d="M291.22,383.65l7.68-4.47a2.58,2.58,0,0,1,2.3,0l6.18,3.45c.65.35.67.94.06,1.3l-7.68,4.47a2.56,2.56,0,0,1-2.29,0L291.28,385C290.63,384.6,290.61,384,291.22,383.65Z" transform="translate(0 0)"/><path class="cls-11" d="M280.22,390.06l7.68-4.47a2.56,2.56,0,0,1,2.29,0l6.19,3.45c.64.35.68.94.06,1.3l-7.68,4.47a2.54,2.54,0,0,1-2.28,0l-6.19-3.45C279.64,391,279.6,390.42,280.22,390.06Z" transform="translate(0 0)"/><path class="cls-11" d="M269.23,396.47l7.68-4.47a2.58,2.58,0,0,1,2.3,0l6.19,3.45c.64.35.66.94.05,1.3l-7.68,4.48a2.6,2.6,0,0,1-2.29,0l-6.19-3.45C268.64,397.41,268.62,396.82,269.23,396.47Z" transform="translate(0 0)"/><path class="cls-11" d="M418.21,320.5l7.67-4.47a2.6,2.6,0,0,1,2.29,0l6.19,3.45c.65.37.68.95.06,1.31l-7.67,4.47a2.55,2.55,0,0,1-2.3,0l-6.19-3.45C417.62,321.45,417.59,320.86,418.21,320.5Z" transform="translate(0 0)"/><path class="cls-11" d="M407.21,326.91l7.68-4.48a2.6,2.6,0,0,1,2.29,0l6.19,3.45c.65.36.68.95.06,1.31l-7.68,4.48a2.6,2.6,0,0,1-2.29,0l-6.19-3.45C406.63,327.85,406.6,327.26,407.21,326.91Z" transform="translate(0 0)"/><path class="cls-11" d="M396.11,333.38l7.68-4.48a2.54,2.54,0,0,1,2.28,0l6.19,3.44c.65.37.69.95.07,1.31l-7.68,4.48a2.56,2.56,0,0,1-2.29,0l-6.19-3.45C395.53,334.32,395.49,333.74,396.11,333.38Z" transform="translate(0 0)"/><path class="cls-11" d="M385.12,339.78l7.67-4.47a2.58,2.58,0,0,1,2.3,0l6.19,3.44c.65.37.67,1,.05,1.32l-7.67,4.47a2.62,2.62,0,0,1-2.3,0l-6.18-3.45C384.53,340.73,384.51,340.14,385.12,339.78Z" transform="translate(0 0)"/><path class="cls-11" d="M330.11,371.83l51.69-30.12a2.56,2.56,0,0,1,2.29,0l6.18,3.44c.65.37.69.95.07,1.31l-51.69,30.12a2.56,2.56,0,0,1-2.29,0l-6.19-3.45C329.53,372.77,329.49,372.19,330.11,371.83Z" transform="translate(0 0)"/><path class="cls-11" d="M319.13,378.23l7.68-4.48a2.57,2.57,0,0,1,2.28,0l6.19,3.45c.65.36.68,1,.07,1.3L327.67,383a2.61,2.61,0,0,1-2.31,0l-6.18-3.45C318.54,379.18,318.51,378.59,319.13,378.23Z" transform="translate(0 0)"/><path class="cls-11" d="M308.12,384.64l7.68-4.47a2.53,2.53,0,0,1,2.29,0l6.19,3.45c.65.36.68.94.06,1.3l-7.68,4.48a2.56,2.56,0,0,1-2.29,0l-6.19-3.45C307.54,385.58,307.51,385,308.12,384.64Z" transform="translate(0 0)"/><path class="cls-11" d="M297.13,391l7.68-4.47a2.56,2.56,0,0,1,2.29,0l6.19,3.45c.65.36.68,1,.06,1.31l-7.68,4.47a2.53,2.53,0,0,1-2.29,0l-6.19-3.45C296.55,392,296.52,391.4,297.13,391Z" transform="translate(0 0)"/><path class="cls-11" d="M286.14,397.45l7.67-4.47a2.56,2.56,0,0,1,2.29,0l6.19,3.45c.65.36.68.95.06,1.3l-7.67,4.48a2.57,2.57,0,0,1-2.31,0l-6.18-3.45C285.54,398.4,285.52,397.81,286.14,397.45Z" transform="translate(0 0)"/><path class="cls-11" d="M276.87,402.85l5.95-3.47a2.56,2.56,0,0,1,2.29,0l6.19,3.45c.65.36.68.95.06,1.31l-5.95,3.47a2.62,2.62,0,0,1-2.3,0l-6.18-3.45C276.28,403.79,276.26,403.2,276.87,402.85Z" transform="translate(0 0)"/><g class="cls-9"><g class="cls-9"><path class="cls-14" d="M369.68,251.88a9.17,9.17,0,0,1-1.77,1.39l-7.67-4.3a8.53,8.53,0,0,0,1.77-1.39Z" transform="translate(0 0)"/><path class="cls-15" d="M370.25,251.26c-.19.22-.38.42-.57.62l-7.67-4.3a8.37,8.37,0,0,0,.57-.62Z" transform="translate(0 0)"/><path class="cls-16" d="M370.67,250.73l-.42.53-7.67-4.3c.15-.17.29-.35.43-.53Z" transform="translate(0 0)"/><path class="cls-17" d="M371,250.24l-.35.49-7.66-4.3.34-.48Z" transform="translate(0 0)"/><path class="cls-18" d="M371.31,249.78c-.09.16-.19.31-.29.46L363.35,246l.3-.47Z" transform="translate(0 0)"/><path class="cls-19" d="M371.58,249.33c-.09.15-.17.3-.27.45l-7.66-4.3c.09-.15.18-.3.26-.45Z" transform="translate(0 0)"/><path class="cls-20" d="M371.82,248.88l-.24.45-7.67-4.3c.09-.15.16-.3.24-.45Z" transform="translate(0 0)"/><path class="cls-21" d="M372,248.42l-.21.46-7.67-4.3c.08-.15.15-.3.22-.46Z" transform="translate(0 0)"/><path class="cls-22" d="M372.23,248c-.06.15-.13.31-.2.46l-7.66-4.3c.07-.15.13-.31.2-.46Z" transform="translate(0 0)"/><path class="cls-23" d="M372.41,247.48a4.68,4.68,0,0,1-.18.48l-7.66-4.3.18-.48Z" transform="translate(0 0)"/><path class="cls-24" d="M372.58,247c-.05.17-.11.34-.17.51l-7.66-4.3c.06-.17.11-.34.16-.51Z" transform="translate(0 0)"/><path class="cls-25" d="M372.73,246.43l-.15.54-7.67-4.3a5.44,5.44,0,0,0,.15-.54Z" transform="translate(0 0)"/><path class="cls-26" d="M372.85,245.82c0,.2-.08.4-.12.61l-7.67-4.3c.05-.2.09-.41.13-.61Z" transform="translate(0 0)"/><path class="cls-27" d="M373,245.07a6.42,6.42,0,0,1-.1.75l-7.66-4.3c0-.25.08-.5.1-.74Z" transform="translate(0 0)"/><path class="cls-28" d="M373,244a6.06,6.06,0,0,1,0,1l-7.66-4.29a9.34,9.34,0,0,0,0-1.05Z" transform="translate(0 0)"/></g></g><polygon class="cls-29" points="372.98 244.03 365.32 239.73 360.74 130.34 368.4 134.63 372.98 244.03"/><polygon class="cls-30" points="367.91 253.27 203.28 348.54 195.62 344.24 360.25 248.97 367.91 253.27"/><g class="cls-9"><g class="cls-9"><path class="cls-28" d="M282,172.83a1.85,1.85,0,0,1,0,.33l-7.66-4.3c0-.11,0-.22,0-.33a1.26,1.26,0,0,0-.55-1.09l7.67,4.3A1.24,1.24,0,0,1,282,172.83Z" transform="translate(0 0)"/></g></g><polygon class="cls-31" points="362.82 131.56 198.19 226.83 190.52 222.54 355.15 127.26 362.82 131.56"/><g class="cls-9"><g class="cls-9"><path class="cls-28" d="M282,172.83a1.85,1.85,0,0,1,0,.33l-7.66-4.3c0-.11,0-.22,0-.33a1.26,1.26,0,0,0-.55-1.09l7.67,4.3A1.24,1.24,0,0,1,282,172.83Z" transform="translate(0 0)"/></g></g><g class="cls-9"><g class="cls-9"><polygon class="cls-23" points="279.13 175.88 279.13 175.88 279.14 175.88 279.13 175.88"/><polygon class="cls-23" points="279.13 175.88 279.13 175.88 274.95 173.53 279.13 175.88"/><polygon class="cls-23" points="271.48 171.59 274.95 173.53 271.47 171.58 271.48 171.59"/><path class="cls-22" d="M279.23,175.93l-.09-.05-7.66-4.29.08,0Z" transform="translate(0 0)"/><path class="cls-21" d="M279.32,176l-.09,0-7.67-4.3.1,0Z" transform="translate(0 0)"/><path class="cls-20" d="M279.42,176l-.1,0-7.66-4.3.1,0Z" transform="translate(0 0)"/><path class="cls-19" d="M279.53,176h-.11l-7.66-4.3h.1Z" transform="translate(0 0)"/><path class="cls-18" d="M279.64,176h-.11l-7.67-4.3h.08Z" transform="translate(0 0)"/><path class="cls-17" d="M279.77,176h-.13l-7.66-4.3h.13Z" transform="translate(0 0)"/><path class="cls-16" d="M279.92,176l-.15,0-7.66-4.3.15,0Z" transform="translate(0 0)"/><path class="cls-15" d="M280.12,175.88l-.2.07-7.66-4.3.2-.07Z" transform="translate(0 0)"/><path class="cls-14" d="M273.26,171l7.66,4.3a2.31,2.31,0,0,1-.56.44l-.24.12-7.66-4.3.23-.11A3,3,0,0,0,273.26,171Z" transform="translate(0 0)"/><path class="cls-15" d="M281.11,175.12a1.8,1.8,0,0,1-.19.2l-7.66-4.3.18-.2Z" transform="translate(0 0)"/><path class="cls-16" d="M281.24,175l-.13.17-7.67-4.3a1.83,1.83,0,0,0,.13-.16Z" transform="translate(0 0)"/><path class="cls-17" d="M281.35,174.8l-.11.15-7.67-4.29a.91.91,0,0,0,.11-.16Z" transform="translate(0 0)"/><path class="cls-18" d="M281.44,174.66l-.09.14-7.67-4.3a.71.71,0,0,0,.1-.14Z" transform="translate(0 0)"/><path class="cls-19" d="M281.53,174.51l-.09.15-7.66-4.3c0-.05.05-.1.08-.14Z" transform="translate(0 0)"/><path class="cls-20" d="M281.6,174.37l-.07.14-7.67-4.29.08-.15Z" transform="translate(0 0)"/><path class="cls-21" d="M281.67,174.23l-.07.14-7.66-4.3.06-.14Z" transform="translate(0 0)"/><path class="cls-22" d="M281.73,174.08l-.06.15-7.67-4.3a1,1,0,0,0,.07-.15Z" transform="translate(0 0)"/><path class="cls-23" d="M281.79,173.93l-.06.15-7.66-4.3a.88.88,0,0,0,.05-.15Z" transform="translate(0 0)"/><path class="cls-24" d="M281.84,173.77a1.42,1.42,0,0,1,0,.16l-7.67-4.3.06-.16Z" transform="translate(0 0)"/><path class="cls-25" d="M281.89,173.59c0,.06,0,.12-.05.18l-7.66-4.3c0-.06,0-.12,0-.17Z" transform="translate(0 0)"/><path class="cls-26" d="M281.93,173.4c0,.06,0,.13,0,.19l-7.67-4.29a1.42,1.42,0,0,0,0-.2Z" transform="translate(0 0)"/><path class="cls-27" d="M282,173.16a2,2,0,0,1,0,.24l-7.67-4.3a2,2,0,0,0,0-.24Z" transform="translate(0 0)"/><path class="cls-28" d="M282,172.83a1.85,1.85,0,0,1,0,.33l-7.66-4.3c0-.11,0-.22,0-.33a1.26,1.26,0,0,0-.55-1.09l7.67,4.3A1.24,1.24,0,0,1,282,172.83Z" transform="translate(0 0)"/></g></g><path class="cls-32" d="M280.2,171.86a1.08,1.08,0,0,1,1.77,1,3.52,3.52,0,0,1-1.61,2.93,1.09,1.09,0,0,1-1.78-1A3.57,3.57,0,0,1,280.2,171.86Z" transform="translate(0 0)"/><g class="cls-9"><g class="cls-9"><path class="cls-33" d="M278.59,174.46c0,.11,0,.22,0,.33a1.26,1.26,0,0,0,.55,1.09l-7.66-4.3a1.24,1.24,0,0,1-.55-1.09,1.82,1.82,0,0,1,0-.33Z" transform="translate(0 0)"/><path class="cls-34" d="M278.62,174.23l0,.23-7.66-4.3,0-.23Z" transform="translate(0 0)"/><path class="cls-35" d="M278.67,174c0,.07,0,.13-.05.2l-7.66-4.3a1.42,1.42,0,0,1,0-.2Z" transform="translate(0 0)"/><path class="cls-36" d="M278.71,173.86c0,.06,0,.12,0,.17l-7.67-4.3a1.54,1.54,0,0,1,.05-.17Z" transform="translate(0 0)"/><path class="cls-37" d="M278.76,173.7a1,1,0,0,1-.05.16l-7.66-4.3a1.42,1.42,0,0,1,.05-.16Z" transform="translate(0 0)"/><path class="cls-38" d="M278.82,173.55l-.06.15-7.66-4.3.06-.15Z" transform="translate(0 0)"/><path class="cls-39" d="M278.89,173.4a1,1,0,0,0-.07.15l-7.66-4.3.06-.15Z" transform="translate(0 0)"/><path class="cls-40" d="M279,173.26l-.06.14-7.67-4.3s0-.09.07-.14Z" transform="translate(0 0)"/><path class="cls-41" d="M279,173.11l-.08.15-7.66-4.3.07-.15Z" transform="translate(0 0)"/><path class="cls-42" d="M279.11,173l-.08.14-7.67-4.3.09-.14Z" transform="translate(0 0)"/><path class="cls-43" d="M279.21,172.82l-.1.15-7.66-4.3.09-.15Z" transform="translate(0 0)"/><path class="cls-44" d="M279.32,172.67l-.11.15-7.67-4.3.11-.15Z" transform="translate(0 0)"/><path class="cls-45" d="M279.45,172.5l-.13.17-7.67-4.3c.05-.06.09-.12.14-.17Z" transform="translate(0 0)"/><path class="cls-46" d="M279.64,172.3a1.8,1.8,0,0,0-.19.2l-7.66-4.3.18-.2Z" transform="translate(0 0)"/><path class="cls-47" d="M280.2,171.86a2.31,2.31,0,0,0-.56.44L272,168a2.58,2.58,0,0,1,.56-.44Z" transform="translate(0 0)"/></g></g><g class="cls-9"><g class="cls-9"><path class="cls-48" d="M193.15,235a7.42,7.42,0,0,0,0,1l-7.67-4.29a9.45,9.45,0,0,1,0-1.06Z" transform="translate(0 0)"/><path class="cls-49" d="M193.26,234.28c0,.25-.08.5-.11.74l-7.66-4.3c0-.24.06-.49.1-.74Z" transform="translate(0 0)"/><path class="cls-50" d="M193.39,233.66c0,.21-.1.41-.13.62l-7.67-4.3c0-.21.08-.41.13-.62Z" transform="translate(0 0)"/><path class="cls-51" d="M193.53,233.12c-.05.18-.1.36-.14.54l-7.67-4.3a5.44,5.44,0,0,1,.15-.54Z" transform="translate(0 0)"/><path class="cls-52" d="M193.7,232.61c-.06.17-.12.33-.17.51l-7.66-4.3c0-.17.1-.34.16-.51Z" transform="translate(0 0)"/><path class="cls-53" d="M193.88,232.13l-.18.48-7.67-4.3.18-.48Z" transform="translate(0 0)"/><path class="cls-54" d="M194.08,231.67c-.07.15-.14.3-.2.46l-7.67-4.3c.07-.16.13-.31.2-.46Z" transform="translate(0 0)"/><path class="cls-55" d="M194.29,231.21l-.21.46-7.67-4.3c.07-.16.14-.31.22-.46Z" transform="translate(0 0)"/><path class="cls-56" d="M194.53,230.76l-.24.45-7.66-4.3c.08-.15.15-.3.24-.45Z" transform="translate(0 0)"/><path class="cls-57" d="M194.8,230.31c-.1.15-.18.3-.27.45l-7.66-4.3c.08-.15.17-.3.26-.45Z" transform="translate(0 0)"/><path class="cls-58" d="M195.09,229.85c-.1.15-.2.3-.29.46l-7.67-4.3c.1-.16.19-.31.3-.46Z" transform="translate(0 0)"/><path class="cls-59" d="M195.44,229.36c-.12.16-.24.32-.35.49l-7.66-4.3a5.85,5.85,0,0,1,.34-.48Z" transform="translate(0 0)"/><path class="cls-60" d="M195.86,228.84c-.15.17-.29.34-.42.52l-7.67-4.29c.14-.19.28-.36.42-.53Z" transform="translate(0 0)"/><path class="cls-61" d="M196.43,228.22a6.76,6.76,0,0,0-.57.62l-7.67-4.3a6.76,6.76,0,0,1,.57-.62Z" transform="translate(0 0)"/><path class="cls-62" d="M198.19,226.83a8.82,8.82,0,0,0-1.76,1.39l-7.67-4.3a8.68,8.68,0,0,1,1.76-1.38Z" transform="translate(0 0)"/></g></g><path class="cls-63" d="M187.13,227.57,192.92,366c.13,2.92,2.27,4.1,4.79,2.64L374.86,266.08a9.58,9.58,0,0,0,4.34-7.92l-5.79-138.39c-.12-2.92-2.26-4.09-4.78-2.63L191.48,219.65A9.59,9.59,0,0,0,187.13,227.57Zm91.45-52.78a3.57,3.57,0,0,1,1.62-2.93,1.08,1.08,0,0,1,1.77,1,3.52,3.52,0,0,1-1.61,2.93A1.09,1.09,0,0,1,278.58,174.79Z" transform="translate(0 0)"/><path class="cls-64" d="M198.2,226.83l164.62-95.27c2.94-1.7,5.45-.33,5.58,3.08L373,244a11.15,11.15,0,0,1-5.08,9.23L203.28,348.53c-2.94,1.71-5.44.33-5.58-3.07l-4.57-109.38A11.18,11.18,0,0,1,198.2,226.83Z" transform="translate(0 0)"/><path class="cls-8" d="M179.58,221.74c0-.18.07-.35.11-.53s0-.1,0-.15l0-.1c0-.07.15-.51.2-.65l.15-.41v0l.16-.38c.06-.13.3-.6.36-.71s0,0,0,0,0,0,0,0,.39-.66.48-.79l.12-.16.06-.09.12-.16c.11-.16.47-.58.53-.64l.15-.16.17-.19a4.55,4.55,0,0,1,.4-.35L183,216a6,6,0,0,1,.85-.6L361,112.84a7.63,7.63,0,0,1,.85-.39l1.09-.24a5.47,5.47,0,0,1,.59,0h.1l.17,0a1.25,1.25,0,0,1,.25.09l.24.11h0l7.67,4.3a2.27,2.27,0,0,0-.69-.25h0a2.64,2.64,0,0,0-.75,0h-.07a3.83,3.83,0,0,0-.76.16,9.14,9.14,0,0,0-1,.45L191.48,219.65a7,7,0,0,0-.86.6l-.26.23c-.19.18-.39.35-.57.55a1.07,1.07,0,0,0-.14.16,8.93,8.93,0,0,0-.66.81l-.06.08a10.76,10.76,0,0,0-.61,1l0,0a10.48,10.48,0,0,0-.51,1.07v0a9.19,9.19,0,0,0-.37,1.08.3.3,0,0,0,0,.1,6.81,6.81,0,0,0-.2,1,.88.88,0,0,0,0,.16,7.53,7.53,0,0,0-.05,1L192.92,366a3.34,3.34,0,0,0,1.48,3l-7.67-4.3a3.35,3.35,0,0,1-1.47-2.95l-5.79-138.38c0-.3,0-1,0-1.06S179.56,221.85,179.58,221.74Z" transform="translate(0 0)"/><g class="cls-65"><polygon class="cls-2" points="204.2 245.37 204.33 248.48 300.56 192.75 300.56 189.56 204.2 245.37"/><polygon class="cls-2" points="204.71 257.46 204.83 260.58 300.56 205.15 300.56 201.95 204.71 257.46"/><polygon class="cls-2" points="205.72 281.66 205.85 284.78 300.56 229.93 300.56 226.73 205.72 281.66"/><polygon class="cls-2" points="207.23 317.96 207.36 321.07 300.56 267.1 300.56 263.91 207.23 317.96"/><polygon class="cls-2" points="205.21 269.56 205.21 269.56 205.34 272.68 268.57 236.06 268.57 232.87 205.21 269.56"/><polygon class="cls-2" points="272.1 230.82 272.1 234.02 300.56 217.54 300.56 214.34 272.1 230.82"/><polygon class="cls-2" points="206.22 293.75 206.35 296.88 247.8 272.87 247.8 269.68 206.22 293.75"/><polygon class="cls-2" points="251.34 267.63 251.34 270.82 300.56 242.32 300.56 239.13 251.34 267.63"/><polygon class="cls-2" points="206.73 305.86 206.86 308.97 273.56 270.35 273.56 267.15 206.73 305.86"/><polygon class="cls-2" points="277.09 265.11 277.09 268.3 300.56 254.71 300.56 251.51 277.09 265.11"/><polygon class="cls-2" points="207.74 330.05 207.87 333.17 224.6 323.48 224.6 320.29 207.74 330.05"/><polygon class="cls-2" points="228.13 318.24 228.13 321.44 300.56 279.49 300.56 276.3 228.13 318.24"/><polygon class="cls-2" points="308.1 259.9 308.1 263.1 365.56 229.82 365.43 226.7 308.1 259.9"/><polygon class="cls-2" points="334.12 257.22 308.1 272.29 308.1 275.49 334.12 260.42 334.12 257.22"/><polygon class="cls-2" points="337.65 255.18 337.65 258.37 366.07 241.91 365.94 238.79 337.65 255.18"/><polygon class="cls-2" points="308.48 179.02 308.48 253.25 365.17 220.41 362.14 147.95 308.48 179.02"/></g><line class="cls-4" x1="193.76" y1="438.11" x2="192.97" y2="438.11"/><path class="cls-6" d="M184.06,392.1a10.88,10.88,0,0,1,4.54-1.52c2.62-11.23,9.58-22.2,17.77-26.94a16.81,16.81,0,0,1,5.26-2,35.61,35.61,0,0,1-.57-6.51c0-17.2,10.46-37.17,23.35-44.62a19.65,19.65,0,0,1,7.9-2.73c2.23-19.05,13.8-39.27,27.76-47.33,6.85-4,11.74-3,16.62-.38l.7.39,12.42,7a14.87,14.87,0,0,0-5.66-.63c1.86,2,4.07,7.46,4.07,14.9,0,1.21-.05,2.42-.13,3.64,3.78,1.31,6.27,5.71,6.27,12.32a30.79,30.79,0,0,1-.61,5.9,4,4,0,0,1,.34-.23c4.73-2.73,8.78-1.18,10.45,3.36a59.66,59.66,0,0,1,2.36-7.1c.61-1.51,1.27-3,2-4.43a55.67,55.67,0,0,1,8.25-12.35,35.53,35.53,0,0,1,8.48-7.08c6.14-3.54,11.71-3.51,15.8-.61A11,11,0,0,1,353,276.4c.07-.71.17-1.42.31-2.13A29.21,29.21,0,0,1,361,259.19a37.65,37.65,0,0,1-1.89-12.36c0-20.58,12.51-44.48,27.94-53.39,5.64-3.25,10.89-4.06,15.27-2.76a13,13,0,0,1,2.7,1.11,14,14,0,0,1,2.76,2,18.54,18.54,0,0,1,4.35,6A34.94,34.94,0,0,1,415,214.57c0,.77,0,1.56-.05,2.34a30.75,30.75,0,0,1,8.92-8.3,15.23,15.23,0,0,1,1.5-.77,14.66,14.66,0,0,1,3.59-1.19,12.26,12.26,0,0,1,1.42-.18,9.2,9.2,0,0,1,7.24,2.7,11.13,11.13,0,0,1,1.85,2.42,17,17,0,0,1,1.91,5.18,27.17,27.17,0,0,1,.53,5.48,39.86,39.86,0,0,1-1.47,10.36c3.72-.35,6.74,1.69,8.34,5.57a28.52,28.52,0,0,1,6.86-7.84l.29-.21a18,18,0,0,1,1.62-1.06c5-2.91,9.46-2,12,1.88a1.48,1.48,0,0,1,.13.21,9.9,9.9,0,0,1,2.78-1c3.22-.62,5.86.91,7.26,4.09a12.91,12.91,0,0,1,.95,3.64,17.82,17.82,0,0,1,.13,2.25c0,8.51-5.18,18.4-11.56,22.09L441.89,278,381,313.14l-187,108-6.43,3.71-2.42,1.4c0,.15,0,.3,0,.46a15.18,15.18,0,0,0,1.85,7.85,8.4,8.4,0,0,0,1,1.27s-14.44-7.63-15.42-8.68c-1.84-1.93-2.94-5.12-2.94-9.28C169.54,408.26,176.86,396.25,184.06,392.1Z" transform="translate(0 0)"/><g class="cls-66"><rect class="cls-67" x="292.27" y="211.5" height="2.25"/><path class="cls-67" d="M285,206.07v-5.9l-.69-.38c0-.44,0-.87,0-1.29a33,33,0,0,1,.2-3.74c0-.15,0-.31.06-.46a21.8,21.8,0,0,1,.45-2.42,16.1,16.1,0,0,1,2.79-6.22c-.14-1.32-.25-2.59-.36-3.81,0-.15,0-.3,0-.45-.16-1.89-.29-3.65-.38-5.27-.42-6.69-.37-11-.34-12.18l34.37-18.7a126.1,126.1,0,0,1,2.74,16.12,2,2,0,0,0,0,.23v0a1.21,1.21,0,0,0,0,.19c0,.22,0,.44.07.66a7.44,7.44,0,0,1,.1,1.15s0,1,0,2.74c0,2.94-.09,6.28-.32,9.81-.1,1.56-.23,3.15-.37,4.76,0,.15,0,.3,0,.44-.11,1.18-.23,2.37-.34,3.56,0,.11,0,.21,0,.32a16,16,0,0,1,2.75,6.15,24.83,24.83,0,0,1,.51,2.94c0,.15,0,.31,0,.46h-.55v1.43l.06,0,.62,3.11-.68.39v5c-.31,0-.63-.05-1-.05a7.89,7.89,0,0,0-8,6.13l-.14,0c-.32.22-.66.43-1,.63v.11h-.21c-.21.12-.43.23-.65.33v3.72l.47-.06-.47.23v2.18h-1.43a5.64,5.64,0,0,1-1,.18v1.59h2.47v3.22a8.68,8.68,0,0,1-3.15,4.21h0s-.26-.19-.58-.47a9,9,0,0,1-2-2.51c-.08.54-.16,1.07-.26,1.59a7.23,7.23,0,0,1-1.4,2.95,9.91,9.91,0,0,1-1.9,1.86h0a9.61,9.61,0,0,1-1.9-1.86,7.11,7.11,0,0,1-1.4-2.95c-.1-.52-.19-1.05-.26-1.59a9.19,9.19,0,0,1-2,2.51,7.12,7.12,0,0,1-.59.47h0A8.74,8.74,0,0,1,296,222.8v-3.16h2.48v-1.59a5.9,5.9,0,0,1-1.05-.18H296v-2.18l-.47-.24.47.07v-3.71c-.22-.11-.45-.22-.66-.34h-.19v-.11c-.36-.2-.69-.41-1-.63l-.2.05a6.69,6.69,0,0,0-1.65.72,8.4,8.4,0,0,0-1.69,1.37,12.87,12.87,0,0,0-1.83,2.46,27.94,27.94,0,0,0-2.84,7.68l-.85-.47A26.53,26.53,0,0,1,285,206.07Z" transform="translate(0 0)"/></g><polygon class="cls-6" points="325.74 236.07 332.5 239.73 351.01 307.73 311.46 324.68 325.74 236.07"/><path class="cls-63" d="M185.1,426.7a15.18,15.18,0,0,0,1.85,7.85,8.4,8.4,0,0,0,1,1.27,6.61,6.61,0,0,0,3.88,2.19,7.64,7.64,0,0,0,1.19.1,10.46,10.46,0,0,0,5.17-1.56l9.9-5.72,188.6-108.89L456,287.69l27.32-15.77c6.38-3.69,11.56-13.58,11.56-22.09,0-4.35-1.36-7.5-3.54-9a5,5,0,0,0-1-.57c-1.83-.82-4.1-.66-6.57.64a8,8,0,0,0-3.09-3c-2.45-1.28-5.6-1.09-9,.89a20,20,0,0,0-2.67,1.88,29.26,29.26,0,0,0-6.09,7.23c-1.6-3.88-4.62-5.92-8.34-5.57.2-.75.39-1.51.55-2.27A37.72,37.72,0,0,0,456,232c0-.62,0-1.23,0-1.82-.36-6.1-2.54-10.47-5.86-12.57l-.8-.45a10.23,10.23,0,0,0-7.89-.34,17.39,17.39,0,0,0-3.43,1.54c-.31.18-.6.36-.9.56a31.65,31.65,0,0,0-8,7.74c0-.78.06-1.57.06-2.34a43.26,43.26,0,0,0-.69-7.92,27.32,27.32,0,0,0-3-8.51c-3-5.22-7.65-8.09-13.23-8.06a20.45,20.45,0,0,0-7.69,1.71,27.55,27.55,0,0,0-3.31,1.65c-15.43,8.91-27.94,32.81-27.94,53.39a37.65,37.65,0,0,0,1.89,12.36,29.33,29.33,0,0,0-8,17.21c-3.57-3.51-8.62-4.43-14.35-2.13a18.82,18.82,0,0,0-1.85.85c-.38.19-.76.39-1.15.61a34.68,34.68,0,0,0-7.4,5.91,58.5,58.5,0,0,0-13.67,25.05c-1.67-4.54-5.72-6.09-10.45-3.36-.12.07-.23.16-.34.23a30.79,30.79,0,0,0,.61-5.9,22.3,22.3,0,0,0-.14-2.5,15.81,15.81,0,0,0-1.4-5.27,8.36,8.36,0,0,0-4.73-4.55c.08-1.22.13-2.43.13-3.64,0-9.85-2.85-17.17-7.51-21.17a14,14,0,0,0-5-2.8,14.87,14.87,0,0,0-5.66-.63,20.43,20.43,0,0,0-6.6,1.63h0a29.69,29.69,0,0,0-3.39,1.69c-14,8.06-25.53,28.28-27.76,47.33a19.65,19.65,0,0,0-7.9,2.73c-12.9,7.45-23.35,27.42-23.35,44.62a35.61,35.61,0,0,0,.57,6.51,16.81,16.81,0,0,0-5.26,2c-8.19,4.74-15.16,15.72-17.77,26.94a10.88,10.88,0,0,0-4.54,1.52c-7.08,4.09-12.86,14.95-13,24.44C185.1,426.39,185.1,426.54,185.1,426.7Z" transform="translate(0 0)"/><polygon class="cls-63" points="332.5 239.73 359.79 310.17 319.01 327.65 332.5 239.73"/><path class="cls-2" d="M303.2,184.7l-.92-.56.74-4,.23.12c.82-14.05,7.9-17,7.9-17a132.72,132.72,0,0,0,0,13.76C304.76,179.29,304.35,182.73,303.2,184.7Z" transform="translate(0 0)"/><path class="cls-68" d="M302.28,184.14c-.57-17.86,7.94-21.38,7.94-21.38a136.86,136.86,0,0,0,0,13.76C303.83,178.73,303.43,182.17,302.28,184.14Z" transform="translate(0 0)"/><path class="cls-69" d="M351.72,179.53l-.23.12c-.82-14.06-7.9-17-7.9-17a132.83,132.83,0,0,1,0,13.76c6.39,2.22,6.8,5.66,8,7.62l.92-.56Z" transform="translate(0 0)"/><g class="cls-70"><rect class="cls-2" x="105.36" width="474.78" height="356.09"/><g class="cls-71"><rect class="cls-2" x="341.61" y="160.69" width="12.83" height="25.34"/></g></g><g class="cls-72"><g class="cls-73"><rect class="cls-68" x="342.51" y="160.13" width="11.93" height="25.34"/></g></g><path class="cls-74" d="M320,204.74l4.71-.77a60.21,60.21,0,0,1-.76,8.71A10.83,10.83,0,0,1,320,218.8h0a10.83,10.83,0,0,1-3.94-6.12,60.93,60.93,0,0,1-.77-8.71Z" transform="translate(0 0)"/><g class="cls-75"><rect class="cls-6" x="105.36" width="474.78" height="356.09"/><g class="cls-76"><rect class="cls-6" x="313.29" y="202" width="13.38" height="18.78"/></g></g><path class="cls-77" d="M316.07,202.08a7.35,7.35,0,0,1,7.8,0h1.24v2.09c0,1.78-2.3,3.22-5.14,3.22s-5.13-1.44-5.13-3.22v-2.09Z" transform="translate(0 0)"/><g class="cls-78"><rect class="cls-8" x="105.36" width="474.78" height="356.09"/><g class="cls-79"><rect class="cls-8" x="312.86" y="198.98" width="14.22" height="10.39"/></g></g><g class="cls-80"><g class="cls-81"><rect class="cls-63" x="311.76" y="194.01" width="16.43" height="13.1"/></g></g><g class="cls-82"><g class="cls-81"><rect class="cls-83" x="311.76" y="190.1" width="16.43" height="11.77"/></g></g><path class="cls-74" d="M334.78,204.74l4.71-.77a60.21,60.21,0,0,1-.76,8.71,10.77,10.77,0,0,1-4,6.12h0a10.87,10.87,0,0,1-3.95-6.12,60.21,60.21,0,0,1-.76-8.71Z" transform="translate(0 0)"/><g class="cls-84"><rect class="cls-6" x="105.36" width="474.78" height="356.09"/><g class="cls-76"><rect class="cls-6" x="328.09" y="202" width="13.38" height="18.78"/></g></g><path class="cls-77" d="M330.87,202.08a7.35,7.35,0,0,1,7.8,0h1.23v2.09c0,1.78-2.3,3.22-5.13,3.22s-5.13-1.44-5.13-3.22v-2.09Z" transform="translate(0 0)"/><g class="cls-85"><rect class="cls-8" x="105.36" width="474.78" height="356.09"/><g class="cls-79"><rect class="cls-8" x="327.66" y="198.98" width="14.22" height="10.39"/></g></g><g class="cls-86"><g class="cls-81"><rect class="cls-63" x="326.55" y="194.01" width="16.43" height="13.1"/></g></g><g class="cls-87"><g class="cls-81"><rect class="cls-83" x="326.55" y="190.1" width="16.43" height="11.77"/></g></g><path class="cls-74" d="M327.38,209.08l4.71-.76a60.31,60.31,0,0,1-.76,8.71,10.79,10.79,0,0,1-3.94,6.11h0a10.83,10.83,0,0,1-3.95-6.11,60.31,60.31,0,0,1-.76-8.71Z" transform="translate(0 0)"/><g class="cls-88"><rect class="cls-6" x="105.36" width="474.78" height="356.09"/><g class="cls-76"><rect class="cls-6" x="320.69" y="206.34" width="13.38" height="18.78"/></g></g><path class="cls-77" d="M323.47,206.43a7.3,7.3,0,0,1,7.8,0h1.23v2.08c0,1.78-2.29,3.22-5.13,3.22s-5.13-1.44-5.13-3.22v-2.08Z" transform="translate(0 0)"/><g class="cls-89"><rect class="cls-8" x="105.36" width="474.78" height="356.09"/><g class="cls-79"><rect class="cls-8" x="320.26" y="203.32" width="14.22" height="10.39"/></g></g><g class="cls-90"><g class="cls-81"><rect class="cls-63" x="319.16" y="198.35" width="16.43" height="13.1"/></g></g><path class="cls-77" d="M321.13,200.33c0,2.16,2.8,3.9,6.24,3.9s6.24-1.74,6.24-3.9-2.8-3.91-6.24-3.91-6.24,1.75-6.24,3.91" transform="translate(0 0)"/><g class="cls-91"><rect class="cls-8" x="105.36" width="474.78" height="356.09"/><g class="cls-79"><rect class="cls-8" x="319.16" y="194.44" width="16.43" height="11.77"/></g></g><path class="cls-64" d="M305.1,138.14l22.26-.84h0l22.26.84s.16,4.57-.22,12.72A351.56,351.56,0,0,1,345,191.48c-.37,4-4.12,7.43-9.5,9.18.48-4.62-2.28-9.64-8.26-9.64s-8.71,4.95-8.28,9.54a15.18,15.18,0,0,1-7.92-5.51,7.73,7.73,0,0,1-1.31-3.73C304.39,159.1,305.1,138.14,305.1,138.14Z" transform="translate(0 0)"/><path class="cls-8" d="M339.34,150c5.68-2,8.3-7.7,9.42-11.28a5.31,5.31,0,0,0,.93-.15c.57,13.8-1.95,36.91-4.61,53-.53,5.81-8.21,10.41-17.61,10.42h0c-7.37,0-13.68-2.83-16.33-6.85a459,459,0,0,1-4.31-47.7S314.85,158.71,339.34,150Z" transform="translate(0 0)"/><path class="cls-74" d="M305.21,136.68c1.7-19.52,7.15-38.81,13.22-51.91,6.23-13.44,8.93-12,8.93-12s2.71-1.48,8.93,12c6.07,13.1,11.52,32.39,13.23,51.91a8.93,8.93,0,0,1,.12,1.47c0,7.7-10,13.95-22.28,13.95s-22.28-6.25-22.28-13.95a8.93,8.93,0,0,1,.13-1.47" transform="translate(0 0)"/><g class="cls-92"><rect class="cls-6" x="105.36" width="474.78" height="356.09"/><g class="cls-76"><rect class="cls-6" x="303.1" y="70.78" width="48.52" height="83.29"/></g></g><path class="cls-64" d="M305.08,138.14c0,4.21,3,8,7.65,10.52a30.73,30.73,0,0,0,14.63,3.44c12.31,0,22.28-6.25,22.28-14a8.9,8.9,0,0,0-.12-1.46c-1.71-19.51-7.16-38.81-13.23-51.91-6.22-13.44-8.93-12-8.93-12s-.42-.23-1.31.31c-1.36.84-3.84,3.5-7.61,11.65-6.08,13.1-11.53,32.4-13.23,51.91A8.9,8.9,0,0,0,305.08,138.14Z" transform="translate(0 0)"/><path class="cls-2" d="M305,138.14c0,4.21,4,7.26,8.66,9.81a33.27,33.27,0,0,0,9.94,1.47c12.3,0,21.27-5.55,21.27-13.25a8.93,8.93,0,0,0-.12-1.47c-1.71-19.52-7.16-38.81-13.23-51.91A47,47,0,0,0,326,73.12c-1.36.84-3.84,3.5-7.61,11.65-6.08,13.1-11.53,32.4-13.23,51.91A8.9,8.9,0,0,0,305,138.14Z" transform="translate(0 0)"/><path class="cls-2" d="M311.78,179.14l1,.59-1.06,3.8c.06,3.91.34,9.65,1.46,13.85-1.21.32-4.43,1.15-7.27,7.12L304,211.73l.19,1.91-1-.59C301.51,207.7,298.07,191.21,311.78,179.14Z" transform="translate(0 0)"/><path class="cls-68" d="M304.17,213.64c-1.64-5.35-5.08-21.84,8.63-33.91,0,0-.44,11.25,1.42,18.24C312.58,198.4,307.23,199.77,304.17,213.64Z" transform="translate(0 0)"/><path class="cls-2" d="M343.45,179.14l-1,.59,1.05,3.8A63.29,63.29,0,0,1,342,197.38c1.2.32,4.43,1.15,7.26,7.12l2,7.23-.2,1.91,1-.59C353.71,207.7,357.15,191.21,343.45,179.14Z" transform="translate(0 0)"/><path class="cls-68" d="M351.05,213.64c1.64-5.35,5.08-21.84-8.62-33.91,0,0,.43,11.25-1.42,18.24C342.64,198.4,348,199.77,351.05,213.64Z" transform="translate(0 0)"/><path class="cls-10" d="M242.63,344.08c7.44,4.82,30.86,21.41,16.17,48.16s-67.73-7.64-85.08-3.82c-10.43,2.29,65.75,12.9,15.05,31.29-40.13,14.55-80.89-12-86.33-17.42-14-13.87-19.42-30.55-3.37-50.71s50-18.2,57.66-13.27-4.31,29.81,32,20.06,1.29-19.65,11.61-22.3S235.18,339.26,242.63,344.08Z" transform="translate(0 0)"/><path class="cls-93" d="M248.77,334.8c7.44,4.82,30.86,21.4,16.17,48.15s-67.73-7.64-85.08-3.82c-10.43,2.3,65.75,12.91,15,31.29C154.78,425,114,398.39,108.58,393c-14-13.87-19.42-30.55-3.37-50.71s50-18.2,57.66-13.27-4.31,29.81,32,20.07,1.29-19.66,11.61-22.3S241.33,330,248.77,334.8Z" transform="translate(0 0)"/></g></g></g></svg>