<svg xmlns="http://www.w3.org/2000/svg" xmlns:xlink="http://www.w3.org/1999/xlink" viewBox="0 0 630.3 440.06"><defs><style>.cls-1,.cls-11,.cls-15,.cls-2,.cls-6,.cls-7{fill:#2a436f;}.cls-1,.cls-4{clip-rule:evenodd;}.cls-3{fill:none;}.cls-19,.cls-4,.cls-5{fill:#f8fcff;}.cls-15,.cls-19,.cls-6{fill-rule:evenodd;}.cls-14,.cls-6,.cls-7{opacity:0.15;}.cls-8{fill:#bdc3c7;}.cls-9{fill:#f1f2eb;}.cls-10{fill:#70beff;opacity:0.3;}.cls-11{opacity:0.4;}.cls-12{fill:#fff;}.cls-13{fill:#ffa05f;}.cls-16{clip-path:url(#clip-path);}.cls-17{clip-path:url(#clip-path-2);}.cls-18{clip-path:url(#clip-path-3);}.cls-20{clip-path:url(#clip-path-4);}.cls-21{clip-path:url(#clip-path-5);}</style><clipPath id="clip-path"><path class="cls-1" d="M211.74,212c-31.59-1.48-45.7,11.52-41.65,26.75q6.53,17.82-6.24,26.24c-12.78,8.43-24.26,12.62-53.6,17.34s-16.21,21.48,2.2,28.29c15.14,5.59,70.49,11.24,90,2.71,18.35-8-36-23.6,3.62-23.6,48.56,0,69.18-8.47,66.63-30.46S243.33,213.51,211.74,212Z"/></clipPath><clipPath id="clip-path-2"><rect class="cls-2" y="104.02" width="360" height="270"/></clipPath><clipPath id="clip-path-3"><path class="cls-3" d="M208.74,200c-31.59-1.48-45.7,11.52-41.65,26.75q6.53,17.82-6.24,26.24c-12.78,8.43-24.26,12.62-53.6,17.34s-16.21,21.48,2.2,28.29c15.14,5.59,70.49,11.24,90,2.71,18.35-8-36-23.6,3.62-23.6,48.56,0,69.18-8.47,66.63-30.46S240.33,201.51,208.74,200Z"/></clipPath><clipPath id="clip-path-4"><path class="cls-4" d="M208.74,200c-31.59-1.48-45.7,11.52-41.65,26.75q6.53,17.82-6.24,26.24c-12.78,8.43-24.26,12.62-53.6,17.34s-16.21,21.48,2.2,28.29c15.14,5.59,70.49,11.24,90,2.71,18.35-8-36-23.6,3.62-23.6,48.56,0,69.18-8.47,66.63-30.46S240.33,201.51,208.74,200Z"/></clipPath><clipPath id="clip-path-5"><rect class="cls-5" y="91.02" width="360" height="270"/></clipPath></defs><title>Element 3</title><g id="Layer_2" data-name="Layer 2"><g id="Layer_1-2" data-name="Layer 1"><path class="cls-6" d="M135.54,136.53a692.47,692.47,0,0,1,64.93-28.35C240.11,93,282.48,85,324.12,82c1.8-.13,3.61-.26,5.41-.37,99.26-6.28,193.58,14.72,236.15,30.46,61.17,22.61,104.78,78.28,7.3,94s-135.62,29.63-178.06,57.61q-23.75,15.64-27.4,41.07-2.1,14.46,2.32,32.08a139.55,139.55,0,0,0,4.36,14c13.44,50.6-33.44,93.77-138.38,88.85S41.88,355.73,33.4,282.66C26.46,222.88,51.67,179.08,135.54,136.53Z"/><path class="cls-7" d="M548.63,135.34a178.26,178.26,0,0,0-16.57-8.19c-25.92-11.46-54.14-1.63-64.82,3.16-2.22.78-44.36,15.45-64.09,7.56-56.59-24.51-94.63,3.68-85.24,21.23a37.45,37.45,0,0,0,15,15.58C356,188,393.07,182,412.24,188.6c24.31,8.44,77,18.12,91.51,5.48s-11.6-15.32,3.7-25.15,35.77,3.39,49.65-8.66C567.56,151.18,562.74,143.49,548.63,135.34Z"/><path class="cls-5" d="M551.63,122.34a178.26,178.26,0,0,0-16.57-8.19c-25.92-11.46-54.14-1.63-64.82,3.16-2.22.78-44.36,15.45-64.09,7.56-56.59-24.51-94.63,3.68-85.24,21.23a37.45,37.45,0,0,0,15,15.58C359,175,396.07,169,415.24,175.6c24.31,8.44,77,18.12,91.51,5.48s-11.6-15.32,3.7-25.15,35.77,3.39,49.65-8.66C570.56,138.18,565.74,130.49,551.63,122.34Z"/><path class="cls-8" d="M310.93,286.58,358.76,259c5.84-3.38,16.15-3,22.9.95l36.74,18.15c2,1.15,3.45-3,4.38-1.58l1.2-.15v9.25c0,2.14-1.31,4.18-3.93,5.7L366.91,322c-5.85,3.37-16.15,2.94-22.9-1L312.57,299.8C305.83,295.9,305.09,290,310.93,286.58Z"/><path class="cls-9" d="M366.91,313.46l53.14-30.68c5.84-3.37,5.1-9.32-1.65-13.22l-36.74-18.15c-6.75-3.89-17.06-4.32-22.9-.95l-47.83,27.61c-5.84,3.38-5.1,9.33,1.64,13.23L344,312.51C350.76,316.41,361.06,316.84,366.91,313.46Z"/><path class="cls-2" d="M237.8,122.8l44.29-25.57,25.11-14.5,16.21-9.36L373,44.73,448,1.44c3.11-1.79,5.94-1.85,8.08-.52v0l10.26,5.9-6.24,9.09V184.57c0,8.92-5.42,19.27-12.11,23.13L249.59,322.25l-9.25,13.46-10.2-5.87h0c-2.72-1.39-4.45-4.88-4.45-9.93v-174C225.7,137,231.12,126.66,237.8,122.8Z"/><path class="cls-8" d="M458.43,213.71,248.24,335.06c-6.68,3.86-12.1-.23-12.1-9.15V304.46l234.4-135.33v21.45C470.54,199.49,465.12,209.85,458.43,213.71Z"/><path class="cls-9" d="M458.43,7.45l-75,43.29-49.6,28.64-16.22,9.36-25.1,14.49h0L248.24,128.8c-6.68,3.86-12.11,14.21-12.11,23.13V304.47l84.05-48.53,25.11-14.49,20.27-11.72h0l25.1-14.49,16.22-9.36,49.59-28.64,14.06-8.11V16.6C470.54,7.69,465.12,3.59,458.43,7.45Z"/><rect class="cls-10" x="282.09" y="113.77" width="28.99" height="144.61" transform="translate(-53.3 173.16) rotate(-29.99)"/><path class="cls-10" d="M303.62,265.49,278.53,280l-42.4-73.42V151.93a22.08,22.08,0,0,1,.21-3Z"/><path class="cls-2" d="M297.24,152.71l73.4-42.38a5,5,0,0,0,2.09-4v-4.69c0-1.53-.94-2.23-2.09-1.57l-73.4,42.38a5,5,0,0,0-2.08,4v4.68C295.16,152.66,296.1,153.37,297.24,152.71Z"/><path class="cls-11" d="M382.63,103.4c.22-.15,1.23,0,1.46-.15,2.77-1.43,6.31-1.2,10.17,1a29.12,29.12,0,0,1,9.27,9.29,41.24,41.24,0,0,1,6.77,20.33c0,.36,0,.72,0,1.07s0,.72,0,1.07v93.31c0,7.37,2.79,15.48,7,21.79l-7,4.07-55,31.74-23.37,13.5c-4.36-6.35-7.24-14.6-7.24-22.08v-94c0-7.22,1.06-21.69-3.05-27.94a20.3,20.3,0,0,0-7.92-7.6c-3.91-2.25-6.33-1.85-9.12-.37Z"/><path class="cls-8" d="M322.22,116.33A36.49,36.49,0,0,1,333.85,128l-29.58,17.08a45.43,45.43,0,0,1-2.21-13.49c0-7.93,2.58-13.57,6.67-16.13l.6-.34C312.83,113.24,317.32,113.5,322.22,116.33Z"/><path class="cls-12" d="M416.05,53.48c.28-.17.56-.34.86-.49,3.47-1.78,7.91-1.5,12.75,1.3A36.41,36.41,0,0,1,441.3,65.94a51.73,51.73,0,0,1,8.5,25.52c0,.45,0,.9,0,1.34s0,.9,0,1.34V211.23c0,9.25,3.5,19.43,8.84,27.34l-8.84,5.11-69,39.84-29.32,16.93c-5.48-8-9.09-18.32-9.09-27.71V154.84c0-9.06-3.37-19-8.53-26.86a36.49,36.49,0,0,0-11.63-11.65c-4.9-2.83-9.39-3.09-12.89-1.23L342.38,96Z"/><path class="cls-13" d="M363.09,245.6l66.1-38.16a4.47,4.47,0,0,0,1.85-3.55c0-1.36-.83-2-1.85-1.4l-66.1,38.16a4.48,4.48,0,0,0-1.86,3.55C361.23,245.56,362.07,246.19,363.09,245.6Z"/><path class="cls-13" d="M429.19,213.87,363.09,252a4.48,4.48,0,0,0-1.86,3.55c0,1.36.84,2,1.86,1.4l66.1-38.16a4.47,4.47,0,0,0,1.85-3.55C431,213.91,430.21,213.28,429.19,213.87Z"/><path class="cls-13" d="M363.09,222.56l66.1-38.16a4.47,4.47,0,0,0,1.85-3.55c0-1.36-.83-2-1.85-1.4l-66.1,38.16a4.48,4.48,0,0,0-1.86,3.55C361.23,222.52,362.07,223.15,363.09,222.56Z"/><path class="cls-13" d="M429.19,190.83,363.09,229a4.48,4.48,0,0,0-1.86,3.55c0,1.36.84,2,1.86,1.4l66.1-38.16a4.45,4.45,0,0,0,1.85-3.55C431,190.87,430.21,190.24,429.19,190.83Z"/><path class="cls-13" d="M363.09,199.53l66.1-38.17a4.45,4.45,0,0,0,1.85-3.54c0-1.37-.83-2-1.85-1.41l-66.1,38.17a4.46,4.46,0,0,0-1.86,3.54C361.23,199.48,362.07,200.12,363.09,199.53Z"/><path class="cls-13" d="M429.19,167.79,363.09,206a4.46,4.46,0,0,0-1.86,3.54c0,1.37.84,2,1.86,1.41l66.1-38.17A4.45,4.45,0,0,0,431,169.2C431,167.84,430.21,167.2,429.19,167.79Z"/><path class="cls-13" d="M363.09,175.47l27.63-16.22a4.45,4.45,0,0,0,1.85-3.54c0-1.36-.83-2-1.85-1.41l-27.63,16.22a4.46,4.46,0,0,0-1.86,3.55C361.23,175.43,362.07,176.06,363.09,175.47Z"/><path class="cls-13" d="M390.72,165.68,363.09,181.9a4.46,4.46,0,0,0-1.86,3.55c0,1.36.84,2,1.86,1.4l27.63-16.22a4.45,4.45,0,0,0,1.85-3.54C392.57,165.73,391.74,165.09,390.72,165.68Z"/><path class="cls-13" d="M363.09,150.87l27.63-16.22a4.43,4.43,0,0,0,1.85-3.54c0-1.36-.83-2-1.85-1.41l-27.63,16.22a4.48,4.48,0,0,0-1.86,3.55C361.23,150.83,362.07,151.46,363.09,150.87Z"/><path class="cls-13" d="M390.72,141.09,363.09,157.3a4.48,4.48,0,0,0-1.86,3.55c0,1.36.84,2,1.86,1.4L390.72,146a4.47,4.47,0,0,0,1.85-3.55C392.57,141.13,391.74,140.5,390.72,141.09Z"/><path class="cls-13" d="M425.71,109.37,400,124.21a3.53,3.53,0,0,0-1.78,3.08v32.86a3.56,3.56,0,0,0,5.34,3.08l25.71-14.83a3.55,3.55,0,0,0,1.78-3.09V112.45A3.55,3.55,0,0,0,425.71,109.37Z"/><g class="cls-14"><path class="cls-15" d="M211.74,212c-31.59-1.48-45.7,11.52-41.65,26.75q6.53,17.82-6.24,26.24c-12.78,8.43-24.26,12.62-53.6,17.34s-16.21,21.48,2.2,28.29c15.14,5.59,70.49,11.24,90,2.71,18.35-8-36-23.6,3.62-23.6,48.56,0,69.18-8.47,66.63-30.46S243.33,213.51,211.74,212Z"/><g class="cls-16"><rect class="cls-2" y="104.02" width="360" height="270"/><g class="cls-17"><rect class="cls-2" x="88.5" y="211.42" width="182.88" height="108.81"/></g></g></g><path class="cls-19" d="M208.74,200c-31.59-1.48-45.7,11.52-41.65,26.75q6.53,17.82-6.24,26.24c-12.78,8.43-24.26,12.62-53.6,17.34s-16.21,21.48,2.2,28.29c15.14,5.59,70.49,11.24,90,2.71,18.35-8-36-23.6,3.62-23.6,48.56,0,69.18-8.47,66.63-30.46S240.33,201.51,208.74,200Z"/><g class="cls-20"><rect class="cls-5" y="91.02" width="360" height="270"/><g class="cls-21"><rect class="cls-5" x="88.5" y="198.42" width="182.88" height="108.81"/></g></g></g></g></svg>