<svg xmlns="http://www.w3.org/2000/svg" viewBox="0 0 597.99 425.14"><defs><style>.cls-1,.cls-4{fill:#2a436f;}.cls-1,.cls-2{fill-rule:evenodd;}.cls-1{opacity:0.15;}.cls-14,.cls-2{fill:#f8fcfe;}.cls-3{fill:#395079;}.cls-5{fill:#4c6186;}.cls-6{fill:#6e7f9d;}.cls-7{fill:#8e9bb3;}.cls-8{fill:#5b6e90;}.cls-9{fill:#ffae77;}.cls-10{fill:#ffb582;}.cls-11{fill:#ffa05f;}.cls-12{fill:#ffcaa5;}.cls-13{fill:#ffbb8c;}.cls-15{fill:#e6e6e6;}</style></defs><title>Page 2 Security</title><g id="Layer_2" data-name="Layer 2"><g id="Layer_1-2" data-name="Layer 1"><path class="cls-1" d="M494.76,121.62a692.47,692.47,0,0,0-64.93-28.35c-39.64-15.22-82-23.16-123.65-26.21-1.8-.13-3.61-.26-5.41-.37C201.51,60.41,107.19,81.41,64.62,97.15c-61.17,22.61-104.78,78.28-7.3,94s135.62,29.63,178.06,57.61q23.75,15.64,27.4,41.07,2.1,14.46-2.32,32.08a139.55,139.55,0,0,1-4.36,14c-13.44,50.6,33.44,93.77,138.38,88.85s193.94-83.94,202.42-157C603.84,208,578.63,164.17,494.76,121.62Z"/><path class="cls-1" d="M255.88,123.23a226.54,226.54,0,0,0-21.28-9.29,142.37,142.37,0,0,0-40.53-8.59l-1.77-.12c-32.53-2.06-63.44,4.82-77.4,10-20,7.41-34.34,25.66-2.39,30.8s44.45,9.71,58.36,18.88q7.78,5.13,9,13.46a27.26,27.26,0,0,1-.76,10.51,45.28,45.28,0,0,1-1.43,4.6c-4.4,16.59,11,30.74,45.35,29.12s63.57-27.51,66.35-51.46C291.63,151.53,283.37,137.18,255.88,123.23Z"/><path class="cls-2" d="M247.84,111.52a226.54,226.54,0,0,0-21.28-9.29A142.37,142.37,0,0,0,186,93.64l-1.77-.12c-32.53-2.06-63.44,4.82-77.4,10-20,7.41-34.34,25.66-2.39,30.8s44.45,9.71,58.36,18.88q7.78,5.13,9,13.46a27.26,27.26,0,0,1-.76,10.51,45.28,45.28,0,0,1-1.43,4.6c-4.41,16.59,11,30.74,45.35,29.13s63.57-27.52,66.34-51.46C283.59,139.82,275.33,125.47,247.84,111.52Z"/><path class="cls-3" d="M389.73,117.78l-102-98.15L185.74,0,151.85,19.58,188.5,104c17.27,142,86.19,213.85,97.59,224.83l5,11.48,35.71-20.57.22-.12,2.3-1.33,0-.12C403.91,273,389.73,117.78,389.73,117.78Z"/><path class="cls-4" d="M355.89,137.35,274.17,316c5.54,6.5,9.76,10.78,11.92,12.86l5,11.48,35.71-20.57.22-.12,2.3-1.33,0-.12c74.49-45.12,60.53-199.72,60.47-200.41Z"/><polygon class="cls-5" points="287.75 19.64 287.74 19.63 185.74 0 151.85 19.58 166.9 54.27 219.85 58.84 287.75 19.64"/><path class="cls-6" d="M151.85,19.58C137.64,246.92,253.85,350,253.85,350V39.21Z"/><path class="cls-7" d="M151.85,19.58C137.64,246.92,253.85,350,253.85,350Z"/><path class="cls-8" d="M355.84,137.35l-102-98.14V350C374.86,344.63,355.84,137.35,355.84,137.35Z"/><path class="cls-5" d="M355.84,137.35,253.85,350C374.86,344.63,355.84,137.35,355.84,137.35Z"/><path class="cls-4" d="M295.48,214.25c0-.17,0-.35,0-.52-.06-.7-.14-1.39-.26-2.1,0-.14-.05-.28-.08-.43-.09-.53-.19-1.06-.31-1.6-.07-.33-.15-.66-.23-1l-.18-.66c-2.75-10.36-10-20.86-18.5-25.78l-.66-.38V152.73c0-9.66-6.3-20.57-14.63-25.36l-22-12.74c-5.22-3-10.7-3.22-15.05-.69-4.06,2.36-6.5,6.79-6.79,12.26,0,.36,0,.73,0,1.1v34.13l-14.06,7.93h0c-3.66,2-5.93,6.46-5.93,12.81v27.05c0,12.51,8.81,27.91,19.74,34.15l39.43,22.8c6,3.45,11.38,3.44,15,.65l.33-.19h0l18.58-10.53c3.57-2.09,5.81-6.46,5.81-12.74v-27C295.58,215.67,295.54,215,295.48,214.25ZM253.34,140c3.78,2.17,7.36,8.38,7.36,12.77v20.69l-24.35-14a19.93,19.93,0,0,0-5.13-2.17v-5.45l.11.06-.11-.07V127.17l.11.06,3.8,2.2h0Z"/><path class="cls-9" d="M216.94,155.48a4.81,4.81,0,0,1,1.21-.69l.68-.4,0,.13c3.4-1.38,7.75-.91,12.47,1.86l39.53,22.79c10.84,6.28,19.7,21.64,19.7,34.2v27c0,6.28-2.24,10.65-5.81,12.74l-19.48,11-13.67-23.44L231.35,229c-10.84-6.28-19.66-21.66-19.66-34.23v-4.29l-14.06-24.12Z"/><path class="cls-10" d="M197.63,166.36l19.31-10.88a4.81,4.81,0,0,1,1.21-.69l.68-.4,0,.13c3.4-1.38,7.75-.91,12.47,1.86l39.53,22.79"/><path class="cls-9" d="M213.46,141a17.52,17.52,0,0,0-1.77,7.94v35.84a7.27,7.27,0,0,0,14.53,0v-36l.11.06Z"/><path class="cls-11" d="M257.35,175.67a17.54,17.54,0,0,0-1.76,7.94v35.84a7.26,7.26,0,0,0,14.52,0v-36l.11.06Z"/><path class="cls-12" d="M284.77,253.11l-19.48,11-13.67-23.44L231.35,229c-10.84-6.28-19.66-21.66-19.66-34.23"/><path class="cls-11" d="M266.19,253v10.69l18.58-10.53c3.57-2.09,5.81-6.46,5.81-12.74v-27A35.12,35.12,0,0,0,288,200.63l-39.08,22.54Z"/><path class="cls-13" d="M211.44,167.76l39.43,22.81c10.93,6.28,19.75,21.68,19.75,34.2v27c0,12.5-8.82,17.68-19.75,11.4l-39.43-22.8c-10.93-6.24-19.74-21.64-19.74-34.15V179.17C191.7,166.66,200.51,161.54,211.44,167.76Z"/><path class="cls-14" d="M263,192.79a7.26,7.26,0,0,1-7.26-7.26v-35.8c0-4.39-3.58-10.6-7.36-12.77l-22-12.73-.11-.06v36a7.27,7.27,0,0,1-14.53,0V124.3c0-6,2.49-10.84,6.82-13.36s9.83-2.28,15.05.69l22,12.74c8.33,4.79,14.63,15.7,14.63,25.36v35.8A7.26,7.26,0,0,1,263,192.79Z"/><path class="cls-15" d="M226.58,124l-13.12-7.59a17.52,17.52,0,0,0-1.77,7.94v35.84a7.27,7.27,0,0,0,14.53,0v-36l.11.06,3.8,2.2A25.81,25.81,0,0,0,226.58,124Z"/><path class="cls-10" d="M191.7,179.17c0-12.51,8.81-17.63,19.74-11.41l39.43,22.81c10.93,6.28,19.75,21.68,19.75,34.2v27"/><path class="cls-15" d="M235.44,212.35a13.84,13.84,0,0,0-6.24-10.81c-3.43-2-6.24-.37-6.24,3.6a13.31,13.31,0,0,0,2.41,7.07v13.18a2,2,0,0,0,.9,1.56l5.86,3.38c.5.29.9,0,.9-.52V216.62C234.49,216.15,235.44,214.64,235.44,212.35Z"/><path class="cls-14" d="M229.2,201.54a5,5,0,0,0-3.58-.75,4.73,4.73,0,0,0-1.35,3.67,13.18,13.18,0,0,0,2.42,7.06v13.19a2,2,0,0,0,.89,1.55l5.45,3.15V216.62c1.46-.47,2.41-2,2.41-4.27A13.84,13.84,0,0,0,229.2,201.54Z"/><path class="cls-1" d="M475.86,252.1a223.83,223.83,0,0,0-21.28-9.3,142.72,142.72,0,0,0-40.52-8.59l-1.78-.12c-32.53-2.06-63.44,4.83-77.39,10-20.05,7.41-34.34,25.65-2.4,30.79s44.45,9.71,58.36,18.88q7.78,5.13,9,13.46a27.12,27.12,0,0,1-.76,10.52,46.07,46.07,0,0,1-1.43,4.6c-4.4,16.58,11,30.73,45.36,29.12s63.56-27.51,66.34-51.46C511.61,280.4,503.35,266,475.86,252.1Z"/><path class="cls-2" d="M467.82,240.39a226.41,226.41,0,0,0-21.28-9.3A142.72,142.72,0,0,0,406,222.5l-1.78-.12c-32.53-2.06-63.44,4.83-77.39,10-20.05,7.41-34.35,25.65-2.4,30.79s44.45,9.71,58.36,18.88q7.79,5.13,9,13.46A27.31,27.31,0,0,1,391,306a46.07,46.07,0,0,1-1.43,4.6c-4.4,16.58,11,30.73,45.36,29.12s63.56-27.51,66.34-51.46C503.57,268.69,495.31,254.33,467.82,240.39Z"/></g></g></svg>