<svg xmlns="http://www.w3.org/2000/svg" viewBox="0 0 597.99 425.53"><defs><style>.cls-1,.cls-9{fill:#2a436f;}.cls-1,.cls-2{fill-rule:evenodd;}.cls-1{opacity:0.15;}.cls-2{fill:#f8fcfe;}.cls-3{fill:#e88949;}.cls-4{fill:#ffa05f;}.cls-5{fill:#ffb582;}.cls-6{fill:#485d83;}.cls-7{fill:#304973;}.cls-8{fill:#6a7b9a;}.cls-10{fill:#617494;}</style></defs><title>Page 2 Categories</title><g id="Layer_2" data-name="Layer 2"><g id="Layer_1-2" data-name="Layer 1"><path class="cls-1" d="M203.51,425.14c105,4.92,151.82-38.25,138.38-88.85q-21.72-59.21,20.72-87.19c42.44-28,80.59-41.93,178.07-57.61s53.87-71.35-7.31-94-229.2-56.09-365.21-3.88S-7.39,195.06,1.09,268.13,98.57,420.23,203.51,425.14Z"/><path class="cls-1" d="M368.26,119.7a178.37,178.37,0,0,1,16.88-7.37,113.14,113.14,0,0,1,32.15-6.82l1.4-.09c25.81-1.63,50.33,3.82,61.39,7.92,15.9,5.87,27.24,20.35,1.9,24.42s-35.26,7.7-46.29,15a15,15,0,0,0-7.12,10.67,21.55,21.55,0,0,0,.6,8.34,37,37,0,0,0,1.14,3.65c3.49,13.16-8.7,24.38-36,23.1s-50.41-21.82-52.62-40.82C339.91,142.14,346.46,130.76,368.26,119.7Z"/><path class="cls-2" d="M378.64,110.41A181,181,0,0,1,395.52,103a112.79,112.79,0,0,1,32.14-6.81l1.41-.1c25.8-1.63,50.32,3.83,61.39,7.92,15.9,5.88,27.24,20.35,1.9,24.42s-35.26,7.71-46.29,15A15,15,0,0,0,439,154.13a21.58,21.58,0,0,0,.6,8.34,35.84,35.84,0,0,0,1.13,3.65c3.5,13.15-8.69,24.37-36,23.09s-50.42-21.82-52.62-40.81C350.29,132.86,356.84,121.47,378.64,110.41Z"/><path class="cls-3" d="M239,109.16l12.95-17.44-1.53-2.58L257,85.37a4.87,4.87,0,0,1,5.07-.25l78.49,33.76a8.11,8.11,0,0,1,3.65,6.34v67.53a2.58,2.58,0,0,1-1,2.32v0l-7.53,4.29L329,188.22l-74.3-31.35a13.12,13.12,0,0,1-5-6.1l-11.86-34.23A9,9,0,0,1,239,109.16Z"/><path class="cls-4" d="M314.52,141.11l29.53-17.05a5.89,5.89,0,0,1,.13,1.16v67.53a2.58,2.58,0,0,1-1,2.32v0l-7.53,4.29L329,188.22l-14.51-8.38Z"/><path class="cls-4" d="M248.51,90.62a4.86,4.86,0,0,1,6.17-1.28l78.49,33.77a8.13,8.13,0,0,1,3.65,6.32V197c0,2.32-1.65,3.27-3.65,2.11l-85.8-38a13.16,13.16,0,0,1-5-6.09l-11.86-34.24a8.93,8.93,0,0,1,1.14-7.37Z"/><path class="cls-5" d="M248.51,90.62a4.86,4.86,0,0,1,6.17-1.28l78.49,33.77a8.13,8.13,0,0,1,3.65,6.32V197c0,2.32-1.65,3.27-3.65,2.11"/><path class="cls-3" d="M425,195.14,412,177.7l1.53-2.58L407,171.35a4.87,4.87,0,0,0-5.07-.25l-58.49,33.76a8.12,8.12,0,0,0-3.66,6.34v67.53a2.61,2.61,0,0,0,1,2.33h0l7.53,4.29,6.61-11.16,54.3-31.35a13.12,13.12,0,0,0,5-6.1l11.86-34.23A9,9,0,0,0,425,195.14Z"/><path class="cls-4" d="M369.4,227.09,339.87,210a5.83,5.83,0,0,0-.14,1.16v67.53a2.61,2.61,0,0,0,1,2.33h0l7.53,4.29,6.61-11.16,14.51-8.38Z"/><path class="cls-4" d="M415.41,176.6a4.86,4.86,0,0,0-6.17-1.28l-58.49,33.76a8.17,8.17,0,0,0-3.65,6.34V283c0,2.32,1.65,3.27,3.65,2.11l65.8-38a13.16,13.16,0,0,0,5-6.09l11.86-34.24a9,9,0,0,0-1.14-7.38Z"/><path class="cls-5" d="M415.41,176.6a4.86,4.86,0,0,0-6.17-1.28l-58.49,33.76a8.17,8.17,0,0,0-3.65,6.34V283c0,2.32,1.65,3.27,3.65,2.11"/><path class="cls-3" d="M425,24.64,412,7.2l1.53-2.58L407,.85a4.87,4.87,0,0,0-5.07-.26L343.39,34.36a8.11,8.11,0,0,0-3.66,6.33v67.54a2.58,2.58,0,0,0,1,2.32v0l7.53,4.29,6.61-11.16,54.3-31.35a13.12,13.12,0,0,0,5-6.1L426.08,32A9,9,0,0,0,425,24.64Z"/><path class="cls-4" d="M369.4,56.59,339.87,39.54a5.82,5.82,0,0,0-.14,1.15v67.54a2.58,2.58,0,0,0,1,2.32v0l7.53,4.29,6.61-11.16,14.51-8.38Z"/><path class="cls-4" d="M415.41,6.09a4.87,4.87,0,0,0-6.17-1.27L350.75,38.58a8.13,8.13,0,0,0-3.65,6.33v67.54c0,2.32,1.65,3.27,3.65,2.11l65.8-38a13.14,13.14,0,0,0,5-6.1l11.86-34.23a9,9,0,0,0-1.14-7.38Z"/><path class="cls-5" d="M415.41,6.09a4.87,4.87,0,0,0-6.17-1.27L350.75,38.58a8.13,8.13,0,0,0-3.65,6.33v67.54c0,2.32,1.65,3.27,3.65,2.11"/><polygon class="cls-6" points="341.18 350 397.4 317.48 341.18 284.97 284.86 317.48 341.18 350"/><polyline class="cls-7" points="341.18 284.97 284.86 317.48 341.18 350"/><polygon class="cls-8" points="349.85 8.16 341.13 13.19 341.13 321.58 349.85 316.54 349.85 8.16"/><polygon class="cls-6" points="332.42 8.16 341.13 13.19 341.13 321.58 332.42 316.54 332.42 8.16"/><polygon class="cls-6" points="349.85 209.59 341.13 214.62 341.13 13.19 349.85 8.16 349.85 209.59"/><polygon class="cls-9" points="341.13 214.62 332.42 209.59 332.42 8.16 341.13 13.19 341.13 214.62"/><polygon class="cls-10" points="341.14 2.95 349.85 8.16 341.13 13.19 332.42 8.16 341.14 2.95"/><path class="cls-1" d="M313.65,227.52c10.52,6.82,43.65,30.28,22.88,68.12s-95.81-10.81-120.36-5.41c-14.75,3.25,93,18.26,21.29,44.26-56.76,20.58-114.41-17-122.11-24.63-19.83-19.63-27.47-43.22-4.77-71.74s70.7-25.74,81.56-18.76-6.09,42.16,45.32,28.38,1.83-27.8,16.43-31.55S303.12,220.7,313.65,227.52Z"/><path class="cls-2" d="M319.51,215.8c10.52,6.82,43.65,30.28,22.88,68.11s-95.81-10.8-120.35-5.4c-14.76,3.25,93,18.26,21.29,44.26-56.77,20.58-114.42-17-122.12-24.63-19.83-19.63-27.47-43.22-4.77-71.74s70.7-25.74,81.57-18.76-6.1,42.16,45.32,28.37,1.82-27.8,16.42-31.54S309,209,319.51,215.8Z"/></g></g></svg>