<svg xmlns="http://www.w3.org/2000/svg" xmlns:xlink="http://www.w3.org/1999/xlink" viewBox="0 0 678.87 486.32"><defs><style>.cls-1{fill:url(#linear-gradient);}.cls-2{fill:url(#linear-gradient-2);}.cls-3{fill:url(#linear-gradient-3);}.cls-4{fill:url(#linear-gradient-4);}.cls-5{fill:#d6753e;}.cls-6{fill:url(#linear-gradient-5);}.cls-14,.cls-7{opacity:0.05;}.cls-14,.cls-19,.cls-7{isolation:isolate;}.cls-7{fill:url(#linear-gradient-6);}.cls-8{fill:#161515;}.cls-14,.cls-9{fill:#191717;}.cls-10{fill:#232121;}.cls-11{fill:#ededbb;}.cls-12{fill:#d69547;}.cls-13{opacity:0.5;}.cls-15{fill:#d7d8da;}.cls-16{fill:#ccc;}.cls-17{fill:#e6e7e8;}.cls-18{fill:url(#linear-gradient-7);}.cls-19{opacity:0.35;fill:url(#linear-gradient-8);}.cls-20{fill:#2d292a;}.cls-21{fill:url(#linear-gradient-9);}.cls-22{fill:url(#linear-gradient-10);}.cls-23{fill:#9e512b;}.cls-24{fill:#542713;}.cls-25{fill:#3a6291;}.cls-25,.cls-26,.cls-27,.cls-28,.cls-29{fill-rule:evenodd;}.cls-26{fill:#315384;}.cls-27,.cls-39{fill:#2a436f;}.cls-28,.cls-31{fill:#ffa05f;}.cls-29{fill:#426e99;}.cls-30,.cls-42{fill:#fff;}.cls-32{fill:#424242;}.cls-33{fill:#6c5d58;}.cls-34{fill:#757575;}.cls-35{fill:#616161;}.cls-35,.cls-36{stroke:#2a436f;stroke-miterlimit:10;stroke-width:0.53px;}.cls-36,.cls-48,.cls-49,.cls-50,.cls-51,.cls-55,.cls-56,.cls-57{fill:none;}.cls-37{fill:url(#linear-gradient-11);}.cls-38{fill:url(#linear-gradient-12);}.cls-40{fill:#ffaa71;}.cls-41{fill:#e88949;}.cls-42{opacity:0.06;}.cls-43{fill:#4d5667;}.cls-44{fill:#ffa76a;}.cls-45{fill:#395987;}.cls-46{fill:#ffcf31;}.cls-47{fill:#fff575;}.cls-48,.cls-49,.cls-50,.cls-51,.cls-55,.cls-56,.cls-57{stroke:#ffa05f;stroke-linecap:round;stroke-linejoin:round;stroke-width:2px;}.cls-49{stroke-dasharray:12.95 9.71;}.cls-50{stroke-dasharray:11.98 8.98;}.cls-51{stroke-dasharray:11.95 8.96;}.cls-52{fill:#b3b3b3;}.cls-53{fill:#f8fcfe;opacity:0.8;}.cls-54{fill:#fdfeff;}.cls-55{stroke-dasharray:12.88 9.66;}.cls-56{stroke-dasharray:11.81 8.86;}.cls-57{stroke-dasharray:12.84 9.63;}</style><linearGradient id="linear-gradient" x1="3405.55" y1="1400.52" x2="3448" y2="1400.52" gradientTransform="matrix(-0.07, -1, -1, 0.07, 1819.45, 3723.23)" gradientUnits="userSpaceOnUse"><stop offset="0" stop-color="#d69547"/><stop offset="1" stop-color="#cc6806"/></linearGradient><linearGradient id="linear-gradient-2" x1="-10221.22" y1="13235.96" x2="-10198.31" y2="13164.09" gradientTransform="translate(-6606.42 15634.08) rotate(166.17)" gradientUnits="userSpaceOnUse"><stop offset="0" stop-color="#191717"/><stop offset="0.19" stop-color="#1c1a1a"/><stop offset="1" stop-color="#232121"/></linearGradient><linearGradient id="linear-gradient-3" x1="2965.05" y1="920.64" x2="2967.87" y2="900.96" gradientTransform="translate(3029.42 1255.47) rotate(180)" gradientUnits="userSpaceOnUse"><stop offset="0" stop-color="#ea8632"/><stop offset="1" stop-color="#d6721e"/></linearGradient><linearGradient id="linear-gradient-4" x1="2960.05" y1="987.42" x2="2969.89" y2="958.6" xlink:href="#linear-gradient-3"/><linearGradient id="linear-gradient-5" x1="2874.68" y1="966.67" x2="2907.47" y2="854.22" gradientTransform="translate(3029.42 1255.47) rotate(180)" gradientUnits="userSpaceOnUse"><stop offset="0" stop-color="#f0cd59"/><stop offset="1" stop-color="#f7931a"/></linearGradient><linearGradient id="linear-gradient-6" x1="-7377.32" y1="14840.3" x2="-7353.55" y2="14869.35" gradientTransform="matrix(-0.18, -0.98, -0.98, 0.18, 13358.78, -9516.65)" gradientUnits="userSpaceOnUse"><stop offset="0"/><stop offset="0.37" stop-color="#020202"/><stop offset="0.51" stop-color="#090909"/><stop offset="0.6" stop-color="#141414"/><stop offset="0.68" stop-color="#252525"/><stop offset="0.75" stop-color="#3b3b3b"/><stop offset="0.8" stop-color="#575757"/><stop offset="0.86" stop-color="#777"/><stop offset="0.91" stop-color="#9d9d9d"/><stop offset="0.95" stop-color="#c8c8c8"/><stop offset="0.99" stop-color="#f6f6f6"/><stop offset="1" stop-color="#fff"/></linearGradient><linearGradient id="linear-gradient-7" x1="-15757.31" y1="843.38" x2="-15770.51" y2="900.98" gradientTransform="matrix(1, 0, 0, -1, 15918.31, 1255.47)" gradientUnits="userSpaceOnUse"><stop offset="0" stop-color="#f7931a"/><stop offset="1" stop-color="#f0cd59"/></linearGradient><linearGradient id="linear-gradient-8" x1="-15772.7" y1="894.13" x2="-15761.66" y2="859.5" gradientTransform="matrix(1, 0, 0, -1, 15918.31, 1255.47)" gradientUnits="userSpaceOnUse"><stop offset="0" stop-color="#fff"/><stop offset="0.04" stop-color="#f1f1f1"/><stop offset="0.25" stop-color="#a9a9a9"/><stop offset="0.45" stop-color="#6d6d6d"/><stop offset="0.63" stop-color="#3e3e3e"/><stop offset="0.78" stop-color="#1c1c1c"/><stop offset="0.91" stop-color="#070707"/><stop offset="1"/></linearGradient><linearGradient id="linear-gradient-9" x1="2960.05" y1="986.93" x2="2969.89" y2="958.11" xlink:href="#linear-gradient-3"/><linearGradient id="linear-gradient-10" x1="-15853.73" y1="764.36" x2="-15702.06" y2="1010.17" xlink:href="#linear-gradient-7"/><linearGradient id="linear-gradient-11" x1="-7806.55" y1="-4103.33" x2="-7748.91" y2="-4103.33" gradientTransform="translate(1893.69 -8203.4) rotate(-105.71)" xlink:href="#linear-gradient"/><linearGradient id="linear-gradient-12" x1="-15850.08" y1="911" x2="-15859.4" y2="836.78" gradientTransform="matrix(1, 0, 0, -1, 15918.31, 1255.47)" gradientUnits="userSpaceOnUse"><stop offset="0" stop-color="#191717"/><stop offset="0.5" stop-color="#262223"/><stop offset="1" stop-color="#2d292a"/></linearGradient></defs><title>Page 2 Heder</title><g id="Layer_2" data-name="Layer 2"><g id="Layer_1-2" data-name="Layer 1"><path class="cls-1" d="M159.05,392.14s24.1,4.82,21.36,19.74c0,0-1.71,6.4-5.79,10.43s.41,4.59,3.14,3.71,31.32-12.93,12.68-39.69L173.11,384,164,386.4Z"/><path class="cls-2" d="M202.23,410.82c.77-3.89.61-8-.45-10-6.62-12.27-10.06-24.41-17.59-36.17-3.33-5.21-6.79-10.57-12.71-13.57-10.95-5.56-22.14,7.95-18,18.81,3.55,9.25,4.22,9.2,8.72,18.07,0,0,17.48,18.65,14.08,22.75,0,0-2.93,2.72-2.7,5.54,0,0,10.78,13.12,14.44,10C188.05,426.29,201.46,414.73,202.23,410.82Z"/><path class="cls-3" d="M53.68,358.13A5.83,5.83,0,0,1,56,353c-5.08-.6-9.06-2.67-8.86-7.76s4-7.18,8.89-8A5.93,5.93,0,0,1,53.27,332c.42-10.67,23.08-1.44,23.08-1.44l.14,8.3v1l.15,9.65v1.19l.12,8.12S54.42,368.83,53.68,358.13Z"/><path class="cls-4" d="M49.36,289a7.15,7.15,0,0,1,5.16-4.58c-5.37-3.23-8.75-7.56-5.93-13.11s8.12-5.93,13.94-4.39a7.15,7.15,0,0,1-.37-7.24c5.92-11.7,26.41,10.07,26.41,10.07l-4,9.28L84,280.21,79.28,291l-.59,1.36-4,9.08S44.8,301.25,49.36,289Z"/><path class="cls-5" d="M89.77,470s-38.59,16.26-59.33-.08l6.35-10.84,45.31-.19c.48,0,11.22,2.14,11.22,2.14Z"/><path class="cls-6" d="M93.4,407.33l-.16,11.09S68.49,445.87,45.5,445.87c0,0-39.53,4.14-45.5-53.32,0,0-1.85,115.84,87.79,74.46l3.67,19.31,23-29.88,38.61,4.14,14.22,21.61,2.26-112.47s70.05,9.93,82.78,11.34c0,0,24.81-146.62-67.11-153.06C63.39,214.21,72.59,314,72.59,314l-.89,59.84Z"/><path class="cls-7" d="M178.47,404.4s-23.61-9.07-33.61-24.48C140.51,397.51,178.47,404.4,178.47,404.4Z"/><path class="cls-8" d="M78.7,450.72c-6.42-12.12-2.08-33.6-2.08-33.6-.74,6.13,41.57,27,52.85,25.19,21.21-3.36,46.73-10.22,46.73-10.22l-7.65,8.37a82.21,82.21,0,0,1,0,16.3c-.09,1,4,5,4.58,14.61-8.66-1.12-20.91,5.93-24-.24a23,23,0,0,0-22.26-12.73c-11.74.79-17.77,15.47-20,17-5.19,3.5-17,2.37-19.3.5S84.72,462,78.7,450.72Z"/><path class="cls-9" d="M78.7,450.72c-6.42-12.12-2.08-33.6-2.08-33.6-.74,6.13,41.57,27,52.85,25.19,21.21-3.36,46.73-10.22,46.73-10.22s-8.29,4.84-7.65,8.37c1.08,13-1.74,15.47-41.73,17.94-11.76.72-17.78,15.47-20,17-5.19,3.5-17,2.37-19.3.5S84.72,462,78.7,450.72Z"/><path class="cls-10" d="M67,336.08,56.28,418.42s33.93,49.33,103.31,18.27c0,0,2.8,8.77,8.39,4.57a34.66,34.66,0,0,0,8.67-9.78l.58-13.19a25.34,25.34,0,0,0,2.12,4.27c2.09-2.82-3.81-16-3.81-16S172.17,382.79,170,378,67,336.08,67,336.08Z"/><path class="cls-11" d="M105.36,342.84c.59-21,4.61-27.92,9.48-27.92s9.94,18.08,9.48,40.22Z"/><path class="cls-12" d="M155.35,310.94c0,4.66,7.56,8.44,16.87,8.44s16.86-3.78,16.86-8.44-7.55-8.43-16.86-8.43S155.35,306.29,155.35,310.94Z"/><path class="cls-12" d="M208.23,309.24c-.55,2.29,2.24,4.91,6.23,5.86s7.66-.15,8.2-2.44-2.25-4.93-6.23-5.86S208.77,306.94,208.23,309.24Z"/><path class="cls-12" d="M138.89,317.44c-.4,1.65,1.62,3.55,4.5,4.25s5.54-.12,5.93-1.78-1.63-3.55-4.52-4.24S139.22,315.78,138.89,317.44Z"/><path class="cls-12" d="M172.4,326c-.39,1.64,1.61,3.56,4.45,4.19s5.48-.11,5.93-1.75-1.6-3.55-4.46-4.19S172.79,324.31,172.4,326Z"/><path class="cls-5" d="M152.34,366.37a347.29,347.29,0,0,0,38.36,8.49c11.85,2,22.68,3.29,31.76,4.19,18.13,1.77,29.41,2,29.41,2s-11.2-1.3-29.14-4.15c-9-1.43-19.62-3.26-31.36-5.63s-24.59-5.26-37.82-9.07-25.62-8.2-36.1-13.67a74.42,74.42,0,0,1-14-9.12,35.86,35.86,0,0,1-9.08-11A23.63,23.63,0,0,1,91.85,317v-1.3a8.23,8.23,0,0,1,.17-1.24,17.2,17.2,0,0,1,.38-2.37c.18-.74.34-1.45.5-2.12a17.65,17.65,0,0,1,.62-1.9,38.15,38.15,0,0,1,2.29-5.34l.94-1.83-1.11,1.73a37.93,37.93,0,0,0-2.76,5.19l-.78,1.89c-.22.67-.45,1.39-.69,2.14a21.55,21.55,0,0,0-.58,2.37l-.25,1.29a13.07,13.07,0,0,1-.14,1.36,25.06,25.06,0,0,0,2,12.42,37.18,37.18,0,0,0,9.08,12.3,73.53,73.53,0,0,0,14.21,10.12C126.34,357.76,138.93,362.5,152.34,366.37Z"/><path class="cls-5" d="M147.65,237.74a16.89,16.89,0,0,1,7,2.58,19,19,0,0,1,5.06,5.06A40.29,40.29,0,0,1,165,257.23c1,3.65,1.61,6.72,2,8.83s.65,3.29.65,3.29V266a67.73,67.73,0,0,0-.57-9.22,36.73,36.73,0,0,0-4.26-13.34,21.3,21.3,0,0,0-5.78-6.5,19.34,19.34,0,0,0-8.83-3.48,19,19,0,0,0-4.88-.08,15.35,15.35,0,0,0-4.74,1.41,15.54,15.54,0,0,0-3.79,2.79,18.72,18.72,0,0,0-2.64,3.44,33.21,33.21,0,0,0-3.93,13.51,60.64,60.64,0,0,0-.14,9.24c.14,2.17.3,3.36.3,3.36l.39-3.33a80.93,80.93,0,0,1,1.61-8.9,35.45,35.45,0,0,1,4.87-11.85,15.17,15.17,0,0,1,2.27-2.59,11.89,11.89,0,0,1,2.87-1.89,12,12,0,0,1,3.39-.89A16.45,16.45,0,0,1,147.65,237.74Z"/><path class="cls-5" d="M214.82,242.64l1.62.24,1.5.51.76.25.68.37c.45.26.93.45,1.35.73A18,18,0,0,1,225,249a35.18,35.18,0,0,1,4.55,10c.92,3.1,1.46,5.72,1.85,7.53s.6,2.81.6,2.81,0-1,.07-2.88a55,55,0,0,0-.39-7.91A31.15,31.15,0,0,0,228.15,247a19,19,0,0,0-5-5.7,17.28,17.28,0,0,0-1.74-1.07l-.9-.51c-.32-.14-.65-.25-1-.37l-2-.7-2.09-.35a14.42,14.42,0,0,0-4.25-.12,12.42,12.42,0,0,0-7.43,3.7,16.08,16.08,0,0,0-2.29,3,28.31,28.31,0,0,0-3.29,11.68,47.72,47.72,0,0,0,0,7.93c.14,1.86.29,2.88.29,2.88s.15-1,.38-2.84q.55-3.84,1.48-7.61a31,31,0,0,1,4.25-10,10.82,10.82,0,0,1,4.31-3.71A10.26,10.26,0,0,1,214.82,242.64Z"/><path class="cls-12" d="M147.19,197.54c-15.1,2.14-37.6,20.24-39.1,33.35-.51,0-3.56-16.45,11.13-26.88S147.19,197.54,147.19,197.54Z"/><path class="cls-12" d="M242.3,237.59c5.31-11.33-8.05-30.1-20.71-33.92.16-.5,16-.11,24.47,15.77C251.13,228.94,242.3,237.59,242.3,237.59Z"/><g class="cls-13"><path class="cls-9" d="M44.43,407.18c.48-2.2,1-4.38,1.6-6.54,3.49-13.36,3.95-25.86,8.43-38.94,2-5.8,4-11.78,9-16.05,9.24-7.92,13.78,5.54,21.73,13.87,10.78,11.3-1.33,8.41-2.17,11.61-.32,1.19,3.56,7.11,14.88,17.41-9.48-1.58-18.22-6.38-18.55-5,0,0,1.08,5.06,10.31,11.76,10.59,7.68,4.26,4.63-13.23,1,.44,2.37,5.79,8.35,18.64,12.39,0,0-20.43.51-20,3.28,0,0,2.59-.73,1.88,7.29,0,0-4.34,9.08-7.87,7.11S46.26,418.24,44.43,407.18Z"/><path class="cls-14" d="M51.62,391.43s4.9-24.54,18.3-36.87C52.05,353.21,51.62,391.43,51.62,391.43Z"/></g><polygon class="cls-15" points="139.98 357.28 148.58 360.71 157.26 349.9 168.32 381.04 155.76 383.51 139.98 383.51 128.46 371.14 139.98 357.28"/><polygon class="cls-16" points="151.63 357.28 142.27 367.37 150.88 372.83 148.39 383.02 164.64 409.75 167.64 384.82 156.31 372.05 162.97 363.76 151.63 357.28"/><path class="cls-17" d="M149.08,357.28l12.32,10.93s.48-20.64-3.85-23-4.31-3.55-4.31-3.55Z"/><path class="cls-16" d="M72.11,328.09H69.48v7.44s34.67,21.27,44.64,28c13.25,8.88,22.8,10.44,22.8,10.44s13.91-13.14,12.24-15.06S72.11,328.09,72.11,328.09Z"/><polygon class="cls-18" points="149.34 357.28 139.98 367.37 148.58 372.83 146.09 383.02 162.34 409.75 165.34 384.82 154.02 372.05 160.68 363.76 149.34 357.28"/><polygon class="cls-19" points="149.29 359.45 143.81 367.81 149.98 372.6 147.98 382.25 161.41 409.25 150.97 382.07 151.68 372.38 147.73 367.64 149.29 359.45"/><path class="cls-20" d="M170.4,366.29l15.4,8.18s-20.74,42.13-21.33,40.59a50.65,50.65,0,0,1-2.73-8.12s3.55-36-10.12-69.63c8.29,4.25,26.45,15.29,29.33,29l-10.44-1.08"/><path class="cls-17" d="M72.11,326.2H69.48v7.44s34.67,21.33,44.64,28c13.25,8.88,22.8,10.43,22.8,10.43S150.83,358.9,149.16,357,72.11,326.2,72.11,326.2Z"/><path class="cls-20" d="M72.46,326.2v-3.15s-5.6-1.18-6.82,1.83c-5,12.47,18.18,36.41,24.89,39.29s22.51,5.58,23.94,5.22-6.48,7.92-6.48,7.92,50.19,27.73,56.47,37.75c0,0-4.61-15.48-8.7-22a69.77,69.77,0,0,0-25-24.88C116,359.18,62.36,334,72.46,326.2Z"/><path class="cls-9" d="M164.54,415.29c-6.32-10.06-57.19-37.36-57.19-37.36s7.92-8.29,6.48-7.91-17.27-2.37-23.94-5.21S59.38,337.7,65,325.5c1.48-3.18,3.91-2.61,5.36-2.73-.5.29-2.37.64-3,2-5.05,12.48,18.17,36.42,24.88,39.3s22.51,5.57,23.93,5.22-6.47,7.92-6.47,7.92,45.92,22.1,54.73,37.75C165.29,417.66,164.46,415,164.54,415.29Z"/><path class="cls-9" d="M178.22,365.45,167.73,365l-.12,1.09,15.89,7.25s-14,32.5-18.65,41.72c5.2-9,21-40.59,21-40.59l-15.4-8.18.18-1.08L181,366.29c-2.87-13.69-21.05-24.72-29.33-29,.52,1.29,1,2.58,1.49,3.87C162.48,346.06,175.23,354.59,178.22,365.45Z"/><path class="cls-21" d="M49.38,289.47a7.1,7.1,0,0,1,5.14-4.56c-5.36-3.23-8.73-7.56-5.93-13.12s8.12-5.92,13.93-4.38a7.21,7.21,0,0,1-.36-7.25c5.87-11.7,26.4,10.08,26.4,10.08l-4,9.27L84,280.69l-4.74,10.82-.58,1.34-4,9.1S44.81,301.72,49.38,289.47Z"/><path class="cls-22" d="M252.35,381.56c-1.92-.21-5.12-.62-9.18-1.19-23-3-89.21-10.6-117.9-24.78s-52.75-25.28-52.74-34.08.1-7.11.1-7.11a89.89,89.89,0,0,1,1.43-22.15,1,1,0,0,1,.08-.47c5.45-28.54,27.25-72.77,111.06-63.29C277.18,234.92,252.35,381.56,252.35,381.56Z"/><path class="cls-11" d="M105.37,343.34c.59-21,4.61-27.92,9.48-27.92s9.93,18.08,9.48,40.21Z"/><path class="cls-12" d="M155.36,311.44c0,4.66,7.55,8.44,16.87,8.44s16.86-3.78,16.86-8.44S181.55,303,172.23,303,155.36,306.78,155.36,311.44Z"/><path class="cls-12" d="M208.23,309.73c-.53,2.3,2.25,4.92,6.24,5.93s7.66-.16,8.2-2.45-2.25-4.92-6.23-5.87S208.77,307.43,208.23,309.73Z"/><path class="cls-12" d="M138.89,317.93c-.39,1.66,1.62,3.56,4.52,4.24s5.53-.1,5.92-1.76-1.62-3.56-4.51-4.24S139.29,316.27,138.89,317.93Z"/><path class="cls-12" d="M172.4,326.44c-.39,1.65,1.6,3.55,4.45,4.19s5.48-.1,5.93-1.74-1.61-3.55-4.46-4.19S172.8,324.8,172.4,326.44Z"/><path class="cls-5" d="M152.35,366.89a347,347,0,0,0,38.37,8.5c11.85,2,22.67,3.28,31.74,4.17,18.14,1.79,29.41,2,29.41,2s-11.19-1.29-29.13-4.15c-9-1.43-19.62-3.26-31.36-5.63s-24.59-5.26-37.82-9.07-25.62-8.2-36.11-13.68a73.81,73.81,0,0,1-13.94-9.11,35.76,35.76,0,0,1-9.07-11,23.6,23.6,0,0,1-2.58-11.43V316.2c.06-.42.11-.84.16-1.18a17.22,17.22,0,0,1,.39-2.37c.17-.74.34-1.45.5-2.12l.61-1.9a40.85,40.85,0,0,1,2.3-5.35l.93-1.82-1.09,1.73a36.86,36.86,0,0,0-2.76,5.19l-.8,1.89-.67,2.14a16.38,16.38,0,0,0-.58,2.37c-.09.43-.17.85-.26,1.29a11.86,11.86,0,0,0-.14,1.35,25,25,0,0,0,2,12.42,37.23,37.23,0,0,0,9.07,12.31,74,74,0,0,0,14.21,10.12C126.36,358.25,138.94,363,152.35,366.89Z"/><path class="cls-12" d="M242.3,238.09c5.31-11.33-8.05-30.11-20.69-33.93.15-.49,16-.1,24.45,15.77C251.14,229.45,242.3,238.09,242.3,238.09Z"/><path class="cls-5" d="M186.45,251.71c-.25,16.67,18,29.33,34.89,22.3,9.84-4.22,14.06-12.65,15.47-22.51,0-8.44-4.22-15.4-11.25-21.09-12.65-7-30.92-2.81-37.13,11.7A24.41,24.41,0,0,0,186.45,251.71Z"/><path class="cls-11" d="M187.16,248.89c-.25,16.21,17.51,28.51,33.91,21.68,9.56-4.11,13.66-12.31,15-21.87,0-8.2-4.1-15-10.94-20.48-12.3-6.84-30.06-2.74-36.1,11.37A23.6,23.6,0,0,0,187.16,248.89Z"/><path class="cls-23" d="M203.07,253.63a9.85,9.85,0,1,0,9.85-9.85h0A9.86,9.86,0,0,0,203.07,253.63Z"/><path class="cls-24" d="M206.58,252.22a6.33,6.33,0,1,0,6.33-6.33,6.32,6.32,0,0,0-6.33,6.33Z"/><path class="cls-12" d="M216.59,282.22a39.64,39.64,0,0,0,27.34-7.2,32.83,32.83,0,0,1-52.57-5.61A39.51,39.51,0,0,0,216.59,282.22Z"/><path class="cls-5" d="M176.37,251.38c.26-17.61-19-31-36.85-23.54-10.38,4.45-14.84,13.35-16.32,23.69,0,8.91,3.49,16.94,11.85,22.27,13.38,7.46,32.61,3,39.23-12.36A25.6,25.6,0,0,0,176.37,251.38Z"/><path class="cls-11" d="M175,248.57c.25-16.67-18-29.32-34.9-22.3-9.83,4.22-14,12.66-15.46,22.51,0,8.43,3.06,16,11.25,21.08,12.65,7,30.92,2.81,37.14-11.7A24.31,24.31,0,0,0,175,248.57Z"/><circle class="cls-23" cx="148.95" cy="253.63" r="9.83"/><path class="cls-25" d="M205.87,214.67Q148,212.74,96.63,248.14a2.76,2.76,0,0,0-2-.72c-.34-.09-.65-.15-1-.21a4.36,4.36,0,0,0-1.14,0,3.27,3.27,0,0,0-1.46,0l-.31-.06a5,5,0,0,0-1.16,0,3.83,3.83,0,0,0-1.06-.32l-.07,0a8.15,8.15,0,0,0-.75-.44,12.6,12.6,0,0,0-1.26-.91,3.21,3.21,0,0,0-1.54-.49l-.39,0c-.53-.2-1-.34-1.59-.5l-1.51-.45-.58-.32c-.4-.22-.84-.28-1.22-.53a3.09,3.09,0,0,0-.6-.31,2.75,2.75,0,0,0-1.07-.45l-1.22-.47-.58-.3c-.2-.1-.43-.19-.64-.27a8.23,8.23,0,0,0-1.73-1.17l-1.54-.64a3.59,3.59,0,0,0-.84-.22,2.72,2.72,0,0,0-1.1-.55,3.66,3.66,0,0,0-.66-.32,3.57,3.57,0,0,0-1-.58,7.45,7.45,0,0,0-.69-.57l.06,0a3.8,3.8,0,0,0-.86-1,3,3,0,0,0-.56-.56l-.6-1.26a4.59,4.59,0,0,0-.45-1.49,2.66,2.66,0,0,0-.58-.94,2.57,2.57,0,0,0-.4-.61l-.32-1.67,0-.28a8.24,8.24,0,0,0,0-.86l0-.89a6.31,6.31,0,0,0-.05-1l.54-1.38.06-.17c.32-1,.65-2,1-3.06l.92-3.13a.29.29,0,0,0,0-.09l.66-2.58.55-2c.15-.54.27-1.11.4-1.66l.3-1.08a12,12,0,0,0,.42-1.14l.42-1.5a2.79,2.79,0,0,0-.1-1.74l.22-.67.43-1.05a19.31,19.31,0,0,0,.69-2.2,2.73,2.73,0,0,0,.09-.89,3,3,0,0,0,.94-1.55,2.68,2.68,0,0,0,.11-.49c14.75-20.76,43-42,73.44-48.71,60.93-14.58,86.16,28.1,60.57,63"/><path class="cls-26" d="M94.44,247.09Q139.86,196,201.73,195.72c-7.91-14.3-28.5-18.4-61.49-10.42C98.82,196,89.71,188,113.54,164q-30.78,18.28-44.07,40.23v.24l0,1.7a2.86,2.86,0,0,1-.1.77l-.54,1.94-.42,1.77a1.8,1.8,0,0,1,0,.19l-.53,1.69L67.58,214c0,.11,0,.22-.08.33l-.4,1.23L67,216.87a7.39,7.39,0,0,1-.5,1.64l0-.13a3.87,3.87,0,0,1-.52,2.44L65.6,222l-.27,1a4.68,4.68,0,0,1-.32.76,3,3,0,0,1-.14.61c0,.32-.07.66-.11,1s0,.67,0,1a7.64,7.64,0,0,1-.07,1.35l-.24,1.11-.09.5a7.5,7.5,0,0,1,0,1.06l-.1.76.09,1.68.39,1.95a7.53,7.53,0,0,1,.07,1.16A4.2,4.2,0,0,1,65,237.3l-.07.53.16.75a18,18,0,0,0,3.29,3l.15.1a2.56,2.56,0,0,1,.67.14h.16c.7.06,1.4.14,2.1.18a2.73,2.73,0,0,1,2.59,2.2c0,.2.09.41.12.61.75.37,1.5.73,2.25,1a3.16,3.16,0,0,1,1,.43,5.83,5.83,0,0,1,.58.23l.54.15-.14,0h0a3.57,3.57,0,0,1,1.22,0c.37,0,.68,0,1,.09H81a2.72,2.72,0,0,1,1.3.06l.58,0a2.88,2.88,0,0,1,1.62.07c.25,0,.53.06.78.09a4.34,4.34,0,0,1,1.14-.14,6.73,6.73,0,0,1,1,.07l.7.14,1.08.1a7.55,7.55,0,0,1,1.63-.24,5.35,5.35,0,0,1,1.26.14,4.06,4.06,0,0,1,1.1,0,2.75,2.75,0,0,1,1.21,0"/><path class="cls-27" d="M96.84,219.23q3.94,27-4.26,30a34.71,34.71,0,0,1-17.64-4,30.78,30.78,0,0,1-9.1-5.78c-8-8.59-5.8-21.9,6.6-39.87Q67,238.23,96.84,219.23"/><path class="cls-26" d="M202.63,212.69Q154.5,207,94,245.18c-6.69-8.05-8.13-14.77-2.69-20.19q36.83-40.45,89.48-38.08,28.64,1.5,21.86,25.78"/><path class="cls-27" d="M162.53,211.68,94,245.18a38,38,0,0,1-3.86-5.53q-4.71-8.37.81-14.29.38-.36,2.52-2.7a118.61,118.61,0,0,1,33.11-24.88q-14.44,16.78,36,13.9"/><path class="cls-28" d="M108,243.59a440.38,440.38,0,0,1,95-24.1,3.4,3.4,0,0,0,1.33-6.38q-53.57-13.23-111.09,32.6A3.18,3.18,0,0,0,96.47,251,94.79,94.79,0,0,1,108,243.59"/><path class="cls-28" d="M104,233.58a5.55,5.55,0,1,0,6.52,4.38,5.55,5.55,0,0,0-6.52-4.38"/><path class="cls-27" d="M115.14,237.66q-15.19,9.17,1.78,5c5.28-1.27,10.43-.43,19.39,0,18,.74,39.53-3,64.53-9.78,17.47-5.07,22.51-7.92,8.75-11.83q-46-12.66-94.45,16.59"/><path class="cls-26" d="M197.31,220.69c-7-.56-12.86.57-13.1,2.52s5.25,4,12.25,4.54,12.86-.57,13.09-2.52-5.24-4-12.24-4.54"/><path class="cls-29" d="M207.44,170.8c-3.22-5-7.23-7.42-8.95-5.49s-.51,7.52,2.71,12.48,7.23,7.43,9,5.5.51-7.53-2.71-12.49"/><path class="cls-28" d="M174.44,156.69c-4.93-.07-8.95,4.86-9,11s3.95,11.18,8.88,11.24,9-4.86,9-11-3.95-11.18-8.88-11.24"/><path class="cls-28" d="M168.91,162.86q.61,10.15.62,10.15l-10.91,1.1s-1.43-3.14-4.27-9.42l14.56-1.83"/><path class="cls-28" d="M182.45,163.07q-2.2,9.33-2.21,9.33l7,.47,4.85-8.81-9.67-1"/><path class="cls-12" d="M147.2,198c-15.1,2.14-37.6,20.22-39.1,33.35-.52,0-3.56-16.46,11.12-26.88S147.2,198,147.2,198Z"/><path class="cls-24" d="M142.64,252.22a6.33,6.33,0,1,0,6.32-6.33h0a6.31,6.31,0,0,0-6.31,6.32Z"/><path class="cls-30" d="M139.77,245a4.63,4.63,0,1,0,4.64-4.62h0a4.62,4.62,0,0,0-4.62,4.62Z"/><path class="cls-30" d="M203.37,245a4.64,4.64,0,1,0,4.65-4.62h0a4.62,4.62,0,0,0-4.63,4.61Z"/><path class="cls-12" d="M144.27,283.49a45,45,0,0,0,30.11-11.39,37.4,37.4,0,0,1-60.17-.08A45.11,45.11,0,0,0,144.27,283.49Z"/><path class="cls-12" d="M148.11,278.86a36.93,36.93,0,0,0,24.29-10.17,30.67,30.67,0,0,1-49.27,1.58A36.88,36.88,0,0,0,148.11,278.86Z"/><path class="cls-12" d="M218.88,277.61a32.82,32.82,0,0,0,20.53-11.36A27.25,27.25,0,0,1,196,272.43,32.81,32.81,0,0,0,218.88,277.61Z"/><path class="cls-9" d="M164,423.83a3.35,3.35,0,1,1-3.32-3.82,3.54,3.54,0,0,1,3.32,3.77Z"/><path class="cls-20" d="M164.1,423.83a3.14,3.14,0,1,1-3.1-3.55A3.34,3.34,0,0,1,164.1,423.83Z"/><path class="cls-9" d="M164.61,429.27a20.19,20.19,0,0,1-4.85,7.11,27.66,27.66,0,0,1-2.37,2.09,1.82,1.82,0,0,1,.66.79,17.62,17.62,0,0,0,1.43-1.33C162.72,434.74,164.77,431.15,164.61,429.27Z"/><path class="cls-31" d="M103.11,383.29a3.77,3.77,0,1,1,3.31,3.81A3.58,3.58,0,0,1,103.11,383.29Z"/><path class="cls-32" d="M106.35,407.5s4.7,3.82,5.55,5.66c0,0-7.91,20.17-13.39,26l-8.31-.82S106.11,409.41,106.35,407.5Z"/><path class="cls-33" d="M94.29,398.65l8.95-11.19,1.2.8-7.79,12.2S92.08,400.75,94.29,398.65Z"/><path class="cls-34" d="M78.77,391.53s17.3,6.69,27.58,16c0,0-5.74,20-16.15,30.8,0,0-25.94-10.15-27.91-16.88S75.31,393.26,78.77,391.53Z"/><circle class="cls-35" cx="92.83" cy="420.7" r="6"/><path class="cls-31" d="M90.63,407.15a3.23,3.23,0,1,1,2.83,3.27A3.07,3.07,0,0,1,90.63,407.15Z"/><circle class="cls-31" cx="86.43" cy="403.61" r="2.46"/><circle class="cls-35" cx="76.85" cy="412.02" r="6"/><path class="cls-36" d="M79.86,407a19.17,19.17,0,0,0-6,10.05"/><path class="cls-36" d="M71.3,409.81s6,2.26,9.83,6"/><path class="cls-37" d="M80.89,416.65c-5.92-2.77-10.28-9-10.28-9-5.27-9-1.81-15.56,3.11-20.37-7.34-2.92-11.06-11-10.4-18.58-6.79,4.74-12,11.57-13.43,15.31-13.74,34.8,25.77,37.92,29.05,37.85S86.84,419.45,80.89,416.65Z"/><path class="cls-38" d="M42.67,407.38c.47-2.22,1-4.42,1.6-6.61,3.55-13.49,4-26.07,8.51-39.31,2-5.85,4.1-11.84,9.13-16.19,9.33-8,23.4,2.47,21.93,14-1.25,9.88-1.94,9.93-4.19,19.64,0,0-12.56,22.25-8.3,25.49,0,0,5.69,3.56,6.14,6.35,0,0-.78,15.66-7.76,14.7C69.76,425.45,44.43,418.56,42.67,407.38Z"/><rect class="cls-39" x="576.54" y="316.74" width="27.47" height="165.91"/><path class="cls-31" d="M678.87,267.89v74.65H489.59V267.89a45.4,45.4,0,0,1,45.4-45.4h98.48a45.27,45.27,0,0,1,27.31,9.12,45.87,45.87,0,0,1,6.74,6.25,45.82,45.82,0,0,1,7.63,12A45.15,45.15,0,0,1,678.87,267.89Z"/><path class="cls-40" d="M675.15,249.86H526v-6.24H671.84A43.77,43.77,0,0,1,675.15,249.86Z"/><rect class="cls-41" x="525.97" y="282.52" width="152.9" height="19.69"/><path class="cls-42" d="M667.52,237.86H518.58v-6.25h142.2A45.87,45.87,0,0,1,667.52,237.86Z"/><path class="cls-31" d="M580.39,267.89V319h-90.8V267.89a45.4,45.4,0,1,1,90.8,0Z"/><path class="cls-43" d="M496.16,335.34V268.52a38.83,38.83,0,0,1,77.66,0v66.82Z"/><rect class="cls-44" x="420.48" y="339.66" width="258.39" height="6.24"/><polygon class="cls-41" points="678.87 319.01 678.87 345.9 420.48 345.9 420.48 339.66 489.59 339.66 489.59 342.54 580.38 342.54 580.38 319.01 678.87 319.01"/><polygon class="cls-39" points="645.57 193.43 618.6 193.43 606.69 193.43 602.52 193.43 602.52 276.04 618.6 276.04 618.6 217.03 645.57 217.03 645.57 193.43"/><polygon class="cls-45" points="647.18 193.43 620.21 193.43 608.29 193.43 606.43 193.43 606.43 276.04 620.21 276.04 620.21 217.03 647.18 217.03 647.18 193.43"/><ellipse class="cls-46" cx="612.61" cy="280.51" rx="13.4" ry="16.03"/><ellipse class="cls-47" cx="612.61" cy="280.51" rx="8.16" ry="9.76"/><rect class="cls-39" x="548.43" y="470.34" width="83.54" height="15.98"/><line class="cls-48" x1="289.37" y1="73.94" x2="295.33" y2="73.25"/><line class="cls-49" x1="304.97" y1="72.14" x2="390.17" y2="62.3"/><line class="cls-48" x1="394.99" y1="61.74" x2="400.95" y2="61.05"/><line class="cls-48" x1="315.55" y1="92.19" x2="321.51" y2="91.51"/><line class="cls-50" x1="330.44" y1="90.48" x2="430.08" y2="79.01"/><line class="cls-48" x1="434.55" y1="78.49" x2="440.51" y2="77.81"/><line class="cls-48" x1="374.44" y1="112.66" x2="380.38" y2="111.85"/><line class="cls-51" x1="389.26" y1="110.63" x2="488.38" y2="97.07"/><line class="cls-48" x1="492.82" y1="96.47" x2="498.77" y2="95.65"/><polygon class="cls-52" points="380.93 150.46 349.07 198.83 341.59 194.91 380.93 150.46"/><polygon class="cls-52" points="381.15 149.87 359.69 194.42 352.21 190.51 381.15 149.87"/><path class="cls-52" d="M381.26,149.85c1.51.58-11.68,33.51-11.68,33.51l-2.08-1S379.75,149.28,381.26,149.85Z"/><polygon class="cls-39" points="381.19 149.95 381.19 149.95 381.19 149.94 381.19 149.95"/><path class="cls-39" d="M271.69,143.64c1.14,1.29,2.26,2.6,3.41,3.89,1.95,2.17,4,4.25,6.09,6.28s4.53,4.23,6.8,6.35c.32.31,2.58,2.24,3.27,2.84s1.54,1.33,2.31,2l.89.79c.57.47,1.14.92,1.71,1.38.93.88,2.06,1.65,3.17,2.57,2.58,2.14,5.22,4.19,7.85,6.25,1.67,1.3,3.36,2.58,5.05,3.85,4.25,3.19,8.53,6.35,12.92,9.36.35.24,3.52,2.59,3.89,2.81s2.59,1.71,3.24,2.17c2.93,2.13,6,4.06,9,6.1.52.36,1.09.66,1.62,1,.36.23.55.1.71-.25a47.81,47.81,0,0,1,3.12-5.37c2.49-3.85,5.21-7.53,7.91-11.23,3.35-4.6,6.81-9.11,10.32-13.59,1.87-2.39,3.68-4.83,5.55-7.23,2.19-2.82,4.4-5.62,6.61-8.43l1.35-1.73a34.14,34.14,0,0,1-2,3.46c-4.95,7-9.87,14.05-14.89,21-3.17,4.38-6.19,8.86-9.39,13.21-1.51,2.05-3,4.15-4.44,6.22-.46.64-.43.71.22,1.15,1,.68,2,1.36,2.93,2.05.42.3.68.28,1-.22q4.15-7.12,8.34-14.24c2.45-4.18,4.88-8.37,7.33-12.55,2-3.43,4.06-6.84,6.08-10.28,1.69-2.86,3.35-5.74,5-8.61a32.17,32.17,0,0,0,1.38-3.19l.24-.32.38-.49c-.53,1.26-1.06,3.17-1.58,4.17l-5.32,10.07-4.58,8.8-7.08,13.46c-1.08,2.06-2.15,4.12-3.25,6.16-.26.5-.18.77.34,1a13.75,13.75,0,0,0,2.24.68.66.66,0,0,0,.79-.31c.33-.57.67-1.13,1-1.72,2.38-4.71,4.44-9.57,6.52-14.42q3.57-8.29,7-16.64c1.38-3.35,4.37-11.63,4.53-12h0l.08-.09a.36.36,0,0,1-.07.1,25.41,25.41,0,0,1-.74,3.38l-6.93,18.73q-1.95,5.28-3.89,10.58c-.27.72-.22.78.53.7a16.66,16.66,0,0,1,1.72-.16,1,1,0,0,0,1.08-.72c.82-1.91,1.59-3.83,2.27-5.8,1.68-4.9,3-9.91,4.16-14.95.86-3.59,1.55-8.46,2.28-12.09a1,1,0,0,0,0-.18c.27-.25.2-.38-.11-.56a67.72,67.72,0,0,1-7.91-5.45c-1.88-1.45-3.76-2.92-5.62-4.4q-3.14-2.49-6.24-5-3.44-2.81-6.84-5.65c-4.62-3.88-9.26-7.74-13.85-11.66-4.28-3.65-8.57-7.28-12.8-11-3.72-3.27-7.49-6.46-11.24-9.7a1.11,1.11,0,0,0-1.48-.16,76.46,76.46,0,0,0-11.52,8.32c-2.77,2.35-5.41,4.84-8,7.42-2.95,3-5.78,6.06-8.52,9.23-2.53,2.92-5,5.88-7.38,8.92s-4.86,6.31-7.06,9.63c-.56.86-1,1.78-1.58,2.64A1.2,1.2,0,0,0,271.69,143.64ZM358,165.25c-.33.4-.58.29-.92,0-2.8-2.24-13.39-10.6-15.88-12.54-.38-.29-.5-.56-.17-1s.6-.27.93,0c1.93,1.55,14.92,11.83,15.88,12.57C358.16,164.6,358.32,164.84,358,165.25Zm3.5-4.27c-.16.19-.32.55-.61.41-.56-.27-15-11.78-16.32-12.84-.32-.25-.5-.52-.17-.92s.63-.25.95,0c2,1.66,15.7,12.42,16.08,12.74A.4.4,0,0,1,361.48,161Zm3.41-3.75c-.22.25-.42.45-.77.15S349.35,145.73,348,144.65c-.3-.24-.48-.48-.13-.86s.58-.33.94,0c1.46,1.18,15.55,12.31,16,12.69A.49.49,0,0,1,364.89,157.23ZM355,134.94c.32-.42.56-.41.95-.1,1.87,1.5,15,11.9,16,12.69.37.29.32.56,0,.88s-.63.15-.91-.07l-15.87-12.57C354.89,135.54,354.64,135.36,355,134.94Zm-3.55,4.9c.23-.31.45-.3.72-.08l16.06,12.73a.56.56,0,0,1,.12.93c-.32.39-.58.24-.88,0A5.71,5.71,0,0,0,367,153h0c-.82-.64-14.33-11.37-15.56-12.36C351,140.35,351.22,140.12,351.42,139.84Zm-46.1-31.45a40.28,40.28,0,0,1,11.88-9,.83.83,0,0,1,1.14.16,12,12,0,0,0,.92.82c3.15,2.62,28.67,24,32.12,26.83.43.36.43.64.08,1.07-1.39,1.68-2.73,3.39-4.09,5.08-1.54,1.92-3.1,3.83-4.64,5.75a.46.46,0,0,1-.77.07c-.69-.59-1.39-1.16-2.1-1.72-3.23-2.53-31.46-24.89-34.37-27.2C304.45,109.38,304.43,109.39,305.32,108.39Zm15.27,25.43a.54.54,0,0,1-.11-.88c.28-.36.54-.29.83-.05s.34.24.5.36v0c1.31,1,14.9,11.8,15.59,12.33.4.31.27.56,0,.87s-.46.32-.77.09S322.25,135.13,320.59,133.82Zm13.77,16.86c-.44.43-.7.09-1-.15-2.53-2-15.94-12.6-16-12.67-.31-.35,0-.61.12-.9s.43-.07.62-.09c0,0,14.34,11.44,16.24,12.94C334.75,150.13,334.69,150.35,334.36,150.68ZM324,129.74c-.33-.27-.42-.5-.12-.87s.53-.44,1,0c1.41,1.12,15.23,12,15.94,12.59.33.26.31.53.06.84a.48.48,0,0,1-.82.07C339.6,142,325.78,131.11,324,129.74Zm-21.67-18.32c.26-.3.49-.39.83-.11.8.64,15.53,12.23,16.19,12.77.34.29.22.57,0,.84s-.55.44-.84.12-14.39-11.5-16-12.8C302.13,112,302.06,111.75,302.34,111.42ZM299,115.55c.25-.34.49-.4.82-.12s15.61,12.32,15.61,12.32c.2.36.8.44.8.89s-.34,1-1.2.35-14.34-11.37-15.92-12.61A.52.52,0,0,1,299,115.55Zm-3.1,4.26a.56.56,0,0,1,.93-.14l16,12.64a.61.61,0,0,1-.14,1.09c-.39.16-.58-.21-.83-.32-1.9-1.53-12.34-9.82-15.69-12.46C295.82,120.4,295.56,120.2,295.85,119.81Zm-3.76,7.43c.78-1,.88-1,1.85-.21,1.53,1.29,51,41.33,54.12,43.83.66.53.71.61.15,1.25-1.07,1.21-.72,1.24-2,.21-2.42-1.94-51.85-42-53.9-43.65C291.51,128,291.5,128.05,292.09,127.24Zm-4.58,5.36c.78-1,.87-1,1.84-.21,1.54,1.29,51,41.33,54.12,43.83.67.53.72.61.15,1.25-1.06,1.21-.71,1.24-2,.21-2.42-1.94-51.84-42-53.89-43.65C286.93,133.39,286.91,133.42,287.51,132.6Zm-4.12,5.9c.78-1.06.87-1,1.84-.22,1.53,1.3,51,41.34,54.12,43.83.67.53.72.62.15,1.25-1.06,1.21-.72,1.24-2,.21-2.42-1.94-51.84-42-53.89-43.64C282.81,139.28,282.79,139.31,283.39,138.5Z"/><path class="cls-39" d="M283.39,138.5c.78-1.06.87-1,1.84-.22,1.53,1.3,51,41.34,54.12,43.83.67.53.72.62.15,1.25-1.06,1.21-.72,1.24-2,.21-2.42-1.94-51.84-42-53.89-43.64C282.81,139.28,282.79,139.31,283.39,138.5Z"/><path class="cls-39" d="M287.51,132.6c.78-1,.87-1,1.84-.21,1.54,1.29,51,41.33,54.12,43.83.67.53.72.61.15,1.25-1.06,1.21-.71,1.24-2,.21-2.42-1.94-51.84-42-53.89-43.65C286.93,133.39,286.91,133.42,287.51,132.6Z"/><path class="cls-39" d="M292.09,127.24c.78-1,.88-1,1.85-.21,1.53,1.29,51,41.33,54.12,43.83.66.53.71.61.15,1.25-1.07,1.21-.72,1.24-2,.21-2.42-1.94-51.85-42-53.9-43.65C291.51,128,291.5,128.05,292.09,127.24Z"/><path class="cls-39" d="M302.34,111.42c.26-.3.49-.39.83-.11.8.64,15.53,12.23,16.19,12.77.34.29.22.57,0,.84s-.55.44-.84.12-14.39-11.5-16-12.8C302.13,112,302.06,111.75,302.34,111.42Z"/><path class="cls-39" d="M299,115.55c.25-.34.49-.4.82-.12s15.61,12.32,15.61,12.32c.2.36.8.44.8.89s-.34,1-1.2.35-14.34-11.37-15.92-12.61A.52.52,0,0,1,299,115.55Z"/><path class="cls-39" d="M295.85,119.81a.56.56,0,0,1,.93-.14l16,12.64a.61.61,0,0,1-.14,1.09c-.39.16-.58-.21-.83-.32-1.9-1.53-12.34-9.82-15.69-12.46C295.82,120.4,295.56,120.2,295.85,119.81Z"/><path class="cls-39" d="M317.48,137c.15-.33.43-.07.62-.09,0,0,14.34,11.44,16.24,12.94.41.32.35.54,0,.87s-.7.09-1-.15c-2.53-2-15.94-12.6-16-12.67C317.05,137.51,317.36,137.25,317.48,137Z"/><path class="cls-39" d="M320.48,132.94c.28-.36.54-.29.83-.05s.34.24.5.36v0c1.31,1,14.9,11.8,15.59,12.33.4.31.27.56,0,.87s-.46.32-.77.09-14.4-11.43-16.06-12.74A.54.54,0,0,1,320.48,132.94Z"/><path class="cls-39" d="M323.89,128.87c.28-.33.53-.44,1,0,1.41,1.12,15.23,12,15.94,12.59.33.26.31.53.06.84a.48.48,0,0,1-.82.07c-.47-.4-14.29-11.28-16.06-12.65C323.68,129.47,323.59,129.24,323.89,128.87Z"/><path class="cls-39" d="M341,151.77c.33-.42.6-.27.93,0,1.93,1.55,14.92,11.83,15.88,12.57.34.26.5.5.16.91s-.58.29-.92,0c-2.8-2.24-13.39-10.6-15.88-12.54C340.8,152.44,340.68,152.17,341,151.77Z"/><path class="cls-39" d="M344.38,147.63c.34-.4.63-.25.95,0,2,1.66,15.7,12.42,16.08,12.74a.4.4,0,0,1,.07.6c-.16.19-.32.55-.61.41-.56-.27-15-11.78-16.32-12.84C344.23,148.3,344.05,148,344.38,147.63Z"/><path class="cls-39" d="M347.85,143.79c.33-.36.58-.33.94,0,1.46,1.18,15.55,12.31,16,12.69a.49.49,0,0,1,.06.79c-.22.25-.42.45-.77.15S349.35,145.73,348,144.65C347.68,144.41,347.5,144.17,347.85,143.79Z"/><path class="cls-39" d="M351.42,139.84c.23-.31.45-.3.72-.08l16.06,12.73a.56.56,0,0,1,.12.93c-.32.39-.58.24-.88,0A5.71,5.71,0,0,0,367,153h0c-.82-.64-14.33-11.37-15.56-12.36C351,140.35,351.22,140.12,351.42,139.84Z"/><path class="cls-39" d="M355,134.94c.32-.42.56-.41.95-.1,1.87,1.5,15,11.9,16,12.69.37.29.32.56,0,.88s-.63.15-.91-.07l-15.87-12.57C354.89,135.54,354.64,135.36,355,134.94Z"/><path class="cls-39" d="M305.32,108.39a40.28,40.28,0,0,1,11.88-9,.83.83,0,0,1,1.14.16,12,12,0,0,0,.92.82c3.15,2.62,28.67,24,32.12,26.83.43.36.43.64.08,1.07-1.39,1.68-2.73,3.39-4.09,5.08-1.54,1.92-3.1,3.83-4.64,5.75a.46.46,0,0,1-.77.07c-.69-.59-1.39-1.16-2.1-1.72-3.23-2.53-31.46-24.89-34.37-27.2C304.45,109.38,304.43,109.39,305.32,108.39Z"/><path class="cls-53" d="M283.39,138.5c.78-1.06.87-1,1.84-.22,1.53,1.3,51,41.34,54.12,43.83.67.53.72.62.15,1.25-1.06,1.21-.72,1.24-2,.21-2.42-1.94-51.84-42-53.89-43.64C282.81,139.28,282.79,139.31,283.39,138.5Z"/><path class="cls-53" d="M287.51,132.6c.78-1,.87-1,1.84-.21,1.54,1.29,51,41.33,54.12,43.83.67.53.72.61.15,1.25-1.06,1.21-.71,1.24-2,.21-2.42-1.94-51.84-42-53.89-43.65C286.93,133.39,286.91,133.42,287.51,132.6Z"/><path class="cls-53" d="M292.09,127.24c.78-1,.88-1,1.85-.21,1.53,1.29,51,41.33,54.12,43.83.66.53.71.61.15,1.25-1.07,1.21-.72,1.24-2,.21-2.42-1.94-51.85-42-53.9-43.65C291.51,128,291.5,128.05,292.09,127.24Z"/><path class="cls-53" d="M302.34,111.42c.26-.3.49-.39.83-.11.8.64,15.53,12.23,16.19,12.77.34.29.22.57,0,.84s-.55.44-.84.12-14.39-11.5-16-12.8C302.13,112,302.06,111.75,302.34,111.42Z"/><path class="cls-53" d="M299,115.55c.25-.34.49-.4.82-.12s15.61,12.32,15.61,12.32c.2.36.8.44.8.89s-.34,1-1.2.35-14.34-11.37-15.92-12.61A.52.52,0,0,1,299,115.55Z"/><path class="cls-53" d="M295.85,119.81a.56.56,0,0,1,.93-.14l16,12.64a.61.61,0,0,1-.14,1.09c-.39.16-.58-.21-.83-.32-1.9-1.53-12.34-9.82-15.69-12.46C295.82,120.4,295.56,120.2,295.85,119.81Z"/><path class="cls-53" d="M317.48,137c.15-.33.43-.07.62-.09,0,0,14.34,11.44,16.24,12.94.41.32.35.54,0,.87s-.7.09-1-.15c-2.53-2-15.94-12.6-16-12.67C317.05,137.51,317.36,137.25,317.48,137Z"/><path class="cls-53" d="M320.48,132.94c.28-.36.54-.29.83-.05s.34.24.5.36v0c1.31,1,14.9,11.8,15.59,12.33.4.31.27.56,0,.87s-.46.32-.77.09-14.4-11.43-16.06-12.74A.54.54,0,0,1,320.48,132.94Z"/><path class="cls-53" d="M323.89,128.87c.28-.33.53-.44,1,0,1.41,1.12,15.23,12,15.94,12.59.33.26.31.53.06.84a.48.48,0,0,1-.82.07c-.47-.4-14.29-11.28-16.06-12.65C323.68,129.47,323.59,129.24,323.89,128.87Z"/><path class="cls-53" d="M341,151.77c.33-.42.6-.27.93,0,1.93,1.55,14.92,11.83,15.88,12.57.34.26.5.5.16.91s-.58.29-.92,0c-2.8-2.24-13.39-10.6-15.88-12.54C340.8,152.44,340.68,152.17,341,151.77Z"/><path class="cls-53" d="M344.38,147.63c.34-.4.63-.25.95,0,2,1.66,15.7,12.42,16.08,12.74a.4.4,0,0,1,.07.6c-.16.19-.32.55-.61.41-.56-.27-15-11.78-16.32-12.84C344.23,148.3,344.05,148,344.38,147.63Z"/><path class="cls-53" d="M347.85,143.79c.33-.36.58-.33.94,0,1.46,1.18,15.55,12.31,16,12.69a.49.49,0,0,1,.06.79c-.22.25-.42.45-.77.15S349.35,145.73,348,144.65C347.68,144.41,347.5,144.17,347.85,143.79Z"/><path class="cls-53" d="M351.42,139.84c.23-.31.45-.3.72-.08l16.06,12.73a.56.56,0,0,1,.12.93c-.32.39-.58.24-.88,0A5.71,5.71,0,0,0,367,153h0c-.82-.64-14.33-11.37-15.56-12.36C351,140.35,351.22,140.12,351.42,139.84Z"/><path class="cls-53" d="M355,134.94c.32-.42.56-.41.95-.1,1.87,1.5,15,11.9,16,12.69.37.29.32.56,0,.88s-.63.15-.91-.07l-15.87-12.57C354.89,135.54,354.64,135.36,355,134.94Z"/><path class="cls-53" d="M305.32,108.39a40.28,40.28,0,0,1,11.88-9,.83.83,0,0,1,1.14.16,12,12,0,0,0,.92.82c3.15,2.62,28.67,24,32.12,26.83.43.36.43.64.08,1.07-1.39,1.68-2.73,3.39-4.09,5.08-1.54,1.92-3.1,3.83-4.64,5.75a.46.46,0,0,1-.77.07c-.69-.59-1.39-1.16-2.1-1.72-3.23-2.53-31.46-24.89-34.37-27.2C304.45,109.38,304.43,109.39,305.32,108.39Z"/><rect class="cls-39" x="339.16" y="102.94" width="35.24" height="3.86" transform="translate(68.1 339.3) rotate(-55.46)"/><circle class="cls-31" cx="345.17" cy="121.94" r="5.79"/><path class="cls-39" d="M386.78,93.7l14.68,57.58s4.51,4.14,6-2.26L397.32,91.45Z"/><path class="cls-39" d="M323.56,73.43l-50.07,32s-6.12-.06-2.85-5.76l46.77-35.08Z"/><path class="cls-31" d="M272.75,39.51c1.18,2.62,33.87,11.67,43.66,29s45.53,44,86.55,27.1c0,0,28.6-11.67,52.69,1.5,0,0,10.16-6.4.75-11.29S326.94,50.05,277.27,29.35C277.27,29.35,267.49,27.85,272.75,39.51Z"/><path class="cls-39" d="M283.29,31.61s7.53-21.83,9-22.95c0,0,4.89,0,5.65,3l-8.28,22.58Z"/><polygon class="cls-31" points="289.31 16.56 280.66 7.15 232.11 0 276.14 21.07 289.31 16.56"/><polygon class="cls-31" points="294.9 19.88 307.42 17.26 351.07 39.66 303 31.21 294.9 19.88"/><path class="cls-39" d="M445.61,81.37s7.3-21.9,8.79-23.05c0,0,4.89,0,5.67,3l-8,22.67Z"/><polygon class="cls-31" points="451.47 66.26 442.72 56.94 394.1 50.3 438.35 70.91 451.47 66.26"/><polygon class="cls-31" points="457.1 69.52 469.58 66.77 513.47 88.71 465.31 80.77 457.1 69.52"/><path class="cls-54" d="M367.59,59.46S365,91.07,354.79,97.09c0,0,8.28,4.14,12.42,3,0,0,14.68-20.7,12.8-36.88Z"/><line class="cls-48" x1="68.05" y1="27.5" x2="74.02" y2="26.85"/><line class="cls-55" x1="83.62" y1="25.81" x2="213.29" y2="11.71"/><line class="cls-48" x1="218.09" y1="11.19" x2="224.06" y2="10.54"/><line class="cls-48" x1="99.44" y1="45.99" x2="105.41" y2="45.34"/><line class="cls-56" x1="114.21" y1="44.38" x2="253.62" y2="29.22"/><line class="cls-48" x1="258.02" y1="28.74" x2="263.99" y2="28.1"/><line class="cls-48" x1="133.11" y1="64.23" x2="139.08" y2="63.58"/><line class="cls-57" x1="148.65" y1="62.54" x2="255.59" y2="50.91"/><line class="cls-48" x1="260.38" y1="50.39" x2="266.34" y2="49.74"/></g></g></svg>