<svg xmlns="http://www.w3.org/2000/svg" xmlns:xlink="http://www.w3.org/1999/xlink" viewBox="0 0 553.74 543.05"><defs><style>.cls-1{mask:url(#mask);filter:url(#luminosity-noclip-3);}.cls-2,.cls-4{mix-blend-mode:multiply;}.cls-2{fill:url(#linear-gradient);}.cls-3{mask:url(#mask-2);filter:url(#luminosity-noclip-4);}.cls-4{fill:url(#linear-gradient-2);}.cls-5{fill:#454d77;}.cls-6{fill:url(#linear-gradient-3);}.cls-7{fill:url(#linear-gradient-4);}.cls-8{fill:url(#linear-gradient-5);}.cls-9{fill:url(#linear-gradient-6);}.cls-10{fill:url(#linear-gradient-7);}.cls-11{fill:#d6753e;}.cls-12{fill:url(#linear-gradient-8);}.cls-13{fill:#ededbb;}.cls-14{fill:#d69547;}.cls-15{fill:#d6721e;}.cls-16{fill:url(#linear-gradient-9);}.cls-17{fill:url(#linear-gradient-10);}.cls-18{fill:url(#linear-gradient-11);}.cls-19{fill:url(#linear-gradient-12);}.cls-20{fill:url(#linear-gradient-13);}.cls-21{mask:url(#mask-3);}.cls-22{fill:url(#linear-gradient-14);}.cls-23{mask:url(#mask-4);}.cls-24{fill:url(#linear-gradient-15);}.cls-25{fill:#7d90a5;opacity:0.23;}.cls-26{filter:url(#luminosity-noclip-2);}.cls-27{filter:url(#luminosity-noclip);}</style><filter id="luminosity-noclip" x="241.14" y="-7730.22" width="29.46" height="32766" filterUnits="userSpaceOnUse" color-interpolation-filters="sRGB"><feFlood flood-color="#fff" result="bg"/><feBlend in="SourceGraphic" in2="bg"/></filter><mask id="mask" x="241.14" y="-7730.22" width="29.46" height="32766" maskUnits="userSpaceOnUse"><g class="cls-27"/></mask><linearGradient id="linear-gradient" x1="223.98" y1="86.51" x2="189.58" y2="133.95" gradientTransform="matrix(-0.99, 0.13, 0.13, 0.99, 452.97, -37.53)" gradientUnits="userSpaceOnUse"><stop offset="0"/><stop offset="1" stop-color="#fff"/></linearGradient><filter id="luminosity-noclip-2" x="290.53" y="-7730.22" width="26.04" height="32766" filterUnits="userSpaceOnUse" color-interpolation-filters="sRGB"><feFlood flood-color="#fff" result="bg"/><feBlend in="SourceGraphic" in2="bg"/></filter><mask id="mask-2" x="290.53" y="-7730.22" width="26.04" height="32766" maskUnits="userSpaceOnUse"><g class="cls-26"/></mask><linearGradient id="linear-gradient-2" x1="152.48" y1="83.76" x2="124.14" y2="122.85" gradientTransform="matrix(-1, 0, 0, 1, 446.5, 0)" xlink:href="#linear-gradient"/><linearGradient id="linear-gradient-3" x1="329.51" y1="111.37" x2="355.36" y2="111.37" gradientTransform="matrix(-0.99, 0.17, 0.17, 0.99, 590.03, 9.82)" gradientUnits="userSpaceOnUse"><stop offset="0" stop-color="#d69547"/><stop offset="1" stop-color="#cc6806"/></linearGradient><linearGradient id="linear-gradient-4" x1="275.99" y1="63.94" x2="408.39" y2="63.94" gradientUnits="userSpaceOnUse"><stop offset="0" stop-color="#f7931a"/><stop offset="1" stop-color="#f0cd59"/></linearGradient><linearGradient id="linear-gradient-5" x1="234.84" y1="141.54" x2="236.28" y2="151.65" gradientTransform="matrix(-1, 0, 0, 1, 446.5, 0)" gradientUnits="userSpaceOnUse"><stop offset="0" stop-color="#ea8632"/><stop offset="1" stop-color="#d6721e"/></linearGradient><linearGradient id="linear-gradient-6" x1="230.9" y1="175.63" x2="241.31" y2="175.63" xlink:href="#linear-gradient-5"/><linearGradient id="linear-gradient-7" x1="232.29" y1="107.22" x2="237.34" y2="122.02" xlink:href="#linear-gradient-5"/><linearGradient id="linear-gradient-8" x1="188.39" y1="117.89" x2="205.25" y2="175.67" gradientTransform="matrix(-1, 0, 0, 1, 446.5, 0)" gradientUnits="userSpaceOnUse"><stop offset="0" stop-color="#f0cd59"/><stop offset="1" stop-color="#f7931a"/></linearGradient><linearGradient id="linear-gradient-9" x1="71.97" y1="-982.72" x2="97.82" y2="-982.72" gradientTransform="matrix(-0.14, -0.99, -0.99, 0.14, -746.29, 399.69)" xlink:href="#linear-gradient-3"/><linearGradient id="linear-gradient-10" x1="170.58" y1="114.67" x2="171.15" y2="108.83" gradientTransform="matrix(-1, 0, 0, 1, 446.5, 0)" gradientUnits="userSpaceOnUse"><stop offset="1" stop-color="#231f20"/><stop offset="1" stop-color="#c59b67"/></linearGradient><linearGradient id="linear-gradient-11" x1="221.12" y1="134.04" x2="224.08" y2="103.51" xlink:href="#linear-gradient-10"/><linearGradient id="linear-gradient-12" x1="143.88" y1="112.9" x2="163.62" y2="55.36" gradientTransform="matrix(-1, 0, 0, 1, 446.5, 0)" gradientUnits="userSpaceOnUse"><stop offset="0" stop-color="#231f20"/><stop offset="0.29" stop-color="#080000"/><stop offset="0.55" stop-color="#c59b67"/></linearGradient><linearGradient id="linear-gradient-13" x1="431.13" y1="109.81" x2="412.35" y2="36.44" gradientTransform="translate(-169.38 -21.52) rotate(3.83)" xlink:href="#linear-gradient-12"/><filter id="luminosity-noclip-3" x="241.14" y="89.12" width="29.46" height="19.26" filterUnits="userSpaceOnUse" color-interpolation-filters="sRGB"><feFlood flood-color="#fff" result="bg"/><feBlend in="SourceGraphic" in2="bg"/></filter><mask id="mask-3" x="241.14" y="89.12" width="29.46" height="19.26" maskUnits="userSpaceOnUse"><g class="cls-1"><path class="cls-2" d="M267.05,89.78c5.27,3.13,3.45,18.43,2.23,18.6s-14.77-20.5-28.14-17.55A76.05,76.05,0,0,1,267.05,89.78Z"/></g></mask><linearGradient id="linear-gradient-14" x1="223.98" y1="86.51" x2="189.58" y2="133.95" gradientTransform="matrix(-0.99, 0.13, 0.13, 0.99, 452.97, -37.53)" gradientUnits="userSpaceOnUse"><stop offset="0" stop-color="#231f20"/><stop offset="1" stop-color="#c59b67"/></linearGradient><filter id="luminosity-noclip-4" x="290.53" y="94.64" width="26.04" height="18.04" filterUnits="userSpaceOnUse" color-interpolation-filters="sRGB"><feFlood flood-color="#fff" result="bg"/><feBlend in="SourceGraphic" in2="bg"/></filter><mask id="mask-4" x="290.53" y="94.64" width="26.04" height="18.04" maskUnits="userSpaceOnUse"><g class="cls-3"><path class="cls-4" d="M315.12,97.16c4.57,3.62-3,15.52-4.13,15.52s-7.47-18.89-20.46-17.8A72.47,72.47,0,0,1,315.12,97.16Z"/></g></mask><linearGradient id="linear-gradient-15" x1="152.48" y1="83.76" x2="124.14" y2="122.85" gradientTransform="matrix(-1, 0, 0, 1, 446.5, 0)" xlink:href="#linear-gradient-14"/></defs><title>Section 2 Element</title><g id="Layer_2" data-name="Layer 2"><g id="Layer_1-2" data-name="Layer 1"><path class="cls-5" d="M276.87,191.89c-43.23,0-98,4.41-142.28,14.27C17.43,232.28-154.19,348.45,276.87,348.45S536.31,232.28,419.15,206.16C374.89,196.3,320.1,191.89,276.87,191.89Zm127.31,13.7H390.83c-17.13-4.5-37.33-7.58-56.59-9.44l4.25-.8C359.94,197.31,383.2,200.62,404.18,205.59Zm-213.93,15.2c-7.8-4.84-5.56-9.88,4.74-14.19h11c-7.29,3.6-7.55,7.64,0,11.38Zm63.82-15.2H242.63c2-1.27,6-2.33,10.86-3.12l6.56,1.22A17.66,17.66,0,0,0,254.07,205.59Zm-22.53,0H220.09c4.8-2.26,12.79-4,21.94-5.25l5.6,1C240.63,202.39,234.78,203.83,231.54,205.59Zm-1.53,1c-2.54,2.15-.9,4.36,4.62,6.29l-13.18,2.35c-6.77-2.73-7.83-5.79-3.26-8.64Zm-21.74-1H197.6c8.78-3.18,21.34-5.55,34.61-7.08l4.48.83C225.36,200.74,215,202.84,208.27,205.59Zm1.06,13.8c11.79,4.44,34.14,7.73,62.87,8.07l-.55,6.18c-37.59-.44-65.53-5.15-78.44-11.26ZM225,216.47,238.33,214c7.92,2,20.15,3.42,34.73,3.64l-.38,4.34C251.84,221.7,235,219.52,225,216.47Zm21.05-5.6c-4-1.28-5.7-2.77-4.58-4.27h11.77c-.17.86,1,1.68,3.36,2.39Zm18-7.77-6.61-1.18a165.07,165.07,0,0,1,17.14-1.06l-.14,1.56C270.62,202.49,267.07,202.73,264,203.1Zm-12.51-2.23-5.65-1a276.88,276.88,0,0,1,28.92-1.62l-.11,1.26A218.21,218.21,0,0,0,251.5,200.87Zm-11.05-2-4.53-.81c11.87-1.23,25.27-1.93,39-2l-.08,1A344.44,344.44,0,0,0,240.45,198.91Zm-8.93-1.59-4.32-.77c14.89-1.4,31.29-2.2,47.92-2.25l-.08.89C259.82,195.24,244.89,196,231.52,197.32Zm-3.66.38c-15.24,1.65-30.17,4.27-41.35,7.89H174.87c14-4.06,31.47-6.92,48.72-8.68Zm-44.32,8.9c-14,5.07-19.22,11.29-12,17.52l-22.8,4c-5.36-8,4.14-15.66,22.8-21.57ZM174,226c13.19,8.41,47.65,15.27,96.92,15.84l-1,11.38c-65.56-.78-107.58-11.07-119.41-22.85Zm99.36-11.83a129.29,129.29,0,0,1-23.56-2.28l10.61-2a89.22,89.22,0,0,0,13.22,1.18Zm-7.35-8c.36-1,5.21-1.86,10.85-1.86s10.49.81,10.85,1.86-4.45,2.11-10.85,2.11S265.63,207.3,266,206.16Zm57.71.44h11.82c4.57,2.85,3.51,5.91-3.26,8.64l-13.18-2.35C324.63,211,326.27,208.75,323.73,206.6Zm-16,4.27L297.16,209c2.33-.71,3.54-1.53,3.37-2.39H312.3C313.41,208.1,311.76,209.59,307.72,210.87Zm-1.61-9.49,5.6-1c9.15,1.21,17.15,3,21.94,5.25H322.19C319,203.83,313.11,202.39,306.11,201.38Zm10.95-2,4.48-.83c13.26,1.53,25.82,3.9,34.61,7.08H345.47C338.73,202.84,328.39,200.74,317.06,199.34Zm-3.77-.43a344.44,344.44,0,0,0-34.43-1.84l-.08-1c13.77.06,27.17.76,39,2Zm-5.4,1-5.64,1a218.57,218.57,0,0,0-23.17-1.36l-.11-1.26A277,277,0,0,1,307.89,199.87Zm3.23,5.72H299.68a17.74,17.74,0,0,0-6-1.9l6.55-1.22C305.16,203.26,309.08,204.32,311.12,205.59Zm-7.18,6.26a129.51,129.51,0,0,1-23.57,2.28l-.27-3.07a89.37,89.37,0,0,0,13.23-1.18ZM315.42,214l13.34,2.48c-10,3.05-26.87,5.23-47.7,5.5l-.38-4.34C295.27,217.41,307.49,216,315.42,214Zm29,5.4,16.13,3c-12.92,6.11-40.85,10.82-78.45,11.26l-.55-6.18C310.27,227.12,332.63,223.83,344.41,219.39ZM347.7,218c7.59-3.74,7.33-7.78.05-11.38h11c10.3,4.31,12.53,9.35,4.74,14.19ZM325.89,197.7l4.26-.79c17.25,1.76,34.75,4.62,48.72,8.68H367.24C356.06,202,341.12,199.35,325.89,197.7Zm-3.67-.38c-13.37-1.32-28.3-2.08-43.52-2.13l-.08-.89c16.63,0,33,.85,47.92,2.25Zm-43,3.54a164.89,164.89,0,0,1,17.14,1.06l-6.6,1.18c-3.07-.37-6.62-.61-10.4-.68Zm3.61,40.94c49.28-.57,83.73-7.43,96.93-15.84l23.48,4.37c-11.83,11.78-53.85,22.07-119.41,22.85Zm99.42-17.68c7.2-6.23,2-12.45-12-17.52h12c18.65,5.91,28.16,13.53,22.8,21.57Zm-103.76-31.5c19.3,0,38.58.89,56.54,2.43l-4.32.76c-16.38-1.47-34.19-2.29-52.14-2.34Zm-3.2,0-.08.85c-17.94.05-35.76.87-52.14,2.34l-4.31-.76C236.69,193.51,256,192.66,275.27,192.62Zm-60,2.73,4.25.8c-19.27,1.86-39.47,4.94-56.6,9.44H149.57C170.55,200.62,193.81,197.31,215.26,195.35ZM145.39,206.6h13.79c-24.21,6.82-39.73,16.09-38.1,26.49l-37.55,6.67C89.35,225.91,114,214.48,145.39,206.6ZM265.89,299c-130.48-2-188.38-30.5-183.33-56l39.28-7.31c7.26,16.78,57.51,32.92,146.63,34.08Zm21.95,0-2.57-29.24c89.14-1.16,139.37-17.3,146.64-34.08L471.19,243C476.24,268.48,418.33,297,287.84,299Zm182.38-59.22-37.55-6.67c1.62-10.4-13.91-19.67-38.11-26.49h13.79C439.8,214.48,464.4,225.91,470.22,239.76Z"/><path class="cls-6" d="M264.9,170c1.75,2.95,4.68,10.23,11.8,7a13.57,13.57,0,0,0,4.5-4.15c1.53-2.52,2.35-.35,2.23,1.12S280,193,265.15,185.16c-2.69-1.42-8.78-8-7.87-14C258.28,164.62,264,168.49,264.9,170Z"/><path class="cls-7" d="M276,15.39c14.1,29.6,5.63,69.64.84,81.46,41.61-10.76,74.59,27.25,121.93,14.8-6.72-31.82,9.63-83.84,9.63-83.84C368,52.28,314.63,4.26,276,15.39Z"/><path class="cls-5" d="M408.6,26.89C402,27.94,395.69,30.7,389,31.64c-7.27,1-14.49.28-21.71-.8-12.48-1.85-24.36-5.65-36.54-8.57q-3-1.47-6-2.75C311,13.85,292.87,8.91,277.93,13c0-.2-.91-.35-.91-.55-3.83,3.36-.77,11.17,1,17.38,0-1.7,0-3.4,0-5.11,2.82,9.83,4.76,19.34,4.52,30-.24,10.81-2.69,21.19-4.38,31.73,0-1,0-2,0-3,0,.09-.06.19-.1.28a1.11,1.11,0,0,1-.14,1.16c-2.84,3.8-3.41,10-.29,13.73.24.29.48.56.72.83,0-.16,0-.31,0-.47a1.55,1.55,0,0,0,1.21.07,1.17,1.17,0,0,0,.8-1,.77.77,0,0,0-.12-.63c2.18,0,7.54-.47,8-.5a60.35,60.35,0,0,1,8.92.06A91.48,91.48,0,0,1,313,99.75c10.15,2.61,19.92,6.41,29.85,9.72,9.38,3.12,19,5.82,28.92,6.46a73.51,73.51,0,0,0,14.3-.47c4.47-.58,9.84-1.22,13.76-3.55a1.54,1.54,0,0,0-.51-2.89c1.49-2.57.65-5.22.53-8.2s-.19-5.63-.57-8.47a61.2,61.2,0,0,1-.48-9.08c0-.13.1-.26.15-.39a.38.38,0,0,0-.13-.44,120.41,120.41,0,0,1,1-12.31,164.87,164.87,0,0,1,4.4-21.9c.84-3.12,1.81-6.18,2.83-9.23s2.59-6.31,2.83-9.58a1,1,0,0,0,0-.25A1.39,1.39,0,0,0,408.6,26.89Zm-76.1,75.16c-9.92-3.4-20-6.6-30.42-7.81A68.16,68.16,0,0,0,287.66,94a32.67,32.67,0,0,0-6.85.92.61.61,0,0,0,.16-.16.39.39,0,0,0,.06-.2l.65-.43c23.38-7.22,47.87,4.84,71.59,3.93a77.4,77.4,0,0,0,31.19-8.19c5.46-2.79,11.12-7.3,13.56-13.11-.18,2.4-.34,4.79-.54,7.18-6,12-18.94,18.73-31.62,21.7a65.87,65.87,0,0,1-17.67,1.67C342.92,105.69,337.71,103.84,332.5,102.05Zm65.43,7.07c-.14,0-13.89,2.8-14.88,2.9s-2.49.21-4.53.27a73.49,73.49,0,0,1-12.91-.81,115,115,0,0,1-16.69-3.93,65.25,65.25,0,0,0,19.67-2.29c10.37-2.86,23.07-8.81,28.67-18.76-.15,1.47-.3,2.93-.5,4.4a53.49,53.49,0,0,0-.5,6.84c-.17.34-.1.94,0,.81,0,.8,0,1.61.07,2.44s0,1.55.05,2.32C396.34,103.27,396.74,107.69,397.93,109.12Zm4.23-61.35a215.72,215.72,0,0,0-3.46,21.45c0,.16,0,.32-.05.49a.4.4,0,0,0-.25.32c-1.64,12.51-10.86,18.83-22.07,22.7a80.82,80.82,0,0,1-35.92,4.34c-18.63-2-39.19-9.34-57.77-3.57,6-4,11.95-8.22,18.07-12.11.06,0,0-.15,0-.11C294.31,85,287.77,88.38,281.34,92a152.46,152.46,0,0,0,10.51-31.53c0-.09-.11-.14-.13,0a170.07,170.07,0,0,1-12.89,32.55c4.19-12.72,6-27,6-40.31,0-10.73-1.29-23.08-6.86-32.61v-.23a61.66,61.66,0,0,1,5.75,8.71,109.47,109.47,0,0,1,7,14.93.13.13,0,0,0,.25-.08c-2.1-7.33-4-17.63-9.07-24.41a84.86,84.86,0,0,1,14.75,10.31c.07.06.18-.06.11-.12a98,98,0,0,0-17.9-14c7.66-.14,15.13-.57,22.81.71a104.2,104.2,0,0,1,26.15,8.32,262.51,262.51,0,0,1,23.39,12.68c6.78,3.95,13.75,7.41,21.72,7.66a.29.29,0,0,0,.05-.58c-9.81-.82-17.8-6.27-25.69-11.68q-3.62-2.48-7.28-4.75a168.75,168.75,0,0,0,27.8,6.5c12.66,2,26.73,1.63,38.85-3.29C404.1,35.71,403.31,42.49,402.16,47.77Z"/><path class="cls-5" d="M278.28,95.39l.06,0a.69.69,0,0,0,0,.13A1,1,0,0,1,278.28,95.39Z"/><path class="cls-5" d="M272.91,12.19h7a0,0,0,0,1,0,0v192.6a1.5,1.5,0,0,1-1.5,1.5h-4a1.5,1.5,0,0,1-1.5-1.5V12.19A0,0,0,0,1,272.91,12.19Z"/><circle class="cls-5" cx="276.3" cy="7.46" r="7.46"/><path class="cls-8" d="M206.16,153.52a3,3,0,0,1,1.18-2.64c-2.62-.31-4.66-1.38-4.56-4s2.07-3.69,4.57-4.1a3.06,3.06,0,0,1-1.4-2.72c.22-5.5,11.86-.73,11.86-.73l.07,4.26v.53l.08,5v.62l.06,4.17S206.54,159,206.16,153.52Z"/><path class="cls-9" d="M207.49,180.25a2,2,0,0,1,.81-1.8c-1.79-.21-3.18-.94-3.12-2.72s1.42-2.52,3.12-2.8a2.08,2.08,0,0,1-1-1.85c.14-3.75,8.09-.5,8.09-.5l.05,2.9v.37l.06,3.38v.42l0,2.85S207.75,184,207.49,180.25Z"/><path class="cls-10" d="M204,118a3.66,3.66,0,0,1,2.64-2.35c-2.76-1.66-4.49-3.88-3.06-6.74s4.17-3,7.16-2.25a3.71,3.71,0,0,1-.19-3.72c3-6,13.57,5.17,13.57,5.17L222,112.86l-.26.6L219.32,119l-.31.69-2,4.67S201.6,124.28,204,118Z"/><path class="cls-11" d="M224.71,211s-19.83,8.36-30.49,0l3.26-5.57,23.29-.1c.24,0,5.76,1.11,5.76,1.11Z"/><path class="cls-12" d="M215.27,173.06l-.08,5.7S213.77,198.6,202,198.6c0,0-20.31,2.13-23.38-27.4,0,0-1,59.52,45.11,38.26l1.89,9.93L237.39,204l19.84,2.13,7.32,11.1,1.17-57.79s36,5.1,42.53,5.83c0,0,12.75-75.35-34.48-78.66-62.6-7.08-57.87,44.17-57.87,44.17l-.46,30.75Z"/><path class="cls-13" d="M232.72,145.66c.3-10.8,2.37-14.35,4.87-14.35s5.11,9.29,4.87,20.67Z"/><path class="cls-14" d="M258.41,129.27c0,2.39,3.88,4.33,8.67,4.33s8.66-1.94,8.66-4.33-3.88-4.34-8.66-4.34S258.41,126.87,258.41,129.27Z"/><path class="cls-14" d="M285.58,128.39c-.28,1.18,1.15,2.53,3.2,3s3.94-.08,4.21-1.26-1.15-2.53-3.2-3S285.86,127.21,285.58,128.39Z"/><path class="cls-14" d="M250,132.6c-.21.86.83,1.83,2.32,2.18s2.84-.05,3-.91-.83-1.83-2.31-2.18S250.15,131.75,250,132.6Z"/><path class="cls-14" d="M267.17,137c-.2.84.82,1.8,2.29,2.15s2.81-.06,3-.9-.82-1.81-2.29-2.15S267.37,136.13,267.17,137Z"/><path class="cls-15" d="M243.63,169.29s-2,6.45-5.16,8.23c2.19,2.82,6,5.71,10.2-.57-1.4-1.17-2.9-3.45-4.49-7.33,0,0,6.63,14.24,13.69-.33,0,0-3.6,11.67-8.84,7.94-1.93,4.14-6,9.94-11,.49-2.25.94-5-.55-8.11-8.1C230,169.62,236.57,183.86,243.63,169.29Z"/><path class="cls-11" d="M256.86,157.74a177.37,177.37,0,0,0,19.72,4.37c6.11,1,11.65,1.69,16.31,2.15,9.32.91,15.11,1,15.11,1s-5.75-.67-15-2.13c-4.6-.74-10.08-1.68-16.11-2.9s-12.64-2.7-19.44-4.66a101,101,0,0,1-18.55-7,38.46,38.46,0,0,1-7.17-4.69,18.15,18.15,0,0,1-4.66-5.65,12.21,12.21,0,0,1-1.32-5.86c0-.23,0-.45,0-.67s0-.43.08-.64a8.58,8.58,0,0,1,.2-1.2c.09-.38.17-.75.25-1.1s.22-.66.32-1a20.94,20.94,0,0,1,1.18-2.75l.48-.93s-.2.3-.56.88a18.79,18.79,0,0,0-1.42,2.67l-.41,1-.35,1.1a10.54,10.54,0,0,0-.3,1.23c0,.22-.08.44-.13.67s0,.46-.07.69a12.89,12.89,0,0,0,1,6.38,19.08,19.08,0,0,0,4.66,6.33,37.85,37.85,0,0,0,7.28,5.2A88.47,88.47,0,0,0,256.86,157.74Z"/><path class="cls-16" d="M220.88,169.32c-3,1.69-10.34,4.44-7.32,11.63a13.68,13.68,0,0,0,4.05,4.6c2.49,1.58.3,2.35-1.17,2.2s-18.85-3.86-10.71-18.53c1.48-2.67,8.17-8.6,14.2-7.54C226.43,162.82,222.42,168.45,220.88,169.32Z"/><path class="cls-11" d="M254.45,91.66A8.48,8.48,0,0,1,258.07,93a9.6,9.6,0,0,1,2.6,2.6,20.47,20.47,0,0,1,2.69,6.07c.53,1.88.83,3.45,1,4.54s.34,1.69.34,1.69,0-.62,0-1.72a35.93,35.93,0,0,0-.29-4.74,18.85,18.85,0,0,0-2.19-6.85,10.8,10.8,0,0,0-3-3.35,9.89,9.89,0,0,0-4.53-1.78,10,10,0,0,0-2.51,0,7.32,7.32,0,0,0-4.36,2.16,9.35,9.35,0,0,0-1.36,1.78,17.18,17.18,0,0,0-2,6.94,31,31,0,0,0-.07,4.74c.07,1.12.15,1.73.15,1.73s.07-.62.2-1.71a43.23,43.23,0,0,1,.83-4.58,18.33,18.33,0,0,1,2.5-6.1A8.26,8.26,0,0,1,249.29,93a6.46,6.46,0,0,1,1.47-1,6.26,6.26,0,0,1,1.75-.46A8.52,8.52,0,0,1,254.45,91.66Z"/><path class="cls-11" d="M289,94.16l.84.13.77.26.39.13.35.19c.23.13.48.23.7.38a9.07,9.07,0,0,1,2.2,2.17,17.65,17.65,0,0,1,2.33,5.15c.48,1.59.76,2.94,1,3.87s.31,1.44.31,1.44,0-.53,0-1.48a29.7,29.7,0,0,0-.2-4.06,16,16,0,0,0-1.84-5.93,9.77,9.77,0,0,0-2.57-2.92,10.3,10.3,0,0,0-.9-.55l-.46-.26-.5-.19-1-.36L289.28,92a7.3,7.3,0,0,0-2.19-.06,7,7,0,0,0-2.12.64,6.77,6.77,0,0,0-1.7,1.26,8.3,8.3,0,0,0-1.17,1.55,14.55,14.55,0,0,0-1.7,6,25.79,25.79,0,0,0,0,4.07c.07,1,.15,1.48.15,1.48s.07-.53.2-1.46a37.89,37.89,0,0,1,.76-3.91,15.55,15.55,0,0,1,2.18-5.16,5.56,5.56,0,0,1,2.21-1.91A5.27,5.27,0,0,1,289,94.16Z"/><path class="cls-14" d="M254.21,71c-7.75,1.1-19.32,10.4-20.08,17.14-.27,0-1.83-8.46,5.72-13.82S254.21,71,254.21,71Z"/><path class="cls-14" d="M303.09,91.57c2.73-5.82-4.14-15.47-10.64-17.43.08-.26,8.2-.06,12.57,8.1C307.62,87.12,303.09,91.57,303.09,91.57Z"/><path class="cls-17" d="M281.17,109.55c1.09-1.69-3.46-3.08-6.89-2.84-3,.21-4.82,1.88-4.82,2.84.27.42,3.11-.48,6-.29C277.88,109.42,280.36,110.81,281.17,109.55Z"/><path d="M317.85,98.14a43,43,0,0,0-.5,6.55s-5.79,15.08-15.64,14.59-17.13-1.08-19.49-1.89c-5-1.7-7.06-22.45-1-24.17S318.1,96.51,317.85,98.14Z"/><path d="M226.21,93.32c.36,4.09.71,7.86.71,7.86s5.47,17.72,16.8,17.92,19.7.08,22.47-.67c5.8-1.57,9.81-25.18,3-27.62S226.05,91.43,226.21,93.32Z"/><path class="cls-18" d="M217.36,108.38l9.49-16.91.53,4L226.92,99s-6.49,7.48-6.75,9.36-.28,4.81-1.78,4.38S217.54,109.39,217.36,108.38Z"/><path class="cls-19" d="M319.11,97.06a44.58,44.58,0,0,0-.5,6.55S312.82,118.69,303,118.2s-17.12-1.08-19.49-1.89c-4.94-1.71-7.06-22.45-1-24.18S319.37,95.42,319.11,97.06Z"/><path class="cls-20" d="M226.85,91.47a50.91,50.91,0,0,1,.07,7.55s5.47,17.72,16.8,17.91,19.7.08,22.47-.67c5.8-1.57,9.81-25.18,3-27.62S226.68,89.58,226.85,91.47Z"/><g class="cls-21"><path class="cls-22" d="M267.05,89.78c5.27,3.13,3.45,18.43,2.23,18.6s-14.77-20.5-28.14-17.55A76.05,76.05,0,0,1,267.05,89.78Z"/></g><g class="cls-23"><path class="cls-24" d="M315.12,97.16c4.57,3.62-3,15.52-4.13,15.52s-7.47-18.89-20.46-17.8A72.47,72.47,0,0,1,315.12,97.16Z"/></g><path class="cls-5" d="M545.7,304v-2.23a2.49,2.49,0,0,0-.19,1.46v.39c.12.33,0,.46-.27.4-.57.32-1.07.34-1.5,1,0-.14,0-.29,0-.43a3.49,3.49,0,0,0-.41,2.14c0,1-.17,2-.25,3q-.27,2.91-.63,5.79-.72,5.85-1.72,11.67c-.66,3.84-1.44,7.67-2.31,11.47A71.82,71.82,0,0,1,534.37,350c.88-3.66,2-7.27,2.89-10.94s1.71-7.42,2.42-11.16c1.43-7.41,2.52-14.85,3.34-22.34a4.25,4.25,0,0,0-.45,2.14c-.1.86-.2,1.72-.31,2.58-.2,1.56-.42,3.12-.64,4.68-.46,3.25-1,6.5-1.56,9.73-1.18,6.49-2.6,13-4.25,19.34q-.72,2.73-1.5,5.43a8.22,8.22,0,0,1-.7,2.35c-.16.21-.55.29-.78.47a2.32,2.32,0,0,0-.68.87,261,261,0,0,0,10.41-47c-.48.58-.43,1.77-.54,2.52s-.24,1.79-.37,2.68q-.39,2.63-.84,5.24c-.59,3.47-1.21,6.93-1.95,10.37-1.42,6.69-3,13.33-5,19.89-.56,1.89-1.13,3.79-1.73,5.68s-1.29,3.57-1.78,5.39a310.72,310.72,0,0,0,9.19-39.15c.65-3.69,1.17-7.4,1.68-11.11-.55.6-.48,2-.59,2.82-.14,1-.28,2-.43,2.95-.27,1.86-.58,3.71-.89,5.56q-1,5.81-2.18,11.57-2.29,11.11-5.42,22.06c-.52,1.85-1.09,3.7-1.66,5.54l-.87,2.74c-.2.61-.18.44-.75.44s-.47.23-.72-.3a9.52,9.52,0,0,1-.5-2.31c-.16-.86-.3-1.73-.41-2.6-.22-1.64-.36-3.29-.5-4.95s-.23-3.47-.31-5.21c0-1-.09-1.93-.12-2.9,0-.43-.29-1.68-.06-2,.06-.08.86-.23,1-.31a2.28,2.28,0,0,0,1-2.53,2.2,2.2,0,0,0-.57-1c-.39-.39-.49-.27-.16-.85.47-.84.92-1.69,1.37-2.54,1-1.9,2-3.84,2.84-5.8.34-.74,1.09-1.27,1.24-2.11a5,5,0,0,1,.18-1.15l.64-1.56c1.61-4,3-8,4.23-12.12-.75.65-.94,2.43-1.25,3.38-.38,1.18-.8,2.36-1.22,3.53-.82,2.31-1.72,4.58-2.66,6.85-.17-.52-.55-.71-.81-1.14-.24,0-.3-.16-.15-.31l.24-.48.32-.64q.81-1.65,1.56-3.33c1-2.24,1.9-4.52,2.74-6.82-.64.5-.91,1.81-1.21,2.57s-.62,1.59-.94,2.39c-.64,1.58-1.39,3.1-2.13,4.63-.15.29-.85,2.24-1.33,1.59a6.84,6.84,0,0,1,.19-1.13c.08-.48.15-1,.23-1.44.3-1.87.62-3.73.92-5.6-.47.29-.42,1.35-.51,1.9s-.2,1.16-.29,1.74c-.25,1.5-.48,3-.72,4.51a2.2,2.2,0,0,0-2.45,2.71,5.9,5.9,0,0,1-1.39.08,2.15,2.15,0,0,0-.93-2.15c-.21-.14-.5-.19-.55-.38s.18-.61.22-.76c.48-1.63,1-3.27,1.43-4.91-.5.22-.68,1.62-.83,2.15s-.35,1.18-.52,1.77l-.52,1.81a2.21,2.21,0,0,0-2.75,1.65,2.05,2.05,0,0,0,0,.78c.07.54.18.35-.22.61a5.91,5.91,0,0,1-2.15.47,5.16,5.16,0,0,1-1,.1c-.08-.06-.17-.77-.24-.91a2.19,2.19,0,0,0-.56-.72c-.4-.35-.42-.1-.28-.64a17,17,0,0,1,1.11-2.37c.36-.78.73-1.56,1.09-2.35-.66.16-1.28,2.29-1.57,2.91.39-.93.78-1.87,1.16-2.81-.58.13-1,1.9-1.23,2.47l-.56,1.35a3.36,3.36,0,0,1-.28.68c-.27.38,0,.21-.51.23a4.79,4.79,0,0,1-.55,0c-.22-.12-.1-.05-.21-.34a7.2,7.2,0,0,1-.22-1.23c-.07-.43-.15-.86-.21-1.29s0-1.17-.37-1.13l.36,2.23c0,.26.46,1.57.31,1.82a6.13,6.13,0,0,1-.71.29,2.06,2.06,0,0,0-.57.49,2.22,2.22,0,0,0-.52,1.42,2.18,2.18,0,0,0,.51,1.38c.09.11.48.36.5.45s-.53.86-.61,1c-.83,1.32-1.65,2.64-2.49,3.95-3.07,4.82-6.35,9.51-9.67,14.16-6.8,9.53-14.17,18.61-21.79,27.49-3.68,4.28-7.47,8.49-11.37,12.57l-2.88,3-1.25,1.29-.75.78c-.1.1-.88,1.09-1,.63-.05-.24.84-1.32,1-1.52l1.17-1.86,2.23-3.52q9.13-14.61,18-29.43c6.5-10.89,12.91-21.83,19.32-32.78-.73.23-1.36,1.91-1.75,2.58l-1.77,3c-1.18,2-2.35,4-3.53,6q-3.54,6-7.09,12.06c-4.76,8-9.54,16-14.41,24q-3.68,6-7.41,12c-1.25,2-2.49,4-3.75,6a23.65,23.65,0,0,1-1.9,3c-.52.59,0,.22-.47.2a4.38,4.38,0,0,1-.71-.19c-.55-.49.24.58-.17-.19a3.16,3.16,0,0,1,0-1.07c-.43-9.27-.65-18.54-.81-27.82-.19-10.63,0-21.29.3-31.91-.5.24-.27,2.51-.28,3.08,0,1.11-.05,2.23-.08,3.35q-.06,3.33-.11,6.66c-.05,4.37-.08,8.73-.06,13.09q0,12.87.49,25.74c.1,2.45.22,4.89.33,7.33a6.76,6.76,0,0,1,.09,1.77c-.18.19-.92.25-1.2.47a2.11,2.11,0,0,0-.81,2.14c-21.66,5-44.53,1.18-65.42-5.35A224,224,0,0,1,364,378.42q-3.79-1.83-7.52-3.83c-.58-.3-1.15-.62-1.73-.93-.19-.11-.92-.37-1-.56s0-.34.07-.72a2.08,2.08,0,0,0,0-.61,6.26,6.26,0,0,1-.24-.74c.06-.26,1.71-.94,2-1.1q7.59-4.15,15.11-8.42Q387.48,352,404,342.1c-.61-.1-1.38.6-1.91.91l-1.65,1-4.07,2.43c-2.47,1.46-4.94,2.92-7.42,4.36-5,2.89-10,5.78-15,8.63s-10,5.67-15.08,8.45l-3.76,2.07c-.31.17-1.42,1-1.71.94a7.73,7.73,0,0,1-.6-.66c-.32-.08-.35-.24-.09-.49l.16-.34q1.91-3.93,3.82-7.86,4.35-9,8.75-17.92c-.39-.09-1,1.67-1.24,2.08l-1.3,2.65-2.49,5.1-5,10.22-2.4,4.94c-.15.31-.31,1-.57,1.18s-.18.06-.52,0a2.16,2.16,0,0,1-.46-.05c-.33-.28-.22-1.93-.26-2.46-.3-3.74-.55-7.48-.81-11.23l-.42-6.26c-.07-1.08-.13-2.17-.19-3.26,0-.48,0-2.77-.35-2.81q.45,7.93,1,15.87l.57,7.9c0,.58.09,1.15.14,1.73.06.76-.17.51-.74.82-.24.12-.41.38-.63.49-.43.23,0,.15-.47,0a9.23,9.23,0,0,1-1.85-1.16c-8.43-5.29-16.62-10.94-24.62-16.85q-3.54-2.6-7-5.26-1.71-1.31-3.4-2.63l-1.87-1.45c-.41-.33-1.31-1.32-1.77-1.15,10,8,20.37,15.57,31,22.64,2.74,1.82,5.49,3.61,8.28,5.34l.94.58c.5.31.36.2.28.68a2.55,2.55,0,0,0,.12,1.78,2.32,2.32,0,0,0,.58.71c.29.23.48.21.51.52a3.83,3.83,0,0,1-.4,1.08l-.45,1.25-6.86,18.89c-4.48,12.37-9,24.73-13.64,37q-3.47,9.19-7.06,18.33-1.77,4.52-3.6,9c-.17.43-.49,1.86-.86,2.1a4,4,0,0,1-1.29,0l-1.29,0-1.11,0c-.53,0-.62.08-.81-.38a13.75,13.75,0,0,1-.51-2.49q-3.76-18.92-6.57-38c-1.85-12.61-3.41-25.26-4.76-37.93q-1.07-9.88-2-19.78-.45-4.83-.86-9.68c-.14-1.65-.27-3.31-.4-5-.07-.77-.13-1.53-.19-2.3l-.09-1.12c0-.46-.19-1.18-.23-.33a41.28,41.28,0,0,0,.4,4.95c.13,1.57.26,3.14.4,4.71.28,3.31.58,6.62.88,9.92q.88,9.63,1.92,19.23c1.27,11.76,2.7,23.5,4.38,35.2q2.44,17,5.65,33.91c.57,3,1.26,6,1.81,9q-5.13-.16-10.24-.46l-5.13-.33a5.53,5.53,0,0,1-2.18-.41l-2.44-1.2c-5.71-2.86-11.28-6-16.8-9.19a350.87,350.87,0,0,1-32.22-21.41q-7.89-5.85-15.55-12l-3.95-3.2-1.83-1.5-1.06-.89a3.44,3.44,0,0,1-.46-.38c-.3-.34-.23-.12-.14-.49.15-.65.45-1,.23-1.75-.12-.37-.43-.62-.3-.92s.73-.65,1-.87c1.21-1.08,2.41-2.18,3.63-3.26,10.08-9,19.75-18.4,29.29-27.94s18.63-19,27.83-28.64l3.34-3.5c-.6-.14-2.47,2.31-2.95,2.81l-2.94,3.09c-1.93,2-3.88,4.06-5.83,6.09-4,4.1-7.93,8.21-11.93,12.28-8,8.1-16,16.13-24.27,24-4,3.82-8.07,7.6-12.19,11.3l-2.89,2.59-1.59,1.4c-.13.11-.58.65-.72.64s-.75-.52-1-.6a2.21,2.21,0,0,0-.62-.09c-.16,0-.91.29-1,.26s-.66-1.21-.78-1.42c-.6-1.1-1.2-2.2-1.79-3.3q-7.14-13.2-13.76-26.69-4-8.13-7.87-16.33-2.07-4.38-4.09-8.77l-2-4.31c-.07-.15-.55-1-.5-1.09s.52-.35.65-.49a2.23,2.23,0,0,0,.6-1.53l3.8-.16c-.4-.63-2.72.06-3.47,0s0-.21-.55-.68c-.11-.09-.62-.06-.77-.08-.71-.07-1.41-.16-2.11-.28s-1-.3-1.28.44c-.05.11-.11.65-.16.69s-.79,0-.94,0l-1.88,0c-.54,0-1.5-.18-1.9.18l2.08,0a8,8,0,0,1,2.44,0c.29.13.2.36.33.72.08.21.4.54.43.73.06.44-1.07,1.39-1.44,1.8-2,2.24-4.1,4.49-6.16,6.71-4.26,4.59-8.56,9.14-12.95,13.61a337.71,337.71,0,0,1-27.69,25.53c-4.75,3.84-9.63,7.54-14.73,10.9-.23.15-.65.56-.91.6s-.4-.24-.71-.46a2.13,2.13,0,0,0-1.76-.34c-.4.11-.55.34-.85.18s-.53-.73-.7-1l-1.51-2.09q-2.87-4-5.69-8c-7.29-10.42-14.3-21-21.2-31.69q-5.31-8.23-10.46-16.56c-1.65-2.65-3.29-5.29-4.92-7.95l-2.49-4.05c-.07-.12-.28-.36-.29-.49,0-.36,0-.05.13-.34a6.32,6.32,0,0,1,.54-.71c.24-.26-.07-.16.3-.23a2,2,0,0,1,.56.16l1.24.34c1.47.42,3,.79,4.44,1.16-.34-.56-1.85-.66-2.48-.82l-2.8-.77-.74-.21c-.35,0-.45-.08-.3-.35a7.21,7.21,0,0,1-.13-1c-.21-.24-.14-.38.22-.44l.67-.38L73,327.3c-.83,0-1.33.91-2.1,1s-.07-.76.17-1c-.47,0-.43.52-.79.59-.18,0-1-.51-1.27-.53-.47,0-.83.29-1.24.3s-.5-.75-1-.84c.12.17.75.85.73,1-.06.47-.55,0-.7-.08a4.77,4.77,0,0,0-1.87-1.3c.46.37.9.74,1.35,1.12a4,4,0,0,1,.54.45c.45.53.19,0,.11.46s-.38.8-.32,1.39A2.28,2.28,0,0,0,68,331.68c.18.08.44.08.62.17.38.2.13-.35.28.41a26,26,0,0,1,.14,3.65q.27,7.05.61,14.1c0,1.14.11,2.28.16,3.41l.09,1.73v.2c.14.33,0,.48-.28.42-.4.28-.47.13-.74-.14a5.87,5.87,0,0,1-.8-1.35l-.9-1.52-1.87-3.21q-3.68-6.3-7.29-12.64l-4-7-2-3.59-1-1.71c-.26-.45-.7-1.66-1.21-1.74q5.19,9.29,10.47,18.5Q63,346,65.67,350.63q1.39,2.39,2.81,4.77a2.2,2.2,0,0,1,.3.51c0,.4,0,0-.12.34s-.45.45-.6.74-.12.85-.24.95-1.28.06-1.52.07a64.35,64.35,0,0,1-19.63-2.3Q44.32,355,42,354.16c-.74-.29-1.49-.56-2.21-.89s-.39-.26-.31-.79a2.21,2.21,0,0,0-.12-1.08,2.25,2.25,0,0,0-1.08-1.21c-.15-.08-.8-.18-.87-.26s0-1.13.06-1.37c.08-1.81.17-3.62.25-5.43q.27-5.91.59-11.81c.1-2,.2-4,.31-6.05.06-1,.11-2.06.17-3.09,0-.57.4-2.57,0-2.79q-.44,7.89-.83,15.78-.2,3.9-.38,7.8c0,1.27-.11,2.54-.17,3.82,0,.71-.07,1.42-.1,2.12s.19,1-.45,1.06q-2.1-9.23-4-18.48c-.64-3.12-1.29-6.25-1.91-9.38-.29-1.45-.57-2.89-.85-4.34l-.45-2.25c-.08-.42-.17-1.94-.58-2,2.26,11.77,4.65,23.52,7.32,35.21.08.36.59,1.52-.09,1.47-.38,0-.87-1.13-1.12-1.53q-1.26-2-2.51-4c-1.52-2.49-3-5-4.46-7.52-3-5.15-5.84-10.36-8.53-15.66q-2.34-4.61-4.5-9.28c-.66-1.43-1.29-2.89-1.93-4.33-.36-.8-.71-1.6-1.05-2.41a5.55,5.55,0,0,0-1-2,282.27,282.27,0,0,0,18.6,36.72q3,5.14,6.21,10.21c-.33,0-1.4-1.77-1.66-2.11-.63-.8-1.25-1.61-1.86-2.42-1.21-1.61-2.38-3.26-3.55-4.89-2.38-3.32-4.57-6.77-6.74-10.23s-4.11-6.85-5.92-10.4c-.45-.87-.91-1.74-1.35-2.61a4.89,4.89,0,0,1-.54-1.1c-.09-.45,0-.83-.23-1.28s-.52-.5-.74-.79a5.23,5.23,0,0,1-.44-1c-.42-.87-.83-1.74-1.2-2.62-.23-.52-.44-1-.65-1.56-.09-.23-.18-.46-.28-.69-.17-.42-.19-.37,0-.64.52-.66,1.1-1,1.1-1.93a2.27,2.27,0,0,0-1.23-2c-.15-.08-.34-.1-.49-.18-.42-.22-.23.17-.38-.39-.06-.21,0-1.31.16-1.32A40.39,40.39,0,0,1,7.27,299c.51,1.67,1,3.32,1.56,5-.31,0-1-2.07-1.08-2.39-.38-1-.75-1.93-1.07-2.91-.59-1.81-2-3.38-2.9-5.07A2.22,2.22,0,0,0,3,296.25c.24.59.65.78,1.08,1.18s.28.39.34.88l.15,1.14c.38,2.62,1.06,5.18,1.48,7.79.94,5.74,2.09,11.42,3.38,17.09.16.7.33,1.39.5,2.09a3.33,3.33,0,0,1,.2.77c-.05.23-.36.54-.44.8a2.21,2.21,0,0,0,.16,1.69c.28.54.82.64,1.17,1.05a6.94,6.94,0,0,1,.57,2.08c.16.59.32,1.18.49,1.76.41,1.47.83,2.93,1.26,4.39,1.67,5.64,3.57,11.22,5.63,16.72,7.85,21,16.64,41.63,29.44,60.13,1.52,2.21,3.1,4.34,4.51,6.62a72.3,72.3,0,0,0,4.75,6.78,48.18,48.18,0,0,0,5.57,5.94c.3.26,1.32.85,1.43,1.22s-.34.91-.35,1.33A2.29,2.29,0,0,0,66,439.92c.58.14,1-.14,1.49-.19l.28-.16.44.59c.21.3.43.6.65.89.83,1.12,1.67,2.23,2.52,3.32q2.59,3.36,5.34,6.6a157.57,157.57,0,0,0,11.79,12.45q3.18,3,6.55,5.75c2.12,1.73,4.4,3.27,6.48,5s4.11,3.5,6.21,5.19a4.46,4.46,0,0,1,.83.66c.31.45.22.19,0,.71a2.18,2.18,0,0,0-.13,1.38,2.32,2.32,0,0,0,2.22,1.76,2.25,2.25,0,0,0,.89-.18c.15-.07.61-.49.73-.49.29,0,1,.75,1.25.95.55.44,1.1.9,1.67,1.33a5.14,5.14,0,0,1,.79.6c.35.42.16.26,0,.79a2.25,2.25,0,0,0,1,2.59,2.28,2.28,0,0,0,1.53.33,2.19,2.19,0,0,0,.83-.31c.18-.11.51-.57.65-.59.32-.05,1.45,1,1.75,1.21l1.43,1q1.91,1.27,3.82,2.52c2.39,1.55,4.79,3.06,7.22,4.53a267.52,267.52,0,0,0,63,27.83c2.71.8,5.43,1.54,8.17,2.26a2.24,2.24,0,0,0,1.92,2.75,2.31,2.31,0,0,0,1.84-.62c.11-.11.4-.7.52-.75a7.27,7.27,0,0,1,1.53.41c.76.15,1.52.2,2.28.32a4.42,4.42,0,0,1,1.26.26c.26.15.27.36.45.63a2.3,2.3,0,0,0,1.59,1,2.22,2.22,0,0,0,1-.1c.36-.12.69-.56,1-.65a4.61,4.61,0,0,1,1.36.3l1.35.29,3,.62c1.85.37,3.7.71,5.56,1,3.82.68,7.65,1.26,11.49,1.78a270.94,270.94,0,0,0,46.43,2.06c4.18-.16,8.35-.47,12.52-.85l1.61-.15c.61-.06.63-.14.84.42a2.25,2.25,0,0,0,1.47,1.38,2.28,2.28,0,0,0,2.89-2.34c2.81-.3,5.75-.53,8.48-1.09,3.08-.64,6.25-1,9.36-1.55,1.62-.29,3.23-.58,4.85-.91l2.31-.49,1.05-.22c.59-.13.36-.1.68.27.76.9,1.47,1.68,2.8,1.2a2.21,2.21,0,0,0,1.43-2.57,286.07,286.07,0,0,0,34.26-10.44c2.66-1,5.29-2.06,7.9-3.19l2.11-.92a4.94,4.94,0,0,1,1-.48c.57-.09.27-.15.65.29a2.26,2.26,0,0,0,2.93.44,2.37,2.37,0,0,0,.83-.92c.26-.54.09-1,.16-1.49l-.08-.23.71-.28,1-.44c.68-.29,1.36-.6,2-.91,2.57-1.2,5-2.61,7.56-3.89a296.74,296.74,0,0,0,29.91-17.58,300.13,300.13,0,0,0,27.91-21.59c2.13-1.81,4.23-3.65,6.26-5.57,1-.9,1.89-1.82,2.83-2.75a9.63,9.63,0,0,1,1.48-1.51c.48-.27.2-.22.69.05a2.39,2.39,0,0,0,.78.26,2.31,2.31,0,0,0,2.44-1.5,2.29,2.29,0,0,0,0-1.37c-.05-.16-.43-.65-.42-.78s.6-.77.73-.92c1.77-2.13,3.88-4,5.76-6.06a261.58,261.58,0,0,0,22.09-27.47c3.4-4.86,6.68-9.81,9.73-14.9.16-.27.56-1.31.83-1.39s.61.16.78.16a2.1,2.1,0,0,0,.78-.13,2.31,2.31,0,0,0,1.49-2.44,2,2,0,0,0-.26-.79c-.08-.15-.5-.5-.52-.63-.06-.31.75-1.3.91-1.59.74-1.31,1.49-2.61,2.21-3.93l2-3.76.67-1.31.15-.31c.05-.34.2-.4.46-.19.4,0,.76.15,1.18.05a2.31,2.31,0,0,0,1.75-2,2.22,2.22,0,0,0-.4-1.54,2.64,2.64,0,0,0-.35-.4c-.47-.42-.42-.34-.12-1,.07-.14.32-.88.46-.94s.71.17.87.17a2.28,2.28,0,0,0,2-3.33c-.18-.32-.84-.67-.92-.93s.73-1.57.87-1.88c.58-1.29,1.14-2.58,1.71-3.86s1.11-2.52,1.65-3.78c.27-.63.53-1.26.79-1.89.15-.36.41-1.34.71-1.52s1-.14,1.43-.5a2.25,2.25,0,0,0,.79-1.27,2.28,2.28,0,0,0-.09-1.34c-.11-.26-.32-.44-.43-.68s-.25-.25-.1-.43.15-.38.22-.57c.46-1.23,1-2.45,1.41-3.69.26-.7.5-1.42.75-2.13a4.28,4.28,0,0,1,.25-.72c.1-.06.94.13,1.19.08a2.33,2.33,0,0,0,1.75-2,2.26,2.26,0,0,0-.41-1.57,2.21,2.21,0,0,0-.57-.57c-.47-.32-.5-.19-.3-.79a238.06,238.06,0,0,0,8.9-34q.76-4.37,1.27-8.76C548.34,308.53,548.72,304.16,545.7,304Zm-19.85,42.55a84.33,84.33,0,0,0,1.47,13.54c.07.28.13.56.2.84.12.44.14.32-.12.6s-.59.4-.8.71a2.22,2.22,0,0,0,0,2.61c.21.29.32.25.28.56a3,3,0,0,1-.45.8l-.72,1.28c-.61,1.05-1.23,2.11-1.86,3.15q-3.61,6-7.76,11.55c-1.38,1.87-2.8,3.7-4.26,5.51-.35.42-.69.85-1.05,1.27a5.86,5.86,0,0,1-1.06,1.26c-.56.37-.06.14-.6,0-.24,0-.46-.21-.71-.25a2.2,2.2,0,0,0-1.31.21,2.32,2.32,0,0,0-1.26,2.36,2.46,2.46,0,0,0,.16.59c0,.07.49.69.49.72,0,.34-1.06,1.17-1.29,1.42-1.92,2.07-3.89,4.11-5.92,6.07a436,436,0,0,0,22.56-51.59c.91-2.46,1.79-4.94,2.65-7.41.1-.28.2-.55.29-.82s.05-.66.53-.57.22-.08.32.41a6.83,6.83,0,0,1,0,1.11C525.73,343.87,525.79,345.21,525.85,346.56Zm-12,46.28q-2.91,4.94-6.08,9.7c-1.08,1.62-2.11,3.29-3.33,4.81s-2.48,2.91-3.76,4.33a131.44,131.44,0,0,1-15.82,15.12,27,27,0,0,1,1.43-2.31c.66-.83,1.53-1.56,2.27-2.32q2.18-2.26,4.29-4.59Q497,413,501,408.19a216.94,216.94,0,0,0,14.64-20.12c2.43-3.82,4.79-7.66,7-11.61C519.84,382,517,387.49,513.85,392.84Zm1.4-2c-2.7,4.75-5.32,9.71-8.77,14C509.62,400.32,512.51,395.61,515.25,390.85Zm-199,138.65a51,51,0,0,1-5.57-2,82.67,82.67,0,0,0,11.09-9.72c1.71-1.74,3.34-3.56,5-5.38.41-.46.69-1,1.28-1.06a15.06,15.06,0,0,1,1.78,0l3.94-.15a113.17,113.17,0,0,1-7.92,11.37,50.93,50.93,0,0,1-4.78,5.18l-.66.6-.27.24c-.12.18-.23.16-.35-.06-.48-.13-.8-.45-1.36-.45A2.29,2.29,0,0,0,316.26,529.5Zm1.67,2.94c-.22,0-1.17.29-1.34.17l-.28-.81c.18-.52.52.08.67.19A2.09,2.09,0,0,0,317.93,532.44Zm-91.5-.44c-1.56-.32-3.1-.68-4.65-1a287.66,287.66,0,0,0,43.54,4.06q6.14.06,12.28-.17a244.46,244.46,0,0,1-40.22-1.08C233.68,533.39,230.06,532.75,226.43,532Zm3,.79c-3.48-.5-6.94-1.09-10.39-1.74a1.44,1.44,0,0,0,.17-.45l.76.17,1.13.26c.94.22,1.89.43,2.83.63Q226.65,532.26,229.4,532.79Zm46.85,1.94a274.18,274.18,0,0,1-44.73-2.39c-4.11-.55-8.2-1.29-12.28-2,.1-.29,2.84,0,3.31,0,1.3,0,2.61-.06,3.91-.14,2.42-.14,4.81.56,7.21.9q7.65,1.07,15.34,1.77a268.38,268.38,0,0,0,31.7,1.08q8.76-.24,17.47-1A193.79,193.79,0,0,1,276.25,534.73Zm24.34-2,0,.14c-1.69.23-3.39.42-5.1.56C297.22,533.23,298.91,533,300.59,532.75Zm-.06-.29a267.44,267.44,0,0,1-55.79-.26q-8.1-.87-16.15-2.21a88.55,88.55,0,0,0,14-2.3c1.13-.28,2.25-.58,3.36-.89s2.51-1,3.72-.73c2.28.57,4.57,1,6.87,1.55a231.7,231.7,0,0,0,28,4.12C285.91,531.86,300.53,532.59,300.53,532.46Zm-55.14-7.63a250.26,250.26,0,0,1-41.16-14.62c-6.64-3.07-13.17-6.31-19.62-9.78-1.64-.89-3.29-1.79-4.9-2.74l-2.08-1.21-1.11-.64c-.41-.24-1-.6-.19-.47a18.62,18.62,0,0,1,2.51.77l3,.91c1.71.54,3.42,1.05,5.16,1.51A296.76,296.76,0,0,0,231,507a285.77,285.77,0,0,0,44.16,1.68l2.58-.11a12.57,12.57,0,0,1,2.93-.13c.46.1.16-.16.43.25a1.47,1.47,0,0,1,.13.37c.05.43.19.27-.19.6a18.08,18.08,0,0,1-2.13,1.44c-2.93,1.91-5.9,3.74-9,5.43a119.75,119.75,0,0,1-19.33,8.61,12.9,12.9,0,0,1-1.24.42,2.67,2.67,0,0,1-1.25-.1Zm-52.73-5.51a2.14,2.14,0,0,0-.86.18c-.14.06-.47.37-.6.38-.39,0-1-.79-1.34-1.14-.89-.93-1.76-1.88-2.57-2.88-1.5-1.85-3-3.72-4.33-5.69a116.91,116.91,0,0,1-7.67-12.88c-.1-.19-.73-1.05-.06-1,.22,0,.93,1.09,1.13,1.31.9,1,1.82,2.06,2.75,3.08,1.7,1.88,3.45,3.72,5.23,5.54,3.44,3.54,7.08,6.88,10.85,10.07a110.89,110.89,0,0,0,13.62,9.68c-3.3-.8-6.57-1.66-9.84-2.58l-2.33-.67a5.72,5.72,0,0,1-1.44-.43c-.42-.28-.27-.07-.25-.65A2.3,2.3,0,0,0,192.66,519.32Zm1.62,3.91c.22-.22.14-.35.43-.33a3.53,3.53,0,0,1,.78.45l1.48.79C196.06,523.85,195.17,523.54,194.28,523.23Zm3.78,1.48c1,.52,2.11,1,3.12,1.52q-4.2-1.12-8.35-2.37c.46,0,.83-.43,1.22-.48a4.92,4.92,0,0,1,1.37.46Zm-7.62-2.81c-2.3-.81-4.56-1.7-6.84-2.55,2.29.62,4.57,1.24,6.87,1.82A1.63,1.63,0,0,0,190.44,521.9Zm-3.9-2a45.68,45.68,0,0,1-5.75-1.69c-1.89-.76-3.78-1.51-5.65-2.33-3.62-1.57-7.22-3.16-10.79-4.86-7.23-3.45-14.25-7.29-21.19-11.28a4,4,0,0,0,.73-.56c.38-.29.25-.31.75,0l2.55,1.5c1.4.81,2.82,1.59,4.24,2.38,3.11,1.74,6.28,3.42,9.47,5,6.16,3.06,12.38,6,18.74,8.61,1.81.74,3.63,1.48,5.45,2.2,1,.38,1.95.75,2.93,1.11l1.26.48a5.73,5.73,0,0,0,1.23.49C189.18,520.62,187.86,520.26,186.54,519.91Zm-46.54-22c-.36-.22-.72-.44-1.07-.67l1.08.23A.56.56,0,0,0,140,497.86Zm-1.06-.87a8.71,8.71,0,0,1-2.78-1.49c.89.35,1.78.7,2.68,1,.17.06,1.19.31,1.25.46C140.25,497.4,139.1,497,138.94,497Zm.61-.41c-1.27-.47-2.54-.95-3.8-1.46a20.66,20.66,0,0,1-3.21-1.95q-3.56-2.31-7-4.72c4.79,2.91,9.69,5.7,14.69,8.24C140.12,496.88,139.69,496.64,139.55,496.58Zm-3-2.05a138.41,138.41,0,0,1-16-9.61c-.12-.08-.8-.44-.44-.58.15-.06.86.38,1,.45l2.25,1c1.45.65,2.94,1.2,4.41,1.77,1.32.52,3,.85,4,1.78s2.41,2.07,3.64,3.07c1.39,1.12,2.79,2.22,4.19,3.32.12.1,1,.64.66.77-.16.06-1-.54-1.19-.63ZM116,484a3.29,3.29,0,0,1-2.61-.75c-.14-.1-.51-.26-.6-.41s0-.16.06-.51a2.62,2.62,0,0,0,0-1.47,24.62,24.62,0,0,0,2.47,1.22c.67.31.62.21.53.87A2.2,2.2,0,0,0,116,484Zm-7.5-9.28a2.11,2.11,0,0,0-.49.09l-.59-.51-1.19-1c-.66-.56-1.3-1.14-1.94-1.72-1.38-1.24-2.78-2.47-4.14-3.72-2.73-2.51-5.38-5.11-8-7.7,3.72,2.58,7.47,5.11,11.38,7.4,1.92,1.14,3.87,2.27,5.84,3.31,1,.54,2.05,1.07,3.09,1.58.35.18.59.2.63.5s-.16.58-.16.79a2.26,2.26,0,0,0,.45,1.29,12,12,0,0,1-2.71,1.35A2.26,2.26,0,0,0,108.47,474.76Zm2.21,2.65,2.81,2.3,1.47,1.18.74.6c.35.28.65.29.41.74-1.13-.75-2.26-1.53-3.37-2.31l-1.59-1.12c-.12-.09-.75-.4-.79-.56S110.65,477.58,110.68,477.41Zm2.53-4.75c-3.93-2-7.81-4.06-11.56-6.37-1.85-1.15-3.68-2.34-5.51-3.53a33.65,33.65,0,0,1-5.35-3.88c-6.39-6.41-12.48-13.14-18.28-20.1l-1.11-1.36c-.16-.2-1-1-1-1.23s.74-.75.89-.91c.31-.34.6-.69.88-1.06A30.67,30.67,0,0,0,74.83,430c.44-.82.85-1.66,1.25-2.5.22-.48.44-1,.65-1.45a7.26,7.26,0,0,1,.68-1.59c.27-.32-.1-.16.35-.21.13,0,.35.08.5.08.38,0,.93-.33,1.16-.19s.62,1,.77,1.26l1,1.64c4.59,7.56,9.48,14.95,14.58,22.18,2.87,4.08,5.86,8.07,8.92,12,1.48,1.91,3,3.79,4.54,5.66.77.95,1.56,1.88,2.36,2.81l1.19,1.41a3.54,3.54,0,0,1,.59.7l.24.27A2.67,2.67,0,0,0,113.21,472.66ZM36,381.68c-.18,0-.69.22-.83.17s-.38-.84-.47-1.05c-.34-.75-.67-1.51-1-2.27-.61-1.37-1.21-2.76-1.79-4.15-1.18-2.85-2.4-5.68-3.52-8.56C26.15,360.15,24,354.46,22,348.69A162.88,162.88,0,0,0,30.41,364c3,4.9,6.11,9.68,9.38,14.39a254.27,254.27,0,0,0,21.08,26.24q6.62,7.25,13.69,14.05a111.32,111.32,0,0,1-33.68-28.36c-.67-.84-1.33-1.69-2-2.55L38,386.56a3.78,3.78,0,0,1-.4-.56c-.22-.47-.12-.27.2-.68A2.28,2.28,0,0,0,36,381.68Zm.67,4.43c.68,1.88,1.36,3.75,2.06,5.62-.93-1.81-1.78-3.66-2.69-5.49A2.21,2.21,0,0,0,36.66,386.11Zm-2.94-6A44.84,44.84,0,0,1,30.88,375c-.8-1.82-1.6-3.65-2.36-5.49Q26.2,364,24,358.35c-2.92-7.49-5.56-15.1-8-22.74q1.89,4.49,4,8.88c1.36,2.9,2.4,5.87,3.49,8.88q3.39,9.39,7.22,18.58c.36.88,4.3,10,4.24,10C34.5,381.36,34.11,380.71,33.72,380.07Zm1,2a2.61,2.61,0,0,0-.47.41c-.7-1.53-1.41-3.06-2.09-4.6C32.93,379.35,33.87,380.72,34.73,382.1ZM12.08,324.74l0-.9c.28,1,.56,1.89.85,2.84C12.43,326.3,12.29,325.34,12.08,324.74Zm.22,1.68c-.36-.07-.27-.36-.25-.68C12.14,326,12.22,326.2,12.3,326.42Zm104.64,80.27a100.39,100.39,0,0,1-12.43,7.75,6.11,6.11,0,0,1-1,.49c-.51.17-.23.11-.67,0a9.5,9.5,0,0,1-1.71-.74c-1.25-.54-2.49-1.1-3.73-1.67-2.22-1-4.43-2.11-6.61-3.23q-6.68-3.44-13-7.45L76.45,401c-.38-.25-1.25-.59-1.49-1a5.7,5.7,0,0,1-.23-1.73c-.1-.7-.19-1.41-.28-2.11-.33-2.46-.64-4.93-.94-7.39q-1-7.84-1.79-15.71c-.28-2.6-.56-5.21-.81-7.82-.12-1.25-.24-2.5-.37-3.75l-.06-.65,0-.33c-.14-.3,0-.44.29-.4a5.58,5.58,0,0,1,.58-.25q.3-.42.51.09l.4.42c7,7.53,14.27,14.79,21.55,22.06,4.06,4.06,8.28,8,12.5,11.88q3.27,3,6.61,6l3.31,2.94c.17.15.63.42.72.63s-.17.52-.3.93A2.11,2.11,0,0,0,116.94,406.69Zm195.77,63.45a6.72,6.72,0,0,1-2,.75,16.49,16.49,0,0,1-2.7-.28l-5.34-.59c-3.46-.37-6.9-.9-10.35-1.37-7-.95-14-2.3-21-3.65A394,394,0,0,1,230,454.37c-7.54-2.33-15-4.84-22.41-7.64a2.49,2.49,0,0,0,.86-.47c.17-.15.45-.74.58-.78s1,.38,1.15.44l1.4.54c1.66.64,3.34,1.25,5,1.86q5.27,1.92,10.6,3.69,10.34,3.45,20.85,6.32A313.65,313.65,0,0,0,290.18,467c4,.51,7.94,1.06,11.93,1.44,1.94.18,3.89.36,5.83.52,1,.08,2,.14,3,.2a4.44,4.44,0,0,1,1.47.11C312.67,469.42,312.56,469.74,312.71,470.14Zm7.42,1.72a183.73,183.73,0,0,0,22.13,8.23l2.75.79a6.37,6.37,0,0,1,1.46.41c.14.44-1.12.37-1.38.4-2,.17-3.94.36-5.92.48-4.09.26-8.19.48-12.29.59-4.66.13-9.31.12-14,.06q.86-5.62,1.7-11.26a10,10,0,0,0,1.22,0c.45,0,.92.08,1.37.11Zm-4.24-.55a2.22,2.22,0,0,0,.64-.5c.37-.43.25-.48.81-.22l2.2,1C318.32,471.52,317.11,471.4,315.89,471.31ZM422.2,447.2A225.83,225.83,0,0,0,463,428.88q5.31-3.06,10.41-6.45c.24.38.47.78.74,1.15s.3.4-.07.87a2.27,2.27,0,0,0-.19,2.4c.1.33.24.21.11.51s-.41.37-.57.52l-1.15,1L469.89,431c-3,2.68-6.22,5.2-9.43,7.63A183.89,183.89,0,0,1,440,452.28c-3.68,2.09-7.37,4.13-11.14,6.06-3.35,1.73-7.2,2.68-10.8,3.76a233.19,233.19,0,0,1-22.74,5.53,266,266,0,0,1-27.4,3.73c7.32-4.3,14.58-8.74,21.59-13.55.84-.58,1.69-1.16,2.55-1.73a11.37,11.37,0,0,1,1.29-.89,7.22,7.22,0,0,1,1.67-.45q3.19-.72,6.38-1.51,6.3-1.56,12.52-3.42c1.09-.32,2.18-.66,3.26-1a5.15,5.15,0,0,1,.72-.22c.05,0,.31.59.36.66a2.26,2.26,0,0,0,3.94-2.05Zm76.32-44.79c-3.36,6.42-6.82,12.78-10.59,19-.5.8-1,1.6-1.48,2.41a10.92,10.92,0,0,1-1.63,1.9c-1.21,1.23-2.45,2.42-3.71,3.6-.29.27-.62.69-.92.68s-.63-.4-.88-.47a2.29,2.29,0,0,0-1.82.27,2.33,2.33,0,0,0-1,1.41,2.23,2.23,0,0,0,.06,1.2c.22.62.39.52-.19.95-.05-.83-.11-1.65-.16-2.48,0-.43-.05-.86-.08-1.29,0-.23-.21-1.36-.07-1.51s.61-.14.75-.21a2.31,2.31,0,0,0,.81-.61,2.23,2.23,0,0,0,.5-1.72,2.3,2.3,0,0,0-.36-.92,1.69,1.69,0,0,0-.27-.32c-.29-.15-.28-.31,0-.5a11.43,11.43,0,0,1,1.67-2.17c1.15-1.5,2.29-3,3.42-4.52.55-.76,1.06-1.58,1.66-2.3a12.4,12.4,0,0,1,2-1.72c1.39-1.1,2.76-2.23,4.12-3.37Q494.58,406.18,498.52,402.41ZM484.84,414a334.61,334.61,0,0,0,32-54.46c2.52-5.43,5-10.89,7.22-16.45-1.89,5-3.61,10.08-5.55,15.08s-4,10.12-6.16,15.12S508,383.09,505.75,388q-1.71,3.62-3.49,7.2c-.57,1.13-1.14,2.26-1.72,3.39a16.74,16.74,0,0,1-2,3.61,81,81,0,0,1-6.64,6Q488.43,411.16,484.84,414Zm-.68,14a11.61,11.61,0,0,1,2.41-2.28c.79-.67,1.58-1.34,2.35-2,1.68-1.48,3.31-3,4.92-4.57,3.26-3.17,6.35-6.48,9.36-9.9-2.9,3.94-5.86,7.82-9,11.55-.81,1-1.61,1.93-2.44,2.87a14.09,14.09,0,0,1-2.52,2.17,36.28,36.28,0,0,1-6,3.66C483.54,428.92,483.85,428.42,484.16,427.93Zm-1.3,1.66-1.56.78c-.1.05-.48.31-.59.28-.47-.13.39-.62.44-.66,1-.74,1.93-1.48,2.88-2.24C483.67,428.38,483.25,429,482.86,429.59Zm1.5-2.36c-1.34.94-2.62,2-3.91,3-.1-.25,2.12-2.1,2.41-2.39.89-.87,1.84-1.71,2.68-2.63C485.15,425.91,484.76,426.57,484.36,427.23ZM463.48,449.7a158.6,158.6,0,0,1-40.41,21.72,265.7,265.7,0,0,0,42.52-28.23c3.61-3,7.14-6,10.64-9.09.06.79-.67,1.36-1.16,2s-1.11,1.37-1.66,2.05c-1.06,1.32-2.15,2.63-3.25,3.92C468,444.61,465.75,447.19,463.48,449.7Zm0,.27c3.54-2.7,7.05-5.42,10.41-8.35,0,.55.19.6-.17,1.05l-.9,1.15c-.69.88-1.38,1.74-2.09,2.6-1.3,1.57-2.6,3.13-3.92,4.68-2.78,3.29-5.69,6.48-8.63,9.63-5.64,6-11.58,11.73-17.71,17.25-1.55,1.4-3.16,2.73-4.74,4.09a22.08,22.08,0,0,1-4.69,3.56c-1.77.84-3.58,1.57-5.39,2.3l-1.27.5a5.63,5.63,0,0,1-1.37.49c-.57-.05-.4-.45-.05-.73l1.25-1c6.55-5.27,12.9-10.73,19.06-16.45C450.38,464.17,457.07,457.16,463.51,450ZM308.93,507.09c.08-.64.42-.5,1-.56l1.51-.17c1.06-.12,2.11-.27,3.17-.4,2.17-.26,4.33-.56,6.5-.88,4.35-.65,8.68-1.37,13-2.2-1.37,1.79-2.73,3.59-4.17,5.31a29.33,29.33,0,0,1-2.13,2.57c-.45.44-.82.35-1.46.36l-1.95,0c-4.79.06-9.56-.1-14.34-.36A2.24,2.24,0,0,0,308.93,507.09Zm38.44-23.48c-3.41,5.39-6.95,10.7-10.69,15.86l-1.2,1.63c-.36.49-.81,1.38-1.34,1.62a10.72,10.72,0,0,1-2.27.43l-2.43.44c-3.16.53-6.31,1-9.48,1.48-3.63.52-7.27.94-10.91,1.37,1.25-7,2.38-14.06,3.47-21.11.08-.51.16-1,.23-1.54s0-.78.71-.77c1,0,2.07.06,3.11.07,1.54,0,3.08,0,4.61,0,4-.05,7.92-.15,11.87-.39,4.43-.27,8.92-.28,13.32-.92A2.28,2.28,0,0,0,347.37,483.61Zm.18.12c.31.23-2,4.66-2.28,5.24-.91,1.95-1.83,3.9-2.78,5.83q-1.29,2.67-2.66,5.31a11.5,11.5,0,0,1-.7,1.35c-.32.46-.72.43-1.3.55-1.08.23-2.17.42-3.25.63C339,496.4,343.41,490.18,347.55,483.73Zm-18.47,25.85c1.42-1.67,2.78-3.38,4.11-5.11.28-.36.56-.73.83-1.1a1.63,1.63,0,0,1,1.37-.72c1.16-.22,2.32-.46,3.49-.7q-1.92,3.63-4,7.2a6.88,6.88,0,0,1-.92,1.58c-.38.33-1.26.22-1.8.24-1.44,0-2.89.09-4.33.12C328.26,510.59,328.67,510.08,329.08,509.58Zm5.32.81q1.41-2.36,2.73-4.77c.4-.72.79-1.46,1.19-2.18.16-.31.33-.61.48-.91.32-.62.4-.65,1.09-.79,3.63-.76,7.26-1.58,10.86-2.47q2.76-.67,5.49-1.41a9.11,9.11,0,0,1,1.14-.3c.56,0,.47.05.81.52.46.63,1,1.24,1.43,1.87a57.31,57.31,0,0,0,6.68,7.33,240.13,240.13,0,0,1-32.21,3.61Zm23.38-13.22c-1.7-2.41-3.27-4.88-4.77-7.41-.73-1.22-1.4-2.47-2.08-3.72-.29-.55-.57-1.09-.85-1.65l-.16-.32c-.25-.23-.23-.39.07-.47.19-.29.51-.46.68-.8.06-.13.11-.56.2-.64s.46-.11.82-.08c.79.05,1.58.09,2.36.15,1.55.11,3.1.17,4.64.21,2.92.08,5.84.09,8.76,0A170,170,0,0,0,402,478a175.46,175.46,0,0,0,18.77-5.53,303.1,303.1,0,0,1-48.92,20.62c-2.37.77-4.75,1.49-7.13,2.21q-1.71.51-3.42,1C360.83,496.45,358,497.49,357.78,497.17Zm75.28-40a182.57,182.57,0,0,0,39.68-20.95,191.58,191.58,0,0,1-35.13,21.27,245.22,245.22,0,0,1-38.26,14.39c-7.32,2.1-14.73,3.75-22.19,5.31a221.57,221.57,0,0,0,44.27-15c1.9-.89,3.83-1.74,5.7-2.71A60.37,60.37,0,0,1,433.06,457.19ZM429,458.48a209.22,209.22,0,0,0,39.58-26.12c1.48-1.22,2.88-2.54,4.32-3.81l.91-.8c.52-.47.43-.2,1,.08.23.12.92.13,1,.26s.06.77.07.94c.05.89.1,1.78.16,2.67a8.42,8.42,0,0,1,.09,1.41c0,.43.12.19-.24.55a4.36,4.36,0,0,1-.55.41q-2.19,1.62-4.43,3.16a174.33,174.33,0,0,1-18.67,11.16A192.28,192.28,0,0,1,429,458.48Zm-3.07,1.36a201.73,201.73,0,0,1-28.27,11.45,218.84,218.84,0,0,1-29.81,7.59c-5.14.87-10.32,1.56-15.51,2.13-.32,0-1.49.3-1.57,0s.88-.67,1.2-.83l3.31-1.73c2.3-1.2,4.55-2.49,6.83-3.74,1.06-.59,2.13-1.18,3.18-1.79l1.58-.93a4.66,4.66,0,0,1,2.21-.5c2.6-.21,5.19-.51,7.79-.81,5.28-.61,10.56-1.35,15.79-2.34a229.36,229.36,0,0,0,33.55-8.62Zm-66.64,20.5-8.43,1Q355.09,480.91,359.3,480.34Zm4.52-6.8c-3.17,1.79-6.37,3.55-9.61,5.23l-2.3,1.21c-.21.1-1.1.73-1.3.67s-.42-.54-.54-.64a4.75,4.75,0,0,0-1-.47c-.26.07-.36,0-.3-.22s0-.38,0-.58c0-1,0-1.92,0-2.89a10.92,10.92,0,0,1,0-2.91v-.39h.78l1.55,0c1.71,0,3.41-.12,5.12-.2,3.65-.17,7.32-.56,11-.68C366,472.26,364.92,472.91,363.82,473.54Zm56.71-1.2a174.3,174.3,0,0,1-54.68,10c-2.68,0-5.37,0-8.05-.07-1.24,0-2.48-.11-3.72-.19-.49,0-3.16,0-3.16-.42,4.42-.44,8.81-1.14,13.2-1.84s8.79-1.45,13.13-2.36c8.83-1.86,17.54-4,26.21-6.5A229.23,229.23,0,0,0,452,450.19a193.9,193.9,0,0,0,24.16-16.29,283.72,283.72,0,0,1-42.24,31.19c-2.21,1.31-4.42,2.62-6.66,3.88A44.06,44.06,0,0,1,420.53,472.34Zm62.85-56.64c-1.43,2-2.9,3.9-4.38,5.83l-1.06,1.37a4,4,0,0,1-.59.76c-.4.29-.09.21-.58.09a2.9,2.9,0,0,0-1.27-.2c-.26,0-.53.28-.76.3s-.28-.1-.49-.39-.76-.92-.57-1.25,1.05-.7,1.42-.95c1-.68,2-1.36,3-2.05q3-2.11,5.91-4.35Zm-97,44c-2.73,2-5.75,3.77-8.64,5.54s-5.7,3.52-8.6,5.2a5.38,5.38,0,0,1-2.36,1l-2.27.18c-1.78.13-3.56.24-5.34.34-3.48.19-7,.31-10.45.39,0-1.81,0-3.61,0-5.42,0-.91,0-1.82,0-2.73v-1.37c0-.49-.15-1.2.19-1.39a3.9,3.9,0,0,1,1.37-.1l1.36-.11,2.71-.22q2.79-.24,5.58-.53,10.71-1.12,21.31-3,6-1.06,11.93-2.35Q389.76,457.48,386.34,459.73ZM349.6,483.86a137.09,137.09,0,0,0,8.06,13.48c-6.12,1.56-12.23,3.19-18.44,4.38,1.69-3.22,3.3-6.48,4.86-9.76q1.21-2.56,2.4-5.13c.35-.76.69-1.52,1-2.29s.19-.59.84-.5A2.4,2.4,0,0,0,349.6,483.86Zm-3.08-2.77a194.68,194.68,0,0,1-25.78-9.19c7.29.48,14.6.75,21.91.75,2,0,3.89-.06,5.84-.09,0,1.81,0,3.61,0,5.42a4.92,4.92,0,0,1,0,1.15c.13.33,0,.47-.28.41a2,2,0,0,0-.53.17A2.27,2.27,0,0,0,346.52,481.09Zm-33.2-2.34c-.19,1.18-.36,2.37-.54,3.56-.09.56,0,.37-.47.5a4,4,0,0,1-1,0l-2.16-.05c-2.69-.06-5.37-.16-8.06-.28q-8.17-.39-16.31-1.16c6.15-2.13,12.24-4.38,18.27-6.84,1.55-.63,3.1-1.26,4.64-1.92l2.18-1a4.41,4.41,0,0,1,1.05-.46,6.77,6.77,0,0,1,1.09.09c.35,0,2.14-.05,2.37.3s-.27,1.84-.33,2.23Zm-2-7.79c.3-.14,1-.61,1.3-.58s.53.51.85.74ZM209.48,447.67c12.52,4.65,25.3,8.65,38.21,12.06a403.47,403.47,0,0,0,40.27,8.5q11.25,1.77,22.58,2.86c-8.05,3.53-16.26,6.71-24.56,9.59a14.82,14.82,0,0,1-1.42.48,4.48,4.48,0,0,1-1.46,0l-3.51-.37c-2.22-.25-4.43-.51-6.63-.8-4.33-.57-8.67-1.19-13-1.93q-13.11-2.22-26.05-5.41c-1.08-.26-2.15-.53-3.23-.81l-1.52-.39a4,4,0,0,1-.76-.2,3.44,3.44,0,0,1,.08-.59,2.28,2.28,0,0,0-3.34-1.87c-.22.12-.6.69-.78.73s-1.12-.69-1.34-.83c-1-.59-1.91-1.2-2.87-1.8-1.82-1.14-3.61-2.35-5.42-3.52-4-2.58-7.91-5.29-11.81-8l-.58-.41c-.47-.33-.57-.23-.41-.73a10.26,10.26,0,0,1,.88-1.63c.57-1.06,1.14-2.12,1.7-3.19.24-.47.48-.94.73-1.41l.34-.67.26-.5c0-.23.18-.24.39-.05A10.11,10.11,0,0,1,209.48,447.67Zm-33.39,47a219.35,219.35,0,0,0,41.55.92c7.11-.54,14.2-1.42,21.24-2.58q5.43-.9,10.81-2l1.36-.29a4.88,4.88,0,0,1,1.36-.29c.65.13,1.53,1,2.08,1.41,1.39.95,2.83,1.83,4.25,2.74,5.9,3.8,12,7.4,18.2,10.6.8.41,1.6.8,2.39,1.21l.93.48a4.6,4.6,0,0,1,.63.31c.35.27.2.05.2.45,0,1-.75.68-1.54.72l-2.54.11c-3.6.15-7.2.26-10.81.27a322.06,322.06,0,0,1-43.33-2.93,256,256,0,0,1-42.39-9.34l-2.6-.79-1.12-.35a4.43,4.43,0,0,1-.75-.24A3.61,3.61,0,0,1,176.09,494.67Zm0-.55a113.54,113.54,0,0,0,32.66-12.26c5.07-2.79,10-5.8,14.76-9.07a4.3,4.3,0,0,1,.64-.44c.56-.23.28-.17.73.2a2.18,2.18,0,0,0,1.68.49c.52-.07.79-.41,1.23-.58l.19-.2.59.46.92.74q3.47,2.78,7,5.46c5.13,3.91,10.37,7.65,15.69,11.3-19.74,4.14-39.83,6.57-60,5.6-2.75-.13-5.47-.31-8.21-.52-1.42-.12-2.84-.23-4.26-.4l-2.21-.27C176.93,494.57,176.14,494.68,176.05,494.12Zm76.35-4q-7.17-4.89-14.11-10.09c-2.23-1.69-4.46-3.38-6.65-5.12l-1.77-1.4a7.86,7.86,0,0,1-1.51-1.21c-.23-.31-.41-.31-.06-.68s-.32-.2.47-.14a17.58,17.58,0,0,1,2.45.62c11.14,2.75,22.35,5.2,33.71,6.88,6.27.92,12.55,1.68,18.85,2.4-5.11,1.67-10.23,3.33-15.42,4.75-2.55.7-5.1,1.4-7.68,2C257.93,488.89,255.14,489.44,252.4,490.16Zm-48.59-25a2.27,2.27,0,0,0-.83.16c-.18.08-.43.34-.58.36-.37,0-1.05-.86-1.37-1.2-.89-.9-1.78-1.81-2.65-2.73-.35-.36-.36-.26-.21-.73a4.83,4.83,0,0,1,.45-.8c.34-.6.68-1.2,1-1.81.7-1.24,1.38-2.49,2.06-3.75,6.36,4.46,12.78,8.85,19.37,13l2.33,1.46c.19.13.39.25.59.37s.38.2.19.42c0,.64-.41.45-.89.4-1.87-.23-3.73-.5-5.59-.74-3.9-.49-7.78-1.14-11.65-1.81A2.26,2.26,0,0,0,203.81,465.19Zm-32.45,29.28a112.86,112.86,0,0,1-22.71-1.37c-3.77-.58-7.46-1.55-11.15-2.5-1.73-.45-3.43-1-5.13-1.59s-3.09-2-4.43-3.26c-1.58-1.43-3.17-2.86-4.74-4.31-.77-.7-1.52-1.42-2.26-2.15a3.63,3.63,0,0,1-.56-.55c-.23-.36-.28-.27-.14-.74s.23-.88.34-1.32A179.86,179.86,0,0,0,160,491.35c3.8.91,7.59,1.82,11.42,2.56A1.76,1.76,0,0,0,171.36,494.47Zm-2-1.16A200.8,200.8,0,0,1,123.61,478l-1.56-.75a4.93,4.93,0,0,1-1.25-.65c-.35-.43.3-2,.45-2.68.43-2,.83-4,1.13-6a2.25,2.25,0,0,0,2.25-3.35,2.15,2.15,0,0,0-.81-.8c-.06,0-.71-.25-.73-.28s.09-.58.11-.7c.17-1.19.35-2.38.51-3.58.6-4.43.88-8.93,1.55-13.34a378.68,378.68,0,0,0,37.66,39.38c1.85,1.67,3.7,3.32,5.62,4.92l2.85,2.4.14.11c.34.12.38.28.12.49a.61.61,0,0,1-.39.54A7,7,0,0,1,169.39,493.31Zm-47.87-55.55c.64-1.05,1.29-2.1,1.91-3.17.08-.13.36-.77.46-.8s.52.21.64.23a2.08,2.08,0,0,0,1.55-.3c.28.64-.12,2.11-.18,2.82-.08,1-.17,2-.26,3-.17,1.93-.34,3.85-.54,5.78l-1.66-2c-.4-.48-1.65-1.63-1.58-2.13,0-.19.43-.56.52-.78a2.24,2.24,0,0,0,.14-1A2.29,2.29,0,0,0,121.52,437.76ZM97.28,417.84c-4.21-2.43-8.39-4.87-12.44-7.56q-3-2-5.91-4.07a29.46,29.46,0,0,1-3.13-2.28c-.75-.71-.67-2.62-.82-3.67a173.75,173.75,0,0,0,28,15C101.14,416.16,99.22,417,97.28,417.84Zm0,.2c3.93,2.22,8,4.26,12,6.21,2.08,1,4.18,1.93,6.3,2.85,1.07.47,2.16.9,3.25,1.35.74.31.72.35.75,1.11,0,.54.06,1.08.08,1.61A99.8,99.8,0,0,1,81.29,422C86.8,421.79,92.18,420,97.3,418Zm-21.45-14a196,196,0,0,0,21.22,13.84,58.66,58.66,0,0,1-10.78,3.23,24.08,24.08,0,0,1-5.06.69c-.51,0-.59,0-.83-.42a4.31,4.31,0,0,0-.51-.91,2.17,2.17,0,0,0-1.91-.66c-.92-5.33-1.73-10.68-2.49-16Zm4.7,18a4.37,4.37,0,0,1,1.55.61l2.08.89q2.25.94,4.54,1.78,4.36,1.59,8.87,2.78a98.4,98.4,0,0,0,18.11,3c.73.05,1.46.1,2.19.13.5,0,1.59-.09,1.84.22s.09,1.86.11,2.33c0,.85.09,1.69.14,2.54a4.13,4.13,0,0,1,0,1,5.55,5.55,0,0,1-.77.22c-.55.26-.67.69-1.06,1.08s.23.16-.52.13a5.52,5.52,0,0,1-1-.28c-.81-.23-1.62-.45-2.43-.7a155.69,155.69,0,0,1-17.13-6.22c-3.21-1.41-6.43-2.83-9.54-4.46-1.43-.76-2.88-1.5-4.3-2.3-.73-.4-1.44-.83-2.16-1.24-.12-.07-.78-.35-.82-.47S80.54,422.33,80.55,422.1Zm39.25,6.73c1.16.46,2.32,1,3.51,1.37-.33.34-.39.92-.74,1.06a4.85,4.85,0,0,1-1.61,0,4.06,4.06,0,0,1-.7,0c-.46-.11-.35-.05-.38-.51C119.85,430.06,119.82,429.44,119.8,428.83Zm.11,2.55c.94,0,1.88.07,2.82.07a2.05,2.05,0,0,0,.17,1.31,2.2,2.2,0,0,0,.4.56c.37.39.44.15.24.68a10.45,10.45,0,0,1-1.05,1.8,7.44,7.44,0,0,1-1,1.58c-.33.28-.1.17-.56.09a3.08,3.08,0,0,1-.71-.14c-.2-.18-.11-1.52-.12-1.81C120.06,434.14,120,432.76,119.91,431.38Zm49.47,59.2c-15.1-12.65-28.58-27-41.46-41.86-.49-.57-1-1.15-1.47-1.73-.31-.38-1-1-1.17-1.43a6.36,6.36,0,0,1,.17-1.78c.07-.68.13-1.35.19-2q.36-3.84.66-7.68c10.5,16.29,21.78,32.17,34.59,46.72,1.87,2.12,3.75,4.23,5.67,6.3,1.75,1.87,3.77,3.65,5.37,5.63C171.07,492,170.23,491.3,169.38,490.58Zm-43-56.82c0-.37.34-.18.7-.3a5.44,5.44,0,0,1,.54-.25c.14,0,.56.85.64,1,.71,1.08,1.42,2.16,2.12,3.24q2,3.06,4.07,6.11c2.72,4,5.48,8.09,8.31,12.07,5.6,7.88,11.34,15.66,17.43,23.17,3.41,4.19,6.85,8.37,10.51,12.35a27.27,27.27,0,0,0-2.17-2.27c-.8-.84-1.58-1.7-2.38-2.55-1.64-1.76-3.25-3.56-4.84-5.37q-4.71-5.38-9.16-11c-6-7.44-11.56-15.16-17-23C132.1,442.64,129.18,438.21,126.33,433.76ZM171,491.26c-10-10.76-18.88-22.68-27.37-34.64q-6.34-8.91-12.35-18.05-1.55-2.32-3-4.65c-.21-.33-.64-.69-.35-.94s.77,0,1.1.14l2.66.8c1.76.54,3.57.94,5.29,1.57s3.71,1.26,5.57,1.89c8.08,2.77,16.27,5.12,24.57,7.14a2.25,2.25,0,0,0,2.31,2.72c1.17,12.77,2.3,25.55,3.48,38.32l.45,4.79a4.59,4.59,0,0,1,.13,1.37c-.08.29.08.09-.13.28a3.77,3.77,0,0,1-.56.15,2.69,2.69,0,0,1-.38.19c-.36.07-.12.18-.46-.08A6.18,6.18,0,0,1,171,491.26Zm-42.84-58.6c.24-.29.18-.39.48-.39a2.82,2.82,0,0,1,.84.33l1.68.65c1.16.44,2.31.91,3.47,1.35C132.51,434,130.35,433.32,128.2,432.66Zm10.14,3.08c5.39,1.31,10.76,2.68,16.22,3.7,2.64.5,5.29.95,7.94,1.4,1.38.24,2.75.44,4.13.62l2,.27a6.12,6.12,0,0,1,.9.12c.08.11-.08.75-.09.87a2.22,2.22,0,0,0-1.39.36,2,2,0,0,0-.47.44c-.13.15-.25.59-.39.68-.33.22-1.42-.21-1.91-.33l-2-.51c-2.79-.69-5.54-1.48-8.31-2.27C149.34,439.5,143.81,437.69,138.34,435.74Zm34.48,46.75q-1-11.57-2.09-23.14c-.17-1.9-.35-3.79-.52-5.69l-.27-2.91a13.63,13.63,0,0,1-.29-3.16c.09-.49-.21-.16.26-.45a2.9,2.9,0,0,1,.41-.16c.14-.08.66-.63.78-.64s1,.72,1.24.87c.41.29.82.58,1.24.86,1.55,1.08,3.09,2.18,4.65,3.24q5,3.39,10,6.64c1.67,1.08,3.34,2.14,5,3.2.8.51,1.61,1,2.42,1.51.35.22.89.42.87.76s-.64,1.1-.86,1.47a177.81,177.81,0,0,1-12,18,98.73,98.73,0,0,1-7.71,8.9c-.26.27-.67.81-1,.77A9.38,9.38,0,0,1,174,492c-.29-.16-.13.11-.3-.21a3.07,3.07,0,0,1-.08-.92c0-.56-.11-1.12-.16-1.67Q173.13,485.85,172.82,482.49Zm22.33-20.38c-5.16-3.22-10.22-6.58-15.29-9.95-2.39-1.59-4.74-3.23-7.09-4.88l-.94-.66-.47-.33c-.22-.08-.22-.21,0-.38a2.87,2.87,0,0,0,.08-1.74,2.24,2.24,0,0,0-1-1.16c-.17-.09-.51-.11-.63-.22s-.08-.57,0-.91c3.49.49,7,.89,10.5,1.24a1.47,1.47,0,0,1,1,.34,7.78,7.78,0,0,1,.85,1l1.56,1.75c1.13,1.25,2.26,2.49,3.38,3.74q3.39,3.73,6.85,7.4,1.76,1.86,3.53,3.7c.2.21.31.27.3.5s-.5.87-.65,1.12c-.25.43-.1.4-.59.26A6.82,6.82,0,0,1,195.15,462.11Zm-13.89-18.9c1.33.13,2.67.31,4,.4a3.06,3.06,0,0,1,1.92.53l1.45,1.09c2.15,1.6,4.3,3.2,6.48,4.76l3.11,2.25c.55.4,1.1.8,1.66,1.19.37.26,1.27.66,1.5,1.05s-1.16,2.52-1.5,3.13c-.67,1.21-1.36,2.41-2,3.62Q189.41,452.35,181.26,443.21Zm16.62,18.34c.83.87,1.67,1.73,2.51,2.59l1.25,1.27c.16.17.49.4.45.59-.09.35-.26.12-.48,0a20.39,20.39,0,0,1-3.09-1.88c-.35-.21-1.23-.54-1.45-.89S197.66,461.93,197.88,461.55Zm6.92-13.1c-1,2-2.15,4-3.17,6-4.95-3.49-9.82-7.06-14.67-10.68,3.65.27,7.31.55,11,.66.9,0,1.83,0,2.73.08a9.67,9.67,0,0,1,2.36.8,7.89,7.89,0,0,1,2.39,1c.43.39.35.33.06.91Zm-1.19-3.19-1.91-.76,2.2.08h.37c.34-.12.47,0,.4.33.16.26.19.59.36.86Zm1.19-1.51q-7.47-2.46-14.84-5.2,7.44,2.61,15,4.94ZM193.38,440c1.86.68,3.72,1.37,5.59,2l3,1a11.49,11.49,0,0,1,2.46.83c.33,0,.43.09.29.33,0,.29-.11.36-.42.22a6.37,6.37,0,0,1-1.57-.05,7.17,7.17,0,0,1-2.59-.45l-5.31-2.12c-7.08-2.84-14.05-5.95-20.94-9.19Q183.58,436.39,193.38,440Zm-16.21-5.67c7.69,3.52,15.47,6.79,23.31,9.95-3-.21-6-.22-9-.43a41.78,41.78,0,0,1-4.48-.31c-1.25-.22-2.67-1.76-3.68-2.54-2.52-1.94-5-3.88-7.54-5.85L174,433.7c-.24-.19-1.83-1.22-1.32-1.46.24-.1,1.82.85,2.08,1Zm-2,.57c3.68,2.9,7.37,5.8,11.12,8.6-1-.09-2-.15-2.92-.25a5.1,5.1,0,0,1-2.53-.49,16,16,0,0,1-1.89-2.13l-1.91-2.18c-1.25-1.43-2.49-2.87-3.73-4.3a5.77,5.77,0,0,1-.86-1c-.3-.16-.33-.31-.09-.46l.56.44Zm5.6,8.08c-2.91-.28-5.83-.55-8.72-1-.32,0-2.12-.07-2.3-.32s.17-1.72.21-2.11c.14-1.44.27-2.88.41-4.32,0-.35,0-1.56.17-1.8l.71-.07c.11,0,.72-.43.79-.43.32,0,1.28,1.49,1.53,1.77l1.38,1.61Q177.85,439.67,180.78,443Zm-10.7-6.63c-.17,1.77-.34,3.55-.52,5.32-6-.85-12-1.75-17.88-3s-11.93-2.27-17.48-4.47c-1.28-.51-2.59-1-3.87-1.5-.38-.15-1.77-.5-1.71-.88s.5-.14.8-.11l1.4.16c2.7.31,5.42.5,8.13.62,5.8.26,11.57.25,17.37,0,3.16-.13,6.34-.35,9.48-.68a8.46,8.46,0,0,1,2.38-.25c.43.11.12,0,.35.36a6.92,6.92,0,0,0,.46.78,2.16,2.16,0,0,0,.61.47,2.1,2.1,0,0,0,.49.2c.31,0,.39.11.23.42A10.54,10.54,0,0,1,170.08,436.34Zm-1.65-5.46a235.89,235.89,0,0,1-35.51-6c1.36-1.29,2.69-2.61,4-3.94.64-.65,1.27-1.31,1.9-2l.55-.57.21.16c.35.09.61.36,1,.41a2.2,2.2,0,0,0,1.75-.55,1.88,1.88,0,0,0,.35-.39c.09-.29.25-.31.48-.05a5.08,5.08,0,0,1,1,.52c1.59.82,3.18,1.64,4.78,2.43,3.23,1.6,6.47,3.18,9.75,4.67s6.57,3.2,10,4.48A2.42,2.42,0,0,0,168.43,430.88Zm0,.19a.32.32,0,0,0,0,.27,187.68,187.68,0,0,1-39.72.09,2.14,2.14,0,0,0-.87-1.93c1.4-1.17,2.72-2.42,4.07-3.64.21-.18.61-.71.86-.78a4.75,4.75,0,0,1,1.43.35l2.5.6q5.07,1.17,10.2,2.11Q157.55,430.09,168.4,431.07Zm-39.62-2.65c-.21.19-.86.94-1.14,1s-.82-.4-1.21-.4c-.72,0-1.25.47-1.93.6-.6-2.42-1.2-4.84-1.77-7.27,3.24,1,6.5,1.87,9.78,2.7Q130.68,426.76,128.78,428.42Zm-5.47-2.82.54,2.21c.08.29.59,1.58.46,1.82,0,0-.72.4-.79.41a4.37,4.37,0,0,1-1-.39l-1.87-.71c-.17-.07-.74-.17-.84-.34a3.25,3.25,0,0,1,0-.94c0-.71-.07-1.41-.1-2.12-.07-1.41-.13-2.83-.18-4.25l1.52.49c.34.11,1.29.23,1.52.48s.27,1.11.35,1.45Zm-3.72,2.93A157.58,157.58,0,0,1,97.5,418a24.58,24.58,0,0,0,3.07-1.34l1.61-.77c.22-.11.44-.24.66-.33a.93.93,0,0,1,.76-.07,25.54,25.54,0,0,1,3.66,1.49c1.23.49,2.46,1,3.71,1.42,2.44.91,4.9,1.76,7.38,2.58.17.05.81.14.92.29a5,5,0,0,1,0,1.17c0,.64.05,1.29.08,1.93C119.46,425.73,119.52,427.13,119.59,428.53ZM74.87,400.81c.12.91.26,1.81.38,2.71-2.23-1.6-4.38-3.36-6.49-5.12a2,2,0,0,0,1.7-.21c.18-.11.39-.44.55-.49s.55.21.85.42l1.68,1.17a6,6,0,0,1,.92.63C74.79,400.24,74.79,400.3,74.87,400.81Zm-4.13-.67c.78.64,1.59,1.25,2.38,1.87l1.21.93c.24.19.79.44.94.72a5.49,5.49,0,0,1,.22,1.53l.21,1.53c.15,1,.31,2,.47,3.06.3,2,.6,4,.93,6,.16.95.31,1.9.47,2.85.05.25.34,1.11.22,1.28,0-.05-.52.18-.56.17-.36-.06-.55-.5-.74-.77-4.56-6.7-8.91-13.53-13.21-20.4-2.35-3.77-4.68-7.59-6.85-11.46A168.56,168.56,0,0,0,70.74,400.14Zm6.18,20.14c-.39.3-.75-.32-1-.61C76.16,419.82,76.74,420,76.92,420.28Zm-9.89-24a2.37,2.37,0,0,0,.18.87c-2.44-2.05-4.84-4.14-7.17-6.32-1.12-1-2.22-2.1-3.32-3.17a15,15,0,0,1-2.36-3.78q3.47,3.29,7.13,6.35,1.78,1.5,3.63,2.94c.58.46,1.17.92,1.77,1.37l.59.45-.14.23C67.29,395.54,67,395.82,67,396.23Zm-11.29-9.6A184.75,184.75,0,0,1,27.1,349.76a159.68,159.68,0,0,0,22.15,29q1.77,1.83,3.59,3.62a7.59,7.59,0,0,1,1.46,1.74ZM28.17,351.8a201.21,201.21,0,0,0,18.95,25.82c1.77,2.05,3.62,4,5.5,6,.93,1,1.85,1.92,2.81,2.85a15.9,15.9,0,0,1,2.14,3.31c2.85,4.8,5.77,9.56,8.72,14.31,3.28,5.29,6.75,10.47,10.24,15.63-2.84-1.49-5-4.27-7.3-6.53s-4.61-4.72-6.84-7.14c-4.42-4.81-8.7-9.75-12.78-14.85a257.47,257.47,0,0,1-22-32.44c-1.82-3.15-3.54-6.38-5.15-9.64a79,79,0,0,1-3.74-10.36c1.41,2.26,3.59,3.87,5.31,5.85a21.3,21.3,0,0,1,2,3.45C26.69,349.31,27.43,350.56,28.17,351.8ZM16.49,335.58c.51.82,1.12,1.58,1.62,2.41a11.94,11.94,0,0,1,.95,2.65c.56,1.74,1.15,3.47,1.74,5.2C19.9,343.9,19,342,18.11,340c-.42-.95-.82-1.91-1.23-2.87l-.57-1.35C16,335.12,16,334.83,16.49,335.58Zm-.18-.65a2.28,2.28,0,0,0,.72-.76c.35,1.17.74,2.33,1.1,3.5C17.45,336.8,16.9,335.86,16.31,334.93Zm7,8.74a36.81,36.81,0,0,1-4.36-4.89,12,12,0,0,1-1.35-3.47,6.1,6.1,0,0,1-.42-1.36c0-.51.25-.89.11-1.44a2.86,2.86,0,0,0-.61-1,2.55,2.55,0,0,1-.54-1l-1-3.58c-.7-2.4-1.33-4.82-2-7.23a157.65,157.65,0,0,0,10.7,24.5ZM13.61,322.3c.8,2.93,1.63,5.84,2.49,8.76a1.91,1.91,0,0,0-1.42-.2q-1-4.49-1.91-9c-.14-.67-.28-1.34-.41-2,0-.25-.34-1-.17-1.24.43-.61.76,1.26.8,1.42C13.2,320.8,13.4,321.55,13.61,322.3Zm.87,8.57a4.66,4.66,0,0,1-.43-2C14.19,329.55,14.33,330.21,14.48,330.87Zm-1.91-9c.38,1.87.76,3.73,1.16,5.59-.12-.21-.36-.37-.47-.57a6.07,6.07,0,0,1-.35-1.12c-.21-.68-.42-1.36-.62-2a10.91,10.91,0,0,1-.11-3.74C12.3,320.6,12.44,321.23,12.57,321.85Zm.94,8.28c.1.22.21.43.31.64.25.24.21.4-.1.48-.22.34-.58.51-.76.92-.07-.22-.51-1.23-.41-1.42S13.32,330.33,13.51,330.13Zm1.55,5.22a2.13,2.13,0,0,0,.61-.12l.24.76c.12.38.24.76.37,1.13.28.89.57,1.77.86,2.64.54,1.62,1.1,3.23,1.65,4.84,1.12,3.25,2.29,6.48,3.48,9.7,2.48,6.67,5.1,13.34,8,19.84a87.34,87.34,0,0,1-4.81-9.2c-1.58-3.18-3-6.45-4.39-9.74a212,212,0,0,1-7.32-20.32A2.22,2.22,0,0,0,15.06,335.35Zm22.15,50.5a119.75,119.75,0,0,0,20.09,21.5,104.17,104.17,0,0,0,11.77,8.48c1,.62,2,1.22,3,1.81a22.93,22.93,0,0,1,3.42,1.95c.18.16.35.34.52.5l.26.25c.32.15.35.31.07.51-.11.48-.41.81-.38,1.36a2.23,2.23,0,0,0,.37,1.12,2.36,2.36,0,0,0,.53.56c.35.26.38.1.34.55a6.83,6.83,0,0,1-.71,1.68c-.22.48-.43,1-.66,1.44-.48,1-1,2-1.52,3a19.41,19.41,0,0,1-4,5.5c-9.72-12.38-19-25.1-26.82-38.77C42.88,396.25,37.1,385.9,37.21,385.85Zm75.61,85A347.16,347.16,0,0,1,81.6,427.37l-1.72-2.81c-.29-.48-.45-.67.09-1s0-.17.49-.07a3.86,3.86,0,0,1,.92.52c1.81,1.06,3.66,2,5.51,3A122.2,122.2,0,0,0,99,432.64c4.08,1.65,8.21,3.18,12.4,4.52,1,.33,2.1.66,3.15,1l1.4.4a6.72,6.72,0,0,1,1.91.53c.26.23,0,.08.11.43s0,.44,0,.67a2.28,2.28,0,0,0,.49.92,4.28,4.28,0,0,0,1,.65c.28.18.27,0,.37.3a3.67,3.67,0,0,1-.15,1.16c-1.17,9.47-2.28,19-4.19,28.37a2.78,2.78,0,0,0-1.37.2c-.48.12-.1.37-.61,0A6.39,6.39,0,0,1,112.82,470.89Zm4.75-10.22c1-6.25,1.7-12.53,2.5-18.81a2.57,2.57,0,0,0,1.17-.22c.47-.11.09-.37.59.06a4.22,4.22,0,0,1,.47.56c.69.84,1.39,1.68,2.08,2.53.43.52.71.71.64,1.42l-.18,1.74-.36,3.37c-.46,4-1,8.08-1.58,12.1a2.27,2.27,0,0,0-2.47,1.72,2.23,2.23,0,0,0,.31,1.74,2.27,2.27,0,0,0,.52.55c.19.14.67.23.8.38s-.12,1.52-.21,2c-.14.79-.29,1.57-.44,2.36-.29,1.43-.65,2.85-1,4.27l-2.27-1.16c-.35-.19-.86-.33-.9-.66s.19-.72.14-1.1a2.26,2.26,0,0,0-1-1.55c-.16-.11-.68-.22-.74-.33s.18-.94.21-1.13C116.55,467.22,117.09,464,117.57,460.67Zm-.45,14.23c.85.45,1.72.89,2.59,1.34.52.27.72.24.57.84-.11.41-.24.82-.34,1.23l-1.7-1.66c-.28-.27-.56-.54-.83-.82C117,475.38,116.82,475.43,117.12,474.9Zm2.91,3.78c3.47,3.4,7.09,6.65,10.78,9.82a97.6,97.6,0,0,1-9.15-3.68,4.59,4.59,0,0,1-1.12-.52c-.37-.32-.25-.15-.17-.71a2.19,2.19,0,0,0-.5-1.72c-.12-.15-.7-.48-.74-.6s.22-.58.27-.7Q119.74,479.64,120,478.68Zm15.47,13.54c-1.28-1-2.52-2.14-3.78-3.2a115.66,115.66,0,0,0,26.61,5.45c2.38.19,4.75.33,7.14.35.89,0,1.78,0,2.67,0,.58,0,1.15,0,1.73-.06.22,0,1.77-.19,1.58.18s-2.16.71-2.55.83c-1.09.33-2.2.62-3.31.9a52,52,0,0,1-6.19,1.19,57.69,57.69,0,0,1-14.91,0,2.26,2.26,0,0,0-3.44-2.13c-.09.06-.47.45-.52.45s-.49-.38-.59-.46l-1.48-1.15C137.47,493.8,136.48,493,135.5,492.22ZM189,520.14a272,272,0,0,1-41.83-19.72l-2.31-1.35c-.34-.2-.85-.4-.45-.84.24-.27,1-.06,1.42,0a45.24,45.24,0,0,0,5.82.35,61.17,61.17,0,0,0,10.37-1,54.9,54.9,0,0,0,5.37-1.23c.86-.23,1.71-.49,2.56-.75a6.34,6.34,0,0,1,1.25-.42c.06,0,.24-.13.29-.11s.4.63.45.68a2.71,2.71,0,0,0,1.61,1c.3,0,.94-.24,1.15-.16s.57,1.08.71,1.34c.9,1.72,1.83,3.42,2.81,5.1a110.2,110.2,0,0,0,6.52,9.93,54.72,54.72,0,0,0,3.75,4.56,21.51,21.51,0,0,1,2.23,2.36c.15.22.21.1.17.33a3.32,3.32,0,0,1-.33.5C190.33,520.8,189.2,520.22,189,520.14Zm-13.7-27.38c8.64-8.64,15.41-18.88,21.53-29.4L201,465.9c.31.18.74.34.77.62s-.21.58-.23.81c-.06.72.34,1,.56,1.63.12.31.17,0,.07.33,0,.12-.27.32-.35.41l-.69.85c-.51.61-1,1.21-1.54,1.81-1,1.16-2.07,2.3-3.11,3.45a109.28,109.28,0,0,1-13.62,12.54c-1.3,1-2.65,1.95-4,2.9-.68.47-1.35.93-2,1.35-.19.11-.87.67-1.07.63A3.25,3.25,0,0,1,175.3,492.76Zm.92.41a94.26,94.26,0,0,0,17.94-14.66c2.62-2.73,5.18-5.49,7.59-8.41a4,4,0,0,1,.46-.56c.56-.46,0-.2.47-.11s.67.33,1.13.34a2.23,2.23,0,0,0,1.76-.9c.13-.17.31-.84.43-.93s1.28.22,1.53.27l3.06.52c4.45.73,8.92,1.32,13.4,1.86a2.52,2.52,0,0,0,.13,1c0,.35.21.23,0,.52-.07.12-.37.26-.49.34-.84.59-1.7,1.15-2.55,1.73-1.47,1-3,2-4.46,2.89-3.09,1.91-6.23,3.75-9.45,5.44a128.87,128.87,0,0,1-20.28,8.64c-2,.66-4.1,1.25-6.16,1.78-1,.26-2,.45-3,.67a6.28,6.28,0,0,1-1.6.34C175.76,493.8,175.8,493.4,176.22,493.17Zm105.09,14a250.17,250.17,0,0,1-28.63-16.8q11.46-2.55,22.68-6,2.82-.86,5.61-1.77l2.79-.94a7.6,7.6,0,0,1,3,0c4,.36,8.08.67,12.13.89,4.58.24,9.16.37,13.74.43-1.08,7.1-2.2,14.19-3.44,21.26-.09.54-.15,2-.57,2.21a4.16,4.16,0,0,1-1.28.13l-1.46.15c-1.75.18-3.49.33-5.24.46-3.63.28-7.26.53-10.91.7-1,.05-2.06.08-3.09.11a5,5,0,0,1-.77,0c-.44-.05-.23.06-.42-.25s-.21-.66-.42-.94A2.26,2.26,0,0,0,281.31,507.14Zm25.32,3.47c-7.07-.48-14.1-1.17-21.11-2.17.06-.44,5.11-.37,5.8-.41q2.94-.15,5.86-.35c3.89-.26,7.75-.7,11.63-1,0,.14-.05.27-.07.41A2.23,2.23,0,0,0,306.63,510.61Zm-21.15-2c6.34.9,12.74,1.71,19.14,2.07a7.25,7.25,0,0,1,2.14.11c.22.09.41.36.65.47.54.27.41.08.43.65a10.16,10.16,0,0,1-.38,2c-.14.73-.28,1.46-.43,2.18-.58,2.88-1.19,5.74-1.92,8.58A95.33,95.33,0,0,1,294,517.35c-1.76-1.3-3.43-2.74-5.11-4.15-.87-.73-1.71-1.49-2.54-2.26a6.15,6.15,0,0,1-1.12-1c-.21-.37-.13-.08-.06-.45S285.43,508.93,285.48,508.63Zm20,15.41c1-4.15,1.87-8.34,2.64-12.54.88.15,1.1-.31,1.84-.51a8.4,8.4,0,0,1,2.33.14c1.7.09,3.4.13,5.1.17,3.33.07,6.67.06,10,0a115,115,0,0,1-10.65,11,74.31,74.31,0,0,1-5.83,4.77c-.49.36-.62.26-1.17,0s-1.25-.63-1.88-.93-1.18-.55-1.76-.86a4.34,4.34,0,0,1-.81-.45C305.23,524.67,305.45,524.17,305.48,524ZM320.54,531a28.9,28.9,0,0,0,3.57.71c-1.56.21-3.11.42-4.68.59A2.26,2.26,0,0,0,320.54,531Zm-.43-2.19a67.92,67.92,0,0,0,8.47-9.54c1.21-1.66,2.35-3.36,3.48-5.07a21.39,21.39,0,0,1,1.67-2.67c.06-.07.15-.34.24-.4a2.9,2.9,0,0,1,1,0l1.93-.1a243.15,243.15,0,0,0,25.8-2.85l1.74-.3a7.63,7.63,0,0,1,1.88-.32c.5.06,1.07.75,1.49,1.1s.95.79,1.45,1.16a30,30,0,0,0,5.86,3.56,288.14,288.14,0,0,1-43.48,14.05c-2,.48-4,.91-6.05,1.36-1,.24-2.1.44-3.15.64a9.32,9.32,0,0,1-1.47.29c-.74,0-.16.14-.45-.19S320.28,529,320.11,528.77Zm46.62-21.35a232.6,232.6,0,0,0,41.35-11.87c1-.39,10.7-4.64,10.72-4.61a303.73,303.73,0,0,1-41.44,21.44,14.62,14.62,0,0,1-1.65.67c-.51.15-.71,0-1.21-.24a27.93,27.93,0,0,1-2.57-1.42A37.81,37.81,0,0,1,366.73,507.42Zm51.75-17.58c0,.16.17.61.12.74s-.27.29-.59.44l-1.29.59c-1.08.5-2.16,1-3.25,1.46-2,.86-4,1.69-6,2.48q-6.22,2.49-12.61,4.55a219.81,219.81,0,0,1-26.52,6.79,5.57,5.57,0,0,1-1.84.34c-.43-.13-1.15-1.06-1.46-1.37-.88-.87-1.73-1.77-2.56-2.7A57.46,57.46,0,0,1,358,497.4a309.39,309.39,0,0,0,42.85-15.09q10.28-4.51,20.19-9.77c1.58-.84,3.38-1.32,5-2,1.82-.74,3.66-1.43,5.46-2.21,3.42-1.49,6.77-3.13,10.09-4.83a164,164,0,0,0,21.18-13,319.83,319.83,0,0,1-35.5,34l-2.69,2.16-1.51,1.19a3.82,3.82,0,0,1-.6.47c-.07,0-.32-.32-.4-.38A2.28,2.28,0,0,0,418.48,489.84Zm.79,1.7a2.27,2.27,0,0,0,2.82.16,2.22,2.22,0,0,0,.82-1.09,2.06,2.06,0,0,0,.14-.77c0-.57-.28-.48.18-.77a10.39,10.39,0,0,1,1.77-.66c.66-.25,1.31-.51,1.95-.77q2.19-.9,4.34-1.89A266,266,0,0,1,405.23,504,117.15,117.15,0,0,0,419.27,491.54Zm1,2.83c2.21-1.58,4.4-3.17,6.56-4.83,2-1.52,3.89-3.4,6.1-4.55-5.07,4.14-10.37,8-15.8,11.62Zm12.48-9.51a271.6,271.6,0,0,0,32.87-32c2.92-3.38,5.75-6.82,8.53-10.32.07.18.28.37.35.55.16.47.35-.18,0,.52a7.1,7.1,0,0,1-.85,1c-.68.84-1.37,1.68-2.06,2.51q-1.86,2.23-3.76,4.41c-2.65,3-5.32,6-8.1,8.92-5.44,5.69-11.11,11.19-17,16.39C439.51,479.65,436.32,482.73,432.72,484.86Zm42-44.91c-.45.41-.41.87-.69,1.33a7.22,7.22,0,0,1-1.4,1.23c-.9.77-1.78,1.55-2.71,2.29-1.86,1.48-3.76,2.91-5.64,4.37,4.16-4.63,8.2-9.4,12-14.3,0,.31.33,1.72.16,1.92s-.94.32-1.21.56A2.2,2.2,0,0,0,474.68,440Zm1.75-5.67c0-.28.48-1.11.79-.88a7.11,7.11,0,0,1-.49.6C476.63,434.11,476.49,434.44,476.43,434.28Zm1-.77c.07.06.81.36.83.39a4.07,4.07,0,0,1-.16.89c-.13.71-.3,1.42-.41,2.13a2.5,2.5,0,0,0-1-.17c0-.53-.1-1.07-.14-1.6C476.44,434.44,477,434.05,477.39,433.51Zm.6,2.66c.15-.75.29-1.49.42-2.24a2.22,2.22,0,0,0,2.46-1.45,2.27,2.27,0,0,0,.13-.77c0-.21-.23-.78-.18-.9s1.53-.71,1.79-.84c-1.54,2.4-3.11,4.77-4.7,7.13C477.73,437,478,436.36,478,436.17Zm.78,0c.77-1.14,1.55-2.29,2.3-3.45s1.3-2.5,2.3-3.17c2.24-1.49,4.65-2.68,6.84-4.26-2,2.19-4,4.37-6,6.45-1.05,1.05-2.09,2.1-3.16,3.13l-1.41,1.35c-.34.32-1.08,1.3-1.5,1Zm3.13-1.91c2-2,4-4,6-6.13.9-.95,1.77-1.93,2.64-2.91A11,11,0,0,1,492,424c.37-.28,1.3-.78,1.49-1.19A204.6,204.6,0,0,1,479,438.74c0-.35-.44-.8-.44-1.08s.68-.81,1-1.1Q480.72,435.44,481.9,434.28ZM479,439c1.14-1.32,2.51-2.53,3.73-3.8s2.61-2.76,3.89-4.17,2.55-2.84,3.79-4.29,2.39-3.06,3.7-4.43,2.68-2.33,4-3.51c1.44-1.33,2.79-2.74,4.13-4.17a88.76,88.76,0,0,0,7.36-9.06A121.11,121.11,0,0,1,496,423.9a103.39,103.39,0,0,1-17,15.69A1.92,1.92,0,0,0,479,439Zm15.07-17c-.84.69-1.68,1.37-2.54,2,5.3-6,9.9-12.52,14.85-18.8A206.22,206.22,0,0,1,494.1,422.06Zm10.43-18.72a200.14,200.14,0,0,1-17.73,20.32c2.59-4.29,5.13-8.6,7.55-13,1.23-2.23,2.45-4.46,3.62-6.72a9.37,9.37,0,0,1,1.6-2.56q1.5-1.47,3-3c.83-.86,1.66-1.72,2.48-2.6l1.15-1.25.25-.27c.14-.34.3-.37.5-.1.3.05.56.29.88.34A2.29,2.29,0,0,0,510,391c-.21-.3-.32-.24-.23-.53s.44-.53.59-.7l1.17-1.41c.77-.95,1.54-1.9,2.29-2.86q2.25-2.89,4.36-5.88a156.84,156.84,0,0,0,8.93-14.26,2.68,2.68,0,0,1,0,1.09,9.68,9.68,0,0,1-.61,1.41c-.35.82-.7,1.63-1.07,2.44-.76,1.72-1.57,3.39-2.48,5q-2.69,4.84-5.62,9.55A221.3,221.3,0,0,1,504.53,403.34Zm22.53-36.16c.11-.29.24-.57.36-.86.36.55-.9,2.29-1.2,2.87Zm3.29-39.39a2.22,2.22,0,0,0,1-.25,14.21,14.21,0,0,1-1,2.1c-.4.83-.8,1.65-1.22,2.47-.79,1.57-1.62,3.11-2.47,4.64-.36-.22,1.32-4.11,1.5-4.64.29-.83.58-1.66.86-2.49l.42-1.24.24-.71A2,2,0,0,0,530.35,327.79Zm-3.61-1.52a8.55,8.55,0,0,1,1.47-.08c.06,0,.33.68.4.77a2.52,2.52,0,0,0,.41.39c.44.33.47.07.38.65a5.37,5.37,0,0,1-.25.74c-.23.67-.45,1.35-.69,2-.38,1.11-.79,2.22-1.19,3.32-.2.57-.4,1.13-.61,1.69,0,.15-.17.76-.31.84a5,5,0,0,1-.82-.11c-.28-1.95-.39-3.93-.54-5.89,0-.49-.08-1-.11-1.47a3.69,3.69,0,0,1-.07-.94c.12-.32.06-.11.37-.27C526,327.55,526.54,327.19,526.74,326.27Zm-2.19,1.8c.13,0,.36,4.08.39,4.49.06.71.13,1.43.2,2.14,0,.35.37,1.58.19,1.85a7.4,7.4,0,0,1-.88.33,2.21,2.21,0,0,0-.58.52,2.17,2.17,0,0,0-.43,1.82,2.13,2.13,0,0,0,.42.9c.1.13.62.45.64.57s-.45.81-.54,1c-.25.44-.49.88-.74,1.31A125.12,125.12,0,0,1,512,359.44a121.38,121.38,0,0,1-29,26.05c-3,1.93-6.09,3.63-9.24,5.25-1.67.87-3.38,1.63-5.09,2.4-.85.39-1.72.75-2.59,1.1l-1.12.43c-.49.19-.54.32-.84-.1a206.27,206.27,0,0,0,49.64-50.82c1.84-2.69,3.65-5.42,5.33-8.22.85-1.41,1.7-2.83,2.52-4.26.42-.71.81-1.44,1.21-2.17a4.27,4.27,0,0,1,.53-1c.06-.37.22-.43.49-.19A2,2,0,0,0,524.55,328.07Zm-57.69,63.15a374.47,374.47,0,0,0,44.93-56.05c.78-1.2,1.54-2.41,2.3-3.62a9.2,9.2,0,0,1,1.23-2c.54-.49,0-.16.59-.15a6.47,6.47,0,0,0,1,.14,2.3,2.3,0,0,0,1.37-.72,2.13,2.13,0,0,0,.42-.65c.07-.15.1-.7.18-.79s1.1-.11,1.33-.14a10.73,10.73,0,0,1,2-.47c.38,0,.25.06.52.39.1.11.45.31.5.44.14.34-.48,1.15-.7,1.56-.74,1.33-1.49,2.66-2.28,4-1.54,2.58-3.11,5.15-4.77,7.66a188.82,188.82,0,0,1-22.13,27.81A215.37,215.37,0,0,1,464,394.41C463.82,394.13,466.5,391.6,466.86,391.22Zm-2.28,4.6c0-.14-.2-.61-.16-.72a5.09,5.09,0,0,1,1.06-.41c.6-.22,1.2-.45,1.79-.69,1.33-.55,2.63-1.18,4-1.77,2.36-1.05,4.67-2.27,6.93-3.53a111.51,111.51,0,0,0,13.53-8.95,119.24,119.24,0,0,0,23-23.4,127.42,127.42,0,0,0,10-15.54c.21.16-1.36,3.45-1.53,3.84-.63,1.53-1.25,3.06-1.89,4.58-1.25,3-2.66,6-4,8.93-2.6,5.73-5.4,11.4-8.4,16.94A350.82,350.82,0,0,1,489,407.72q-1.57,2.26-3.18,4.5a20,20,0,0,1-1.5,2.11,16.73,16.73,0,0,1-2.12,1.62q-4.32,3.23-8.8,6.2A65.47,65.47,0,0,1,466.93,409c-1-2.43-1.83-4.89-2.67-7.35-.19-.57-.37-1.13-.55-1.69a6.28,6.28,0,0,1-.58-1.83c0-.35.54-.47.84-.8A2.22,2.22,0,0,0,464.58,395.82Zm-2.29,2.29s.56-.12.58-.11a4,4,0,0,1,.22.69c.14.46.29.91.43,1.37.3.92.62,1.84.93,2.75.63,1.83,1.31,3.64,2,5.46a83.18,83.18,0,0,0,4.67,10.32c.42.78.82,1.56,1.29,2.31a7.41,7.41,0,0,1,.62,1c0,.07.25.32.23.38a4.81,4.81,0,0,1-.85.56q-2.29,1.51-4.64,2.95-4.65,2.87-9.46,5.49a220,220,0,0,1-20.55,9.85c-3.53,1.48-7.11,2.87-10.71,4.18l-2.78,1-1.4.48a1.59,1.59,0,0,1-.53.18c-.29,0-.24-.15-.43-.42a2.3,2.3,0,0,0-3.64-.11,2.23,2.23,0,0,0-.46,1,4.87,4.87,0,0,0,0,.54c0,.52.14.25-.28.53a6.81,6.81,0,0,1-1.64.51l-1.65.51q-3.33,1-6.67,1.91-6.75,1.85-13.6,3.34a347,347,0,0,0,28.23-21.39c9.11-7.49,17.83-15.41,26.34-23.55,2.35-2.25,4.65-4.55,6.95-6.85,1.15-1.14,2.26-2.31,3.38-3.47a9.91,9.91,0,0,1,1.69-1.73c.49-.28.2-.23.69,0A2.25,2.25,0,0,0,462.29,398.11Zm-110.77-23.8a2.19,2.19,0,0,0,1.65-.71c.44-.47.37-.39,1-.05l1.52.81q2.65,1.42,5.34,2.78c3.64,1.83,7.31,3.61,11,5.25A216.81,216.81,0,0,0,394.51,391c15.19,4.79,31,7.92,47,7.58a103.71,103.71,0,0,0,11.94-1c2-.28,3.92-.64,5.88-1a1.82,1.82,0,0,1,.63-.13c.27.06.13.13.3.37.33.5.42.54,0,1L458.12,400c-5.72,5.93-11.62,11.73-17.73,17.27a492.19,492.19,0,0,1-38.22,31.49c-1.65,1.22-3.33,2.39-5,3.58L394.76,454a8.58,8.58,0,0,1-1.22.85,8.85,8.85,0,0,1-1.64.35q-6,1.27-12,2.31-12.45,2.13-25,3.24c-2.07.19-4.15.35-6.22.49.09-22.56.78-45.12,1.84-67.65Q351,384,351.52,374.31ZM318.77,460c4.79-11.79,9.33-23.68,13.76-35.61,4.7-12.61,9.28-25.26,13.87-37.91q1.73-4.78,3.46-9.56c.28-.75.55-1.5.82-2.26.1-.26.16-.7.53-.45s.07.86.06,1.19c-.1,1.67-.19,3.35-.28,5-.36,6.6-.66,13.21-1,19.81-.67,13.26-1,26.54-1.28,39.81q-.2,9.93-.24,19.86a3.63,3.63,0,0,1,0,1.14c-.15.31-.55.23-1,.26l-2.5.16c-1.68.1-3.35.18-5,.26q-5.07.23-10.15.3c-1.7,0-3.41,0-5.12,0-2.26,0-4.51,0-6.77-.08Zm-.9,2.17c10.22.18,20.41,0,30.61-.74,0,1.82,0,3.65,0,5.48,0,.84,0,1.68,0,2.52v1.35a4.31,4.31,0,0,1,0,1.34c-.14.28-.22.2-.59.21h-.58l-1.36,0-2.73,0c-1.78,0-3.57,0-5.36,0-3.44-.05-6.89-.2-10.33-.35-1.77-.08-3.54-.15-5.31-.26a10,10,0,0,1-2.2-.2,15.07,15.07,0,0,1-2-.89c-.38-.18-1-.34-1.08-.66s.16-.79.1-1.13c-.14-.77-.64-1-1.06-1.54-.21-.27-.14.09-.16-.3,0-.24.26-.63.36-.87.19-.47.39-.93.58-1.4C317.16,464,317.51,463.08,317.87,462.21Zm-.21,0-1.39,3.39c-.12.28-.44,1.5-.66,1.59s-.85-.13-1.16-.08c-.37-1.67-.7-3.35-1.09-5C314.79,462.15,316.22,462.18,317.66,462.21Zm-4.5-.12q.31,1.53.66,3.06a11.59,11.59,0,0,1,.36,1.63c0,.46.08.2-.2.46-.12.12-.36.17-.5.27-.35.26-.56.78-.89.8a5,5,0,0,1-1.36-.55c-1-.4-2-.8-2.94-1.22q-5.88-2.55-11.65-5.31Q304.89,461.85,313.16,462.09Zm-17.07-.92c3.61,1.79,7.29,3.44,11,5.06.91.4,1.83.79,2.75,1.17l1.35.54c.28.11,1.4.38,1.53.62.42.75-1.75.4-2.08.38-1.11-.08-2.23-.15-3.34-.24-8.22-.7-16.38-1.76-24.53-3a342.83,342.83,0,0,1-48.12-11.45c-4.37-1.34-8.72-2.79-13-4.31q-3.33-1.17-6.63-2.38c-1.06-.39-2.11-.8-3.16-1.21l-1.72-.64a4.31,4.31,0,0,1-.69-.27c-.4-.26-.27-.11-.24-.63a421.87,421.87,0,0,0,67.71,14.42Q286.46,460.42,296.09,461.17Zm-76.93-49.56c.66,0,1-.37,1.49-.57l.19-.19.57.47.85.71q1.81,1.5,3.64,3,3.63,3,7.31,5.84,7.28,5.7,14.78,11.11c9.62,7,19.63,13.44,29.89,19.47,5.78,3.39,11.71,6.58,17.74,9.5A405.37,405.37,0,0,1,246.71,454q-12.42-2.53-24.67-5.79c-4-1.08-8.08-2.22-12.09-3.41a3.17,3.17,0,0,1-.75-.23h0a.32.32,0,0,0,0-.3,4.67,4.67,0,0,0-.38-1,4,4,0,0,0-.66-.64c-.24-.22-.27-.06-.29-.36s.23-.63.31-.87c.69-1.89,1.38-3.8,2.05-5.7,1.41-4,2.8-8,4.17-11.94.71-2.08,1.42-4.15,2.12-6.23l1.1-3.26c.18-.56.37-1.11.56-1.67a3.48,3.48,0,0,1,.25-.75C218.71,411.38,218.55,411.61,219.16,411.61Zm-.81-.16q-2.83,8.51-5.77,17-1.29,3.69-2.59,7.38l-1.26,3.5c-.2.57-.41,1.14-.62,1.71l-.3.84c-.26.69-.22.44-.89.43a2.1,2.1,0,0,0-1.3.44c-.15.11-.42.54-.57.59s-.92-.28-1.11-.34l-4.81-1.54c-3-1-5.91-2-8.85-3s-5.9-2.06-8.81-3.18c-1.46-.56-2.9-1.16-4.34-1.75l-2.16-.89-1.08-.46-.71-.3q-.52,0-.27-.42c-.19-1-.15-1.78-1.25-2.32a2.21,2.21,0,0,0-1.58-.15,2.06,2.06,0,0,0-.74.37,2.11,2.11,0,0,0-.4.39c-.1.28-.27.31-.51.07a9.65,9.65,0,0,1-2.07-.89c-.66-.29-1.32-.58-2-.89l-4-1.84c-2.82-1.28-5.6-2.64-8.39-4-1.41-.68-2.82-1.37-4.21-2.08l-2.05-1a11.4,11.4,0,0,1-2.41-1.23c-.27-.25-.46-.24-.19-.68l0-.27.75,0,1.91.07c1.69.05,3.4.07,5.09.08,3.12,0,6.25,0,9.36-.13,6.27-.27,12.51-.65,18.75-1.25,6.87-.66,13.71-1.58,20.52-2.64,3.32-.51,6.63-1.11,9.93-1.71,1.77-.32,3.52-.69,5.28-1.05l1.14-.22.76-.16c.3-.19.46-.13.46.19C217.52,410.65,217.62,411.17,218.35,411.45Zm-32-65.79a5.6,5.6,0,0,1,.59-.07c.46.05,0-.42.43.26a7.29,7.29,0,0,1,.58,1.27c.44.95.88,1.91,1.33,2.87q1.17,2.56,2.36,5.13,2.43,5.19,4.91,10.37,5.12,10.67,10.47,21.2c1.67,3.31,3.39,6.6,5.12,9.87,1,1.82,1.92,3.64,2.9,5.45.42.8.85,1.59,1.29,2.38a19.45,19.45,0,0,1,1.47,2.68c.25.72.18.11,0,.5-.08.13-.31.27-.41.4a2.07,2.07,0,0,0-.46,1c-.06.56.2.62-.47.76l-1.68.34c-1.91.39-3.83.78-5.75,1.13-4,.72-8,1.42-12,2a303.21,303.21,0,0,1-46.71,3.63c-2,0-4,0-6-.13-.41,0-.92.07-1.12-.19s-.19-.78-.38-1.06a2.69,2.69,0,0,1-.26-.33c-.23-.5-.17,0,0-.42a6.27,6.27,0,0,1,1-1.29c2.21-3,4.36-6,6.45-9.08,3.72-5.42,7.29-10.93,10.76-16.51,7.87-12.62,15.26-25.54,22.51-38.51l1.45-2.59c.12-.21.55-1.32.77-1.39S186.17,345.66,186.37,345.66Zm-64.91,58.18a225.39,225.39,0,0,0,30.26-24.43c9.41-8.84,18.33-18.14,27.1-27.6,1.07-1.15,2.12-2.32,3.19-3.47.33-.37,2.8-3.34,3.05-3.14s-1.81,3.58-2.12,4.14l-2.46,4.37c-3.13,5.58-6.29,11.15-9.53,16.66-6.44,10.94-13,21.8-20.15,32.31q-2.76,4.06-5.63,8.06a27,27,0,0,1-2.83,3.86c-.38.37-.28.17-.8,0a2.06,2.06,0,0,0-.82-.11,2.21,2.21,0,0,0-1.53.75c-.33.37-.18.42-.67.27a9.4,9.4,0,0,1-1.24-.6L135,413.78c-1.5-.74-3-1.5-4.51-2.26q-4.33-2.19-8.62-4.52c-.17-.09-1-.37-1-.54s.25-.91.23-1.15-.29-.66-.27-.86S121.15,404.05,121.46,403.84Zm-.72,2.78q4.85,2.64,9.76,5.14,2.73,1.38,5.48,2.73a17.17,17.17,0,0,1,2.44,1.18c.65.46.2,0,.25.46,0,.17-.09.43-.09.62A3.46,3.46,0,0,0,139,418c0,.09.26.26.26.34s-.44.46-.53.56c-.36.37-.72.74-1.07,1.12-.67.68-1.34,1.37-2,2s-1.32,1.3-2,1.94c-.22.22-.63.81-.92.88a6.18,6.18,0,0,1-1.69-.43c-1.92-.49-3.84-1-5.75-1.57-.69-.19-2.26-.39-2.61-.94a4.65,4.65,0,0,1-.31-1.31c-.14-.57-.27-1.13-.4-1.7-.52-2.21-1-4.43-1.52-6.65-.26-1.15-.51-2.31-.77-3.46l-.12-.58c0-.19-.09-.39-.13-.58l.28-.1C120.05,407.19,120.44,407.12,120.74,406.62Zm-1.54,1.06c1.06,4.79,2.11,9.59,3.27,14.36-.7-.21-1.39-.43-2.08-.66-.17-.05-.83-.14-.93-.3a4.7,4.7,0,0,1,0-1.13c-.06-1.42-.12-2.83-.17-4.25s-.1-2.75-.14-4.13l-.06-1.87C119,409.28,118.8,407.75,119.2,407.68Zm-.41.06q.21,6.64.47,13.28c-5.33-1.73-10.61-3.65-15.78-5.82a86.1,86.1,0,0,0,8.18-4.7q1.86-1.2,3.69-2.45c.24-.16,1.41-1.22,1.7-1.19.12,0,.46.47.63.57A2.16,2.16,0,0,0,118.79,407.74ZM69.24,337.08c-.06-1.36-.11-2.71-.16-4.07,0-.61-.29-1.19.43-1.28.54-.07.18-.26.63.13a4.55,4.55,0,0,1,.58.95c1.39,2.28,2.78,4.55,4.19,6.82,2.77,4.47,5.54,8.93,8.35,13.37q8.68,13.72,17.75,27.2c3,4.48,6.08,8.9,9.15,13.33,1.56,2.24,3.17,4.45,4.76,6.67l1.25,1.75c.28.39,1.06,1.12,1.13,1.59.14.79-.89-.33-1.16-.58l-1.56-1.38c-8-7.05-15.7-14.36-23.26-21.84q-6.37-6.3-12.59-12.78-3.14-3.25-6.21-6.55c-.16-.17-.59-.49-.66-.71s.19-.47.35-.85a2.28,2.28,0,0,0-2.13-3.16Q69.61,346.39,69.24,337.08Zm-30,16.14a56.3,56.3,0,0,0,16.15,4.42,80.18,80.18,0,0,0,8.62.6c.65,0,1.3,0,2,0l1.13-.05.75,0,0,.27c.33.52.33,1,.88,1.39a2.26,2.26,0,0,0,1.47.43c1.27,13.24,2.72,26.46,4.51,39.64-.92-.61-1.83-1.24-2.73-1.88-.18-.13-.53-.26-.63-.45s0-.19.05-.53a2.73,2.73,0,0,0,.11-1.3A2.28,2.28,0,0,0,68,394.4a5,5,0,0,1-.4.39,3.71,3.71,0,0,1-.6-.46l-1.35-1c-.84-.66-1.68-1.32-2.51-2q-2.49-2-4.89-4.15c-1.51-1.34-3.56-2.75-4.57-4.52-1.1-1.93-2.19-3.88-3.28-5.83-2.12-3.82-4.19-7.67-6.25-11.52-1.12-2.11-2.24-4.22-3.32-6.35l-1.63-3.18c-.14-.28-.91-1.33-.83-1.62S39.12,353.47,39.25,353.22Zm-2,1.24c.11,0,.89-.23.94-.21s.37.72.44.86l1,1.89c.64,1.26,1.29,2.51,1.94,3.76,1.31,2.52,2.65,5,4,7.55q3.9,7.32,8,14.51a159.25,159.25,0,0,1-23.32-28.39q-2.88-4.44-5.45-9.08a34.12,34.12,0,0,0,7.43,4.95c.6.28,1.19.59,1.8.85.14.06,1,.25,1.08.38s-.13.71-.11.91A2.31,2.31,0,0,0,37.25,354.46Zm-23-37.55a122.08,122.08,0,0,0,8,14.36c3,4.81,6.19,9.53,9.58,14.09.85,1.14,1.73,2.26,2.6,3.38a8.92,8.92,0,0,1,1.1,1.43c.24.51.17.24-.15.68s-.26.5-.89.27a29,29,0,0,1-7-3.88A19.74,19.74,0,0,1,24.68,345a16.14,16.14,0,0,1-1.95-3.47q-2-3.81-3.76-7.72-2-4.43-3.75-9c-.58-1.52-1.13-3-1.67-4.57-.08-.24-.16-.48-.25-.71l-.24-.71c-.22-.27-.18-.43.13-.47C13.63,317.84,14.1,317.65,14.29,316.91Zm-3.89-8.67c.85,2,1.73,4.06,2.66,6.05a2.3,2.3,0,0,0-1.8-.05c-.23-1.06-.41-2.12-.6-3.19l-.27-1.43C10.31,309.19,10,308.36,10.4,308.24Zm-3,2.45q1,4,2.19,7.86c.4,1.31.81,2.62,1.26,3.92.35,1,1.05,2.22,1,3.32A98.35,98.35,0,0,1,7,309.6C7.1,310,7.28,310.32,7.42,310.69ZM7,308c-.11-.46-.21-.93-.31-1.39a27.45,27.45,0,0,0,1,4.14A13.35,13.35,0,0,1,7,308Zm.89,3.66a8.41,8.41,0,0,1,.68,2.43c.25.91.51,1.81.77,2.72.52,1.79,1.05,3.6,1.66,5.37A101.48,101.48,0,0,1,7.88,311.66Zm3.8,11.94c-1.26-3.69-2.31-7.42-3.36-11.18a12.76,12.76,0,0,0,.75,1.16A4.06,4.06,0,0,1,9.63,315a5.89,5.89,0,0,1,.21,1.49,3.31,3.31,0,0,0,.57,1.35,21.54,21.54,0,0,1,.87,3.1,8.14,8.14,0,0,1,.62,3.25C11.83,324,11.76,323.81,11.68,323.6ZM10,314.46a4.26,4.26,0,0,1-.81-1.9c.18.37,1.4,2.06,1.22,2.29Zm.29.57a2.41,2.41,0,0,0-.3.48l-.33-1.18C9.87,314.56,10.08,314.82,10.3,315Zm1.34,6.52c-.34-1.14-.62-2.29-.94-3.44.3.25.83.26,1.07.47s.22.59.21,1c0,1,0,2,0,3C11.84,322.21,11.73,321.88,11.64,321.55ZM8.29,301.61c.35.32.94.31,1.23.56a2.42,2.42,0,0,1,.11,1.49.38.38,0,0,1-.45.24c-.26-.06-.26-.33-.36-.63C8.64,302.71,8.47,302.16,8.29,301.61Zm1.35,6.78.31-.06.63,3.43c.09.49.19,1,.28,1.49a3.06,3.06,0,0,1,.18.92c0,.32-.11.22-.39.47a11.13,11.13,0,0,1-1.72-3.13c-.38-1.23-.6-2.53-.9-3.78A2.31,2.31,0,0,0,9.64,308.39ZM6.08,297.45c.45,1.47,1,2.93,1.55,4.36a9.81,9.81,0,0,1,.84,2c0,.45,0,.31-.35.61a2.28,2.28,0,0,0-.62,1c-.31-1.31-.61-2.62-.88-3.94-.14-.69-.28-1.38-.41-2.07-.08-.37-.15-.75-.22-1.12S5.71,297.65,6.08,297.45Zm-.45.14c.83,4.32,1.76,8.55,2.81,12.79a43.5,43.5,0,0,1-1.73-6.15C6.55,303.51,5.25,297.7,5.63,297.59Zm-.31.06c.44,2.83.93,5.65,1.62,8.43.62,2.51,1.62,4.87,2.28,7.36-1.61-2.25-2-5.14-2.56-7.81-.3-1.37-.56-2.74-.83-4.11-.14-.69-.27-1.37-.38-2.06C5.39,299.14,5,297.72,5.32,297.65Zm-.83-.07c.43.15.46,2.36.52,2.85.15,1.11.3,2.22.46,3.33C5,301.72,4.73,299.66,4.49,297.58Zm1.59,7.71c-.16-1-.3-2-.48-3,.46,2.46,1,4.88,1.56,7.32A21.75,21.75,0,0,1,6.08,305.29ZM10.25,327Q8,317.68,6.38,308.24c.62,3.35,1.35,6.69,2.21,10,.4,1.53.82,3,1.26,4.55.24.8.48,1.59.74,2.38a5.28,5.28,0,0,1,.32,1c.21.28.16.43-.17.46A1.9,1.9,0,0,0,10.25,327Zm-.1-3.85c-.93-2.95-1.63-6-2.32-9,.6,2.14,1.2,4.28,1.9,6.39.63,1.94,1.58,3.85,2.1,5.8-.09,0-.59.13-.6.12a5.08,5.08,0,0,1-.37-1.1C10.61,324.61,10.37,323.87,10.15,323.12Zm10.11,35.5a269.71,269.71,0,0,1-9-27.84,2,2,0,0,0,1,0c2.41,9.86,5.25,19.72,8.61,29.34C20.66,359.64,20.46,359.13,20.26,358.62Zm2.83,7a316.09,316.09,0,0,1-9.64-31c.3.23.44,1.32.56,1.69.19.59.37,1.18.56,1.77.44,1.34.88,2.68,1.34,4q1.32,3.87,2.81,7.7c2,5.08,4.14,10.06,6.48,15,2.26,4.72,5,9.2,7.15,14,.29.63.57,1.27.86,1.9a8.88,8.88,0,0,1,.79,1.72c.07.42.07.33-.1.74a1.89,1.89,0,0,0-.19.81,2.18,2.18,0,0,0,.52,1.44,2.32,2.32,0,0,0,1.05.71c.48.16.36,0,.68.44a6.48,6.48,0,0,1,.49,1q.93,1.92,1.89,3.84c1.38,2.75,2.39,5.64,3.55,8.49s2.4,5.84,3.74,8.69c-1-1.73-2.15-3.37-3.19-5.07s-2.11-3.56-3.15-5.35c-2-3.49-4-7-5.85-10.59C29.69,380.42,26.22,373.11,23.09,365.65Zm17.17,29.58C44,402,47.52,408.8,51.53,415.4c3.87,6.36,7.89,12.67,12.28,18.68-4.78-6-9.36-12.17-13.66-18.53C49.08,414,48,412.38,47,410.76a35.51,35.51,0,0,1-2.4-4.92Q42.32,400.58,40.26,395.23ZM24.88,370.36a292.36,292.36,0,0,0,20.54,38.3c2.08,3.28,3.53,7,5.45,10.37a208.78,208.78,0,0,1-21-36.73Q27.26,376.39,24.88,370.36Zm39.94,65.91c-1.15-1.14-2.46-2.12-3.6-3.28s-1.95-2.08-2.85-3.18a46,46,0,0,1-5.43-7.66,39.57,39.57,0,0,0,2.79,3.55c1,1.26,2,2.48,3.07,3.71s2.09,2.39,3.14,3.57C62.32,433.4,65,436,64.82,436.27Zm-1.39-2c-3.21-3.56-6.36-7.14-9.3-10.93a45.19,45.19,0,0,1-4-6c-1.08-2-2.06-4-3.07-6C52.67,419.78,58.6,428,65,435.9,64.45,435.37,63.93,434.84,63.43,434.3Zm3.13,1.11c-.31,0-1,.46-1.24.42s-.67-.93-.76-1.06c-.58-.8-1.17-1.6-1.74-2.42-1.12-1.59-2.22-3.2-3.31-4.81-2.17-3.19-4.23-6.46-6.27-9.74-4.1-6.56-7.89-13.31-11.5-20.15A48.56,48.56,0,0,1,39,392c-.26-.69-2.39-5.83-2.07-6a284.61,284.61,0,0,0,26.32,41.4c1.4,1.83,2.78,3.68,4.21,5.48.73.92,1.47,1.83,2.21,2.74.44.54.53.51,0,.93-.19.14-.69.59-.94.59A2.28,2.28,0,0,0,66.56,435.41Zm2.28,2.29c0-.48,0-.37.47-.67a6.71,6.71,0,0,0,1-.71c6.3,7.78,13,15.08,20,22.29-4.14-3.18-8.27-6.35-12.17-9.83-2-1.74-3.89-3.54-5.77-5.37-.94-.91-1.84-1.86-2.76-2.79-.24-.24-1.32-1-1.34-1.37,0,0,.43-.63.46-.7A2.26,2.26,0,0,0,68.84,437.7Zm29.88,34.08a127.87,127.87,0,0,1-16.07-14.52q-3.68-3.88-7.1-8c-1.17-1.42-2.33-2.85-3.46-4.3a49,49,0,0,1-3.27-4.32,203.67,203.67,0,0,0,14.65,16.42q3.8,3.88,7.68,7.66c2.59,2.51,5.45,4.79,8,7.36Zm6.9,5.61-3-2.56c.75.52,1.53,1,2.3,1.51a5.48,5.48,0,0,1,1,.66c.33.33.28.61.5,1.05C106.17,477.82,105.89,477.61,105.62,477.39Zm.58-.47a58.67,58.67,0,0,1-7.61-5.6q-3.65-3.24-7.17-6.62-7.2-6.9-13.89-14.29-3.69-4.1-7.25-8.32a263.1,263.1,0,0,0,28.43,27.33c1.46,1.2,2.92,2.41,4.41,3.59.75.6,1.52,1.19,2.28,1.78.22.17,1.18.71,1.23.95S106.22,476.66,106.2,476.92Zm.54-1.34a275.46,275.46,0,0,1-29.42-26.26q-4-4.1-7.75-8.35a187.92,187.92,0,0,0,14.82,13.38c2.49,2,5.35,3.74,7.6,6s4.7,4.61,7.11,6.85c2.81,2.63,5.71,5.18,8.64,7.69A2.29,2.29,0,0,0,106.74,475.58Zm2.26,4.54-1.14-.92a2.34,2.34,0,0,0,.74.12c.12,0,.58-.18.64-.16a1.32,1.32,0,0,1,.18.4C109.44,479.89,109.26,479.82,109,480.12Zm.66-.51c-.08-.17-.15-.35-.24-.52.15,0,.56.31.66.37A1.62,1.62,0,0,0,109.66,479.61Zm1-.28a1.73,1.73,0,0,1-1.06-.37c.58-.34.46-.67,1.08-.23l1.53,1.07c1,.68,1.94,1.36,2.92,2a9.47,9.47,0,0,1-2.5-1.32C112.05,479.89,111.68,479.33,110.69,479.33Zm1.77,3.68c.08-.12,1.08.62,1.26.74A3.41,3.41,0,0,1,112.46,483Zm4,3.12c-1-.71-1.94-1.39-2.83-2.18a9,9,0,0,1,1.52.7l1.75,1.09A2.32,2.32,0,0,0,116.42,486.13Zm.62-.51-2.19-1.36c.26,0,.67,0,.92.05s.21,0,.5.3a2.86,2.86,0,0,0,1.15.82A2.69,2.69,0,0,0,117,485.62Zm1.07-4.63a2.22,2.22,0,0,0-1.31.44c-.25.18-.26.33-.53.26a3.18,3.18,0,0,1-.67-.54L112.92,479c-.53-.43-2.31-1.45-2.2-2.16,0-.31.07-.25.43-.39l.75-.31c.3-.15,1.19-.9,1.51-.89s.56.48.79.59a2.19,2.19,0,0,0,1.4.19c.45-.09,1-.56,1.25-.44s.86.85,1.18,1.16l1.31,1.29c.21.2.45.37.49.62a3.11,3.11,0,0,1-.21.69c-.14.45-.3.88-.46,1.32C118.88,481.37,118.83,481,118.11,481Zm.73,4.43c.25-.08.61-.46.83-.49s.54.19.84.39c.65.41,1.32.81,2,1.24,1.32.89,2.59,1.85,3.91,2.74,2.57,1.75,5.14,3.49,7.76,5.15a71.4,71.4,0,0,1-8.68-4.07c-1.47-.76-2.94-1.54-4.37-2.37-.21-.11-.56-.26-.64-.44s-.08-.7-.25-1A2.31,2.31,0,0,0,118.84,485.42Zm2.73,4.32a5.73,5.73,0,0,1-1.26-.83c-.25-.29-.16,0-.16-.3,0-.19.22-.57.25-.77a86,86,0,0,0,8.81,4.64c1.45.69,2.92,1.33,4.39,2a29,29,0,0,1,4.16,2.28A55.18,55.18,0,0,1,121.57,489.74Zm17.6,10.95c-5.11-2.83-10.09-5.9-14.94-9.13a54.42,54.42,0,0,0,10.51,4.56c.87.27,1.76.51,2.64.72a5.48,5.48,0,0,1,1.13.35,5.66,5.66,0,0,1,1.55.95c.19.24.22.65.43.92a2.14,2.14,0,0,0,.76.64,2.17,2.17,0,0,0,1,.24,1.56,1.56,0,0,1,1.2.22c7.2,4.18,14.54,8.13,22.08,11.68,4.36,2.05,8.77,4.09,13.27,5.82A205.43,205.43,0,0,1,139.17,500.69Zm16.12,8.55c-3.09-1.47-6.12-3-9.15-4.61,5.76,2.93,11.67,5.56,17.66,8,3,1.22,6.12,2.35,9.21,3.42s6.16,1.82,9.12,3c1.63.64,3.26,1.25,4.89,1.87l2.48.91a6.61,6.61,0,0,1,.67.24c.32.17.22.16.41.42a3.63,3.63,0,0,0,.71.95A248.37,248.37,0,0,1,155.29,509.24Zm50.09,18.81a281.35,281.35,0,0,1-44.46-15.94A249.94,249.94,0,0,0,196.1,525c1.65.47,3.31.9,5,1.36a18.35,18.35,0,0,1,2.3.79C203.55,527.27,205.35,528.08,205.38,528.05Zm.06-.24c-.63-.25-1.27-.49-1.9-.75.69.18,1.38.34,2.07.5Zm.28-.43a26,26,0,0,1-6.45-2.29c2.2.71,4.43,1.35,6.64,2Zm5.92,2.54c-.25,0-1.95-.29-1.95-.54l2.47.62Zm3.12.22a23.91,23.91,0,0,1-5-1,1.14,1.14,0,0,0,.06-.55,13,13,0,0,1,2.52.55c.83.17,1.66.36,2.5.52A2.21,2.21,0,0,0,214.76,530.14Zm-5-1.94c.9.24,1.81.5,2.72.73C212,528.82,209.82,528.62,209.72,528.2Zm5.15,1.14-3-.77c-.51-.13-1-.25-1.51-.39s-.63-.18-.93-.66a2.24,2.24,0,0,0-1.65-1.07,2.07,2.07,0,0,0-.89.08c-.53.16-.61.37-1.16.32a14.72,14.72,0,0,1-2.92-.85l-2.82-.89a22.55,22.55,0,0,1-4.63-2.06c-.2-.11-1-.37-.58-.71a6,6,0,0,1,1.42.41l2.51.72c2,.58,4,1.16,6,1.66,1.67.42,3.73.61,5.22,1.45.85.49,1.72.95,2.59,1.4C212.93,528.17,215,529,214.87,529.34ZM215,529c-1.65-.77-3.27-1.61-4.86-2.5,2,.47,4.09.94,6.15,1.38A2.3,2.3,0,0,0,215,529Zm2-1.26a14.58,14.58,0,0,1-3.11-.59l-3.65-.83c-1.94-.46-3.76-2-5.42-3.06a93.17,93.17,0,0,1-9.59-7.18,190.91,190.91,0,0,1-17.94-17.7c-.34-.38-.67-.77-1-1.16-.16-.19-.79-.73-.84-1,0,0,.18-.54.31-.58a4,4,0,0,1,.63.37l1.59.93c1.83,1.07,3.66,2.12,5.53,3.13q5.91,3.18,11.9,6.21A251.77,251.77,0,0,0,220,516.94a245.37,245.37,0,0,0,28.66,8.88,93.37,93.37,0,0,1-15.56,3.51c-1.26.16-2.53.32-3.79.42a15.65,15.65,0,0,1-4.2-.37c-1.36-.24-2.71-.5-4.06-.77l-2.12-.42A9.79,9.79,0,0,0,217,527.71Zm1.53.61c2.8.57,5.59,1.11,8.41,1.58a46.38,46.38,0,0,1-5.14.17c-.42,0-2.27.16-2.51-.09s-.1-.65-.16-.8A2.35,2.35,0,0,0,218.55,528.32Zm57.92,9.36a267.27,267.27,0,0,1-45-3.83c-4.23-.73-8.44-1.6-12.64-2.5.23-.3,2,.25,2.42.32,1,.18,2,.34,2.94.51,1.91.31,3.82.62,5.73.88,4,.54,7.93,1.28,11.91,1.86q12.06,1.76,24.24,2.38,6.65.35,13.3.34C278.4,537.65,277.43,537.68,276.47,537.68Zm26.23-1.46c0,.47-11.5.93-12.72,1q-6.62.28-13.22.22c-8.52-.09-17-.61-25.49-1.51-4.78-.5-9.55-1.17-14.3-1.95,2.15,0,4.39.46,6.53.64s4.53.35,6.79.48q6.86.42,13.72.41c8.94,0,17.81-.7,26.72-1.39,2.49-.2,5-.46,7.44-.72l1.74-.2c.76-.1.65-.1,1,.47a2.18,2.18,0,0,0,2.43.87c.05.12-.34.5-.42.66A2.21,2.21,0,0,0,302.7,536.22Zm.8-6a2.22,2.22,0,0,0-2,.24,2.42,2.42,0,0,0-.7.76c-.14.25-.15.88-.3,1s-1.09,0-1.35,0h-1.36l-3.11-.07c-3.7-.12-7.42-.31-11.11-.69-7.4-.75-14.78-1.61-22.1-3-4.08-.77-8.18-1.58-12.2-2.66a128.84,128.84,0,0,0,25.88-12.07c1.93-1.14,3.81-2.39,5.66-3.67.12-.08.52-.46.64-.44s.34.37.41.42a2.18,2.18,0,0,0,1.38.51,2.3,2.3,0,0,0,1.15-.31c.35-.2.29-.33.61-.22s.75.69,1,.92a103.42,103.42,0,0,0,11.06,9c2.11,1.45,4.25,2.81,6.45,4.13.36.22,1.42.67,1.49,1a5.37,5.37,0,0,1-.42,1.53C304.28,527.79,303.9,529,303.5,530.2Zm.21,0a51.49,51.49,0,0,0,1.52-5.15c1.64.9,3.35,1.73,5,2.49-1.18.83-2.35,1.64-3.57,2.42A6.57,6.57,0,0,1,305,531c-.51.12-.3.1-.65-.26C304.21,530.56,303.71,530.31,303.71,530.16Zm4.4,5.26a2.38,2.38,0,0,1-.63.14c-.42,0-.17.08-.41-.18s-.36-.68-.71-1a2.17,2.17,0,0,0-2.15-.32,3.66,3.66,0,0,0,.76-1.19c0-.27,0-.36.26-.28l.57.06,1,.08c1.3.11,2.61.16,3.91.21l.89,0c.47,0,.38,0,.55.28.31.56-.13.67-.59.88C310.44,534.66,309.17,534.89,308.11,535.42Zm-2.58-3c2.42-.23,4.85-.73,7.25-1.11a2.37,2.37,0,0,0-.46.66c0,.08-.16.77-.2.8a5.06,5.06,0,0,1-1.16,0l-1.17,0C308.37,532.71,307,532.59,305.53,532.46Zm4.27,2.61c.86-.33,1.72-.77,2.57-1.07a17.64,17.64,0,0,1-4,1.54C308.87,535.4,309.34,535.24,309.8,535.07Zm-.21.52-.94.12a17.12,17.12,0,0,0,2.75-1c.18-.08.9-.56,1.08-.52s.65.73,1,.87C312.17,535.24,310.88,535.43,309.59,535.59Zm5.25-4.8c-.9-.23-1.7.3-2.59.45s-2.08.32-3.12.48-2.29.37-3.44.52c-.1,0-.52.13-.61.07a8.52,8.52,0,0,1-.2-.84c0-.36.76-.64,1.15-.88.87-.54,1.74-1.09,2.59-1.67.44-.3.87-.61,1.3-.92s.67-.37,1.31-.12c1,.39,1.95.84,2.95,1.17.47.16.95.3,1.43.45.1,0,.56.11.62.2a5.69,5.69,0,0,0-.05.86A10.14,10.14,0,0,0,314.84,530.79Zm.47.11a4.22,4.22,0,0,1,.91-.15,3.44,3.44,0,0,0,.26.67C316.36,531.89,315.51,531,315.31,530.9Zm13.45,1.65c-4.31.84-8.63,1.56-13,2.19a2.32,2.32,0,0,0,.75-1.07c.16-.49-.08-.44.44-.53a5,5,0,0,1,.86,0c1.29,0,2.57,0,3.85-.07,2.65-.12,5.28-.42,7.92-.71C329.32,532.43,329,532.5,328.76,532.55Zm-10.41.43c-.27,0-1.72.06-1.72-.16,2.53-.28,5.06-.58,7.57-1a16.41,16.41,0,0,1,3.2.14,30.09,30.09,0,0,0,4-.09A81.85,81.85,0,0,1,318.35,533Zm15.38-1.85,0,.29c-1.44.12-2.83.38-4.29.41a27.3,27.3,0,0,1-3.94-.19c2.79-.4,5.58-.84,8.35-1.39A2.46,2.46,0,0,0,333.73,531.13Zm.32-1.11q-3.44.65-6.88,1.19a11.21,11.21,0,0,1-3.21.25c-1.14-.16-2.25-.44-3.38-.69.1-.36,0-.35.29-.47a3,3,0,0,1,.95,0l1.91-.07,3.43-.18c2.48-.17,5-.36,7.44-.64A2.25,2.25,0,0,0,334.05,530Zm3.35-.66a2.32,2.32,0,0,0-.43-.29c2.06-.26,4.13-.57,6.18-.91C341.23,528.57,339.32,529,337.4,529.36Zm20.31-4.24c-3.47,1.08-6.93,2.14-10.44,3.09q-2.55.69-5.11,1.32l-2.66.65c-.21.05-1.17.42-1.33.31s-.33-.76-.53-1c3.65-.73,7.25-1.64,10.9-2.39s7.48-1.66,11.17-2.7C359,524.66,358.38,524.91,357.71,525.12Zm18.87-6.79a162.57,162.57,0,0,1-24.16,7.75,246.53,246.53,0,0,0,24.31-7.82Zm4-1.83A232.64,232.64,0,0,1,356,524.89c-4,1.09-8,2.22-12.08,2.93q-3.32.57-6.64,1c-.51.07-.93,0-1.43,0s-.92.23-1.39.28c-1.18.14-2.37.27-3.55.38-2.15.2-4.3.33-6.45.44a25.61,25.61,0,0,1-3.39.12c-.45,0-.62,0-.07-.24a8.8,8.8,0,0,1,1.81-.36q6.24-1.26,12.41-2.81c8.41-2.13,16.76-4.53,24.94-7.44,4.52-1.61,9-3.25,13.47-5.08a6.67,6.67,0,0,1,1.76-.72,8.24,8.24,0,0,1,1.79.69,17.88,17.88,0,0,0,3.15.77A14.08,14.08,0,0,0,382,515c.3,0,1.45-.24,1.67-.09.39.28-1.2.8-1.34.86Zm7.24-3.09a2.25,2.25,0,0,0-4.21,1.35,16.6,16.6,0,0,1-8-1.42,296.15,296.15,0,0,0,30.71-14.84c2.56-1.42,5.1-2.89,7.62-4.38,1.18-.69,2.34-1.41,3.5-2.13.33-.2,1.33-1,1.55-.73s-1,1.32-1.26,1.55a107,107,0,0,1-12.58,11,70.9,70.9,0,0,1-8.46,5.07Q392.34,511.25,387.86,513.41ZM398,508.62a35.8,35.8,0,0,1-5.25,2.64c2.45-1.24,4.85-2.56,7.26-3.88C399.32,507.79,398.66,508.22,398,508.62Zm45.09-28.18a246.62,246.62,0,0,1-33.48,22.12q-4.83,2.71-9.78,5.18c6.95-4.36,14-8.54,20.74-13.22,3.39-2.35,6.7-4.81,9.95-7.34a34.19,34.19,0,0,1,5.14-3.57c1.83-1,3.64-2,5.41-3a118.38,118.38,0,0,0,11.16-7.52Q447.73,476.85,443.07,480.44ZM469.52,455a2.31,2.31,0,0,0-2.27,2c-.07.65.27,1,.41,1.54.09.34.17,0,0,.35-.08.2-.39.39-.55.55l-1,.95q-3.51,3.42-7.16,6.7a115.36,115.36,0,0,1-15,11.41,103,103,0,0,1-9.3,5.33,242.11,242.11,0,0,0,21-19c3.42-3.42,6.72-6.95,9.95-10.56,1.62-1.81,3.22-3.63,4.78-5.49.76-.88,1.5-1.78,2.24-2.67.43-.53,1.81-2.68,2.34-2.62.71.07.2.91.07,1.31q-.27.84-.57,1.68c-.39,1.12-.8,2.22-1.23,3.32s-1,2.32-1.51,3.44c-.24.48-.48,1-.74,1.43s-.25.54-.51.58S469.8,455,469.52,455Zm2.6-.51c-.22.23-1.18,1.43-1.26.89-.05-.3.68-1.22.84-1.55.6-1.17,1.12-2.37,1.62-3.59.87-2.12,1.6-4.29,2.31-6.46a2,2,0,0,0,.49.1C475.28,447.51,474.18,451.38,472.12,454.5ZM496.3,426a267.56,267.56,0,0,1-23.54,27.88,25.54,25.54,0,0,0,2.12-5c.27-.79.51-1.58.74-2.38.14-.46.26-.91.38-1.37l.14-.53c.14-.53.06-.54.45-.76.65-.34,1.17-.38,1.58-1.08s0-1.63.3-2.26a4.1,4.1,0,0,1,1.52-1.46c.76-.57,1.52-1.15,2.27-1.75a114.19,114.19,0,0,0,16.51-16.39c2.81-3.39,5.47-6.93,8-10.57C503.38,415.64,500,420.88,496.3,426ZM509,407.23c-1.83,3-3.74,6-5.7,8.94,1.19-1.83,2.36-3.69,3.52-5.54.57-.92,1.12-1.84,1.67-2.76.24-.39,1.42-2.78,1.79-2.78C509.82,405.8,509.41,406.52,509,407.23Zm8.42-15.2c-.89,1.63-1.76,3.27-2.69,4.88l-1.44,2.49-.59,1c-.36.61-.26.63-.89.45a2.29,2.29,0,0,0-2.78,1.68,2.18,2.18,0,0,0,.43,1.89c.36.46.36.24.2.72a6.16,6.16,0,0,1-.85,1.21A81.64,81.64,0,0,1,494.9,421.4c4.18-5.26,8.24-10.65,11.9-16.3,1.68-2.58,3.63-5,5.44-7.48,2-2.74,3.8-5.59,5.59-8.46.12.22.36.39.48.59s.16.23,0,.62C518,390.92,517.69,391.48,517.39,392Zm2.18-6.2a2.28,2.28,0,0,0-2,2.55,1.29,1.29,0,0,1,0,.89,8.52,8.52,0,0,1-.81,1.27c-.43.69-.88,1.38-1.32,2.06-1.88,2.86-3.86,5.67-5.91,8.42,3.93-6.29,7.62-12.74,10.94-19.38a2.13,2.13,0,0,0-.13,1.06c.05.33.38.67.41,1C520.74,384.24,519.91,385.26,519.57,385.83Zm1,.12a2.26,2.26,0,0,0-.72-.15c.35-.6.69-1.21,1-1.82.4.43.55.22.25.83C521,385.19,520.79,385.57,520.6,386Zm3.26-7.84-.72,1.36-.37.68a.75.75,0,0,0-.39,0c-.74.26-1.29.36-1.75,1.09,2.17-4.41,4.29-8.83,6.49-13.23C526.14,371.39,525,374.73,523.86,378.11Zm1.45-3.58a9.71,9.71,0,0,1-.82,2.38C524.77,376.12,525,375.33,525.31,374.53Zm-1,3.58c.27-.67.47-1.31.8-1.95C524.85,376.81,524.59,377.46,524.31,378.11Zm.9-2.64c.88-2.88,1.71-5.77,2.52-8.67a2.18,2.18,0,0,0,.49.37c.33.05.38.21.16.47a5.16,5.16,0,0,1-.35,1c-.26.72-.53,1.45-.81,2.17A46.74,46.74,0,0,1,525.21,375.47Zm1-1.26-.46,1c.43-1.06.89-2.08,1.37-3.12C526.78,372.79,526.48,373.5,526.17,374.21Zm1.15-3.1c.25-.63.47-1.28.71-1.91l.36-1c.14-.39.12-.88.57-.79C528.42,368.64,527.89,369.88,527.32,371.11ZM530.19,359c.69-1.93,1.29-3.89,1.95-5.83a2.43,2.43,0,0,0-.11,1.36,1.55,1.55,0,0,1,0,.8,5.85,5.85,0,0,1-.41.88c-.52,1.12-1.05,2.23-1.6,3.33Zm-.87,2.47c.81-2.15,2-4.2,3-6.29.44.8-.62,2.39-1,3.19-.5,1.15-1,2.29-1.54,3.42A2,2,0,0,0,529.32,361.44Zm.71.46c.53-1,1-2.12,1.42-3.17-.39,1.16-.78,2.32-1.18,3.48A2.34,2.34,0,0,0,530,361.9Zm1.74-1.37c-.36.91-.71,1.82-1.08,2.73-.09-1,.85-2.25,1.24-3.15C531.88,360.25,531.83,360.39,531.77,360.53Zm1.25-3.59c-.72,1.94-1.66,3.78-2.47,5.68-.35-.63.74-2.71,1-3.42.38-1.18.76-2.34,1.22-3.5,0,0,.58.36.6.39S533.07,356.82,533,356.94Zm3.62-11.2c-.3,1.11-.62,2.21-1,3.31l-.48,1.57a3.61,3.61,0,0,1-.28.86c-.24.39,0,.29-.56.26.84-2.1,1.61-4.23,2.38-6.36Zm.25-1.5c-.44,1.32-.91,2.64-1.39,3.95-.28.75-.91,3.44-1.65,3.61a46,46,0,0,1,1.83-4.58q.95-2.39,1.82-4.82C537.27,343,537.1,343.63,536.89,344.24Zm.54-.52c-.08.27-.15.53-.23.79.3-1.19.64-2.35,1-3.53C538,341.9,537.7,342.81,537.43,343.72Zm6.82-29.06a165,165,0,0,1-5.43,23.26,224.66,224.66,0,0,0,4.74-30.63,2.25,2.25,0,0,0,1.1,1c.48.21.44,0,.45.54A7.57,7.57,0,0,1,545,310C544.73,311.56,544.51,313.12,544.25,314.66Z"/><path class="cls-5" d="M3.6,293.28c-.65-1.22-1.25-2.49-1.78-3.78l-.06-.05a2.19,2.19,0,0,0-.1.63,2.33,2.33,0,0,0,.2.92,2.3,2.3,0,0,0,.61,1A2.21,2.21,0,0,0,3.6,293.28Z"/><path class="cls-5" d="M516.2,389.16l-.14.25c-.07.14-.14.26-.21.39q.14-.24.27-.51Z"/><path class="cls-5" d="M415.76,497.51c-.63.41-1.25.85-1.87,1.26-.16.09-.31.19-.46.29l.47-.31C414.51,498.33,415.14,497.92,415.76,497.51Z"/><path class="cls-5" d="M11.12,322.56c0,.1.07.21.11.31a.65.65,0,0,0,0,.13C11.21,322.86,11.17,322.71,11.12,322.56Z"/><path class="cls-5" d="M13.94,329.84l-.09-.23h0Z"/><path class="cls-5" d="M13.68,330a.43.43,0,0,0,0-.07h0A.2.2,0,0,1,13.68,330Z"/><path class="cls-5" d="M214.83,530.45l-.3-.07.3.07Z"/><path class="cls-5" d="M523,380.19l.29-.55-.21.57Z"/><path class="cls-5" d="M524,378.34c-.09.22-.17.45-.25.67-.16.42-.31.83-.47,1.23h0c.18-.45.34-.92.51-1.38l.14-.38c0-.09.09-.17.12-.25A.29.29,0,0,0,524,378.34Z"/><ellipse class="cls-25" cx="285" cy="535.44" rx="136.51" ry="7.62"/></g></g></svg>