<svg xmlns="http://www.w3.org/2000/svg" viewBox="0 0 400 415.77"><defs><style>.cls-1,.cls-2{fill:#e4e4e4;}.cls-1{opacity:0.31;}.cls-2{opacity:0.81;}.cls-3{fill:#7d90a5;}.cls-4{fill:#768899;}.cls-5{fill:#93d9f2;}.cls-6{fill:#5e6d77;}.cls-7{fill:#fff;}.cls-8{fill:#ee893e;}.cls-9{fill:#cacaca;}</style></defs><title>Devices</title><g id="Layer_2" data-name="Layer 2"><g id="Layer_1-2" data-name="Layer 1"><ellipse class="cls-1" cx="200" cy="404.67" rx="200" ry="11.1"/><ellipse class="cls-1" cx="200" cy="404.67" rx="134.18" ry="7.45"/><ellipse class="cls-2" cx="200" cy="404.67" rx="90.19" ry="5"/><rect class="cls-3" x="39.66" y="182.08" width="317.31" height="219.56" rx="10.73" ry="10.73"/><rect class="cls-4" x="40.65" y="183.06" width="315.34" height="217.59" rx="9.74" ry="9.74"/><rect class="cls-3" x="41.64" y="184.05" width="313.37" height="205.76" rx="8.76" ry="8.76"/><path class="cls-4" d="M394.17,402.42c0,4.14-38.72,4.5-44.28,4.5H44.28c-5.55,0-44.28-.36-44.28-4.5Z"/><path class="cls-3" d="M196.34,402H0a6.9,6.9,0,0,1,6.9-6.9H196.34Z"/><path class="cls-3" d="M196.34,395.09H387.27a6.9,6.9,0,0,1,6.9,6.9H196.34Z"/><rect class="cls-5" y="401.73" width="196.34" height="0.7"/><rect class="cls-5" x="196.34" y="401.73" width="197.83" height="0.7"/><path class="cls-6" d="M196.22,394.37H169.5a7.31,7.31,0,0,0,6.4,3.76h43.6a7.32,7.32,0,0,0,6.41-3.76Z"/><rect class="cls-7" x="49.03" y="192.4" width="298.09" height="188.74"/><rect class="cls-8" x="60.1" y="202.5" width="274.48" height="35.82"/><path class="cls-9" d="M237.88,303.32H60.09V248.21H237.88Zm-177-.79h176.2V249H60.89Z"/><rect class="cls-8" x="249.16" y="248.02" width="85.42" height="85.42"/><path class="cls-9" d="M334.58,377.57H249.17v-34h85.41Zm-84.62-.8h83.83v-32.4H250Z"/><rect class="cls-9" x="152.86" y="327.79" width="84.62" height="0.79"/><rect class="cls-9" x="152.86" y="339.84" width="84.62" height="0.79"/><rect class="cls-9" x="152.86" y="351.88" width="84.62" height="0.79"/><rect class="cls-9" x="152.86" y="363.93" width="84.62" height="0.79"/><rect class="cls-9" x="63.29" y="327.79" width="84.62" height="0.79"/><rect class="cls-9" x="152.86" y="315.74" width="84.62" height="0.79"/><rect class="cls-9" x="63.29" y="315.74" width="84.62" height="0.79"/><rect class="cls-9" x="63.29" y="339.84" width="84.62" height="0.79"/><rect class="cls-9" x="63.29" y="351.88" width="84.62" height="0.79"/><rect class="cls-9" x="63.29" y="363.93" width="84.62" height="0.79"/><rect class="cls-9" x="152.86" y="375.98" width="84.62" height="0.79"/><rect class="cls-9" x="63.29" y="375.98" width="84.62" height="0.79"/><polygon class="cls-7" points="296.45 290.45 293.25 293.66 288.63 288.63 281.27 298.81 288.1 298.81 297.98 298.81 304.81 298.81 296.45 290.45"/><circle class="cls-7" cx="283.34" cy="286.08" r="2.07"/><polygon class="cls-7" points="201.73 218.72 198.53 221.93 193.91 216.9 186.55 227.08 193.38 227.08 203.26 227.08 210.09 227.08 201.73 218.72"/><circle class="cls-7" cx="188.62" cy="214.35" r="2.07"/><ellipse class="cls-1" cx="255.29" cy="143.91" rx="110" ry="6.09"/><ellipse class="cls-1" cx="255.29" cy="143.91" rx="73.8" ry="4.09"/><ellipse class="cls-2" cx="255.29" cy="143.91" rx="49.6" ry="2.75"/><path class="cls-3" d="M346.23,0a11,11,0,0,1,11,11V134a11,11,0,0,1-11,11H166a11,11,0,0,1-11-11V11A11,11,0,0,1,166,0Z"/><rect class="cls-7" x="163.95" y="10.59" width="175.64" height="123.88"/><path class="cls-6" d="M353.39,72.54a4.84,4.84,0,1,0-4.83,4.82A4.82,4.82,0,0,0,353.39,72.54Z"/><path class="cls-6" d="M160.71,82.13a.81.81,0,0,1-.81.82h0a.82.82,0,0,1-.82-.82V62.91a.82.82,0,0,1,.82-.81h0a.81.81,0,0,1,.81.81Z"/><rect class="cls-8" x="177.16" y="19.06" width="151.51" height="46.87"/><rect class="cls-9" x="256.21" y="86.74" width="72.12" height="0.67"/><rect class="cls-9" x="256.21" y="96.99" width="72.12" height="0.67"/><rect class="cls-9" x="256.21" y="107.24" width="72.12" height="0.67"/><rect class="cls-9" x="256.21" y="117.48" width="72.12" height="0.67"/><rect class="cls-9" x="179.89" y="86.74" width="72.12" height="0.67"/><rect class="cls-9" x="256.21" y="76.5" width="72.12" height="0.67"/><rect class="cls-9" x="179.89" y="76.5" width="72.12" height="0.67"/><rect class="cls-9" x="179.89" y="96.99" width="72.12" height="0.67"/><rect class="cls-9" x="179.89" y="107.24" width="72.12" height="0.67"/><rect class="cls-9" x="179.89" y="117.48" width="72.12" height="0.67"/><rect class="cls-9" x="256.21" y="127.73" width="72.12" height="0.67"/><rect class="cls-9" x="179.89" y="127.73" width="72.12" height="0.67"/><polygon class="cls-7" points="255.38 40.65 253.03 43 249.64 39.32 244.24 46.77 249.25 46.77 256.5 46.77 261.51 46.77 255.38 40.65"/><circle class="cls-7" cx="245.76" cy="37.45" r="1.52"/><ellipse class="cls-1" cx="79.13" cy="147.23" rx="50" ry="2.77"/><ellipse class="cls-1" cx="79.13" cy="147.23" rx="33.55" ry="1.86"/><ellipse class="cls-2" cx="79.13" cy="147.23" rx="22.55" ry="1.25"/><path class="cls-3" d="M118.87,140.94c0,3.47-2.37,6.29-5.28,6.29H44.93c-2.91,0-5.27-2.82-5.27-6.29V6.3C39.66,2.82,42,0,44.93,0h68.66c2.91,0,5.28,2.82,5.28,6.3Z"/><rect class="cls-7" x="43.3" y="10.94" width="71.92" height="115.68"/><path class="cls-6" d="M84.66,136a5.4,5.4,0,1,1-5.4-5.4A5.4,5.4,0,0,1,84.66,136Z"/><path class="cls-6" d="M103.73,6.1a.65.65,0,0,1-.65.65H91.78a.65.65,0,0,1-.65-.65h0a.65.65,0,0,1,.65-.65h11.3a.65.65,0,0,1,.65.65Z"/><path class="cls-6" d="M106.58,6.1a1.16,1.16,0,0,1-1.16,1.17h0a1.17,1.17,0,0,1-1.17-1.17h0a1.17,1.17,0,0,1,1.17-1.17h0a1.17,1.17,0,0,1,1.16,1.17Z"/><rect class="cls-8" x="51.85" y="15.99" width="54.83" height="16.84"/><polygon class="cls-7" points="82.21 23.94 80.15 26 77.19 22.77 72.46 29.3 76.85 29.3 83.19 29.3 87.57 29.3 82.21 23.94"/><circle class="cls-7" cx="73.79" cy="21.14" r="1.33"/><rect class="cls-9" x="52.11" y="88.42" width="54.32" height="0.51"/><rect class="cls-9" x="52.11" y="96.14" width="54.32" height="0.51"/><rect class="cls-9" x="52.11" y="103.87" width="54.32" height="0.51"/><rect class="cls-9" x="52.11" y="111.6" width="54.32" height="0.51"/><rect class="cls-9" x="52.11" y="80.69" width="54.32" height="0.51"/><rect class="cls-9" x="52.11" y="119.33" width="54.32" height="0.51"/><path class="cls-9" d="M106.68,73.12H51.85V39.3h54.83Zm-54.32-.51h53.81V39.81H52.36Z"/></g></g></svg>