<svg xmlns="http://www.w3.org/2000/svg" viewBox="0 0 400 415.77"><defs><style>.cls-1,.cls-2{fill:#e4e4e4;}.cls-1{opacity:0.31;}.cls-2{opacity:0.81;}.cls-3{fill:#7d90a5;}.cls-4{fill:#768899;}.cls-5{fill:#93d9f2;}.cls-6{fill:#5e6d77;}.cls-7{fill:#fff;}.cls-10,.cls-8{fill:none;}.cls-8{stroke:#cacaca;stroke-miterlimit:10;}.cls-9{fill:#cacaca;}.cls-11{fill:#ee893e;}</style></defs><title>Ad Format Header Banner</title><g id="Layer_2" data-name="Layer 2"><g id="Layer_1-2" data-name="Layer 1"><ellipse class="cls-1" cx="200" cy="404.67" rx="200" ry="11.1"/><ellipse class="cls-1" cx="200" cy="404.67" rx="134.18" ry="7.45"/><ellipse class="cls-2" cx="200" cy="404.67" rx="90.19" ry="5"/><rect class="cls-3" x="39.66" y="182.08" width="317.31" height="219.56" rx="10.73"/><rect class="cls-4" x="40.65" y="183.06" width="315.34" height="217.59" rx="9.74"/><rect class="cls-3" x="41.64" y="184.05" width="313.37" height="205.76" rx="8.76"/><path class="cls-4" d="M394.17,402.42c0,4.14-38.72,4.5-44.28,4.5H44.28c-5.55,0-44.28-.36-44.28-4.5Z"/><path class="cls-3" d="M196.34,402H0a6.9,6.9,0,0,1,6.9-6.9H196.34Z"/><path class="cls-3" d="M196.34,395.09H387.27a6.9,6.9,0,0,1,6.9,6.9H196.34Z"/><rect class="cls-5" y="401.73" width="196.34" height="0.7"/><rect class="cls-5" x="196.34" y="401.73" width="197.83" height="0.7"/><path class="cls-6" d="M196.22,394.37H169.5a7.31,7.31,0,0,0,6.4,3.76h43.6a7.32,7.32,0,0,0,6.41-3.76Z"/><rect class="cls-7" x="49.03" y="192.4" width="298.09" height="188.74"/><rect class="cls-8" x="60.1" y="219.5" width="274.48" height="35.82"/><path class="cls-9" d="M237.88,320.32H60.09V265.21H237.88Zm-177-.79h176.2V266H60.89Z"/><rect class="cls-8" x="249.16" y="265.02" width="85.42" height="85.42"/><path class="cls-9" d="M249.17,360.58v20.17H250V361.38h83.83v19.37h.79V360.58Z"/><rect class="cls-9" x="152.86" y="344.79" width="84.62" height="0.79"/><rect class="cls-9" x="152.86" y="356.84" width="84.62" height="0.79"/><rect class="cls-9" x="152.86" y="368.88" width="84.62" height="0.79"/><rect class="cls-9" x="63.29" y="344.79" width="84.62" height="0.79"/><rect class="cls-9" x="152.86" y="332.74" width="84.62" height="0.79"/><rect class="cls-9" x="63.29" y="332.74" width="84.62" height="0.79"/><rect class="cls-9" x="63.29" y="356.84" width="84.62" height="0.79"/><rect class="cls-9" x="63.29" y="368.88" width="84.62" height="0.79"/><line class="cls-10" x1="249.96" y1="380.75" x2="249.17" y2="380.75"/><line class="cls-10" x1="334.58" y1="380.75" x2="333.79" y2="380.75"/><ellipse class="cls-1" cx="255.29" cy="143.91" rx="110" ry="6.09"/><ellipse class="cls-1" cx="255.29" cy="143.91" rx="73.8" ry="4.09"/><ellipse class="cls-2" cx="255.29" cy="143.91" rx="49.6" ry="2.75"/><path class="cls-3" d="M346.23,0a11,11,0,0,1,11,11V134a11,11,0,0,1-11,11H166a11,11,0,0,1-11-11V11A11,11,0,0,1,166,0Z"/><rect class="cls-7" x="163.95" y="10.59" width="175.64" height="123.88"/><path class="cls-6" d="M353.39,72.54a4.84,4.84,0,1,0-4.83,4.82A4.82,4.82,0,0,0,353.39,72.54Z"/><path class="cls-6" d="M160.71,82.13a.81.81,0,0,1-.81.82h0a.82.82,0,0,1-.82-.82V62.91a.82.82,0,0,1,.82-.81h0a.81.81,0,0,1,.81.81Z"/><rect class="cls-8" x="177.16" y="28.06" width="151.51" height="46.87"/><rect class="cls-9" x="256.21" y="95.74" width="72.12" height="0.67"/><rect class="cls-9" x="256.21" y="105.99" width="72.12" height="0.67"/><rect class="cls-9" x="256.21" y="116.24" width="72.12" height="0.67"/><rect class="cls-9" x="256.21" y="126.48" width="72.12" height="0.67"/><rect class="cls-9" x="179.89" y="95.74" width="72.12" height="0.67"/><rect class="cls-9" x="256.21" y="85.5" width="72.12" height="0.67"/><rect class="cls-9" x="179.89" y="85.5" width="72.12" height="0.67"/><rect class="cls-9" x="179.89" y="105.99" width="72.12" height="0.67"/><rect class="cls-9" x="179.89" y="116.24" width="72.12" height="0.67"/><rect class="cls-9" x="179.89" y="126.48" width="72.12" height="0.67"/><ellipse class="cls-1" cx="79.13" cy="147.23" rx="50" ry="2.77"/><ellipse class="cls-1" cx="79.13" cy="147.23" rx="33.55" ry="1.86"/><ellipse class="cls-2" cx="79.13" cy="147.23" rx="22.55" ry="1.25"/><path class="cls-3" d="M118.87,140.94c0,3.47-2.37,6.29-5.28,6.29H44.93c-2.91,0-5.27-2.82-5.27-6.29V6.3C39.66,2.82,42,0,44.93,0h68.66c2.91,0,5.28,2.82,5.28,6.3Z"/><rect class="cls-7" x="43.3" y="10.94" width="71.92" height="115.68"/><path class="cls-6" d="M84.66,136a5.4,5.4,0,1,1-5.4-5.4A5.4,5.4,0,0,1,84.66,136Z"/><path class="cls-6" d="M103.73,6.1a.65.65,0,0,1-.65.65H91.78a.65.65,0,0,1-.65-.65h0a.65.65,0,0,1,.65-.65h11.3a.65.65,0,0,1,.65.65Z"/><path class="cls-6" d="M106.58,6.1a1.16,1.16,0,0,1-1.16,1.17h0a1.17,1.17,0,0,1-1.17-1.17h0a1.17,1.17,0,0,1,1.17-1.17h0a1.17,1.17,0,0,1,1.16,1.17Z"/><rect class="cls-8" x="51.85" y="25.99" width="54.83" height="16.84"/><rect class="cls-9" x="52.11" y="98.42" width="54.32" height="0.51"/><rect class="cls-9" x="52.11" y="106.14" width="54.32" height="0.51"/><rect class="cls-9" x="52.11" y="113.87" width="54.32" height="0.51"/><rect class="cls-9" x="52.11" y="121.6" width="54.32" height="0.51"/><rect class="cls-9" x="52.11" y="90.69" width="54.32" height="0.51"/><path class="cls-9" d="M106.68,83.12H51.85V49.3h54.83Zm-54.32-.51h53.81V49.81H52.36Z"/><rect class="cls-11" x="49.03" y="192.29" width="298.09" height="20.42"/><rect class="cls-11" x="163.95" y="10.59" width="175.64" height="12.03"/><rect class="cls-11" x="43.3" y="9.98" width="71.92" height="12.03"/><polygon class="cls-7" points="253.56 16.16 252.1 17.63 249.98 15.33 246.61 19.98 249.74 19.98 254.26 19.98 257.39 19.98 253.56 16.16"/><circle class="cls-7" cx="247.56" cy="14.17" r="0.95"/><polygon class="cls-7" points="80.69 15.55 79.22 17.02 77.1 14.72 73.74 19.37 76.86 19.37 81.39 19.37 84.52 19.37 80.69 15.55"/><circle class="cls-7" cx="74.68" cy="13.56" r="0.95"/><polygon class="cls-7" points="199.29 202.07 197.82 203.53 195.71 201.23 192.34 205.88 195.47 205.88 199.99 205.88 203.12 205.88 199.29 202.07"/><circle class="cls-7" cx="193.29" cy="200.07" r="0.95"/></g></g></svg>