<?xml version="1.0" encoding="utf-8"?>
<!-- Generator: Adobe Illustrator 22.1.0, SVG Export Plug-In . SVG Version: 6.00 Build 0)  -->
<svg version="1.1" id="Layer_1" xmlns="http://www.w3.org/2000/svg" xmlns:xlink="http://www.w3.org/1999/xlink" x="0px" y="0px"
	 viewBox="0 0 400 415.8" style="enable-background:new 0 0 400 415.8;" xml:space="preserve">
<style type="text/css">
	.st0{opacity:0.31;fill:#E4E4E4;enable-background:new    ;}
	.st1{opacity:0.81;fill:#E4E4E4;enable-background:new    ;}
	.st2{fill:#7D90A5;}
	.st3{fill:#768899;}
	.st4{fill:#93D9F2;}
	.st5{fill:#5E6D77;}
	.st6{fill:#FFFFFF;}
	.st7{fill:none;stroke:#CACACA;stroke-miterlimit:10;}
	.st8{fill:#CACACA;}
	.st9{fill:#EE893E;stroke:#EE893E;stroke-width:2;stroke-linecap:round;stroke-linejoin:round;}
	.st10{fill:none;stroke:#EE893E;stroke-width:2;stroke-linecap:round;stroke-linejoin:round;}
	.st11{fill:#EE893E;}
</style>
<title>Ad Format Text Ad</title>
<g id="Layer_2_1_">
	<g id="Layer_1-2">
		<ellipse class="st0" cx="200" cy="404.7" rx="200" ry="11.1"/>
		<ellipse class="st0" cx="200" cy="404.7" rx="134.2" ry="7.5"/>
		<ellipse class="st1" cx="200" cy="404.7" rx="90.2" ry="5"/>
		<path class="st2" d="M50.4,182.1h295.8c5.9,0,10.7,4.8,10.7,10.7v198.1c0,5.9-4.8,10.7-10.7,10.7H50.4c-5.9,0-10.7-4.8-10.7-10.7
			V192.8C39.7,186.9,44.5,182.1,50.4,182.1z"/>
		<path class="st3" d="M50.4,183.1h295.9c5.4,0,9.7,4.4,9.7,9.7v198.1c0,5.4-4.4,9.7-9.7,9.7H50.4c-5.4,0-9.7-4.4-9.7-9.7V192.8
			C40.7,187.4,45,183.1,50.4,183.1z"/>
		<path class="st2" d="M50.4,184.1h295.9c4.8,0,8.8,3.9,8.8,8.8V381c0,4.8-3.9,8.8-8.8,8.8H50.4c-4.8,0-8.8-3.9-8.8-8.8V192.8
			C41.6,188,45.6,184.1,50.4,184.1z"/>
		<path class="st3" d="M394.2,402.4c0,4.1-38.7,4.5-44.3,4.5H44.3c-5.5,0-44.3-0.4-44.3-4.5H394.2z"/>
		<path class="st2" d="M196.3,402H0c0-3.8,3.1-6.9,6.9-6.9h189.4V402z"/>
		<path class="st2" d="M196.3,395.1h190.9c3.8,0,6.9,3.1,6.9,6.9H196.3V395.1z"/>
		<rect y="401.7" class="st4" width="196.3" height="0.7"/>
		<rect x="196.3" y="401.7" class="st4" width="197.8" height="0.7"/>
		<path class="st5" d="M196.2,394.4h-26.7c1.3,2.3,3.7,3.8,6.4,3.8h43.6c2.7,0,5.1-1.4,6.4-3.8H196.2z"/>
		<rect x="49" y="192.4" class="st6" width="298.1" height="188.7"/>
		<rect x="60.1" y="202.5" class="st7" width="274.5" height="35.8"/>
		<path class="st8" d="M237.9,303.3H60.1v-55.1h177.8V303.3z M60.9,302.5h176.2V249H60.9L60.9,302.5z"/>
		<rect x="249.2" y="248" class="st7" width="85.4" height="85.4"/>
		<path class="st8" d="M334.6,377.6h-85.4v-34h85.4L334.6,377.6z M250,376.8h83.8v-32.4H250L250,376.8z"/>
		<rect x="181.8" y="327.8" class="st9" width="55.6" height="0.8"/>
		<rect x="152.9" y="339.8" class="st8" width="84.6" height="0.8"/>
		<rect x="152.9" y="351.9" class="st8" width="84.6" height="0.8"/>
		<rect x="152.9" y="363.9" class="st8" width="84.6" height="0.8"/>
		<rect x="63.3" y="327.8" class="st8" width="84.6" height="0.8"/>
		<rect x="181.8" y="315.7" class="st9" width="55.6" height="0.8"/>
		<rect x="63.3" y="315.7" class="st8" width="84.6" height="0.8"/>
		<rect x="63.3" y="339.8" class="st8" width="84.6" height="0.8"/>
		<rect x="91.7" y="351.9" class="st9" width="56.2" height="0.8"/>
		<rect x="91.7" y="363.9" class="st9" width="56.2" height="0.8"/>
		<rect x="152.9" y="376" class="st8" width="84.6" height="0.8"/>
		<rect x="63.3" y="376" class="st8" width="84.6" height="0.8"/>
		<ellipse class="st0" cx="255.3" cy="143.9" rx="110" ry="6.1"/>
		<ellipse class="st0" cx="255.3" cy="143.9" rx="73.8" ry="4.1"/>
		<ellipse class="st1" cx="255.3" cy="143.9" rx="49.6" ry="2.8"/>
		<path class="st2" d="M346.2,0c6.1,0,11,4.9,11,11v123c0,6.1-4.9,11-11,11H166c-6.1,0-11-4.9-11-11V11c0-6.1,4.9-11,11-11H346.2z"
			/>
		<rect x="163.9" y="10.6" class="st6" width="175.6" height="123.9"/>
		<path class="st5" d="M353.4,72.5c0-2.7-2.1-4.8-4.8-4.9s-4.8,2.1-4.9,4.8c0,2.7,2.1,4.8,4.8,4.9c0,0,0,0,0,0
			C351.2,77.4,353.4,75.2,353.4,72.5C353.4,72.5,353.4,72.5,353.4,72.5z"/>
		<path class="st5" d="M160.7,82.1c0,0.4-0.4,0.8-0.8,0.8c0,0,0,0,0,0l0,0c-0.5,0-0.8-0.4-0.8-0.8v0V62.9c0-0.4,0.4-0.8,0.8-0.8l0,0
			c0.4,0,0.8,0.4,0.8,0.8V82.1z"/>
		<rect x="177.2" y="19.1" class="st7" width="151.5" height="46.9"/>
		<rect x="284.8" y="86.7" class="st9" width="43.5" height="0.7"/>
		<rect x="256.2" y="97" class="st8" width="72.1" height="0.7"/>
		<rect x="256.2" y="107.2" class="st8" width="72.1" height="0.7"/>
		<rect x="256.2" y="117.5" class="st8" width="72.1" height="0.7"/>
		<rect x="179.9" y="86.7" class="st8" width="72.1" height="0.7"/>
		<rect x="284.8" y="76.5" class="st9" width="43.5" height="0.7"/>
		<rect x="179.9" y="76.5" class="st8" width="72.1" height="0.7"/>
		<rect x="179.9" y="97" class="st8" width="72.1" height="0.7"/>
		<rect x="209.9" y="107.2" class="st9" width="42.1" height="0.7"/>
		<rect x="209.9" y="117.5" class="st9" width="42.1" height="0.7"/>
		<rect x="256.2" y="127.7" class="st8" width="72.1" height="0.7"/>
		<rect x="179.9" y="127.7" class="st8" width="72.1" height="0.7"/>
		<ellipse class="st0" cx="79.1" cy="147.2" rx="50" ry="2.8"/>
		<ellipse class="st0" cx="79.1" cy="147.2" rx="33.5" ry="1.9"/>
		<ellipse class="st1" cx="79.1" cy="147.2" rx="22.5" ry="1.3"/>
		<path class="st2" d="M118.9,140.9c0,3.5-2.4,6.3-5.3,6.3H44.9c-2.9,0-5.3-2.8-5.3-6.3V6.3C39.7,2.8,42,0,44.9,0h68.7
			c2.9,0,5.3,2.8,5.3,6.3V140.9z"/>
		<rect x="43.3" y="10.9" class="st6" width="71.9" height="115.7"/>
		<path class="st5" d="M84.7,136c0,3-2.4,5.4-5.4,5.4s-5.4-2.4-5.4-5.4c0-3,2.4-5.4,5.4-5.4c0,0,0,0,0,0
			C82.2,130.6,84.7,133,84.7,136z"/>
		<path class="st5" d="M103.7,6.1c0,0.4-0.3,0.7-0.7,0.7l0,0H91.8c-0.4,0-0.7-0.3-0.7-0.6c0,0,0,0,0,0l0,0c0-0.4,0.3-0.7,0.7-0.7
			l0,0h11.3C103.4,5.4,103.7,5.7,103.7,6.1C103.7,6.1,103.7,6.1,103.7,6.1z"/>
		<path class="st5" d="M106.6,6.1c0,0.6-0.5,1.2-1.1,1.2c0,0,0,0,0,0l0,0c-0.6,0-1.2-0.5-1.2-1.2l0,0c0-0.6,0.5-1.2,1.2-1.2l0,0
			C106.1,4.9,106.6,5.5,106.6,6.1z"/>
		<rect x="51.8" y="16" class="st7" width="54.8" height="16.8"/>
		<rect x="52.1" y="96.1" class="st8" width="54.3" height="0.5"/>
		<rect x="52.1" y="103.9" class="st9" width="54.3" height="0.5"/>
		<rect x="52.1" y="111.6" class="st9" width="54.3" height="0.5"/>
		<rect x="52.1" y="47" class="st8" width="54.3" height="0.5"/>
		<rect x="52.1" y="54.7" class="st8" width="54.3" height="0.5"/>
		<rect x="52.1" y="39.3" class="st8" width="54.3" height="0.5"/>
		<rect x="52.1" y="119.3" class="st8" width="54.3" height="0.5"/>
		<path class="st9" d="M106.7,96.7H51.8V62.8h54.8V96.7z M52.4,96.1h53.8V63.3H52.4V96.1z"/>
		<rect x="180.6" y="107.2" class="st10" width="23" height="10.9"/>
		<rect x="152.9" y="315.7" class="st10" width="23" height="12.8"/>
		<rect x="63.3" y="351.9" class="st10" width="23" height="12.8"/>
		<rect x="256.1" y="76.5" class="st10" width="23" height="10.9"/>
	</g>
</g>
<g>
	<polygon class="st11" points="81.3,79.2 79.4,81.1 76.7,78.1 72.3,84.1 76.3,84.1 82.2,84.1 86.3,84.1 	"/>
	<ellipse class="st11" cx="73.5" cy="76.6" rx="1.2" ry="1.2"/>
</g>
<g>
	<polygon class="st11" points="192.9,112.5 192.1,113.3 191,112 189.1,114.6 190.8,114.6 193.3,114.6 195.1,114.6 	"/>
	<ellipse class="st11" cx="189.6" cy="111.3" rx="0.5" ry="0.5"/>
</g>
<g>
	<polygon class="st11" points="165.3,321.9 164.4,322.8 163,321.4 160.9,324.3 162.9,324.3 165.7,324.3 167.7,324.3 	"/>
	<ellipse class="st11" cx="161.5" cy="320.6" rx="0.6" ry="0.6"/>
</g>
<g>
	<polygon class="st11" points="75.8,358 74.8,358.9 73.5,357.5 71.4,360.4 73.4,360.4 76.2,360.4 78.2,360.4 	"/>
	<ellipse class="st11" cx="72" cy="356.8" rx="0.6" ry="0.6"/>
</g>
<g>
	<polygon class="st11" points="268.4,81.7 267.6,82.5 266.4,81.2 264.6,83.8 266.3,83.8 268.8,83.8 270.5,83.8 	"/>
	<ellipse class="st11" cx="265.1" cy="80.6" rx="0.5" ry="0.5"/>
</g>
</svg>
