<?xml version="1.0" encoding="utf-8"?>
<!-- Generator: Adobe Illustrator 26.3.json.1, SVG Export Plug-In . SVG Version: 6.00 Build 0)  -->
<svg version="1.1" id="Layer_1" xmlns="http://www.w3.org/2000/svg" xmlns:xlink="http://www.w3.org/1999/xlink" x="0px" y="0px"
	 viewBox="0 0 772.5 289.9" style="enable-background:new 0 0 772.5 289.9;" xml:space="preserve">
<style type="text/css">
	.st0{fill:#313C4B;}
</style>
<g id="Layer_2_00000117655716652217351250000011559410138820788367_">
	<g id="Layer_1-2">
		<path class="st0" d="M158.9,177.3c0,5.2-3.6,8-6,10.3c-9.2,9.7-21.3,14.6-36.1,14.6c-25.6,0-56.5-18.7-56.5-57
			c0-38.5,31-57.2,56.5-57.2c14.8,0,26.9,4.9,36.1,14.6c2.4,2.4,6,5.2,6,10.3c0,5.4-4.5,8.8-9.2,8.8c-3.5-0.1-6.8-1.6-9.2-4.1
			c-5.8-6.9-14.8-9.9-22.8-9.9c-18,0-34.8,12.9-34.8,37.4c0,24.3,16.8,37.2,34.8,37.2c8,0,17-3,22.8-9.9c2.4-2.5,5.7-4,9.2-4.1
			C154.4,168.5,158.9,171.9,158.9,177.3z"/>
		<path class="st0" d="M272.6,177.3c0,5.2-3.6,8-6,10.3c-9.2,9.7-21.3,14.6-36.1,14.6c-25.6,0-56.6-18.7-56.6-57
			c0-38.5,31-57.2,56.6-57.2c14.8,0,26.9,4.9,36.1,14.6c2.4,2.4,6,5.2,6,10.3c0,5.4-4.5,8.8-9.2,8.8c-3.5-0.1-6.8-1.6-9.2-4.1
			c-5.8-6.9-14.8-9.9-22.8-9.9c-18.1,0-34.8,12.9-34.8,37.4c0,24.3,16.8,37.2,34.8,37.2c7.9,0,17-3,22.8-9.9c2.4-2.5,5.7-4,9.2-4.1
			C268.1,168.5,272.6,171.9,272.6,177.3z"/>
		<path class="st0" d="M403.1,145.3c0,38.7-29,57.4-52.9,57.4c-18.9,0-33.5-11.2-38.1-24.1v55.5c-0.1,4.9-4.1,8.9-9,9c-5,0-9-4-9-9
			V97.8c0-5,4-9,9-9c4.9,0.1,8.8,4.1,8.8,9v12.9c6.7-14.4,21.9-22.6,38.3-22.6C374.1,88.1,403.1,107,403.1,145.3z M385.3,145.3
			c0-28.2-20.2-41.7-37.6-41.7c-16.8,0-36.5,12.2-36.5,41.7c0,28.8,19.8,41.7,36.5,41.7C365.1,187,385.3,173.7,385.3,145.3z"/>
		<path class="st0" d="M490.2,96.7c0,5.2-4.1,8.6-11.6,8.6c-20.4,0-34,16.1-36.1,29.5v58.5c0.2,4.9-3.7,9.1-8.6,9.2
			c-4.9,0.2-9.1-3.7-9.2-8.6c0-0.2,0-0.4,0-0.6V97.8c-0.2-4.9,3.7-9.1,8.6-9.2c4.9-0.2,9.1,3.7,9.2,8.6c0,0.2,0,0.4,0,0.6v17.4
			c1.3-7.3,15-26.9,38-26.9C486.8,88.3,490.2,92,490.2,96.7z"/>
		<path class="st0" d="M510.2,54.6c-0.1-5,4-9.2,9-9.3s9.2,4,9.3,9c0.1,5-4,9.2-9,9.3c0,0,0,0,0,0C514.4,63.5,510.3,59.6,510.2,54.6
			z M528.3,97.8v95.5c0.2,4.9-3.7,9.1-8.6,9.2c-4.9,0.2-9.1-3.7-9.2-8.6c0-0.2,0-0.4,0-0.6V97.8c-0.2-4.9,3.7-9.1,8.6-9.2
			s9.1,3.7,9.2,8.6C528.3,97.4,528.3,97.6,528.3,97.8z"/>
		<path class="st0" d="M648.4,177.3c0,3.4-2.4,5.8-4.1,7.7c-9.5,11.4-23,17.2-38.5,17.2c-25.4,0-55.9-18.7-55.9-57
			c0-38.5,30.5-57.2,55.9-57.2c15.5,0,29,5.6,38.5,17c1.7,2.2,4.1,4.5,4.1,8c0,4-3.2,7.3-7.3,7.3c-0.1,0-0.2,0-0.3,0
			c-3-0.1-5.8-1.7-7.5-4.1c-6.5-8.6-17.2-12.5-26.7-12.5c-19.1,0-39.1,13.8-39.1,41.5c0,27.5,20,41.3,39.1,41.3
			c9.5,0,20.2-3.9,26.7-12.5c1.8-2.4,4.5-3.9,7.5-4.1c4-0.1,7.4,3,7.5,7.1C648.4,177.2,648.4,177.2,648.4,177.3z"/>
		<path class="st0" d="M772.5,142.3c0,6.9-4.1,10.1-11.4,10.1L682,152c1.9,24.1,20.4,35.5,38.9,35.5c9,0.2,17.8-2.7,24.9-8.2
			c3.2-2.1,5.2-3.2,7.5-3.2c3.5-0.2,6.5,2.5,6.7,6c0,0.2,0,0.5,0,0.7c0,2.4-1.1,4.7-4.7,8c-8.6,7.5-21.3,11.6-34.8,11.6
			c-27.5,0-57-18.1-57-56.8s30.5-57.4,55-57.4S772.5,107.4,772.5,142.3z M682,138.6h73.1c-1.9-24.1-20.4-34.8-36.5-34.8
			C702.6,103.8,683.9,114.5,682,138.6z"/>
		<path class="st0" d="M145,289.9C65,289.9,0,225.1,0,145c0-38.5,15.3-75.4,42.5-102.6c56.7-56.6,148.5-56.6,205.1,0.1
			c3.8,3.8,7.4,7.8,10.7,12c3.9,4.9,3.1,12-1.8,15.9c-4.9,3.9-12,3.1-15.9-1.8l0,0c-42.2-52.8-119.2-61.5-172-19.4
			s-61.5,119.2-19.4,172s119.2,61.5,172,19.4c7.2-5.8,13.8-12.4,19.6-19.6c4.1-4.7,11.2-5.2,15.9-1c4.4,3.8,5.1,10.3,1.7,15
			C231.1,269.7,189.3,290,145,289.9z"/>
	</g>
</g>
</svg>
