<svg width="504" height="129" viewBox="0 0 504 129" fill="none" xmlns="http://www.w3.org/2000/svg">
<path fill-rule="evenodd" clip-rule="evenodd" d="M64.5 123.84C97.2726 123.84 123.84 97.2726 123.84 64.5C123.84 31.7274 97.2726 5.16 64.5 5.16C31.7274 5.16 5.16 31.7274 5.16 64.5C5.16 97.2726 31.7274 123.84 64.5 123.84ZM64.5 129C100.122 129 129 100.122 129 64.5C129 28.8776 100.122 0 64.5 0C28.8776 0 0 28.8776 0 64.5C0 100.122 28.8776 129 64.5 129Z" fill="#0E2585"/>
<path d="M33.7941 52.7756L64.7449 37.1656L95.6957 52.7756L95.691 52.778L99.7864 54.8441L101.999 55.962V69.7429H107.163V52.7756L64.7449 31.3821L22.3267 52.7756L64.7449 74.1692L84.2942 64.3095V82.1323L64.7444 91.9922L45.1956 82.1329V69.7429H40.0317L40.0311 73.2363V85.3117L64.7444 97.7758L89.4576 85.3117L89.4581 61.7051V61.7019H89.4542L83.7264 58.8124L64.7449 68.3856L33.7941 52.7756Z" fill="#0E2585"/>
<path d="M172.597 85.8915C169.96 85.8915 167.576 85.4397 165.444 84.5359C163.349 83.6322 161.687 82.3308 160.459 80.6318C159.231 78.9327 158.599 76.9264 158.562 74.6129H166.691C166.799 76.1673 167.341 77.3964 168.316 78.3001C169.328 79.2039 170.701 79.6557 172.435 79.6557C174.205 79.6557 175.596 79.24 176.607 78.4086C177.619 77.541 178.125 76.4203 178.125 75.0467C178.125 73.926 177.781 73.0042 177.095 72.2812C176.409 71.5582 175.542 70.9979 174.494 70.6003C173.482 70.1665 172.073 69.6965 170.267 69.1904C167.811 68.4674 165.806 67.7625 164.252 67.0757C162.735 66.3527 161.416 65.2863 160.297 63.8764C159.213 62.4304 158.671 60.5145 158.671 58.1286C158.671 55.8873 159.231 53.9353 160.351 52.2724C161.471 50.6095 163.042 49.3443 165.065 48.4767C167.088 47.5729 169.4 47.1211 172.001 47.1211C175.903 47.1211 179.064 48.079 181.484 49.995C183.941 51.8747 185.295 54.5137 185.548 57.9117H177.203C177.131 56.6103 176.571 55.5439 175.523 54.7125C174.512 53.8449 173.157 53.4111 171.459 53.4111C169.978 53.4111 168.786 53.7907 167.883 54.5498C167.016 55.309 166.582 56.4115 166.582 57.8575C166.582 58.8697 166.908 59.7192 167.558 60.4061C168.244 61.0567 169.075 61.599 170.05 62.0328C171.062 62.4304 172.471 62.9004 174.277 63.4426C176.734 64.1656 178.739 64.8886 180.292 65.6116C181.845 66.3346 183.182 67.4191 184.302 68.8651C185.422 70.3111 185.982 72.2089 185.982 74.5586C185.982 76.583 185.458 78.4628 184.41 80.198C183.363 81.9332 181.827 83.3249 179.804 84.3733C177.781 85.3855 175.379 85.8915 172.597 85.8915Z" fill="#0E2585"/>
<path d="M200.85 61.7074V76.2396C200.85 77.2518 201.085 77.9929 201.554 78.4628C202.06 78.8966 202.891 79.1135 204.047 79.1135H207.569V85.512H202.801C196.406 85.512 193.209 82.4031 193.209 76.1854V61.7074H189.633V55.4716H193.209V48.0429H200.85V55.4716H207.569V61.7074H200.85Z" fill="#0E2585"/>
<path d="M240.824 55.4716V85.512H233.184V81.7163C232.208 83.0177 230.926 84.0479 229.336 84.8071C227.783 85.5301 226.085 85.8915 224.243 85.8915C221.895 85.8915 219.817 85.4035 218.011 84.4275C216.205 83.4153 214.778 81.9512 213.73 80.0353C212.719 78.0832 212.213 75.7696 212.213 73.0946V55.4716H219.799V72.0101C219.799 74.396 220.395 76.2396 221.587 77.541C222.78 78.8062 224.405 79.4388 226.464 79.4388C228.56 79.4388 230.203 78.8062 231.396 77.541C232.588 76.2396 233.184 74.396 233.184 72.0101V55.4716H240.824Z" fill="#0E2585"/>
<path d="M245.817 70.3834C245.817 67.3468 246.413 64.6536 247.605 62.3039C248.833 59.9542 250.495 58.1467 252.59 56.8815C254.686 55.6162 257.016 54.9836 259.581 54.9836C261.532 54.9836 263.392 55.4174 265.162 56.285C266.932 57.1164 268.341 58.2371 269.389 59.6469V45.3859H277.084V85.512H269.389V81.0656C268.45 82.5477 267.131 83.7406 265.433 84.6444C263.735 85.5481 261.766 86 259.527 86C256.998 86 254.686 85.3493 252.59 84.0479C250.495 82.7465 248.833 80.921 247.605 78.5712C246.413 76.1854 245.817 73.4561 245.817 70.3834ZM269.443 70.4918C269.443 68.6482 269.082 67.0757 268.359 65.7743C267.637 64.4367 266.661 63.4245 265.433 62.7377C264.205 62.0147 262.886 61.6532 261.477 61.6532C260.068 61.6532 258.768 61.9966 257.576 62.6835C256.384 63.3703 255.408 64.3825 254.65 65.72C253.927 67.0214 253.566 68.5759 253.566 70.3834C253.566 72.1908 253.927 73.7814 254.65 75.1551C255.408 76.4926 256.384 77.5229 257.576 78.2459C258.804 78.9689 260.105 79.3304 261.477 79.3304C262.886 79.3304 264.205 78.987 265.433 78.3001C266.661 77.5771 267.637 76.5649 268.359 75.2636C269.082 73.926 269.443 72.3354 269.443 70.4918Z" fill="#0E2585"/>
<path d="M311.858 69.8411C311.858 70.9256 311.786 71.9016 311.641 72.7692H289.695C289.876 74.9382 290.634 76.6372 291.971 77.8663C293.308 79.0954 294.951 79.71 296.902 79.71C299.72 79.71 301.725 78.4989 302.917 76.0769H311.1C310.233 78.9689 308.571 81.3548 306.114 83.2346C303.658 85.0782 300.641 86 297.065 86C294.175 86 291.574 85.3674 289.262 84.1021C286.986 82.8008 285.197 80.9752 283.897 78.6255C282.633 76.2757 282 73.5645 282 70.4918C282 67.3829 282.633 64.6536 283.897 62.3039C285.161 59.9542 286.932 58.1467 289.207 56.8815C291.483 55.6162 294.102 54.9836 297.065 54.9836C299.919 54.9836 302.466 55.5981 304.705 56.8272C306.981 58.0563 308.733 59.8096 309.962 62.087C311.226 64.3283 311.858 66.913 311.858 69.8411ZM304.001 67.6721C303.965 65.72 303.26 64.1656 301.888 63.0088C300.515 61.8159 298.835 61.2194 296.848 61.2194C294.969 61.2194 293.38 61.7978 292.079 62.9546C290.815 64.0752 290.038 65.6477 289.749 67.6721H304.001Z" fill="#0E2585"/>
<path d="M333.49 55.0378C337.066 55.0378 339.956 56.1765 342.16 58.454C344.363 60.6952 345.465 63.8403 345.465 67.889V85.512H337.879V68.9193C337.879 66.5334 337.283 64.7079 336.091 63.4426C334.898 62.1412 333.273 61.4905 331.214 61.4905C329.118 61.4905 327.457 62.1412 326.228 63.4426C325.036 64.7079 324.44 66.5334 324.44 68.9193V85.512H316.854V55.4716H324.44V59.2131C325.452 57.9117 326.734 56.8995 328.287 56.1765C329.877 55.4174 331.611 55.0378 333.49 55.0378Z" fill="#0E2585"/>
<path d="M360.97 61.7074V76.2396C360.97 77.2518 361.205 77.9929 361.675 78.4628C362.18 78.8966 363.011 79.1135 364.167 79.1135H367.69V85.512H362.921C356.527 85.512 353.33 82.4031 353.33 76.1854V61.7074H349.753V55.4716H353.33V48.0429H360.97V55.4716H367.69V61.7074H360.97Z" fill="#0E2585"/>
<path d="M383.132 66.5334C383.132 62.81 383.963 59.4842 385.625 56.5561C387.323 53.5918 389.617 51.2963 392.507 49.6696C395.433 48.0067 398.702 47.1753 402.315 47.1753C406.541 47.1753 410.244 48.2598 413.423 50.4288C416.602 52.5977 418.824 55.5982 420.089 59.43H411.364C410.497 57.6225 409.269 56.2669 407.679 55.3632C406.126 54.4594 404.32 54.0076 402.261 54.0076C400.057 54.0076 398.088 54.5317 396.354 55.5801C394.656 56.5923 393.32 58.0383 392.344 59.918C391.405 61.7978 390.935 64.0029 390.935 66.5334C390.935 69.0277 391.405 71.2329 392.344 73.1488C393.32 75.0286 394.656 76.4926 396.354 77.541C398.088 78.5532 400.057 79.0593 402.261 79.0593C404.32 79.0593 406.126 78.6074 407.679 77.7037C409.269 76.7638 410.497 75.3901 411.364 73.5826H420.089C418.824 77.4506 416.602 80.4691 413.423 82.6381C410.28 84.7709 406.578 85.8373 402.315 85.8373C398.702 85.8373 395.433 85.024 392.507 83.3972C389.617 81.7343 387.323 79.4388 385.625 76.5107C383.963 73.5826 383.132 70.2568 383.132 66.5334Z" fill="#0E2585"/>
<path d="M439.357 86C436.467 86 433.866 85.3674 431.554 84.1021C429.242 82.8008 427.417 80.9752 426.081 78.6255C424.78 76.2757 424.13 73.5645 424.13 70.4918C424.13 67.4191 424.798 64.7079 426.135 62.3581C427.508 60.0084 429.368 58.2009 431.716 56.9357C434.064 55.6343 436.684 54.9836 439.574 54.9836C442.464 54.9836 445.083 55.6343 447.431 56.9357C449.779 58.2009 451.621 60.0084 452.958 62.3581C454.331 64.7079 455.017 67.4191 455.017 70.4918C455.017 73.5645 454.313 76.2757 452.904 78.6255C451.531 80.9752 449.653 82.8008 447.268 84.1021C444.92 85.3674 442.283 86 439.357 86ZM439.357 79.3846C440.73 79.3846 442.012 79.0593 443.204 78.4086C444.432 77.7217 445.408 76.7095 446.13 75.372C446.853 74.0345 447.214 72.4077 447.214 70.4918C447.214 67.636 446.456 65.4489 444.938 63.9306C443.457 62.3762 441.633 61.599 439.465 61.599C437.298 61.599 435.473 62.3762 433.992 63.9306C432.547 65.4489 431.825 67.636 431.825 70.4918C431.825 73.3476 432.529 75.5528 433.938 77.1072C435.383 78.6255 437.189 79.3846 439.357 79.3846Z" fill="#0E2585"/>
<path d="M463.888 51.8928C462.551 51.8928 461.431 51.4771 460.528 50.6457C459.661 49.7781 459.227 48.7116 459.227 47.4464C459.227 46.1812 459.661 45.1328 460.528 44.3014C461.431 43.4338 462.551 43 463.888 43C465.224 43 466.326 43.4338 467.193 44.3014C468.096 45.1328 468.548 46.1812 468.548 47.4464C468.548 48.7116 468.096 49.7781 467.193 50.6457C466.326 51.4771 465.224 51.8928 463.888 51.8928ZM467.627 55.4716V85.512H460.04V55.4716H467.627Z" fill="#0E2585"/>
<path d="M491.216 55.0378C494.792 55.0378 497.683 56.1765 499.886 58.454C502.09 60.6952 503.192 63.8403 503.192 67.889V85.512H495.605V68.9193C495.605 66.5334 495.009 64.7079 493.817 63.4426C492.625 62.1412 490.999 61.4905 488.94 61.4905C486.845 61.4905 485.183 62.1412 483.955 63.4426C482.763 64.7079 482.167 66.5334 482.167 68.9193V85.512H474.58V55.4716H482.167V59.2131C483.178 57.9117 484.461 56.8995 486.014 56.1765C487.603 55.4174 489.338 55.0378 491.216 55.0378Z" fill="#0E2585"/>
</svg>
