<?xml version="1.0" encoding="utf-8"?>
<!-- Generator: Adobe Illustrator 26.0.2, SVG Export Plug-In . SVG Version: 6.00 Build 0)  -->
<svg version="1.1" id="Layer_1" xmlns="http://www.w3.org/2000/svg" xmlns:xlink="http://www.w3.org/1999/xlink" x="0px" y="0px"
	 viewBox="0 0 377.3 85.7" style="enable-background:new 0 0 377.3 85.7;" xml:space="preserve">
<style type="text/css">
	.st0{fill:#2A436F;}
	.st1{fill:url(#SVGID_1_);}
	.st2{fill:#BFB494;}
	.st3{fill:url(#SVGID_00000122001123777714544510000010661603433367659149_);}
	.st4{fill:#FF910D;}
	.st5{fill:#FFB43B;}
	.st6{fill:#EF4F00;}
	.st7{fill:#FFFFFF;}
	.st8{fill:#FF7110;}
	.st9{fill:url(#SVGID_00000124149625199249242490000015127026284814209666_);}
	.st10{fill:url(#SVGID_00000183229070265369139180000009869290017797389713_);}
	.st11{fill:url(#SVGID_00000088108076464232752460000017742084789783143101_);}
	.st12{fill:#D6753E;}
	.st13{fill:url(#SVGID_00000041289936762370124140000006090364129138510722_);}
	.st14{fill:#EDEDBB;}
	.st15{fill:#D69547;}
	.st16{fill:#D6721E;}
	.st17{fill:url(#SVGID_00000057139253143977440060000001422259793143799983_);}
	.st18{fill:url(#SVGID_00000106841756549297888820000004734093439095697594_);}
	.st19{fill:url(#SVGID_00000161632860651203284720000001154355763266484646_);}
	.st20{fill:url(#SVGID_00000150083411919063202200000007173748456857725114_);}
	.st21{fill:url(#SVGID_00000183235206506973394750000008467073537787598769_);}
	.st22{fill:url(#SVGID_00000085950901957832164580000010978522207149880980_);}
	.st23{fill:url(#SVGID_00000032620399529787456670000008835135806727755668_);}
	.st24{fill:url(#SVGID_00000176012223585423603480000011626348165930896770_);}
	.st25{fill:url(#SVGID_00000173128623987236270300000001576151725473438353_);}
	.st26{fill:url(#SVGID_00000079463675547696077990000002423521566468256937_);}
	.st27{fill:url(#SVGID_00000009588991089067238770000009140721625826843060_);}
	.st28{fill:url(#SVGID_00000060010920774416538310000000970859134212547773_);}
	.st29{fill:#9E512B;}
	.st30{fill:#542713;}
	.st31{opacity:0.17;}
	.st32{fill:url(#SVGID_00000085208283933847874500000016861943011796011668_);}
	.st33{fill:#BA91F4;}
	.st34{fill:url(#SVGID_00000132801490348322477840000009426192385863459723_);}
	.st35{fill:#2B4E7C;}
	.st36{fill:#AA7EE9;}
	.st37{fill:url(#SVGID_00000178922077820586680260000017503185099188286605_);}
	.st38{fill:#9B7BDF;}
	.st39{fill:#8E6CD6;}
	.st40{fill:url(#SVGID_00000029751399530479788950000006881311744212470931_);}
	.st41{fill:#7145AF;}
	.st42{fill:url(#SVGID_00000075870953283788942360000006142361420656494766_);}
	.st43{fill:#8F5CCB;}
	.st44{fill:#A076DD;}
	.st45{fill:url(#SVGID_00000165925946978554638180000014331527591070718593_);}
</style>
<g>
	<path class="st0" d="M269.5,30.9l3.6-0.6v29.1c-0.8,0.2-1.9,0.5-3.1,0.7c-1.5,0.2-2.9,0.4-4.4,0.3c-1.4,0-2.8-0.2-4.1-0.7
		c-1.2-0.5-2.3-1.2-3.1-2.1c-0.9-0.9-1.6-2.1-2-3.3c-0.5-1.4-0.7-2.9-0.7-4.3c0-1.4,0.2-2.8,0.6-4.2c0.4-1.2,0.9-2.3,1.7-3.3
		c0.8-0.9,1.7-1.6,2.8-2.1c1.2-0.5,2.5-0.8,3.8-0.8c1,0,2.1,0.1,3,0.5c0.7,0.2,1.4,0.5,2,0.9L269.5,30.9z M269.5,44.3
		c-1.3-1-2.9-1.5-4.6-1.5c-0.9,0-1.8,0.2-2.6,0.6c-0.7,0.4-1.3,0.9-1.8,1.5c-0.5,0.7-0.8,1.5-1,2.3c-0.2,0.9-0.3,1.9-0.3,2.9
		c-0.1,1.9,0.5,3.9,1.7,5.4c1.2,1.3,2.9,2,4.6,1.9c0.8,0,1.6,0,2.4-0.1c0.5-0.1,1-0.2,1.5-0.3L269.5,44.3z"/>
	<path class="st0" d="M281.5,36.5c-0.6,0-1.2-0.2-1.6-0.6c-0.9-1-0.9-2.4,0-3.4c0.4-0.4,1-0.6,1.6-0.6s1.2,0.2,1.6,0.6
		c0.9,1,0.9,2.4,0,3.4C282.7,36.3,282.1,36.5,281.5,36.5z M283.3,60h-3.6V40.1h3.6V60z"/>
	<path class="st0" d="M294.7,57.4c1.1,0.1,2.2-0.1,3.2-0.6c0.7-0.3,1.1-1.1,1.1-1.8c0-0.8-0.3-1.6-1-2.1c-1.1-0.7-2.2-1.3-3.4-1.7
		c-0.8-0.3-1.5-0.6-2.2-0.9c-0.7-0.3-1.3-0.7-1.9-1.2c-2.1-2-2.2-5.4-0.2-7.6c0.1-0.1,0.3-0.3,0.5-0.4c1.5-1.1,3.4-1.7,5.3-1.5
		c0.6,0,1.1,0,1.7,0.1s1.1,0.1,1.6,0.2c0.4,0.1,0.9,0.2,1.3,0.3s0.7,0.2,0.9,0.3l-0.6,3.1c-0.6-0.3-1.2-0.5-1.8-0.6
		c-1-0.2-2-0.3-3-0.3c-0.9,0-1.8,0.2-2.6,0.6c-0.7,0.3-1.1,1.1-1.1,1.9c0,0.4,0.1,0.8,0.2,1.2c0.2,0.4,0.5,0.7,0.8,0.9
		c0.4,0.3,0.8,0.6,1.3,0.8s1.1,0.5,1.8,0.7c1,0.4,1.8,0.7,2.5,1.1c0.7,0.3,1.3,0.7,1.9,1.2c0.5,0.5,0.9,1,1.2,1.7
		c0.3,0.8,0.4,1.6,0.4,2.4c0.1,1.7-0.7,3.2-2,4.2c-1.8,1-3.8,1.5-5.8,1.4c-1.4,0-2.8-0.1-4.1-0.4c-0.7-0.2-1.3-0.4-2-0.7l0.6-3.1
		l2,0.7C292.3,57.3,293.5,57.5,294.7,57.4z"/>
	<path class="st0" d="M325.3,50.1c0,1.4-0.2,2.8-0.6,4.2c-0.4,1.2-1,2.3-1.8,3.3c-0.8,0.9-1.7,1.7-2.8,2.2c-1.2,0.5-2.5,0.8-3.8,0.8
		c-1,0-2-0.1-3-0.5c-0.7-0.2-1.4-0.5-2-0.9v8h-3.6V40.7c0.8-0.2,1.9-0.4,3.2-0.7c1.4-0.3,2.9-0.4,4.4-0.4c1.4,0,2.8,0.2,4.1,0.7
		c1.2,0.5,2.3,1.2,3.1,2.1c0.9,0.9,1.6,2,2,3.3C325.1,47.1,325.3,48.6,325.3,50.1z M321.6,50.1c0.1-1.9-0.5-3.9-1.7-5.4
		c-1.2-1.3-2.9-1.9-4.6-1.9c-0.8,0-1.7,0-2.5,0.1c-0.5,0.1-1,0.1-1.4,0.3v12.6c0.6,0.4,1.2,0.8,1.9,1c0.9,0.3,1.8,0.5,2.7,0.5
		c0.9,0,1.8-0.2,2.6-0.6c0.7-0.4,1.3-0.9,1.8-1.5c0.5-0.7,0.8-1.5,1-2.3C321.5,52,321.6,51,321.6,50.1z"/>
	<path class="st0" d="M336.9,60.4c-2.2-0.1-3.8-0.5-4.7-1.4c-1-1.1-1.5-2.6-1.4-4.2V30.9l3.6-0.6v23.9c0,0.5,0,1,0.1,1.5
		c0.1,0.3,0.3,0.7,0.5,0.9c0.3,0.3,0.6,0.5,1,0.6c0.5,0.1,0.9,0.2,1.4,0.3L336.9,60.4z"/>
	<path class="st0" d="M348.4,39.6c1.2,0,2.4,0.2,3.6,0.6c1.8,0.6,3.2,2.1,3.7,4c0.3,1,0.4,2,0.4,3.1v12.4l-1.3,0.2
		c-0.5,0.1-1.2,0.2-1.9,0.2l-2.2,0.2c-0.8,0.1-1.6,0.1-2.4,0.1c-1,0-2.1-0.1-3.1-0.3c-0.9-0.2-1.7-0.6-2.5-1.1
		c-0.7-0.5-1.3-1.2-1.6-2c-0.4-0.9-0.6-2-0.6-3s0.2-2,0.7-2.8c0.4-0.8,1.1-1.4,1.8-1.9c0.8-0.5,1.7-0.9,2.7-1.1
		c1.1-0.2,2.1-0.4,3.2-0.3c0.4,0,0.7,0,1.1,0.1c0.4,0,0.8,0.1,1.1,0.2l0.9,0.1l0.5,0.1v-1c0-0.6-0.1-1.2-0.2-1.7s-0.4-1-0.7-1.4
		c-0.4-0.5-0.8-0.8-1.4-1.1c-0.7-0.3-1.5-0.4-2.2-0.4c-1,0-2.1,0.1-3.1,0.2c-0.7,0.1-1.4,0.3-2,0.5l-0.4-3c0.7-0.3,1.5-0.5,2.3-0.6
		C346.1,39.7,347.2,39.6,348.4,39.6z M348.7,57.4c0.8,0,1.6,0,2.2-0.1c0.5,0,1.1-0.1,1.6-0.2v-5.9c-0.4-0.2-0.8-0.3-1.2-0.3
		c-0.7-0.1-1.4-0.1-2.1-0.1c-0.6,0-1.1,0-1.7,0.1s-1.1,0.2-1.6,0.5c-0.5,0.2-0.9,0.6-1.2,1c-0.3,0.5-0.5,1.1-0.5,1.7
		c-0.1,1,0.4,2.1,1.2,2.7C346.4,57.2,347.6,57.5,348.7,57.4z"/>
	<path class="st0" d="M359.7,63.7c0.4,0.1,0.7,0.3,1.1,0.4s0.9,0.2,1.3,0.2c1.2,0.1,2.3-0.3,3.3-0.9c0.9-0.8,1.7-1.8,2.1-3
		c-1.6-3.1-3.1-6.3-4.5-9.7s-2.5-6.9-3.5-10.4h3.8c0.3,1.2,0.6,2.4,1,3.7s0.8,2.7,1.3,4.1s1,2.8,1.6,4.2s1.1,2.8,1.8,4.1
		c1-2.7,1.8-5.3,2.5-8s1.4-5.3,2-8.1h3.7c-0.9,3.8-1.9,7.4-3.1,10.8c-1.1,3.5-2.3,6.7-3.6,9.7c-0.5,1-1,2-1.6,3
		c-0.5,0.8-1.1,1.4-1.8,2c-0.7,0.5-1.4,0.9-2.2,1.2c-0.9,0.3-1.9,0.4-2.8,0.4c-0.3,0-0.6,0-0.9-0.1c-0.3,0-0.6-0.1-0.9-0.2
		s-0.5-0.1-0.8-0.2c-0.2-0.1-0.4-0.1-0.5-0.2L359.7,63.7z"/>
</g>
<rect x="239.1" y="14.9" class="st0" width="1.6" height="60.8"/>
<g>
	<g>
		<path class="st0" d="M84.5,54.9c-0.7,0.3-1.4,0.5-2.2,0.6c-0.8,0.1-1.5,0.2-2.2,0.2c-1.9,0-3.3-0.5-4.1-1.5
			c-0.8-1-1.2-2.4-1.2-4.2c0-1.7,0.4-3.1,1.3-4.1c0.8-1,2.1-1.6,3.8-1.6c0.8,0,1.5,0.1,2.2,0.2c0.6,0.2,1.2,0.3,1.8,0.5l1.2-4.6
			c-0.8-0.4-1.7-0.6-2.6-0.8c-0.9-0.2-1.9-0.3-3-0.3c-1.6,0-3.1,0.3-4.4,0.8c-1.3,0.6-2.4,1.3-3.3,2.3s-1.6,2.1-2.1,3.4
			c-0.5,1.3-0.7,2.7-0.7,4.1c0,1.5,0.2,2.9,0.6,4.2s1,2.4,1.9,3.4c0.9,0.9,1.9,1.7,3.3,2.2c1.3,0.6,2.9,0.8,4.8,0.8
			c1.2,0,2.3-0.1,3.3-0.3c1-0.2,1.8-0.4,2.5-0.7L84.5,54.9z"/>
		<path class="st0" d="M107.3,45.6c-0.5-1.3-1.2-2.4-2-3.3c-0.9-0.9-1.9-1.6-3.1-2.2c-1.2-0.5-2.5-0.8-4-0.8c-1.4,0-2.8,0.3-4,0.8
			c-1.2,0.5-2.3,1.2-3.1,2.1c-0.9,0.9-1.6,2-2.1,3.3c-0.5,1.3-0.8,2.8-0.8,4.3c0,1.5,0.2,3,0.7,4.4c0.5,1.3,1.2,2.4,2,3.4
			c0.9,0.9,1.9,1.7,3.1,2.2s2.6,0.8,4,0.8c1.5,0,2.9-0.3,4.1-0.8c1.2-0.5,2.3-1.2,3.1-2.2c0.9-0.9,1.5-2.1,2-3.4
			c0.5-1.3,0.7-2.8,0.7-4.4C108,48.4,107.7,46.9,107.3,45.6z M101.1,54.2c-0.7,1-1.7,1.6-3,1.6s-2.3-0.5-3-1.6
			c-0.7-1-1.1-2.4-1.1-4.2c0-1.8,0.4-3.2,1.1-4.2c0.7-1,1.7-1.5,3-1.5s2.3,0.5,3,1.5c0.7,1,1.1,2.4,1,4.2
			C102.1,51.7,101.8,53.1,101.1,54.2z"/>
		<path class="st0" d="M118.6,31.6c-0.7-0.6-1.5-0.9-2.4-0.9c-0.9,0-1.7,0.3-2.4,0.9c-0.7,0.6-1,1.4-1,2.5c0,1,0.3,1.9,1,2.5
			s1.5,0.9,2.4,0.9c0.9,0,1.7-0.3,2.4-0.9c0.7-0.6,1-1.4,1-2.5C119.6,33.1,119.3,32.2,118.6,31.6z M113.4,39.9v20.2h5.7V39.9H113.4z
			"/>
		<path class="st0" d="M142.5,45c-0.3-1.1-0.8-2.1-1.4-2.9c-0.7-0.8-1.6-1.5-2.7-1.9c-1.1-0.4-2.6-0.7-4.3-0.7
			c-1.7,0-3.3,0.1-4.8,0.4c-1.5,0.2-2.8,0.5-3.8,0.8v19.5h5.7V44.6c0.4-0.1,0.8-0.1,1.2-0.1c0.5,0,0.9-0.1,1.3-0.1
			c1.3,0,2.2,0.4,2.7,1.2c0.5,0.8,0.7,2.1,0.7,3.9v10.7h5.7V48.8C142.9,47.4,142.8,46.1,142.5,45z"/>
		<path class="st0" d="M154.6,55.4c0.7-1.1,1.6-2.2,2.5-3.3c0.9-1.1,1.8-2.2,2.7-3.3c0.9-1,1.7-2,2.5-2.9c0.8-0.9,1.4-1.6,1.9-2.1
			V40h-16v4.8h8.6c-0.7,0.8-1.5,1.7-2.3,2.7c-0.8,1-1.6,2-2.5,3.1c-0.8,1.1-1.6,2.1-2.4,3.2c-0.8,1.1-1.4,2-1.9,3v3.4h16.7v-4.8
			H154.6z"/>
		<path class="st0" d="M174.4,31.7c-0.7-0.6-1.5-0.9-2.4-0.9s-1.7,0.3-2.4,0.9c-0.7,0.6-1,1.4-1,2.5c0,1,0.3,1.9,1,2.5
			c0.7,0.6,1.5,0.9,2.4,0.9s1.7-0.3,2.4-0.9c0.7-0.6,1-1.4,1-2.5C175.5,33.1,175.1,32.3,174.4,31.7z M169.2,40v20.2h5.7V40H169.2z"
			/>
		<path class="st0" d="M188.4,55.5c-0.4-0.2-0.7-0.4-0.9-0.7c-0.2-0.3-0.4-0.6-0.4-1c-0.1-0.4-0.1-0.9-0.1-1.4v-22l-5.7,0.9v22.2
			c0,1.1,0.1,2,0.3,2.9c0.2,0.9,0.6,1.6,1.2,2.2c0.6,0.6,1.4,1.1,2.4,1.4c1,0.3,2.4,0.5,4,0.5l0.8-4.7
			C189.4,55.8,188.8,55.7,188.4,55.5z"/>
		<path class="st0" d="M201.5,55.5c-0.4-0.2-0.7-0.4-0.9-0.7c-0.2-0.3-0.4-0.6-0.4-1c-0.1-0.4-0.1-0.9-0.1-1.4v-22l-5.7,0.9v22.2
			c0,1.1,0.1,2,0.3,2.9c0.2,0.9,0.6,1.6,1.2,2.2c0.6,0.6,1.4,1.1,2.5,1.4c1,0.3,2.4,0.5,4,0.5l0.8-4.7
			C202.5,55.8,201.9,55.7,201.5,55.5z"/>
		<path class="st0" d="M223.7,44.4c-0.3-1-0.8-1.9-1.4-2.6c-0.7-0.7-1.6-1.3-2.7-1.7c-1.1-0.4-2.5-0.6-4.2-0.6c-0.7,0-1.3,0-2,0.1
			c-0.6,0.1-1.3,0.1-1.9,0.2c-0.6,0.1-1.1,0.2-1.6,0.3c-0.5,0.1-0.9,0.2-1.3,0.3l0.7,4.6c0.7-0.3,1.5-0.4,2.5-0.6
			c0.9-0.1,1.9-0.2,2.9-0.2c1.5,0,2.5,0.3,3.1,0.9c0.6,0.6,0.9,1.4,0.9,2.3v0.5c-0.4-0.1-0.8-0.2-1.4-0.3c-0.6-0.1-1.2-0.1-2-0.1
			c-1.1,0-2.2,0.1-3.2,0.3c-1,0.2-1.9,0.6-2.7,1c-0.8,0.5-1.4,1.1-1.9,2c-0.5,0.8-0.7,1.8-0.7,3c0,1.2,0.2,2.3,0.6,3.1
			c0.4,0.8,1,1.5,1.8,2.1c0.8,0.5,1.7,0.9,2.7,1.1c1.1,0.2,2.2,0.3,3.5,0.3c2.1,0,3.8-0.1,5.3-0.4c1.5-0.2,2.6-0.5,3.4-0.6V47.5
			C224.1,46.5,224,45.4,223.7,44.4z M218.6,56.1c-0.3,0.1-0.7,0.1-1.2,0.1c-0.5,0-1,0-1.6,0c-1,0-1.9-0.2-2.5-0.5
			c-0.6-0.3-0.9-1-0.9-1.9c0-0.5,0.1-0.8,0.3-1.1c0.2-0.3,0.5-0.6,0.8-0.7c0.4-0.2,0.8-0.3,1.2-0.4c0.5-0.1,1-0.1,1.5-0.1
			c0.4,0,0.8,0,1.3,0.1c0.5,0.1,0.8,0.1,1,0.2L218.6,56.1z"/>
	</g>
	
		<linearGradient id="SVGID_1_" gradientUnits="userSpaceOnUse" x1="-46.7478" y1="-36.4431" x2="-50.1043" y2="-19.3377" gradientTransform="matrix(-0.4463 0.8949 -0.8949 -0.4463 -8.4432 95.3376)">
		<stop  offset="0" style="stop-color:#F7931A"/>
		<stop  offset="1" style="stop-color:#CC6806"/>
	</linearGradient>
	<path class="st1" d="M38,61.1c0,0-2.2-1.4-3,0.1c-0.9,1.7,0.3,5.1,2.5,6.5c3.7,2.4,7.2,0.1,7.6-1.4c0,0,0.1-0.6-0.7-0.5
		s-1.9,0.4-3.8-0.6C38.6,64.2,39,62.2,38,61.1z"/>
	<path class="st2" d="M44.7,71.7l-0.3-0.2c0.1-0.3,0.1-2,0-2.9c-0.1-0.9,0-2.6,0-2.7l0-0.1l0,0c2.6-3.3,8.3-7.8,10.2-12.1
		c1.5-3.5,4-7.2,5-11.2c1.8-6.8,2.1-11.9,2.1-12l0.3,0c0,0.1-0.4,5.2-2.1,12c-1,4-3.5,7.8-5,11.3C53,58.2,47.3,62.7,44.7,66
		c0,0.3-0.1,1.8,0,2.6C44.8,69.4,44.9,71.3,44.7,71.7z"/>
	
		<linearGradient id="SVGID_00000159461975346999563810000006214508028247509894_" gradientUnits="userSpaceOnUse" x1="44.1481" y1="21.6661" x2="45.4118" y2="21.6661" gradientTransform="matrix(1 0 0 -1 0 88)">
		<stop  offset="0" style="stop-color:#F7931A"/>
		<stop  offset="1" style="stop-color:#CC6806"/>
	</linearGradient>
	<path style="fill:url(#SVGID_00000159461975346999563810000006214508028247509894_);" d="M44.1,66.5c0,0,0-1,0.6-1
		c0.6,0,0.8,1.3,0.4,1.7C44.7,67.4,44.1,67.1,44.1,66.5z"/>
	<g>
		<path class="st4" d="M72.9,18.5c-1.3-4.6-4.1-7.5-8.2-7c3.5-3.4,5.4-5.3,5.2-7.7s-5-5.2-8.5-3.1c-2.6,1.6-8.9,10.7-9.5,17.1
			C51.1,26,56,31.1,64.2,30.4C72.3,29.6,74.2,23.2,72.9,18.5L72.9,18.5z M63,23.1c-4.2,0.3-4.2-5.6-1.2-5.8
			C64.2,17.2,67.7,22.8,63,23.1z"/>
		<path class="st5" d="M60.4,6.4c-1.5,0.2-1.2,1.9,0.1,2S61.9,6.3,60.4,6.4z"/>
		<path class="st6" d="M68.2,21.7c-1,0.1-0.8,1.8,0.1,1.8C69.2,23.4,69.2,21.6,68.2,21.7z"/>
		<path class="st5" d="M64.6,2c-3.4-0.8-5.3,3.7-1.4,3.6S67,2.5,64.6,2z"/>
		<path class="st7" d="M64.4,8c1-0.9,2.1,0.7,1.1,1.5C64.5,10.4,63.7,8.6,64.4,8z"/>
		<path class="st7" d="M67.4,2c1.2,0.5,2.1,2.6,0.6,4.3c-1.3,1.5-2.6,1.1-2-0.4C66.7,4.1,66,1.4,67.4,2z"/>
		<path class="st4" d="M61.7,30.3L61,31.4c0,0,0.3-0.2,0.7,0c0.4,0.1,1.3,0.3,1.3,0.3l-0.5-1.3l-0.5,0"/>
		<path class="st8" d="M67.7,14.4c3.5,1.2,4.5,4.6,4.2,8.6s-6,8.1-13.1,5.6c-7.1-2.5-5.8-11-3.9-14.3c4.3-7.6,6.9-4.1,4.6,0
			c-2.1,3.6-2.4,10,3.4,10c6,0,4.7-5.9,2.2-7.2c-2.1-1-4.3,0.1-4.1-1.9C61.2,13.2,64.8,13.4,67.7,14.4L67.7,14.4z"/>
		<path class="st6" d="M58.5,25.1c-2.7-0.3-1.7,4.1,4.4,3.9c6.1-0.2,8-5.5,3.7-4.5C63.8,25.2,62.5,25.5,58.5,25.1L58.5,25.1z"/>
		<path class="st6" d="M56.1,21.2c-1.8,0.1-1.4,2.8,0.2,2.8C57.8,23.9,57.8,21.1,56.1,21.2z"/>
		<path class="st6" d="M69.4,21.3c-1.8,0.1-1.4,2.8,0.2,2.8C71.1,24,71.1,21.2,69.4,21.3z"/>
	</g>
	
		<linearGradient id="SVGID_00000098200401358993449320000002722382493015607996_" gradientUnits="userSpaceOnUse" x1="10.2601" y1="33.4958" x2="18.2577" y2="33.5603" gradientTransform="matrix(1 0 0 -1 0 88)">
		<stop  offset="0" style="stop-color:#F7931A"/>
		<stop  offset="1" style="stop-color:#CC6806"/>
	</linearGradient>
	<path style="fill:url(#SVGID_00000098200401358993449320000002722382493015607996_);" d="M13,57.5c0-0.5,0.1-0.9,0.5-1.2
		c-1-0.1-1.8-0.6-1.7-1.8c0-1.1,0.8-1.7,1.7-1.9c-0.3-0.3-0.6-0.7-0.5-1.2c0.1-2.5,4.5-0.3,4.5-0.3V53v0.2v2.2v0.3v1.9
		C17.6,57.7,13.2,60,13,57.5z"/>
	
		<linearGradient id="SVGID_00000106111602100758851170000000424835795633251477_" gradientUnits="userSpaceOnUse" x1="11.4872" y1="-43.1916" x2="18.627" y2="-43.1341" gradientTransform="matrix(1 -2.690361e-03 2.690361e-03 -0.8272 -0.8603 31.9042)">
		<stop  offset="0" style="stop-color:#F7931A"/>
		<stop  offset="1" style="stop-color:#CC6806"/>
	</linearGradient>
	<path style="fill:url(#SVGID_00000106111602100758851170000000424835795633251477_);" d="M13,69.8c0-0.4,0.1-0.7,0.4-0.9
		c-0.9-0.1-1.6-0.5-1.6-1.3c0-0.8,0.7-1.2,1.6-1.4c-0.3-0.2-0.5-0.5-0.5-0.9C13,63.5,17,65,17,65v1.4v0.2v1.7v0.2v1.4
		C17,69.9,13.1,71.6,13,69.8z"/>
	
		<linearGradient id="SVGID_00000136374207020850161550000008938408016038823331_" gradientUnits="userSpaceOnUse" x1="11.5315" y1="50.4104" x2="20.3352" y2="47.0244" gradientTransform="matrix(1 0 0 -1 0 88)">
		<stop  offset="0" style="stop-color:#F7931A"/>
		<stop  offset="1" style="stop-color:#CC6806"/>
	</linearGradient>
	<path style="fill:url(#SVGID_00000136374207020850161550000008938408016038823331_);" d="M12.2,41.5c0.2-0.6,0.6-0.9,1-1.1
		c-1.1-0.8-1.7-1.8-1.2-3c0.5-1.3,1.6-1.4,2.7-1c-0.3-0.5-0.3-1.1-0.1-1.7c1.2-2.7,5.2,2.3,5.2,2.3L19,39.2v0.2l-1,2.5l-0.1,0.3
		l-0.8,2.1C17.2,44.4,11.3,44.3,12.2,41.5z"/>
	<path class="st12" d="M20.1,82.3c0,0-9.1,4.2-14.3-0.7l2.4-1.8c0,0,10.1,0,10.2,0s2.5,0.5,2.5,0.5L20.1,82.3z"/>
	
		<linearGradient id="SVGID_00000114039813991624719740000006412535057659751073_" gradientUnits="userSpaceOnUse" x1="-473.7654" y1="46.5239" x2="-466.3599" y2="21.1336" gradientTransform="matrix(-1 0 0 -1 -438.4799 88)">
		<stop  offset="0" style="stop-color:#F0CD59"/>
		<stop  offset="1" style="stop-color:#F7931A"/>
	</linearGradient>
	<path style="fill:url(#SVGID_00000114039813991624719740000006412535057659751073_);" d="M16,65.5V68c0,0-0.6,8.7-5.8,8.7
		c0,0-7.4,0.8-9.7-8.8C0.3,67.7,0,67.7,0,68c0.7,6.7,4,20.8,19.7,13.5l0.8,4c0,0.1,0.2,0.2,0.3,0.1l4.7-5.3c0.2-0.2,0.4-0.3,0.6-0.3
		h8c0.2,0,0.4,0.1,0.5,0.3l2.7,4.1c0.1,0.1,0.3,0.1,0.3-0.1l0.5-24.9c0,0,15.8,2.2,18.7,2.6c0,0,5.2-32.8-15.2-34.6
		c-27.5-3.1-25.4,19.4-25.4,19.4L16,60.5V65.5z"/>
	<path class="st14" d="M23.6,53.5c0.1-4.7,1-6.3,2.1-6.3c1.1,0,2.2,4.1,2.1,9.1L23.6,53.5z"/>
	<g>
		<path class="st15" d="M34.9,46.3c0,1.1,1.7,1.9,3.8,1.9s3.8-0.9,3.8-1.9c0-1.1-1.7-1.9-3.8-1.9C36.6,44.4,34.9,45.2,34.9,46.3z"/>
		<path class="st15" d="M46.9,45.9c-0.1,0.5,0.5,1.1,1.4,1.3c0.9,0.2,1.7,0,1.9-0.6c0.1-0.5-0.5-1.1-1.4-1.3
			C47.8,45.1,47,45.4,46.9,45.9z"/>
		<path class="st15" d="M31.2,47.7c-0.1,0.4,0.4,0.8,1,1c0.7,0.2,1.3,0,1.3-0.4c0.1-0.4-0.4-0.8-1-1C31.9,47.2,31.3,47.4,31.2,47.7z
			"/>
		<path class="st15" d="M38.8,49.6c-0.1,0.4,0.4,0.8,1,0.9c0.6,0.2,1.2,0,1.3-0.4c0.1-0.4-0.4-0.8-1-0.9
			C39.4,49.1,38.9,49.3,38.8,49.6z"/>
	</g>
	<path class="st16" d="M29.8,63.9c0,0-0.9,2.8-2.3,3.6c1,1.2,2.7,2.5,4.5-0.2c-0.6-0.5-1.3-1.5-2-3.2c0,0,2.7,6.6,5.8,0.2
		c0,0-1.4,4.7-3.7,3.1c-0.9,1.8-2.6,4.4-4.8,0.2c-1,0.4-2.4-0.7-3.8-4C23.6,63.6,26.7,70.2,29.8,63.9z"/>
	<path class="st12" d="M56.9,62c-3.7-0.1-7.5-0.4-11.2-1c-3.7-0.5-7.4-1.2-11-2.2c-3.6-1-7.2-2.3-10.3-4.6c-1.5-1.2-2.9-2.6-3.5-4.4
		c-0.3-0.9-0.4-1.9-0.4-2.8s0.2-1.9,0.4-2.8c-0.1,0.9-0.2,1.9-0.2,2.8c0,0.9,0.2,1.8,0.6,2.7c0.7,1.7,2.1,3,3.5,4
		c3,2,6.6,3.3,10.1,4.3c3.6,1,7.2,1.7,10.9,2.4c1.8,0.3,3.4,0.5,5.6,0.8C53.4,61.5,55.1,61.7,56.9,62z"/>
	<g>
		
			<linearGradient id="SVGID_00000105398661128690840020000000046668961414179972_" gradientUnits="userSpaceOnUse" x1="25.2776" y1="10.897" x2="30.3541" y2="29.0172">
			<stop  offset="0" style="stop-color:#A379DE"/>
			<stop  offset="1" style="stop-color:#905BC5"/>
		</linearGradient>
		<path style="fill:url(#SVGID_00000105398661128690840020000000046668961414179972_);" d="M21.1,31.1L25,9.9L39.3,26
			c0.4,0.5,0.5,1.2-0.1,1.7c-2.9,2.5-8.1,3.8-8.1,3.8s-6.1,1.4-9,0.9C21.4,32.4,21,31.7,21.1,31.1z"/>
		<g>
			
				<linearGradient id="SVGID_00000072277566672433308820000009412855135950086049_" gradientUnits="userSpaceOnUse" x1="22.193" y1="3.9909" x2="35.2603" y2="36.0481">
				<stop  offset="0" style="stop-color:#F0CD59"/>
				<stop  offset="1" style="stop-color:#F7931A"/>
			</linearGradient>
			<path style="fill:url(#SVGID_00000072277566672433308820000009412855135950086049_);" d="M24.7,13.2c-0.2-0.6,0.2-1.2,0.8-1.3
				c0.6-0.2,1.3,0.1,1.4,0.7c0.2,0.6-0.2,1.2-0.8,1.3C25.5,14,24.9,13.7,24.7,13.2z"/>
			
				<linearGradient id="SVGID_00000060741141873289139840000005791127385952973478_" gradientUnits="userSpaceOnUse" x1="24.9966" y1="2.8481" x2="38.0639" y2="34.9053">
				<stop  offset="0" style="stop-color:#F0CD59"/>
				<stop  offset="1" style="stop-color:#F7931A"/>
			</linearGradient>
			<path style="fill:url(#SVGID_00000060741141873289139840000005791127385952973478_);" d="M31.6,18.9c-0.6,0.2-1.3-0.1-1.4-0.7
				C30,17.6,30.4,17,31,16.8h0.1l1.2,1.4C32.2,18.5,31.9,18.7,31.6,18.9z"/>
			
				<linearGradient id="SVGID_00000074434213234073054030000003208248185940297372_" gradientUnits="userSpaceOnUse" x1="21.5435" y1="4.2557" x2="34.6108" y2="36.3128">
				<stop  offset="0" style="stop-color:#F0CD59"/>
				<stop  offset="1" style="stop-color:#F7931A"/>
			</linearGradient>
			<path style="fill:url(#SVGID_00000074434213234073054030000003208248185940297372_);" d="M27.8,19.9c-0.6,0.2-1.3-0.1-1.4-0.7
				c-0.1-0.6,0.2-1.2,0.8-1.3c0.6-0.2,1.3,0.1,1.4,0.7C28.8,19.1,28.4,19.7,27.8,19.9z"/>
			
				<linearGradient id="SVGID_00000090256029419538992070000002083117965838103441_" gradientUnits="userSpaceOnUse" x1="18.1085" y1="5.6559" x2="31.1758" y2="37.713">
				<stop  offset="0" style="stop-color:#F0CD59"/>
				<stop  offset="1" style="stop-color:#F7931A"/>
			</linearGradient>
			<path style="fill:url(#SVGID_00000090256029419538992070000002083117965838103441_);" d="M24.9,19.6c0.2,0.6-0.2,1.2-0.8,1.3
				c-0.4,0.1-0.7,0-1-0.2l0.3-1.8h0.1C24.1,18.7,24.8,19.1,24.9,19.6z"/>
			
				<linearGradient id="SVGID_00000121976952572235882520000018166877927592882877_" gradientUnits="userSpaceOnUse" x1="23.6671" y1="3.3901" x2="36.7343" y2="35.4472">
				<stop  offset="0" style="stop-color:#F0CD59"/>
				<stop  offset="1" style="stop-color:#F7931A"/>
			</linearGradient>
			<path style="fill:url(#SVGID_00000121976952572235882520000018166877927592882877_);" d="M28.9,16.5c-0.6,0.2-1.3-0.1-1.4-0.7
				s0.2-1.2,0.8-1.3c0.3-0.1,0.5-0.1,0.8,0l0.6,0.7C29.9,15.8,29.5,16.3,28.9,16.5z"/>
			
				<linearGradient id="SVGID_00000094604801836623864190000012026215874550246822_" gradientUnits="userSpaceOnUse" x1="20.1345" y1="4.8301" x2="33.2017" y2="36.8872">
				<stop  offset="0" style="stop-color:#F0CD59"/>
				<stop  offset="1" style="stop-color:#F7931A"/>
			</linearGradient>
			<path style="fill:url(#SVGID_00000094604801836623864190000012026215874550246822_);" d="M26,16.2c0.2,0.6-0.2,1.2-0.8,1.3
				c-0.6,0.2-1.2-0.1-1.4-0.6L24,16c0.2-0.2,0.4-0.4,0.6-0.4C25.2,15.4,25.8,15.7,26,16.2z"/>
			
				<linearGradient id="SVGID_00000042694631997936271040000004358341944479319729_" gradientUnits="userSpaceOnUse" x1="26.3774" y1="2.2853" x2="39.4447" y2="34.3424">
				<stop  offset="0" style="stop-color:#F0CD59"/>
				<stop  offset="1" style="stop-color:#F7931A"/>
			</linearGradient>
			<path style="fill:url(#SVGID_00000042694631997936271040000004358341944479319729_);" d="M32.9,20.8c-0.1-0.5,0.1-1,0.7-1.3
				L35,21c-0.2,0.2-0.4,0.3-0.6,0.4C33.7,21.7,33.1,21.4,32.9,20.8z"/>
			
				<linearGradient id="SVGID_00000027571443614254545130000007467069934970685363_" gradientUnits="userSpaceOnUse" x1="23.0367" y1="3.647" x2="36.104" y2="35.7041">
				<stop  offset="0" style="stop-color:#F0CD59"/>
				<stop  offset="1" style="stop-color:#F7931A"/>
			</linearGradient>
			<path style="fill:url(#SVGID_00000027571443614254545130000007467069934970685363_);" d="M30.6,22.5c-0.6,0.2-1.3-0.1-1.4-0.7
				c-0.2-0.6,0.2-1.2,0.8-1.3c0.6-0.2,1.3,0.1,1.4,0.7C31.6,21.8,31.2,22.4,30.6,22.5z"/>
			
				<linearGradient id="SVGID_00000127761143274720080650000012054452179580978352_" gradientUnits="userSpaceOnUse" x1="19.4687" y1="5.1014" x2="32.536" y2="37.1586">
				<stop  offset="0" style="stop-color:#F0CD59"/>
				<stop  offset="1" style="stop-color:#F7931A"/>
			</linearGradient>
			<path style="fill:url(#SVGID_00000127761143274720080650000012054452179580978352_);" d="M27.7,22.3c0.2,0.6-0.2,1.2-0.8,1.3
				c-0.6,0.2-1.3-0.1-1.4-0.7c-0.2-0.6,0.2-1.2,0.8-1.3C26.9,21.4,27.5,21.7,27.7,22.3z"/>
			
				<linearGradient id="SVGID_00000034069615720357921340000004043489764745740169_" gradientUnits="userSpaceOnUse" x1="16.0518" y1="6.4942" x2="29.1191" y2="38.5514">
				<stop  offset="0" style="stop-color:#F0CD59"/>
				<stop  offset="1" style="stop-color:#F7931A"/>
			</linearGradient>
			<path style="fill:url(#SVGID_00000034069615720357921340000004043489764745740169_);" d="M23.9,23.3c0.2,0.6-0.2,1.2-0.8,1.3
				c-0.3,0.1-0.5,0.1-0.7,0l0.4-2C23.3,22.5,23.8,22.8,23.9,23.3z"/>
		</g>
		
			<linearGradient id="SVGID_00000013184876406502117990000018046776754763737480_" gradientUnits="userSpaceOnUse" x1="21.0113" y1="4.4726" x2="34.0786" y2="36.5297">
			<stop  offset="0" style="stop-color:#F0CD59"/>
			<stop  offset="1" style="stop-color:#F7931A"/>
		</linearGradient>
		<path style="fill:url(#SVGID_00000013184876406502117990000018046776754763737480_);" d="M23.9,8.8C23.9,8.8,24,8.8,23.9,8.8
			c-2.1-3.3-5.4-2.2-5.4-2.2l-0.2-0.7c3.6-0.8,5.4,1.8,6,2.7l0,0c-1.9-4.4-6-3.4-6-3.4l-0.1-0.4c4.3-1,6,2.3,6.5,3.7
			c0.1,0,0.2,0,0.3,0c0.6-4.1-2.3-5-2.3-5L23.1,3c0,0,1.8,0.8,2.3,2.5c0.3,1.1,0.2,2.2,0.1,2.9c0.5,0.1,0.9,0.5,1,0.9
			c0.2,0.8-0.3,1.5-1.1,1.8c-0.8,0.2-1.7-0.2-1.9-0.9c-0.1-0.4,0-0.8,0.2-1.1c-2.4-2-5.1-0.7-5.1-0.7l-0.2-0.7
			C21.5,6.6,23.3,8.1,23.9,8.8z"/>
	</g>
	<g>
		<g>
			<path class="st12" d="M53.3,33.9c-0.1,1.5-0.7,3-1.7,4c-0.5,0.5-1,0.8-1.6,1.1c-3.7,1.6-7.6-1.3-7.6-5c0-0.5,0.1-1,0.2-1.4l0,0
				c0,0.3-0.1,0.5-0.1,0.8c0,3.7,3.8,6.4,7.4,4.9c0.4-0.2,0.8-0.4,1.1-0.7c1.2-0.9,2.1-2.6,2.1-4.3c0-0.3,0-0.6-0.1-1
				C53.3,32.8,53.3,33.3,53.3,33.9z"/>
			<path class="st14" d="M53.2,33.2c-0.1,1.6-0.9,3.3-2.1,4.3c-0.3,0.3-0.7,0.5-1.1,0.7c-3.6,1.5-7.4-1.2-7.4-4.9
				c0-0.3,0-0.5,0.1-0.8l4.9-1.1l4.9-1.1c0.4,0.6,0.6,1.2,0.7,1.9C53.2,32.6,53.2,32.9,53.2,33.2z"/>
		</g>
		<g>
			<g>
				<path class="st29" d="M45.9,34.4c0,1.2,1,2.2,2.2,2.2c1.2,0,2.2-1,2.2-2.2c0-1.2-1-2.2-2.2-2.2C46.9,32.1,45.9,33.1,45.9,34.4z"
					/>
				<path class="st30" d="M46.7,34.4c0,0.8,0.6,1.4,1.4,1.4c0.8,0,1.4-0.6,1.4-1.4c0-0.8-0.6-1.4-1.4-1.4
					C47.3,32.9,46.7,33.6,46.7,34.4z"/>
			</g>
			<path class="st7" d="M48.3,32.4c0,0.1,0,0.1,0,0.2c-0.1,0.5-0.5,0.8-1,0.8c-0.1,0-0.1,0-0.2,0c-0.2,0-0.4-0.1-0.6-0.3
				c-0.2-0.2-0.3-0.4-0.3-0.7c0-0.3,0.1-0.5,0.3-0.7c0.2-0.2,0.5-0.3,0.8-0.3c0.1,0,0.3,0,0.4,0.1c0.3,0.1,0.5,0.4,0.6,0.7
				C48.3,32.2,48.3,32.3,48.3,32.4z"/>
		</g>
		<g>
			<path class="st15" d="M49,40.8c2.2,0.2,4.3-0.4,5.9-1.6c-1.5,1.7-3.7,2.6-6,2.4c-2.3-0.3-4.3-1.7-5.4-3.6
				C44.9,39.5,46.8,40.6,49,40.8z"/>
			<path class="st15" d="M49.5,39.8c1.8-0.3,3.4-1.2,4.5-2.6c-0.9,1.7-2.4,2.9-4.4,3.2c-1.9,0.3-3.8-0.4-5.1-1.8
				C45.9,39.6,47.7,40,49.5,39.8z"/>
		</g>
		<path class="st15" d="M53.7,26.3c-1.4,2.5-4.3,6.7-11.1,5.8C42.6,32.2,50.5,30.2,53.7,26.3z"/>
	</g>
	<g>
		<g>
			<path class="st12" d="M40.2,33.8c0.1-4-4.3-7-8.3-5.3c-1.8,0.7-2.9,2.3-3.4,4.1c-0.6,2.1,0,4.3,1.7,5.7c0.2,0.2,0.5,0.4,0.7,0.5
				c3,1.7,7.4,0.7,8.9-2.8C40,35.4,40.2,34.7,40.2,33.8z"/>
			<path class="st14" d="M39.8,33.2c0.1-3.8-4.1-6.6-7.9-5c-1.8,0.8-3,2.6-3.4,4.5c-0.4,2,0.5,4.1,2.2,5.2c0.1,0.1,0.1,0.1,0.2,0.1
				c2.9,1.6,7,0.6,8.4-2.6C39.7,34.7,39.8,34,39.8,33.2z"/>
		</g>
		<g>
			<g>
				<path class="st29" d="M31.9,34.4c0,1.2,1,2.2,2.2,2.2c1.2,0,2.2-1,2.2-2.2c0-1.2-1-2.2-2.2-2.2C32.9,32.1,31.9,33.1,31.9,34.4z"
					/>
				<path class="st30" d="M32.7,34.4c0,0.8,0.6,1.4,1.4,1.4c0.8,0,1.4-0.6,1.4-1.4c0-0.8-0.6-1.4-1.4-1.4
					C33.4,32.9,32.7,33.6,32.7,34.4z"/>
			</g>
			<path class="st7" d="M32.1,32.5c0,0.6,0.5,1,1,1c0.6,0,1-0.5,1-1c0-0.6-0.5-1-1-1C32.5,31.4,32.1,31.9,32.1,32.5z"/>
		</g>
		<g>
			<path class="st15" d="M32.9,41.1c2.6,0,5-1,6.8-2.6c-1.5,2.1-4,3.4-6.8,3.4c-2.8,0-5.2-1.4-6.8-3.4
				C27.9,40.1,30.3,41.1,32.9,41.1z"/>
			<path class="st15" d="M33.8,40.1c2.1-0.1,4.1-0.9,5.5-2.3c-1.2,1.7-3.2,2.9-5.5,3c-2.3,0.1-4.3-1-5.7-2.6
				C29.7,39.4,31.6,40.1,33.8,40.1z"/>
		</g>
		<path class="st15" d="M39.7,27.2c-1.9-0.9-9.6-4.7-12.7,0.5c0,0.1,0.4-2.7,4.1-3.6C33.3,23.5,36.7,23.6,39.7,27.2z"/>
	</g>
	<g class="st31">
		<path d="M37.9,70.3l-0.1,5c0,0-0.1,0-0.1,0.1c0,0,0,0,0,0c0,0-0.1,0-0.1,0.1c0,0,0,0-0.1,0c0,0-0.1,0-0.1,0.1c0,0,0,0-0.1,0
			c0,0-0.1,0-0.1,0c0,0-0.1,0-0.1,0c0,0-0.1,0-0.1,0c0,0-0.1,0-0.1,0c0,0-0.1,0-0.1,0c-0.1,0-0.1,0-0.2,0c0,0-0.1,0-0.1,0
			c0,0-0.1,0-0.1,0c0,0-0.1,0-0.1,0c0,0-0.1,0-0.1,0c0,0-0.1,0-0.1,0c0,0-0.1,0-0.1,0c0,0-0.1,0-0.1,0c0,0-0.1,0-0.1,0
			c0,0-0.1,0-0.1,0c0,0-0.1,0-0.1,0c0,0,0,0-0.1,0c-0.1,0-0.1,0-0.2-0.1c0,0-0.1,0-0.1,0c0,0-0.1,0-0.1,0c0,0,0,0,0,0
			c-0.8-0.3-3-0.9-3.2-1c-0.2-0.1-0.4-0.2-0.5-0.3c0,0-0.1-0.1-0.1-0.1c0,0,0,0,0,0l0,0c0,0,0,0-0.1-0.1l0,0l-0.1-0.1l0,0l-0.2-0.2
			c-0.2-0.2-0.5-0.5-0.8-0.9c-0.3-0.3-0.6-0.7-0.9-1c0,0-0.1-0.1-0.1-0.1c-0.1-0.1-0.2-0.2-0.3-0.3c-0.1-0.1-0.2-0.2-0.3-0.3
			c0,0,0,0,0,0c0-0.1-0.1-0.1-0.1-0.2c-1.2-1.4-2.6-3-3.8-4.3c-0.1-0.1-0.2-0.2-0.3-0.3C24.2,66.1,24.1,66,24,66c0,0,0,0,0,0
			c-0.2-0.2-0.4-0.4-0.5-0.6c0,0,0,0,0,0c0,0-0.1-0.1-0.1-0.1c0,0,0,0,0,0c0,0-0.1-0.1-0.1-0.1c-0.4-0.5-0.7-0.8-0.7-0.8
			c0,0,0,0,0,0c0,0,0,0,0,0c0,0,0,0,0,0c0,0,0,0,0,0c0,0,0,0,0,0c0,0,0,0,0,0c0,0,0,0,0,0c0-0.1,0-0.2,0.1-0.4
			c-0.1-0.1-0.2-0.2-0.3-0.3c0,0,0,0,0,0c-0.3-0.4-0.6-0.7-0.8-0.9c0,0,0,0,0,0c0,0,0,0-0.1-0.1c0,0,0,0,0,0c0,0,0,0,0,0
			c0,0,0,0,0,0c0,0,0,0,0,0c0,0,0,0,0,0c0,0,0,0,0,0c0,0,0,0,0,0c0,0,0,0,0,0c0,0,0,0,0,0c0,0,0,0,0,0c0,0,0,0,0,0l0,0c0,0,0,0,0,0
			c0,0,0,0,0,0c0,0,0,0,0,0s0,0,0,0v0c0,0,0,0,0,0c0,0,0,0,0,0c0,0,0,0,0,0c0,0,0,0,0,0c0,0,0,0,0,0c0,0,0,0,0,0c0,0,0,0,0-0.1v0
			c0-0.4,0.7-1.2,1.3-0.7c0.2,0.2,0.7,0.7,1.3,1.3c0.2,0,0.4,0,0.5,0.1l0.2,0.1c0,0,0.1,0.1,0.1,0.1c0.1,0.1,0.1,0.1,0.2,0.2
			c0.1,0.1,0.2,0.2,0.2,0.3c0.1,0.1,0.3,0.3,0.4,0.5c0.2,0.3,0.5,0.6,0.8,0.9c0.1,0.1,0.2,0.2,0.3,0.3c0.3,0.3,0.6,0.6,0.8,0.9
			c0.3,0.3,0.5,0.6,0.8,0.9c0.4,0.4,0.8,0.8,1.1,1.2c0.3,0.3,0.5,0.6,0.8,0.8c0.4,0.4,0.8,0.9,1.2,1.3c0,0,0.1,0.1,0.1,0.1
			c0,0,0,0,0.1-0.1c0.9-1,2.1-1.3,3.1-1c0,0,0,0,0,0C34.8,69.2,36.7,69.8,37.9,70.3z"/>
	</g>
	<g>
		
			<linearGradient id="SVGID_00000142871125416384827040000017858614977237083303_" gradientUnits="userSpaceOnUse" x1="162.6916" y1="94.1102" x2="164.8515" y2="94.1102" gradientTransform="matrix(5.5435 13.0826 -13.0826 5.5435 358.1954 -2597.3655)">
			<stop  offset="0" style="stop-color:#284C6F"/>
			<stop  offset="3.449857e-04" style="stop-color:#284C6F"/>
			<stop  offset="1" style="stop-color:#3E6693"/>
		</linearGradient>
		<path style="fill:url(#SVGID_00000142871125416384827040000017858614977237083303_);" d="M36.9,71.7L36.9,71.7
			C36.9,71.7,36.9,71.7,36.9,71.7C36.9,71.7,36.9,71.7,36.9,71.7"/>
		<path class="st33" d="M26.9,67.8c0,0-5.4-6.1-5.7-6.4c-0.3-0.3,0.6-1.4,1.2-0.8c1,1,5.9,6.2,6.4,6.6
			C29.4,67.5,27.9,68.6,26.9,67.8"/>
		
			<linearGradient id="SVGID_00000084503369848049520810000012520782636068236983_" gradientUnits="userSpaceOnUse" x1="139.9108" y1="79.4166" x2="142.0707" y2="79.4166" gradientTransform="matrix(6.3307 -5.0193 5.0193 6.3307 -1273.5089 275.135)">
			<stop  offset="0" style="stop-color:#2B4E7C"/>
			<stop  offset="3.449857e-04" style="stop-color:#2B4E7C"/>
			<stop  offset="1" style="stop-color:#4369A5"/>
		</linearGradient>
		<path style="fill:url(#SVGID_00000084503369848049520810000012520782636068236983_);" d="M27.7,68.1L27.7,68.1
			c0.1,0,0.3,0,0.4-0.1c0,0,0,0,0,0C28,68.1,27.9,68.1,27.7,68.1 M21.2,61.4C21.2,61.4,21.2,61.4,21.2,61.4
			C21.2,61.4,21.2,61.4,21.2,61.4 M21.2,61.4C21.2,61.4,21.2,61.4,21.2,61.4C21.2,61.4,21.2,61.4,21.2,61.4 M21.2,61.4
			C21.2,61.4,21.2,61.4,21.2,61.4C21.2,61.4,21.2,61.4,21.2,61.4 M21.2,61.4C21.2,61.4,21.2,61.4,21.2,61.4
			C21.2,61.4,21.2,61.4,21.2,61.4 M21.2,61.4C21.2,61.4,21.2,61.4,21.2,61.4C21.2,61.4,21.2,61.4,21.2,61.4 M21.2,61.4
			C21.2,61.4,21.2,61.4,21.2,61.4C21.2,61.4,21.2,61.4,21.2,61.4 M21.2,61.4C21.2,61.4,21.2,61.4,21.2,61.4
			C21.2,61.4,21.2,61.4,21.2,61.4"/>
		<path class="st35" d="M27.1,68c0.2,0.1,0.4,0.1,0.6,0.1l0,0C27.5,68.1,27.3,68.1,27.1,68"/>
		<path class="st36" d="M26.9,67.8L26.9,67.8c0.1,0.1,0.2,0.1,0.2,0.2c0.2,0.1,0.4,0.1,0.6,0.1c0.1,0,0.3,0,0.4-0.1c0,0,0,0,0,0
			c0,0,0,0,0,0C27.7,68.1,27.3,68.1,26.9,67.8L26.9,67.8 M26.9,67.8C26.9,67.8,26.9,67.8,26.9,67.8C26.9,67.8,26.9,67.8,26.9,67.8
			 M26.9,67.8C26.9,67.8,26.9,67.8,26.9,67.8C26.9,67.8,26.9,67.8,26.9,67.8 M26.9,67.8C26.9,67.8,26.9,67.8,26.9,67.8
			C26.9,67.8,26.9,67.8,26.9,67.8 M26.9,67.8C26.9,67.8,26.9,67.8,26.9,67.8C26.9,67.8,26.9,67.8,26.9,67.8 M26.9,67.8
			C26.9,67.8,26.9,67.8,26.9,67.8C26.9,67.8,26.9,67.8,26.9,67.8 M26.9,67.8C26.9,67.8,26.9,67.8,26.9,67.8
			C26.9,67.8,26.9,67.8,26.9,67.8 M26.9,67.8C26.9,67.8,26.9,67.8,26.9,67.8C26.9,67.8,26.9,67.8,26.9,67.8 M26.9,67.8
			C26.9,67.8,26.9,67.8,26.9,67.8C26.9,67.8,26.9,67.8,26.9,67.8 M26.9,67.8C26.9,67.8,26.9,67.8,26.9,67.8
			C26.9,67.8,26.9,67.8,26.9,67.8 M26.8,67.8C26.8,67.8,26.8,67.8,26.8,67.8C26.8,67.8,26.8,67.8,26.8,67.8 M26.8,67.7
			C26.8,67.8,26.8,67.8,26.8,67.7C26.8,67.8,26.8,67.8,26.8,67.7 M26.8,67.7C26.8,67.7,26.8,67.7,26.8,67.7
			C26.8,67.7,26.8,67.7,26.8,67.7 M26.8,67.7C26.8,67.7,26.8,67.7,26.8,67.7C26.8,67.7,26.8,67.7,26.8,67.7 M22.8,63.2
			c1.5,1.7,3.6,4.1,4,4.5C26.4,67.3,24.3,64.9,22.8,63.2 M22.8,63.2C22.8,63.2,22.8,63.2,22.8,63.2C22.8,63.2,22.8,63.2,22.8,63.2
			 M21.4,60.8c-0.2,0.2-0.2,0.5-0.2,0.6c0,0,0,0,0,0c0,0,0,0,0,0c0,0,0,0,0,0c0,0,0,0,0,0c0,0,0,0,0,0c0,0,0,0,0,0c0,0,0,0,0,0
			c0,0,0,0,0,0c0,0,0,0,0,0c0,0,0,0,0,0c0,0,0,0,0,0c0,0,0,0,0,0c0,0,0,0,0,0c0,0,0,0,0,0c0.1,0.1,0.5,0.5,1,1.2
			c0.1-0.1,0.1-0.3,0.2-0.4c-0.6-0.7-1-1.2-1.1-1.2L21.4,60.8"/>
		
			<linearGradient id="SVGID_00000014597466396766671360000016941879082282353841_" gradientUnits="userSpaceOnUse" x1="139.9108" y1="79.924" x2="142.0707" y2="79.924" gradientTransform="matrix(6.3307 -5.0193 5.0193 6.3307 -1273.5089 275.135)">
			<stop  offset="0" style="stop-color:#2C4F84"/>
			<stop  offset="3.449857e-04" style="stop-color:#2C4F84"/>
			<stop  offset="1" style="stop-color:#4167A6"/>
		</linearGradient>
		<path style="fill:url(#SVGID_00000014597466396766671360000016941879082282353841_);" d="M28.8,67.2
			C28.8,67.2,28.8,67.2,28.8,67.2C28.8,67.2,28.8,67.2,28.8,67.2 M28.8,67.2C28.8,67.2,28.8,67.2,28.8,67.2
			C28.8,67.2,28.8,67.2,28.8,67.2 M28.8,67.2C28.8,67.2,28.8,67.2,28.8,67.2C28.8,67.2,28.8,67.2,28.8,67.2 M28.8,67.1
			C28.8,67.1,28.8,67.1,28.8,67.1C28.8,67.1,28.8,67.1,28.8,67.1 M28.8,67.1C28.8,67.1,28.8,67.1,28.8,67.1
			C28.8,67.1,28.8,67.1,28.8,67.1 M28.8,67.1C28.8,67.1,28.8,67.1,28.8,67.1C28.8,67.1,28.8,67.1,28.8,67.1 M28.8,67.1
			C28.8,67.1,28.8,67.1,28.8,67.1C28.8,67.1,28.8,67.1,28.8,67.1 M28.8,67.1C28.8,67.1,28.8,67.1,28.8,67.1
			C28.8,67.1,28.8,67.1,28.8,67.1 M28.8,67.1C28.8,67.1,28.8,67.1,28.8,67.1C28.8,67.1,28.8,67.1,28.8,67.1 M28.8,67.1
			C28.8,67.1,28.8,67.1,28.8,67.1C28.8,67.1,28.8,67.1,28.8,67.1 M28.8,67.1C28.8,67.1,28.8,67.1,28.8,67.1
			C28.8,67.1,28.8,67.1,28.8,67.1 M28.8,67.1C28.8,67.1,28.8,67.1,28.8,67.1C28.8,67.1,28.8,67.1,28.8,67.1 M28.4,66.8
			c0.2,0.2,0.3,0.3,0.4,0.4C28.7,67.1,28.6,67,28.4,66.8 M28.4,66.8C28.4,66.8,28.4,66.8,28.4,66.8C28.4,66.8,28.4,66.8,28.4,66.8
			 M28.4,66.7C28.4,66.8,28.4,66.8,28.4,66.7C28.4,66.8,28.4,66.8,28.4,66.7 M28.4,66.7C28.4,66.7,28.4,66.7,28.4,66.7
			C28.4,66.7,28.4,66.7,28.4,66.7 M28.4,66.7C28.4,66.7,28.4,66.7,28.4,66.7C28.4,66.7,28.4,66.7,28.4,66.7 M28.3,66.7
			C28.3,66.7,28.3,66.7,28.3,66.7C28.3,66.7,28.3,66.7,28.3,66.7 M28.3,66.7C28.3,66.7,28.3,66.7,28.3,66.7
			C28.3,66.7,28.3,66.7,28.3,66.7 M28.3,66.6C28.3,66.6,28.3,66.6,28.3,66.6C28.3,66.6,28.3,66.6,28.3,66.6 M28.3,66.6
			C28.3,66.6,28.3,66.6,28.3,66.6C28.3,66.6,28.3,66.6,28.3,66.6 M28.2,66.6C28.2,66.6,28.2,66.6,28.2,66.6
			C28.2,66.6,28.2,66.6,28.2,66.6 M28.2,66.6C28.2,66.6,28.2,66.6,28.2,66.6C28.2,66.6,28.2,66.6,28.2,66.6 M28.2,66.6
			C28.2,66.6,28.2,66.6,28.2,66.6C28.2,66.6,28.2,66.6,28.2,66.6"/>
		<path class="st38" d="M26.9,67.8C26.9,67.8,26.9,67.8,26.9,67.8C26.9,67.8,26.9,67.8,26.9,67.8 M26.9,67.8
			C26.9,67.8,26.9,67.8,26.9,67.8C26.9,67.8,26.9,67.8,26.9,67.8 M26.9,67.8C26.9,67.8,26.9,67.8,26.9,67.8
			C26.9,67.8,26.9,67.8,26.9,67.8 M26.9,67.8C26.9,67.8,26.9,67.8,26.9,67.8C26.9,67.8,26.9,67.8,26.9,67.8 M26.9,67.8
			C26.9,67.8,26.9,67.8,26.9,67.8C26.9,67.8,26.9,67.8,26.9,67.8 M26.9,67.8C26.9,67.8,26.9,67.8,26.9,67.8
			C26.9,67.8,26.9,67.8,26.9,67.8 M26.9,67.8C26.9,67.8,26.9,67.8,26.9,67.8C26.9,67.8,26.9,67.8,26.9,67.8 M26.9,67.8
			C26.9,67.8,26.9,67.8,26.9,67.8C26.9,67.8,26.9,67.8,26.9,67.8 M26.9,67.8C26.9,67.8,26.9,67.8,26.9,67.8
			C26.9,67.8,26.9,67.8,26.9,67.8 M26.9,67.8C26.9,67.8,26.9,67.8,26.9,67.8C26.9,67.8,26.9,67.8,26.9,67.8 M26.8,67.8
			C26.8,67.8,26.8,67.8,26.8,67.8C26.8,67.8,26.8,67.8,26.8,67.8 M26.8,67.7C26.8,67.7,26.8,67.7,26.8,67.7
			C26.8,67.7,26.8,67.7,26.8,67.7 M26.8,67.7C26.8,67.7,26.8,67.7,26.8,67.7C26.8,67.7,26.8,67.7,26.8,67.7 M26.8,67.7
			C26.8,67.7,26.8,67.7,26.8,67.7C26.8,67.7,26.8,67.7,26.8,67.7 M22.8,63.2C22.8,63.2,22.8,63.2,22.8,63.2
			C22.8,63.2,22.8,63.2,22.8,63.2 M22.2,62.6L22.2,62.6c0.2,0.2,0.3,0.4,0.5,0.6C22.6,62.9,22.4,62.7,22.2,62.6 M23.3,61.6
			c-0.3,0.1-0.6,0.3-0.8,0.6c1.7,1.9,4.6,5.2,4.6,5.2c0.4,0.3,0.8,0.3,1.2,0.2c0.2-0.1,0.5-0.2,0.6-0.3c0.1,0.2-0.3,0.6-0.8,0.8
			c0.6-0.2,1-0.6,0.7-0.9c0,0,0,0,0,0c0,0,0,0,0,0c0,0,0,0,0,0c0,0,0,0,0,0c0,0,0,0,0,0l0,0c0,0,0,0,0,0c0,0,0,0,0,0c0,0,0,0,0,0
			c0,0,0,0,0,0c0,0,0,0,0,0c0,0,0,0,0,0c0,0,0,0,0,0c0,0,0,0,0,0c0,0,0,0,0,0c0,0,0,0,0,0c0,0,0,0,0,0c0,0,0,0,0,0l0,0c0,0,0,0,0,0
			c0,0,0,0,0,0c0,0,0,0,0,0c0,0,0,0,0,0c0,0,0,0,0,0l0,0c0,0,0,0,0,0c0,0,0,0,0,0c-0.1-0.1-0.2-0.2-0.4-0.4l0,0c0,0,0,0,0,0
			c0,0,0,0,0,0c0,0,0,0,0,0l0,0c0,0,0,0,0,0c0,0,0,0,0,0c0,0,0,0,0,0c0,0,0,0,0,0c0,0,0,0-0.1-0.1c0,0,0,0,0,0c0,0,0,0,0,0
			c0,0,0,0,0,0c0,0,0,0,0,0c0,0,0,0,0,0c0,0,0,0,0,0c0,0,0,0,0,0c0,0,0,0,0,0c0,0,0,0,0,0c0,0,0,0,0,0c0,0,0,0,0,0c0,0,0,0,0,0
			c-1.1-1.1-3.4-3.6-4.8-5C23.4,61.6,23.3,61.6,23.3,61.6"/>
		<path class="st39" d="M22.5,62.2c-0.1,0.1-0.2,0.3-0.2,0.4c0.2,0.2,0.3,0.4,0.5,0.6c0,0,0,0,0,0c0,0,0,0,0,0
			c1.5,1.7,3.6,4.1,4,4.5c0,0,0,0,0,0c0,0,0,0,0,0c0,0,0,0,0,0c0,0,0,0,0,0c0,0,0,0,0,0c0,0,0,0,0,0c0,0,0,0,0,0c0,0,0,0,0,0
			c0,0,0,0,0,0c0,0,0,0,0,0c0,0,0,0,0,0c0,0,0,0,0,0c0,0,0,0,0,0c0,0,0,0,0,0c0,0,0,0,0,0c0,0,0,0,0,0c0,0,0,0,0,0c0,0,0,0,0,0
			c0,0,0,0,0,0c0,0,0,0,0,0c0,0,0,0,0,0c0,0,0,0,0,0c0,0,0,0,0,0c0,0,0,0,0,0c0,0,0,0,0,0c0,0,0,0,0,0c0,0,0,0,0,0l0,0
			c0.4,0.3,0.8,0.3,1.2,0.2c0,0,0,0,0,0c0.5-0.1,0.9-0.5,0.8-0.8c-0.2,0.1-0.4,0.3-0.6,0.3c-0.4,0.1-0.8,0.1-1.2-0.2
			C27.1,67.3,24.1,64,22.5,62.2"/>
		<path class="st33" d="M22.5,63.4c0,0.1,0.2,0.3,0.5,0.6c0.3,0.3,0.7,0.8,1.2,1.3c0.2,0.2,0.4,0.5,0.6,0.7c0.4,0.4,0.7,0.9,1.1,1.3
			c0.2,0.2,0.4,0.5,0.6,0.7c0.4,0.4,0.8,0.9,1.1,1.3c0.2,0.3,0.4,0.5,0.7,0.8c0.4,0.4,0.8,0.9,1.1,1.3c1,1.1,1.6,1.8,1.6,1.8
			c1.5,1.2,3.8-0.4,3-1c-0.3-0.2-1.4-1.4-2.9-2.9c-0.4-0.4-0.8-0.8-1.2-1.3c-0.3-0.3-0.5-0.6-0.8-0.8c-0.4-0.4-0.8-0.8-1.1-1.2
			c-0.3-0.3-0.5-0.6-0.8-0.9c-0.4-0.4-0.8-0.8-1.1-1.2c-0.3-0.3-0.6-0.6-0.8-0.9c-0.4-0.4-0.7-0.8-1-1L24.3,62
			C23.4,61.4,22.2,63,22.5,63.4z"/>
		
			<linearGradient id="SVGID_00000014626855853361536080000006679942998351706264_" gradientUnits="userSpaceOnUse" x1="35.0427" y1="73.8654" x2="36.5155" y2="70.011">
			<stop  offset="0" style="stop-color:#7145AF"/>
			<stop  offset="1" style="stop-color:#A66FDB"/>
		</linearGradient>
		<path style="fill:url(#SVGID_00000014626855853361536080000006679942998351706264_);" d="M34.8,70.4c-1.1,1.3-4.1,2.3-3,3.2
			c0.2,0.2,3.3,1,3.5,1.1c1,0.4,2.4,0.1,3.3-1c1.1-1.3,1.3-3.2,0.1-4c-0.8-0.5-3.8-1.5-4.2-1.5C33.5,68.1,35.6,69.5,34.8,70.4z"/>
		<path class="st41" d="M31.8,73.7c-0.8-0.8,0.9-1.6,2.2-2.5c0.4,0.1,0.5,0.3,0.3,0.7c-0.9,1.6,1.8,2.9,3.9,2.4
			c-0.9,0.7-2,0.9-2.9,0.6C35.1,74.7,31.9,73.8,31.8,73.7z"/>
		
			<linearGradient id="SVGID_00000064316021311664453710000000348775566454970258_" gradientUnits="userSpaceOnUse" x1="29.2673" y1="66.7879" x2="26.964" y2="69.2791">
			<stop  offset="0" style="stop-color:#A379DE"/>
			<stop  offset="1" style="stop-color:#905BC5"/>
		</linearGradient>
		<path style="fill:url(#SVGID_00000064316021311664453710000000348775566454970258_);" d="M34.1,72.2c-0.3-0.2-1.4-1.4-2.9-2.9
			c0,0,0,0,0,0c-0.4-0.4-0.8-0.8-1.2-1.3c-0.6,0.2-1.1,0.8-1.4,1.4c-0.2-0.3-0.5-0.6-0.8-0.8c0.2-0.6,0.6-1.2,1.4-1.4
			c-0.4-0.4-0.8-0.8-1.1-1.2c-0.6,0.3-1,0.9-1.3,1.4c-0.2-0.3-0.5-0.6-0.7-0.8c0.2-0.6,0.5-1.2,1.2-1.4c-0.4-0.4-0.8-0.8-1.1-1.2
			c-0.5,0.3-0.9,0.9-1.1,1.4c-0.3-0.3-0.5-0.6-0.7-0.8c0.1-0.6,0.4-1.2,1-1.5c-0.4-0.4-0.7-0.8-1-1L24.3,62c-0.4,0.3-0.8,0.9-1,1.3
			c-0.2-0.3-0.4-0.5-0.6-0.7c-0.2,0.3-0.3,0.6-0.2,0.8c0.1,0.1,0.3,0.4,0.7,0.8c0.3,0.3,0.6,0.7,0.9,1.1c0,0,0,0,0,0
			c1.2,1.4,2.8,3.2,4.2,4.8c0,0,0,0,0,0c0.2,0.2,0.4,0.5,0.6,0.7c0.3,0.4,0.6,0.7,0.9,1c0.3,0.4,0.6,0.7,0.8,0.9l0.2,0.2l0,0
			l0.1,0.1l0.1,0.1c0.4,0.3,0.9,0.4,1.4,0.4c0.6-0.1,1.2-0.4,1.7-0.9L34.1,72.2z M29.8,70.7c0,0-0.1-0.1-0.1-0.1
			c0.1-0.3,0.2-0.5,0.4-0.7C30,70.1,29.9,70.4,29.8,70.7z"/>
		<ellipse transform="matrix(0.6687 -0.7436 0.7436 0.6687 -41.8061 48.2873)" class="st43" cx="33.3" cy="71.1" rx="3" ry="2.5"/>
		<path class="st41" d="M31.8,69.7c-0.9,1-0.9,2.4-0.1,3.1c0.8,0.7,2.2,0.5,3.1-0.4c0.9-1,0.9-2.4,0.1-3.1
			C34.1,68.5,32.7,68.7,31.8,69.7z"/>
		<path class="st43" d="M31.5,73.1l0.3,0.1c0.5,0.1,1.1,0,1.7-0.3c0.5-0.3,0.9-0.7,1.2-1.3c0.3-0.5,0.3-1.1,0.2-1.5
			c-0.2-0.8-1.1-1-2-0.5c-0.7,0.4-1.2,1.3-1,2c0.2,0.6,0.8,0.8,1.5,0.4c0.5-0.3,0.9-1,0.7-1.5l-0.2-0.1l-0.1,0.2
			c0.1,0.3-0.1,0.8-0.5,1c-0.2,0.1-0.5,0.2-0.7,0.1c-0.2-0.1-0.3-0.2-0.4-0.4c-0.2-0.5,0.2-1.2,0.7-1.5c0.7-0.4,1.4-0.2,1.6,0.4
			c0.2,0.8-0.3,1.8-1.1,2.3c-0.5,0.3-1,0.4-1.5,0.3c-0.4-0.1-0.8-0.4-0.9-0.9l-0.2-0.1l-0.1,0.2C30.9,72.6,31.1,72.9,31.5,73.1z"/>
		<path class="st44" d="M35.8,69c0,0,1.8,1.6-0.1,3.6l2.7,0.9c0,0,1.5-1.7,0.3-3.4L35.8,69z"/>
	</g>
	
		<linearGradient id="SVGID_00000078033923955459942330000011992037072537798533_" gradientUnits="userSpaceOnUse" x1="23.7035" y1="25.3095" x2="16.945" y2="19.2538" gradientTransform="matrix(1 0 0 -1 0 88)">
		<stop  offset="0" style="stop-color:#F7931A"/>
		<stop  offset="1" style="stop-color:#CC6806"/>
	</linearGradient>
	<path style="fill:url(#SVGID_00000078033923955459942330000011992037072537798533_);" d="M20.2,62c0.3,0.8,0.4,1.8,0.7,2.6
		c0.3,0.7,0.8,1.4,1.6,1.7c0.5,0.2,1.2,0.3,1.7,0.2c0,0,1.5-0.3,2.4-1.2c1-0.9,1,0.2,0.8,0.8c-0.4,0.9-1.1,1.8-1.8,2.5
		c-1.1,1.2-2.7,2-4.3,1.6c-2.8-0.6-4.6-3.5-4.9-6.2c-0.1-0.9,0-1.8,0.4-2.6c0.3-0.6,0.8-1.2,1.5-1.2c0.9,0,1.5,0.9,1.7,1.6
		C20.2,61.9,20.2,61.9,20.2,62z"/>
</g>
</svg>
