<?xml version="1.0" encoding="UTF-8" standalone="no"?>
<!-- Created with Inkscape (http://www.inkscape.org/) -->

<svg
   width="28.49645mm"
   height="5.8084455mm"
   viewBox="0 0 28.49645 5.8084455"
   version="1.1"
   id="svg1"
   inkscape:export-filename="logo-6.svg"
   inkscape:export-xdpi="96"
   inkscape:export-ydpi="96"
   xmlns:inkscape="http://www.inkscape.org/namespaces/inkscape"
   xmlns:sodipodi="http://sodipodi.sourceforge.net/DTD/sodipodi-0.dtd"
   xmlns="http://www.w3.org/2000/svg"
   xmlns:svg="http://www.w3.org/2000/svg">
  <sodipodi:namedview
     id="namedview1"
     pagecolor="#ffffff"
     bordercolor="#000000"
     borderopacity="0.25"
     inkscape:showpageshadow="2"
     inkscape:pageopacity="0.0"
     inkscape:pagecheckerboard="0"
     inkscape:deskcolor="#d1d1d1"
     inkscape:document-units="mm" />
  <defs
     id="defs1" />
  <g
     inkscape:label="Layer 1"
     inkscape:groupmode="layer"
     id="layer1"
     transform="translate(-43.881558,-31.483666)">
    <path
       style="font-weight:bold;font-size:32px;font-family:Gayathri;-inkscape-font-specification:'Gayathri, Bold';white-space:pre;fill:#ef004b;fill-opacity:1"
       d="m 182.78906,140.94656 c 0.51563,0 1.59375,-0.21875 1.59375,-0.875 v -20.20313 c 0,-0.65625 -1.07812,-0.875 -1.59375,-0.875 -0.5,0 -1.57812,0.21875 -1.57812,0.875 v 9.23438 h -12.1875 v -9.23438 c 0,-0.65625 -1.07813,-0.875 -1.57813,-0.875 -0.51562,0 -1.59375,0.21875 -1.59375,0.875 v 20.20313 c 0,0.65625 1.07813,0.875 1.59375,0.875 0.5,0 1.57813,-0.21875 1.57813,-0.875 v -9.23438 h 12.1875 v 9.23438 c 0,0.65625 1.07812,0.875 1.57812,0.875 z m 5.53125,0 c 0.5,0 1.57813,-0.21875 1.57813,-0.875 v -20.20313 c 0,-0.65625 -1.07813,-0.875 -1.57813,-0.875 -0.51562,0 -1.59375,0.21875 -1.59375,0.875 v 20.20313 c 0,0.65625 1.07813,0.875 1.59375,0.875 z m 20.76563,0 c 0.59375,0 1.875,-0.23438 1.875,-1 v -20.28125 c 0,-0.5 -0.84375,-0.67188 -1.23438,-0.67188 -0.39062,0 -1.23437,0.17188 -1.23437,0.67188 v 16.92187 l -12.65625,-17 c -0.34375,-0.45312 -1.17188,-0.59375 -1.71875,-0.59375 -0.625,0 -1.875,0.21875 -1.875,1.03125 v 20.26563 c 0,0.5 0.85937,0.65625 1.23437,0.65625 0.375,0 1.23438,-0.15625 1.23438,-0.65625 v -16.9375 l 12.64062,17 c 0.34375,0.45312 1.1875,0.59375 1.73438,0.59375 z m 13.85937,-0.375 c 6.28125,0 9.96875,-4.625 9.96875,-10.53125 0,-5.89063 -3.67187,-10.67188 -9.96875,-10.67188 h -7.28125 c -0.5,0 -1.57812,0.21875 -1.57812,0.875 v 19.45313 c 0,0.65625 1.07812,0.875 1.57812,0.875 z m 0,-1.75 h -5.6875 v -17.70313 h 5.6875 c 4.67188,0 6.8125,4.98438 6.8125,8.90625 0,3.96875 -2.125,8.79688 -6.8125,8.79688 z m 28.04688,1.75 c 0.51562,0 1.59375,-0.21875 1.59375,-0.875 0,-0.65625 -1.07813,-0.875 -1.59375,-0.875 h -12.5625 v -7.98438 h 10.57812 c 0.5,0 1.57813,-0.21875 1.57813,-0.875 0,-0.65625 -1.07813,-0.875 -1.57813,-0.875 h -10.57812 v -7.96875 h 12.5625 c 0.51562,0 1.59375,-0.21875 1.59375,-0.875 0,-0.65625 -1.07813,-0.875 -1.59375,-0.875 h -14.03125 c -0.5,0 -1.70313,0.28125 -1.70313,0.9375 v 19.32813 c 0,0.65625 1.1875,0.9375 1.70313,0.9375 z m 4.46875,0.375 c 0.45312,0 0.95312,-0.10938 1.20312,-0.40625 l 6.95313,-8.54688 6.59375,8.42188 c 0.3125,0.40625 1.01562,0.53125 1.625,0.53125 0.21875,0 0.42187,-0.0156 0.59375,-0.0469 0.39062,-0.0781 1.10937,-0.375 1.10937,-0.79687 0,-0.10938 -0.0312,-0.21875 -0.125,-0.32813 l -7.92187,-10.09375 7.95312,-9.76562 c 0.0781,-0.0937 0.10938,-0.1875 0.10938,-0.26563 0,-0.32812 -0.53125,-0.54687 -0.82813,-0.60937 -0.14062,-0.0312 -0.3125,-0.0469 -0.48437,-0.0469 -0.45313,0 -0.96875,0.10938 -1.20313,0.40625 l -6.9375,8.51563 -6.5625,-8.375 c -0.3125,-0.39063 -1,-0.53125 -1.59375,-0.53125 -0.23437,0 -0.4375,0.0156 -0.625,0.0469 -0.39062,0.0625 -1.10937,0.35938 -1.10937,0.79688 0,0.0937 0.0312,0.20312 0.125,0.32812 l 7.89062,10.04688 -7.96875,9.79687 c -0.0781,0.0937 -0.10937,0.1875 -0.10937,0.26563 0,0.32812 0.53125,0.54687 0.84375,0.60937 0.14062,0.0312 0.29687,0.0469 0.46875,0.0469 z"
       id="text1"
       transform="scale(0.26458333)"
       aria-label="HINDEX" />
  </g>
</svg>
