<?xml version="1.0" encoding="UTF-8" standalone="no"?>
<!-- Created with Inkscape (http://www.inkscape.org/) -->

<svg
   width="27.483593mm"
   height="6.5525718mm"
   viewBox="0 0 27.483593 6.5525718"
   version="1.1"
   id="svg1"
   inkscape:export-filename="logo.svg"
   inkscape:export-xdpi="96"
   inkscape:export-ydpi="96"
   xmlns:inkscape="http://www.inkscape.org/namespaces/inkscape"
   xmlns:sodipodi="http://sodipodi.sourceforge.net/DTD/sodipodi-0.dtd"
   xmlns="http://www.w3.org/2000/svg"
   xmlns:svg="http://www.w3.org/2000/svg">
  <sodipodi:namedview
     id="namedview1"
     pagecolor="#ffffff"
     bordercolor="#000000"
     borderopacity="0.25"
     inkscape:showpageshadow="2"
     inkscape:pageopacity="0.0"
     inkscape:pagecheckerboard="0"
     inkscape:deskcolor="#d1d1d1"
     inkscape:document-units="mm"
     inkscape:zoom="1.1019851"
     inkscape:cx="396.55708"
     inkscape:cy="561.25984"
     inkscape:window-width="2490"
     inkscape:window-height="1525"
     inkscape:window-x="70"
     inkscape:window-y="38"
     inkscape:window-maximized="1"
     inkscape:current-layer="layer1" />
  <defs
     id="defs1" />
  <g
     inkscape:label="Layer 1"
     inkscape:groupmode="layer"
     id="layer1"
     transform="translate(-32.083314,-25.013459)">
    <path
       style="font-size:32px;font-family:KacstDigital;-inkscape-font-specification:KacstDigital;white-space:pre"
       d="m 135.91602,108.28906 v 10.5625 h -2.875 v -10.46875 q 0,-2.48437 -0.96875,-3.71875 -0.96875,-1.23437 -2.90625,-1.23437 -2.32813,0 -3.67188,1.48437 -1.34375,1.48438 -1.34375,4.04688 v 9.89062 h -2.89062 V 94.539062 h 2.89062 v 9.531248 q 1.03125,-1.57812 2.42188,-2.35937 1.40625,-0.78125 3.23437,-0.78125 3.01563,0 4.5625,1.875 1.54688,1.85937 1.54688,5.48437 z m 5.73437,-6.9375 h 2.875 v 17.5 h -2.875 z m 0,-6.812498 h 2.875 v 3.640625 h -2.875 z m 23.4375,13.749998 v 10.5625 h -2.875 v -10.46875 q 0,-2.48437 -0.96875,-3.71875 -0.96875,-1.23437 -2.90625,-1.23437 -2.32812,0 -3.67187,1.48437 -1.34375,1.48438 -1.34375,4.04688 v 9.89062 h -2.89063 v -17.5 h 2.89063 v 2.71875 q 1.03125,-1.57812 2.42187,-2.35937 1.40625,-0.78125 3.23438,-0.78125 3.01562,0 4.5625,1.875 1.54687,1.85937 1.54687,5.48437 z m 17.25,-4.28125 v -9.468748 h 2.875 v 24.312498 h -2.875 v -2.625 q -0.90625,1.5625 -2.29687,2.32813 -1.375,0.75 -3.3125,0.75 -3.17188,0 -5.17188,-2.53125 -1.98437,-2.53125 -1.98437,-6.65625 0,-4.125 1.98437,-6.65625 2,-2.53125 5.17188,-2.53125 1.9375,0 3.3125,0.76562 1.39062,0.75 2.29687,2.3125 z m -9.79687,6.10938 q 0,3.17187 1.29687,4.98437 1.3125,1.79688 3.59375,1.79688 2.28125,0 3.59375,-1.79688 1.3125,-1.8125 1.3125,-4.98437 0,-3.17188 -1.3125,-4.96875 -1.3125,-1.8125 -3.59375,-1.8125 -2.28125,0 -3.59375,1.8125 -1.29687,1.79687 -1.29687,4.96875 z m 33.5625,-0.73438 v 1.40625 h -13.21875 q 0.1875,2.96875 1.78125,4.53125 1.60937,1.54688 4.46875,1.54688 1.65625,0 3.20312,-0.40625 1.5625,-0.40625 3.09375,-1.21875 v 2.71875 q -1.54687,0.65625 -3.17187,1 -1.625,0.34375 -3.29688,0.34375 -4.1875,0 -6.64062,-2.4375 -2.4375,-2.4375 -2.4375,-6.59375 0,-4.29688 2.3125,-6.8125 2.32812,-2.53125 6.26562,-2.53125 3.53125,0 5.57813,2.28125 2.0625,2.26562 2.0625,6.17187 z m -2.875,-0.84375 q -0.0312,-2.35937 -1.32813,-3.76562 -1.28125,-1.40625 -3.40625,-1.40625 -2.40625,0 -3.85937,1.35937 -1.4375,1.35938 -1.65625,3.82813 z m 21.57812,-7.1875 -6.32812,8.51563 6.65625,8.98437 h -3.39063 l -5.09375,-6.875 -5.09375,6.875 h -3.39062 l 6.79687,-9.15625 -6.21875,-8.34375 h 3.39063 l 4.64062,6.23438 4.64063,-6.23438 z"
       id="text1"
       transform="scale(0.26458333)"
       aria-label="hindex" />
  </g>
</svg>
