<?xml version="1.0" encoding="UTF-8" standalone="no"?>
<!-- Created with Inkscape (http://www.inkscape.org/) -->

<svg
   width="210mm"
   height="297mm"
   viewBox="0 0 210 297"
   version="1.1"
   id="svg1"
   inkscape:export-filename="apps/bitmap-1.svg"
   inkscape:export-xdpi="24.190475"
   inkscape:export-ydpi="24.190475"
   inkscape:version="1.3 (0e150ed, 2023-07-21)"
   sodipodi:docname="drawing-1.svg"
   xmlns:inkscape="http://www.inkscape.org/namespaces/inkscape"
   xmlns:sodipodi="http://sodipodi.sourceforge.net/DTD/sodipodi-0.dtd"
   xmlns="http://www.w3.org/2000/svg"
   xmlns:svg="http://www.w3.org/2000/svg">
  <sodipodi:namedview
     id="namedview1"
     pagecolor="#ffffff"
     bordercolor="#000000"
     borderopacity="0.25"
     inkscape:showpageshadow="2"
     inkscape:pageopacity="0.0"
     inkscape:pagecheckerboard="0"
     inkscape:deskcolor="#d1d1d1"
     inkscape:document-units="mm"
     inkscape:zoom="1.1019851"
     inkscape:cx="414.25241"
     inkscape:cy="113.88538"
     inkscape:window-width="2490"
     inkscape:window-height="1525"
     inkscape:window-x="70"
     inkscape:window-y="38"
     inkscape:window-maximized="1"
     inkscape:current-layer="layer1" />
  <defs
     id="defs1" />
  <g
     inkscape:label="Layer 1"
     inkscape:groupmode="layer"
     id="layer1">
    <path
       d="m 237.80971,202.44759 q 0,1.536 0.46933,2.77333 0.46934,1.19467 2.048,1.40801 0.51201,0.0427 0.51201,0.55466 v 1.408 q 0,0.59734 -0.64001,0.59734 -2.09066,0 -3.49866,0.256 -1.36534,0.21333 -2.38934,0.59733 -0.98133,0.34133 -1.96267,0.768 -0.17066,0.0853 -0.29866,0.0853 h -0.128 q -0.0853,0 -0.0853,-0.17067 0,-0.17067 0.0853,-0.81067 0.0853,-0.68267 0.17066,-1.49333 0.128,-0.85334 0.21334,-1.45067 -0.21334,0.55467 -0.93867,1.49333 -0.68267,0.93867 -2.048,1.70667 -1.32267,0.72534 -3.49867,0.72534 -1.45067,0 -3.11467,-0.59734 -1.62134,-0.59733 -3.072,-1.92 -1.45067,-1.32267 -2.38934,-3.456 -0.896,-2.176 -0.896,-5.29067 0,-3.96801 1.408,-6.40001 1.45067,-2.47467 3.712,-3.62667 2.30401,-1.152 4.86401,-1.152 2.09067,0 3.84,0.64 1.74934,0.64 3.072,1.83467 1.10934,-0.46933 1.87734,-0.85333 0.81066,-0.42667 1.36533,-0.85334 0.21334,-0.17066 0.42667,-0.34133 0.256,-0.17067 0.55467,-0.34133 0.128,-0.0853 0.21333,-0.0853 h 0.0427 q 0.0853,0 0.0853,0.0853 z m -5.97334,-6.69867 q -0.128,-0.85334 -0.64,-1.87734 -0.46933,-1.06667 -1.45067,-1.792 -0.98133,-0.768 -2.64533,-0.768 -2.048,0 -3.2,1.024 -1.152,0.98134 -1.62134,2.56 -0.42667,1.57867 -0.42667,3.37067 0,4.09601 1.62134,6.48534 1.664,2.38934 4.26667,2.38934 1.536,0 2.38933,-0.64 0.896,-0.68267 1.28,-1.36534 0.38401,-0.68267 0.42667,-0.81067 z m 53.07732,12.03201 q 0.64,0 0.64,0.64 v 1.28 q 0,0.64 -0.64,0.64 h -12.03201 q -0.64,0 -0.64,-0.64 v -1.28 q 0,-0.64 0.64,-0.64 h 0.21333 q 1.36534,0 1.792,-0.98134 0.42667,-1.024 0.42667,-3.072 v -7.29601 q 0,-1.152 -0.21333,-2.09066 -0.17067,-0.98134 -0.85334,-1.53601 -0.64,-0.59733 -2.00533,-0.59733 -1.83467,0 -3.24267,1.152 -1.36534,1.152 -2.304,2.90134 v 7.46667 q 0,2.34667 0.72533,3.2 0.768,0.85334 2.00533,0.85334 h 0.34134 q 0.64,0 0.64,0.64 v 1.28 q 0,0.64 -0.64,0.64 h -11.60534 q -0.64,0 -0.64,-0.64 v -1.28 q 0,-0.64 0.64,-0.64 h 0.29866 q 0.896,0 1.57867,-0.85334 0.68267,-0.85333 0.68267,-3.2 v -7.29601 q 0,-2.048 -0.55467,-3.11466 -0.512,-1.10934 -2.51733,-1.10934 -1.06667,0 -2.13334,0.55467 -1.06667,0.512 -1.87733,1.36533 -0.81067,0.81067 -1.19467,1.74934 v 7.85067 q 0,1.70667 0.72533,2.90134 0.768,1.152 2.00534,1.152 h 0.0853 q 0.64,0 0.64,0.64 v 1.28 q 0,0.64 -0.64,0.64 h -11.98934 q -0.64,0 -0.64,-0.64 v -1.28 q 0,-0.64 0.64,-0.64 h 0.0853 q 1.57867,0 2.34667,-1.152 0.768,-1.19467 0.768,-2.90134 v -5.376 q 0,-1.15201 -0.17067,-2.21867 -0.128,-1.06667 -0.68266,-1.792 -0.512,-0.768 -1.70667,-0.896 -0.46933,-0.0427 -0.46933,-0.55467 v -1.45067 q 0,-0.42667 0.59733,-0.55467 3.072,-0.46933 5.248,-1.45066 2.21867,-0.98134 3.07201,-1.57867 0.21333,-0.17067 0.34133,-0.17067 h 0.0427 q 0.0853,0 0.0853,0.0853 0,0.0853 -0.0427,0.34134 l -0.72533,5.248 q 0.59733,-0.98133 1.57867,-2.09067 0.98133,-1.152 2.432,-1.96266 1.45067,-0.85334 3.37067,-0.85334 3.15733,0 4.69333,1.19467 1.53601,1.152 2.09067,2.98667 1.45067,-1.87734 3.37067,-3.02934 1.96267,-1.152 4.48001,-1.152 2.304,0 3.712,0.72534 1.45067,0.68266 2.21867,1.87733 0.768,1.152 1.024,2.64534 0.29866,1.45066 0.29866,2.98666 v 7.04001 q 0,1.70667 0.768,2.90134 0.81067,1.152 2.34667,1.152 z m 27.34932,0 q 0.55467,0 0.55467,0.64 v 1.28 q 0,0.64 -0.64,0.64 h -10.45334 q -0.64001,0 -0.64001,-0.64 v -1.32267 q 0,-0.59733 0.55467,-0.59733 h 0.64 q 0.42667,0 0.768,-0.17067 0.384,-0.17067 0.384,-0.46933 0,-0.29867 -0.34133,-0.64 l -5.632,-6.10134 -0.89601,0.81066 v 2.51734 q 0,1.664 0.128,2.56 0.17067,0.85334 0.64001,1.19467 0.512,0.29867 1.536,0.29867 0.64,0 0.64,0.64 v 1.28 q 0,0.64 -0.64,0.64 h -11.39201 q -0.64,0 -0.64,-0.64 v -1.28 q 0,-0.64 0.64,-0.64 1.57867,0 2.34667,-1.152 0.768,-1.19467 0.768,-2.90134 v -16.00001 q 0,-1.152 -0.17067,-2.21867 -0.128,-1.06667 -0.68267,-1.792 -0.512,-0.768 -1.70667,-0.896 -0.46933,-0.0427 -0.46933,-0.55467 v -1.45067 q 0,-0.256 0.128,-0.34133 0.17067,-0.128 0.46934,-0.21333 3.41333,-1.10934 5.29067,-2.21867 1.87733,-1.10934 2.73066,-1.74934 0.128,-0.0853 0.21334,-0.0853 h 0.0853 q 0.0853,0 0.0853,0.0853 v 21.16269 l 5.20534,-4.73601 q 0.34134,-0.34133 0.34134,-0.59733 0,-0.55467 -0.85334,-0.55467 h -1.28 q -0.55467,0 -0.55467,-0.64 v -1.28 q 0,-0.64 0.64,-0.64 h 9.47201 q 0.64,0 0.64,0.64 v 1.28 q 0,0.64 -0.55467,0.64 h -0.512 q -1.23733,0 -2.21866,0.64 -0.93867,0.64 -2.60267,2.13334 l -3.28534,2.944 9.13067,9.17334 q 0.72534,0.72533 1.15201,1.024 0.42666,0.29867 0.85333,0.29867 z m 21.24795,-5.33334 q 0,1.536 0.46933,2.77333 0.46934,1.19467 2.048,1.40801 0.512,0.0427 0.512,0.55466 v 1.408 q 0,0.59734 -0.64,0.59734 -2.09067,0 -3.49867,0.256 -1.36533,0.21333 -2.38933,0.59733 -0.98134,0.34133 -1.96267,0.768 -0.17067,0.0853 -0.29867,0.0853 h -0.128 q -0.0853,0 -0.0853,-0.17067 0,-0.17067 0.0853,-0.81067 0.0853,-0.68267 0.17067,-1.49333 0.128,-0.85334 0.21333,-1.45067 -0.21333,0.55467 -0.93866,1.49333 -0.68267,0.93867 -2.04801,1.70667 -1.32266,0.72534 -3.49866,0.72534 -1.45067,0 -3.11467,-0.59734 -1.62134,-0.59733 -3.07201,-1.92 -1.45066,-1.32267 -2.38933,-3.456 -0.896,-2.176 -0.896,-5.29067 0,-3.96801 1.408,-6.40001 1.45067,-2.47467 3.712,-3.62667 2.304,-1.152 4.86401,-1.152 2.09066,0 3.84,0.64 1.74933,0.64 3.072,1.83467 1.10934,-0.46933 1.87734,-0.85333 0.81066,-0.42667 1.36533,-0.85334 0.21333,-0.17066 0.42667,-0.34133 0.256,-0.17067 0.55466,-0.34133 0.128,-0.0853 0.21334,-0.0853 h 0.0427 q 0.0853,0 0.0853,0.0853 z m -5.97334,-6.69867 q -0.128,-0.85334 -0.64,-1.87734 -0.46933,-1.06667 -1.45067,-1.792 -0.98133,-0.768 -2.64533,-0.768 -2.04801,0 -3.20001,1.024 -1.152,0.98134 -1.62133,2.56 -0.42667,1.57867 -0.42667,3.37067 0,4.09601 1.62134,6.48534 1.664,2.38934 4.26667,2.38934 1.536,0 2.38933,-0.64 0.896,-0.68267 1.28,-1.36534 0.384,-0.68267 0.42667,-0.81067 z m 53.07731,12.03201 q 0.64,0 0.64,0.64 v 1.28 q 0,0.64 -0.64,0.64 h -12.03201 q -0.64,0 -0.64,-0.64 v -1.28 q 0,-0.64 0.64,-0.64 h 0.21333 q 1.36534,0 1.792,-0.98134 0.42667,-1.024 0.42667,-3.072 v -7.29601 q 0,-1.152 -0.21333,-2.09066 -0.17067,-0.98134 -0.85334,-1.53601 -0.64,-0.59733 -2.00533,-0.59733 -1.83467,0 -3.24267,1.152 -1.36533,1.152 -2.304,2.90134 v 7.46667 q 0,2.34667 0.72533,3.2 0.768,0.85334 2.00534,0.85334 h 0.34133 q 0.64,0 0.64,0.64 v 1.28 q 0,0.64 -0.64,0.64 h -11.60534 q -0.64,0 -0.64,-0.64 v -1.28 q 0,-0.64 0.64,-0.64 h 0.29867 q 0.896,0 1.57866,-0.85334 0.68267,-0.85333 0.68267,-3.2 v -7.29601 q 0,-2.048 -0.55467,-3.11466 -0.512,-1.10934 -2.51733,-1.10934 -1.06667,0 -2.13334,0.55467 -1.06666,0.512 -1.87733,1.36533 -0.81067,0.81067 -1.19467,1.74934 v 7.85067 q 0,1.70667 0.72534,2.90134 0.768,1.152 2.00533,1.152 h 0.0853 q 0.64,0 0.64,0.64 v 1.28 q 0,0.64 -0.64,0.64 H 338.9722 q -0.64,0 -0.64,-0.64 v -1.28 q 0,-0.64 0.64,-0.64 h 0.0853 q 1.57867,0 2.34667,-1.152 0.768,-1.19467 0.768,-2.90134 v -5.376 q 0,-1.15201 -0.17066,-2.21867 -0.128,-1.06667 -0.68267,-1.792 -0.512,-0.768 -1.70667,-0.896 -0.46933,-0.0427 -0.46933,-0.55467 v -1.45067 q 0,-0.42667 0.59733,-0.55467 3.072,-0.46933 5.24801,-1.45066 2.21866,-0.98134 3.072,-1.57867 0.21333,-0.17067 0.34133,-0.17067 h 0.0427 q 0.0853,0 0.0853,0.0853 0,0.0853 -0.0427,0.34134 l -0.72533,5.248 q 0.59733,-0.98133 1.57867,-2.09067 0.98133,-1.152 2.432,-1.96266 1.45067,-0.85334 3.37067,-0.85334 3.15734,0 4.69334,1.19467 1.536,1.152 2.09066,2.98667 1.45067,-1.87734 3.37067,-3.02934 1.96267,-1.152 4.48001,-1.152 2.304,0 3.712,0.72534 1.45067,0.68266 2.21867,1.87733 0.768,1.152 1.024,2.64534 0.29867,1.45066 0.29867,2.98666 v 7.04001 q 0,1.70667 0.768,2.90134 0.81066,1.152 2.34667,1.152 z m 22.35726,-5.33334 q 0,1.536 0.46933,2.77333 0.46933,1.19467 2.048,1.40801 0.512,0.0427 0.512,0.55466 v 1.408 q 0,0.59734 -0.64,0.59734 -2.09067,0 -3.49867,0.256 -1.36533,0.21333 -2.38933,0.59733 -0.98134,0.34133 -1.96267,0.768 -0.17067,0.0853 -0.29867,0.0853 h -0.0853 q -0.128,0 -0.128,-0.128 0.0853,-0.98134 0.17066,-1.92001 0.128,-0.93866 0.29867,-1.87733 -0.21333,0.55467 -0.93867,1.49333 -0.68266,0.93867 -2.048,1.70667 -1.32267,0.72534 -3.49867,0.72534 -1.45066,0 -3.11467,-0.59734 -1.62133,-0.59733 -3.072,-1.92 -1.45067,-1.32267 -2.38933,-3.456 -0.896,-2.176 -0.896,-5.29067 0,-3.96801 1.408,-6.40001 1.45066,-2.47467 3.712,-3.62667 2.304,-1.152 4.864,-1.152 3.24267,0 5.50401,2.00534 v -2.73067 q 0,-1.152 -0.17067,-2.21867 -0.128,-1.06667 -0.64,-1.792 -0.512,-0.768 -1.70667,-0.896 -0.512,-0.0427 -0.512,-0.55467 v -1.45067 q 0,-0.256 0.17067,-0.34133 0.17067,-0.128 0.46933,-0.21333 3.37067,-1.10934 5.24801,-2.21867 1.92,-1.10934 2.77333,-1.74934 0.128,-0.0853 0.21334,-0.0853 h 0.0427 q 0.0853,0 0.0853,0.0853 z m -5.97334,-5.93067 q 0,-2.00534 -1.32267,-3.41334 -1.28,-1.408 -3.41334,-1.408 -2.048,0 -3.2,0.896 -1.152,0.896 -1.62133,2.38934 -0.42667,1.49333 -0.42667,3.28533 0,4.09601 1.62133,6.48534 1.66401,2.38934 4.26667,2.38934 1.15201,0 2.00534,-0.55467 0.85333,-0.59734 1.36533,-1.45067 0.55467,-0.85333 0.72534,-1.62133 z m 31.40264,5.93067 q 0,1.536 0.46933,2.77333 0.46934,1.19467 2.04801,1.40801 0.512,0.0427 0.512,0.55466 v 1.408 q 0,0.59734 -0.64,0.59734 -2.09067,0 -3.49867,0.256 -1.36534,0.21333 -2.38934,0.59733 -0.98133,0.34133 -1.96267,0.768 -0.17066,0.0853 -0.29866,0.0853 h -0.128 q -0.0853,0 -0.0853,-0.17067 0,-0.17067 0.0853,-0.81067 0.0853,-0.68267 0.17066,-1.49333 0.128,-0.85334 0.21334,-1.45067 -0.21334,0.55467 -0.93867,1.49333 -0.68267,0.93867 -2.048,1.70667 -1.32267,0.72534 -3.49867,0.72534 -1.45067,0 -3.11467,-0.59734 -1.62133,-0.59733 -3.072,-1.92 -1.45067,-1.32267 -2.38934,-3.456 -0.896,-2.176 -0.896,-5.29067 0,-3.96801 1.408,-6.40001 1.45067,-2.47467 3.71201,-3.62667 2.304,-1.152 4.864,-1.152 2.09067,0 3.84,0.64 1.74934,0.64 3.072,1.83467 1.10934,-0.46933 1.87734,-0.85333 0.81067,-0.42667 1.36533,-0.85334 0.21334,-0.17066 0.42667,-0.34133 0.256,-0.17067 0.55467,-0.34133 0.128,-0.0853 0.21333,-0.0853 h 0.0427 q 0.0853,0 0.0853,0.0853 z m -5.97334,-6.69867 q -0.128,-0.85334 -0.64,-1.87734 -0.46933,-1.06667 -1.45066,-1.792 -0.98134,-0.768 -2.64534,-0.768 -2.048,0 -3.2,1.024 -1.152,0.98134 -1.62134,2.56 -0.42666,1.57867 -0.42666,3.37067 0,4.09601 1.62133,6.48534 1.664,2.38934 4.26667,2.38934 1.536,0 2.38934,-0.64 0.896,-0.68267 1.28,-1.36534 0.384,-0.68267 0.42666,-0.81067 z m 53.07731,12.03201 q 0.64,0 0.64,0.64 v 1.28 q 0,0.64 -0.64,0.64 h -12.03201 q -0.64,0 -0.64,-0.64 v -1.28 q 0,-0.64 0.64,-0.64 h 0.21334 q 1.36533,0 1.792,-0.98134 0.42667,-1.024 0.42667,-3.072 v -7.29601 q 0,-1.152 -0.21334,-2.09066 -0.17067,-0.98134 -0.85333,-1.53601 -0.64,-0.59733 -2.00534,-0.59733 -1.83467,0 -3.24267,1.152 -1.36533,1.152 -2.304,2.90134 v 7.46667 q 0,2.34667 0.72534,3.2 0.768,0.85334 2.00533,0.85334 h 0.34133 q 0.64,0 0.64,0.64 v 1.28 q 0,0.64 -0.64,0.64 h -11.60534 q -0.64,0 -0.64,-0.64 v -1.28 q 0,-0.64 0.64,-0.64 h 0.29867 q 0.896,0 1.57867,-0.85334 0.68266,-0.85333 0.68266,-3.2 v -7.29601 q 0,-2.048 -0.55466,-3.11466 -0.512,-1.10934 -2.51734,-1.10934 -1.06667,0 -2.13333,0.55467 -1.06667,0.512 -1.87734,1.36533 -0.81066,0.81067 -1.19467,1.74934 v 7.85067 q 0,1.70667 0.72534,2.90134 0.768,1.152 2.00533,1.152 h 0.0853 q 0.64,0 0.64,0.64 v 1.28 q 0,0.64 -0.64,0.64 h -11.98935 q -0.64,0 -0.64,-0.64 v -1.28 q 0,-0.64 0.64,-0.64 h 0.0853 q 1.57867,0 2.34667,-1.152 0.768,-1.19467 0.768,-2.90134 v -5.376 q 0,-1.15201 -0.17067,-2.21867 -0.128,-1.06667 -0.68267,-1.792 -0.512,-0.768 -1.70666,-0.896 -0.46934,-0.0427 -0.46934,-0.55467 v -1.45067 q 0,-0.42667 0.59734,-0.55467 3.072,-0.46933 5.248,-1.45066 2.21867,-0.98134 3.072,-1.57867 0.21333,-0.17067 0.34133,-0.17067 h 0.0427 q 0.0853,0 0.0853,0.0853 0,0.0853 -0.0427,0.34134 l -0.72534,5.248 q 0.59734,-0.98133 1.57867,-2.09067 0.98134,-1.152 2.432,-1.96266 1.45067,-0.85334 3.37067,-0.85334 3.15734,0 4.69334,1.19467 1.536,1.152 2.09067,2.98667 1.45067,-1.87734 3.37067,-3.02934 1.96267,-1.152 4.48,-1.152 2.304,0 3.712,0.72534 1.45067,0.68266 2.21867,1.87733 0.768,1.152 1.024,2.64534 0.29867,1.45066 0.29867,2.98666 v 7.04001 q 0,1.70667 0.768,2.90134 0.81067,1.152 2.34667,1.152 z"
       id="text1"
       style="font-size:42.6667px;font-family:'Young Serif';-inkscape-font-specification:'Young Serif, Normal';white-space:pre;fill:#2d3194"
       transform="matrix(0.26458333,0,0,0.26458333,-12.768944,36.492093)"
       aria-label="hindex" />
    <g
       id="g1"
       transform="translate(1.7922724,0.93823067)">
      <path
         style="fill:#a5d2e8"
         d="m 89.860437,78.278747 c -0.513926,-0.423621 -1.701913,-1.190029 -2.639971,-1.703128 -0.938058,-0.513099 -3.253373,-1.549258 -5.145143,-2.302575 -1.891771,-0.753318 -4.034896,-1.667103 -4.7625,-2.030634 -0.727605,-0.363532 -1.71769,-0.957329 -2.200191,-1.319549 -0.4825,-0.36222 -0.928758,-0.607098 -0.991683,-0.544172 -0.06293,0.06293 0.235474,0.64264 0.66311,1.288253 0.427637,0.645613 1.141785,1.443155 1.586997,1.772313 0.445211,0.329159 0.809475,0.713969 0.809475,0.855134 0,0.141164 -0.338548,0.256662 -0.752329,0.256662 -0.413782,0 -1.428446,-0.232618 -2.254811,-0.516929 -0.826365,-0.284311 -2.039425,-0.902533 -2.695689,-1.373826 -0.662968,-0.476108 -1.655982,-1.58965 -2.2346,-2.505827 -0.572767,-0.906911 -1.432174,-1.939122 -1.909795,-2.293801 -0.477621,-0.354679 -1.273121,-0.780376 -1.767779,-0.945993 -0.494658,-0.165618 -1.447158,-0.298213 -2.116667,-0.294656 -0.669509,0.0036 -1.743255,0.127703 -2.386103,0.275878 -0.642848,0.148175 -1.334744,0.205737 -1.537548,0.127914 -0.305903,-0.117386 -0.292238,-0.270991 0.0802,-0.901474 0.246911,-0.417988 0.769531,-0.949362 1.161377,-1.180831 0.45997,-0.271711 0.831454,-0.823557 1.048264,-1.557216 0.184699,-0.625 0.615146,-1.506561 0.956548,-1.959025 0.341402,-0.452464 1.032398,-1.018011 1.535548,-1.256771 0.503149,-0.23876 1.326529,-0.434109 1.829732,-0.434109 0.503204,0 1.586538,0.338773 2.40741,0.752829 l 1.492494,0.75283 v -0.723432 c 0,-0.511455 -0.128251,-0.712663 -0.437695,-0.686683 -0.273098,0.02293 -0.527064,-0.261745 -0.675345,-0.757002 -0.130708,-0.436563 -0.173105,-1.575195 -0.09422,-2.530293 0.07889,-0.955099 0.377419,-2.416627 0.663398,-3.24784 0.285979,-0.831213 0.893105,-2.211385 1.349169,-3.067048 0.476725,-0.894426 2.2955,-3.160957 4.278622,-5.331955 1.897178,-2.076912 3.830562,-4.38014 4.296409,-5.118284 0.465846,-0.738144 1.054217,-1.870652 1.30749,-2.516685 0.317696,-0.81036 0.457088,-1.893974 0.449503,-3.494392 -0.006,-1.275883 0.09496,-2.385271 0.224466,-2.465308 0.129502,-0.08004 0.72273,0.420877 1.318283,1.113142 0.595554,0.692265 1.604758,2.270694 2.242676,3.507622 0.637917,1.236927 1.377279,2.947123 1.643026,3.800435 l 0.483176,1.551477 -0.588807,0.476788 c -0.323844,0.262232 -2.106032,1.273378 -3.960419,2.246989 -1.854386,0.973611 -4.170977,2.299595 -5.14798,2.946631 -0.977003,0.647035 -2.425774,1.894044 -3.219492,2.77113 -0.793717,0.877086 -1.858114,2.388852 -2.365326,3.35948 -0.507212,0.970627 -1.112269,2.411465 -1.344571,3.201862 -0.232302,0.790397 -0.413885,1.742897 -0.403518,2.116667 0.01162,0.418935 0.194117,0.07071 0.475822,-0.907918 0.251334,-0.873125 0.840545,-2.301875 1.309357,-3.175 0.468812,-0.873125 1.457578,-2.274843 2.197257,-3.114928 0.73968,-0.840085 2.076752,-2.04855 2.971273,-2.685479 0.89452,-0.636928 3.293275,-2.024566 5.330567,-3.083639 2.037292,-1.059074 4.35901,-2.367381 5.159375,-2.90735 0.800365,-0.539969 1.916319,-1.441551 2.479899,-2.003516 0.56358,-0.561965 1.327798,-1.47467 1.698262,-2.028233 0.370465,-0.553563 0.937861,-1.922781 1.260881,-3.042708 0.342852,-1.188684 0.729999,-2.03623 0.930122,-2.03623 0.188547,0 0.571879,0.654844 0.851848,1.455208 0.27997,0.800365 0.732742,2.526771 1.006161,3.836458 0.273419,1.309688 0.49869,3.341649 0.500601,4.51547 0.0019,1.17382 -0.1246,2.840695 -0.281137,3.704166 -0.156537,0.863471 -0.708708,2.462916 -1.227047,3.554322 -0.857249,1.805012 -1.427103,2.462677 -6.304548,7.276042 -3.955013,3.903052 -5.542362,5.65387 -6.048995,6.671933 -0.377784,0.759147 -0.68688,1.806856 -0.68688,2.328244 0,0.521387 0.17515,1.28668 0.389223,1.700651 0.214073,0.413971 1.380005,1.526333 2.590961,2.471916 1.210956,0.945584 2.885105,2.45736 3.720331,3.359504 0.835226,0.902143 1.870832,2.254415 2.301348,3.005048 0.430515,0.750633 0.783872,1.454084 0.785237,1.563224 0.0014,0.109141 -0.148983,0.198438 -0.334108,0.198438 -0.185125,0 -0.757077,-0.3466 -1.271003,-0.770221 z"
         id="path7" />
      <path
         style="fill:#5ca9d4"
         d="m 89.33976,77.436802 c -0.648461,-0.43864 -1.733175,-1.085016 -2.410475,-1.436392 -0.6773,-0.351376 -2.739972,-1.240696 -4.583717,-1.976267 -1.843745,-0.73557 -4.087559,-1.705708 -4.986254,-2.155861 -0.898695,-0.450153 -2.140007,-1.229279 -2.758471,-1.731392 -0.890293,-0.722804 -1.124479,-0.817638 -1.124479,-0.455362 0,0.251664 0.354906,1.010644 0.788679,1.686621 0.433774,0.675978 1.088618,1.510828 1.455209,1.855222 0.366591,0.344394 0.666529,0.73394 0.666529,0.865657 0,0.131717 -0.386953,0.159649 -0.859896,0.06207 -0.472943,-0.09758 -1.460641,-0.446499 -2.194886,-0.77538 -0.734244,-0.328881 -1.767625,-0.977824 -2.296403,-1.442097 -0.528777,-0.464272 -1.260896,-1.355161 -1.626931,-1.979753 -0.366035,-0.624591 -1.132794,-1.557777 -1.70391,-2.073745 -0.571115,-0.515968 -1.486968,-1.086168 -2.03523,-1.267111 -0.624757,-0.206188 -1.699322,-0.274598 -2.878854,-0.183276 -1.035108,0.08014 -2.149906,0.227701 -2.477328,0.327912 -0.441888,0.135246 -0.595312,0.07518 -0.595312,-0.233063 0,-0.228396 0.45929,-0.784361 1.020646,-1.235479 0.644676,-0.518076 1.134588,-1.200519 1.329965,-1.852627 0.170125,-0.567828 0.617985,-1.399244 0.995245,-1.847591 0.377259,-0.448347 1.048661,-1.002755 1.492005,-1.232017 0.535525,-0.27693 1.201434,-0.372277 1.983986,-0.284072 0.728215,0.08208 1.623523,0.446867 2.34514,0.955509 0.641979,0.452509 1.223284,0.822743 1.29179,0.822743 0.06851,0 0.126623,-0.386954 0.12915,-0.859896 0.0025,-0.472943 0.17582,-1.667956 0.385097,-2.655586 0.209276,-0.987629 0.764998,-2.576712 1.234938,-3.531294 0.496594,-1.008727 1.613683,-2.548601 2.667329,-3.676834 0.997092,-1.067676 2.558937,-2.412398 3.470767,-2.988271 0.911831,-0.575873 2.782692,-1.610022 4.15747,-2.298109 1.374778,-0.688088 3.283191,-1.706637 4.240916,-2.263443 0.957726,-0.556806 2.378158,-1.584396 3.156515,-2.283534 0.778357,-0.699137 1.846799,-1.938334 2.374316,-2.753772 0.527517,-0.815437 1.120399,-2.154891 1.317515,-2.976562 0.197116,-0.821672 0.448732,-1.493949 0.559146,-1.493949 0.110415,0 0.440951,0.744141 0.734524,1.653646 0.293573,0.909505 0.684465,2.368021 0.868647,3.241146 0.184183,0.873125 0.332885,2.897187 0.330449,4.497916 -0.0031,2.0059 -0.150222,3.400278 -0.473536,4.486616 -0.258009,0.86691 -0.768487,2.176597 -1.134396,2.910417 -0.476925,0.956457 -2.145894,2.795002 -5.894664,6.493592 -3.479783,3.433203 -5.505861,5.646244 -6.055768,6.614583 -0.64219,1.130843 -0.826946,1.773805 -0.828876,2.884534 -0.0024,1.386612 0.04009,1.469631 1.422328,2.778124 0.783646,0.74184 2.468956,2.3013 3.745134,3.465467 1.276179,1.164167 2.736656,2.74354 3.245506,3.509718 0.508851,0.766178 0.872146,1.446088 0.807324,1.51091 -0.06482,0.06482 -0.648417,-0.241029 -1.296879,-0.679668 z M 69.145764,58.123572 c -0.0919,-0.459491 -0.04533,-1.597581 0.103475,-2.52909 0.148809,-0.931509 0.509859,-2.33323 0.802332,-3.114936 0.292474,-0.781705 0.98415,-2.118296 1.537059,-2.970201 0.552908,-0.851905 2.342354,-2.967003 3.976546,-4.700219 1.634192,-1.733215 3.329335,-3.671748 3.766985,-4.30785 0.43765,-0.636102 1.109484,-1.837391 1.492965,-2.669532 0.569378,-1.23553 0.69942,-1.913143 0.709134,-3.695092 0.0065,-1.20016 0.09061,-2.182425 0.186814,-2.182813 0.0962,-3.87e-4 0.482006,0.36425 0.857335,0.810304 0.37533,0.446055 1.082586,1.49379 1.57168,2.328302 0.489094,0.834512 1.211728,2.323333 1.605854,3.308491 0.394125,0.985158 0.679719,2.104825 0.634652,2.488148 -0.07,0.595426 -0.563713,0.955921 -3.389231,2.474728 -1.81901,0.977777 -4.124049,2.292953 -5.122308,2.922613 -0.99826,0.629659 -2.621689,1.993995 -3.607621,3.031858 -0.985931,1.037862 -2.221535,2.654025 -2.745786,3.591473 -0.52425,0.937447 -1.184443,2.629877 -1.467094,3.760955 -0.282651,1.131078 -0.566065,2.108659 -0.629808,2.172402 -0.06374,0.06374 -0.191085,-0.260051 -0.282983,-0.719541 z"
         id="path6" />
      <path
         style="fill:#0698db"
         d="m 87.851721,76.123409 c -0.752043,-0.438469 -3.566294,-1.671002 -6.25389,-2.738961 -2.687596,-1.067959 -5.412886,-2.30388 -6.0562,-2.746492 -0.643314,-0.442611 -1.32622,-0.993389 -1.517569,-1.223951 -0.19135,-0.230562 -0.452392,-0.419204 -0.580095,-0.419204 -0.127702,0 -0.232186,0.214815 -0.232186,0.477367 0,0.262551 0.369213,1.066223 0.820474,1.785937 0.45126,0.719714 1.12838,1.635993 1.504709,2.036175 0.550187,0.585059 0.597342,0.727605 0.240698,0.727605 -0.243946,0 -1.052933,-0.231552 -1.797749,-0.51456 -0.744815,-0.283008 -1.764351,-0.789023 -2.265635,-1.124479 -0.501284,-0.335456 -1.457659,-1.424927 -2.125277,-2.421048 -0.667618,-0.99612 -1.682128,-2.150345 -2.254466,-2.564945 -0.572338,-0.4146 -1.680619,-0.886682 -2.462847,-1.049072 -0.981844,-0.20383 -1.858318,-0.214639 -2.830568,-0.03491 -0.774584,0.143189 -1.542717,0.299186 -1.706962,0.346658 -0.164245,0.04747 -0.310534,-0.003 -0.325086,-0.112124 -0.01455,-0.109141 -0.02646,-0.30779 -0.02646,-0.441442 0,-0.133652 0.416919,-0.500674 0.926486,-0.815604 0.538567,-0.332852 0.99741,-0.868097 1.095877,-1.27835 0.09317,-0.388163 0.387927,-1.142208 0.655025,-1.675656 0.267097,-0.533448 0.815749,-1.200695 1.219226,-1.48277 0.403477,-0.282076 1.065477,-0.593147 1.471112,-0.691269 0.405634,-0.09812 1.185741,-0.05771 1.73357,0.0898 0.547829,0.147515 1.466103,0.623841 2.040608,1.058501 0.574505,0.434661 1.133851,0.793605 1.242992,0.797653 0.109141,0.004 0.199851,-0.677249 0.201578,-1.513993 0.0017,-0.836745 0.173283,-2.160605 0.381235,-2.941912 0.207952,-0.781307 0.678681,-2.031463 1.046063,-2.778125 0.367382,-0.746662 1.135242,-1.920244 1.706354,-2.607959 0.571113,-0.687716 1.676549,-1.795831 2.456526,-2.462479 0.796096,-0.680424 3.158969,-2.091854 5.38689,-3.217786 2.182812,-1.103134 4.794051,-2.536687 5.802752,-3.185672 1.008701,-0.648986 2.484015,-1.845758 3.278477,-2.659495 0.848626,-0.869216 1.743886,-2.140999 2.170319,-3.083098 0.399214,-0.881968 0.803037,-1.831847 0.897384,-2.110842 0.100533,-0.297285 0.265119,-0.406808 0.397608,-0.264583 0.124337,0.133474 0.419214,1.028676 0.655283,1.989338 0.236068,0.960662 0.550865,2.716834 0.699548,3.902604 0.181124,1.444492 0.183683,2.846995 0.0078,4.250053 -0.144418,1.151759 -0.50402,2.78105 -0.799114,3.620648 -0.295095,0.839598 -0.856319,2.010609 -1.247165,2.602248 -0.390846,0.591638 -2.890881,3.205953 -5.555633,5.809588 -2.664753,2.603635 -5.196615,5.282541 -5.626361,5.953125 -0.429746,0.670583 -0.92796,1.768694 -1.107142,2.440245 -0.299347,1.121908 -0.273795,1.325629 0.314835,2.510172 0.403946,0.812889 1.178244,1.714475 2.09583,2.440366 0.800365,0.633159 2.110052,1.71902 2.910417,2.413026 0.800364,0.694006 1.849559,1.814593 2.331544,2.490194 0.481985,0.6756 0.779641,1.225737 0.661458,1.222527 -0.118182,-0.0032 -0.830185,-0.364585 -1.582229,-0.803055 z M 69.243031,56.895172 c 0,-0.705619 0.181974,-1.98159 0.404387,-2.835491 0.222413,-0.853901 0.833685,-2.369503 1.358382,-3.368003 0.700586,-1.333216 2.003937,-2.921022 4.906653,-5.97752 3.254857,-3.427294 4.119479,-4.50798 4.897601,-6.121487 0.705804,-1.463547 0.977733,-2.417708 1.074511,-3.770312 0.07126,-0.99599 0.221056,-1.81089 0.332873,-1.81089 0.111818,0 0.615961,0.625078 1.120319,1.389062 0.504358,0.763985 1.156571,1.865313 1.449362,2.447396 0.292791,0.582083 0.747796,1.745809 1.011123,2.586057 0.416379,1.328624 0.429115,1.575718 0.09772,1.895989 -0.209581,0.202546 -1.837357,1.139268 -3.617281,2.081604 -1.779924,0.942337 -4.053118,2.318927 -5.051544,3.059091 -0.998425,0.740163 -2.364215,1.932566 -3.035088,2.649783 -0.670873,0.717218 -1.663076,1.997032 -2.204894,2.844031 -0.541819,0.847 -1.259327,2.316649 -1.594461,3.265888 -0.335134,0.94924 -0.611847,1.927223 -0.614916,2.173296 -0.0031,0.246073 -0.124643,0.52099 -0.270164,0.610927 -0.162494,0.100427 -0.264583,-0.3315 -0.264583,-1.119421 z"
         id="path5" />
      <path
         style="fill:#595ea5"
         d="m 84.588864,74.453447 c -1.382448,-0.48731 -3.644635,-1.326341 -5.027083,-1.864515 -1.382448,-0.538173 -3.061867,-1.33025 -3.732041,-1.76017 -0.670175,-0.42992 -1.432769,-1.018438 -1.694653,-1.307817 -0.261885,-0.289379 -0.576763,-0.526144 -0.69973,-0.526144 -0.122967,0 -0.223576,0.214815 -0.223576,0.477367 0,0.262551 0.369213,1.066223 0.820474,1.785937 0.45126,0.719714 1.12838,1.635993 1.504709,2.036175 0.550187,0.585059 0.597342,0.727605 0.240698,0.727605 -0.243946,0 -1.052933,-0.231552 -1.797749,-0.51456 -0.744815,-0.283008 -1.764351,-0.789023 -2.265635,-1.124479 -0.501284,-0.335456 -1.457659,-1.424927 -2.125277,-2.421048 -0.667618,-0.99612 -1.682128,-2.150345 -2.254466,-2.564945 -0.572338,-0.4146 -1.680619,-0.886682 -2.462847,-1.049072 -0.981844,-0.20383 -1.858318,-0.214639 -2.830568,-0.03491 -0.774584,0.143189 -1.542717,0.299186 -1.706962,0.346658 -0.164245,0.04747 -0.310534,-0.003 -0.325086,-0.112124 -0.01455,-0.109141 -0.02646,-0.30779 -0.02646,-0.441442 0,-0.133652 0.416919,-0.500674 0.926486,-0.815604 0.538567,-0.332852 0.99741,-0.868097 1.095877,-1.27835 0.09317,-0.388163 0.387927,-1.142208 0.655025,-1.675656 0.267097,-0.533448 0.815749,-1.200695 1.219226,-1.48277 0.403477,-0.282076 1.065477,-0.593147 1.471112,-0.691269 0.405634,-0.09812 1.185741,-0.05771 1.73357,0.0898 0.547829,0.147515 1.466103,0.623841 2.040608,1.058501 0.574505,0.434661 1.133851,0.793605 1.242992,0.797653 0.109141,0.004 0.199851,-0.677249 0.201578,-1.513993 0.0017,-0.836745 0.173283,-2.160605 0.381235,-2.941912 0.207952,-0.781307 0.678681,-2.031463 1.046063,-2.778125 0.367382,-0.746662 1.135242,-1.920244 1.706354,-2.607959 0.571113,-0.687716 1.676549,-1.79845 2.456526,-2.468298 0.852682,-0.732287 3.137646,-2.077796 5.730575,-3.374467 3.583482,-1.792027 4.354142,-2.090381 4.559165,-1.765036 0.143968,0.228459 0.188366,2.650561 0.106599,5.815484 -0.07707,2.983177 -0.194362,5.768426 -0.260646,6.189441 -0.06628,0.421015 -0.0053,0.904333 0.135565,1.074041 0.178262,0.214792 -0.273587,0.906806 -1.486908,2.277226 -0.958644,1.082767 -2.135961,2.56398 -2.616259,3.291584 -0.480298,0.727604 -1.019054,1.825013 -1.197235,2.438688 -0.27678,0.953255 -0.256719,1.291856 0.137731,2.324709 0.342118,0.895825 0.951897,1.627373 2.354375,2.824531 1.040973,0.888576 2.338599,2.146692 2.883613,2.795813 0.545014,0.64912 0.92494,1.287 0.844281,1.417509 -0.08066,0.13051 -0.169393,0.23609 -0.197185,0.234623 -0.02779,-0.0015 -1.181625,-0.401376 -2.564073,-0.888686 z M 69.243031,56.895172 c 0,-0.705619 0.181974,-1.98159 0.404387,-2.835491 0.222413,-0.853901 0.834337,-2.370744 1.359832,-3.370761 0.69761,-1.327555 1.987675,-2.904934 4.78054,-5.845228 2.103803,-2.214858 4.214,-4.690164 4.689328,-5.50068 0.475327,-0.810516 1.010787,-1.917735 1.189911,-2.460487 0.179125,-0.542752 0.344269,-1.623119 0.366987,-2.400815 0.02272,-0.777696 0.124853,-1.363645 0.226965,-1.302108 0.102112,0.06154 0.13929,1.68599 0.08262,3.609896 -0.05667,1.923907 -0.111266,4.152856 -0.12132,4.953221 -0.01689,1.344488 -0.08357,1.496577 -0.876368,1.998926 -0.471949,0.299045 -1.746518,1.132482 -2.832376,1.852083 -1.085859,0.719601 -2.661831,1.944781 -3.50216,2.722622 -0.840329,0.777842 -2.079375,2.243836 -2.753434,3.257766 -0.674059,1.013929 -1.506591,2.639701 -1.850072,3.612826 -0.343481,0.973125 -0.627022,1.970651 -0.630091,2.216724 -0.0031,0.246073 -0.124643,0.52099 -0.270164,0.610927 -0.162494,0.100427 -0.264583,-0.3315 -0.264583,-1.119421 z"
         id="path4" />
      <path
         style="fill:#017ac5"
         d="m 84.588864,74.449929 c -1.382448,-0.489245 -3.136421,-1.140284 -3.897719,-1.446754 -0.761298,-0.30647 -2.190048,-0.966255 -3.175,-1.46619 -0.984952,-0.499934 -2.321628,-1.455038 -2.97039,-2.122453 -0.648762,-0.667414 -1.333372,-1.213481 -1.521354,-1.213481 -0.187983,0 -0.341787,0.242869 -0.341787,0.539707 0,0.296839 0.251725,1.04098 0.559388,1.653646 0.307663,0.612667 0.855468,1.508712 1.217344,1.991212 0.361877,0.482501 0.59438,0.940851 0.516674,1.018557 -0.07771,0.07771 -0.55658,0.0042 -1.064164,-0.163294 C 73.404271,73.073361 72.499679,72.581857 71.90165,72.148647 71.303621,71.715437 70.413077,70.739303 69.922663,69.97946 69.432249,69.219616 68.632224,68.224303 68.144829,67.767651 67.657434,67.311 66.881957,66.747699 66.421548,66.51587 c -0.460409,-0.231828 -1.472441,-0.493423 -2.248959,-0.581322 -0.776517,-0.0879 -1.944403,-0.03731 -2.595301,0.112427 -0.650898,0.149734 -1.23145,0.224245 -1.290117,0.165578 -0.05867,-0.05867 0.318988,-0.357807 0.839231,-0.664758 0.759125,-0.447895 1.026772,-0.836295 1.355488,-1.967038 0.28305,-0.973658 0.698771,-1.662847 1.345614,-2.230783 0.75086,-0.659264 1.171815,-0.821839 2.127982,-0.821839 0.655578,0 1.6337,0.225455 2.173606,0.501012 0.539906,0.275557 1.20846,0.751807 1.485675,1.058334 0.277215,0.306526 0.647654,0.55732 0.823197,0.55732 0.214225,0 0.365026,-0.76121 0.458638,-2.315104 0.08433,-1.399778 0.35924,-2.893523 0.695326,-3.778082 0.305722,-0.804638 0.948979,-2.086469 1.429462,-2.848513 0.480482,-0.762044 1.464022,-1.997975 2.185643,-2.746513 0.721622,-0.748538 2.107793,-1.878369 3.080381,-2.510736 0.972588,-0.632366 3.154272,-1.826518 4.848187,-2.653672 2.533193,-1.23698 3.122469,-1.436312 3.319989,-1.123043 0.135723,0.215259 0.179212,2.739349 0.100015,5.80483 -0.07707,2.983177 -0.194362,5.768426 -0.260646,6.189441 -0.06628,0.421015 -0.0053,0.904333 0.135565,1.074041 0.178262,0.214792 -0.273587,0.906806 -1.486908,2.277226 -0.958644,1.082767 -2.135961,2.56398 -2.616259,3.291584 -0.480298,0.727604 -1.019054,1.825013 -1.197235,2.438688 -0.27678,0.953255 -0.256719,1.291856 0.137731,2.324709 0.342118,0.895825 0.951897,1.627373 2.354375,2.824531 1.040973,0.888576 2.338599,2.146692 2.883613,2.795813 0.545014,0.64912 0.92494,1.287 0.844281,1.417509 -0.08066,0.13051 -0.169393,0.23609 -0.197185,0.234623 -0.02779,-0.0015 -1.181625,-0.402959 -2.564073,-0.892204 z M 69.672127,55.2282 c 0.09594,-0.504775 0.451371,-1.665494 0.789848,-2.579375 0.338478,-0.91388 1.029943,-2.283099 1.536589,-3.042708 0.506646,-0.759609 2.129685,-2.690794 3.606754,-4.291523 1.477069,-1.60073 3.137238,-3.505729 3.689264,-4.233334 0.552026,-0.727604 1.313653,-1.923038 1.692505,-2.65652 0.378852,-0.733482 0.817742,-2.030995 0.975311,-2.883362 0.157568,-0.852368 0.228774,-1.770457 0.158235,-2.040199 -0.07054,-0.269742 -0.02604,-0.427272 0.09888,-0.350066 0.124921,0.0772 0.180761,1.714479 0.124089,3.638385 -0.05667,1.923907 -0.111266,4.152856 -0.12132,4.953221 -0.01685,1.340952 -0.08565,1.499183 -0.876368,2.015293 -0.471949,0.308047 -1.833426,1.130305 -3.025506,1.827239 -1.213265,0.709321 -2.943538,2.043275 -3.930424,3.03016 -0.969653,0.969653 -2.165718,2.401706 -2.657921,3.182339 -0.492203,0.780633 -1.094676,1.962992 -1.338829,2.627463 -0.244152,0.664472 -0.545529,1.323472 -0.669726,1.464445 -0.126396,0.143469 -0.149015,-0.147747 -0.05138,-0.661458 z"
         id="path3" />
      <path
         style="fill:#075eac"
         d="m 73.488077,73.075372 c -0.50288,-0.218149 -1.31701,-0.703774 -1.809175,-1.079167 -0.492166,-0.375393 -1.289284,-1.293576 -1.771374,-2.040406 -0.482089,-0.74683 -1.275304,-1.731496 -1.762699,-2.188148 -0.487395,-0.456651 -1.262872,-1.019952 -1.723281,-1.251781 -0.460409,-0.231828 -1.472441,-0.493423 -2.248959,-0.581322 -0.776517,-0.0879 -1.944403,-0.03731 -2.595301,0.112427 -0.650898,0.149734 -1.23145,0.224245 -1.290117,0.165578 -0.05867,-0.05867 0.318988,-0.357807 0.839231,-0.664758 0.759125,-0.447895 1.026772,-0.836295 1.355488,-1.967038 0.28305,-0.973658 0.698771,-1.662847 1.345614,-2.230783 0.75086,-0.659264 1.171815,-0.821839 2.127982,-0.821839 0.655578,0 1.6337,0.225455 2.173606,0.501012 0.539906,0.275557 1.20846,0.751807 1.485675,1.058334 0.277215,0.306526 0.664169,0.55732 0.859896,0.55732 0.260383,0 0.355868,-0.44653 0.355868,-1.664202 0,-0.915312 0.182307,-2.36413 0.405128,-3.219595 0.22282,-0.855465 0.769148,-2.238364 1.214063,-3.073108 0.444914,-0.834745 1.304403,-2.103839 1.909976,-2.82021 0.605573,-0.71637 1.605734,-1.709971 2.22258,-2.208 0.616847,-0.49803 1.688409,-1.223863 2.38125,-1.612963 0.692841,-0.3891 1.484312,-0.746287 1.758824,-0.79375 0.331789,-0.05737 0.528556,0.0911 0.586941,0.442871 0.04831,0.291041 0.09398,1.779322 0.101493,3.307291 0.0075,1.527969 -0.09456,4.680381 -0.226833,7.005361 -0.133178,2.340875 -0.140051,4.491429 -0.0154,4.819279 0.134953,0.354952 0.121875,0.655836 -0.03265,0.751341 -0.161317,0.0997 -0.165928,0.323373 -0.01232,0.597847 0.155121,0.277187 0.143655,0.628705 -0.03116,0.955356 -0.172207,0.321773 -0.205667,1.222993 -0.08866,2.388082 0.103359,1.029201 0.178278,2.1566 0.166487,2.505331 -0.01179,0.348731 0.08362,0.76545 0.212034,0.926042 0.12841,0.160592 0.281055,0.720054 0.339212,1.24325 l 0.10574,0.951264 -0.858544,-0.193633 c -0.472199,-0.106498 -1.802721,-0.636709 -2.956717,-1.178246 -1.365343,-0.640715 -2.543462,-1.436699 -3.373083,-2.278985 -0.701201,-0.711905 -1.428214,-1.294373 -1.615585,-1.294373 -0.187372,0 -0.340676,0.242869 -0.340676,0.539707 0,0.296839 0.251725,1.04098 0.559388,1.653646 0.307663,0.612667 0.843444,1.492948 1.190625,1.956181 0.34718,0.463234 0.631237,0.909718 0.631237,0.992188 0,0.08247 -0.148828,0.145285 -0.330729,0.139589 -0.181901,-0.0057 -0.742177,-0.188842 -1.245058,-0.40699 z M 69.672127,55.2282 c 0.09594,-0.504775 0.451371,-1.665494 0.789848,-2.579375 0.338478,-0.91388 1.029257,-2.283099 1.535065,-3.042708 0.505807,-0.759609 2.38503,-2.97723 4.17605,-4.928048 l 3.256399,-3.546941 0.08044,1.532941 c 0.04424,0.843117 0.02088,1.688137 -0.0519,1.877823 -0.07279,0.189685 -0.854512,0.80404 -1.737161,1.365232 -0.882649,0.561191 -2.336661,1.729013 -3.231136,2.595159 -0.894475,0.866146 -2.076878,2.267298 -2.627561,3.113672 -0.550682,0.846374 -1.206353,2.09653 -1.457045,2.778125 -0.250692,0.681595 -0.557419,1.354605 -0.681616,1.495578 -0.126396,0.143469 -0.149015,-0.147747 -0.05138,-0.661458 z"
         id="path2" />
      <path
         style="fill:#2b3292"
         d="m 73.488077,73.075372 c -0.50288,-0.218149 -1.31701,-0.703774 -1.809175,-1.079167 -0.492166,-0.375393 -1.289284,-1.293576 -1.771374,-2.040406 -0.482089,-0.74683 -1.275304,-1.731496 -1.762699,-2.188148 -0.487395,-0.456651 -1.262872,-1.019952 -1.723281,-1.251781 -0.460409,-0.231828 -1.472441,-0.493423 -2.248959,-0.581322 -0.776517,-0.0879 -1.944403,-0.03731 -2.595301,0.112427 -0.650898,0.149734 -1.23145,0.224245 -1.290117,0.165578 -0.05867,-0.05867 0.318988,-0.357807 0.839231,-0.664758 0.759125,-0.447895 1.026772,-0.836295 1.355488,-1.967038 0.28305,-0.973658 0.698771,-1.662847 1.345614,-2.230783 0.75086,-0.659264 1.171815,-0.821839 2.127982,-0.821839 0.655578,0 1.6337,0.225455 2.173606,0.501012 0.539906,0.275557 1.20846,0.751807 1.485675,1.058334 0.277215,0.306526 0.664169,0.55732 0.859896,0.55732 0.260383,0 0.355868,-0.44653 0.355868,-1.664202 0,-0.915312 0.177602,-2.346063 0.39467,-3.179446 0.217069,-0.833383 0.682255,-2.078788 1.033746,-2.767567 0.351492,-0.688779 1.027948,-1.785777 1.503237,-2.437772 0.475288,-0.651995 0.910573,-1.046208 0.967299,-0.876029 0.05673,0.170179 -0.09997,0.6194 -0.348215,0.99827 -0.400356,0.61102 -0.447285,1.517035 -0.415332,8.018518 0.03438,6.995344 0.0613,7.363857 0.590274,8.079328 0.304838,0.412316 0.505321,0.798595 0.445518,0.858398 -0.0598,0.0598 -0.44975,-0.247213 -0.86655,-0.682258 -0.416799,-0.435044 -0.914134,-0.79099 -1.10519,-0.79099 -0.191056,0 -0.347374,0.242869 -0.347374,0.539707 0,0.296839 0.251725,1.04098 0.559388,1.653646 0.307663,0.612667 0.843444,1.492948 1.190625,1.956181 0.34718,0.463234 0.631237,0.909718 0.631237,0.992188 0,0.08247 -0.148828,0.145285 -0.330729,0.139589 -0.181901,-0.0057 -0.742177,-0.188842 -1.245058,-0.40699 z M 69.672127,55.2282 c 0.09594,-0.504775 0.451371,-1.665494 0.789848,-2.579375 0.338478,-0.91388 1.029317,-2.283099 1.535199,-3.042708 0.505882,-0.759609 1.708292,-2.214544 2.672023,-3.23319 1.344639,-1.421259 1.72001,-1.70142 1.613692,-1.204393 -0.0762,0.35623 -0.01736,0.793711 0.130758,0.972181 0.196055,0.236232 -0.07067,0.63578 -0.980635,1.468976 -0.687466,0.629467 -1.540889,1.442142 -1.896494,1.805944 -0.355606,0.363802 -1.103089,1.353946 -1.661075,2.20032 -0.557985,0.846374 -1.21963,2.09653 -1.470322,2.778125 -0.250692,0.681595 -0.557419,1.354605 -0.681616,1.495578 -0.126396,0.143469 -0.149015,-0.147747 -0.05138,-0.661458 z"
         id="path1" />
    </g>
  </g>
</svg>
