<?xml version="1.0" encoding="utf-8"?>
<!-- Generator: Adobe Illustrator 19.0.0, SVG Export Plug-In . SVG Version: 6.00 Build 0)  -->
<svg version="1.1" id="Layer_1" xmlns="http://www.w3.org/2000/svg" xmlns:xlink="http://www.w3.org/1999/xlink" x="0px" y="0px"
	 viewBox="-377 481 149 40" style="enable-background:new -377 481 149 40;" xml:space="preserve">
<style type="text/css">
	.st0{fill:url(#SVGID_1_);}
	.st1{fill:url(#SVGID_2_);}
	.st2{fill:url(#SVGID_3_);}
	.st3{fill:#D6753E;}
	.st4{fill:url(#SVGID_4_);}
	.st5{fill:url(#SVGID_5_);}
	.st6{fill:#EDEDBB;}
	.st7{fill:#D69547;}
	.st8{fill:#D6721E;}
	.st9{fill:#9E512B;}
	.st10{fill:#542713;}
	.st11{fill:#FFFFFF;}
	.st12{clip-path:url(#SVGID_7_);}
	.st13{fill:url(#SVGID_8_);}
	.st14{fill:#2A436F;}
</style>
<title>Coinzilla Display</title>
<g id="Layer_2">
	<g id="Layer_2-2">
		
			<linearGradient id="SVGID_1_" gradientUnits="userSpaceOnUse" x1="-9192.2246" y1="505.0436" x2="-9191.8145" y2="502.1836" gradientTransform="matrix(-1 0 0 -1 -9557.9004 1004.02)">
			<stop  offset="0" style="stop-color:#EA8632"/>
			<stop  offset="1" style="stop-color:#D6721E"/>
		</linearGradient>
		<path class="st0" d="M-367.2,502.4c0-0.3,0.1-0.6,0.3-0.8c-0.7-0.1-1.3-0.4-1.3-1.1c0-0.7,0.6-1,1.3-1.2c-0.3-0.2-0.4-0.5-0.4-0.8
			c0.1-1.6,3.4-0.2,3.4-0.2v1.2v0.1v1.4v0.2v1.2C-363.9,502.5-367.1,503.9-367.2,502.4z"/>
		
			<linearGradient id="SVGID_2_" gradientUnits="userSpaceOnUse" x1="-9192.4473" y1="497.2029" x2="-9191.8379" y2="494.5428" gradientTransform="matrix(-1 0 0 -1 -9557.9004 1004.02)">
			<stop  offset="0" style="stop-color:#EA8632"/>
			<stop  offset="1" style="stop-color:#D6721E"/>
		</linearGradient>
		<path class="st1" d="M-366.8,509.9c0-0.2,0.1-0.4,0.2-0.5c-0.5-0.1-0.9-0.3-0.9-0.8c0-0.5,0.4-0.7,0.9-0.8
			c-0.2-0.1-0.3-0.3-0.3-0.5c0-1.1,2.3-0.1,2.3-0.1v0.9v1v0.9C-364.6,510-366.8,511-366.8,509.9z"/>
		
			<linearGradient id="SVGID_3_" gradientUnits="userSpaceOnUse" x1="-9192.9766" y1="514.738" x2="-9191.5459" y2="510.558" gradientTransform="matrix(-1 0 0 -1 -9557.9004 1004.02)">
			<stop  offset="0" style="stop-color:#EA8632"/>
			<stop  offset="1" style="stop-color:#D6721E"/>
		</linearGradient>
		<path class="st2" d="M-367.8,492.3c0.1-0.3,0.4-0.6,0.7-0.7c-0.8-0.5-1.3-1.1-0.9-1.9s1.2-0.9,2-0.6c-0.2-0.3-0.2-0.7,0-1
			c0.8-1.7,3.8,1.5,3.8,1.5l-0.6,1.4l-0.1,0.2l-0.7,1.6l-0.1,0.2l-0.6,1.3C-364.2,494.2-368.5,494.1-367.8,492.3z"/>
		<path class="st3" d="M-362,518.6c0,0-5.6,2.4-8.6,0l0.9-1.6h6.6c0.1,0,1.6,0.3,1.6,0.3L-362,518.6z"/>
		
			<linearGradient id="SVGID_4_" gradientUnits="userSpaceOnUse" x1="-5361.2959" y1="-2715.6694" x2="-5353.9888" y2="-2715.6694" gradientTransform="matrix(0.143 -0.9897 -0.9897 -0.143 -2271.2014 -5182.3818)">
			<stop  offset="0" style="stop-color:#D69547"/>
			<stop  offset="1" style="stop-color:#CC6806"/>
		</linearGradient>
		<path class="st4" d="M-351.4,506.8c0.8,0.5,2.9,1.3,2.1,3.3c-0.3,0.5-0.7,1-1.1,1.3c-0.7,0.5-0.1,0.7,0.3,0.6c0.4,0,5.3-1.1,3-5.2
			c-0.4-0.8-2.3-2.4-4-2.1C-352.8,505-351.8,506.6-351.4,506.8z"/>
		
			<linearGradient id="SVGID_5_" gradientUnits="userSpaceOnUse" x1="-9205.3965" y1="511.7281" x2="-9200.627" y2="495.3781" gradientTransform="matrix(-1 0 0 -1 -9557.9004 1004.02)">
			<stop  offset="0" style="stop-color:#F0CD59"/>
			<stop  offset="1" style="stop-color:#F7931A"/>
		</linearGradient>
		<path class="st5" d="M-364.6,507.9v1.6c0,0-0.4,5.6-3.7,5.6c0,0-5.7,0.6-6.6-7.8c0,0-0.3,16.8,12.8,10.8l0.5,2.8l3.3-4.3l5.6,0.6
			l2.1,3.1l0.3-16.3c0,0,10.2,1.4,12,1.6c0,0,3.6-21.3-9.8-22.2c-17.7-2-16.4,12.5-16.4,12.5l-0.1,8.7L-364.6,507.9z"/>
		<path class="st6" d="M-359.7,500.2c0.1-3.1,0.7-4.1,1.4-4.1s1.4,2.6,1.4,5.9L-359.7,500.2z"/>
		<path class="st7" d="M-352.4,495.5c0,0.7,1.1,1.2,2.5,1.2s2.5-0.6,2.5-1.2s-1.1-1.2-2.5-1.2S-352.4,494.8-352.4,495.5z"/>
		<path class="st7" d="M-344.7,495.3c-0.1,0.3,0.3,0.7,0.9,0.9c0.6,0.1,1.1,0,1.2-0.4c0.1-0.4-0.4-0.8-0.9-0.9
			C-344.1,494.8-344.7,494.9-344.7,495.3z"/>
		<path class="st7" d="M-354.8,496.5c0,0.2,0.2,0.5,0.7,0.6c0.4,0.1,0.8,0,0.9-0.2c0-0.2-0.2-0.5-0.7-0.6
			C-354.4,496.1-354.8,496.2-354.8,496.5z"/>
		<path class="st7" d="M-349.9,497.7c-0.1,0.2,0.2,0.5,0.6,0.6c0.4,0.1,0.8,0,0.9-0.2s-0.2-0.5-0.6-0.6S-349.9,497.5-349.9,497.7z"
			/>
		<path class="st8" d="M-356.6,506.8c0,0-0.6,1.8-1.5,2.3c0.6,0.8,1.7,1.6,2.9-0.2c-0.6-0.6-1-1.3-1.3-2.1c0,0,1.9,4,3.9-0.1
			c0,0-1,3.3-2.5,2.2c-0.5,1.2-1.7,2.8-3.1,0.1c-0.6,0.3-1.4-0.2-2.3-2.3C-360.5,506.9-358.6,511-356.6,506.8z"/>
		<path class="st3" d="M-349,487.5c-0.1-2.1-1.8-3.8-4-3.7c-0.5,0-1,0.1-1.4,0.3c-1.4,0.6-2.3,2-2.4,3.5c0,1.3,0.6,2.5,1.7,3.2
			c2,1.1,4.5,0.4,5.6-1.6c0-0.1,0.1-0.1,0.1-0.2C-349.1,488.5-349,488-349,487.5z"/>
		<path class="st6" d="M-349.3,487.1c-0.1-2-1.7-3.6-3.7-3.5c-0.5,0-0.9,0.1-1.3,0.3c-1.3,0.6-2.2,1.8-2.2,3.3
			c-0.1,1.2,0.6,2.4,1.6,3.1c1.9,1.1,4.2,0.4,5.3-1.5c0-0.1,0.1-0.1,0.1-0.2C-349.4,488.1-349.3,487.6-349.3,487.1z"/>
		<path class="st9" d="M-354.5,487.9c0,0.8,0.6,1.4,1.4,1.4s1.4-0.6,1.4-1.4c0-0.8-0.6-1.4-1.4-1.4
			C-353.8,486.4-354.4,487-354.5,487.9C-354.5,487.8-354.5,487.8-354.5,487.9z"/>
		<path class="st10" d="M-354,487.7c0,0.5,0.4,0.9,0.9,0.9s0.9-0.4,0.9-0.9c0-0.5-0.4-0.9-0.9-0.9
			C-353.5,486.7-353.9,487.1-354,487.7C-353.9,487.6-354,487.6-354,487.7z"/>
		<path class="st11" d="M-354.4,486.6c0,0.4,0.3,0.7,0.7,0.7c0.4,0,0.7-0.3,0.7-0.7c0-0.4-0.3-0.7-0.7-0.7
			C-354.1,485.9-354.4,486.2-354.4,486.6z"/>
		<path class="st7" d="M-353.7,492.2c1.6,0,3.2-0.6,4.4-1.7c-1.8,2.4-5.2,2.9-7.6,1.1c-0.4-0.3-0.8-0.7-1.1-1.1
			C-356.9,491.6-355.3,492.2-353.7,492.2z"/>
		<path class="st7" d="M-353.2,491.5c1.3,0,2.6-0.6,3.5-1.5c-1.4,2-4.2,2.5-6.2,1.1c-0.4-0.3-0.7-0.6-1-0.9
			C-355.8,491.1-354.5,491.6-353.2,491.5z"/>
		<path class="st3" d="M-352.9,503.6c1.8,0.5,3.7,0.9,5.6,1.2c1.7,0.3,3.3,0.5,4.6,0.6c2.6,0.3,4.3,0.3,4.3,0.3s-1.6-0.2-4.2-0.6
			c-1.3-0.2-2.9-0.5-4.6-0.8s-3.6-0.8-5.5-1.3c-1.8-0.5-3.6-1.2-5.2-2c-0.7-0.4-1.4-0.8-2-1.3c-0.6-0.5-1-1-1.4-1.7
			c-0.3-0.5-0.4-1.1-0.4-1.7v-0.2c0-0.1,0-0.1,0-0.2c0-0.1,0-0.2,0-0.3c0-0.1,0-0.2,0.1-0.3s0.1-0.2,0.1-0.3
			c0.1-0.3,0.2-0.5,0.3-0.8l0.1-0.3l-0.2,0.3c-0.2,0.2-0.3,0.5-0.4,0.8c0,0.1-0.1,0.2-0.1,0.3s-0.1,0.2-0.1,0.3
			c0,0.1-0.1,0.2-0.1,0.4c0,0.1,0,0.1,0,0.2s0,0.1,0,0.2c-0.1,0.6,0,1.2,0.3,1.8c0.3,0.7,0.8,1.3,1.3,1.9c0.6,0.6,1.3,1.1,2.1,1.5
			C-356.5,502.4-354.7,503.1-352.9,503.6z"/>
		<g>
			<defs>
				<polygon id="SVGID_6_" points="-347.8,492.7 -337.9,492.7 -337.5,484.6 -347.8,486.7 				"/>
			</defs>
			<clipPath id="SVGID_7_">
				<use xlink:href="#SVGID_6_"  style="overflow:visible;"/>
			</clipPath>
			<g class="st12">
				<path class="st3" d="M-347.6,487.6c0.1,2,1.7,3.6,3.7,3.5c0.5,0,0.9-0.1,1.3-0.3c1.3-0.6,2.2-1.8,2.2-3.3c0-1.2-0.6-2.4-1.6-3.1
					c-1.9-1.1-4.2-0.4-5.3,1.5c0,0.1-0.1,0.1-0.1,0.2C-347.5,486.6-347.6,487.1-347.6,487.6z"/>
				<path class="st6" d="M-347.5,487.2c0,1.9,1.7,3.5,3.6,3.4c0.5,0,0.9-0.1,1.3-0.3c1.3-0.6,2.1-1.8,2.2-3.2c0-1.2-0.6-2.3-1.6-3
					c-1.8-1-4.1-0.4-5.1,1.4c0,0.1-0.1,0.2-0.1,0.2C-347.4,486.2-347.5,486.7-347.5,487.2z"/>
				<circle class="st9" cx="-343.7" cy="487.9" r="1.4"/>
				<path class="st10" d="M-344.7,487.7c0,0.5,0.4,0.9,0.9,0.9c0.5,0,0.9-0.4,0.9-0.9c0-0.5-0.4-0.9-0.9-0.9
					C-344.2,486.7-344.7,487.1-344.7,487.7L-344.7,487.7z"/>
				<path class="st7" d="M-343.2,492c1.4,0.2,2.8-0.2,4-1c-1.8,1.9-4.8,2.1-6.8,0.3c-0.3-0.3-0.6-0.7-0.9-1.1
					C-345.9,491.2-344.6,491.9-343.2,492z"/>
				<path class="st11" d="M-345.1,486.6c0,0.4,0.3,0.7,0.7,0.7c0.4,0,0.7-0.3,0.7-0.7c0-0.4-0.3-0.7-0.7-0.7l0,0
					C-344.8,485.9-345.1,486.2-345.1,486.6z"/>
				<path class="st7" d="M-342.9,491.3c1.2-0.2,2.2-0.7,3-1.6c-1.1,1.9-3.5,2.6-5.4,1.6c-0.3-0.2-0.6-0.4-0.9-0.7
					C-345.2,491.2-344,491.5-342.9,491.3z"/>
			</g>
		</g>
		<path class="st7" d="M-340.4,482.7c-1.3,2.7-4.2,4.3-7.2,3.8C-347.5,486.5-342.4,485.2-340.4,482.7z"/>
		<path class="st7" d="M-349.3,483.3c-1.2-0.6-6.2-3-8.2,0.3c0.4-1.2,1.4-2.1,2.7-2.3C-352.8,480.7-350.6,481.5-349.3,483.3z"/>
		
			<linearGradient id="SVGID_8_" gradientUnits="userSpaceOnUse" x1="-6708.458" y1="6632.3994" x2="-6701.1479" y2="6632.3994" gradientTransform="matrix(-0.14 -0.99 0.99 -0.14 -7867.5796 -5185.5684)">
			<stop  offset="0" style="stop-color:#D69547"/>
			<stop  offset="1" style="stop-color:#CC6806"/>
		</linearGradient>
		<path class="st13" d="M-363,506.8c-0.8,0.5-2.9,1.3-2.1,3.3c0.3,0.5,0.6,0.9,1.1,1.3c0.7,0.4,0.1,0.7-0.3,0.6c-0.4,0-5.3-1-3-5.2
			c0.4-0.8,2.3-2.4,4-2.1C-361.6,505-362.6,506.6-363,506.8z"/>
		<path class="st14" d="M-330.4,504.2c0-0.9,0.1-1.8,0.5-2.7c0.3-0.8,0.7-1.5,1.3-2.2c0.6-0.6,1.3-1.1,2.1-1.5
			c0.9-0.4,1.9-0.6,2.8-0.5c0.6,0,1.3,0.1,1.9,0.2c0.6,0.1,1.1,0.3,1.7,0.5l-0.8,2.9c-0.4-0.1-0.8-0.2-1.1-0.3
			c-0.5-0.1-0.9-0.2-1.4-0.1c-0.9-0.1-1.8,0.3-2.4,1c-0.6,0.8-0.9,1.7-0.8,2.7c-0.1,1,0.2,1.9,0.8,2.7c0.7,0.7,1.6,1.1,2.6,1
			c0.5,0,1,0,1.4-0.1c0.5-0.1,1-0.2,1.4-0.4l0.5,3c-0.5,0.2-1.1,0.4-1.6,0.5c-0.7,0.1-1.4,0.2-2.1,0.2c-1,0-2.1-0.2-3.1-0.5
			c-0.8-0.3-1.5-0.8-2.1-1.5c-0.6-0.6-1-1.4-1.2-2.2C-330.3,506-330.4,505.1-330.4,504.2z"/>
		<path class="st14" d="M-305.3,504.2c0,1-0.1,1.9-0.4,2.8c-0.3,0.8-0.7,1.5-1.3,2.2c-0.6,0.6-1.2,1.1-2,1.4
			c-0.8,0.3-1.7,0.5-2.6,0.5c-0.9,0-1.8-0.2-2.6-0.5c-0.8-0.3-1.4-0.8-2-1.4c-0.6-0.6-1-1.4-1.3-2.2c-0.3-0.9-0.5-1.8-0.5-2.8
			c0-1,0.2-1.9,0.5-2.8c0.3-0.8,0.8-1.5,1.3-2.1c0.6-0.6,1.2-1.1,2-1.4c1.6-0.7,3.5-0.7,5.1,0c0.8,0.3,1.4,0.8,2,1.4
			c0.6,0.6,1,1.4,1.3,2.1C-305.4,502.3-305.3,503.3-305.3,504.2z M-309,504.2c0.1-0.9-0.2-1.9-0.7-2.7c-0.8-1.1-2.3-1.3-3.4-0.5
			c-0.2,0.1-0.3,0.3-0.5,0.5c-0.5,0.8-0.7,1.7-0.7,2.7c-0.1,1,0.2,1.9,0.7,2.7c0.4,0.7,1.2,1,2,1c0.8,0,1.5-0.3,1.9-1
			C-309.2,506.1-308.9,505.2-309,504.2z"/>
		<path class="st14" d="M-297.8,494c0,0.6-0.2,1.2-0.6,1.6c-0.4,0.4-1,0.6-1.6,0.6c-0.6,0-1.1-0.2-1.5-0.6c-0.4-0.4-0.7-1-0.6-1.6
			c0-0.6,0.2-1.2,0.7-1.6c0.9-0.8,2.2-0.8,3.1,0C-298,492.8-297.7,493.4-297.8,494z M-298.1,510.8h-3.7v-13h3.7V510.8z"/>
		<path class="st14" d="M-294,498.2c1.8-0.5,3.7-0.7,5.5-0.7c0.9,0,1.9,0.1,2.8,0.4c0.7,0.3,1.3,0.7,1.7,1.2
			c0.4,0.6,0.7,1.2,0.9,1.9c0.2,0.8,0.3,1.6,0.3,2.4v7.3h-3.7v-6.9c0.1-0.9-0.1-1.7-0.5-2.5c-0.4-0.5-1.1-0.8-1.8-0.7
			c-0.3,0-0.6,0-0.8,0l-0.8,0.1v10h-3.7L-294,498.2z"/>
		<path class="st14" d="M-269.1,500.3l-1.2,1.3c-0.5,0.6-1,1.2-1.6,1.9c-0.6,0.7-1.2,1.4-1.8,2.1c-0.6,0.7-1.1,1.5-1.6,2.2h6.3v3.1
			h-10.8v-2.2c0.4-0.7,0.8-1.3,1.2-1.9c0.5-0.7,1-1.4,1.5-2.1c0.5-0.7,1.1-1.4,1.6-2c0.5-0.6,1-1.2,1.5-1.8h-5.5v-3.1h10.3V500.3z"
			/>
		<path class="st14" d="M-261.9,494c0,0.6-0.2,1.2-0.7,1.6c-0.4,0.4-1,0.6-1.5,0.6c-0.6,0-1.1-0.2-1.5-0.6c-0.4-0.4-0.7-1-0.7-1.6
			c0-0.6,0.2-1.2,0.7-1.6c0.9-0.8,2.2-0.8,3.1,0C-262.1,492.8-261.9,493.4-261.9,494z M-262.3,510.8h-3.7v-13h3.7V510.8z"/>
		<path class="st14" d="M-253,511c-0.9,0-1.8-0.1-2.6-0.4c-0.6-0.2-1.1-0.5-1.6-0.9c-0.4-0.4-0.7-0.9-0.8-1.4
			c-0.1-0.6-0.2-1.2-0.2-1.9v-14.3l3.7-0.6v14.1c0,0.3,0,0.6,0.1,0.9c0,0.2,0.1,0.5,0.3,0.7c0.2,0.2,0.4,0.4,0.6,0.4
			c0.3,0.1,0.7,0.2,1.1,0.2L-253,511z"/>
		<path class="st14" d="M-244.6,511c-0.9,0-1.8-0.1-2.6-0.4c-0.6-0.2-1.1-0.5-1.6-0.9c-0.4-0.4-0.7-0.9-0.8-1.4
			c-0.1-0.6-0.2-1.2-0.2-1.9v-14.3l3.7-0.6v14.1c0,0.3,0,0.6,0.1,0.9c0,0.2,0.1,0.5,0.3,0.7c0.2,0.2,0.4,0.4,0.6,0.4
			c0.3,0.1,0.7,0.2,1.1,0.2L-244.6,511z"/>
		<path class="st14" d="M-236.3,497.5c0.9,0,1.8,0.1,2.7,0.4c0.7,0.2,1.3,0.6,1.7,1.1c0.4,0.5,0.8,1.1,0.9,1.7
			c0.2,0.7,0.3,1.5,0.3,2.2v7.6c-0.5,0.1-1.3,0.2-2.2,0.4c-1.1,0.2-2.3,0.3-3.4,0.2c-0.8,0-1.5-0.1-2.3-0.2
			c-0.6-0.1-1.2-0.4-1.8-0.7c-0.5-0.3-0.9-0.8-1.1-1.3c-0.3-0.6-0.4-1.3-0.4-2c0-0.7,0.1-1.3,0.5-1.9c0.3-0.5,0.7-0.9,1.2-1.3
			c0.5-0.3,1.1-0.5,1.8-0.7c0.7-0.1,1.4-0.2,2.1-0.2c0.4,0,0.8,0,1.3,0.1c0.3,0,0.6,0.1,0.9,0.2v-0.3c0-0.6-0.2-1.1-0.6-1.5
			c-0.6-0.4-1.3-0.6-2-0.6c-0.6,0-1.2,0-1.9,0.1c-0.5,0.1-1.1,0.2-1.6,0.4l-0.5-3l0.8-0.2c0.3-0.1,0.7-0.1,1.1-0.2s0.8-0.1,1.2-0.1
			S-236.7,497.5-236.3,497.5z M-236,508.2c0.4,0,0.7,0,1,0c0.3,0,0.5,0,0.8-0.1v-2.8c-0.2,0-0.4-0.1-0.7-0.1c-0.3,0-0.6,0-0.8,0
			c-0.3,0-0.7,0-1,0.1c-0.3,0-0.5,0.1-0.8,0.2c-0.2,0.1-0.4,0.3-0.5,0.5c-0.4,0.7-0.2,1.5,0.4,1.9
			C-237.1,508.2-236.6,508.3-236,508.2z"/>
	</g>
</g>
</svg>
