<svg xmlns="http://www.w3.org/2000/svg" viewBox="0 0 152.069 48.946" xmlns:v="https://vecta.io/nano"><defs><mask id="A" x="74.532" y=".337" width="35.947" height="48.609" maskUnits="userSpaceOnUse"><path d="M74.532.337h35.947v48.609H74.532V.337z" fill="#fff" fill-rule="evenodd"/></mask></defs><path d="M13.25 4.782L0 13.652l4.379 7.721 6.625-4.032v27.017H22.18V4.782h-8.93zm101.952 39.576h11.118V14.575h-11.118v29.783zM120.848 0a5.754 5.754 0 0 0-5.761 5.646 5.704 5.704 0 1 0 11.407 0A5.73 5.73 0 0 0 120.848 0m26.613 35.832c-1.498 0-2.535-1.268-2.535-3.054v-9.447h5.876v-8.757h-5.876V6.395h-10.6v8.179h-3.744v8.757h3.744v11.637a9.648 9.648 0 0 0 10.082 10.081 11.953 11.953 0 0 0 7.661-3.053l-1.901-7.028a4.344 4.344 0 0 1-2.707.864" fill-rule="evenodd"/><g mask="url(#A)"><path d="M94.81 34.968h-9.16v-6.337h9.16c2.419 0 4.148 1.325 4.148 3.169s-1.729 3.168-4.148 3.168zm-9.16-20.797h7.49c2.304 0 3.975 1.268 3.975 2.996s-1.671 2.996-3.975 2.996h-7.49zm17.514 9.448a9.62 9.62 0 0 0 5.472-8.872c0-5.575-4.911-9.693-12.068-9.952V.337h-11.86v4.444H74.532v39.577h10.176v4.588h11.86v-4.588h.086c8.065 0 13.825-4.321 13.825-10.658 0-4.378-2.707-8.122-7.315-10.081z" fill-rule="evenodd"/></g><path d="M58.995 4.781L48.313 15.463 37.631 4.781l-9.106 9.106 10.682 10.682-10.682 10.682 9.106 9.106 10.682-10.681 10.682 10.681 9.106-9.106-10.682-10.682 10.682-10.682-9.106-9.106z" fill-rule="evenodd" fill="#e07631"/></svg>