<svg xmlns="http://www.w3.org/2000/svg" viewBox="0 0 226.358 64.529" xmlns:v="https://vecta.io/nano"><path d="M226.026 63.579c-.13-.201-.283-.387-.431-.576q-11.52-14.752-23.065-29.483c-.583-.741-.691-1.261-.369-1.891l-8.319 10.648c.466-.438.766-.275 1.315.435l16.219 20.824a2.244 2.244 0 0 0 2.029.969l5.879-.016 6.24-.004c.27-.001.609.091.776-.178.186-.301-.13-.504-.275-.727zm-32.519-41.633c-4.778-6.163-9.737-12.193-14.327-18.491-1.884-2.583-3.852-3.717-7.038-3.404-2.971.292-5.994.061-8.994.069-.306.001-.699-.086-.847.281-.12.298.179.5.344.716q.728.953 1.466 1.9 11.153 14.277 22.321 28.541a1.065 1.065 0 0 1 .17 1.367l8.319-10.644c-.526.538-.869.369-1.414-.336z" fill="#383838"/><path d="M202.528 31.069q11.606-14.756 23.135-29.573c.062-.079.139-.158.216-.238l.108-.14c.041-.054.091-.107.141-.161a.521.521 0 0 0 .032-.574.54.54 0 0 0-.483-.267l-.192.006h-.098l-.338.017c-3.46-.008-6.921.005-10.381-.014a5.592 5.592 0 0 0-3.404 1.219l-16.082 20.641a3.453 3.453 0 0 1-.258.299l-8.319 10.645a2.349 2.349 0 0 1-.189.291l-7.843 10.009q-7.83 10.019-15.65 20.046c-.227.292-.722.593-.485.999a.497.497 0 0 0 .464.223c.071-.004.142-.01.209-.01h.018c.148-.014.297-.032.43-.032l11.399.028a2.83 2.83 0 0 0 2.518-1.248l15.996-20.536a3.52 3.52 0 0 1 .373-.419l8.319-10.648a3.452 3.452 0 0 1 .366-.56z" fill="#007dff"/><path d="M129.632 15.843q-3.025 3.859-6.05 7.719Q108.11 43.371 92.66 63.196a3.014 3.014 0 0 1-2.712 1.321c-3.798-.077-7.599-.023-11.399-.036-.378-.001-.902.197-1.103-.205-.204-.408.277-.705.508-1.001q11.542-14.809 23.105-29.602 12.707-16.258 25.412-32.519a2.406 2.406 0 0 1 2.116-1.056l11.639-.004c1.17-.016 1.496.42 1.495 1.545q-.038 30.659.004 61.318c.002 1.233-.417 1.583-1.603 1.555-2.878-.07-5.759-.019-8.639-.024-1.566-.003-1.604-.037-1.604-1.625q-.004-22.739-.002-45.478v-1.432zm-77.378-.075l-4.732 6.018Q31.24 42.635 14.975 63.497a2.298 2.298 0 0 1-2.017 1.007l-11.759-.021c-.387-.001-.91.169-1.122-.195-.273-.469.254-.789.505-1.11Q14.201 45.729 27.84 28.296l20.645-26.5A3.799 3.799 0 0 1 51.978.074c3.595.125 7.198.064 10.798.025 1.057-.011 1.468.303 1.466 1.438q-.045 30.778-.005 61.555c.001 1.012-.271 1.435-1.352 1.414-2.959-.056-5.92-.066-8.878.004-1.196.028-1.47-.438-1.468-1.545q.042-22.858.019-45.717v-1.404z" fill="#383838"/></svg>