<svg xmlns="http://www.w3.org/2000/svg" xmlns:xlink="http://www.w3.org/1999/xlink" width="495" height="110" xmlns:v="https://vecta.io/nano"><defs><path d="M5.47 0C4.078 0 2.606.102 1.053.309h0C.707.356 0 1.231 0 1.696h0v43.256 15.999 19.484c0 4.224 2.206 8.128 5.787 10.24h0l30.077 17.741A11.38 11.38 0 0 0 41.65 110h0c1.998 0 3.996-.528 5.787-1.584h0l30.077-17.741c3.581-2.112 5.787-6.016 5.787-10.24h0V44.952c0-4.224-2.206-8.128-5.787-10.24h0L47.437 16.971c-1.791-1.056-3.789-1.584-5.787-1.584h0a11.38 11.38 0 0 0-5.787 1.584h0l-13.938 8.227v-8.097C21.926 5.931 16.044 0 5.47 0zm12.227 63.306c0-15.223 12.08-27.564 26.979-27.564h0c6.974 0 13.913 3.481 18.701 7.918h0c.206.19.475.739 0 1.224h0c-.419.429-14.853 14.341-18.048 17.729h0c-.417.443-.428.921 0 1.358h0c.381.39 15.126 14.182 18.261 17.383h0c.387.395.141 1.081-.097 1.307h0c-4.818 4.585-11.712 8.208-18.817 8.208h0c-14.899 0-26.979-12.341-26.979-27.564h0z" id="A"/><path id="B" d="M0 59.94h367.606V0H0z"/></defs><g fill="none" fill-rule="evenodd"><mask id="C" fill="#fff"><use xlink:href="#A"/></mask><path d="M5.47 0C4.078 0 2.606.102 1.053.309h0C.707.356 0 1.231 0 1.696h0v43.256 15.999 19.484c0 4.224 2.206 8.128 5.787 10.24h0l30.077 17.741A11.38 11.38 0 0 0 41.65 110h0c1.998 0 3.996-.528 5.787-1.584h0l30.077-17.741c3.581-2.112 5.787-6.016 5.787-10.24h0V44.952c0-4.224-2.206-8.128-5.787-10.24h0L47.437 16.971c-1.791-1.056-3.789-1.584-5.787-1.584h0a11.38 11.38 0 0 0-5.787 1.584h0l-13.938 8.227v-8.097C21.926 5.931 16.044 0 5.47 0zm12.227 63.306c0-15.223 12.08-27.564 26.979-27.564h0c6.974 0 13.913 3.481 18.701 7.918h0c.206.19.475.739 0 1.224h0c-.419.429-14.853 14.341-18.048 17.729h0c-.417.443-.428.921 0 1.358h0c.381.39 15.126 14.182 18.261 17.383h0c.387.395.141 1.081-.097 1.307h0c-4.818 4.585-11.712 8.208-18.817 8.208h0c-14.899 0-26.979-12.341-26.979-27.564h0z" fill="#5ddb1c" mask="url(#C)"/><path d="M39.199 55.432c0 2.546-2.02 4.61-4.512 4.61s-4.512-2.063-4.512-4.61 2.02-4.61 4.512-4.61 4.512 2.063 4.512 4.61" fill="#000"/><g transform="translate(127.394 28.284)"><path d="M28.571 46.17c-1.098 1.088-2.97 1.723-5.458 1.723h-9.269v-13.83h9.686c2.395 0 4.123.706 5.133 1.797 1.022 1.104 1.541 3.089 1.541 5.277 0 1.868-.486 3.895-1.633 5.034h0zM13.845 12.16h6.535c3.159 0 4.844.457 6.139 1.579 1.099.952 1.712 2.757 1.712 4.98 0 1.945-.595 3.571-1.695 4.508-1.541 1.312-2.961 1.654-5.89 1.654h-6.801V12.16zm28.569 20.967c-1.311-1.936-3.027-3.309-5.326-4.229 1.813-1.104 2.906-2.433 3.909-4.151 1.248-2.138 1.881-4.658 1.881-7.489 0-5.527-1.888-9.778-5.769-12.455C33.363 2.224 27.868.915 20.774.915H0v58.07h23.737c6.985 0 12.103-1.321 15.617-4.215 3.542-2.915 5.421-7.692 5.421-13.48 0-3.103-.794-5.849-2.362-8.163h0z" fill="#000"/><mask id="D" fill="#fff"><use xlink:href="#B"/></mask><g fill="#000"><path mask="url(#D)" d="M111.586 58.694h12.066V46.591h-12.066zm54.287-28.329h12.622v23.282h-12.606zM311.346 1.307V58.49h-13.514V13.569 1.296z"/><path d="M281.399 49.987l-15.656-26.419.004 34.922h-13.503l-.009-57.08c0-.057.046-.104.103-.104h14.87l14.258 25.923 14.257-25.923h14.795L281.4 49.986zm-60.058-48.63H207.6l12.394 33.019-9.898.056 4.381-12.189h-13.363l-14.41 36.235 15.037.063 4.476-12.335 17.562-.051 4.976 12.335h15.233zM87 47.726c-5.589.775-10.942.474-14.587-1.97s-4.649-6.312-5.006-11.001c-.236-3.092-.236-5.91.017-9.307.254-3.409 1.167-9.631 5.767-12.001 4.941-2.545 12.055-1.985 16.774-.916a24.96 24.96 0 0 1 4.382 1.441l3.898-10.487S93.702 1.102 85.396.254c-7.686-.785-17.763.01-24.54 5.819s-7.601 13.476-7.999 18.412a70.32 70.32 0 0 0 0 11.55c.432 5.231 1.602 13.647 9.737 19.184 7.515 5.116 17.892 5.149 24.102 4.318 5.742-.769 10.266-2.597 11.791-3.52L94.704 45.02S91.049 47.165 87 47.726m65.375-1.97c-3.598-2.444-4.59-6.311-4.943-11.001-.232-3.091-.232-5.91.018-9.307.25-3.408 1.152-9.631 5.693-12.001 4.877-2.545 10.975-2.086 15.878-1.091 2.951.598 5.22 1.984 5.22 1.984l3.938-10.515s-4.675-2.46-12.84-3.437c-7.708-.923-17.724-.123-24.413 5.686s-7.503 13.476-7.896 18.413c-.324 4.079-.3 7.865 0 11.55.426 5.231 1.588 13.638 9.613 19.185 7.462 5.157 18.642 4.637 24.553 3.682 6.334-1.023 11.311-3.334 11.311-3.334V43.129s-6.198 2.902-11.616 3.925c-5.473 1.034-10.916 1.146-14.514-1.298m184.165.212l.091-10.413 25.494.001 1.11-11.771h-26.629l-.091-9.993h29.039l1.834-12.434h-45.064v22.025 35.022h44.035l1.244-12.435z" mask="url(#D)"/></g></g></g></svg>