<svg width="155" height="50" viewBox="0 0 155 50" fill="none" xmlns="http://www.w3.org/2000/svg">
<rect width="155" height="50" fill="white"/>
<g clip-path="url(#clip0_205_554)">
<path d="M70.5559 14.1566C70.564 11.9744 71.1776 11.3289 73.4205 11.3105L87.1648 11.2857C88.8394 11.2747 90.0057 11.8377 90.5805 13.5008C91.0224 14.7797 91.7186 15.9727 92.1645 17.2507C92.7187 18.8407 93.7615 19.4579 95.4306 19.3242C96.5682 19.2328 97.7209 19.3431 98.8645 19.3023C100.37 19.2482 101.187 20.0109 101.199 21.4056L101.204 38.3492C101.197 39.5283 100.486 40.293 99.2807 40.3367L92.7615 40.3661C91.2355 40.3233 90.7876 39.338 90.7967 37.9423L90.8042 23.7097C90.7982 21.2541 90.4163 20.8963 87.8822 20.8879L83.2437 20.8789C81.6481 20.8332 80.973 21.5179 80.9897 23.1149L81.0028 37.0086C80.9982 39.9104 80.4702 40.4267 77.4797 40.451L73.014 40.4217C71.1761 40.3338 70.572 39.7022 70.5605 37.8836C70.5388 33.8679 70.5403 18.0537 70.5559 14.1566Z" fill="black"/>
<path d="M125.082 37.3967C125.075 39.6296 124.567 40.2164 122.311 40.3779C120.772 40.4877 119.221 40.44 117.676 40.4475C116.197 40.4549 115.454 41.1541 115.465 42.6338L115.459 47.5479C115.459 49.1344 114.642 49.9786 113.044 50.002H106.344C104.838 49.9791 103.984 49.1643 103.95 47.6821L103.944 41.0736C103.971 39.5233 104.783 38.6652 106.408 38.6577L111.218 38.6284C112.696 38.5877 113.556 37.9174 113.553 36.3313C113.535 28.7624 113.553 13.6239 113.553 13.6239C113.557 12.0618 112.853 11.3383 111.267 11.3636L106.458 11.3373C104.716 11.2588 103.98 10.5006 103.942 8.77639V2.50725C103.98 0.757741 104.714 0.0347816 106.468 0H112.997C114.737 0.028819 115.39 0.655881 115.443 2.35024L115.471 7.26388C115.489 8.76297 116.206 9.57537 117.796 9.54953L122.091 9.55748C124.409 9.59226 125.071 10.2308 125.08 12.4861L125.082 37.3967Z" fill="black"/>
<path d="M30 37.3967C30.0065 39.6296 30.5149 40.2164 32.7709 40.3779C34.31 40.4877 35.8607 40.44 37.4059 40.4475C38.885 40.4549 39.6276 41.1541 39.6166 42.6338L39.6231 47.5479C39.6256 49.1344 40.4393 49.9786 42.0373 50.002H48.7379C50.2438 49.9791 51.0982 49.1643 51.132 47.6821L51.1375 41.0736C51.1108 39.5233 50.2987 38.6652 48.6739 38.6577L43.8636 38.6284C42.3855 38.5877 41.525 37.9174 41.529 36.3313C41.5466 28.7624 41.529 13.6239 41.529 13.6239C41.525 12.0618 42.2298 11.3383 43.8147 11.3636L48.6245 11.3373C50.3667 11.2588 51.1027 10.5006 51.1395 8.77639V2.50725C51.1017 0.757741 50.3667 0.0347816 48.613 0H42.0847C40.3451 0.028819 39.6916 0.655881 39.6387 2.35024L39.61 7.26388C39.5929 8.76297 38.8755 9.57537 37.285 9.54953L32.9901 9.55748C30.6756 9.59375 30.0106 10.2322 30 12.4876V37.3967Z" fill="black"/>
<path d="M54.3477 13.9037C54.3477 12.0722 54.9401 11.3815 56.7387 11.3229L62.4004 11.3393C63.9904 11.3795 64.7995 12.2312 64.8 13.8122C64.8 13.8122 64.8227 29.8356 64.7894 37.8473C64.7814 39.7504 64.0962 40.3789 62.1697 40.4311H56.85C55.0026 40.3814 54.3814 39.7608 54.3698 37.9402L54.3477 13.9037Z" fill="black"/>
</g>
<defs>
<clipPath id="clip0_205_554">
<rect width="95.082" height="50" fill="white" transform="translate(30)"/>
</clipPath>
</defs>
</svg>
