<svg xmlns="http://www.w3.org/2000/svg" viewBox="0 0 386 118.85" xmlns:v="https://vecta.io/nano"><defs><mask id="A" x="7.29" y="2.94" width="72.99" height="111.21" maskUnits="userSpaceOnUse"><path d="M28.31 95.52a23.61 23.61 0 0 1-7.86-6 21.45 21.45 0 0 1-5-8.78q-.59-17 0-44.14a43 43 0 0 0-6.44.7 40.9 40.9 0 0 1-1.51-8.1 39.09 39.09 0 0 1 .08-8.81q9.55-.88 22.11-1.14l-.85-16.31h12.93l3 15.69q6.75-.11 11.27 0a33.33 33.33 0 0 1 12.15 9.47 47.27 47.27 0 0 1 8.28 13.5 27.36 27.36 0 0 1-4.61 6.85A27.85 27.85 0 0 1 65 54.14V55a29.31 29.31 0 0 1 9.73 7.2 21.78 21.78 0 0 1 5.51 9.74q-1.17 6.72-7.57 13.81A34.44 34.44 0 0 1 59 95.47q-2.54.18-8.12.38v16L37 113.15V95.83l-8.69-.31zm6.62-43.82l14-.68a31.88 31.88 0 0 0 6.66-6.73 16 16 0 0 0-3-5.15 20.73 20.73 0 0 0-4.73-4.32q-6-.1-12.76.16-.18 10.91-.17 16.72zm.63 28.42a155.33 155.33 0 0 0 16.72-.63 11.11 11.11 0 0 0 4.48-3.37 10.11 10.11 0 0 0 2.3-4.41q-1.91-4.24-7.2-7.41l-16.77.9q.15 7.51.47 14.92z" fill="#fff" fill-rule="evenodd"/></mask></defs><g fill-rule="evenodd"><path d="M321.56 109.12a8.8 8.8 0 0 1-.73 2 3.09 3.09 0 0 1-1.87 1.64 20 20 0 0 1-7.3 1 18.51 18.51 0 0 1-7.3-1.31 10.73 10.73 0 0 1-2.05-1.35h-15.66l-.28.17a7.77 7.77 0 0 1-2 .77 26.07 26.07 0 0 1-7.19.62 25.43 25.43 0 0 1-5-1.56h-20a36.12 36.12 0 0 1-4.85 1 33.92 33.92 0 0 1-5.58.32 4.57 4.57 0 0 1-2.82-1.3h-3.83a1.68 1.68 0 0 1-1.31.76 40.28 40.28 0 0 1-11.44.2 4.9 4.9 0 0 1-2.49-1.22l-10.36-.33A1.61 1.61 0 0 1 208 112a35.67 35.67 0 0 1-5.48.47 36.42 36.42 0 0 1-5.37-.27 6.18 6.18 0 0 1-3.24-2l-.21-.22-12.24-.39a18.22 18.22 0 0 1-5.49 3 6.71 6.71 0 0 1-2.08.26 54.58 54.58 0 0 1-9.38-1.15 35.61 35.61 0 0 1-7.8-2.43l-1-.53-6.44-.21a13.27 13.27 0 0 1-2.3 2.5 4.27 4.27 0 0 1-2 .85 67.53 67.53 0 0 1-8.59.75 68.47 68.47 0 0 1-8-.1q-3-.19-7.67-4.62l-.32-.31-4.49-.15a10.91 10.91 0 0 1-.16 1.31 2.07 2.07 0 0 1-1.53 1.7 37 37 0 0 1-9.58 1.75 38 38 0 0 1-8.91-.16 11.25 11.25 0 0 1-5.3-2.45 22.08 22.08 0 0 1-2.94-2.8L57 104.39 55.56 116q-20.49 2.82-21 2.83-.51.01-1-13.94l-3.53-1.44c-3.59-1.83-5.15-4-9.2-8.29s-6.76-8.34-8.1-12a12.65 12.65 0 0 1-.63-3.87q-.37-12.33-.16-31.43-1.86.16-5.56-3.12-3.7-3.28-4.47-5.63A41 41 0 0 1 .19 30a37.23 37.23 0 0 1 .18-9 3.37 3.37 0 0 1 3.34-3q8.2-.72 23.17-1.7L25.56 1.79A1.65 1.65 0 0 1 27.05 0h15.61a1.64 1.64 0 0 1 1.54 1.07l5.28 14.28h5.19a8.83 8.83 0 0 1 3.91.9 50.62 50.62 0 0 1 13.59 10.38l4 .19.06-.76a22.72 22.72 0 0 1 .89-4.94 2.6 2.6 0 0 1 2.07-1.82 35.9 35.9 0 0 1 5.12-.82 18.92 18.92 0 0 1-2.92-3.55 13 13 0 0 1-1.83-5.81 12.69 12.69 0 0 1 .73-5.95 3.2 3.2 0 0 1 1.89-1.9A19.64 19.64 0 0 1 89.7.11a19.51 19.51 0 0 1 7.43 1.34 11.11 11.11 0 0 1 3.78 2.8 8.33 8.33 0 0 1 2.17 3.56 14.37 14.37 0 0 1 .26 5.61A13.09 13.09 0 0 1 101.5 19a4.25 4.25 0 0 1-.79.9 9.43 9.43 0 0 1 2.09 2.49 4.51 4.51 0 0 1 .76 2.53c0 .83-.07 1.65-.1 2.47h1.09v-1.4a16.13 16.13 0 0 1 1.11-6 2.36 2.36 0 0 1 2.34-1.31l5.26-.38v-8.15A2.25 2.25 0 0 1 115 7.81a25.82 25.82 0 0 1 6.76-.81 24.27 24.27 0 0 1 6.64.82 9 9 0 0 1 3.75 2.79c1.4 1.53 2.12 2.8 2.17 3.78l.17 3.58 3.92.14a6.44 6.44 0 0 1 3.92 2A9.06 9.06 0 0 1 145 24a13.8 13.8 0 0 1 .61 2.73h1.92c.4-.61.82-1.21 1.27-1.81a26.61 26.61 0 0 1 10.44-8.56 6.84 6.84 0 0 1 2.48-.59 56 56 0 0 1 9 .36 41.31 41.31 0 0 1 8.38 1.81 9.57 9.57 0 0 1 4.08 2.86 6.15 6.15 0 0 1 1.82 3.8 12.79 12.79 0 0 1-.09 1.49h2.81c.53-.78 1.11-1.54 1.73-2.29a23.63 23.63 0 0 1 10-7.28 32 32 0 0 1 5.93-.93 30.4 30.4 0 0 1 5.87.07 26.27 26.27 0 0 1 10.51 4.78 39.55 39.55 0 0 1 5.68 5l6.34-.1a21.65 21.65 0 0 1 .83-4.2 2.6 2.6 0 0 1 2.06-1.82 36.29 36.29 0 0 1 5.13-.82 18.54 18.54 0 0 1-2.92-3.55A13 13 0 0 1 237 9.12a12.83 12.83 0 0 1 .72-5.95 3.24 3.24 0 0 1 1.9-1.9 23.12 23.12 0 0 1 15 .18 11.11 11.11 0 0 1 3.78 2.8 8.53 8.53 0 0 1 2.17 3.56 14.56 14.56 0 0 1 .26 5.61A13 13 0 0 1 259 19a3.75 3.75 0 0 1-.79.9 9.28 9.28 0 0 1 2.1 2.49 4.6 4.6 0 0 1 .76 2.51h1.57a25.51 25.51 0 0 1 .87-5.25 2.57 2.57 0 0 1 2.1-1.82q8.83-2 14.24-1.62a3.29 3.29 0 0 1 2.19 1.07 14.79 14.79 0 0 1 2.18 3.2 29.18 29.18 0 0 1 8.05-4.92 6 6 0 0 1 2.58-.28 28.53 28.53 0 0 1 8.22 2.1 22.37 22.37 0 0 1 6.28 3.87 18.72 18.72 0 0 1 3.94 4.9 12.85 12.85 0 0 1 1.62 5.27q.93 14.79.34 30.51a2.27 2.27 0 0 1-1.79 2.34l-.89.26 2.11 14.83 10.74-1a2 2 0 0 1 1.5-1.16 29.89 29.89 0 0 1 3.93-.64 14.09 14.09 0 0 1-2.24-2.72 11 11 0 0 1-.85-9 2.46 2.46 0 0 1 1.46-1.45 15 15 0 0 1 5.81-.9 15.16 15.16 0 0 1 5.7 1 8.77 8.77 0 0 1 2.91 2.15 6.49 6.49 0 0 1 1.66 2.74 11 11 0 0 1 .2 4.3 9.89 9.89 0 0 1-1.41 4.28 3.15 3.15 0 0 1-.61.69l.26.23 9.73.35a17.21 17.21 0 0 1 5.33-3.2 24.57 24.57 0 0 1 4.55-.71 23.75 23.75 0 0 1 4.51.05A20.26 20.26 0 0 1 376 78a28.82 28.82 0 0 1 6.55 6.54 20.76 20.76 0 0 1 3.42 7.12 19.86 19.86 0 0 1-2.55 11.59A22.28 22.28 0 0 1 375 112a7.07 7.07 0 0 1-1.83.71 23.57 23.57 0 0 1-6.68.59 23.28 23.28 0 0 1-6.76-2.48l-2.47.3-11.73-.71v.46a1.55 1.55 0 0 1-1.4 1.79 32.32 32.32 0 0 1-5.1.44 35.72 35.72 0 0 1-5-.25 5.62 5.62 0 0 1-3-1.83 7.26 7.26 0 0 1-1.24-1.57l-5.12-.31z" fill="#585858"/><path d="M28.31 95.52a23.61 23.61 0 0 1-7.86-6 21.45 21.45 0 0 1-5-8.78q-.59-17 0-44.14a43 43 0 0 0-6.44.7 40.9 40.9 0 0 1-1.51-8.1 39.09 39.09 0 0 1 .08-8.81q9.55-.88 22.11-1.14l-.85-16.31h12.93l3 15.69q6.75-.11 11.27 0a33.33 33.33 0 0 1 12.15 9.47 47.27 47.27 0 0 1 8.28 13.5 27.36 27.36 0 0 1-4.61 6.85A27.85 27.85 0 0 1 65 54.14V55a29.31 29.31 0 0 1 9.73 7.2 21.78 21.78 0 0 1 5.51 9.74q-1.17 6.72-7.57 13.81A34.44 34.44 0 0 1 59 95.47q-2.54.18-8.12.38v16L37 113.15V95.83l-8.69-.31zm6.62-43.82l14-.68a31.88 31.88 0 0 0 6.66-6.73 16 16 0 0 0-3-5.15 20.73 20.73 0 0 0-4.73-4.32q-6-.1-12.76.16-.18 10.91-.17 16.72zm.63 28.42a155.33 155.33 0 0 0 16.72-.63 11.11 11.11 0 0 0 4.48-3.37 10.11 10.11 0 0 0 2.3-4.41q-1.91-4.24-7.2-7.41l-16.77.9q.15 7.51.47 14.92z" fill="#fee844"/></g><g mask="url(#A)"><path d="M65,55a29.31,29.31,0,0,1,9.73,7.2,21.78,21.78,0,0,1,5.51,9.74q-1.17,6.72-7.57,13.81-4.27,4.72-10.57,11.78l-5.42-.73-4.3,15.92-12.69,1.44,4.13-18.21q-10-.15-15.55-.41l3.81-7.67a210,210,0,0,0,23.5-.43,22.57,22.57,0,0,0,9.15-6.51q4.19-4.71,4.92-9.1a18.23,18.23,0,0,0-6.13-8.91,28.28,28.28,0,0,0-11.91-5.38,88.18,88.18,0,0,0,9.1-7.88A27,27,0,0,0,66,43a32.9,32.9,0,0,0-5.69-9.39,24.87,24.87,0,0,0-8.44-6.85L56,18.63A33.33,33.33,0,0,1,68.19,28.1a47.27,47.27,0,0,1,8.28,13.5,27.36,27.36,0,0,1-4.61,6.85A27.85,27.85,0,0,1,65,54.14ZM47.79,34.82q-6-.1-12.76.16-.11,10.91-.1,16.72L25,59q0-8.56.37-31.32,14.66-1.06,26.51-.9ZM25.4,27.63l-9.95,9a50.21,50.21,0,0,0-6.81.74l1.47-8.31Q19.78,28,25.4,27.63ZM51.65,57.52l.21,6.78-16.77.9q.15,7.51.47,14.92l-3.44,7.73a13.13,13.13,0,0,1-4-3.15,11.46,11.46,0,0,1-2.62-4.47Q25,69.06,25,59Zm-6.72-39-10.4,3.12,1.7-18.74h5.48Z" fill-rule="evenodd" fill="#feac44"/></g><g fill-rule="evenodd"><path d="M82.44 3.48a16.27 16.27 0 0 1 7.1-1.26 16.09 16.09 0 0 1 7.11 1.33A13.21 13.21 0 0 1 97 9.19a9.85 9.85 0 0 1-1.87 4.92 13.3 13.3 0 0 1-5.82 1.32 11.94 11.94 0 0 1-5.81-1.12 9.69 9.69 0 0 1-1.86-5.26 10.13 10.13 0 0 1 .8-5.57zm14.79 17q-.88 19.08-.23 38.8a41.71 41.71 0 0 1-12.69.2 235.79 235.79 0 0 1-.07-28l-6-.31a27.83 27.83 0 0 1 0-5.06 21.34 21.34 0 0 1 .88-4.68q6.88-1.68 18.11-.92zm41.49-.28a17.47 17.47 0 0 1 .71 5.85 13.53 13.53 0 0 1-1 5.54q-6.19-.07-9.6-.07.51 15.75.75 27.73a47.93 47.93 0 0 1-13.28.2q-.67-15.37-.86-27.83l-8.29.21a17.79 17.79 0 0 1-.51-5.76 15.15 15.15 0 0 1 1-5.25q5.53-.48 7.7-.59 0-3.44 0-10.38a22.67 22.67 0 0 1 6.36-.83 20.94 20.94 0 0 1 6.19.83L128.4 20q5.3 0 10.32.23zm17.37 39.05a20.72 20.72 0 0 1-8.1-8.93 26.66 26.66 0 0 1-2.63-12.71A26.87 26.87 0 0 1 148 30a27.93 27.93 0 0 1 5.37-7.15 22.69 22.69 0 0 1 7.54-5 49.94 49.94 0 0 1 9.44.22A38.19 38.19 0 0 1 178.7 20a17.8 17.8 0 0 1-1.12 5.77 16.34 16.34 0 0 1-2.63 5 26.25 26.25 0 0 0-11.18-1.21 11 11 0 0 0-3 3.93 16.7 16.7 0 0 0-1.55 5.26 12.93 12.93 0 0 0 1.34 5.64 10.11 10.11 0 0 0 3.61 4.13 20.11 20.11 0 0 0 5.9.08 34 34 0 0 0 7.31-1.46c.67.81 1.14 2.41 1.43 4.82a16.47 16.47 0 0 1 0 5.47 42.77 42.77 0 0 1-11.5 2.17 44.14 44.14 0 0 1-11.22-.32zm49.34.79A23.76 23.76 0 0 1 194.8 55a24.28 24.28 0 0 1-6.87-9 21.94 21.94 0 0 1-1.8-10.67A21.89 21.89 0 0 1 191.2 25a22.17 22.17 0 0 1 8.89-6.51 32.1 32.1 0 0 1 10.84-.76 21.47 21.47 0 0 1 7.93 3.42 24.65 24.65 0 0 1 6.19 6 21.29 21.29 0 0 1 3.39 7.18 22.28 22.28 0 0 1-1.29 9.67 28.15 28.15 0 0 1-5.15 8.86 26.15 26.15 0 0 1-7.74 6.28 26.46 26.46 0 0 1-8.83.93zm3.4-11.15a10.92 10.92 0 0 0 4.65-4.71 14.86 14.86 0 0 0 2-7.33 12 12 0 0 0-3.48-5.73 8.92 8.92 0 0 0-6.09-2.36 8.78 8.78 0 0 0-4.18 3.15 10.58 10.58 0 0 0-2.18 5.25 10.85 10.85 0 0 0 2.37 7.1 11.65 11.65 0 0 0 6.91 4.66zM240 3.48a16.27 16.27 0 0 1 7.1-1.26 16 16 0 0 1 7.1 1.33 13 13 0 0 1 .33 5.64 10 10 0 0 1-1.87 4.92 13.33 13.33 0 0 1-5.82 1.32 11.94 11.94 0 0 1-5.84-1.12 9.69 9.69 0 0 1-1.86-5.26 10 10 0 0 1 .86-5.57zm14.79 17q-.9 19.05-.24 38.77a41.77 41.77 0 0 1-12.7.2 240.14 240.14 0 0 1-.07-28l-5.95-.31a28.76 28.76 0 0 1 0-5.06 22.59 22.59 0 0 1 .88-4.68q6.83-1.65 18.05-.89zm53.77 5.67q1 14.28.38 31.72a43.55 43.55 0 0 1-6.56 1.41 36.52 36.52 0 0 1-6.55.41q.18-7.11 0-14.89-.18-7.78-.72-11.8a6.23 6.23 0 0 0-1.29-1.92 4.46 4.46 0 0 0-1.67-1.21 26.08 26.08 0 0 0-7.46 3.24q-.18 10.27 1 26a47.24 47.24 0 0 1-13.45.21 175.43 175.43 0 0 1-.93-28.56h-6.6a33.75 33.75 0 0 1 .05-5.66 24.79 24.79 0 0 1 .87-5.21 51.22 51.22 0 0 1 14.21-1.69l1.79 6.19.9.21q6.6-6.09 11.18-7.4a21 21 0 0 1 10.16 3 10 10 0 0 1 4.66 5.98z" fill="#fee844"/><path d="M83.47 14.31l2.75-5.43q3.69-.08 6 0l4.48-5.29a13.21 13.21 0 0 1 .3 5.6 9.85 9.85 0 0 1-1.87 4.92 13.3 13.3 0 0 1-5.82 1.32 11.94 11.94 0 0 1-5.84-1.12zm13.76 6.2q-.88 19.05-.23 38.77a41.71 41.71 0 0 1-12.69.2l6.09-4.33Q90 39.22 90.73 26zM81.44 26a78.72 78.72 0 0 1 9.29 0l-6.5 5.5-6-.31zm40.6-.37q-.11-3.48-.25-10.84L128 9.88l.4 10.12zm-5.72 33.81l6.51-4.88q-.72-25.32-.79-28.93 6-.11 12.62.06l4.06-5.5a17.47 17.47 0 0 1 .71 5.85 13.53 13.53 0 0 1-1 5.54q-6.19-.07-9.6-.07.51 15.75.75 27.73a47.93 47.93 0 0 1-13.26.24zM122 25.67l-6.58 6-8.29.21 4.28-5.88 10.59-.33zm41.73 3.88a11 11 0 0 0-3 3.93 16.7 16.7 0 0 0-1.55 5.26 12.93 12.93 0 0 0 1.34 5.64 10.11 10.11 0 0 0 3.61 4.13l-4.06 5.37a15.78 15.78 0 0 1-5.83-6.54 19.61 19.61 0 0 1-2-9.15 21.45 21.45 0 0 1 3.37-8.43 16.9 16.9 0 0 1 6.64-6.06 41 41 0 0 1 11 .66L178.7 20a17.8 17.8 0 0 1-1.12 5.77 16.34 16.34 0 0 1-2.63 5 26.25 26.25 0 0 0-11.18-1.22zm-7.68 29.73l4.06-5.4a29.58 29.58 0 0 0 6.57.32 44.19 44.19 0 0 0 7.71-.94l3-6.13c.67.81 1.14 2.41 1.43 4.82a16.47 16.47 0 0 1 0 5.47 42.77 42.77 0 0 1-11.5 2.17 44.14 44.14 0 0 1-11.23-.31zm52.75-36.06l2.13-5.5a21.47 21.47 0 0 1 7.93 3.42 24.65 24.65 0 0 1 6.19 6 21.29 21.29 0 0 1 3.39 7.18 22.28 22.28 0 0 1-1.29 9.68 28.15 28.15 0 0 1-5.15 8.86 26.15 26.15 0 0 1-7.74 6.28 26.46 26.46 0 0 1-8.87.93l1.44-5.64a17.86 17.86 0 0 0 5-.52 19.14 19.14 0 0 0 7.51-7.67A19.32 19.32 0 0 0 222 35.61a16.94 16.94 0 0 0-4.8-8 15.52 15.52 0 0 0-8.4-4.39zm-1.93 31.21a17.54 17.54 0 0 1-7.76-3.94 18.6 18.6 0 0 1-5-6.73 16.06 16.06 0 0 1-1.32-7.57 16.49 16.49 0 0 1 3.5-7.58 15.52 15.52 0 0 1 6.33-4.87 21 21 0 0 1 6.13-.52l-2.93 5.54a8.78 8.78 0 0 0-4.18 3.15 10.58 10.58 0 0 0-2.18 5.25 10.85 10.85 0 0 0 2.37 7.1 11.65 11.65 0 0 0 7 4.66zM241 14.31l2.75-5.43h5.95l4.47-5.29a13 13 0 0 1 .33 5.64 10 10 0 0 1-1.87 4.92 13.33 13.33 0 0 1-5.82 1.32 11.94 11.94 0 0 1-5.81-1.16zm13.76 6.2q-.9 19.05-.24 38.77a41.77 41.77 0 0 1-12.7.2l6.09-4.33q-.37-15.93.35-29.17zM239 26a78.72 78.72 0 0 1 9.29-.06l-6.51 5.5-5.95-.31zm38.94 7.71l-2.27-9.25 4.23-6.23 1.79 6.19zm-5.64 25.6l6.33-5.1q-.9-12.21-.69-20.5a49.5 49.5 0 0 1 7.33-6.21 26.5 26.5 0 0 1 7.71-4 11.9 11.9 0 0 1 5.88 2.08 7.48 7.48 0 0 1 3 3.94L295.11 33a6.23 6.23 0 0 0-1.29-1.92 4.46 4.46 0 0 0-1.67-1.21 26.08 26.08 0 0 0-7.46 3.24 255.22 255.22 0 0 0 1 26 47.24 47.24 0 0 1-13.42.24zm-2.2-34.61a40.94 40.94 0 0 1 5.54-.2l-4.3 6.29h-6.6zm38.81 33.2a43.55 43.55 0 0 1-6.56 1.41 36.52 36.52 0 0 1-6.55.41l6.67-5.72q.18-14.85-.65-24.42l6.71-3.41q.96 14.29.38 31.73z" fill="#feac44"/><path d="M91.78 106.78a17.17 17.17 0 0 1-6.69-7.37 22.07 22.07 0 0 1-2.17-10.49 21.91 21.91 0 0 1 2.16-6.28 23 23 0 0 1 4.43-5.9 18.81 18.81 0 0 1 6.22-4.12 40.8 40.8 0 0 1 7.79.18 31.35 31.35 0 0 1 6.92 1.52 14.75 14.75 0 0 1-.92 4.77 13.36 13.36 0 0 1-2.18 4.15 21.75 21.75 0 0 0-9.23-1 9.34 9.34 0 0 0-2.44 3.24 14.07 14.07 0 0 0-1.28 4.35 10.64 10.64 0 0 0 1.11 4.65 8.35 8.35 0 0 0 3 3.41 16.71 16.71 0 0 0 4.87.07 28.86 28.86 0 0 0 6-1.2 8.21 8.21 0 0 1 1.18 4 13.8 13.8 0 0 1 0 4.52 35.29 35.29 0 0 1-9.5 1.79 36.09 36.09 0 0 1-9.27-.29zm52.06-30.58a37.91 37.91 0 0 1 2.42 10.65 73.34 73.34 0 0 1 .42 12.43 13.9 13.9 0 0 1-1.88 4.12 11.47 11.47 0 0 1-2.92 3.18 62.62 62.62 0 0 1-9.73.91 56.93 56.93 0 0 1-9.81-.48 14.12 14.12 0 0 1-3.93-6 19.68 19.68 0 0 1-1.5-7.4 14.82 14.82 0 0 1 1.78-3.36 10.44 10.44 0 0 1 2.43-2.63A58.91 58.91 0 0 1 136 86l-.6-3.32a69.67 69.67 0 0 0-16.1-.74 20.05 20.05 0 0 1-.16-4.88 12.46 12.46 0 0 1 1-4.35 72.47 72.47 0 0 1 13.81.53q6.97.94 9.89 2.96zm-7.42 22l.09-5.09a31 31 0 0 0-9.2 1.57 6.76 6.76 0 0 0 1.59 4.57 31.21 31.21 0 0 0 7.52-1.1zm34.82 9.54a54.16 54.16 0 0 1-9.33-1 32.21 32.21 0 0 1-8.16-2.53 13.34 13.34 0 0 1 1.06-4.93 10.79 10.79 0 0 1 2.46-3.84 56.68 56.68 0 0 0 7.11 2.32 32 32 0 0 0 6.62 1.1 5.19 5.19 0 0 0 .82-2 5.9 5.9 0 0 0 .11-2.3 127.06 127.06 0 0 0-14.45-2.73 7.43 7.43 0 0 1-1.72-2 9.94 9.94 0 0 1-1.15-2.57 20.36 20.36 0 0 1 2-8 14.31 14.31 0 0 1 4.8-6.05 55.14 55.14 0 0 1 10.11-.63 44.16 44.16 0 0 1 9 1 10.36 10.36 0 0 1 .17 4.62 8.72 8.72 0 0 1-1.45 4 29.25 29.25 0 0 0-6-1.22 35.65 35.65 0 0 0-6.54-.23 5.85 5.85 0 0 0-1.22 3.41 92.17 92.17 0 0 1 13.17 2.47 10.73 10.73 0 0 1 3.28 4 12.53 12.53 0 0 1 1.55 5.37 19 19 0 0 1-4.81 7.17 16.76 16.76 0 0 1-7.43 4.52zm33.23-32.91q-.74 15.72-.2 32a34.29 34.29 0 0 1-10.48.17 198.17 198.17 0 0 1-.06-23.11l-4.91-.26a23.43 23.43 0 0 1 0-4.17 17.8 17.8 0 0 1 .73-3.87q5.67-1.43 14.92-.81zm44.38 4.68q.79 11.79.32 26.19a36.61 36.61 0 0 1-5.41 1.16 30.9 30.9 0 0 1-5.41.34q.14-5.88 0-12.3l-.55-9.77a5.43 5.43 0 0 0-1.07-1.59 3.63 3.63 0 0 0-1.37-1 21.46 21.46 0 0 0-6.17 2.67q-.13 8.49.86 21.5a39.29 39.29 0 0 1-11.11.17 143.28 143.28 0 0 1-.76-23.57h-5.46a28.5 28.5 0 0 1 .05-4.68 20.4 20.4 0 0 1 .72-4.3 42.81 42.81 0 0 1 11.73-1.39l1.46 5.06.73.17q5.46-5 9.23-6.1a17.21 17.21 0 0 1 8.36 2.48 8.25 8.25 0 0 1 3.85 4.91zm25.11 28a19.66 19.66 0 0 1-8.78-4.2 20.12 20.12 0 0 1-5.66-7.47A18.05 18.05 0 0 1 258 87a17.94 17.94 0 0 1 4.19-8.48 18.28 18.28 0 0 1 7.34-5.38 26.46 26.46 0 0 1 8.94-.62 17.79 17.79 0 0 1 6.55 2.82 20.33 20.33 0 0 1 5.11 5 17.59 17.59 0 0 1 2.8 5.92 18.5 18.5 0 0 1-1.07 8 23.12 23.12 0 0 1-4.21 7.31 21.61 21.61 0 0 1-6.39 5.19 21.82 21.82 0 0 1-7.26.67zm2.81-9.2a9 9 0 0 0 3.83-3.89 12.19 12.19 0 0 0 1.68-6 9.84 9.84 0 0 0-2.93-4.75 7.37 7.37 0 0 0-5-2 7.16 7.16 0 0 0-3.45 2.6 8.67 8.67 0 0 0-1.81 4.33 9 9 0 0 0 2 5.87 9.58 9.58 0 0 0 5.68 3.76z" fill="#f6f6f6"/><path d="M98.11 82.24a9.34 9.34 0 0 0-2.44 3.24 14.07 14.07 0 0 0-1.28 4.35 10.64 10.64 0 0 0 1.11 4.65 8.35 8.35 0 0 0 3 3.41l-3.35 4.43a12.93 12.93 0 0 1-4.81-5.39 16.18 16.18 0 0 1-1.66-7.56 17.65 17.65 0 0 1 2.78-7 13.9 13.9 0 0 1 5.48-5A33.46 33.46 0 0 1 106 78l4.46-3.64a14.75 14.75 0 0 1-.92 4.77 13.36 13.36 0 0 1-2.18 4.15 21.75 21.75 0 0 0-9.25-1.04zm-6.33 24.54l3.35-4.46a24.13 24.13 0 0 0 5.43.27 35.24 35.24 0 0 0 6.36-.78l2.47-5a8.21 8.21 0 0 1 1.18 4 13.8 13.8 0 0 1 0 4.52 35.29 35.29 0 0 1-9.5 1.79 36.09 36.09 0 0 1-9.29-.34zm52.06-30.58a37.91 37.91 0 0 1 2.42 10.65 73.34 73.34 0 0 1 .42 12.43 13.9 13.9 0 0 1-1.88 4.12 11.47 11.47 0 0 1-2.92 3.18 62.62 62.62 0 0 1-9.73.91 56.93 56.93 0 0 1-9.81-.48l3.29-3.92a44.55 44.55 0 0 0 6.73.08 41.45 41.45 0 0 0 6.62-.79 6.4 6.4 0 0 0 1.56-1.72 7.63 7.63 0 0 0 1-2.2 75.11 75.11 0 0 0-.14-8.95 50.18 50.18 0 0 0-1.76-10.08zM119.33 82l3.67-4.81q11.42 0 16.7 2.24l-4.23 3.27a69.67 69.67 0 0 0-16.14-.7zm17.18 11.1a31 31 0 0 0-9.2 1.57 6.76 6.76 0 0 0 1.59 4.57l-3.27 3.89a10.67 10.67 0 0 1-2.54-4 13.26 13.26 0 0 1-1-4.79 7.35 7.35 0 0 1 2.27-3.23q5.88-1.74 17-1.57zm30.16-12.29a5.85 5.85 0 0 0-1.22 3.41L161.56 88a4.84 4.84 0 0 1-1.54-2.5 13.47 13.47 0 0 1 1.21-4.86A9.19 9.19 0 0 1 164 77a43.62 43.62 0 0 1 12.61.26l3.89-3.64a10.36 10.36 0 0 1 .17 4.62 8.72 8.72 0 0 1-1.45 4 29.25 29.25 0 0 0-6-1.22 35.65 35.65 0 0 0-6.55-.25zm8.46 9.8l3.49-3.92a10.73 10.73 0 0 1 3.28 4 12.53 12.53 0 0 1 1.58 5.31 19 19 0 0 1-4.81 7.17 16.76 16.76 0 0 1-7.43 4.5 54.16 54.16 0 0 1-9.33-1 32.21 32.21 0 0 1-8.16-2.53l4.85-3.29a49.22 49.22 0 0 0 6.54 1.71 33.56 33.56 0 0 0 6 .7 10 10 0 0 0 4.09-3.12 12.25 12.25 0 0 0 2.52-4.66 6.74 6.74 0 0 0-.86-2.77 5.88 5.88 0 0 0-1.76-2.14zM161.56 88a102.67 102.67 0 0 1 13.57 2.53l-3.21 4a127.06 127.06 0 0 0-14.45-2.73zm42.91-13.26q-.74 15.72-.2 32a34.29 34.29 0 0 1-10.48.17l5-3.58q-.31-13.14.28-24.08zm-13 4.57a66.48 66.48 0 0 1 7.67-.06l-5.37 4.55-4.91-.26zm32.15 6.36l-1.87-7.64 3.49-5.14 1.44 5.11zm-4.66 21.13l5.23-4.2q-.74-10.1-.57-16.93a40.83 40.83 0 0 1 6-5.13A22.21 22.21 0 0 1 236 77.3a9.89 9.89 0 0 1 4.85 1.7 6.27 6.27 0 0 1 2.47 3.25l-5.54 2.81a5.43 5.43 0 0 0-1.07-1.59 3.63 3.63 0 0 0-1.37-1 21.46 21.46 0 0 0-6.17 2.67 210.8 210.8 0 0 0 .86 21.5 39.29 39.29 0 0 1-11.11.2zm-1.79-28.6a32.8 32.8 0 0 1 4.58-.17l-3.55 5.2h-5.46zm32 27.41a36.61 36.61 0 0 1-5.41 1.16 30.9 30.9 0 0 1-5.41.34l5.51-4.71q.13-12.27-.54-20.17l5.53-2.81q.8 11.83.32 26.23zM276.74 77l1.76-4.54a17.79 17.79 0 0 1 6.55 2.82 20.33 20.33 0 0 1 5.11 5 17.59 17.59 0 0 1 2.8 5.92 18.5 18.5 0 0 1-1.07 8 23.12 23.12 0 0 1-4.21 7.31 21.61 21.61 0 0 1-6.39 5.19 21.82 21.82 0 0 1-7.33.76l1.19-4.65a14.61 14.61 0 0 0 4.09-.43 15.78 15.78 0 0 0 6.21-6.38 16 16 0 0 0 2.2-8.78 14.05 14.05 0 0 0-4-6.63 12.88 12.88 0 0 0-6.91-3.59zm-1.59 25.76a14.45 14.45 0 0 1-6.4-3.25 15.18 15.18 0 0 1-4.09-5.51 13.38 13.38 0 0 1-1.1-6.24 13.69 13.69 0 0 1 2.9-6.27 12.76 12.76 0 0 1 5.23-4 17.06 17.06 0 0 1 5.05-.43l-2.41 4.57a7.16 7.16 0 0 0-3.45 2.6 8.67 8.67 0 0 0-1.81 4.33 9 9 0 0 0 2 5.87 9.58 9.58 0 0 0 5.74 3.84z" fill="#c2d6e4"/><path d="M314.57 106.35a15.4 15.4 0 0 1-7 1.13 15.71 15.71 0 0 1-7-1.33 15.88 15.88 0 0 1-.68-6.57 15.23 15.23 0 0 1 1.6-6.09 15.28 15.28 0 0 1 6.28-1.86 14.88 14.88 0 0 1 6.58.46 8 8 0 0 1 1.36 4.07 24.52 24.52 0 0 1 0 5.87 10.39 10.39 0 0 1-1.14 4.32z" fill="#fee844"/><path d="M300.62 106.15l3.81-6.57q3.13-.21 6.57-.27l3.4-7.22a8 8 0 0 1 1.36 4.07 24.52 24.52 0 0 1 0 5.87 10.39 10.39 0 0 1-1.23 4.32 15.4 15.4 0 0 1-7 1.13 15.71 15.71 0 0 1-6.91-1.33z" fill="#feac44"/><path d="M329.47 65a12.68 12.68 0 0 1 5.46-1 12.42 12.42 0 0 1 5.45 1 10.1 10.1 0 0 1 .25 4.33 7.54 7.54 0 0 1-1.44 3.78 10.23 10.23 0 0 1-4.46 1 9.36 9.36 0 0 1-4.46-.86 7.37 7.37 0 0 1-1.43-4 7.76 7.76 0 0 1 .63-4.25zm11.36 13q-.69 14.64-.18 29.77a32.41 32.41 0 0 1-9.75.16 181.46 181.46 0 0 1 0-21.5l-4.57-.24a21.14 21.14 0 0 1 0-3.88 16.21 16.21 0 0 1 .67-3.59c3.48-.83 8.09-1.06 13.83-.72zm22.58 30.38a18.35 18.35 0 0 1-8.16-3.91 18.8 18.8 0 0 1-5.27-7 16.87 16.87 0 0 1-1.38-8.19 16.72 16.72 0 0 1 3.89-7.88 17.09 17.09 0 0 1 6.83-5 24.92 24.92 0 0 1 8.32-.58 16.57 16.57 0 0 1 6.09 2.63 18.83 18.83 0 0 1 4.75 4.62 16.2 16.2 0 0 1 2.6 5.51 17.13 17.13 0 0 1-1 7.42 21.52 21.52 0 0 1-3.92 6.8 20 20 0 0 1-5.94 4.82 20.41 20.41 0 0 1-6.81.8zm2.59-8.52a8.44 8.44 0 0 0 3.56-3.62 11.38 11.38 0 0 0 1.56-5.63 9.12 9.12 0 0 0-2.72-4.42 6.87 6.87 0 0 0-4.67-1.81 6.65 6.65 0 0 0-3.21 2.42 8.11 8.11 0 0 0-1.68 4 8.33 8.33 0 0 0 1.82 5.45 8.94 8.94 0 0 0 5.34 3.61z" fill="#f6f6f6"/><path d="M330.27 73.29l2.11-4.17h4.57l3.43-4.12a10.1 10.1 0 0 1 .25 4.33 7.54 7.54 0 0 1-1.44 3.78 10.23 10.23 0 0 1-4.46 1 9.36 9.36 0 0 1-4.46-.82zM340.83 78q-.69 14.64-.18 29.77a32.41 32.41 0 0 1-9.75.16l4.68-3.33q-.3-12.23.26-22.4zm-12.12 4.25a63.71 63.71 0 0 1 7.13-.05l-5 4.23-4.57-.24zM366 80.13l1.64-4.23a16.57 16.57 0 0 1 6.09 2.63 18.83 18.83 0 0 1 4.75 4.62 16.2 16.2 0 0 1 2.6 5.51 17.13 17.13 0 0 1-1 7.42 21.52 21.52 0 0 1-3.92 6.8 20 20 0 0 1-5.94 4.82 20.41 20.41 0 0 1-6.82.72l1.11-4.34a13 13 0 0 0 3.81-.39 15.9 15.9 0 0 0 7.81-14 13 13 0 0 0-3.68-6.17 11.92 11.92 0 0 0-6.45-3.39zm-1.48 24a13.28 13.28 0 0 1-5.95-3 14.26 14.26 0 0 1-3.81-5.16 12.45 12.45 0 0 1-1-5.81 12.6 12.6 0 0 1 2.69-5.83 11.93 11.93 0 0 1 4.86-3.73 15.68 15.68 0 0 1 4.7-.4l-2.24 4.25a6.65 6.65 0 0 0-3.21 2.42 8.11 8.11 0 0 0-1.68 4 8.33 8.33 0 0 0 1.82 5.45 8.94 8.94 0 0 0 5.3 3.54z" fill="#c2d6e4"/></g></svg>