<svg width="155" height="22" viewBox="0 0 155 22" fill="none" xmlns="http://www.w3.org/2000/svg">
<path fill-rule="evenodd" clip-rule="evenodd" d="M0.0263176 0.289551L0 16.5508L4.70157 21.3065L21.0154 21.2786V0.289551H0.0263176Z" fill="#0099FD"/>
<path fill-rule="evenodd" clip-rule="evenodd" d="M13.4732 9.25452C13.1094 10.7097 10.8662 9.97129 10.1386 9.78862L10.7811 7.21568C11.5087 7.39681 13.8509 7.73429 13.4732 9.25452ZM13.0738 13.4065C12.6759 15.0072 9.9807 14.1419 9.10603 13.9251L9.81505 11.0875C10.6882 11.3058 13.4902 11.7377 13.0738 13.4065ZM16.0198 9.27774C16.2536 7.71417 15.0631 6.87355 13.4361 6.31314L13.964 4.19534L12.6744 3.87489L12.1604 5.93695C11.8214 5.85181 11.4731 5.77285 11.1278 5.6939L11.6465 3.6179L10.3569 3.2959L9.82899 5.41215C9.54878 5.34867 9.27322 5.2852 9.0054 5.21863L9.00695 5.21244L7.22973 4.76814L6.88606 6.14594C6.88606 6.14594 7.84278 6.36423 7.82265 6.37816C8.34591 6.5082 8.4388 6.85342 8.42332 7.12744L7.82111 9.53937C7.85671 9.54866 7.90316 9.56105 7.95579 9.58272C7.91399 9.57188 7.86755 9.56105 7.81956 9.54866L6.97585 12.9282C6.91237 13.0861 6.74982 13.3245 6.38602 13.2347C6.39995 13.2533 5.44942 13.0009 5.44942 13.0009L4.81006 14.4763L6.48665 14.8958C6.79936 14.9732 7.10434 15.0552 7.40622 15.1326L6.87212 17.2737L8.16014 17.5957L8.68804 15.4763C9.03946 15.5723 9.38004 15.6605 9.71598 15.7441L9.18962 17.8542L10.4792 18.1747L11.0133 16.0367C13.2116 16.4532 14.8634 16.2844 15.56 14.2967C16.1205 12.6959 15.5322 11.7733 14.3757 11.1711C15.2164 10.976 15.8495 10.4218 16.0198 9.27774Z" fill="white"/>
<path d="M34.1915 7.23586C34.8123 6.9185 35.2922 6.48658 35.6313 5.9401C35.9688 5.39363 36.139 4.77593 36.139 4.08394C36.139 2.92286 35.656 2.0002 34.6885 1.31594C33.7225 0.63168 32.3137 0.289551 30.4637 0.289551H23.0483V14.8014H30.8786C32.8122 14.8014 34.2891 14.4562 35.3108 13.7642C36.3326 13.0737 36.8434 12.0922 36.8434 10.8197C36.8434 9.94967 36.6081 9.20659 36.139 8.59045C35.67 7.97895 35.0198 7.52535 34.1915 7.23586ZM29.925 3.2557C31.3059 3.2557 31.9963 3.71858 31.9963 4.64435C31.9963 5.58404 31.3059 6.05466 29.925 6.05466H27.1074V3.2557H29.925ZM30.5458 11.8384H27.1074V8.89387H30.5458C31.9824 8.89387 32.6992 9.38462 32.6992 10.3661C32.7007 11.3476 31.9824 11.8384 30.5458 11.8384Z" fill="#1A2330"/>
<path d="M38.356 14.803H42.4569V0.289551H38.356V14.803Z" fill="#1A2330"/>
<path d="M48.1521 14.803H52.253V3.5452H56.6852V0.289551H43.6982V3.5452H48.1521V14.803Z" fill="#1A2330"/>
<path d="M64.8269 15.0924C66.152 15.0924 67.3472 14.8571 68.4107 14.388C69.4743 13.9189 70.3582 13.2409 71.0626 12.3569L68.4525 9.99296C67.5128 11.1262 66.3734 11.6928 65.0343 11.6928C64.2479 11.6928 63.5466 11.5194 62.932 11.1742C62.3174 10.8289 61.8406 10.3413 61.5031 9.71276C61.1641 9.08423 60.9953 8.36127 60.9953 7.54697C60.9953 6.73112 61.1641 6.00971 61.5031 5.38118C61.8406 4.75266 62.3174 4.26501 62.932 3.91978C63.5466 3.57455 64.2479 3.40117 65.0343 3.40117C66.3734 3.40117 67.5128 3.96777 68.4525 5.10098L71.0626 2.73703C70.3582 1.85307 69.4743 1.17501 68.4107 0.705932C67.3472 0.235311 66.152 0 64.8269 0C63.3082 0 61.9443 0.322004 60.7352 0.964464C59.5262 1.60692 58.5772 2.50172 57.8867 3.64886C57.1963 4.796 56.8511 6.09486 56.8511 7.54697C56.8511 8.99754 57.1963 10.2979 57.8867 11.4451C58.5772 12.5922 59.5262 13.487 60.7352 14.1295C61.9443 14.7719 63.3082 15.0924 64.8269 15.0924Z" fill="#1A2330"/>
<path d="M79.2644 15.0924C80.797 15.0924 82.1748 14.7673 83.3963 14.1186C84.6177 13.4684 85.5775 12.5705 86.2757 11.4234C86.9724 10.2763 87.3222 8.9836 87.3222 7.54697C87.3222 6.11034 86.9739 4.81768 86.2757 3.67054C85.5775 2.5234 84.6193 1.6255 83.3963 0.975301C82.1733 0.3251 80.797 0 79.2644 0C77.7318 0 76.354 0.3251 75.1325 0.973753C73.9111 1.62395 72.9512 2.52185 72.2531 3.66899C71.5549 4.81613 71.2065 6.10879 71.2065 7.54542C71.2065 8.9836 71.5549 10.2747 72.2531 11.4219C72.9497 12.569 73.9095 13.4669 75.1325 14.1171C76.354 14.7688 77.7302 15.0924 79.2644 15.0924ZM79.2644 11.6928C78.5321 11.6928 77.8696 11.5194 77.2766 11.1742C76.6822 10.8289 76.2131 10.3413 75.8679 9.71276C75.5226 9.08423 75.3508 8.36127 75.3508 7.54697C75.3508 6.73112 75.5226 6.00971 75.8679 5.38118C76.2131 4.75266 76.6822 4.26501 77.2766 3.91978C77.8696 3.57455 78.5337 3.40117 79.2644 3.40117C79.9966 3.40117 80.6592 3.57455 81.2521 3.91978C81.8451 4.26501 82.3157 4.75266 82.6609 5.38118C83.0061 6.00971 83.1795 6.73267 83.1795 7.54697C83.1795 8.36282 83.0061 9.08423 82.6609 9.71276C82.3157 10.3413 81.8466 10.8289 81.2521 11.1742C80.6577 11.5194 79.9951 11.6928 79.2644 11.6928Z" fill="#1A2330"/>
<path d="M88.4399 14.803H92.5409V0.289551H88.4399V14.803Z" fill="#1A2330"/>
<path d="M103.995 0.289551V8.02229L97.5939 0.289551H94.2175V14.8014H98.2364V7.07021L104.636 14.803H108.013V0.289551H103.995Z" fill="#1A2330"/>
<path d="M109.567 14.803H113.668V0.289551H109.567V14.803Z" fill="#1A2330"/>
<path d="M120.855 15.0924C122.236 15.0924 123.41 14.8819 124.377 14.4608C125.343 14.0397 126.069 13.4762 126.552 12.7718C127.035 12.0674 127.277 11.2794 127.277 10.4079C127.277 9.39849 127.011 8.60122 126.48 8.01295C125.949 7.42622 125.32 6.9974 124.594 6.72803C123.87 6.45866 122.955 6.20632 121.849 5.97101C120.869 5.76356 120.157 5.56386 119.716 5.37035C119.273 5.17683 119.053 4.88734 119.053 4.50032C119.053 4.11329 119.239 3.79903 119.612 3.55753C119.985 3.31602 120.578 3.19527 121.394 3.19527C122.691 3.19527 124.032 3.56836 125.413 4.31455L126.676 1.26634C125.972 0.851453 125.158 0.537189 124.232 0.323552C123.306 0.106819 122.368 0 121.414 0C120.019 0 118.843 0.207445 117.883 0.622335C116.923 1.03722 116.202 1.60073 115.719 2.31131C115.236 3.02343 114.994 3.82225 114.994 4.70621C114.994 5.71557 115.256 6.51749 115.781 7.11041C116.306 7.70488 116.934 8.1368 117.666 8.40616C118.399 8.67553 119.309 8.92787 120.4 9.16318C121.394 9.38456 122.116 9.5951 122.564 9.79481C123.013 9.99606 123.238 10.3026 123.238 10.7175C123.238 11.5055 122.451 11.8987 120.877 11.8987C120.049 11.8987 119.207 11.7671 118.351 11.5055C117.494 11.2438 116.742 10.8971 116.093 10.4682L114.747 13.4948C115.437 13.9793 116.335 14.3648 117.439 14.6558C118.543 14.9484 119.682 15.0924 120.855 15.0924Z" fill="#1A2330"/>
<path d="M132.352 14.803H136.452V3.5452H140.885V0.289551H127.898V3.5452H132.352V14.803Z" fill="#1A2330"/>
<path d="M25.7869 18.1763L25.9804 17.7846C25.6723 17.6345 25.3132 17.5586 24.9014 17.5586C24.5143 17.5586 24.1784 17.6406 23.8936 17.8063C23.6087 17.9704 23.3904 18.2057 23.2387 18.5107C23.087 18.8156 23.0127 19.1702 23.0127 19.5742C23.0127 20.2213 23.1691 20.7198 23.4833 21.0697C23.7976 21.4211 24.2434 21.596 24.8209 21.596C25.2203 21.596 25.5547 21.5449 25.8271 21.4428V21.0418C25.4757 21.1409 25.1646 21.1889 24.8905 21.1889C24.4447 21.1889 24.1026 21.0496 23.8611 20.7678C23.6211 20.4876 23.5003 20.0897 23.5003 19.5758C23.5003 19.0757 23.6257 18.6825 23.875 18.3946C24.1242 18.1066 24.4648 17.9642 24.8967 17.9642C25.1924 17.9673 25.4896 18.037 25.7869 18.1763Z" fill="#1A2330"/>
<path d="M28.2716 19.9085L29.2222 21.5418H29.7609L28.6958 19.7769C29.2222 19.5943 29.4853 19.2429 29.4853 18.7242C29.4853 18.3542 29.3708 18.0756 29.1401 17.8914C28.9095 17.7071 28.5549 17.6143 28.0735 17.6143H26.9976V21.5418H27.4542V19.9085H28.2716ZM27.4527 18.0152H28.0456C28.3831 18.0152 28.6293 18.0725 28.7825 18.1871C28.9358 18.3016 29.0116 18.4889 29.0116 18.749C29.0116 19.0044 28.9358 19.1964 28.7856 19.3249C28.6354 19.4534 28.3986 19.5169 28.0766 19.5169H27.4511V18.0152H27.4527Z" fill="#1A2330"/>
<path d="M30.6679 17.6158H30.1694L31.476 20.0417V21.5434H31.9374V20.02L33.2471 17.6158H32.7532L31.7067 19.5788L30.6679 17.6158Z" fill="#1A2330"/>
<path d="M35.1157 17.6158H34.0986V21.5434H34.5553V19.9984H35.0167C35.5213 19.9984 35.9084 19.8915 36.1793 19.6779C36.4502 19.4643 36.5864 19.1577 36.5864 18.7599C36.5864 17.9967 36.0972 17.6158 35.1157 17.6158ZM34.5553 18.0106H35.0646C35.4238 18.0106 35.6885 18.0741 35.8588 18.201C36.0291 18.328 36.1143 18.5215 36.1143 18.7816C36.1143 19.0695 36.0245 19.28 35.8433 19.4101C35.6622 19.5401 35.3696 19.6067 34.9656 19.6067H34.5553V18.0106V18.0106Z" fill="#1A2330"/>
<path d="M38.9287 18.0214H40.1719V17.6158H37.2305V18.0214H38.4736V21.5434H38.9303V18.0214H38.9287Z" fill="#1A2330"/>
<path d="M44.0065 18.091C43.6891 17.7334 43.2495 17.5538 42.686 17.5538C42.107 17.5538 41.6596 17.7303 41.3438 18.0817C41.0295 18.4332 40.8716 18.9285 40.8716 19.5679C40.8716 20.2119 41.0279 20.7119 41.3422 21.0649C41.6565 21.4179 42.1023 21.5959 42.6798 21.5959C43.2448 21.5959 43.686 21.4163 44.0034 21.0556C44.3207 20.6949 44.4802 20.2011 44.4802 19.5726C44.4802 18.9425 44.3223 18.4486 44.0065 18.091ZM41.6936 18.3743C41.9196 18.0988 42.2509 17.9625 42.686 17.9625C43.1194 17.9625 43.4461 18.0988 43.6674 18.3728C43.8888 18.6452 43.9987 19.0462 43.9987 19.5741C43.9987 20.1082 43.8873 20.5122 43.6659 20.7863C43.4445 21.0603 43.1163 21.1965 42.6813 21.1965C42.2494 21.1965 41.9212 21.0587 41.6952 20.7847C41.4691 20.5091 41.3561 20.1066 41.3561 19.5741C41.3546 19.0493 41.4676 18.6483 41.6936 18.3743Z" fill="#1A2330"/>
<path d="M48.2405 18.1762L48.434 17.7845C48.1259 17.6343 47.7668 17.5585 47.355 17.5585C46.968 17.5585 46.632 17.6405 46.3472 17.8062C46.0623 17.9703 45.844 18.2056 45.6923 18.5106C45.5406 18.8155 45.4663 19.17 45.4663 19.5741C45.4663 20.2212 45.6227 20.7197 45.9369 21.0696C46.2512 21.421 46.697 21.5959 47.2745 21.5959C47.6739 21.5959 48.0083 21.5448 48.2807 21.4426V21.0417C47.9293 21.1408 47.6182 21.1888 47.3442 21.1888C46.8983 21.1888 46.5562 21.0494 46.3147 20.7677C46.0747 20.4875 45.954 20.0896 45.954 19.5756C45.954 19.0756 46.0794 18.6824 46.3286 18.3944C46.5778 18.1065 46.9184 17.9641 47.3503 17.9641C47.646 17.9672 47.9433 18.0368 48.2405 18.1762Z" fill="#1A2330"/>
<path d="M51.9563 17.6158V20.1717C51.9563 20.5015 51.8665 20.7538 51.6885 20.9303C51.5089 21.1068 51.255 21.195 50.9237 21.195C50.5769 21.195 50.3138 21.1068 50.1342 20.9318C49.9546 20.7569 49.8664 20.5046 49.8664 20.1764V17.6143H49.4097V20.1438C49.4097 20.5943 49.5382 20.9504 49.7967 21.2074C50.0552 21.4659 50.4206 21.5944 50.8927 21.5944C51.3649 21.5944 51.7365 21.4659 52.0058 21.2105C52.2752 20.955 52.4114 20.6021 52.4114 20.1547V17.6143H51.9563V17.6158Z" fill="#1A2330"/>
<path d="M55.0382 19.9085L55.9888 21.5418H56.5275L55.4624 19.7769C55.9888 19.5943 56.252 19.2429 56.252 18.7242C56.252 18.3542 56.1374 18.0756 55.9067 17.8914C55.6761 17.7071 55.3215 17.6143 54.8401 17.6143H53.7642V21.5418H54.2208V19.9085H55.0382ZM54.2208 18.0152H54.8138C55.1513 18.0152 55.3974 18.0725 55.5507 18.1871C55.7039 18.3016 55.7798 18.4889 55.7798 18.749C55.7798 19.0044 55.7039 19.1964 55.5538 19.3249C55.4036 19.4534 55.1667 19.5169 54.8447 19.5169H54.2193V18.0152H54.2208Z" fill="#1A2330"/>
<path d="M58.7492 19.9085L59.6997 21.5418H60.2384L59.1734 19.7769C59.6997 19.5943 59.9629 19.2429 59.9629 18.7242C59.9629 18.3542 59.8483 18.0756 59.6177 17.8914C59.387 17.7071 59.0325 17.6143 58.551 17.6143H57.4751V21.5418H57.9318V19.9085H58.7492ZM57.9318 18.0152H58.5247C58.8622 18.0152 59.1083 18.0725 59.2616 18.1871C59.4149 18.3016 59.4907 18.4889 59.4907 18.749C59.4907 19.0044 59.4149 19.1964 59.2647 19.3249C59.1145 19.4534 58.8777 19.5169 58.5557 19.5169H57.9302V18.0152H57.9318Z" fill="#1A2330"/>
<path d="M63.3733 21.1346H61.6425V19.6902H63.2695V19.2877H61.6425V18.0229H63.3733V17.6173H61.1858V21.5448H63.3733V21.1346Z" fill="#1A2330"/>
<path d="M67.6211 17.6158H67.1939V19.8699C67.1908 19.9829 67.1954 20.1702 67.2078 20.4318C67.2202 20.6935 67.2279 20.8498 67.2326 20.8978H67.2109L65.0714 17.6158H64.5559V21.5434H64.977V19.311C64.977 18.989 64.9631 18.6345 64.9336 18.2475H64.9553L67.0994 21.5434H67.6196V17.6158H67.6211Z" fill="#1A2330"/>
<path d="M71.5843 18.1762L71.7778 17.7845C71.4697 17.6343 71.1105 17.5585 70.6987 17.5585C70.3117 17.5585 69.9758 17.6405 69.6909 17.8062C69.4061 17.9703 69.1878 18.2056 69.0361 18.5106C68.8844 18.8155 68.8101 19.17 68.8101 19.5741C68.8101 20.2212 68.9664 20.7197 69.2807 21.0696C69.5949 21.421 70.0408 21.5959 70.6182 21.5959C71.0176 21.5959 71.352 21.5448 71.6245 21.4426V21.0417C71.2731 21.1408 70.9619 21.1888 70.6879 21.1888C70.2421 21.1888 69.8999 21.0494 69.6584 20.7677C69.4185 20.4875 69.2977 20.0896 69.2977 19.5756C69.2977 19.0756 69.4231 18.6824 69.6724 18.3944C69.9216 18.1065 70.2622 17.9641 70.6941 17.9641C70.9898 17.9672 71.287 18.0368 71.5843 18.1762Z" fill="#1A2330"/>
<path d="M72.7531 17.6158H72.2546L73.5612 20.0417V21.5434H74.0226V20.02L75.3323 17.6158H74.8384L73.7919 19.5788L72.7531 17.6158Z" fill="#1A2330"/>
<path d="M80.9905 17.6158H80.5632V19.8699C80.5602 19.9829 80.5648 20.1702 80.5772 20.4318C80.5896 20.6935 80.5973 20.8498 80.602 20.8978H80.5803L78.4408 17.6158H77.9253V21.5434H78.3464V19.311C78.3464 18.989 78.3324 18.6345 78.303 18.2475H78.3247L80.4688 21.5434H80.989V17.6158H80.9905Z" fill="#1A2330"/>
<path d="M84.5698 21.1346H82.839V19.6902H84.4645V19.2877H82.839V18.0229H84.5698V17.6173H82.3823V21.5448H84.5698V21.1346Z" fill="#1A2330"/>
<path d="M90.2264 17.6158H89.7434L89.1257 20.0355C89.0313 20.4008 88.9663 20.7104 88.9322 20.9643C88.8734 20.6145 88.8006 20.3018 88.7155 20.0246L87.9771 17.6158H87.494L86.7912 20.003C86.6968 20.3157 86.6256 20.6361 86.576 20.9643C86.5373 20.6888 86.4738 20.3807 86.3887 20.0401L85.7695 17.6143H85.2849L86.3283 21.5418H86.7788L87.5467 18.9286C87.6318 18.6468 87.6953 18.3883 87.734 18.153C87.7356 18.1886 87.7603 18.2954 87.8068 18.4719C87.8532 18.6499 87.895 18.7955 87.9322 18.9131L88.7232 21.5433H89.1737L90.2264 17.6158Z" fill="#1A2330"/>
<path d="M93.1354 19.842C92.9806 19.6732 92.6973 19.5153 92.2855 19.3698C92.0409 19.2815 91.8583 19.2026 91.7391 19.1298C91.6198 19.0571 91.5363 18.9781 91.4852 18.8914C91.4356 18.8047 91.4093 18.6933 91.4093 18.557C91.4093 18.3728 91.4774 18.2288 91.6137 18.1251C91.7499 18.0214 91.9388 17.9688 92.1803 17.9688C92.4868 17.9688 92.801 18.0369 93.1246 18.1731L93.267 17.7752C92.9404 17.6313 92.5812 17.5601 92.1911 17.5601C91.8165 17.5601 91.5161 17.6498 91.2901 17.8294C91.0625 18.009 90.9495 18.249 90.9495 18.5524C90.9495 18.8403 91.0285 19.0741 91.1848 19.2537C91.3412 19.4333 91.6028 19.5881 91.9666 19.7181C92.2283 19.811 92.4218 19.8946 92.5503 19.9673C92.6787 20.0401 92.7701 20.1206 92.8243 20.2073C92.8785 20.294 92.9063 20.4055 92.9063 20.5417C92.9063 20.7476 92.8289 20.9086 92.6756 21.0232C92.5224 21.1393 92.2933 21.1965 91.9883 21.1965C91.8025 21.1965 91.6137 21.1764 91.4248 21.1377C91.2344 21.099 91.0594 21.0448 90.8984 20.9767V21.4179C91.1492 21.5387 91.5068 21.5975 91.9713 21.5975C92.4001 21.5975 92.7407 21.5015 92.9915 21.308C93.2423 21.1145 93.3677 20.8451 93.3677 20.4999C93.3677 20.229 93.2902 20.0107 93.1354 19.842Z" fill="#1A2330"/>
<path d="M96.9453 18.0508C97.0443 17.9641 97.1744 17.9223 97.3323 17.9223C97.4855 17.9223 97.6094 17.9656 97.7007 18.0523C97.7936 18.139 97.8385 18.252 97.8385 18.3898C97.8385 18.5384 97.7936 18.67 97.7023 18.783C97.6125 18.896 97.4515 19.0214 97.2208 19.1546C97.0645 18.9967 96.9545 18.862 96.8911 18.7505C96.8261 18.639 96.7951 18.5214 96.7951 18.3975C96.7966 18.252 96.8462 18.1359 96.9453 18.0508ZM96.6589 21.0123C96.5195 20.89 96.4514 20.7228 96.4514 20.5138C96.4514 20.3977 96.4715 20.294 96.5102 20.2026C96.5489 20.1113 96.6109 20.0261 96.6929 19.9456C96.775 19.8667 96.9158 19.7645 97.114 19.6438L98.2874 20.7832C98.0026 21.0587 97.645 21.1965 97.2146 21.1965C96.9809 21.195 96.7966 21.1346 96.6589 21.0123ZM96.3059 21.3111C96.518 21.5015 96.8168 21.5959 97.2007 21.5959C97.4685 21.5959 97.7131 21.5541 97.9314 21.4721C98.1497 21.39 98.3649 21.2538 98.5754 21.0634L99.0723 21.5417H99.6869L98.885 20.7599C99.1296 20.4952 99.3138 20.1066 99.4346 19.5942H98.9841C98.9423 19.7723 98.8928 19.9348 98.8324 20.085C98.772 20.2351 98.6931 20.3652 98.5924 20.4751L97.4995 19.4255C97.7797 19.2583 97.9809 19.0942 98.1032 18.9332C98.2255 18.7706 98.2859 18.5942 98.2859 18.4022C98.2859 18.1359 98.2023 17.9269 98.0367 17.7783C97.871 17.6281 97.6419 17.5538 97.3524 17.5538C97.0397 17.5538 96.7951 17.6297 96.6202 17.7799C96.4452 17.93 96.357 18.1406 96.357 18.4084C96.357 18.5106 96.3725 18.6096 96.405 18.7041C96.4375 18.7985 96.4808 18.8898 96.535 18.9781C96.5892 19.0663 96.6929 19.1948 96.8446 19.3651C96.5226 19.5478 96.2997 19.7289 96.1743 19.9069C96.0504 20.0865 95.9885 20.2924 95.9885 20.5246C95.9885 20.859 96.0938 21.1206 96.3059 21.3111Z" fill="#1A2330"/>
<path d="M103.498 18.0214H104.741V17.6158H101.8V18.0214H103.043V21.5434H103.5V18.0214H103.498Z" fill="#1A2330"/>
<path d="M107.831 21.1347H106.1V19.6903H107.728V19.2878H106.1V18.023H107.831V17.6174H105.644V21.545H107.831V21.1347Z" fill="#1A2330"/>
<path d="M111.585 18.1762L111.779 17.7845C111.471 17.6343 111.112 17.5585 110.7 17.5585C110.313 17.5585 109.977 17.6405 109.692 17.8062C109.407 17.9703 109.189 18.2056 109.037 18.5106C108.886 18.8155 108.811 19.17 108.811 19.5741C108.811 20.2212 108.968 20.7197 109.282 21.0696C109.596 21.421 110.042 21.5959 110.619 21.5959C111.019 21.5959 111.353 21.5448 111.626 21.4426V21.0417C111.274 21.1408 110.963 21.1888 110.689 21.1888C110.243 21.1888 109.901 21.0494 109.66 20.7677C109.42 20.4875 109.299 20.0896 109.299 19.5756C109.299 19.0756 109.424 18.6824 109.674 18.3944C109.923 18.1065 110.263 17.9641 110.695 17.9641C110.991 17.9672 111.288 18.0368 111.585 18.1762Z" fill="#1A2330"/>
<path d="M115.775 17.6158H115.318V19.2862H113.251V17.6158H112.794V21.5434H113.251V19.6949H115.318V21.5434H115.775V17.6158Z" fill="#1A2330"/>
<path d="M120.229 17.6158H119.801V19.8699C119.798 19.9829 119.803 20.1702 119.815 20.4318C119.828 20.6935 119.835 20.8498 119.84 20.8978H119.818L117.679 17.6158H117.163V21.5434H117.584V19.311C117.584 18.989 117.57 18.6345 117.541 18.2475H117.563L119.707 21.5434H120.227V17.6158H120.229Z" fill="#1A2330"/>
<path d="M124.551 18.091C124.234 17.7334 123.794 17.5538 123.23 17.5538C122.651 17.5538 122.204 17.7303 121.888 18.0817C121.574 18.4332 121.416 18.9285 121.416 19.5679C121.416 20.2119 121.572 20.7119 121.887 21.0649C122.201 21.4179 122.647 21.5959 123.224 21.5959C123.789 21.5959 124.23 21.4163 124.548 21.0556C124.865 20.6949 125.025 20.2011 125.025 19.5726C125.026 18.9425 124.868 18.4486 124.551 18.091ZM122.24 18.3743C122.466 18.0988 122.797 17.9625 123.232 17.9625C123.665 17.9625 123.992 18.0988 124.213 18.3728C124.435 18.6452 124.545 19.0462 124.545 19.5741C124.545 20.1082 124.433 20.5122 124.212 20.7863C123.991 21.0603 123.662 21.1965 123.227 21.1965C122.795 21.1965 122.467 21.0587 122.241 20.7847C122.015 20.5091 121.902 20.1066 121.902 19.5741C121.899 19.0493 122.014 18.6483 122.24 18.3743Z" fill="#1A2330"/>
<path d="M128.401 21.5418V21.1285H126.67V17.6158H126.213V21.5434H128.401V21.5418Z" fill="#1A2330"/>
<path d="M132.311 18.091C131.994 17.7334 131.554 17.5538 130.991 17.5538C130.412 17.5538 129.964 17.7303 129.649 18.0817C129.334 18.4332 129.177 18.9285 129.177 19.5679C129.177 20.2119 129.333 20.7119 129.647 21.0649C129.961 21.4179 130.407 21.5959 130.985 21.5959C131.55 21.5959 131.991 21.4163 132.308 21.0556C132.626 20.6949 132.785 20.2011 132.785 19.5726C132.785 18.9425 132.627 18.4486 132.311 18.091ZM129.999 18.3743C130.225 18.0988 130.556 17.9625 130.991 17.9625C131.424 17.9625 131.751 18.0988 131.972 18.3728C132.194 18.6452 132.304 19.0462 132.304 19.5741C132.304 20.1082 132.192 20.5122 131.971 20.7863C131.749 21.0603 131.421 21.1965 130.986 21.1965C130.554 21.1965 130.226 21.0587 130 20.7847C129.774 20.5091 129.661 20.1066 129.661 19.5741C129.66 19.0493 129.773 18.6483 129.999 18.3743Z" fill="#1A2330"/>
<path d="M135.7 19.8931H136.578V21.1021C136.318 21.1641 136.053 21.1966 135.781 21.1966C135.279 21.1966 134.9 21.0603 134.641 20.7863C134.383 20.5123 134.254 20.1098 134.254 19.5804C134.254 19.0757 134.389 18.6809 134.657 18.3961C134.925 18.1112 135.298 17.9688 135.776 17.9688C136.103 17.9688 136.445 18.0447 136.798 18.1948L136.974 17.7923C136.613 17.6391 136.223 17.5616 135.804 17.5616C135.39 17.5616 135.03 17.6421 134.722 17.8047C134.414 17.9672 134.178 18.201 134.014 18.5091C133.85 18.8156 133.768 19.1732 133.768 19.5819C133.768 20.2197 133.934 20.7151 134.265 21.0681C134.596 21.4211 135.059 21.5991 135.652 21.5991C135.935 21.5991 136.183 21.5821 136.398 21.548C136.613 21.5139 136.824 21.4644 137.031 21.3978V19.4875H135.697V19.8931H135.7Z" fill="#1A2330"/>
<path d="M138.248 17.6158H137.75L139.057 20.0417V21.5434H139.518V20.02L140.828 17.6158H140.334L139.287 19.5788L138.248 17.6158Z" fill="#1A2330"/>
<path d="M142.615 3.52348C142.763 3.52348 142.885 3.47549 142.982 3.37951C143.08 3.28353 143.128 3.16277 143.128 3.0157C143.128 2.86554 143.08 2.74479 142.984 2.6519C142.888 2.55902 142.766 2.51257 142.615 2.51257C142.468 2.51257 142.346 2.55902 142.249 2.6519C142.151 2.74479 142.103 2.86709 142.103 3.0157C142.103 3.16277 142.153 3.28353 142.252 3.37951C142.351 3.47704 142.471 3.52348 142.615 3.52348Z" fill="#0099FD"/>
<path d="M145.633 3.54669C145.921 3.54669 146.179 3.4956 146.41 3.39343C146.641 3.29125 146.833 3.14419 146.986 2.95222L146.419 2.4398C146.215 2.68595 145.969 2.80825 145.678 2.80825C145.507 2.80825 145.354 2.77109 145.221 2.69524C145.088 2.62093 144.984 2.51411 144.911 2.37788C144.839 2.24165 144.802 2.08529 144.802 1.90726C144.802 1.73077 144.839 1.57287 144.911 1.43664C144.984 1.3004 145.088 1.19513 145.221 1.11928C145.354 1.04497 145.506 1.00626 145.678 1.00626C145.969 1.00626 146.215 1.12856 146.419 1.37471L146.986 0.862291C146.833 0.670327 146.641 0.523258 146.41 0.421084C146.179 0.318909 145.919 0.267822 145.633 0.267822C145.303 0.267822 145.007 0.337487 144.744 0.476815C144.483 0.616144 144.275 0.811204 144.127 1.0589C143.976 1.30814 143.902 1.5899 143.902 1.90416C143.902 2.21842 143.976 2.50173 144.127 2.74942C144.277 2.99866 144.483 3.19218 144.744 3.33151C145.007 3.47703 145.303 3.54669 145.633 3.54669Z" fill="#0099FD"/>
<path d="M149.012 3.54669C149.345 3.54669 149.644 3.47548 149.909 3.3346C150.173 3.19372 150.382 2.99866 150.534 2.74942C150.686 2.50018 150.762 2.21997 150.762 1.90726C150.762 1.59454 150.686 1.31434 150.534 1.06509C150.382 0.815848 150.175 0.620788 149.909 0.479912C149.644 0.339035 149.345 0.267822 149.012 0.267822C148.679 0.267822 148.381 0.339035 148.116 0.479912C147.851 0.620788 147.642 0.815848 147.491 1.06509C147.339 1.31434 147.263 1.59454 147.263 1.90726C147.263 2.21997 147.339 2.50018 147.491 2.74942C147.642 2.99866 147.85 3.19372 148.116 3.3346C148.381 3.47703 148.681 3.54669 149.012 3.54669ZM149.012 2.80825C148.853 2.80825 148.709 2.77109 148.58 2.69524C148.452 2.62093 148.35 2.51411 148.275 2.37788C148.201 2.24165 148.162 2.08529 148.162 1.90726C148.162 1.73077 148.2 1.57287 148.275 1.43664C148.35 1.3004 148.452 1.19513 148.58 1.11928C148.709 1.04497 148.853 1.00626 149.012 1.00626C149.172 1.00626 149.316 1.04342 149.444 1.11928C149.573 1.19358 149.675 1.3004 149.749 1.43664C149.823 1.57287 149.862 1.72923 149.862 1.90726C149.862 2.08374 149.825 2.24165 149.749 2.37788C149.675 2.51411 149.573 2.61938 149.444 2.69524C149.316 2.77109 149.172 2.80825 149.012 2.80825Z" fill="#0099FD"/>
<path d="M155 3.48326L154.991 0.332886H154.259L153.18 2.1519L152.074 0.334434H151.342V3.48326H152.164V1.85931L152.969 3.17364H153.365L154.175 1.81441L154.184 3.48326H155Z" fill="#0099FD"/>
</svg>
