<svg xmlns="http://www.w3.org/2000/svg" viewBox="0 0 670.24 98.98" xmlns:v="https://vecta.io/nano"><path d="M154.1 12.16a45.36 45.36 0 0 1 9.55.93 20.31 20.31 0 0 1 7.39 3 14.06 14.06 0 0 1 4.78 5.59 19.69 19.69 0 0 1 1.7 8.63 16 16 0 0 1-2.52 9.27 18.21 18.21 0 0 1-7.45 6.06 17.65 17.65 0 0 1 10.12 6.83A20.35 20.35 0 0 1 181 64.23a20.13 20.13 0 0 1-2.16 9.6 18.78 18.78 0 0 1-5.8 6.63 25.94 25.94 0 0 1-8.32 3.8 37.61 37.61 0 0 1-9.6 1.23H119.6V12.16zm-2 29.68a11.58 11.58 0 0 0 7.08-2.05q2.77-2.05 2.78-6.68a8.49 8.49 0 0 0-.96-4.21 7 7 0 0 0-2.46-2.57 10.55 10.55 0 0 0-3.54-1.28 23.42 23.42 0 0 0-4.16-.36h-15.12v17.15zM153 73a21.38 21.38 0 0 0 4.52-.47 11.11 11.11 0 0 0 3.8-1.53 7.83 7.83 0 0 0 2.59-3 10.1 10.1 0 0 0 1-4.73q0-5.64-3.18-8.06a13.57 13.57 0 0 0-8.42-2.41h-17.59V73zm35.4-48.82v-12H203v12zm14.6 8.21v53.1h-14.6v-53.1zm38.29 0v9.76h-10.68v26.29c0 2.46.41 4.11 1.23 4.93s2.47 1.23 4.93 1.23l2.36-.1a20 20 0 0 0 2.16-.31v11.3a36.13 36.13 0 0 1-4.11.41l-4.41.1a42.25 42.25 0 0 1-6.42-.46 15.17 15.17 0 0 1-5.34-1.8 9.55 9.55 0 0 1-3.65-3.8 13.56 13.56 0 0 1-1.36-6.47V42.15h-8.84v-9.76H216V16.47h14.58v15.92zm29.99 9.55a10.2 10.2 0 0 0-5.86 1.6 12.7 12.7 0 0 0-3.85 4.1 17.83 17.83 0 0 0-2.1 5.55 29.42 29.42 0 0 0-.62 6 28.19 28.19 0 0 0 .62 5.85 17.89 17.89 0 0 0 2 5.39 11.46 11.46 0 0 0 3.75 4 10.34 10.34 0 0 0 5.78 1.51q5.23 0 8.06-2.93a13.86 13.86 0 0 0 3.54-7.86h14.07q-1.44 10.57-8.21 16.13-6.77 5.56-17.36 5.54a29.17 29.17 0 0 1-10.94-2 24.29 24.29 0 0 1-8.47-5.6 25.36 25.36 0 0 1-5.44-8.57 29.77 29.77 0 0 1-1.95-10.94 35.33 35.33 0 0 1 1.79-11.45 25.75 25.75 0 0 1 5.29-9.14 24.2 24.2 0 0 1 8.53-6A28.87 28.87 0 0 1 271.38 31a33.36 33.36 0 0 1 9.09 1.23 24.11 24.11 0 0 1 7.8 3.75 19.33 19.33 0 0 1 8.06 15.14h-14.27q-1.44-9.17-10.78-9.18zm31.52 5.5A24.33 24.33 0 0 1 317 33a30.25 30.25 0 0 1 11.3-2 30.66 30.66 0 0 1 11.35 2 24.23 24.23 0 0 1 14.22 14.48 32.62 32.62 0 0 1 2 11.55 32.15 32.15 0 0 1-2 11.5 24.83 24.83 0 0 1-5.55 8.78 24 24 0 0 1-8.67 5.6 31.51 31.51 0 0 1-11.35 1.95 31.08 31.08 0 0 1-11.3-1.99 24.09 24.09 0 0 1-8.62-5.6 24.83 24.83 0 0 1-5.55-8.78A32.15 32.15 0 0 1 300.85 59a32.62 32.62 0 0 1 1.95-11.56zm13.25 17.76a16.63 16.63 0 0 0 2.1 5.45 11.32 11.32 0 0 0 4 3.85 12 12 0 0 0 6.16 1.44 12.35 12.35 0 0 0 6.21-1.44 11.06 11.06 0 0 0 4-3.85 16.63 16.63 0 0 0 2.1-5.45 31.07 31.07 0 0 0 .62-6.21 31.87 31.87 0 0 0-.62-6.26 16 16 0 0 0-2.1-5.45 11.75 11.75 0 0 0-4-3.85 12 12 0 0 0-6.21-1.49 11.73 11.73 0 0 0-6.16 1.49 12.05 12.05 0 0 0-4 3.85 16 16 0 0 0-2.1 5.45 31.87 31.87 0 0 0-.62 6.26 31.07 31.07 0 0 0 .62 6.21zm47.24-41.02v-12h14.58v12zm14.58 8.21v53.1h-14.58v-53.1zm23 0v7.4h.31a16.76 16.76 0 0 1 7.19-6.73 20.83 20.83 0 0 1 9-2.1 24.79 24.79 0 0 1 9.6 1.59 14.26 14.26 0 0 1 5.95 4.45 17.38 17.38 0 0 1 3 6.88 43 43 0 0 1 .87 9v32.61h-14.55v-30q0-6.57-2.06-9.81-2.06-3.24-7.29-3.23-6 0-8.63 3.54-2.63 3.54-2.67 11.66v27.84H387v-53.1zm61.42 37.28v15.82h-16.13V69.67zm34.81-27.73a10.15 10.15 0 0 0-5.85 1.6 12.6 12.6 0 0 0-3.85 4.1 17.6 17.6 0 0 0-2.11 5.55 30.14 30.14 0 0 0-.62 6 28.88 28.88 0 0 0 .62 5.85 18.16 18.16 0 0 0 2 5.39 11.55 11.55 0 0 0 3.75 4 10.34 10.34 0 0 0 5.75 1.54q5.23 0 8.06-2.93a13.8 13.8 0 0 0 3.55-7.86h14.07q-1.47 10.54-8.22 16.1-6.75 5.56-17.36 5.54a29.12 29.12 0 0 1-10.93-2 24.33 24.33 0 0 1-8.48-5.6 25.51 25.51 0 0 1-5.48-8.57 29.77 29.77 0 0 1-2-10.94 35.33 35.33 0 0 1 1.8-11.45 25.6 25.6 0 0 1 5.29-9.14 24.08 24.08 0 0 1 8.52-6A28.91 28.91 0 0 1 497.2 31a33.36 33.36 0 0 1 9.09 1.23 24.26 24.26 0 0 1 7.81 3.75 19.41 19.41 0 0 1 8.06 15.14h-14.28q-1.44-9.17-10.78-9.18zm31.53 5.5A24.26 24.26 0 0 1 542.8 33a30.2 30.2 0 0 1 11.29-2 30.63 30.63 0 0 1 11.35 2 24.21 24.21 0 0 1 14.23 14.48 32.62 32.62 0 0 1 2 11.55 32.15 32.15 0 0 1-2 11.5 24.83 24.83 0 0 1-5.55 8.78 24.07 24.07 0 0 1-8.68 5.6 31.47 31.47 0 0 1-11.35 1.95 31 31 0 0 1-11.29-1.95 24.13 24.13 0 0 1-8.63-5.6 24.81 24.81 0 0 1-5.54-8.78 31.93 31.93 0 0 1-2-11.5 32.4 32.4 0 0 1 2-11.59zm13.24 17.76a16.65 16.65 0 0 0 2.13 5.45 11.21 11.21 0 0 0 3.95 3.85 12.08 12.08 0 0 0 6.16 1.44 12.36 12.36 0 0 0 6.22-1.44 11.11 11.11 0 0 0 4-3.85 16.65 16.65 0 0 0 2.11-5.45A31.07 31.07 0 0 0 567 59a31.86 31.86 0 0 0-.61-6.26 16.06 16.06 0 0 0-2.11-5.45 11.81 11.81 0 0 0-4-3.85 12.06 12.06 0 0 0-6.22-1.49 11.78 11.78 0 0 0-6.16 1.49 11.93 11.93 0 0 0-3.9 3.84 16.06 16.06 0 0 0-2.11 5.45 31.86 31.86 0 0 0-.61 6.26 31.07 31.07 0 0 0 .59 6.21zm61-32.81v7.19h.21a20.73 20.73 0 0 1 6.92-6.36 18.75 18.75 0 0 1 9.3-2.26 21.41 21.41 0 0 1 9.19 1.95 12.87 12.87 0 0 1 6.31 6.88 22.87 22.87 0 0 1 6.42-6.17 17.14 17.14 0 0 1 9.6-2.66 28.54 28.54 0 0 1 7.81 1 15.76 15.76 0 0 1 6.16 3.29 15.11 15.11 0 0 1 4 5.9 24.14 24.14 0 0 1 1.45 8.85v35.49h-14.58V55.4l-.2-5a10.63 10.63 0 0 0-1.14-4.1 6.8 6.8 0 0 0-2.72-2.78 9.85 9.85 0 0 0-4.87-1 9.33 9.33 0 0 0-5 1.18 8.59 8.59 0 0 0-3 3.08 12.32 12.32 0 0 0-1.4 4.22 33.09 33.09 0 0 0-.36 4.88v29.61h-14.58V55.71l-.11-4.68a13 13 0 0 0-.87-4.26 6.54 6.54 0 0 0-2.57-3.13 9.65 9.65 0 0 0-5.28-1.18 10.84 10.84 0 0 0-2.73.46 9 9 0 0 0-3.28 1.75 10 10 0 0 0-2.72 3.69 14.93 14.93 0 0 0-1.13 6.32v30.81h-14.59v-53.1z" fill="#131720"/><g fill="#0ac18e"><path d="M65.99 0h32.99v32.99H65.99z"/><path d="M32.99 32.99h32.99v32.99H32.99z"/></g><g fill="#359177"><path d="M65.99 32.99h32.99v32.99H65.99z"/><path d="M32.99 0h32.99v32.99H32.99z"/><path d="M0 32.99h32.99v32.99H0z"/><path d="M32.99 65.99h32.99v32.99H32.99z"/></g><path d="M0 0h32.99v32.99H0zm65.99 65.99h32.99v32.99H65.99z" fill="#4b786c"/><path d="M0 65.99h32.99v32.99H0z" fill="#0ac18e"/><path d="M0 96.63h2.36v2.36H0zM96.63 0h2.36v2.36h-2.36z" fill="#359177"/></svg>