<svg xmlns="http://www.w3.org/2000/svg" viewBox="0 0 386 100.02" fill="#282828" xmlns:v="https://vecta.io/nano"><path d="M0 6.07a4.78 4.78 0 0 0 .62-.26L10 .49c.19-.12.4-.21.72-.38v29.4l3.68-2.66a20.12 20.12 0 0 1 10.33-2.76 25.07 25.07 0 0 1 13.53 3.36 21 21 0 0 1 9.54 12.24 29.74 29.74 0 0 1-.61 20.23c-2.9 7.3-8.39 11.66-16 13.34a24.58 24.58 0 0 1-11.22 0 19.84 19.84 0 0 1-8.57-4.46l-.63-.55v5H0zm24.67 57.55l1.52-.09a9.08 9.08 0 0 0 .93-.12 13 13 0 0 0 9.59-6.62A15.67 15.67 0 0 0 38.42 46a13.32 13.32 0 0 0-8-10.49 14.56 14.56 0 0 0-8-1A12.94 12.94 0 0 0 13.19 40a15.55 15.55 0 0 0-2.63 10.39 14.48 14.48 0 0 0 3.09 8.24c2.8 3.47 6.54 4.94 11.02 4.99zm90.48-38.95h10.61v5a4.69 4.69 0 0 0 .46-.32c4.67-4.22 10.22-5.67 16.38-5.16a24.15 24.15 0 0 1 11 3.47 21.58 21.58 0 0 1 9.64 13.5A30.07 30.07 0 0 1 162.6 59c-2.78 7.75-8.33 12.46-16.32 14.25a24.2 24.2 0 0 1-13.15-.46 17.27 17.27 0 0 1-7-4.25 2.14 2.14 0 0 0-.29-.23v.81q0 12 0 24a1.11 1.11 0 0 1-.66 1.11l-9.34 5.45-.66.37zm10.42 24.85c.08.64.14 1.81.38 2.95a13.37 13.37 0 0 0 6.3 9.21 14.49 14.49 0 0 0 10 1.71 12.85 12.85 0 0 0 9.56-6.64 15.82 15.82 0 0 0 1.62-11 13.25 13.25 0 0 0-7.9-10.19 14.72 14.72 0 0 0-8-1A12.94 12.94 0 0 0 129 39c-2.42 2.9-3.36 6.3-3.43 10.52zm203.7 23.77h-10.63v-5a3.31 3.31 0 0 0-.34.21 20.62 20.62 0 0 1-16.08 5.29 25.38 25.38 0 0 1-9.11-2.25 21 21 0 0 1-11.45-13 29.62 29.62 0 0 1 .39-20.17c2.92-7.62 8.6-12.11 16.54-13.73a23.94 23.94 0 0 1 13.61.87 16.84 16.84 0 0 1 6.07 3.87c.07.07.15.13.35.3v-.83q0-11 0-22a1 1 0 0 1 .55-1l9.56-5.46.55-.29zm-24.44-9.66l1.55-.1c.31 0 .62-.07.93-.12a12.81 12.81 0 0 0 9.54-6.56 16.06 16.06 0 0 0 1.66-11.14 13.56 13.56 0 0 0-5.18-8.64 13.86 13.86 0 0 0-9.17-2.7 13.36 13.36 0 0 0-10.35 5 14.4 14.4 0 0 0-3.09 8 15.52 15.52 0 0 0 2.34 10.16c2.77 4.21 6.83 6.01 11.77 6.1zM386 73.29h-10.81v-5l-1.16 1.14a18 18 0 0 1-8.85 4.1c-12.05 2.1-25-4.75-27.81-18.88a26.22 26.22 0 0 1 2.78-18.76 22.74 22.74 0 0 1 16.44-11.4 22 22 0 0 1 12.88 1.28 15.2 15.2 0 0 1 5.68 3.93v-5H386zm-24.45-9.67a13 13 0 0 0 10.17-4.57c4.24-5 5-10.56 2.39-16.51a13.69 13.69 0 0 0-16.94-7.47 14.58 14.58 0 0 0-9.83 15.17 14.41 14.41 0 0 0 14.21 13.38zm-152.93 9.63v-4.8c-.12 0-.19 0-.22.06a16.87 16.87 0 0 1-9.73 5c-12.49 2.21-25.69-5.19-28-19.92a26.59 26.59 0 0 1 2.3-16.45 22.75 22.75 0 0 1 16.34-12.5 21.85 21.85 0 0 1 15.47 2 13.54 13.54 0 0 1 3.83 3v-.69-3.82c0-.3 0-.51.44-.51h10.13a1.11 1.11 0 0 1 .27.06v48.57zM209 49a15.12 15.12 0 0 0-2-7.67A13.87 13.87 0 0 0 184.61 39a14.88 14.88 0 0 0-1.54 18 14.11 14.11 0 0 0 16.62 5.78A14.58 14.58 0 0 0 209 49zm64.59 24.28h-10.7v-.75q0-12.86 0-25.72a20.26 20.26 0 0 0-.72-6c-1.24-4.06-4-6.24-8.32-6.57a12.37 12.37 0 0 0-6.36.9 9.88 9.88 0 0 0-5.3 6.46 18.4 18.4 0 0 0-.66 5.32q0 12.77 0 25.53v.82h-10.65v-48.6h.64 9.32c.6 0 .73.2.72.75v4V30c.12-.05.19-.06.22-.1a16.37 16.37 0 0 1 12.89-5.84 20.56 20.56 0 0 1 10.11 2.13c4.36 2.28 6.78 6 8 10.67a30.15 30.15 0 0 1 .83 7.57q0 14 0 28.09zM93.31 0v24.64h10.85V35H93.32v.69 16.15a11 11 0 0 0 8.47 10.93c.77.19 1.56.25 2.4.38V73.9a18.89 18.89 0 0 1-5.56-.75q-13.39-4.08-15.96-17.84a20 20 0 0 1-.24-3.55q0-22.47 0-44.93a1 1 0 0 1 .54-1L92.69.32c.15-.09.31-.17.62-.32zM58.39 24.67h.59 9.38c.52 0 .67.15.67.66Q69 49 69 72.66v.6H58.39zm12.47-12.83a7.19 7.19 0 1 1-14.37 0 7.19 7.19 0 1 1 14.37 0z"/></svg>