<svg xmlns="http://www.w3.org/2000/svg" viewBox="0 0 386 69.61" xmlns:v="https://vecta.io/nano"><path d="M131.29,21.66s3.34-.25,4.51-2.22,7.65-17.1,7.65-17.1a3.63,3.63,0,0,1,5.13-.3h0c2.07,1.93,7.67,16.87,7.67,16.87A4.63,4.63,0,0,0,160,21.56c2.69.24,18.56,2,18.56,2s4.44,1.85,2.68,4.88c-.85,1.47-14.65,13.89-14.65,13.89a5.9,5.9,0,0,0-1.14,4.08c.51,1.73,3.93,16.46,3.93,16.46a6.78,6.78,0,0,1-1,4.3c-1.25,1.31-2,1.41-3.93.75s-16.46-9.76-16.46-9.76a3.89,3.89,0,0,0-3.17,0C143.25,59,129,67.32,129,67.32s-5.1,3-6.18-2.08c-.17-3.88,3.52-15.31,3.52-15.31s1.51-5.13-.76-7.32-13.79-12.9-13.79-12.9-3.18-3.46.51-5.61c3.76-1.32,19-2.44,19-2.44" fill="#e83e44" fill-rule="evenodd"/><path d="M41.51 45.32a29 29 0 0 1-1.64 10 21.48 21.48 0 0 1-4.66 7.62 20 20 0 0 1-7.33 4.88 26.62 26.62 0 0 1-9.76 1.66A60.91 60.91 0 0 1 8 68.68a63.33 63.33 0 0 1-8-1.8V1.76L10.65 0v23.85A25.4 25.4 0 0 1 15.19 22a21.24 21.24 0 0 1 5.93-.78 21 21 0 0 1 8.67 1.71 17 17 0 0 1 6.37 4.89 22.56 22.56 0 0 1 3.91 7.61 33.66 33.66 0 0 1 1.36 9.77M30.52 45a18.85 18.85 0 0 0-2.69-10.74 9.51 9.51 0 0 0-8.49-4 16.11 16.11 0 0 0-8.62 2.54v26.7a26.69 26.69 0 0 0 2.95.49 35.21 35.21 0 0 0 4.35.22 11.37 11.37 0 0 0 9.18-4.05 16.73 16.73 0 0 0 3.35-11M62.41 8.81a6.12 6.12 0 0 1-1.93 4.77 6.54 6.54 0 0 1-4.57 1.75 6.66 6.66 0 0 1-4.64-1.78 6.09 6.09 0 0 1-1.92-4.76 6.21 6.21 0 0 1 1.92-4.88 7 7 0 0 1 9.19 0 6.21 6.21 0 0 1 1.92 4.88m-1.12 59.58H50.62v-46.1h10.64zm11.09-58.24L83 8.35v13.92h16.38v8.89H83v18.75a13.66 13.66 0 0 0 1.75 7.91 7 7 0 0 0 6 2.44 19.46 19.46 0 0 0 5.15-.61 33.57 33.57 0 0 0 3.56-1.15l1.77 8.5a40 40 0 0 1-4.88 1.64 26.47 26.47 0 0 1-7 .83 22.35 22.35 0 0 1-8.23-1.32 12.25 12.25 0 0 1-5.23-3.84 15.23 15.23 0 0 1-2.61-6.12 37.08 37.08 0 0 1-.81-8.19zM209.54 60a14.8 14.8 0 0 0 8.72-2 6.71 6.71 0 0 0 2.74-5.72 7.37 7.37 0 0 0-.92-3.79 9.87 9.87 0 0 0-2.64-2.86 22.39 22.39 0 0 0-4.18-2.44 56.79 56.79 0 0 0-5.65-2.19 50.69 50.69 0 0 1-6.1-2.44 20.34 20.34 0 0 1-5.2-3.39 15.92 15.92 0 0 1-3.62-4.88 15.49 15.49 0 0 1-1.36-6.77 15.9 15.9 0 0 1 5.71-13 23.81 23.81 0 0 1 15.58-4.71 37.06 37.06 0 0 1 10.16 1.27 31.39 31.39 0 0 1 7 2.78l-3.42 9a26.38 26.38 0 0 0-6.59-2.54 30.69 30.69 0 0 0-7.33-.88 11.58 11.58 0 0 0-7 1.86 6.07 6.07 0 0 0-2.44 5.2 6.74 6.74 0 0 0 .83 3.46 8.38 8.38 0 0 0 2.44 2.59 21.13 21.13 0 0 0 3.61 2.13 49.38 49.38 0 0 0 4.55 1.85q4.29 1.59 7.69 3.22a22 22 0 0 1 5.71 3.89 15 15 0 0 1 3.56 5.36 19.51 19.51 0 0 1 1.25 7.33 15.26 15.26 0 0 1-5.86 12.79q-5.86 4.55-17.09 4.54a44.44 44.44 0 0 1-6.91-.49 42 42 0 0 1-5.54-1.19 38.34 38.34 0 0 1-4.18-1.47 25.13 25.13 0 0 1-2.81-1.37l3.1-8.93a38.13 38.13 0 0 0 6.43 2.44 31.9 31.9 0 0 0 9.76 1.32m29.74-49.84l10.65-1.76v13.9h16.38v8.89h-16.38v18.75a13.66 13.66 0 0 0 1.75 7.91 7 7 0 0 0 6 2.44 19.46 19.46 0 0 0 5.15-.61 33.57 33.57 0 0 0 3.56-1.15l1.75 8.5a40 40 0 0 1-4.88 1.64 26.47 26.47 0 0 1-7 .83A22.38 22.38 0 0 1 248 68.1a12.17 12.17 0 0 1-5.25-3.84 15.11 15.11 0 0 1-2.75-6.08 38.26 38.26 0 0 1-.73-8.2zM290 21.12a26 26 0 0 1 8.89 1.32 14.11 14.11 0 0 1 5.76 3.71 13.76 13.76 0 0 1 3 5.76 28.34 28.34 0 0 1 .93 7.33v28q-2.44.54-7.33 1.27a76.41 76.41 0 0 1-11.21.76 33.3 33.3 0 0 1-7.57-.81 15.92 15.92 0 0 1-5.86-2.46 12 12 0 0 1-3.78-4.56 15.89 15.89 0 0 1-1.37-7 13.52 13.52 0 0 1 1.54-6.63 12.64 12.64 0 0 1 4.18-4.45 18.09 18.09 0 0 1 6.1-2.44 34.65 34.65 0 0 1 7.32-.75 32.34 32.34 0 0 1 3.69.21 34.08 34.08 0 0 1 4.13.76v-1.76a14.37 14.37 0 0 0-.44-3.51 7.07 7.07 0 0 0-4.45-4.87 12.47 12.47 0 0 0-4.54-.7 39.49 39.49 0 0 0-6.78.53 29.53 29.53 0 0 0-5 1.22l-1.29-8.79a42.28 42.28 0 0 1 5.88-1.41 46.84 46.84 0 0 1 8.28-.71M291 60.8a40.65 40.65 0 0 0 7.47-.54V48.49A20.44 20.44 0 0 0 296 48a24 24 0 0 0-3.69-.26 25.11 25.11 0 0 0-3.57.26 11.14 11.14 0 0 0-3.24 1 5.9 5.9 0 0 0-2.44 2 5.48 5.48 0 0 0-.88 3.22 5.61 5.61 0 0 0 2.44 5.23 12.26 12.26 0 0 0 6.38 1.37m55-29.08l-3.67-.93a26.59 26.59 0 0 0-5.42-.48 21.21 21.21 0 0 0-3.73.34 22.4 22.4 0 0 0-2.79.61v37.09h-10.68V24.42a58.46 58.46 0 0 1 7.69-2.15 47.73 47.73 0 0 1 10.26-1 18.1 18.1 0 0 1 2.44.12l2.8.34 2.74.54 2.12.56zm39.46-2q-1.75 1.86-4.61 5.2-2.86 3.34-6.11 7.32-3.24 4.11-6.56 8.55-3.32 4.44-5.94 8.5H386v9.06h-36.62v-6.6a80.63 80.63 0 0 1 4.88-7.66q2.91-4.12 6-8.33 3.09-4.21 6-8 3-3.8 5.42-6.59h-21.23v-8.92h34.94z" fill="#040707"/></svg>