<svg xmlns="http://www.w3.org/2000/svg" viewBox="0 0 150 92.5" fill="#231916" xmlns:v="https://vecta.io/nano"><path d="M39.7 72.1c.5 0 .9-.2 1.2-.5s.4-.8.4-1.2v-1.2c0-.5-.1-1.1-.5-1.5s-1-.5-1.6-.5h-8v10.1h7.4c.7.1 1.4-.1 2.1-.5.5-.4.7-.9.7-1.5V74c0-.5-.1-1-.4-1.3a3.79 3.79 0 0 0-1.3-.6zm-6.6-3.3h5.5c.3 0 .6 0 .8.2s.2.4.2.6v.9c0 .2 0 .5-.2.6s-.5.2-.8.2h-5.5v-2.5zm6.3 6.8c-.2.2-.5.3-.8.2h-5.5v-3.1h5.5c.3-.1.6 0 .8.3a.96.96 0 0 1 .2.9v.8c.1.4 0 .7-.2.9h0zm7-8.3h1.7v10.1h-1.7zm5.1 1.5h3.7 1.2v8.6h1.9v-8.6h4.9v-1.5H51.5zm23.1-1.5l-3.7 4.3-3.8-4.3h-2.2l5 5.7v4.4h1.8V73l5-5.7zm7.9 0l-5.8 10.1h1.9l1.3-2.4h6.9l1.3 2.4h2.1l-5.9-10.1h-1.8zm-1.8 6.2l2.6-4.8 2.7 4.8h-5.3zm21.8-.1c.5.1 1.1-.1 1.5-.5.3-.4.5-.9.4-1.5v-2.3c0-.5-.1-1.1-.4-1.5-.4-.3-.9-.5-1.5-.5h-7.3v10.1h1.7v-4h2.5l3.6 4h2.3l-4-4h1.2zM96.9 72v-3.2h4.8c.3 0 .6 0 .8.2s.2.5.2.8V71c0 .3 0 .6-.2.8s-.5.2-.8.2h-4.8zm21.4-3.9c-.5-.3-1-.5-1.6-.6l-2.4-.2h-5.7v10.1h5.7c2 0 3.6-.4 4.6-1.3 1.1-1 1.6-2.4 1.5-3.8a5.42 5.42 0 0 0-.6-2.5c-.3-.7-.9-1.3-1.5-1.7zm-.8 6.9c-.7.6-1.8.8-3.4.8h-3.6v-7.1h3.6c1.6 0 2.7.3 3.4.8.7.7 1.1 1.7 1 2.7.1 1.1-.2 2.1-1 2.8h0zm3.8-10.9l-4.8-1.6-6.4-1.9-7.6-1.9-8.6-1.6-9.3-1.1-9.6-.5-9.6.2-9.3.8-4.4.6-4.2.8-7.6 1.8-6.3 2c-1.9.6-3.5 1.3-4.8 1.8l-4.1 2 1.1-.4c.7-.3 1.8-.5 3.1-1l4.9-1.3 6.4-1.4 3.7-.6 3.9-.6 4.2-.5 4.4-.4c3-.4 6-.4 9.2-.6l9.5-.1 9.5.4 9.2.8 8.6 1.1c1.4.1 2.7.4 3.9.7l3.7.7 6.4 1.2 4.9 1.1 4.3.9-4.3-1.4zM87.5 24.5l31 32.6.2.1-31.8-42.1L78.4 32l17.9 18zM44.4 52.8l.4-.1 10-18.2.4.1-.1 9.2 12.6-15.6 27.6 21.7-19.2-20-7.7-8-9.5 10.9-3.3-2.7-21 25.4 3.8-1.2 6-1.5z"/></svg>