<svg xmlns="http://www.w3.org/2000/svg" xmlns:xlink="http://www.w3.org/1999/xlink" width="213.399" height="30.663" xmlns:v="https://vecta.io/nano"><defs><clipPath id="A"><path d="M0 22.997h160.049V0H0z"/></clipPath><clipPath id="B"><path d="M0 22.997h160.049V0H0z"/></clipPath><clipPath id="C"><path d="M0 22.997h160.049V0H0z"/></clipPath><path id="D" d="M100.357 17.614v-1.846q-.884.823-1.889 1.231-.997.407-2.123.407-2.219 0-3.397-1.361-1.179-1.352-1.179-3.917 0-2.557 1.179-3.917 1.179-1.352 3.397-1.352 1.127 0 2.123.407 1.005.407 1.889 1.231V6.668q-.919-.624-1.95-.936-1.023-.312-2.167-.312-2.938 0-4.628 1.794-1.69 1.803-1.69 4.914 0 3.12 1.69 4.914 1.69 1.803 4.628 1.803 1.161 0 2.184-.312 1.031-.303 1.933-.919z"/></defs><g transform="matrix(1.333333 0 0 -1.333333 0 30.6632)"><g clip-path="url(#A)"><g fill="#345eea"><use xlink:href="#D"/><path d="M101.706 18.611h1.881l3.588-5.322 3.562 5.322h1.881l-4.576-6.778V5.671h-1.759v6.162zm15.03-1.439V12.31h2.201q1.222 0 1.889.633.667.633.667 1.803 0 1.161-.667 1.794-.667.633-1.889.633zm-1.751 1.439h3.952q2.175 0 3.285-.988 1.118-.979 1.118-2.877 0-1.915-1.118-2.895-1.109-.979-3.285-.979h-2.201v-5.2h-1.751zm11.502 0h1.751v-5.304h6.362v5.304h1.751V5.671H134.6v6.162h-6.362V5.671h-1.751zm12.815 0h8.182v-1.473h-6.431v-3.831h6.162v-1.473h-6.162v-4.69h6.587V5.671h-8.338zm16.982-6.873q.563-.191 1.092-.815.537-.624 1.075-1.716l1.777-3.536h-1.881l-1.655 3.319q-.641 1.3-1.248 1.725-.598.425-1.638.425h-1.907V5.671h-1.751v12.94h3.952q2.219 0 3.311-.927 1.092-.927 1.092-2.799 0-1.222-.572-2.028-.563-.806-1.647-1.118zm-4.385 5.434v-4.594h2.201q1.265 0 1.907.581.65.589.65 1.725 0 1.135-.65 1.707-.641.581-1.907.581z"/></g></g><g clip-path="url(#B)"><g fill="#8854d0"><path d="M31.284 11.85V7.11h2.808q1.413 0 2.089.581.685.589.685 1.794 0 1.213-.685 1.785-.676.581-2.089.581zm0 5.322v-3.9h2.591q1.283 0 1.907.477.633.485.633 1.473 0 .979-.633 1.465-.624.485-1.907.485zm-1.751 1.439h4.472q2.002 0 3.085-.832 1.083-.832 1.083-2.366 0-1.187-.555-1.889-.555-.702-1.629-.875 1.291-.277 2.002-1.161.719-.875.719-2.193 0-1.733-1.179-2.678-1.179-.945-3.354-.945h-4.646zm12.159 0h1.751V7.144h6.301V5.671h-8.052zm15.121-1.188q-1.907 0-3.033-1.421-1.118-1.421-1.118-3.874 0-2.444 1.118-3.865 1.127-1.421 3.033-1.421 1.907 0 3.016 1.421 1.118 1.421 1.118 3.865 0 2.453-1.118 3.874-1.109 1.421-3.016 1.421zm0 1.421q2.721 0 4.351-1.829 1.629-1.82 1.629-4.888 0-3.059-1.629-4.888-1.629-1.82-4.351-1.82-2.73 0-4.368 1.82-1.629 1.82-1.629 4.888 0 3.068 1.629 4.888 1.638 1.829 4.368 1.829zm17.928-1.23v-1.846q-.884.823-1.889 1.231-.997.407-2.123.407-2.219 0-3.397-1.361-1.179-1.352-1.179-3.917 0-2.557 1.179-3.917 1.179-1.352 3.397-1.352 1.127 0 2.123.407 1.005.407 1.889 1.231V6.668q-.919-.624-1.95-.936-1.023-.312-2.167-.312-2.938 0-4.628 1.794-1.69 1.803-1.69 4.914 0 3.12 1.69 4.914 1.69 1.803 4.628 1.803 1.161 0 2.184-.312 1.031-.303 1.933-.919zm3.125.997h1.751v-5.469l5.807 5.469h2.253l-6.422-6.032 6.882-6.908h-2.305l-6.214 6.232V5.671h-1.751z"/></g></g><g clip-path="url(#C)" fill="#8854d0"><path d="M11.406 19.986c.036-.038.132-.225.213-.417l.249-.515c.185-.306.522-.572.915-.718.173-.065.197-.067.587-.067.381.002.419.005.587.064.258.094.491.242.682.436.18.182.314.419.515.91.127.307.19.372.372.372.1 0 .186-.024.354-.094l.843-.349.719-.3.234-.098c.312-.125.352-.287.173-.714l-.182-.481a1.08 1.08 0 0 1-.074-.491c.002-.403.105-.707.347-1.018.151-.194.239-.283.429-.426.316-.238.653-.343 1.061-.331.328.01.388.026.862.23.232.101.314.125.426.127.23.002.247-.022.604-.905l.519-1.248c.063-.146.072-.194.063-.312-.015-.182-.065-.222-.479-.39-.431-.175-.597-.271-.791-.453-.39-.369-.582-.919-.522-1.494.029-.278.106-.506.249-.74.213-.352.451-.537.985-.764.474-.204.488-.211.527-.285.057-.113.045-.273-.034-.453l-.618-1.49-.16-.383c-.125-.292-.273-.35-.573-.225l-.172.067-.144.06c-.34.153-.462.182-.79.182-.266 0-.336-.01-.479-.058a2.01 2.01 0 0 1-.927-.644c-.039-.041-.067-.081-.067-.091s-.031-.057-.067-.112c-.082-.12-.158-.309-.211-.52-.029-.118-.036-.223-.026-.431.011-.3.052-.448.253-.913.108-.251.125-.402.065-.522-.043-.081-.098-.12-.302-.201l-.802-.328-.419-.178c-.879-.366-.858-.359-1.018-.292-.091.039-.125.096-.261.434-.264.656-.52.965-.975 1.181-.266.126-.426.158-.8.16a1.44 1.44 0 0 1-.778-.16c-.46-.221-.683-.499-1.002-1.263-.124-.304-.177-.361-.342-.378-.089-.007-.165.014-.477.146l-1.693.702a.67.67 0 0 0-.223.141c-.107.125-.098.232.046.58.223.527.249.627.251.951.003.304-.031.474-.143.718a1.39 1.39 0 0 1-.305.453c-.33.373-.783.603-1.238.63-.201.012-.302.002-.527-.051-.033-.007-.237-.086-.452-.172-.642-.259-.652-.252-.982.577l-.585 1.401a.77.77 0 0 0-.077.316c0 .209.027.23.573.455.129.053.311.142.402.192.417.242.731.721.812 1.246a2.17 2.17 0 0 1-.038.749c-.034.13-.18.462-.232.527l-.108.137c-.197.242-.419.39-.858.57-.416.17-.486.208-.527.285-.055.107-.043.246.034.426l.254.606.227.551.204.491.208.438c.063.065.209.108.3.086.036-.007.222-.076.414-.153.419-.165.486-.189.625-.206.132-.014.472-.014.498 0 .01.007.053.019.094.026.412.072.862.393 1.152.822.191.285.309.726.28 1.044-.024.252-.067.398-.29.937-.105.254-.108.4-.009.505.067.072.043.062.764.355l.359.148c.898.388 1.092.46 1.238.462.132.003.156-.005.211-.062m-7.844 2.218c-.431-.072-.805-.438-.898-.877-.053-.244-.053-19.41 0-19.654.067-.318.299-.625.584-.771C3.526.763 2.846.77 13.358.77c10.61 0 9.839-.009 10.131.146a1.28 1.28 0 0 1 .467.474c.139.278.132-.402.132 10.11l-.036 9.827a1.13 1.13 0 0 1-.922.877c-.199.033-19.374.031-19.568 0m9.521-6.144c-.362-.036-.587-.072-.836-.134-1.638-.412-2.915-1.691-3.317-3.329a3.88 3.88 0 0 1-.129-1.109 4.29 4.29 0 0 1 .488-2.05c.606-1.193 1.679-2.048 2.972-2.367a3.84 3.84 0 0 1 1.097-.129c.453 0 .681.026 1.097.129a4.57 4.57 0 0 1 3.421 3.758c.047.302.052.975.012 1.27-.281 2.016-1.849 3.616-3.842 3.913-.24.036-.798.065-.963.048"/></g></g></svg>