<svg width="155" height="50" viewBox="0 0 155 50" fill="none" xmlns="http://www.w3.org/2000/svg">
<rect width="155" height="50" fill="white"/>
<path d="M96.067 1.77869H39.1878C35.4848 1.77869 32.4829 4.78056 32.4829 8.48357V19.1844C32.4829 22.8874 35.4848 25.8893 39.1878 25.8893H96.067C99.77 25.8893 102.772 22.8874 102.772 19.1844V8.48357C102.772 4.78056 99.77 1.77869 96.067 1.77869Z" fill="#E99E05"/>
<path d="M96.0245 1.72852H39.1453C35.4423 1.72852 32.4404 4.73039 32.4404 8.4334V19.1343C32.4404 22.8373 35.4423 25.8391 39.1453 25.8391H96.0245C99.7275 25.8391 102.729 22.8373 102.729 19.1343V8.4334C102.729 4.73039 99.7275 1.72852 96.0245 1.72852Z" fill="#E99E05"/>
<path d="M95.9815 1.67822H39.1023C35.3993 1.67822 32.3975 4.6801 32.3975 8.3831V19.084C32.3975 22.787 35.3993 25.7888 39.1023 25.7888H95.9815C99.6845 25.7888 102.686 22.787 102.686 19.084V8.3831C102.686 4.6801 99.6845 1.67822 95.9815 1.67822Z" fill="#E99E05"/>
<path d="M95.9395 1.62537H39.0603C35.3573 1.62537 32.3555 4.62724 32.3555 8.33025V19.0311C32.3555 22.7341 35.3573 25.736 39.0603 25.736H95.9395C99.6425 25.736 102.644 22.7341 102.644 19.0311V8.33025C102.644 4.62724 99.6425 1.62537 95.9395 1.62537Z" fill="#E99E05"/>
<path d="M95.8975 1.5752H39.0184C35.3154 1.5752 32.3135 4.57707 32.3135 8.28008V18.9809C32.3135 22.6839 35.3154 25.6858 39.0184 25.6858H95.8975C99.6005 25.6858 102.602 22.6839 102.602 18.9809V8.28008C102.602 4.57707 99.6005 1.5752 95.8975 1.5752Z" fill="#E99E05"/>
<path d="M95.8555 1.5249H38.9764C35.2734 1.5249 32.2715 4.52678 32.2715 8.22978V18.9306C32.2715 22.6336 35.2734 25.6355 38.9764 25.6355H95.8555C99.5585 25.6355 102.56 22.6336 102.56 18.9306V8.22978C102.56 4.52678 99.5585 1.5249 95.8555 1.5249Z" fill="#E99E05"/>
<path d="M95.8126 1.47485H38.9334C35.2304 1.47485 32.2285 4.47673 32.2285 8.17974V18.8806C32.2285 22.5836 35.2304 25.5855 38.9334 25.5855H95.8126C99.5156 25.5855 102.517 22.5836 102.517 18.8806V8.17974C102.517 4.47673 99.5156 1.47485 95.8126 1.47485Z" fill="#E99E05"/>
<path d="M95.7706 1.42456H38.8914C35.1884 1.42456 32.1865 4.42644 32.1865 8.12944V18.8303C32.1865 22.5333 35.1884 25.5352 38.8914 25.5352H95.7706C99.4736 25.5352 102.475 22.5333 102.475 18.8303V8.12944C102.475 4.42644 99.4736 1.42456 95.7706 1.42456Z" fill="#E99E05"/>
<path d="M95.7286 1.37158H38.8494C35.1464 1.37158 32.1445 4.37346 32.1445 8.07646V18.7773C32.1445 22.4803 35.1464 25.4822 38.8494 25.4822H95.7286C99.4316 25.4822 102.433 22.4803 102.433 18.7773V8.07646C102.433 4.37346 99.4316 1.37158 95.7286 1.37158Z" fill="#E99E05"/>
<path d="M95.6866 1.32141H38.8074C35.1044 1.32141 32.1025 4.32329 32.1025 8.02629V18.7271C32.1025 22.4301 35.1044 25.432 38.8074 25.432H95.6866C99.3896 25.432 102.391 22.4301 102.391 18.7271V8.02629C102.391 4.32329 99.3896 1.32141 95.6866 1.32141Z" fill="#E99E05"/>
<path d="M95.6436 1.27112H38.7645C35.0614 1.27112 32.0596 4.273 32.0596 7.976V18.6769C32.0596 22.3799 35.0614 25.3817 38.7645 25.3817H95.6436C99.3466 25.3817 102.349 22.3799 102.349 18.6769V7.976C102.349 4.273 99.3466 1.27112 95.6436 1.27112Z" fill="#E99E05"/>
<path d="M95.6016 1.22095H38.7225C35.0195 1.22095 32.0176 4.22282 32.0176 7.92583V18.6267C32.0176 22.3297 35.0195 25.3316 38.7225 25.3316H95.6016C99.3046 25.3316 102.307 22.3297 102.307 18.6267V7.92583C102.307 4.22282 99.3046 1.22095 95.6016 1.22095Z" fill="#E99E05"/>
<path d="M95.5592 1.16809H38.68C34.977 1.16809 31.9751 4.16997 31.9751 7.87297V18.5738C31.9751 22.2768 34.977 25.2787 38.68 25.2787H95.5592C99.2622 25.2787 102.264 22.2768 102.264 18.5738V7.87297C102.264 4.16997 99.2622 1.16809 95.5592 1.16809Z" fill="#E99E05"/>
<path d="M95.5172 1.11792H38.638C34.935 1.11792 31.9331 4.1198 31.9331 7.8228V18.5237C31.9331 22.2267 34.935 25.2285 38.638 25.2285H95.5172C99.2202 25.2285 102.222 22.2267 102.222 18.5237V7.8228C102.222 4.1198 99.2202 1.11792 95.5172 1.11792Z" fill="#E99E05"/>
<path d="M95.4742 1.06775H38.595C34.892 1.06775 31.8901 4.06963 31.8901 7.77263V18.4735C31.8901 22.1765 34.892 25.1784 38.595 25.1784H95.4742C99.1772 25.1784 102.179 22.1765 102.179 18.4735V7.77263C102.179 4.06963 99.1772 1.06775 95.4742 1.06775Z" fill="#E99E05"/>
<path d="M95.4327 1.01746H38.5535C34.8505 1.01746 31.8486 4.01933 31.8486 7.72234V18.4232C31.8486 22.1262 34.8505 25.1281 38.5535 25.1281H95.4327C99.1357 25.1281 102.138 22.1262 102.138 18.4232V7.72234C102.138 4.01933 99.1357 1.01746 95.4327 1.01746Z" fill="#E99E05"/>
<path d="M95.3907 0.9646H38.5115C34.8085 0.9646 31.8066 3.96648 31.8066 7.66948V18.3703C31.8066 22.0733 34.8085 25.0752 38.5115 25.0752H95.3907C99.0937 25.0752 102.096 22.0733 102.096 18.3703V7.66948C102.096 3.96648 99.0937 0.9646 95.3907 0.9646Z" fill="#E99E05"/>
<path d="M95.3448 0.914429H38.4656C34.7626 0.914429 31.7607 3.91631 31.7607 7.61931V18.3202C31.7607 22.0232 34.7626 25.025 38.4656 25.025H95.3448C99.0478 25.025 102.05 22.0232 102.05 18.3202V7.61931C102.05 3.91631 99.0478 0.914429 95.3448 0.914429Z" fill="#E99E05"/>
<path d="M95.3028 0.864258H38.4236C34.7206 0.864258 31.7188 3.86613 31.7188 7.56914V18.27C31.7188 21.973 34.7206 24.9749 38.4236 24.9749H95.3028C99.0058 24.9749 102.008 21.973 102.008 18.27V7.56914C102.008 3.86613 99.0058 0.864258 95.3028 0.864258Z" fill="#E99E05"/>
<path d="M95.2613 0.814087H38.3821C34.6791 0.814087 31.6772 3.81596 31.6772 7.51897V18.2198C31.6772 21.9228 34.6791 24.9247 38.3821 24.9247H95.2613C98.9643 24.9247 101.966 21.9228 101.966 18.2198V7.51897C101.966 3.81596 98.9643 0.814087 95.2613 0.814087Z" fill="#E99E05"/>
<path d="M95.2183 0.761108H38.3392C34.6362 0.761108 31.6343 3.76299 31.6343 7.46599V18.1668C31.6343 21.8698 34.6362 24.8717 38.3392 24.8717H95.2183C98.9213 24.8717 101.923 21.8698 101.923 18.1668V7.46599C101.923 3.76299 98.9213 0.761108 95.2183 0.761108Z" fill="#E99E05"/>
<path d="M95.1763 0.710938H38.2972C34.5942 0.710938 31.5923 3.71282 31.5923 7.41582V18.1167C31.5923 21.8197 34.5942 24.8216 38.2972 24.8216H95.1763C98.8793 24.8216 101.881 21.8197 101.881 18.1167V7.41582C101.881 3.71282 98.8793 0.710938 95.1763 0.710938Z" fill="#E99E05"/>
<path d="M95.1339 0.660767H38.2547C34.5517 0.660767 31.5498 3.66264 31.5498 7.36565V18.0665C31.5498 21.7695 34.5517 24.7714 38.2547 24.7714H95.1339C98.8369 24.7714 101.839 21.7695 101.839 18.0665V7.36565C101.839 3.66264 98.8369 0.660767 95.1339 0.660767Z" fill="#E99E05"/>
<path d="M95.0909 0.610596H38.2117C34.5087 0.610596 31.5068 3.61247 31.5068 7.31548V18.0163C31.5068 21.7193 34.5087 24.7212 38.2117 24.7212H95.0909C98.7939 24.7212 101.796 21.7193 101.796 18.0163V7.31548C101.796 3.61247 98.7939 0.610596 95.0909 0.610596Z" fill="#E99E05"/>
<path d="M95.0489 0.560303H38.1697C34.4667 0.560303 31.4648 3.56218 31.4648 7.26518V17.966C31.4648 21.669 34.4667 24.6709 38.1697 24.6709H95.0489C98.7519 24.6709 101.754 21.669 101.754 17.966V7.26518C101.754 3.56218 98.7519 0.560303 95.0489 0.560303Z" fill="#E99E05"/>
<path d="M95.0064 0.507324H38.1272C34.4242 0.507324 31.4224 3.5092 31.4224 7.21221V17.9131C31.4224 21.6161 34.4242 24.6179 38.1272 24.6179H95.0064C98.7094 24.6179 101.711 21.6161 101.711 17.9131V7.21221C101.711 3.5092 98.7094 0.507324 95.0064 0.507324Z" fill="#E99E05"/>
<path d="M94.9649 0.457153H38.0857C34.3827 0.457153 31.3809 3.45903 31.3809 7.16203V17.8629C31.3809 21.5659 34.3827 24.5678 38.0857 24.5678H94.9649C98.6679 24.5678 101.67 21.5659 101.67 17.8629V7.16203C101.67 3.45903 98.6679 0.457153 94.9649 0.457153Z" fill="#E99E05"/>
<path d="M94.9224 0.40686H38.0433C34.3403 0.40686 31.3384 3.40874 31.3384 7.11174V17.8126C31.3384 21.5156 34.3403 24.5175 38.0433 24.5175H94.9224C98.6254 24.5175 101.627 21.5156 101.627 17.8126V7.11174C101.627 3.40874 98.6254 0.40686 94.9224 0.40686Z" fill="#E99E05"/>
<path d="M94.88 0.356689H38.0008C34.2978 0.356689 31.2959 3.35857 31.2959 7.06157V17.7624C31.2959 21.4654 34.2978 24.4673 38.0008 24.4673H94.88C98.583 24.4673 101.585 21.4654 101.585 17.7624V7.06157C101.585 3.35857 98.583 0.356689 94.88 0.356689Z" fill="#E99E05"/>
<path d="M94.8375 0.303833H37.9583C34.2553 0.303833 31.2534 3.30571 31.2534 7.00871V17.7096C31.2534 21.4126 34.2553 24.4144 37.9583 24.4144H94.8375C98.5405 24.4144 101.542 21.4126 101.542 17.7096V7.00871C101.542 3.30571 98.5405 0.303833 94.8375 0.303833Z" fill="#E99E05"/>
<path d="M94.7955 0.253784H37.9163C34.2133 0.253784 31.2114 3.25566 31.2114 6.95867V17.6595C31.2114 21.3625 34.2133 24.3644 37.9163 24.3644H94.7955C98.4985 24.3644 101.5 21.3625 101.5 17.6595V6.95867C101.5 3.25566 98.4985 0.253784 94.7955 0.253784Z" fill="#E99E05"/>
<path d="M94.753 0.203613H37.8738C34.1708 0.203613 31.1689 3.20549 31.1689 6.90849V17.6093C31.1689 21.3124 34.1708 24.3142 37.8738 24.3142H94.753C98.456 24.3142 101.458 21.3124 101.458 17.6093V6.90849C101.458 3.20549 98.456 0.203613 94.753 0.203613Z" fill="#E99E05"/>
<path d="M94.711 0.153442H37.8318C34.1288 0.153442 31.127 3.15532 31.127 6.85832V17.5592C31.127 21.2622 34.1288 24.2641 37.8318 24.2641H94.711C98.414 24.2641 101.416 21.2622 101.416 17.5592V6.85832C101.416 3.15532 98.414 0.153442 94.711 0.153442Z" fill="#E99E05"/>
<path d="M94.668 0.100464H37.7889C34.0859 0.100464 31.084 3.10234 31.084 6.80535V17.5062C31.084 21.2092 34.0859 24.2111 37.7889 24.2111H94.668C98.371 24.2111 101.373 21.2092 101.373 17.5062V6.80535C101.373 3.10234 98.371 0.100464 94.668 0.100464Z" fill="#E99E05"/>
<path d="M94.6265 0.0501709H37.7474C34.0444 0.0501709 31.0425 3.05205 31.0425 6.75505V17.4559C31.0425 21.1589 34.0444 24.1608 37.7474 24.1608H94.6265C98.3295 24.1608 101.331 21.1589 101.331 17.4559V6.75505C101.331 3.05205 98.3295 0.0501709 94.6265 0.0501709Z" fill="#E99E05"/>
<path d="M94.5841 0H37.7049C34.0019 0 31 3.00188 31 6.70488V17.4057C31 21.1087 34.0019 24.1106 37.7049 24.1106H94.5841C98.2871 24.1106 101.289 21.1087 101.289 17.4057V6.70488C101.289 3.00188 98.2871 0 94.5841 0Z" fill="#E99E05"/>
<path d="M117.513 25.8894H60.6341C56.9311 25.8894 53.9292 28.8913 53.9292 32.5943V43.2951C53.9292 46.9981 56.9311 50 60.6341 50H117.513C121.216 50 124.218 46.9981 124.218 43.2951V32.5943C124.218 28.8913 121.216 25.8894 117.513 25.8894Z" fill="#333333"/>
<path d="M117.44 25.802H60.5608C56.8578 25.802 53.856 28.8039 53.856 32.5069V43.2077C53.856 46.9107 56.8578 49.9126 60.5608 49.9126H117.44C121.143 49.9126 124.145 46.9107 124.145 43.2077V32.5069C124.145 28.8039 121.143 25.802 117.44 25.802Z" fill="#303030"/>
<path d="M117.365 25.7123H60.4861C56.7831 25.7123 53.7812 28.7142 53.7812 32.4172V43.118C53.7812 46.821 56.7831 49.8229 60.4861 49.8229H117.365C121.068 49.8229 124.07 46.821 124.07 43.118V32.4172C124.07 28.7142 121.068 25.7123 117.365 25.7123Z" fill="#2E2E2E"/>
<path d="M117.292 25.6222H60.4124C56.7094 25.6222 53.7075 28.6241 53.7075 32.3271V43.0279C53.7075 46.7309 56.7094 49.7328 60.4124 49.7328H117.292C120.995 49.7328 123.996 46.7309 123.996 43.0279V32.3271C123.996 28.6241 120.995 25.6222 117.292 25.6222Z" fill="#2B2B2B"/>
<path d="M117.217 25.5352H60.3377C56.6347 25.5352 53.6328 28.537 53.6328 32.24V42.9409C53.6328 46.6439 56.6347 49.6458 60.3377 49.6458H117.217C120.92 49.6458 123.922 46.6439 123.922 42.9409V32.24C123.922 28.537 120.92 25.5352 117.217 25.5352Z" fill="#292929"/>
<path d="M117.144 25.4452H60.2645C56.5614 25.4452 53.5596 28.4471 53.5596 32.1501V42.8509C53.5596 46.5539 56.5614 49.5558 60.2645 49.5558H117.144C120.847 49.5558 123.849 46.5539 123.849 42.8509V32.1501C123.849 28.4471 120.847 25.4452 117.144 25.4452Z" fill="#262626"/>
<path d="M117.069 25.3555H60.1902C56.4872 25.3555 53.4854 28.3573 53.4854 32.0603V42.7612C53.4854 46.4642 56.4872 49.4661 60.1902 49.4661H117.069C120.772 49.4661 123.774 46.4642 123.774 42.7612V32.0603C123.774 28.3573 120.772 25.3555 117.069 25.3555Z" fill="#242424"/>
<path d="M116.995 25.2682H60.116C56.413 25.2682 53.4111 28.2701 53.4111 31.9731V42.6739C53.4111 46.3769 56.413 49.3788 60.116 49.3788H116.995C120.698 49.3788 123.7 46.3769 123.7 42.6739V31.9731C123.7 28.2701 120.698 25.2682 116.995 25.2682Z" fill="#212121"/>
<path d="M116.921 25.1783H60.0423C56.3393 25.1783 53.3374 28.1802 53.3374 31.8832V42.5841C53.3374 46.2871 56.3393 49.289 60.0423 49.289H116.921C120.624 49.289 123.626 46.2871 123.626 42.5841V31.8832C123.626 28.1802 120.624 25.1783 116.921 25.1783Z" fill="#1F1F1F"/>
<path d="M116.848 25.0885H59.9686C56.2656 25.0885 53.2637 28.0904 53.2637 31.7934V42.4942C53.2637 46.1972 56.2656 49.1991 59.9686 49.1991H116.848C120.551 49.1991 123.553 46.1972 123.553 42.4942V31.7934C123.553 28.0904 120.551 25.0885 116.848 25.0885Z" fill="#1C1C1C"/>
<path d="M116.773 25.0012H59.8938C56.1908 25.0012 53.189 28.0031 53.189 31.7061V42.407C53.189 46.11 56.1908 49.1118 59.8938 49.1118H116.773C120.476 49.1118 123.478 46.11 123.478 42.407V31.7061C123.478 28.0031 120.476 25.0012 116.773 25.0012Z" fill="#1A1A1A"/>
<path d="M116.699 24.9114H59.8196C56.1166 24.9114 53.1147 27.9133 53.1147 31.6163V42.3171C53.1147 46.0201 56.1166 49.022 59.8196 49.022H116.699C120.402 49.022 123.404 46.0201 123.404 42.3171V31.6163C123.404 27.9133 120.402 24.9114 116.699 24.9114Z" fill="#171717"/>
<path d="M116.625 24.8215H59.7459C56.0429 24.8215 53.041 27.8234 53.041 31.5264V42.2273C53.041 45.9303 56.0429 48.9321 59.7459 48.9321H116.625C120.328 48.9321 123.33 45.9303 123.33 42.2273V31.5264C123.33 27.8234 120.328 24.8215 116.625 24.8215Z" fill="#141414"/>
<path d="M116.549 24.7344H59.6697C55.9667 24.7344 52.9648 27.7363 52.9648 31.4393V42.1401C52.9648 45.8431 55.9667 48.845 59.6697 48.845H116.549C120.252 48.845 123.254 45.8431 123.254 42.1401V31.4393C123.254 27.7363 120.252 24.7344 116.549 24.7344Z" fill="#121212"/>
<path d="M116.475 24.6444H59.5955C55.8925 24.6444 52.8906 27.6463 52.8906 31.3493V42.0501C52.8906 45.7531 55.8925 48.755 59.5955 48.755H116.475C120.178 48.755 123.18 45.7531 123.18 42.0501V31.3493C123.18 27.6463 120.178 24.6444 116.475 24.6444Z" fill="#0F0F0F"/>
<path d="M116.401 24.5573H59.5218C55.8188 24.5573 52.8169 27.5591 52.8169 31.2621V41.963C52.8169 45.666 55.8188 48.6679 59.5218 48.6679H116.401C120.104 48.6679 123.106 45.666 123.106 41.963V31.2621C123.106 27.5591 120.104 24.5573 116.401 24.5573Z" fill="#0D0D0D"/>
<path d="M116.327 24.4674H59.4476C55.7446 24.4674 52.7427 27.4693 52.7427 31.1723V41.8731C52.7427 45.5761 55.7446 48.578 59.4476 48.578H116.327C120.03 48.578 123.032 45.5761 123.032 41.8731V31.1723C123.032 27.4693 120.03 24.4674 116.327 24.4674Z" fill="#0A0A0A"/>
<path d="M116.253 24.3776H59.3733C55.6703 24.3776 52.6685 27.3794 52.6685 31.0824V41.7833C52.6685 45.4863 55.6703 48.4882 59.3733 48.4882H116.253C119.956 48.4882 122.957 45.4863 122.957 41.7833V31.0824C122.957 27.3794 119.956 24.3776 116.253 24.3776Z" fill="#080808"/>
<path d="M116.178 24.2903H59.2991C55.5961 24.2903 52.5942 27.2922 52.5942 30.9952V41.696C52.5942 45.399 55.5961 48.4009 59.2991 48.4009H116.178C119.881 48.4009 122.883 45.399 122.883 41.696V30.9952C122.883 27.2922 119.881 24.2903 116.178 24.2903Z" fill="#050505"/>
<path d="M116.104 24.2004H59.2249C55.5219 24.2004 52.52 27.2023 52.52 30.9053V41.6062C52.52 45.3092 55.5219 48.3111 59.2249 48.3111H116.104C119.807 48.3111 122.809 45.3092 122.809 41.6062V30.9053C122.809 27.2023 119.807 24.2004 116.104 24.2004Z" fill="#030303"/>
<path d="M116.031 24.1106H59.1521C55.4491 24.1106 52.4473 27.1125 52.4473 30.8155V41.5163C52.4473 45.2193 55.4491 48.2212 59.1521 48.2212H116.031C119.734 48.2212 122.736 45.2193 122.736 41.5163V30.8155C122.736 27.1125 119.734 24.1106 116.031 24.1106Z" fill="black"/>
<path d="M116.031 24.1106H59.1521C55.4491 24.1106 52.4473 27.1125 52.4473 30.8155V41.5163C52.4473 45.2193 55.4491 48.2212 59.1521 48.2212H116.031C119.734 48.2212 122.736 45.2193 122.736 41.5163V30.8155C122.736 27.1125 119.734 24.1106 116.031 24.1106Z" fill="#231F20"/>
<path d="M94.5841 0H37.7049C34.0019 0 31 3.00188 31 6.70488V17.4057C31 21.1087 34.0019 24.1106 37.7049 24.1106H94.5841C98.2871 24.1106 101.289 21.1087 101.289 17.4057V6.70488C101.289 3.00188 98.2871 0 94.5841 0Z" fill="#FFCB0A"/>
<path d="M56.3843 43.361V28.1277H59.3733L65.6078 38.3V28.1277H68.4647V43.361H65.3805L59.2412 33.4266V43.361H56.3843Z" fill="#FFCB0A"/>
<path d="M71.7212 43.361V28.1277H83.014V30.7045H74.7948V34.082H82.4432V36.6482H74.7948V40.7948H83.3048V43.361H71.7212Z" fill="#FFCB0A"/>
<path d="M106.416 38.403L109.408 38.1123C109.584 39.1165 109.949 39.8548 110.504 40.327C111.137 40.8247 111.929 41.0755 112.732 41.0326C113.724 41.0326 114.471 40.8229 114.974 40.4036C115.203 40.2327 115.391 40.0114 115.521 39.7566C115.652 39.5018 115.722 39.2204 115.727 38.9342C115.735 38.5994 115.623 38.2728 115.41 38.0145C115.104 37.7025 114.722 37.475 114.302 37.3538C113.95 37.2304 113.129 37.0093 111.839 36.6904C110.19 36.2816 109.033 35.7795 108.369 35.184C107.627 34.5509 107.142 33.6685 107.005 32.7029C106.869 31.7372 107.089 30.7548 107.626 29.9406C108.091 29.2462 108.754 28.7082 109.529 28.3972C110.483 28.022 111.502 27.8423 112.526 27.8686C114.436 27.8686 115.875 28.2879 116.842 29.1266C117.322 29.5436 117.706 30.0589 117.968 30.6377C118.231 31.2164 118.366 31.8448 118.364 32.4804L115.291 32.6178C115.159 31.8338 114.876 31.2708 114.442 30.929C114.009 30.5855 113.361 30.4005 112.495 30.4005C111.628 30.4005 110.909 30.5855 110.396 30.9528C110.242 31.0566 110.117 31.1974 110.031 31.3622C109.946 31.5271 109.903 31.7107 109.907 31.8963C109.908 32.0752 109.949 32.2515 110.028 32.4119C110.108 32.5722 110.223 32.7123 110.364 32.8213C110.752 33.1472 111.694 33.4864 113.19 33.8388C114.335 34.0726 115.45 34.4408 116.509 34.9356C117.201 35.2886 117.783 35.8241 118.193 36.4843C118.615 37.2368 118.827 38.0894 118.806 38.9522C118.784 39.815 118.53 40.6561 118.071 41.3867C117.579 42.1535 116.86 42.7475 116.015 43.0861C114.957 43.486 113.831 43.6746 112.701 43.6411C110.775 43.6411 109.296 43.1962 108.263 42.3064C107.231 41.4167 106.615 40.1155 106.416 38.403Z" fill="#FFCB0A"/>
<path fill-rule="evenodd" clip-rule="evenodd" d="M97.1929 34.1295C97.2722 34.0502 97.2748 33.9974 97.1929 33.9181C96.5216 33.2486 95.8521 32.579 95.1843 31.9095C95.113 31.8382 95.0601 31.8329 94.9861 31.9095L92.967 33.9313C92.9405 33.9577 92.9062 33.9842 92.9088 34.0291C92.9115 34.074 92.9538 34.1057 92.9881 34.1374C93.6488 34.8008 94.3095 35.4589 94.9702 36.1275C95.0548 36.2094 95.1103 36.2147 95.1949 36.1275C95.8582 35.4562 96.5269 34.7929 97.1929 34.1295Z" fill="#FFCB0A"/>
<path fill-rule="evenodd" clip-rule="evenodd" d="M91.5024 39.8143L93.3841 37.9352C93.5347 37.782 93.5347 37.782 93.3841 37.626L89.9484 34.1903C89.7845 34.0238 89.7845 34.0238 89.9484 33.86C91.0989 32.7112 92.2503 31.566 93.4026 30.4243C93.5109 30.3159 93.5109 30.2525 93.4026 30.1442C92.7736 29.5178 92.1525 28.8862 91.5262 28.2572C91.3729 28.1039 91.3729 28.1039 91.2222 28.2572L85.593 33.8864C85.4397 34.0371 85.4397 34.0397 85.593 34.193L89.7185 38.3185L91.2354 39.8328C91.2669 39.8792 91.3122 39.9143 91.3649 39.9332C91.4257 39.9121 91.4601 39.8566 91.5024 39.8143Z" fill="#FFCB0A"/>
<path fill-rule="evenodd" clip-rule="evenodd" d="M96.8039 30.1097C96.6427 30.271 96.6427 30.271 96.8039 30.4295L100.253 33.8784C100.395 34.0211 100.398 34.0238 100.253 34.1639L98.8759 35.5408C98.1711 36.2455 97.4663 36.9503 96.7616 37.6551C96.685 37.7317 96.6242 37.7951 96.7325 37.9008C97.3906 38.5536 98.0539 39.209 98.6988 39.8645C98.7228 39.8978 98.7588 39.9206 98.7992 39.9279C98.8574 39.9279 98.8917 39.8698 98.9287 39.8328C100.816 37.9458 102.704 36.0597 104.592 34.1744C104.698 34.0687 104.709 34.0053 104.592 33.8943C102.704 32.0091 100.817 30.1221 98.934 28.2333C98.8283 28.1276 98.7675 28.1382 98.6697 28.2333C98.0592 28.8597 97.4302 29.494 96.8039 30.1097Z" fill="#FFCB0A"/>
<path fill-rule="evenodd" clip-rule="evenodd" d="M95.1895 43.5752L97.1637 41.601C97.2298 41.5349 97.243 41.4847 97.1637 41.4133L95.1789 39.4286C95.1049 39.3519 95.0494 39.3599 94.9781 39.4286C94.3226 40.0893 93.6654 40.7482 93.0065 41.4054C92.9881 41.4175 92.9727 41.4334 92.9613 41.4522C92.9498 41.4709 92.9427 41.4919 92.9404 41.5138C92.958 41.5398 92.9774 41.5646 92.9986 41.5878L94.9833 43.5752C95.0521 43.6545 95.1181 43.6465 95.1895 43.5752Z" fill="#FFCB0A"/>
<path d="M42.8267 3.33009H49.41C50.3818 3.31037 51.3537 3.36515 52.3171 3.49394C52.9322 3.59289 53.5184 3.82467 54.0349 4.17315C54.5544 4.53187 54.987 5.00235 55.3009 5.55007C55.6399 6.13494 55.8144 6.8007 55.8056 7.4767C55.8064 8.23233 55.5881 8.97198 55.1773 9.60613C54.7664 10.2403 54.1805 10.7417 53.4905 11.0498C54.4042 11.2822 55.2171 11.8065 55.8056 12.543C56.3476 13.2552 56.6326 14.1299 56.6143 15.0246C56.6105 15.7844 56.4295 16.5327 56.0858 17.2103C55.7642 17.8893 55.2726 18.4738 54.6586 18.907C53.9947 19.3527 53.2277 19.6211 52.4307 19.6866C51.8757 19.7483 50.5385 19.7862 48.4189 19.8003H42.8267V3.33009ZM46.1593 6.06278V9.87111H48.3396C49.6346 9.87111 50.4398 9.85173 50.7552 9.81297C51.257 9.77611 51.7309 9.56806 52.0977 9.22362C52.2626 9.05366 52.3909 8.85184 52.475 8.63053C52.5591 8.40922 52.5971 8.17307 52.5867 7.93655C52.6069 7.48487 52.4559 7.0422 52.1638 6.69706C51.8353 6.35453 51.3901 6.14795 50.9164 6.11828C50.5887 6.08128 49.6399 6.06278 48.0753 6.06278H46.1593ZM46.1593 12.6117V17.0147H49.2303C49.992 17.0381 50.7543 17.0045 51.511 16.9143C51.9771 16.8397 52.4034 16.6074 52.7188 16.2562C53.0435 15.8649 53.2095 15.366 53.1839 14.8581C53.1984 14.4116 53.0727 13.9717 52.8245 13.6002C52.5698 13.2424 52.205 12.9779 51.7859 12.8469C51.3331 12.6884 50.3499 12.61 48.8365 12.6117H46.1593Z" fill="#231F20"/>
<path d="M58.5811 14.43L61.8159 14.1155C62.0115 15.2008 62.4061 15.9989 62.9999 16.5099C63.5936 17.0208 64.3971 17.2754 65.4101 17.2737C66.4673 17.2737 67.2892 17.0464 67.831 16.5945C68.079 16.4101 68.2813 16.1712 68.4224 15.8963C68.5636 15.6214 68.6397 15.3177 68.645 15.0088C68.6547 14.6473 68.5337 14.2944 68.3041 14.0151C67.972 13.6794 67.56 13.4338 67.1068 13.3015C66.7175 13.1658 65.8304 12.9262 64.4455 12.5826C62.6625 12.1404 61.4115 11.5977 60.6927 10.9546C60.2117 10.5478 59.8264 10.0398 59.5642 9.46696C59.302 8.89412 59.1693 8.27049 59.1757 7.64053C59.1749 6.80222 59.4232 5.9826 59.8893 5.28576C60.3907 4.5352 61.1075 3.95387 61.9454 3.61813C62.976 3.20765 64.0792 3.01074 65.1882 3.03934C67.2549 3.03934 68.8106 3.49303 69.8554 4.40041C70.9002 5.30778 71.449 6.51644 71.5019 8.02638L68.1772 8.17438C68.0345 7.32867 67.7306 6.71818 67.2601 6.34818C66.7897 5.97818 66.092 5.79318 65.1459 5.79318C64.1997 5.79318 63.4254 5.9914 62.8783 6.38782C62.7115 6.50032 62.5757 6.65295 62.4833 6.83167C62.391 7.0104 62.345 7.20948 62.3497 7.4106C62.3502 7.60382 62.395 7.79436 62.4807 7.96755C62.5664 8.14073 62.6907 8.29196 62.844 8.40959C63.2633 8.76197 64.2817 9.12933 65.8991 9.51166C67.5165 9.89399 68.7128 10.2886 69.488 10.6956C70.2356 11.0777 70.8651 11.656 71.309 12.3686C71.764 13.18 71.9922 14.0991 71.9694 15.0292C71.9466 15.9593 71.6737 16.866 71.1795 17.6542C70.6502 18.4892 69.8717 19.1364 68.9542 19.5042C67.8107 19.938 66.5929 20.1418 65.3705 20.1042C63.2897 20.1042 61.6908 19.6232 60.5738 18.6612C59.4567 17.6992 58.7925 16.2888 58.5811 14.43Z" fill="#231F20"/>
<path d="M85.3132 13.7348L88.5374 14.7576C88.0423 16.5548 87.2204 17.8894 86.0717 18.7615C84.9229 19.6337 83.4641 20.0741 81.6951 20.0829C79.5104 20.0829 77.7132 19.3359 76.3037 17.8418C74.8942 16.3477 74.1895 14.3048 74.1895 11.7131C74.1895 8.97333 74.8942 6.84496 76.3037 5.32797C77.7132 3.81099 79.5747 3.05249 81.888 3.05249C83.9019 3.05249 85.5378 3.64801 86.7958 4.83905C87.5464 5.54381 88.1084 6.55513 88.4819 7.87303L85.1916 8.66588C85.0386 7.86636 84.6042 7.14813 83.967 6.64145C83.3299 6.13477 82.5323 5.87318 81.7189 5.90411C81.1562 5.88658 80.5969 5.99631 80.0825 6.22511C79.5682 6.45392 79.1121 6.79589 78.7483 7.22553C77.9872 8.10648 77.6066 9.52569 77.6066 11.4831C77.6066 13.5657 77.981 15.0483 78.7299 15.931C79.0841 16.3595 79.5317 16.7013 80.0383 16.9304C80.5449 17.1594 81.0971 17.2696 81.6528 17.2525C82.5017 17.2672 83.3242 16.9571 83.9521 16.3856C84.5829 15.8236 85.0365 14.94 85.3132 13.7348Z" fill="#231F20"/>
</svg>
