<svg xmlns="http://www.w3.org/2000/svg" viewBox="0 0 87 34" xmlns:v="https://vecta.io/nano"><path d="M62,25.4V3h4.5v22.4H62z" fill="#f7a600"/><path d="M9.6 32H0V9.6h9.2c4.5 0 7.1 2.4 7.1 6.3 0 2.5-1.7 4.1-2.8 4.6 1.4.6 3.2 2 3.2 5 0 4.2-3 6.5-7.1 6.5zm-.7-18.5H4.5v5.1h4.4c1.9 0 3-1 3-2.6 0-1.4-1.1-2.5-3-2.5zm.3 9.1H4.5v5.5h4.7c2 0 3-1.3 3-2.8s-1-2.7-3-2.7zm21.2.2V32h-4.5v-9.2L19 9.6h4.9l4.3 9 4.2-9h4.9l-6.9 13.2zM50 32h-9.6V9.6h9.2c4.5 0 7.1 2.4 7.1 6.3 0 2.5-1.7 4.1-2.8 4.6 1.4.6 3.2 2 3.2 5 0 4.2-2.9 6.5-7.1 6.5zm-.7-18.5h-4.4v5.1h4.4c1.9 0 3-1 3-2.6 0-1.4-1.1-2.5-3-2.5zm.3 9.1h-4.7v5.5h4.7c2 0 3-1.3 3-2.8s-1-2.7-3-2.7zM81 13.5V32h-4.5V13.5h-6V9.6H87v3.9h-6z"/></svg>