<svg width="155" height="52" viewBox="0 0 155 52" fill="none" xmlns="http://www.w3.org/2000/svg">
<path d="M23.6158 13.2197C22.9313 19.1023 17.883 23.7441 11.7865 23.7441C5.21943 23.7441 0 18.4391 0 11.8934C0 5.32638 5.24082 0 11.7651 0C16.0433 0 19.8296 2.22467 21.9045 5.58307L18.1824 8.23557C16.5139 5.7756 14.1823 4.57769 11.8079 4.57769C7.95749 4.57769 4.91995 7.85053 4.91995 11.9148C4.91995 15.9578 7.97888 19.1878 11.8079 19.1878C15.2519 19.1878 18.161 16.6851 18.8028 13.2411H23.6158V13.2197Z" fill="#032572"/>
<path d="M41.6274 15.5941C41.6274 20.022 37.9053 23.7013 33.4346 23.7013C28.9638 23.7013 25.3701 20.0434 25.3701 15.5941C25.3701 11.1019 28.9638 7.46545 33.4346 7.46545C37.9053 7.46545 41.6274 11.1019 41.6274 15.5941ZM37.1566 15.5941C37.1566 13.4122 35.5523 11.8292 33.4346 11.8292C31.4238 11.8292 29.7981 13.3908 29.7981 15.5941C29.7981 17.8187 31.4238 19.3589 33.4346 19.3589C35.5523 19.3375 37.1566 17.7974 37.1566 15.5941Z" fill="#032572"/>
<path d="M43.6807 2.56707C43.6807 1.32639 44.8572 0.171265 46.2048 0.171265C47.6808 0.171265 48.8145 1.305 48.8145 2.56707C48.8145 3.91471 47.6808 5.06983 46.2048 5.06983C44.8572 5.04843 43.6807 3.91471 43.6807 2.56707ZM48.4295 23.3378H44.0657V7.7865H48.4295V23.3378Z" fill="#032572"/>
<path d="M67.1895 23.3376H62.8471V15.5726C62.8471 13.0698 61.3925 11.8078 59.6171 11.8078C57.6705 11.8078 55.895 13.0698 55.895 15.5726V23.3376H51.5312V7.78623H55.895V8.85578C56.7507 7.87179 58.5689 7.44397 59.9807 7.44397C64.2376 7.44397 67.1895 11.0805 67.1895 15.5726V23.3376Z" fill="#032572"/>
<path d="M70.6975 23.3378V0.406494H78.6764C84.0669 0.406494 88.1954 4.44941 88.1954 9.43354C88.1954 15.3161 84.2809 19.3804 78.2272 19.3804H75.4891V23.3591H70.6975V23.3378ZM78.0774 15.0594C81.4572 15.0594 83.3824 13.0059 83.3824 9.79719C83.3824 6.99495 81.6925 4.70611 78.3555 4.70611H75.4677V15.0594H78.0774V15.0594Z" fill="#032572"/>
<path d="M104.902 20.4498C103.576 22.4177 100.838 23.6798 98.057 23.6798C93.3723 23.6798 89.6289 20.0219 89.6289 15.5726C89.6289 11.0805 93.2226 7.44397 97.6933 7.44397C101.544 7.44397 104.496 10.0323 105.458 12.9201L96.7735 19.1449C97.18 19.2946 97.6078 19.3374 98.057 19.3374C99.3832 19.3374 100.709 18.8668 101.415 17.7759L104.902 20.4498ZM94.1852 16.5994L99.8539 12.5564C99.2335 12.0858 98.5276 11.8078 97.6933 11.8078C95.6826 11.8078 94.0569 13.3693 94.0569 15.5726C94.0569 15.9576 94.0996 16.2999 94.1852 16.5994Z" fill="#032572"/>
<path d="M122.785 0.406402V23.3377H118.421V22.2253C117.737 23.1238 116.047 23.6799 114.635 23.6799C110.378 23.6799 106.998 20.022 106.998 15.5727C106.998 11.0806 110.485 7.44407 114.635 7.44407C116.025 7.44407 117.737 8.12859 118.421 8.85589V0.38501H122.785V0.406402ZM118.614 15.5941C118.614 13.4122 117.095 11.8292 115.063 11.8292C113.052 11.8292 111.426 13.3908 111.426 15.5941C111.426 17.8188 113.052 19.3589 115.063 19.3589C117.095 19.3375 118.614 17.7974 118.614 15.5941Z" fill="#032572"/>
<path d="M125.502 2.56707C125.502 1.32639 126.678 0.171265 128.026 0.171265C129.502 0.171265 130.636 1.305 130.636 2.56707C130.636 3.91471 129.502 5.06983 128.026 5.06983C126.678 5.04843 125.502 3.91471 125.502 2.56707ZM130.251 23.3378H125.887V7.7865H130.251V23.3378Z" fill="#032572"/>
<path d="M148.476 7.80771V23.359H144.112V22.2467C143.427 23.1451 141.737 23.7013 140.326 23.7013C136.069 23.7013 132.689 20.0434 132.689 15.5941C132.689 11.1019 136.176 7.46545 140.326 7.46545C141.716 7.46545 143.427 8.14997 144.112 8.87727V7.80771H148.476V7.80771ZM144.283 15.5941C144.283 13.4122 142.764 11.8292 140.732 11.8292C138.721 11.8292 137.096 13.3908 137.096 15.5941C137.096 17.8187 138.721 19.3589 140.732 19.3589C142.786 19.3375 144.283 17.7974 144.283 15.5941Z" fill="#032572"/>
<path d="M155 18.974H150.636V23.3378H155V18.974Z" fill="#ED3A4D"/>
<path d="M155 27.723H0V51.4671H155V27.723Z" fill="#ED3A4D"/>
<path d="M6.0752 46.7181V32.9423H13.391V35.5306H8.9416V38.0975H14.1183V40.7072H8.9416V46.7395H6.0752V46.7181Z" fill="white"/>
<path d="M18.8459 46.7181H15.9795V32.9423H18.8459V46.7181Z" fill="white"/>
<path d="M31.2522 32.9637H34.1186V46.9749L24.3215 38.8249V46.7396H21.4551V32.707L31.2522 40.9212V32.9637Z" fill="white"/>
<path d="M39.1883 46.7181V35.5306H35.7871V32.9423H45.6698V35.5306H42.0547V46.7181H39.1883Z" fill="white"/>
<path d="M47.3389 46.7181V32.9423H54.6546V35.5306H50.2053V38.0975H55.3819V40.7072H50.2053V44.1298H55.8739V46.7181H47.3389Z" fill="white"/>
<path d="M71.5319 40.6431C71.1255 44.1727 68.0879 46.9535 64.4301 46.9535C60.4941 46.9535 57.3496 43.7662 57.3496 39.8303C57.3496 35.8943 60.4941 32.707 64.4087 32.707C66.9756 32.707 69.2431 34.0333 70.4838 36.044L68.2377 37.627C67.2323 36.151 65.8419 35.4237 64.4087 35.4237C62.0984 35.4237 60.2588 37.3917 60.2588 39.8303C60.2588 42.2475 62.0984 44.194 64.4087 44.194C66.4836 44.194 68.2163 42.6967 68.6013 40.6217L71.5319 40.6431Z" fill="white"/>
<path d="M76.2165 32.9637V38.119H82.5269V32.9637H85.4147V46.7396H82.5483V40.7073H76.2165V46.7396H73.3501V32.9637H76.2165Z" fill="white"/>
<path d="M105.608 32.9637H108.474V46.9749L98.6772 38.8249V46.7396H95.8108V32.707L105.608 40.9212V32.9637Z" fill="white"/>
<path d="M111.105 46.7181V32.9423H118.421V35.5306H113.972V38.0975H119.149V40.7072H113.972V44.1298H119.641V46.7181H111.105Z" fill="white"/>
<path d="M136.732 32.9636H139.705L132.71 46.9748L129.694 41.2848L126.87 46.9534L119.512 32.9423H122.806L126.977 41.0281L128.261 38.5253L125.33 32.9423H128.625L132.796 41.0281L136.732 32.9636Z" fill="white"/>
<path d="M139.941 36.6858C139.941 34.3541 142.08 32.707 143.984 32.707C145.353 32.707 146.636 33.2204 147.706 34.4825L145.46 36.1296C145.096 35.7446 144.476 35.4451 144.005 35.4451C143.256 35.4451 142.722 35.9157 142.722 36.6644C142.722 37.2847 143.192 37.8623 144.647 37.9479C147 38.0976 148.925 39.6805 148.925 42.3544C148.925 45.0283 146.679 46.9535 144.262 46.9535C142.7 46.9535 141.117 46.3759 139.812 44.9427L142.187 43.2101C142.807 44.0015 143.47 44.2154 144.283 44.2154C145.224 44.2154 145.973 43.4668 145.973 42.5683C145.973 41.456 145.224 40.7715 143.898 40.6217C141.502 40.3437 139.941 38.8463 139.941 36.6858Z" fill="white"/>
</svg>
