<svg width="155" height="37" viewBox="0 0 155 37" fill="none" xmlns="http://www.w3.org/2000/svg">
<path d="M53.97 14.8725C53.3164 14.2258 52.7561 13.764 52.0091 13.4868C51.3555 13.1173 50.5152 12.9326 49.6748 12.9326C48.7411 12.9326 47.9941 13.1173 47.3405 13.3945C46.6868 13.6716 46.1266 14.1335 45.6597 14.6877C45.1929 15.242 44.9127 15.8886 44.6326 16.6276C44.4459 17.3666 44.2591 18.1056 44.2591 18.937C44.2591 19.7684 44.3525 20.5074 44.6326 21.154C44.9127 21.8006 45.2862 22.4473 45.7531 23.0015C46.22 23.5558 46.7802 23.9253 47.5272 24.2024C48.1808 24.4795 48.9278 24.6643 49.8615 24.6643C50.7953 24.6643 51.5423 24.4795 52.1959 24.2024C52.8495 23.8329 53.5031 23.371 54.0634 22.8168L56.3977 25.1262C55.5573 26.0499 54.5302 26.6965 53.4097 27.1584C52.2893 27.5279 51.0754 27.805 49.7682 27.805C48.4609 27.805 47.2471 27.6203 46.1266 27.1584C45.0061 26.6965 44.0724 26.1423 43.232 25.3109C42.3917 24.5719 41.8314 23.5558 41.3646 22.5396C40.8977 21.4311 40.7109 20.2302 40.7109 18.937C40.7109 17.6437 40.8977 16.4428 41.3646 15.3343C41.8314 14.2258 42.3917 13.3021 43.232 12.4707C43.979 11.6393 45.0061 11.0851 46.0332 10.6232C47.1537 10.1613 48.3676 9.97656 49.7682 9.97656C51.0754 9.97656 52.1959 10.1613 53.4097 10.6232C54.5302 11.0851 55.5573 11.7317 56.3977 12.6555L53.97 14.8725Z" fill="#111111"/>
<path d="M55.5571 18.8445C55.5571 17.5513 55.8372 16.4428 56.3041 15.3343C56.771 14.2258 57.4246 13.302 58.265 12.4706C59.1053 11.6393 60.0391 10.9926 61.1595 10.5308C62.28 10.0689 63.4939 9.79175 64.8011 9.79175C66.1083 9.79175 67.3222 10.0689 68.4427 10.5308C69.5632 10.9926 70.4969 11.6393 71.3373 12.4706C72.1776 13.302 72.8312 14.2258 73.2981 15.3343C73.765 16.4428 74.0451 17.5513 74.0451 18.8445C74.0451 20.1378 73.765 21.2463 73.2981 22.3548C72.8312 23.4633 72.1776 24.3871 71.3373 25.2185C70.4969 26.0498 69.5632 26.6965 68.4427 27.1583C67.3222 27.6202 66.1083 27.8974 64.8011 27.8974C63.4939 27.8974 62.28 27.6202 61.1595 27.1583C60.0391 26.6965 59.1053 26.0498 58.265 25.2185C57.4246 24.3871 56.771 23.4633 56.3041 22.3548C55.8372 21.2463 55.5571 20.0454 55.5571 18.8445ZM59.1053 18.8445C59.1053 19.6759 59.1987 20.5073 59.4788 21.2463C59.7589 21.9853 60.1324 22.6319 60.5993 23.0938C61.0662 23.6481 61.7198 24.0176 62.3734 24.2947C63.1204 24.5718 63.8674 24.7566 64.7077 24.7566C65.5481 24.7566 66.3885 24.5718 67.0421 24.2947C67.7891 24.0176 68.3493 23.5557 68.8162 23.0938C69.283 22.5396 69.6565 21.9853 69.9367 21.2463C70.2168 20.5073 70.3101 19.6759 70.3101 18.8445C70.3101 18.0132 70.2168 17.1818 69.9367 16.4428C69.6565 15.7038 69.283 15.0572 68.8162 14.5953C68.3493 14.041 67.6957 13.6715 67.0421 13.3944C66.2951 13.1173 65.5481 12.9325 64.7077 12.9325C63.8674 12.9325 63.027 13.1173 62.3734 13.3944C61.6264 13.6715 61.0662 14.1334 60.5993 14.5953C60.1324 15.1495 59.7589 15.7038 59.4788 16.4428C59.1987 17.1818 59.1053 18.0132 59.1053 18.8445Z" fill="#111111"/>
<path d="M75.6326 10.2537H78.9006V27.3431H75.6326V10.2537Z" fill="#111111"/>
<path d="M81.3281 10.2537H84.5962V12.9325H84.6896C85.0631 12.0088 85.8101 11.2698 86.8372 10.7155C87.8643 10.1613 89.0781 9.88416 90.3854 9.88416C91.2257 9.88416 91.9727 9.97653 92.8131 10.2537C93.5601 10.5308 94.2137 10.9003 94.8673 11.4545C95.4275 12.0088 95.8944 12.6554 96.2679 13.4868C96.6414 14.3182 96.7348 15.3343 96.7348 16.4428V27.4355H93.3733V17.2742C93.3733 16.4428 93.2799 15.7962 92.9998 15.2419C92.8131 14.6877 92.5329 14.2258 92.1595 13.8563C91.786 13.4868 91.4125 13.3021 90.9456 13.1173C90.4787 12.9325 90.0119 12.8402 89.4516 12.8402C88.798 12.8402 88.1444 12.9325 87.5842 13.2097C87.0239 13.3944 86.4637 13.7639 86.0902 14.2258C85.7167 14.6877 85.3432 15.2419 85.0631 15.9809C84.7829 16.7199 84.6896 17.5513 84.6896 18.5675V27.3431H81.4215L81.3281 10.2537Z" fill="#111111"/>
<path d="M116.25 27.3432H112.982V24.9414H112.888C112.235 25.8652 111.395 26.6042 110.274 27.0661C109.154 27.5279 108.033 27.8051 106.819 27.8051C105.512 27.8051 104.298 27.6203 103.178 27.1584C102.057 26.6966 101.123 26.0499 100.376 25.2186C99.6295 24.3872 98.9758 23.4634 98.6023 22.3549C98.2288 21.2464 97.9487 20.1379 97.9487 18.8446C97.9487 17.5514 98.1355 16.3505 98.6023 15.3344C98.9758 14.2259 99.6295 13.3021 100.376 12.4707C101.123 11.6393 102.057 10.9927 103.178 10.5308C104.298 10.069 105.512 9.88421 106.819 9.88421C108.033 9.88421 109.247 10.1613 110.367 10.6232C111.488 11.1775 112.328 11.8241 112.888 12.7479H112.982V0.0924072H116.25V27.3432ZM107.286 24.7567C108.126 24.7567 108.967 24.5719 109.62 24.2948C110.367 24.0177 110.928 23.5558 111.395 23.0939C111.861 22.5397 112.235 21.9854 112.515 21.2464C112.795 20.5074 112.888 19.676 112.888 18.8446C112.888 18.0133 112.795 17.1819 112.515 16.4429C112.235 15.7039 111.861 15.0572 111.395 14.5954C110.928 14.0411 110.274 13.6716 109.62 13.3945C108.873 13.1174 108.126 12.9326 107.286 12.9326C106.446 12.9326 105.605 13.1174 104.952 13.3945C104.205 13.6716 103.645 14.1335 103.178 14.5954C102.711 15.1496 102.337 15.7039 102.057 16.4429C101.777 17.1819 101.684 18.0133 101.684 18.8446C101.684 19.676 101.777 20.5074 102.057 21.2464C102.337 21.9854 102.711 22.632 103.178 23.0939C103.645 23.6482 104.298 24.0177 104.952 24.2948C105.605 24.6643 106.352 24.7567 107.286 24.7567Z" fill="#111111"/>
<path d="M117.651 18.8445C117.651 17.5513 117.931 16.4428 118.398 15.3343C118.864 14.2258 119.518 13.302 120.358 12.4706C121.199 11.6393 122.133 10.9926 123.253 10.5308C124.374 10.0689 125.587 9.79175 126.895 9.79175C128.202 9.79175 129.416 10.0689 130.536 10.5308C131.657 10.9926 132.59 11.6393 133.431 12.4706C134.271 13.302 134.925 14.2258 135.392 15.3343C135.858 16.4428 136.139 17.5513 136.139 18.8445C136.139 20.1378 135.858 21.2463 135.392 22.3548C134.925 23.4633 134.271 24.3871 133.431 25.2185C132.59 26.0498 131.657 26.6965 130.536 27.1583C129.416 27.6202 128.202 27.8974 126.895 27.8974C125.587 27.8974 124.374 27.6202 123.253 27.1583C122.133 26.6965 121.199 26.0498 120.358 25.2185C119.518 24.3871 118.864 23.4633 118.398 22.3548C117.837 21.2463 117.651 20.0454 117.651 18.8445ZM121.105 18.8445C121.105 19.6759 121.199 20.5073 121.479 21.2463C121.759 21.9853 122.133 22.6319 122.599 23.0938C123.066 23.6481 123.72 24.0176 124.374 24.2947C125.121 24.5718 125.868 24.7566 126.708 24.7566C127.548 24.7566 128.389 24.5718 129.042 24.2947C129.789 24.0176 130.349 23.5557 130.816 23.0938C131.283 22.5396 131.657 21.9853 131.937 21.2463C132.217 20.5073 132.31 19.6759 132.31 18.8445C132.31 18.0132 132.217 17.1818 131.937 16.4428C131.657 15.7038 131.283 15.0572 130.816 14.5953C130.349 14.041 129.696 13.6715 129.042 13.3944C128.389 13.1173 127.548 12.9325 126.708 12.9325C125.868 12.9325 125.027 13.1173 124.374 13.3944C123.72 13.6715 123.066 14.1334 122.599 14.5953C122.133 15.1495 121.759 15.7038 121.479 16.4428C121.199 17.1818 121.105 18.0132 121.105 18.8445Z" fill="#111111"/>
<path d="M136.512 18.8445C136.512 17.5513 136.792 16.4428 137.259 15.3343C137.726 14.2258 138.379 13.302 139.22 12.4706C140.06 11.6393 140.994 10.9926 142.114 10.5308C143.235 10.0689 144.449 9.79175 145.756 9.79175C147.063 9.79175 148.277 10.0689 149.398 10.5308C150.518 10.9926 151.452 11.6393 152.292 12.4706C153.132 13.302 153.786 14.2258 154.253 15.3343C154.72 16.4428 155 17.5513 155 18.8445C155 20.1378 154.72 21.2463 154.253 22.3548C153.786 23.4633 153.132 24.3871 152.292 25.2185C151.452 26.0498 150.518 26.6965 149.398 27.1583C148.277 27.6202 147.063 27.8974 145.756 27.8974C144.449 27.8974 143.235 27.6202 142.114 27.1583C140.994 26.6965 140.06 26.0498 139.22 25.2185C138.379 24.3871 137.726 23.4633 137.259 22.3548C136.792 21.2463 136.512 20.0454 136.512 18.8445ZM140.06 18.8445C140.06 19.6759 140.154 20.5073 140.434 21.2463C140.714 21.9853 141.087 22.6319 141.554 23.0938C142.021 23.6481 142.675 24.0176 143.328 24.2947C144.075 24.5718 144.822 24.7566 145.663 24.7566C146.503 24.7566 147.343 24.5718 147.997 24.2947C148.744 24.0176 149.304 23.5557 149.771 23.0938C150.238 22.5396 150.611 21.9853 150.891 21.2463C151.172 20.5073 151.265 19.6759 151.265 18.8445C151.265 18.0132 151.172 17.1818 150.891 16.4428C150.611 15.7038 150.238 15.0572 149.771 14.5953C149.304 14.041 148.651 13.6715 147.997 13.3944C147.25 13.1173 146.503 12.9325 145.663 12.9325C144.822 12.9325 143.982 13.1173 143.328 13.3944C142.581 13.6715 142.021 14.1334 141.554 14.5953C141.087 15.1495 140.714 15.7038 140.434 16.4428C140.154 17.1818 140.06 18.0132 140.06 18.8445Z" fill="#111111"/>
<path d="M78.9006 2.77136H75.6326V6.46638H78.9006V2.77136Z" fill="#111111"/>
<path fill-rule="evenodd" clip-rule="evenodd" d="M18.2075 0V6.46629L28.0117 12.4707V24.4795L18.2075 30.4839V36.9502L33.1473 27.7127V9.23755L18.2075 0Z" fill="#111111"/>
<path fill-rule="evenodd" clip-rule="evenodd" d="M14.9398 6.46629V0L0 9.23755V27.7127L14.9398 36.9502V30.4839L5.13554 24.4795V12.4707L14.9398 6.46629Z" fill="#111111"/>
<path fill-rule="evenodd" clip-rule="evenodd" d="M18.2075 12.4708V24.9415L22.8762 22.6321V14.7802L18.2075 12.4708Z" fill="#111111"/>
<path fill-rule="evenodd" clip-rule="evenodd" d="M10.271 5.5426V15.7039L14.9397 13.3945V5.5426H10.271Z" fill="#111111"/>
<path fill-rule="evenodd" clip-rule="evenodd" d="M10.271 21.7084V31.8697H14.9397V24.0178L10.271 21.7084Z" fill="#111111"/>
</svg>
