<svg xmlns="http://www.w3.org/2000/svg" xmlns:xlink="http://www.w3.org/1999/xlink" width="196" height="42" xmlns:v="https://vecta.io/nano"><defs><path id="A" d="M0 41.789h195.904V0H0z"/></defs><g fill-rule="evenodd"><path fill="#555" d="M56.776 23.02c0 4.584 2.122 8.487 7.162 8.487 3.946 0 6.55-2.491 6.566-5.614h1.326v.05c0 3.67-3.1 6.793-7.892 6.793-5.985 0-8.522-4.368-8.522-9.865v-3.837c0-5.48 2.653-9.915 8.456-9.915 5.024 0 7.81 3.57 7.81 6.892v.05h-1.327c-.033-2.69-2.355-5.697-6.483-5.697-4.891 0-7.096 3.887-7.096 8.52v4.136zm21.087-.232v2.159c0 4.285 2.371 6.56 5.67 6.56 3.25 0 5.654-2.226 5.654-6.56v-2.16c0-4.284-2.404-6.61-5.67-6.61s-5.654 2.292-5.654 6.61m12.667-.132v2.441c0 4.866-2.951 7.64-7.013 7.64s-6.98-2.774-6.98-7.64v-2.441c0-4.9 2.885-7.69 6.98-7.69 4.029 0 7.013 2.857 7.013 7.69"/><mask id="B" fill="#fff"><use xlink:href="#A"/></mask><path fill="#555" d="M96.182 32.736h1.326v-17.19h-1.326v17.19zm.663-22.903a1.19 1.19 0 011.194 1.196c0 .664-.53 1.18-1.194 1.18a1.163 1.163 0 01-1.177-1.18c0-.664.514-1.196 1.177-1.196zm7.112 5.713h1.326v3.19h.067c.563-1.629 2.32-3.472 5.52-3.472 3.449 0 5.97 2.209 5.97 6.228v11.244h-1.344V21.658c0-2.99-1.757-5.148-4.824-5.148-3.598 0-5.389 2.823-5.389 5.746v10.48h-1.326v-17.19z" mask="url(#B)"/><path fill="#303030" d="M123.767 26.242c.216 2.242 2.09 4.236 5.82 4.236 3.283 0 5.438-1.628 5.438-4.236 0-2.042-1.26-3.155-3.93-3.853l-3.912-1.046c-2.686-.714-5.223-2.408-5.223-5.863 0-4.152 3.68-6.427 7.676-6.427 3.797 0 7.578 2.01 7.66 6.31h-2.486c-.2-2.225-1.874-4.052-5.223-4.052-2.968 0-5.107 1.445-5.107 4.003 0 1.777 1.078 3.006 3.35 3.604l3.83 1.046c3.564.964 5.902 2.541 5.902 6.112 0 4.385-3.697 6.66-8.29 6.66-5.87 0-7.925-3.637-8.008-6.494h2.503zm19.671-15.429h2.437v4.368h3.548v2.076h-3.548V27.97c0 2.142.696 2.674 2.902 2.674.298 0 .547 0 .795-.034v2.01c-.248.05-.829.116-1.41.116-3.962 0-4.724-1.56-4.724-4.916V10.813zm21.567 15.844v-2.142h-4.642c-2.537 0-3.614 1.212-3.614 2.907 0 2.158 1.774 3.205 3.73 3.205 2.587 0 4.526-1.628 4.526-3.97m-5.106 6.079c-3.366 0-5.67-2.076-5.67-5.265 0-3.006 2.089-4.932 6.051-4.95h4.725v-1.876c0-2.441-1.425-3.754-3.896-3.754-2.387 0-3.697 1.18-3.896 3.023h-2.305c.2-3.023 2.272-5.132 6.3-5.132 3.615 0 6.235 2.01 6.235 5.58v12.092h-2.371v-2.26h-.067c-.829 1.396-2.453 2.542-5.106 2.542m12.841-21.923h2.436v4.368h3.549v2.076h-3.549V27.97c0 2.142.697 2.674 2.902 2.674.298 0 .547 0 .796-.034v2.01c-.249.05-.83.116-1.41.116-3.962 0-4.725-1.56-4.725-4.916V10.813zm16.68 3.969c4.096 0 6.053 2.409 6.053 5.132h-2.305c-.083-1.362-.962-3.04-3.847-3.04-2.171 0-3.78.948-3.78 2.808 0 2.01 2.205 2.491 4.311 2.906 3.233.598 6.052 1.412 6.052 4.833 0 3.438-2.802 5.315-6.748 5.315-3.797 0-6.35-1.91-6.35-4.9h2.387c.232 1.595 1.625 2.807 4.162 2.807 2.769 0 4.128-1.295 4.128-2.94 0-2.059-1.89-2.458-4.443-2.989-3.267-.714-5.903-1.66-5.903-4.766 0-3.571 2.985-5.166 6.284-5.166" mask="url(#B)"/><path fill="#ffb347" d="M9.744 30.739L5.46 35.031C1.938 31.19 0 26.172 0 20.888c0-5.61 2.156-10.859 6.071-14.78a20.932 20.932 0 018.464-5.15l1.323 5.954a14.864 14.864 0 00-5.517 3.492 14.767 14.767 0 00-4.326 10.165 14.779 14.779 0 003.73 10.17" mask="url(#B)"/><path fill="#ff9332" d="M20.813 20.882L16.283.487a20.8 20.8 0 0110.29.344c3.41.99 6.54 2.843 9.049 5.357a20.775 20.775 0 015.36 9.29c.867 3.244.939 6.687.21 9.962l-20.379-4.558z" mask="url(#B)"/><path fill="#ea5237" d="M31.238 38.954c-4.85 2.805-10.465 3.559-15.812 2.125a20.955 20.955 0 01-8.718-4.799l4.285-4.291a14.743 14.743 0 009.82 3.725 14.69 14.69 0 0010.46-4.342 14.894 14.894 0 003.482-5.518l5.967 1.334c-1.562 4.956-4.927 9.13-9.484 11.766" mask="url(#B)"/></g></svg>