<svg xmlns="http://www.w3.org/2000/svg" viewBox="0 0 386 81.98" fill="#092d74" xmlns:v="https://vecta.io/nano"><path d="M35.5 0L0 20.5v41L35.5 82 71 61.48v-41zm-14 16.72h.81q13.22 0 26.43 0c.55 0 .81.12.94.72l3.06 13.06c0 .17.06.34.1.55H18.26l3.2-14.33zm9.62 44.5c-1.42 1.11-2.66 2.46-4 3.68a1.51 1.51 0 0 1-.87.35h-4.21a.9.9 0 0 1-.64-.35Q15.14 54.07 8.94 43.21c0-.08-.07-.17-.13-.3l4-3 4.92-3.69a.7.7 0 0 1 1 0q3.64 2.37 7.34 4.68a1 1 0 0 1 .5.95v8.24a1.4 1.4 0 0 0 .43 1.1l5.39 5.2a1.68 1.68 0 0 1 .39.89 3.76 3.76 0 0 1-1.7 3.94zm-2.53-11.09l.27-2.79.61-5.86a1.64 1.64 0 0 0-.13-.68l-2.62-6.87-.24-.67h18.11l-.19.6L42 40.2a4.54 4.54 0 0 0-.26 2.27l.76 7.44v.22zm31.1-2.79l-9.87 17.31a1 1 0 0 1-1 .59h-3.81a1.59 1.59 0 0 1-1-.37l-5.28-4.89a1.58 1.58 0 0 1-.37-.84 3.85 3.85 0 0 1 1.64-4c1.47-1.2 2.76-2.63 4.15-4a1.23 1.23 0 0 0 .43-1v-8.36a.88.88 0 0 1 .43-.86l7.35-4.79c.25-.16.44-.3.76 0l8.9 6.75a1.08 1.08 0 0 1 .13.16zM114.59 29l-3.39 4a10.78 10.78 0 0 0-8.15-3.22c-4.94 0-8.48 3.7-8.48 9.12s3.54 9.1 8.48 9.1c3.59 0 6.49-1.18 8.42-3.43l3.44 3.43c-2.58 3.38-6.71 5.31-12.13 5.31-8.48 0-14.38-5.84-14.38-14.43s5.9-14.54 14.38-14.54c5.15-.02 9.22 1.66 11.81 4.66zm12.93 1.22a10.37 10.37 0 0 1 9.87-5.9v5.9c-5.74-.32-9.39 3.06-9.87 7.94v14.92h-6.17V24.54h6.17zM152 64.21h-5l4.17-11.13-12.11-28.54h6.38l8.45 21.4 8-21.4h6.17zm50.43-25.29c0 8.53-5.37 14.37-13.52 14.37-4.56 0-8-1.82-10.09-5.15v15.35h-6.17V24.54h6.17v4.93c2.09-3.32 5.53-5.15 10-5.15 8.08 0 13.61 5.9 13.61 14.6zm-6.23-.22c0-5.31-3.59-9.23-8.69-9.23s-8.69 3.86-8.69 9.23c0 5.53 3.59 9.34 8.69 9.34s8.69-3.87 8.69-9.34zM225 51.26a13.72 13.72 0 0 1-7 2.09c-4.29 0-8-2.47-8-8.32V30.22h-4v-4.61h4v-7.84h6.11v7.84h8.43v4.61h-8.43v13.69c0 3 1.13 3.86 3.06 3.86a9.88 9.88 0 0 0 4.29-1.24zm32.48-12.45c0 8.58-6.06 14.48-14.86 14.48s-14.92-5.9-14.92-14.48 6.07-14.49 14.92-14.49 14.86 5.85 14.86 14.49zm-23.61 0c0 5.53 3.6 9.28 8.75 9.28s8.69-3.75 8.69-9.28-3.59-9.23-8.69-9.23-8.75 3.81-8.75 9.28zM268.59 50a3.39 3.39 0 1 1-6.76 0 3.38 3.38 0 1 1 6.76 0zm30.53-21l-3.38 4a10.78 10.78 0 0 0-8.15-3.22c-4.94 0-8.48 3.7-8.48 9.12s3.54 9.1 8.48 9.1c3.59 0 6.49-1.18 8.42-3.43l3.44 3.43c-2.58 3.38-6.71 5.31-12.13 5.31-8.48 0-14.38-5.84-14.38-14.43s5.9-14.54 14.38-14.54c5.15-.02 9.18 1.66 11.8 4.66zm32.74 9.81c0 8.58-6.07 14.48-14.87 14.48s-14.91-5.9-14.91-14.48 6.06-14.49 14.92-14.49 14.86 5.85 14.86 14.49zm-23.61 0c0 5.53 3.59 9.28 8.74 9.28s8.7-3.75 8.7-9.28-3.6-9.23-8.7-9.23-8.74 3.81-8.74 9.28zM386 35.32v17.76h-6.17V37c0-4.35-2.58-7-6.76-7-4.88.16-7.83 3.92-7.83 8.91v14.17h-6.18V37c0-4.35-2.52-7-6.7-7-4.94.16-7.94 3.92-7.94 8.91v14.17h-6.12V24.54h6.12v5.52c2-4 5.63-5.74 10.35-5.74 5.1 0 8.59 2.52 9.93 6.87 1.82-4.78 5.63-6.87 10.84-6.87 6.54 0 10.46 4.19 10.46 11z"/></svg>