<svg width="155" height="36" viewBox="0 0 155 36" fill="none" xmlns="http://www.w3.org/2000/svg">
<path fill-rule="evenodd" clip-rule="evenodd" d="M45.938 21.2175C46.4269 21.2175 46.7905 21.083 47.0305 20.8142C47.2675 20.5453 47.3852 20.151 47.3852 19.6297H50.7237L50.746 19.6954C50.7758 20.977 50.3332 22.024 49.424 22.8321C48.5104 23.6387 47.3494 24.0435 45.9365 24.0435C44.166 24.0435 42.7978 23.4893 41.838 22.3795C40.8752 21.2712 40.3938 19.8328 40.3938 18.0628V17.8134C40.3938 16.0524 40.8737 14.6169 41.832 13.5042C42.7888 12.3914 44.1481 11.8342 45.9052 11.8342C47.3897 11.8342 48.573 12.2525 49.4613 13.0844C50.3466 13.9179 50.7758 15.0531 50.746 16.487L50.7251 16.5527H47.3852C47.3852 15.9941 47.263 15.54 47.0186 15.189C46.7726 14.8365 46.403 14.6618 45.9052 14.6618C45.2137 14.6618 44.7293 14.9485 44.4521 15.5206C44.1749 16.0927 44.0348 16.8574 44.0348 17.8134V18.0643C44.0348 19.0502 44.1749 19.8209 44.4521 20.3795C44.7293 20.9381 45.2256 21.216 45.938 21.216M58.8507 15.2921L57.5213 15.2816C57.104 15.2816 56.7612 15.3518 56.4944 15.4937C56.2368 15.6258 56.0283 15.8374 55.8998 16.0972V23.815H52.2483V12.0538H55.6851L55.8148 13.782C56.0592 13.1666 56.3827 12.6886 56.7865 12.3481C57.1808 12.0109 57.6842 11.8293 58.2024 11.8372C58.5413 11.8394 58.8786 11.883 59.2069 11.9672L58.8507 15.2936V15.2921ZM65.7855 18.6289L65.7974 18.7171H65.863L67.796 12.0523H71.6874L67.03 25.5655C66.6693 26.4348 66.2043 27.1518 65.6365 27.7164C65.0656 28.284 64.161 28.5663 62.924 28.5663C62.605 28.5663 62.3472 28.5454 62.1445 28.5066C61.8263 28.4398 61.5098 28.3656 61.1951 28.284L61.6377 25.6746L61.8643 25.7224C61.9281 25.735 61.993 25.741 62.058 25.7403C62.6348 25.7403 63.0566 25.6537 63.3234 25.4819C63.5887 25.3116 63.7884 25.0547 63.9166 24.7112L64.2087 23.9464L60.1682 12.0523H64.0477L65.787 18.6289H65.7855ZM79.8234 17.9553C79.8234 16.962 79.6789 16.1659 79.3912 15.5654C79.1036 14.962 78.6416 14.6618 78.0081 14.6618C77.5968 14.6618 77.2495 14.7364 76.9649 14.8903C76.6817 15.0426 76.4552 15.2637 76.2897 15.5535V20.4676C76.4641 20.7216 76.6921 20.9083 76.9753 21.0322C77.26 21.1562 77.6132 21.2175 78.029 21.2175C78.6699 21.2175 79.1304 20.9501 79.4076 20.4184C79.6848 19.8851 79.8234 19.1398 79.8234 18.1838V17.9553V17.9553ZM83.4644 18.1838C83.4644 19.9523 83.068 21.3713 82.2766 22.4408C81.4837 23.5087 80.3674 24.0435 78.9262 24.0435C78.4089 24.0537 77.8964 23.9422 77.4299 23.7179C76.9839 23.4924 76.5942 23.1692 76.2897 22.7724V28.3378H72.6383V12.0523H76.0528L76.1824 13.3458C76.5133 12.8604 76.9023 12.487 77.3494 12.2256C77.7965 11.9657 78.3152 11.8342 78.9054 11.8342C80.354 11.8342 81.4748 12.3959 82.2721 13.5206C83.0665 14.6438 83.4644 16.1226 83.4644 17.9568V18.1838V18.1838ZM89.3977 9.12771V12.0538H91.3754V14.5975H89.3977V19.9897C89.3977 20.4109 89.4826 20.7126 89.651 20.8978C89.7385 20.991 89.8451 21.0641 89.9634 21.112C90.0818 21.16 90.2091 21.1817 90.3366 21.1756C90.5676 21.1756 90.7494 21.1682 90.8836 21.1532C91.0162 21.1383 91.1876 21.1084 91.3963 21.0666L91.6556 23.7851C91.2958 23.8713 90.9316 23.9381 90.5646 23.9852C90.2397 24.0256 89.8582 24.045 89.4185 24.045C88.2158 24.045 87.3052 23.7238 86.6852 23.0771C86.0652 22.4333 85.7552 21.4116 85.7552 20.0121V14.596H84.1128V12.0538H85.7552V9.12622H89.3977V9.12771ZM95.936 18.0539C95.936 19.0397 96.088 19.8134 96.395 20.375C96.7006 20.9352 97.2207 21.2175 97.9555 21.2175C98.6694 21.2175 99.1806 20.9337 99.4906 20.3691C99.7991 19.8045 99.9556 19.0322 99.9556 18.0539V17.8253C99.9556 16.8694 99.7991 16.1016 99.4906 15.5251C99.1806 14.95 98.6619 14.6618 97.9346 14.6618C97.2147 14.6618 96.7006 14.9515 96.395 15.5311C96.088 16.1121 95.9345 16.8754 95.9345 17.8253V18.0539H95.936ZM92.2831 17.8253C92.2831 16.0568 92.7793 14.6169 93.7734 13.5042C94.7675 12.3914 96.1551 11.8342 97.9346 11.8342C99.7216 11.8342 101.112 12.3914 102.106 13.5042C103.099 14.6169 103.597 16.0568 103.597 17.8253V18.0539C103.597 19.8284 103.099 21.2712 102.106 22.381C101.112 23.4893 99.7275 24.0435 97.9555 24.0435C96.1625 24.0435 94.7675 23.4893 93.7734 22.381C92.7793 21.2712 92.2831 19.8284 92.2831 18.0539V17.8253V17.8253ZM108.567 12.0523L108.709 13.7043C109.089 13.1173 109.561 12.6587 110.124 12.3301C110.694 11.9974 111.343 11.826 112.002 11.8342C113.148 11.8342 114.044 12.2077 114.688 12.9545C115.333 13.7013 115.657 14.8903 115.657 16.5214V23.815H112.002V16.5109C112.002 15.8358 111.865 15.3593 111.588 15.08C111.309 14.8007 110.901 14.6618 110.361 14.6618C110.063 14.6521 109.767 14.7097 109.493 14.8301C109.22 14.9506 108.978 15.1309 108.783 15.3578V23.815H105.142V12.0523H108.567V12.0523ZM122.723 14.6618C122.197 14.6618 121.803 14.85 121.539 15.2264C121.276 15.6043 121.116 16.1076 121.058 16.738L121.091 16.7917H124.235V16.5094C124.235 15.9149 124.113 15.4594 123.869 15.1397C123.623 14.8216 123.243 14.6618 122.723 14.6618M122.982 24.042C121.261 24.042 119.886 23.4998 118.86 22.4139C117.833 21.3265 117.32 19.9643 117.32 18.3257V17.912C117.32 16.1211 117.785 14.6603 118.72 13.5251C119.652 12.3914 120.986 11.8283 122.723 11.8357C124.307 11.8357 125.55 12.3137 126.45 13.2697C127.352 14.2271 127.802 15.5251 127.802 17.1622V19.086H121.125L121.103 19.1517C121.182 19.7537 121.426 20.2481 121.836 20.6364C122.247 21.0233 122.794 21.216 123.478 21.216C124.17 21.216 124.723 21.1622 125.137 21.0532C125.551 20.9456 126.076 20.7574 126.709 20.4886L127.574 22.7276C127.064 23.1055 126.402 23.4191 125.592 23.6686C124.746 23.9231 123.867 24.049 122.983 24.042M139.385 18.8694H139.451L140.715 12.0523H144.086L141.342 23.8164H138.251L136.348 17.5759H136.284L134.372 23.8164H131.292L128.535 12.0523H131.908L133.193 18.9232H133.258L135.16 12.0523H137.463L139.385 18.8694ZM151.489 20.511C151.489 20.2212 151.325 19.9613 150.997 19.7343C150.669 19.5042 150.073 19.3011 149.208 19.1189C147.846 18.85 146.821 18.4333 146.128 17.8687C145.436 17.3026 145.092 16.5318 145.092 15.5535C145.092 14.5169 145.524 13.6386 146.389 12.9171C147.253 12.1957 148.423 11.8357 149.9 11.8357C151.456 11.8357 152.694 12.1853 153.617 12.8843C154.539 13.5833 154.978 14.4885 154.936 15.5968L154.914 15.6625H151.369C151.369 15.1995 151.252 14.847 151.018 14.6065C150.784 14.3675 150.407 14.248 149.889 14.248C149.541 14.2366 149.2 14.3487 148.927 14.5647C148.803 14.6585 148.704 14.7801 148.636 14.9198C148.569 15.0594 148.535 15.2131 148.538 15.3683C148.538 15.6804 148.687 15.9448 148.986 16.1614C149.284 16.3795 149.889 16.5751 150.797 16.7484C152.223 17.0322 153.28 17.4534 153.969 18.015C154.656 18.5767 155 19.3728 155 20.4019C155 21.4609 154.533 22.3317 153.6 23.0158C152.667 23.7029 151.433 24.0435 149.9 24.0435C148.308 24.0435 147.049 23.6387 146.123 22.8261C145.198 22.0136 144.757 21.1084 144.798 20.1077L144.821 20.0434H148.129C148.143 20.6021 148.31 21.0039 148.63 21.2503C148.95 21.4968 149.405 21.6193 149.997 21.6193C150.486 21.6193 150.857 21.5237 151.11 21.331C151.362 21.1398 151.489 20.865 151.489 20.5095" fill="#151011"/>
<mask id="mask0_201_286" style="mask-type:alpha" maskUnits="userSpaceOnUse" x="17" y="17" width="19" height="10">
<path d="M17.8162 26.8861H35.6322L26.7242 17.9241L17.8162 26.8861Z" fill="white"/>
</mask>
<g mask="url(#mask0_201_286)">
<path fill-rule="evenodd" clip-rule="evenodd" d="M17.8162 26.8861H35.6322L26.7242 17.9241L17.8162 26.8861Z" fill="url(#paint0_linear_201_286)"/>
</g>
<mask id="mask1_201_286" style="mask-type:alpha" maskUnits="userSpaceOnUse" x="0" y="8" width="9" height="19">
<path d="M0 26.8861L8.90803 17.924L0 8.96204V26.8861Z" fill="white"/>
</mask>
<g mask="url(#mask1_201_286)">
<path fill-rule="evenodd" clip-rule="evenodd" d="M0 26.8861L8.90803 17.924L0 8.96204V26.8861Z" fill="url(#paint1_linear_201_286)"/>
</g>
<mask id="mask2_201_286" style="mask-type:alpha" maskUnits="userSpaceOnUse" x="17" y="8" width="19" height="10">
<path d="M17.8162 8.96204L26.7242 17.924L35.6322 8.96204H17.8162Z" fill="white"/>
</mask>
<g mask="url(#mask2_201_286)">
<path fill-rule="evenodd" clip-rule="evenodd" d="M17.8162 8.96204L26.7242 17.924L35.6322 8.96204H17.8162Z" fill="url(#paint2_linear_201_286)"/>
</g>
<mask id="mask3_201_286" style="mask-type:alpha" maskUnits="userSpaceOnUse" x="8" y="0" width="19" height="9">
<path d="M8.90796 0L17.816 8.96201L26.724 0H8.90796Z" fill="white"/>
</mask>
<g mask="url(#mask3_201_286)">
<path fill-rule="evenodd" clip-rule="evenodd" d="M8.90796 0L17.816 8.96201L26.724 0H8.90796Z" fill="url(#paint3_linear_201_286)"/>
</g>
<mask id="mask4_201_286" style="mask-type:alpha" maskUnits="userSpaceOnUse" x="17" y="26" width="19" height="10">
<path d="M17.8162 26.886L26.7242 35.848L35.6322 26.886H17.8162Z" fill="white"/>
</mask>
<g mask="url(#mask4_201_286)">
<path fill-rule="evenodd" clip-rule="evenodd" d="M17.8162 26.886L26.7242 35.848L35.6322 26.886H17.8162Z" fill="url(#paint4_linear_201_286)"/>
</g>
<mask id="mask5_201_286" style="mask-type:alpha" maskUnits="userSpaceOnUse" x="0" y="26" width="18" height="10">
<path d="M0 26.886L8.90803 35.848L17.8161 26.886H0Z" fill="white"/>
</mask>
<g mask="url(#mask5_201_286)">
<path fill-rule="evenodd" clip-rule="evenodd" d="M0 26.886L8.90803 35.848L17.8161 26.886H0Z" fill="url(#paint5_linear_201_286)"/>
</g>
<mask id="mask6_201_286" style="mask-type:alpha" maskUnits="userSpaceOnUse" x="17" y="0" width="19" height="9">
<path d="M26.7242 0L17.8162 8.96201H35.6322L26.7242 0Z" fill="white"/>
</mask>
<g mask="url(#mask6_201_286)">
<path fill-rule="evenodd" clip-rule="evenodd" d="M26.7242 0L17.8162 8.96201H35.6322L26.7242 0Z" fill="url(#paint6_linear_201_286)"/>
</g>
<mask id="mask7_201_286" style="mask-type:alpha" maskUnits="userSpaceOnUse" x="0" y="0" width="18" height="9">
<path d="M8.90803 0L0 8.96201H17.8161L8.90803 0Z" fill="white"/>
</mask>
<g mask="url(#mask7_201_286)">
<path fill-rule="evenodd" clip-rule="evenodd" d="M8.90803 0L0 8.96201H17.8161L8.90803 0Z" fill="url(#paint7_linear_201_286)"/>
</g>
<mask id="mask8_201_286" style="mask-type:alpha" maskUnits="userSpaceOnUse" x="8" y="26" width="19" height="10">
<path d="M8.90796 35.848H26.724L17.816 26.886L8.90796 35.848Z" fill="white"/>
</mask>
<g mask="url(#mask8_201_286)">
<path fill-rule="evenodd" clip-rule="evenodd" d="M8.90796 35.848H26.724L17.816 26.886L8.90796 35.848Z" fill="url(#paint8_linear_201_286)"/>
</g>
<mask id="mask9_201_286" style="mask-type:alpha" maskUnits="userSpaceOnUse" x="0" y="17" width="18" height="10">
<path d="M0 26.8861H17.8161L8.90803 17.9241L0 26.8861Z" fill="white"/>
</mask>
<g mask="url(#mask9_201_286)">
<path fill-rule="evenodd" clip-rule="evenodd" d="M0 26.8861H17.8161L8.90803 17.9241L0 26.8861Z" fill="url(#paint9_linear_201_286)"/>
</g>
<mask id="mask10_201_286" style="mask-type:alpha" maskUnits="userSpaceOnUse" x="0" y="8" width="18" height="10">
<path d="M0 8.96204L8.90803 17.924L17.8161 8.96204H0Z" fill="white"/>
</mask>
<g mask="url(#mask10_201_286)">
<path fill-rule="evenodd" clip-rule="evenodd" d="M0 8.96204L8.90803 17.924L17.8161 8.96204H0Z" fill="url(#paint10_linear_201_286)"/>
</g>
<defs>
<linearGradient id="paint0_linear_201_286" x1="17.8162" y1="22.4051" x2="35.6322" y2="22.4051" gradientUnits="userSpaceOnUse">
<stop stop-color="#120812"/>
<stop offset="1" stop-color="#0D051A"/>
</linearGradient>
<linearGradient id="paint1_linear_201_286" x1="0" y1="17.924" x2="8.90803" y2="17.924" gradientUnits="userSpaceOnUse">
<stop stop-color="#EF4B95"/>
<stop offset="1" stop-color="#F64B7E"/>
</linearGradient>
<linearGradient id="paint2_linear_201_286" x1="17.8162" y1="13.443" x2="35.6322" y2="13.443" gradientUnits="userSpaceOnUse">
<stop stop-color="#120812"/>
<stop offset="1" stop-color="#0D051A"/>
</linearGradient>
<linearGradient id="paint3_linear_201_286" x1="8.90796" y1="4.481" x2="26.724" y2="4.481" gradientUnits="userSpaceOnUse">
<stop stop-color="#87002D"/>
<stop offset="1" stop-color="#3B016E"/>
</linearGradient>
<linearGradient id="paint4_linear_201_286" x1="17.8162" y1="31.367" x2="35.6322" y2="31.367" gradientUnits="userSpaceOnUse">
<stop stop-color="#2B002D"/>
<stop offset="1" stop-color="#14004F"/>
</linearGradient>
<linearGradient id="paint5_linear_201_286" x1="0" y1="31.3669" x2="17.8161" y2="31.3669" gradientUnits="userSpaceOnUse">
<stop stop-color="#E60015"/>
<stop offset="1" stop-color="#8E0162"/>
</linearGradient>
<linearGradient id="paint6_linear_201_286" x1="17.8162" y1="4.48109" x2="35.6322" y2="4.48109" gradientUnits="userSpaceOnUse">
<stop stop-color="#2B002D"/>
<stop offset="1" stop-color="#14004F"/>
</linearGradient>
<linearGradient id="paint7_linear_201_286" x1="0" y1="4.481" x2="17.8161" y2="4.481" gradientUnits="userSpaceOnUse">
<stop stop-color="#E60015"/>
<stop offset="1" stop-color="#8E0162"/>
</linearGradient>
<linearGradient id="paint8_linear_201_286" x1="8.90796" y1="31.367" x2="26.724" y2="31.367" gradientUnits="userSpaceOnUse">
<stop stop-color="#87002D"/>
<stop offset="1" stop-color="#3B016E"/>
</linearGradient>
<linearGradient id="paint9_linear_201_286" x1="0" y1="22.4051" x2="17.8161" y2="22.4051" gradientUnits="userSpaceOnUse">
<stop stop-color="#F61749"/>
<stop offset="1" stop-color="#B81789"/>
</linearGradient>
<linearGradient id="paint10_linear_201_286" x1="0" y1="13.443" x2="17.8161" y2="13.443" gradientUnits="userSpaceOnUse">
<stop stop-color="#F61749"/>
<stop offset="1" stop-color="#B81789"/>
</linearGradient>
</defs>
</svg>
