<svg xmlns="http://www.w3.org/2000/svg" width="542.249" height="121.333" xmlns:v="https://vecta.io/nano"><path d="M149.08 41.775q0-6.084-4.193-6.084a6.74 6.74 0 0 0-1.727.164 12.4 12.4 0 0 1-2.22.247 2.4 2.4 0 0 1-1.809-.781 2.7 2.7 0 0 1-.74-1.932q0-2.878 3.442-2.878.082 0 1.228.082 12.29.822 11.472.822h.814l19.747-.576q.574 0 4.261-.247 1.31-.082 2.375-.082 4.261 0 4.261 3.782 0 .658-.235 4.193-.176 2.631-.176 4.851a39.54 39.54 0 0 0 .137 4.029 34.28 34.28 0 0 1 .274 3.535q0 3.124-2.96 3.124-2.96 0-2.96-4.378v-4.295q0-6.938-2.867-8.178-2.131-.908-10.98-.908a49.6 49.6 0 0 0-6.883.251q-3.524.919-3.524 5.011v8.222q0 3.289 1.459 3.782a7.91 7.91 0 0 0 1.946.164h3.325q5.109 0 5.109-3.535c-.015-.853-.084-1.704-.206-2.549a21.66 21.66 0 0 1-.206-2.8q0-3.289 2.919-3.289 2.919 0 2.919 3.535 0 .658-.532 5.1a56.59 56.59 0 0 0-.455 6.66q0 1.644.329 5.838.082.658.411 2.878c.144.953.226 1.914.247 2.878.117.815-.158 1.638-.74 2.22a2.62 2.62 0 0 1-2.22.74q-2.878 0-2.878-3.453c.021-.88.089-1.758.206-2.631s.185-1.751.206-2.631q0-3.535-4.686-3.535h-3.7q-2.384 0-2.919.822a7.5 7.5 0 0 0-.534 3.535v5.1q0 1.315.082 3.535.082 2.713.082 3.618.082 3.289 1.315 4.111.9.576 4.275.576h11.188q4.851 0 6.66-1.439 1.809-1.439 1.809-5.385 0-1.233-.123-3.659-.123-2.426-.124-3.66 0-3.7 2.92-3.7 3.082 0 3.082 3.782 0 1.48-.123 4.522-.123 3.042-.123 4.522 0 1.151.123 3.412.123 2.261.123 3.412 0 3.864-3.782 3.864-.9 0-2.878-.188-.987-.096-3.618-.096.576 0-6.413-.188-6.989-.188-12.086-.189-7.729 0-15.128.576a3.81 3.81 0 0 0-.74.082h-.491q-3.453 0-3.453-2.96 0-2.631 2.549-2.631.411 0 2.22.164a6.56 6.56 0 0 0 1.727.247q4.193 0 4.193-6.166zm69.067 32.554v-5.262q.082-3.371 2.96-3.371 2.878 0 2.874 3.779 0 8.962-2.287 12.5-3.1 4.769-10.207 4.769-6.533 0-9.309-4.193-2.041-3.042-2.041-10.36V52.459q0-1.727-1.6-1.727h-2.69a3.06 3.06 0 0 1-2.228-.863 2.82 2.82 0 0 1-.883-2.1 2.9 2.9 0 0 1 .863-2.055 2.62 2.62 0 0 1 1.932-.9h3.207q1.4 0 1.4-1.562v-8.469q0-3.124 3.207-3.124 2.96 0 2.96 3.124v8.8q0 1.233 1.48 1.233h8.962q3.124 0 3.124 2.878 0 3.042-3.371 3.042h-9.045q-1.151 0-1.151 1.727v20.226q0 8.633 5.753 8.633 5.836-.005 6.09-6.993zm22.857-41.672l-.333 16.018a22.14 22.14 0 0 1 6.02-4.316 15.93 15.93 0 0 1 6.431-1.192q7.091 0 11.38 4.029c2.888 2.754 4.45 6.619 4.288 10.606v13.731q0 4.851.082 5.344.329 4.111 2.138 4.111a5.97 5.97 0 0 0 1.891-.46 5.99 5.99 0 0 1 1.316-.116q3.042 0 3.042 2.8 0 2.8-3.946 2.8a28.4 28.4 0 0 1-3.124-.247 49.44 49.44 0 0 0-5.591-.411 24.86 24.86 0 0 0-3.289.164q-3.453.493-4.275.493a3.61 3.61 0 0 1-2.467-.863 2.77 2.77 0 0 1-.987-2.179 2.3 2.3 0 0 1 .863-1.809 3 3 0 0 1 2.014-.74 6.92 6.92 0 0 1 2.138.411 4.42 4.42 0 0 0 1.4.247q2.467 0 2.549-5.344 0-.987.164-3.864v-7.975q0-8.386-1.651-11.264-2.393-4.275-8.418-4.275-6.52 0-9.491 4.44-2.063 3.042-2.145 9.784v5.92a6.97 6.97 0 0 1-.329 1.644v1.562q0 4.686.085 5.426.423 4.029 2.451 4.029a7.12 7.12 0 0 0 1.9-.37 7.06 7.06 0 0 1 1.818-.37q2.706 0 2.706 2.626 0 2.965-3.642 2.965-1.16 0-3.478-.247a52.88 52.88 0 0 0-5.381-.329q-1.407 0-3.89.247-3.312.329-4.223.329-3.394 0-3.394-3.05 0-2.541 3.182-2.541c.54-.03 1.081.048 1.59.23a10 10 0 0 0 2.009.346q1.34 0 1.8-2.508a75.25 75.25 0 0 0 .54-10.244V53.528q0-12.333-.493-15.58-.493-3.247-2.3-3.248c-.582.027-1.161.109-1.727.247a9.19 9.19 0 0 1-1.809.247q-2.8 0-2.8-2.631a2.49 2.49 0 0 1 .987-1.973 3.6 3.6 0 0 1 2.384-.822q.411 0 2.8.247a32.43 32.43 0 0 0 3.371.164 14.21 14.21 0 0 0 2.055-.206c.625-.112 1.257-.18 1.891-.206q1.891 0 1.891 2.725zm76.874 28.78a10.02 10.02 0 0 1-.412 3.809q-.412.7-2.391.7h-26.218a2.3 2.3 0 0 0-1.4.289c-.243.254-.364.601-.33.951a14.89 14.89 0 0 0 3.71 10.331 11.9 11.9 0 0 0 9.234 4.133 11.85 11.85 0 0 0 6.634-1.975c1.871-1.141 3.263-2.923 3.916-5.015l.743-2.384c.287-1.245 1.448-2.087 2.72-1.973q3.051 0 3.051 3.124 0 5.344-5.426 9.5a19.76 19.76 0 0 1-12.334 4.148q-8.628 0-13.728-5.8-5.1-5.8-5.1-15.58 0-10.031 5.426-16.279a17.84 17.84 0 0 1 14.142-6.249 17.01 17.01 0 0 1 12.744 5.161 18.04 18.04 0 0 1 5.016 13.109zm-29.849-2.072q0 1.151 1.815 1.151h19.72q1.733 0 1.733-1.151a10.2 10.2 0 0 0-3.3-7.564 10.77 10.77 0 0 0-7.756-3.207c-3.123.016-6.127 1.205-8.416 3.33q-3.796 3.33-3.796 7.441zm48.345-12.455v2.26c2.526-3.83 6.841-6.096 11.428-6 3.412-.151 6.752 1.011 9.332 3.248a10.76 10.76 0 0 1 3.577 8.345c.096 2.11-.544 4.188-1.809 5.879a5.81 5.81 0 0 1-4.769 2.261 4.7 4.7 0 0 1-3.207-1.151 3.58 3.58 0 0 1-1.315-2.8 3.29 3.29 0 0 1 .987-2.343 3.1 3.1 0 0 1 2.3-1.028 5.01 5.01 0 0 1 1.069.247c.302-.557.471-1.176.493-1.809-.007-1.604-.789-3.105-2.1-4.029a8.2 8.2 0 0 0-5.221-1.644q-6.413 0-8.551 5.755-1.315 3.535-1.315 10.688v5.426q0 5.509.083 6.166.414 4.686 2.572 4.686a9.5 9.5 0 0 0 2.239-.281c.517-.129 1.047-.2 1.58-.211q2.655 0 2.655 2.591 0 2.835-3.371 2.835h-.329a36.13 36.13 0 0 1-3.741-.288 36.13 36.13 0 0 0-3.741-.288q-3.289 0-5.18.164l-4.6.411q-3.371 0-3.371-2.878 0-2.549 3.153-2.549a6.94 6.94 0 0 1 1.245.082l1.245.247c.382.087.77.142 1.161.164q2.075 0 2.24-3.782v-4.193l-.247-18.664q-.247-4.851-2.467-4.851c-.608.018-1.213.087-1.809.206s-1.201.188-1.809.206q-2.713 0-2.713-2.591 0-2.835 3.535-2.835a21.81 21.81 0 0 1 2.467.206 21.81 21.81 0 0 0 2.467.206 17.62 17.62 0 0 0 2.138-.206c.507-.147 1.034-.216 1.562-.206q2.137.004 2.137 2.348zm45.251-3.742c3.298-.116 6.537.9 9.178 2.878v-.329q0-3.042 2.631-3.042 2.713 0 2.713 2.631 0 .493-.137 2.467a20 20 0 0 0-.274 3.289q0 .987.206 2.878.206 1.891.206 2.878 0 3.124-2.672 3.124a2.39 2.39 0 0 1-2.672-2.631v-2.713q-.082-2.467-2.849-4.234a11.78 11.78 0 0 0-6.484-1.768c-2.275-.08-4.513.6-6.359 1.932a5.82 5.82 0 0 0-2.56 4.81q0 5.262 7.258 6.249l4.784.658q14.021 1.891 14.021 11.593c.103 3.727-1.571 7.282-4.509 9.578q-4.51 3.659-11.807 3.659c-4.258.09-8.42-1.273-11.8-3.864v1.564q0 2.96-2.8 2.96-3.042 0-3.042-3.371c.237-1.416.402-2.843.493-4.275a16.26 16.26 0 0 0 .164-2.3 19.77 19.77 0 0 0-.329-3.7c-.19-.893-.3-1.801-.329-2.713q0-2.878 2.631-2.878 1.727 0 2.179.822a12.68 12.68 0 0 1 .535 4.355q.082 3.535 3.7 5.755a17.36 17.36 0 0 0 9.208 2.22 10.49 10.49 0 0 0 6.66-2.055c1.666-1.197 2.647-3.128 2.631-5.18q0-5.591-8.88-6.5-8.469-.9-12.908-3.33-4.439-2.43-4.44-8.51a11.51 11.51 0 0 1 4.343-9.332q4.344-3.575 11.31-3.575zm47.08 15.375q0-3.289 4.111-3.782a6.4 6.4 0 0 0-2.765-4.522 10.36 10.36 0 0 0-6.066-1.644c-3.612-.091-7.038 1.599-9.162 4.522q-3.467 4.522-3.467 12 0 7.729 3.257 12.127a10.6 10.6 0 0 0 9.029 4.4c2.273.047 4.496-.676 6.305-2.053a10.34 10.34 0 0 0 3.669-5.673q.825-2.878.989-3.289a2.87 2.87 0 0 1 2.642-1.644 3.13 3.13 0 0 1 2.309.9c.607.609.935 1.441.907 2.3a12.29 12.29 0 0 1-1.316 4.939c-.768 1.753-1.824 3.365-3.124 4.769a16.45 16.45 0 0 1-12.576 5.182 17.04 17.04 0 0 1-13.525-5.92q-5.139-5.92-5.139-15.539 0-10.2 5.3-16.32 5.3-6.12 14.1-6.125a16.67 16.67 0 0 1 10.935 3.577 11.25 11.25 0 0 1 4.358 9.085 7.45 7.45 0 0 1-1.685 5.015 5.42 5.42 0 0 1-4.316 1.973 4.88 4.88 0 0 1-3.412-1.233 3.95 3.95 0 0 1-1.358-3.045zm53.36 28.2q-6.742 0-8.3-5.838-4.197 6.17-13.159 6.17-6.66 0-10.647-3.289a10.82 10.82 0 0 1-3.988-8.8 10.67 10.67 0 0 1 5.838-10.031 15.3 15.3 0 0 1 3.823-1.6q1.6-.37 6.454-.946 6.906-.74 9-2.055 2.094-1.315 2.1-4.851a6.5 6.5 0 0 0-2.343-5.3 9.99 9.99 0 0 0-6.536-1.932 12.56 12.56 0 0 0-6.906 2.055q-1.233.822-1.233 1.727 0 .329.74.822a3.2 3.2 0 0 1 1.151 2.8c.026 1.037-.411 2.031-1.192 2.713-.828.725-1.9 1.107-3 1.069-1.348.032-2.646-.505-3.577-1.48-.949-.962-1.469-2.267-1.439-3.618q0-4.6 4.563-7.893a18.41 18.41 0 0 1 11.058-3.289q14.964 0 14.964 14.357v16.573a35 35 0 0 0 .164 4.676q.493 2.871 2.8 2.871 2.878 0 2.878-5.226v-4q0-2.613 2.509-2.613 2.671 0 2.671 3.946v5.1q-.171 7.883-8.393 7.883zm-9.208-16.361v-5.837a10.52 10.52 0 0 1-3.808 2.3 38.05 38.05 0 0 1-7.165 1.151q-9.336.9-9.336 6.906a5.98 5.98 0 0 0 2.261 4.933c1.773 1.289 3.936 1.928 6.125 1.809q5.509 0 8.674-3c2.186-2.182 3.363-5.176 3.249-8.262zm32.805-23.307v2.342a15.91 15.91 0 0 1 13.155-6.249c2.946-.004 5.841.777 8.386 2.261a11.82 11.82 0 0 1 5.344 5.632 19.5 19.5 0 0 1 1.151 7.317V74q0 3.535.082 4.193.411 2.8 2.22 2.8a11.9 11.9 0 0 0 1.932-.206c.556-.11 1.119-.179 1.685-.206a2.6 2.6 0 0 1 1.85.74 2.4 2.4 0 0 1 .781 1.809 2.57 2.57 0 0 1-.987 2.055 3.6 3.6 0 0 1-2.384.822c-1.265-.042-2.528-.153-3.781-.332-1.636-.212-3.283-.321-4.933-.329a31.22 31.22 0 0 0-3.535.164q-4.111.493-4.358.493-3.289 0-3.289-2.878 0-2.549 2.851-2.549c.507.006 1.012.061 1.508.164.66.16 1.331.272 2.007.335q2.012 0 2.18-4.522V61.092a29.05 29.05 0 0 0-.41-6 7.92 7.92 0 0 0-3.194-4.851c-1.798-1.26-3.947-1.921-6.142-1.891q-6.553 0-9.419 4.686-1.966 3.207-1.966 10.935v10.935a16.3 16.3 0 0 0 .493 4.933 1.81 1.81 0 0 0 1.809 1.315 7.97 7.97 0 0 0 1.809-.288 8.13 8.13 0 0 1 1.891-.288q2.549 0 2.549 2.754 0 2.672-3.289 2.672-.658 0-4.275-.493c-1.336-.173-2.682-.255-4.029-.247-1.538.027-3.074.136-4.6.329q-3.618.411-4.111.411-3.453 0-3.453-2.8a2.35 2.35 0 0 1 .682-1.986c.527-.518 1.267-.757 1.998-.645a8.84 8.84 0 0 1 1.549.247 10.39 10.39 0 0 0 2.219.247q2.513 0 2.6-4.769V54.35a10.48 10.48 0 0 0-.712-3.823c-.367-.688-1.108-1.092-1.885-1.028a8.8 8.8 0 0 0-1.716.247 8.8 8.8 0 0 1-1.716.247q-3.015 0-3.015-2.672 0-2.754 3.7-2.754a3.46 3.46 0 0 1 .822.082l3.042.329a11.45 11.45 0 0 0 2.3-.206q2.138-.206 2.22-.206 2.384 0 2.384 2.509zM25.222 57.766c0-1.368.546-2.68 1.515-3.645s2.284-1.504 3.653-1.498l8.568.028a5.15 5.15 0 0 1 5.151 5.151v32.4l3.559-.911a4.29 4.29 0 0 0 3.309-4.177V44.927c0-2.845 2.306-5.151 5.151-5.152h8.594c2.845.001 5.151 2.307 5.151 5.152v37.3l4.243-1.754a4.3 4.3 0 0 0 2.625-3.957V32.049a5.15 5.15 0 0 1 5.15-5.151h8.585a5.15 5.15 0 0 1 5.146 5.151v36.617c7.443-5.394 14.986-11.882 20.972-19.683 1.764-2.3 2.258-5.331 1.316-8.072A60.64 60.64 0 0 0 68.303.67 60.64 60.64 0 0 0 8.055 91.019a7.67 7.67 0 0 0 7.316 3.79c1.624-.143 3.646-.345 6.05-.627a4.29 4.29 0 0 0 3.805-4.258V57.766" fill="#21325b"/><path d="M25.039 109.727a60.66 60.66 0 0 0 96.339-49.061l-.158-4.152c-22.163 33.055-63.085 48.508-96.181 53.213" fill="#979695"/></svg>