<svg xmlns="http://www.w3.org/2000/svg" width="531" height="167" xmlns:v="https://vecta.io/nano"><path d="M51.188.978C49.5.891 48.384 2.379 48.384 2.379L19.459 37.505C8.739 50.714 4.868 59.911 4.868 59.911c-7.538 19.018 7.745 31.466 7.745 31.466 15.906 13.139 33.194 13.07 33.194 13.07-.276-12.033.207-19.156.207-19.156 1.176-12.794 14.798-25.449 14.798-25.449-4.636.358-13.894.338-19.002-4.282s-1.878-15.586-1.878-15.586L53.153 4.933s1.653-2.404-.714-3.606c-.444-.225-.864-.329-1.253-.349zm427.698 0c-.389.01-.81.124-1.255.349-2.371 1.202-.714 3.606-.714 3.606l13.247 35.041s3.236 10.967-1.882 15.586-14.395 4.64-19.041 4.282c0 0 13.651 12.655 14.829 25.449 0 0 .485 7.123.207 19.156 0 0 17.324.07 33.261-13.07 0 0 15.314-12.448 7.761-31.466 0 0-3.88-9.197-14.62-22.405L481.696 2.379s-1.12-1.488-2.811-1.402zM98.043 57.406s-37.197-.141-41.969 32.705v43.092s.562 30.599 43.794 32.845c0 0 22.738 2.386 39.161-19.37l-18.527-12.211s-8.843 11.369-20.212 10.667-22.177-4.913-22.177-16.563v-9.544h58.249s4.071.842 4.071-6.457V91.094s.562-32.284-42.389-33.687zm330.482.291s-37.315.704-42.596 33.443v42.42s1.409 27.81 41.891 31.506c0 0 40.484 2.465 45.589-32.562V87.974s-3.696-28.868-44.884-30.276zm-151.984.281s-37.315.704-42.596 33.443v42.419s1.408 27.811 41.892 31.507c0 0 40.484 2.464 45.588-32.563V88.253s-3.697-28.866-44.884-30.275zm100.988.336c-38.421.485-42.966 30.823-42.966 30.823v75.523h21.707V92.5s3.842-11.626 17.43-12.466c0 0 5.884-16.67 16.67-20.872-3.929-.536-7.585-.806-10.986-.847a212.54 212.54 0 0 0-1.856 0zm-184.547 1.278a115.64 115.64 0 0 0-4.466.055c-23.995.809-33.296 2.697-47.316 6.876 0 0 9.031 8.627 9.436 18.602 0 0 16.042-4.448 26.017-4.044v83.579h21.838v-83.04s16.581-.269 25.344 3.64c0 0-.944-8.358 10.245-18.738 0 0-18.957-6.754-41.098-6.931zM100.543 78.73c9.843.085 18.277 6.321 18.413 13.346v8.844H78.112V90.532s4.779-11.256 21.475-11.79l.956-.005zm328.334.618c17.954-.176 22.354 7.392 22.354 12.672v36.436s-2.465 14.433-20.946 14.081-22.354-9.681-22.354-16.898V93.252s2.993-13.728 20.946-13.904zm-151.984.28c17.954-.176 22.354 7.393 22.354 12.674v36.434s-2.465 14.433-20.946 14.081-22.353-9.68-22.353-16.897V93.533s2.993-13.729 20.946-13.905z" fill="#5c9f04"/></svg>