<svg xmlns="http://www.w3.org/2000/svg" viewBox="0 0 252.416 74.926" xmlns:v="https://vecta.io/nano"><style><![CDATA[.C{fill-rule:evenodd}.D{fill:#282828}.E{fill:#3c7ad2}]]></style><path d="M93.181 19.31v21.508H71.967V22.076A2.767 2.767 0 0 0 69.2 19.31h-7.16v51.256a2.768 2.768 0 0 0 2.767 2.767h7.16v-23.84h21.214v21.072a2.767 2.767 0 0 0 2.767 2.767h7.161V22.076a2.768 2.768 0 0 0-2.768-2.767h-7.159m41.642 12.738v25.6a6.555 6.555 0 0 1-3.2 5.695 7.409 7.409 0 0 1-11.439-6.159v-22.37a2.767 2.767 0 0 0-2.767-2.767h-7.19v26.049a15.283 15.283 0 0 0 15.238 15.239h4.076a15.283 15.283 0 0 0 15.238-15.239V34.813a2.767 2.767 0 0 0-2.767-2.767h-7.189v.001" class="C D"/><path d="M244.68 73.333h7.16V37.08a2.768 2.768 0 0 0-2.768-2.767h-7.159v36.253a2.767 2.767 0 0 0 2.767 2.767m2.197-42.949a5.541 5.541 0 1 0-5.541-5.541 5.54 5.54 0 0 0 5.541 5.541" class="E C"/><path d="M179.716 56.191c0 4.926-4.029 8.204-8.955 8.204s-8.955-3.278-8.955-8.204v-7.028c0-4.926 4.03-8.204 8.955-8.204s8.955 3.278 8.955 8.204zm-8.955-24.17h0c-10.413 0-18.933 7.449-18.933 17.862v5.632c0 10.414 8.52 17.818 18.933 17.818s18.934-7.404 18.934-17.818v-5.632c0-10.413-8.52-17.862-18.934-17.862z" class="C D"/><path d="M224.778 56.191c0 4.926-4.03 8.204-8.955 8.204s-8.955-3.278-8.955-8.204v-7.028c0-4.926 4.029-8.204 8.955-8.204s8.955 3.278 8.955 8.204zm-8.955-24.17h0a20.39 20.39 0 0 0-9.006 2.045V22.031a2.768 2.768 0 0 0-2.768-2.767h-7.159v36.252c0 10.414 8.519 17.818 18.934 17.818s18.933-7.404 18.933-17.818v-5.632c0-10.413-8.52-17.862-18.933-17.862z" class="C E"/><path d="M32.087 23.06c0-10.759-5.241-20.01-9.226-23.023-.017-.009-.305-.171-.281.259C22.243 21.08 11.632 26.71 5.798 34.294-7.665 51.795 4.856 70.982 17.605 74.528c7.135 1.984-1.647-3.511-2.778-15.118-1.367-14.029 17.261-24.737 17.261-36.35" class="C D"/><path d="M38.205 30.131c-.081-.055-.198-.093-.278.04-.219 2.615-2.89 8.208-6.275 13.344-11.481 17.42-4.939 25.818-1.259 30.328 2.135 2.619 0 0 5.339-2.675a24.074 24.074 0 0 0 11.502-18.597 26.941 26.941 0 0 0-9.029-22.44" class="C E"/></svg>