<svg xmlns="http://www.w3.org/2000/svg" width="122" height="28" fill="#23af91" fill-rule="evenodd" xmlns:v="https://vecta.io/nano"><path d="M95.335 13.987l-.023-2.006a12.17 12.17 0 0 0-.173-1.746 5.9 5.9 0 0 0-.489-1.521 4.91 4.91 0 0 0-.966-1.338 6.17 6.17 0 0 0-1.963-1.352c-.796-.322-1.648-.482-2.507-.47a6.53 6.53 0 0 0-2.517.47c-.74.315-1.411.772-1.974 1.346a4.88 4.88 0 0 0-.962 1.338 5.8 5.8 0 0 0-.482 1.521 12.2 12.2 0 0 0-.167 1.746l-.019 2.006.019 2.005a12.2 12.2 0 0 0 .167 1.746 5.81 5.81 0 0 0 .482 1.521 4.94 4.94 0 0 0 .962 1.338 6.06 6.06 0 0 0 1.974 1.343 6.48 6.48 0 0 0 2.517.473 6.37 6.37 0 0 0 2.507-.473 6.11 6.11 0 0 0 1.963-1.343c.394-.389.721-.842.966-1.338a5.89 5.89 0 0 0 .489-1.521 12.17 12.17 0 0 0 .171-1.74l.023-2.005.003.001zm-3.237 0l-.039 1.974a10.02 10.02 0 0 1-.128 1.284c-.048.283-.135.558-.257.818a2.34 2.34 0 0 1-.385.574c-.241.276-.54.495-.876.642a3 3 0 0 1-1.196.242 3.05 3.05 0 0 1-1.202-.242 2.5 2.5 0 0 1-.899-.642 2.26 2.26 0 0 1-.385-.574c-.119-.26-.201-.535-.244-.818a10.72 10.72 0 0 1-.128-1.284l-.035-1.974.035-1.975a10.84 10.84 0 0 1 .128-1.284c.043-.283.125-.558.244-.818a2.28 2.28 0 0 1 .385-.574 2.51 2.51 0 0 1 .899-.642 2.98 2.98 0 0 1 1.202-.241 2.93 2.93 0 0 1 1.196.241 2.5 2.5 0 0 1 .876.642c.156.171.286.365.385.574.122.26.209.535.257.818a10.05 10.05 0 0 1 .128 1.284l.039 1.975zm29.028-8.004c-.001-.156-.128-.282-.284-.284h-2.67c-.156.001-.283.127-.284.284v9.864l-6.512-10.068c-.044-.068-.082-.08-.179-.08h-2.476c-.156.002-.282.128-.284.284v16.006c.002.156.128.281.284.283h2.669c.156-.001.282-.127.283-.283v-9.89l6.513 10.092c.045.068.081.08.179.08h2.475c.156-.001.282-.127.284-.283l.003-16.005zm-17.9 0c-.001-.156-.127-.283-.284-.284h-2.668c-.156.001-.283.127-.284.284v16.005c.001.156.127.283.284.284h2.668c.156-.001.283-.127.284-.284V5.983zm-31.935 8.004L71.323 12a10.22 10.22 0 0 1 .128-1.284c.247-1.426 1.338-2.267 2.732-2.267.909.008 1.734.344 2.261 1.11a3.67 3.67 0 0 1 .514 1.171c.008.044.048.075.092.071h3.14c.045 0 .062-.031.054-.074-.343-1.943-1.379-3.689-3.211-4.553a6.6 6.6 0 0 0-2.874-.61c-1.768 0-3.258.605-4.468 1.816a4.8 4.8 0 0 0-1.354 2.487c-.185.932-.278 2.305-.28 4.12s.092 3.188.28 4.119a4.8 4.8 0 0 0 1.35 2.492c1.21 1.21 2.699 1.815 4.468 1.815a6.62 6.62 0 0 0 2.874-.609c1.832-.864 2.868-2.61 3.211-4.553.008-.045-.009-.074-.054-.074h-3.142c-.045-.005-.085.026-.092.071a3.69 3.69 0 0 1-.514 1.17c-.527.771-1.351 1.103-2.261 1.11-1.394 0-2.485-.84-2.732-2.266a10.06 10.06 0 0 1-.128-1.284l-.027-1.988zM38.122 5.983c-.001-.156-.127-.283-.284-.284H35.17c-.156.001-.283.127-.284.284v16.006c.001.156.128.282.284.283h2.668c.156-.001.282-.127.284-.283v-4.698l2.141-2.56 4.398 7.456a.18.18 0 0 0 .159.085h3.242c.149 0 .176-.093.101-.22l-5.758-9.761 5.283-6.337c.107-.128.062-.25-.105-.25H44.04c-.043-.003-.085.017-.11.051l-5.807 6.964V5.983zm19.436 13.543c-1.501 0-2.863-1.39-2.863-3.049V5.983c-.001-.156-.127-.283-.284-.284h-2.668c-.156.001-.283.127-.284.284v10.452c0 3.654 2.733 5.976 6.098 5.976s6.098-2.322 6.098-5.976V5.983c-.001-.156-.128-.282-.284-.284h-2.669c-.156.001-.282.128-.283.284v10.494c0 1.658-1.363 3.049-2.863 3.049z" fill-rule="nonzero"/><path d="M8.071 13.987l8.282 8.283 5.228-5.228c.935-.842 2.365-.804 3.254.085s.927 2.319.085 3.254l-6.899 6.9a2.38 2.38 0 0 1-3.339 0l-9.953-9.955v5.917c0 1.306-1.059 2.365-2.365 2.365S0 24.55 0 23.244V4.723c0-1.306 1.059-2.365 2.365-2.365s2.365 1.059 2.365 2.365v5.917L14.681.687a2.38 2.38 0 0 1 3.339 0l6.904 6.899c.842.935.804 2.365-.085 3.254s-2.319.927-3.254.085l-5.228-5.228-8.286 8.29zm8.286-2.367h0c-.958-.001-1.821.576-2.188 1.46s-.165 1.903.512 2.58 1.695.88 2.58.514 1.462-1.23 1.462-2.187c0-.628-.249-1.23-.692-1.674s-1.046-.694-1.673-.694v.001z"/></svg>