<svg xmlns="http://www.w3.org/2000/svg" viewBox="0 0 220 48" xmlns:v="https://vecta.io/nano"><path d="M41.51 46.43c-.31-.62-.31-1.42-.31-3.04V4.61c0-1.61 0-2.42.31-3.04.28-.54.72-.98 1.26-1.26C43.38 0 44.18 0 45.79 0h15.04c4.01 0 6.01 0 7.66.44 4.46 1.2 7.95 4.69 9.15 9.16.44 1.65.44 3.66.44 7.67h0c0 2.62-1.18 3.57-2.19 4.39-.75.61-1.4 1.14-1.4 2.21 0 1.06.76 1.59 1.64 2.2 1.22.85 2.67 1.85 2.67 4.64 0 4.01 0 6.02-.44 7.66a12.93 12.93 0 0 1-9.15 9.17c-1.64.44-3.64.44-7.65.44L45.8 48h0c-1.61 0-2.42 0-3.03-.31-.55-.28-.99-.72-1.26-1.26zm54.85-8.27l-1.96 6.15c-.37 1.15-.55 1.73-.9 2.15a2.87 2.87 0 0 1-1.16.85c-.51.2-1.12.2-2.32.2h-8.67L95.27 3.46c.37-1.16.55-1.73.9-2.16a2.87 2.87 0 0 1 1.16-.85c.51-.2 1.12-.2 2.33-.2h9.55c1.21 0 1.82 0 2.33.2a2.87 2.87 0 0 1 1.16.85c.35.43.53 1.01.9 2.16l13.93 44.06h-8.68c-1.21 0-1.81 0-2.32-.2a2.87 2.87 0 0 1-1.16-.85c-.35-.43-.53-1-.9-2.15l-1.96-6.15H96.36zm2.45-7.68h11.24l-5.62-17.64-5.62 17.64zM4.6 47.52c-1.61 0-2.41 0-3.03-.31-.54-.28-.98-.72-1.26-1.26C0 45.33 0 44.53 0 42.91V.48h7.38c1.61 0 2.41 0 3.03.31.54.28.98.72 1.26 1.26.31.62.31 1.42.31 3.04v29.09c0 .81 0 1.21.16 1.52.14.27.36.49.63.63.31.16.71.16 1.51.16h17.18c1.61 0 2.41 0 3.03.31.54.28.98.72 1.26 1.26.31.62.31 1.42.31 3.04v6.43H4.6zM131.26 5.09c0-1.61 0-2.42.31-3.04.27-.54.71-.98 1.26-1.26.61-.31 1.42-.31 3.03-.31h4.23c.97 0 1.46 0 1.89.14a3.01 3.01 0 0 1 1.04.6c.34.31.58.73 1.06 1.57l14.72 25.76V5.09c0-1.61 0-2.42.31-3.04.28-.54.71-.98 1.26-1.26.61-.31 1.42-.31 3.03-.31h6.9v42.43c0 1.61 0 2.42-.31 3.03-.27.54-.71.98-1.25 1.26-.61.31-1.42.31-3.03.32h-4.23c-.97 0-1.46 0-1.89-.14a2.92 2.92 0 0 1-1.04-.6c-.34-.31-.58-.73-1.06-1.58l-14.72-25.76v23.47c0 1.61 0 2.42-.31 3.04-.28.54-.71.98-1.26 1.26-.62.31-1.42.31-3.03.31h-6.9V5.09zM182.71.48h-6.9V42.9c0 1.61 0 2.42.31 3.04.28.54.72.98 1.26 1.26.62.31 1.42.31 3.03.31h6.9V28.32h1.88c.8 0 1.21 0 1.58.1a2.89 2.89 0 0 1 .92.44c.31.23.57.54 1.07 1.16l12.79 15.79c.51.63.76.94 1.07 1.16a2.89 2.89 0 0 0 .92.44c.37.1.77.1 1.58.1H220l-16.92-20.85c-.84-1.04-1.26-1.56-1.42-2.13-.14-.51-.14-1.05 0-1.55.16-.58.58-1.09 1.42-2.13h0 0 0L219.63.48h-10.76c-.8 0-1.2 0-1.57.1-.33.09-.64.24-.92.43-.31.22-.57.53-1.07 1.16L192.8 17.51h0c-.51.62-.76.93-1.07 1.16-.28.2-.59.35-.91.43-.37.1-.77.1-1.57.1h-1.94V5.09c0-1.61 0-2.42-.31-3.04-.28-.54-.72-.98-1.26-1.26-.62-.31-1.42-.31-3.03-.31zM62.64 15.74c.9-1.42 1.68-2.65 1.68-4.22 0-3.18-2.58-5.76-5.76-5.76s-5.76 2.7-5.76 5.76c0 1.57.8 2.8 1.73 4.22 1.27 1.94 2.77 4.24 2.77 8.26s-1.5 6.32-2.77 8.26c-.93 1.42-1.73 2.65-1.73 4.22 0 3.18 2.58 5.76 5.76 5.76s5.76-2.58 5.76-5.76c0-1.57-.78-2.8-1.68-4.22-1.23-1.94-2.7-4.24-2.7-8.26s1.46-6.32 2.7-8.26z" fill-rule="evenodd" fill="#f8e19a"/></svg>