<svg xmlns="http://www.w3.org/2000/svg" width="519.234" height="121.333" xmlns:v="https://vecta.io/nano"><path d="M25.222 57.766c0-1.368.546-2.68 1.515-3.645s2.284-1.504 3.653-1.498l8.568.028a5.15 5.15 0 0 1 5.151 5.151v32.4l3.559-.911a4.29 4.29 0 0 0 3.309-4.177V44.927c0-2.845 2.306-5.151 5.151-5.152h8.594c2.845.001 5.151 2.307 5.151 5.152v37.3l4.243-1.754a4.3 4.3 0 0 0 2.625-3.957V32.049a5.15 5.15 0 0 1 5.15-5.151h8.585a5.15 5.15 0 0 1 5.146 5.151v36.617c7.443-5.394 14.986-11.882 20.972-19.683 1.764-2.3 2.258-5.331 1.316-8.072A60.64 60.64 0 0 0 68.303.67 60.64 60.64 0 0 0 8.055 91.019a7.67 7.67 0 0 0 7.316 3.79c1.624-.143 3.646-.345 6.05-.627a4.29 4.29 0 0 0 3.805-4.258V57.766" fill="#12161c"/><path d="M25.039 109.727a60.66 60.66 0 0 0 96.339-49.061l-.158-4.152c-22.163 33.055-63.085 48.508-96.181 53.213" fill="#f0b90b"/><g fill="#12161c"><path d="M155.064 101.406h-8.49l-1.5 4.26h-4.47l7.8-20.94h4.83l7.77 20.94h-4.47zm-1.14-3.21l-3.12-8.94-3.12 8.94zm28.83-9.36a7.14 7.14 0 0 1 3.78 1.02 6.89 6.89 0 0 1 2.625 2.955 10.25 10.25 0 0 1 .945 4.545 10.25 10.25 0 0 1-.945 4.545 6.89 6.89 0 0 1-2.625 2.955 7.14 7.14 0 0 1-3.78 1.02c-1.27.036-2.521-.317-3.585-1.01a5.5 5.5 0 0 1-2.115-2.68v11.4h-4.23v-24.54h4.23v3.45c.4-1.094 1.141-2.031 2.115-2.67 1.069-.682 2.318-1.027 3.585-.99zm-1.32 3.69c-1.192-.037-2.343.435-3.165 1.3-.866.965-1.314 2.235-1.245 3.53-.066 1.286.382 2.545 1.245 3.5.822.865 1.973 1.337 3.165 1.3a4.16 4.16 0 0 0 3.18-1.275 4.94 4.94 0 0 0 1.2-3.525c.073-1.291-.357-2.56-1.2-3.54-.823-.87-1.983-1.341-3.18-1.29zm17.4-.3a6.95 6.95 0 0 1 2.46-2.505c1.034-.614 2.218-.93 3.42-.915v4.53h-1.23q-4.65 0-4.65 4.32v8.01h-4.23v-16.62h4.23zm17.4-3.39c1.517-.024 3.016.326 4.365 1.02 1.279.67 2.337 1.696 3.045 2.955.765 1.39 1.148 2.959 1.11 4.545.04 1.582-.344 3.146-1.11 4.53-.714 1.254-1.77 2.279-3.045 2.955a9.11 9.11 0 0 1-4.365 1.035 9.11 9.11 0 0 1-4.365-1.035c-1.275-.676-2.331-1.701-3.045-2.955-.766-1.384-1.15-2.948-1.11-4.53-.038-1.586.345-3.155 1.11-4.545.708-1.259 1.766-2.285 3.045-2.955 1.349-.694 2.848-1.044 4.365-1.02zm0 3.66c-1.13-.021-2.217.43-3 1.245a4.93 4.93 0 0 0-1.23 3.615 4.93 4.93 0 0 0 1.23 3.61c.783.815 1.87 1.266 3 1.245 1.13.021 2.217-.43 3-1.245a4.93 4.93 0 0 0 1.23-3.61 4.93 4.93 0 0 0-1.23-3.615c-.783-.815-1.87-1.266-3-1.245zm19.53-3.66c1.267-.037 2.516.308 3.585.99a5.59 5.59 0 0 1 2.145 2.67v-9.03h4.2v22.2h-4.2v-3.48c-.422 1.094-1.174 2.03-2.15 2.68-1.063.692-2.312 1.045-3.58 1.01a7.14 7.14 0 0 1-3.78-1.02 6.89 6.89 0 0 1-2.625-2.955 10.25 10.25 0 0 1-.945-4.545 10.25 10.25 0 0 1 .945-4.545 6.89 6.89 0 0 1 2.625-2.955 7.14 7.14 0 0 1 3.78-1.02zm1.32 3.69c-1.197-.051-2.357.42-3.18 1.29-.843.98-1.273 2.249-1.2 3.54a4.94 4.94 0 0 0 1.2 3.525 4.16 4.16 0 0 0 3.18 1.275c1.191.035 2.34-.44 3.16-1.305.863-.955 1.311-2.214 1.245-3.5.066-1.292-.381-2.557-1.245-3.52-.82-.865-1.969-1.34-3.16-1.305zm29.85-3.48v16.62h-4.23v-3.36a5.3 5.3 0 0 1-2.175 2.625c-1.053.642-2.267.97-3.5.945-1.734.078-3.414-.614-4.59-1.89a7.59 7.59 0 0 1-1.71-5.28v-9.66h4.2v9.18a4.34 4.34 0 0 0 1.02 3.075 3.59 3.59 0 0 0 2.76 1.1 3.77 3.77 0 0 0 2.91-1.17 4.78 4.78 0 0 0 1.08-3.36v-8.82zm12.81-.21c1.934-.068 3.83.548 5.355 1.74a7.6 7.6 0 0 1 2.685 4.74h-4.47a3.45 3.45 0 0 0-1.23-2.085c-.697-.529-1.556-.799-2.43-.765-1.073-.021-2.1.435-2.805 1.245a5.27 5.27 0 0 0-1.125 3.645 5.27 5.27 0 0 0 1.12 3.645c.706.811 1.735 1.267 2.81 1.245.874.034 1.733-.236 2.43-.765a3.45 3.45 0 0 0 1.23-2.085h4.47a7.6 7.6 0 0 1-2.685 4.74c-1.525 1.192-3.421 1.808-5.355 1.74-1.505.028-2.991-.328-4.32-1.035-1.247-.677-2.269-1.704-2.94-2.955a9.3 9.3 0 0 1-1.05-4.53 9.39 9.39 0 0 1 1.05-4.545c.665-1.255 1.688-2.284 2.94-2.955a8.95 8.95 0 0 1 4.32-1.02zm21.42 13.2v3.63h-2.22a6.14 6.14 0 0 1-4.275-1.35q-1.485-1.35-1.485-4.5v-7.2h-2.31v-3.57h2.31v-4.11h4.23v4.11h3.72v3.57h-3.72v7.26a2.34 2.34 0 0 0 .48 1.68 2.24 2.24 0 0 0 1.62.48zm20.25-13.2c1.517-.024 3.016.326 4.365 1.02 1.279.67 2.337 1.696 3.045 2.955.765 1.39 1.148 2.959 1.11 4.545.04 1.582-.344 3.146-1.11 4.53-.714 1.254-1.77 2.279-3.045 2.955a9.11 9.11 0 0 1-4.365 1.035 9.11 9.11 0 0 1-4.37-1.035c-1.273-.676-2.328-1.701-3.04-2.955-.766-1.384-1.15-2.948-1.11-4.53-.038-1.586.345-3.155 1.11-4.545.706-1.258 1.762-2.284 3.04-2.955 1.35-.695 2.852-1.045 4.37-1.02zm0 3.66c-1.13-.021-2.217.43-3 1.245a4.93 4.93 0 0 0-1.23 3.615 4.93 4.93 0 0 0 1.23 3.61c.783.815 1.87 1.266 3 1.245 1.13.021 2.217-.43 3-1.245a4.93 4.93 0 0 0 1.23-3.61 4.93 4.93 0 0 0-1.23-3.615c-.783-.815-1.87-1.266-3-1.245zm21.24-6.33c-.907-.159-1.841.034-2.61.54-.568.628-.841 1.468-.75 2.31v.03h3.36v3.57h-3.36v13.05h-4.23v-13.05h-2.13v-3.57h2.13v-.39a6 6 0 0 1 1.695-4.575c1.404-1.165 3.205-1.74 5.025-1.605q.57 0 .87.03zm17.04 2.37v4.44h7.17v3.87h-7.17v4.71h8.07v4.11h-13.2v-21.21h13.2v4.08zm21.96 12.72v4.41h-2.31c-1.653.102-3.285-.417-4.575-1.455q-1.635-1.455-1.635-4.815v-6.15h-2.25v-4.32h2.25v-4.11h5.13v4.11h3.36v4.32h-3.36v6.24a1.88 1.88 0 0 0 .4 1.38c.389.298.877.438 1.365.39zm15-12.51c1.736-.078 3.415.626 4.575 1.92a7.7 7.7 0 0 1 1.7 5.28v9.72h-5.13v-9.12a3.69 3.69 0 0 0-.885-2.625c-.612-.639-1.471-.984-2.355-.945-.93-.045-1.833.316-2.475.99a4 4 0 0 0-.915 2.82v8.88h-5.13v-22.2h5.13v8.52a5.52 5.52 0 0 1 2.145-2.37 6.29 6.29 0 0 1 3.34-.87zm27.06 8.1c-.005.464-.055.926-.15 1.38h-11.61a3.88 3.88 0 0 0 .96 2.715 3.1 3.1 0 0 0 2.22.825c.676.026 1.341-.175 1.89-.57a2.66 2.66 0 0 0 .99-1.47h5.43a7.1 7.1 0 0 1-1.44 3.165c-.755.942-1.721 1.692-2.82 2.19a8.93 8.93 0 0 1-3.81.8 9 9 0 0 1-4.365-1.035 7.4 7.4 0 0 1-2.985-2.99 9.26 9.26 0 0 1-1.08-4.56c-.04-1.591.326-3.166 1.065-4.575a7.3 7.3 0 0 1 2.985-2.97c1.35-.707 2.856-1.063 4.38-1.035a9.08 9.08 0 0 1 4.38 1.02c1.232.652 2.248 1.647 2.925 2.865a8.53 8.53 0 0 1 1.035 4.245zm-5.19-.78c.089-.916-.236-1.823-.885-2.475a3.26 3.26 0 0 0-2.265-.825 3.36 3.36 0 0 0-2.34.84c-.66.65-1.038 1.534-1.05 2.46zm14.49-3.99a7.28 7.28 0 0 1 2.475-2.43 6.32 6.32 0 0 1 3.285-.9v5.49h-1.47a5.07 5.07 0 0 0-3.165.87 3.5 3.5 0 0 0-1.125 2.94v7.62h-5.13v-16.74h5.13zm15.51-3.36a7.68 7.68 0 0 1 5.085 1.59 6.91 6.91 0 0 1 2.385 4.2h-4.8a2.66 2.66 0 0 0-.95-1.605 2.87 2.87 0 0 0-1.845-.585c-.47-.033-.937.1-1.32.375a1.31 1.31 0 0 0-.45 1.065 1.25 1.25 0 0 0 .825 1.17c.837.349 1.709.61 2.6.78a25.77 25.77 0 0 1 3.15.915 5.2 5.2 0 0 1 2.13 1.515c.633.799.953 1.802.9 2.82.015.911-.258 1.803-.78 2.55-.571.78-1.351 1.383-2.25 1.74a8.79 8.79 0 0 1-3.48.63 8.96 8.96 0 0 1-5.43-1.5 6.33 6.33 0 0 1-2.49-4.29h4.95a2.23 2.23 0 0 0 .915 1.65c.607.403 1.327.602 2.055.57.475.034.946-.11 1.32-.405.3-.271.465-.661.45-1.065a1.28 1.28 0 0 0-.825-1.245 15.17 15.17 0 0 0-2.685-.8 21.47 21.47 0 0 1-3.06-.84 5.05 5.05 0 0 1-2.07-1.455c-.616-.778-.926-1.754-.87-2.745a4.48 4.48 0 0 1 1.71-3.645 7.45 7.45 0 0 1 4.83-1.39zm19.62 0c1.964-.065 3.888.567 5.43 1.785 1.49 1.242 2.472 2.987 2.76 4.905h-5.43c-.123-.659-.474-1.253-.99-1.68a2.93 2.93 0 0 0-1.89-.6 2.74 2.74 0 0 0-2.22 1.065 4.81 4.81 0 0 0-.87 3.1 4.81 4.81 0 0 0 .87 3.105 2.74 2.74 0 0 0 2.22 1.07 2.93 2.93 0 0 0 1.89-.6c.516-.427.867-1.021.99-1.68h5.43c-.289 1.916-1.271 3.66-2.76 4.9-1.541 1.22-3.465 1.854-5.43 1.79a9 9 0 0 1-4.365-1.035 7.4 7.4 0 0 1-2.985-2.985 9.26 9.26 0 0 1-1.08-4.56c-.04-1.591.326-3.166 1.065-4.575a7.3 7.3 0 0 1 2.985-2.97c1.35-.707 2.856-1.063 4.38-1.035zm18.72 0a6.06 6.06 0 0 1 3.3.87 5.23 5.23 0 0 1 2.04 2.37v-3.03h5.1v16.74h-5.1v-3.03a5.23 5.23 0 0 1-2.04 2.37 6.06 6.06 0 0 1-3.3.87 6.78 6.78 0 0 1-3.705-1.035 7.08 7.08 0 0 1-2.58-2.985c-.657-1.428-.981-2.988-.945-4.56a10.32 10.32 0 0 1 .945-4.575 7.1 7.1 0 0 1 2.58-2.97 6.78 6.78 0 0 1 3.705-1.035zm1.65 4.5c-1-.041-1.968.353-2.655 1.08-.71.833-1.07 1.908-1.005 3-.065 1.092.295 2.167 1.005 3 .687.727 1.655 1.121 2.655 1.08a3.47 3.47 0 0 0 2.655-1.11 4.18 4.18 0 0 0 1.035-2.97 4.17 4.17 0 0 0-1.035-2.985 3.49 3.49 0 0 0-2.655-1.095zm24.45-4.47c1.736-.078 3.415.626 4.575 1.92a7.7 7.7 0 0 1 1.7 5.28v9.72h-5.13v-9.12a3.69 3.69 0 0 0-.885-2.625c-.612-.639-1.471-.984-2.355-.945-.93-.045-1.833.316-2.475.99a4 4 0 0 0-.915 2.82v8.88h-5.135v-16.74h5.13v3.06a5.52 5.52 0 0 1 2.145-2.37 6.29 6.29 0 0 1 3.345-.87z" opacity=".8"/><path d="M171.598 39.458a12.33 12.33 0 0 1 7.38 4.356c1.843 2.265 2.825 5.109 2.772 8.028.182 3.848-1.394 7.569-4.284 10.116q-4.284 3.708-12.42 3.708H143.23V14.834h21.384q7.7 0 11.844 3.384 4.144 3.384 4.14 9.5a11.85 11.85 0 0 1-2.484 7.776 11.55 11.55 0 0 1-6.516 3.964zm-18.216-3.312h9.14a8.7 8.7 0 0 0 5.8-1.692 6.04 6.04 0 0 0 1.98-4.86 6.21 6.21 0 0 0-1.944-4.9q-1.944-1.728-5.976-1.728h-9zm9.648 21.24c2.206.145 4.394-.478 6.192-1.764a6.26 6.26 0 0 0 2.16-5.148c.115-1.987-.698-3.915-2.2-5.22a9.45 9.45 0 0 0-6.228-1.836h-9.572v13.968zm39.6-32.112q7.272 0 11.664 3.672a15.9 15.9 0 0 1 5.472 9.792h-9.5a7.9 7.9 0 0 0-2.592-4.608c-1.482-1.199-3.352-1.814-5.256-1.728a6.04 6.04 0 0 0-4.036 1.224 4.12 4.12 0 0 0-1.44 3.312c-.038 1.016.385 1.996 1.152 2.664a8.3 8.3 0 0 0 2.88 1.584q1.728.576 4.968 1.368a51.09 51.09 0 0 1 7.38 2.124 12.21 12.21 0 0 1 4.9 3.528c1.449 1.852 2.178 4.167 2.052 6.516.079 3.243-1.41 6.326-4 8.28q-3.996 3.164-10.764 3.164-7.776 0-12.456-3.488a14.68 14.68 0 0 1-5.688-9.972h9.72a6.57 6.57 0 0 0 2.592 4.644 9.4 9.4 0 0 0 5.832 1.692c1.432.099 2.848-.352 3.96-1.26a4.25 4.25 0 0 0 1.368-3.276 3.62 3.62 0 0 0-1.188-2.808 8.02 8.02 0 0 0-2.952-1.656q-1.764-.576-5-1.368a56.4 56.4 0 0 1-7.236-2.052c-1.843-.693-3.479-1.845-4.752-3.348-1.408-1.801-2.112-4.054-1.98-6.336-.085-3.276 1.383-6.399 3.96-8.424q3.956-3.24 10.94-3.24zm43.128 0a19.74 19.74 0 0 1 12.852 4.176c3.48 2.866 5.775 6.918 6.444 11.376h-10.732c-.348-1.968-1.397-3.744-2.952-5-1.673-1.269-3.734-1.918-5.832-1.836a8.7 8.7 0 0 0-6.732 2.988q-2.7 2.988-2.7 8.748 0 5.76 2.7 8.748a8.7 8.7 0 0 0 6.732 2.988c2.098.082 4.159-.567 5.832-1.836 1.555-1.256 2.604-3.032 2.952-5h10.728c-.669 4.458-2.964 8.51-6.444 11.376a19.74 19.74 0 0 1-12.848 4.164 21.23 21.23 0 0 1-10.368-2.48 17.46 17.46 0 0 1-7.056-7.092 22.32 22.32 0 0 1-2.52-10.872 22.53 22.53 0 0 1 2.52-10.908c1.596-3.012 4.052-5.481 7.056-7.092 3.196-1.673 6.761-2.515 10.368-2.448zm61.416 26.5c.019 2.521-.653 4.999-1.944 7.164-1.382 2.263-3.38 4.087-5.76 5.256a19.97 19.97 0 0 1-9.288 1.972 24.1 24.1 0 0 1-9.648-1.836c-2.7-1.123-5.049-2.95-6.8-5.292-1.722-2.354-2.734-5.153-2.916-8.064h10.8a8.25 8.25 0 0 0 2.484 5.148 7.79 7.79 0 0 0 5.652 2.052 6.58 6.58 0 0 0 4.86-1.692 5.9 5.9 0 0 0 1.692-4.356c.053-1.433-.435-2.834-1.368-3.924-.96-1.067-2.139-1.914-3.456-2.484q-2.088-.936-5.76-2.16a56.94 56.94 0 0 1-7.776-3.132c-2.053-1.064-3.819-2.608-5.148-4.5a12.89 12.89 0 0 1-2.124-7.7c-.169-4 1.583-7.839 4.716-10.332q4.716-3.78 12.492-3.78 8.064 0 12.852 3.888c3.169 2.552 5.137 6.306 5.432 10.364h-10.944a7.62 7.62 0 0 0-2.3-4.5c-1.408-1.234-3.243-1.867-5.112-1.764a6.74 6.74 0 0 0-4.536 1.476c-1.201 1.091-1.838 2.669-1.732 4.288-.046 1.361.43 2.688 1.332 3.708.95 1.028 2.102 1.85 3.384 2.412a55.54 55.54 0 0 0 5.58 2.088 74.19 74.19 0 0 1 7.956 3.24 14.02 14.02 0 0 1 5.22 4.536 13.33 13.33 0 0 1 2.16 7.916zm25.416-26.5a19.74 19.74 0 0 1 12.852 4.176c3.48 2.866 5.775 6.918 6.444 11.376h-10.728c-.348-1.968-1.397-3.744-2.952-5-1.673-1.269-3.734-1.918-5.832-1.836a8.7 8.7 0 0 0-6.732 2.988q-2.7 2.988-2.7 8.748 0 5.76 2.7 8.748a8.7 8.7 0 0 0 6.732 2.988c2.098.082 4.159-.567 5.832-1.836 1.555-1.256 2.604-3.032 2.952-5h10.728c-.671 4.455-2.966 8.504-6.444 11.368a19.74 19.74 0 0 1-12.852 4.172 21.23 21.23 0 0 1-10.368-2.48 17.46 17.46 0 0 1-7.056-7.092 22.32 22.32 0 0 1-2.52-10.872 22.53 22.53 0 0 1 2.52-10.908c1.596-3.012 4.052-5.481 7.056-7.092 3.196-1.673 6.761-2.515 10.368-2.448zm42.12 0a15.33 15.33 0 0 1 8.64 2.376 12.94 12.94 0 0 1 5.112 6.408v-8.28h10.08v39.888h-10.08v-8.352a13.13 13.13 0 0 1-5.112 6.444 15.16 15.16 0 0 1-8.64 2.408c-3.193.045-6.335-.803-9.072-2.448a16.54 16.54 0 0 1-6.3-7.092c-1.58-3.415-2.356-7.146-2.268-10.908-.088-3.762.688-7.493 2.268-10.908a16.54 16.54 0 0 1 6.3-7.092c2.737-1.644 5.879-2.491 9.072-2.444zm3.168 8.856a9.93 9.93 0 0 0-7.632 3.1q-2.88 3.1-2.88 8.5 0 5.4 2.88 8.46a9.99 9.99 0 0 0 7.632 3.06c2.864.088 5.629-1.052 7.6-3.132 2.068-2.29 3.142-5.307 2.988-8.388a11.75 11.75 0 0 0-2.988-8.46c-1.969-2.083-4.735-3.226-7.6-3.14zm53.64-8.928c4.161-.186 8.193 1.474 11.016 4.536q4.1 4.536 4.1 12.744v23.184h-10.08V43.634q0-4.752-2.448-7.38a8.7 8.7 0 0 0-6.7-2.628c-2.603-.114-5.126.911-6.912 2.808q-2.592 2.808-2.592 8.064v21.168h-10.144V25.778h10.152v7.988a12.71 12.71 0 0 1 5.22-6.3c2.525-1.539 5.436-2.324 8.392-2.264z"/></g></svg>