<svg xmlns="http://www.w3.org/2000/svg" viewBox="0 0 172.04 42" xmlns:v="https://vecta.io/nano"><path d="M12.58.27,36.36,14V28L0,7,11.67.27a1,1,0,0,1,.93,0" fill="#3ca9e5"/><path d="M36.36 0L24.25 7l12.11 7V0z" fill="#2853c3"/><path d="M36.36 0L48 6.73a.91.91 0 0 1 .46.81V35l-12.1-7z" fill="#1a4199"/><path d="M48.49,35,36.83,41.73a1,1,0,0,1-.94,0L12.11,28V14Z" fill="#2853c3"/><path d="M0,7V34.46a.94.94,0,0,0,.47.81L12.13,42V14Z" fill="#60beff"/><path d="M12.13 42l12.12-7-12.12-7v14z" fill="#3ca9e5"/><path d="M118.61 21A12.37 12.37 0 0 0 106.4 9.72h-.58a12.08 12.08 0 0 0-4.28 1l-.29.12h-.14A12.25 12.25 0 0 0 94 22.09v.23a12.83 12.83 0 0 0 12.68 12.19h7a.67.67 0 0 0 .68-.68v-3.9a.68.68 0 0 0-.68-.69h-7.28a7.24 7.24 0 0 1-6.61-5h18a.84.84 0 0 0 .59-.27.81.81 0 0 0 .24-.61v-2.22a.33.33 0 0 0 0-.14m-5.83-1.3h-13a7 7 0 0 1 3.6-4l.27-.13a6.89 6.89 0 0 1 9.1 4.18M78.44 9.72a12.07 12.07 0 0 0-6.5 2.2v-1.4a.42.42 0 0 0-.42-.43H67a.43.43 0 0 0-.43.43V34a.67.67 0 0 0 .68.68h4a.68.68 0 0 0 .68-.68V22.07a7 7 0 0 1 7.64-6.94 7.12 7.12 0 0 1 6.3 7.15V34a.67.67 0 0 0 .68.68h4.08a.68.68 0 0 0 .68-.68V22.07A12.39 12.39 0 0 0 78.44 9.72m63.82.12a.33.33 0 0 0-.47 0l-8.61 8.63-8.5-8.5a.35.35 0 0 0-.47 0l-3.46 3.47a.32.32 0 0 0 0 .46l8.5 8.5-8.69 8.6a.33.33 0 0 0 0 .47l3.38 3.38a.42.42 0 0 0 .6 0l8.56-8.55 8.49 8.5a.35.35 0 0 0 .47 0l3.46-3.47a.32.32 0 0 0 0-.46L137 22.38l8.61-8.61a.33.33 0 0 0 0-.47zm17.18-.21A12.67 12.67 0 1 0 172 22.3a12.64 12.64 0 0 0-12.6-12.67m0 20a7.34 7.34 0 1 1 7.28-7.35 7.35 7.35 0 0 1-7.28 7.35" fill="#2853c3"/></svg>