<svg xmlns="http://www.w3.org/2000/svg" viewBox="0 0 210.815 62.198" xmlns:v="https://vecta.io/nano"><path d="M108.397 31.099a22.916 22.916 0 0 1-1.318 7.822 19.099 19.099 0 0 1-3.809 6.416 17.864 17.864 0 0 1-6.152 4.365 22.438 22.438 0 0 1-16.699 0 18.152 18.152 0 0 1-6.182-4.365 18.461 18.461 0 0 1-3.808-6.416 24.287 24.287 0 0 1 0-15.615 18.421 18.421 0 0 1 3.808-6.445 18.179 18.179 0 0 1 6.182-4.365 22.438 22.438 0 0 1 16.699 0 17.889 17.889 0 0 1 6.152 4.365 19.053 19.053 0 0 1 3.809 6.445 22.999 22.999 0 0 1 1.318 7.793zM88.769 44.868a11.204 11.204 0 0 0 5.01-1.055 10.16 10.16 0 0 0 3.574-2.9 12.493 12.493 0 0 0 2.139-4.365 20.197 20.197 0 0 0 .703-5.449 20.208 20.208 0 0 0-.704-5.449 12.502 12.502 0 0 0-2.139-4.365 10.16 10.16 0 0 0-3.574-2.9 12.425 12.425 0 0 0-10.019 0 10.145 10.145 0 0 0-3.574 2.9 12.486 12.486 0 0 0-2.139 4.365 20.212 20.212 0 0 0-.703 5.449 20.202 20.202 0 0 0 .703 5.449 12.478 12.478 0 0 0 2.139 4.365 10.145 10.145 0 0 0 3.574 2.9 11.199 11.199 0 0 0 5.01 1.055zm24.783 5.742V11.588h8.203v18.75l13.535-18.75h9.492l-14.355 19.277 15.351 19.745h-10.137l-13.886-19.16v19.16zm35.449-39.022h23.437v6.504h-15.234v9.433h14.531v6.504h-14.531v10.078h15.41v6.503h-23.613zm52.674 0h8.906l-12.832 19.394 13.066 19.628h-8.965l-8.437-13.3-8.437 13.3h-8.965l13.066-19.628-12.832-19.394h8.906l8.262 13.183z" fill="#1a1a1a"/><path d="M27.751 27.751a14.077 14.077 0 0 0 6.696 0 14.095 14.095 0 0 1 10.326-10.326 14.078 14.078 0 1 0-27.347 0 14.095 14.095 0 0 1 10.326 10.326z" fill="#7abdf7"/><path d="M34.447 34.447a14.08 14.08 0 0 0-6.696 0 14.096 14.096 0 0 1-10.326 10.326 14.078 14.078 0 1 0 27.347 0 14.096 14.096 0 0 1-10.326-10.326z" fill="#0d74f5"/><path d="M48.121 17.021a14.105 14.105 0 0 0-3.348.404 14.095 14.095 0 0 1-10.326 10.326 14.077 14.077 0 0 0 0 6.696 14.096 14.096 0 0 1 10.326 10.326 14.078 14.078 0 1 0 3.348-27.751z" fill="#4494f7"/><path d="M27.751 34.447a14.077 14.077 0 0 0 0-6.696 14.095 14.095 0 0 1-10.326-10.326 14.078 14.078 0 1 0 0 27.347 14.096 14.096 0 0 1 10.326-10.326z" fill="#005cf4"/><path d="M34.447 27.751a14.095 14.095 0 0 0 10.326-10.326 14.095 14.095 0 0 0-10.326 10.326z" fill="#186ef9"/><path d="M34.447 34.447a14.096 14.096 0 0 0 10.326 10.326 14.096 14.096 0 0 0-10.326-10.326z" fill="#0246f2"/><path d="M27.751 27.751a14.095 14.095 0 0 0-10.326-10.326 14.095 14.095 0 0 0 10.326 10.326z" fill="#0046f8"/><path d="M27.751 34.447a14.096 14.096 0 0 0-10.326 10.326 14.096 14.096 0 0 0 10.326-10.326z" fill="#0729f1"/></svg>