<svg xmlns="http://www.w3.org/2000/svg" width="910" height="200" fill="none" xmlns:v="https://vecta.io/nano"><g fill="#000"><path d="M788.651 73.211c-1.133 2.234-6.54 10.051-18.951 10.051-14.419 0-26.418-13.721-26.418-32.015 0-18.135 11.999-29.197 26.521-29.197 11.896 0 17.509 7.286 18.745 9.626v-8.403h14.213v58.766h-14.11v-8.828zm-16.273-38.77c-10.197 0-16.84 7.286-16.84 16.806s6.643 19.624 16.84 19.624c9.836 0 16.376-10.105 16.376-19.624 0-9.466-6.54-16.806-16.376-16.806zm63.084-30.952h-13.699v9.839h13.699V3.489zm0 19.624h-13.699v58.925h13.699V23.113z"/><path d="M512.936 23.113L499.34 37.207v44.832h13.596V36.834h28.632V23.113h-28.632zm54.432 0l-13.595 14.093v44.832h13.595V36.834H587.4v45.205h13.647V36.834h20.032v45.205h13.596V23.113h-67.307zM414.319 36.834V23.113h-23.277V3.489h-13.647v64.51l13.647 14.04h23.431V68.318h-23.431V36.834h23.277zm479.18-13.721h-39.035v58.925h13.647V36.834h25.388v45.205h13.595V37.207l-13.595-14.093zM336.97 34.92l-13.389-1.436c-8.034-1.011-12.411-4.095-12.411-9.413 0-5.744 5.459-9.413 15.861-9.413 11.741 0 17.303 4.68 19.878 8.456h14.934c-2.523-9.892-11.535-21.06-34.812-21.06-18.127 0-30.435 8.403-30.435 22.443s10.815 21.698 25.903 23.134l13.493 1.436c7.827 1.01 13.183 3.404 13.183 10.955 0 6.329-6.128 10.849-17.664 10.849-11.123 0-17.2-4.201-20.289-8.456h-16.068c3.863 10.317 13.905 21.06 36.357 21.06 21.526 0 32.341-10.264 32.341-24.464 0-16.327-11.793-22.656-26.882-24.091z" fill-rule="evenodd"/><path d="M485.539 52.416c0 17.976-12.617 31.058-29.147 31.058-16.685 0-29.251-13.083-29.251-31.058s12.514-31.058 29.251-31.058c16.53.053 29.147 13.083 29.147 31.058zm-13.801 0c0-10.051-6.231-17.763-15.295-17.763s-15.449 7.924-15.449 17.763c0 9.785 6.334 17.763 15.449 17.763s15.295-7.711 15.295-17.763z"/><g fill-rule="evenodd"><path d="M688.386 49.438h26.779v16.061c-3.09 2.234-9.733 4.893-19.621 4.893-16.685 0-27.087-11.381-27.087-27.761 0-15.476 9.424-27.335 24.409-27.335 10.609 0 16.17 4.946 18.642 7.924h15.449c-2.781-8.403-12.153-21.06-34.091-21.06-22.813 0-39.086 17.018-39.086 40.471 0 24.251 16.376 40.95 41.661 40.95 17.458 0 28.375-6.86 33.525-11.594V36.941h-40.58v12.498zM99.45.603L.536 99.584H99.45L198.431.603H99.45z"/><path d="M99.45 99.584L.536 198.498H99.45l98.981-98.914H99.45z"/></g></g><path d="M297 121l612.3 1" stroke="#000" stroke-width="4"/><path fill-rule="evenodd" d="M329.428 189.118h-21.35L303.869 199h-8.174l19.215-42.7h7.808l19.276 42.7h-8.296l-4.27-9.882zm-2.623-6.222l-8.052-18.666-7.991 18.666h16.043zm20.186-29.158h7.625V199h-7.625v-45.262zm17.929 0h7.625V199h-7.625v-45.262zm16.282 25.132h16.775v6.344h-16.775v-6.344zm25.432-12.444h7.625V199h-7.625v-32.574zm3.843-5.368c-1.383 0-2.542-.437-3.477-1.312s-1.403-1.962-1.403-3.263.468-2.389 1.403-3.264 2.094-1.311 3.477-1.311 2.542.417 3.477 1.25a4.03 4.03 0 0 1 1.403 3.142c0 1.342-.457 2.47-1.373 3.385s-2.084 1.373-3.507 1.373zm32.569 5.002c4.107 0 7.401 1.2 9.882 3.599s3.721 5.958 3.721 10.675V199h-7.625v-17.69c0-2.847-.671-4.992-2.013-6.436s-3.253-2.165-5.734-2.165c-2.806 0-5.022.844-6.649 2.531s-2.44 4.118-2.44 7.29V199h-7.625v-32.574h7.259v4.209c1.261-1.505 2.847-2.643 4.758-3.416s4.067-1.159 6.466-1.159zm21.955 12.81h16.775v6.344h-16.775v-6.344zm46.416 20.74c-4.351 0-8.276-.946-11.773-2.837s-6.242-4.514-8.235-7.869-2.989-7.106-2.989-11.254.996-7.9 2.989-11.255 4.738-5.978 8.235-7.869 7.422-2.836 11.773-2.836 8.276.945 11.773 2.836 6.242 4.504 8.235 7.839 2.989 7.096 2.989 11.285-.996 7.95-2.989 11.285-4.738 5.947-8.235 7.838-7.422 2.837-11.773 2.837zm0-6.954c2.847 0 5.409-.641 7.686-1.922s4.067-3.07 5.368-5.368 1.952-4.869 1.952-7.716-.651-5.419-1.952-7.717a13.9 13.9 0 0 0-5.368-5.368c-2.277-1.281-4.839-1.921-7.686-1.921s-5.409.64-7.686 1.921a13.9 13.9 0 0 0-5.368 5.368c-1.301 2.298-1.952 4.87-1.952 7.717s.651 5.419 1.952 7.716 3.091 4.087 5.368 5.368 4.839 1.922 7.686 1.922zm49.466-26.596c4.107 0 7.401 1.2 9.882 3.599s3.721 5.958 3.721 10.675V199h-7.625v-17.69c0-2.847-.671-4.992-2.013-6.436s-3.253-2.165-5.734-2.165c-2.806 0-5.022.844-6.649 2.531s-2.44 4.118-2.44 7.29V199H542.4v-32.574h7.259v4.209c1.261-1.505 2.847-2.643 4.758-3.416s4.067-1.159 6.466-1.159zm54.529 16.836c0 .529-.041 1.281-.122 2.257h-25.559c.447 2.399 1.617 4.3 3.508 5.703s4.239 2.105 7.045 2.105c3.579 0 6.527-1.179 8.845-3.538l4.087 4.697c-1.464 1.749-3.314 3.07-5.551 3.965s-4.758 1.342-7.564 1.342c-3.579 0-6.73-.712-9.455-2.135s-4.829-3.406-6.313-5.948-2.227-5.418-2.227-8.631c0-3.172.722-6.029 2.165-8.571s3.447-4.524 6.009-5.947 5.449-2.135 8.662-2.135c3.172 0 6.008.701 8.509 2.104s4.453 3.376 5.856 5.917 2.105 5.48 2.105 8.815zm-16.47-10.736c-2.44 0-4.504.722-6.192 2.165s-2.714 3.366-3.08 5.765h18.483c-.325-2.359-1.322-4.27-2.989-5.734s-3.741-2.196-6.222-2.196zm59.526-15.86c3.701 0 6.923.61 9.668 1.83s4.85 2.969 6.314 5.246 2.196 4.982 2.196 8.113c0 3.091-.732 5.785-2.196 8.082s-3.568 4.057-6.314 5.277-5.967 1.83-9.668 1.83h-9.638V199h-7.93v-42.7h17.568zm-.366 23.668c3.457 0 6.08-.732 7.869-2.196s2.684-3.558 2.684-6.283-.895-4.819-2.684-6.283-4.412-2.196-7.869-2.196h-9.272v16.958h9.272zm26.652-26.23h7.625V199h-7.625v-45.262zm30.373 12.322c4.799 0 8.469 1.149 11.011 3.446s3.812 5.765 3.812 10.401V199h-7.198v-3.965c-.935 1.423-2.267 2.511-3.996 3.263s-3.812 1.129-6.252 1.129-4.575-.417-6.405-1.251-3.243-1.992-4.24-3.477-1.494-3.161-1.494-5.032c0-2.928 1.088-5.277 3.263-7.046s5.602-2.653 10.279-2.653h8.418v-.488c0-2.277-.681-4.026-2.044-5.246s-3.385-1.83-6.069-1.83c-1.83 0-3.63.285-5.399.854s-3.263 1.362-4.483 2.379l-2.989-5.551c1.708-1.301 3.762-2.298 6.161-2.989s4.941-1.037 7.625-1.037zm-1.037 27.816c1.911 0 3.609-.437 5.093-1.312s2.532-2.124 3.142-3.751v-3.782h-7.869c-4.392 0-6.588 1.444-6.588 4.331 0 1.383.549 2.481 1.647 3.294s2.623 1.22 4.575 1.22zm45.501 3.355c-.895.732-1.982 1.281-3.263 1.647s-2.634.549-4.057.549c-3.579 0-6.344-.935-8.296-2.806s-2.928-4.595-2.928-8.174V172.77h-5.368v-6.1h5.368v-7.442h7.625v7.442h8.723v6.1h-8.723v15.494c0 1.586.386 2.796 1.159 3.629s1.891 1.251 3.355 1.251c1.708 0 3.131-.447 4.27-1.342l2.135 5.429zm19.82-37.759c-3.213 0-4.819 1.749-4.819 5.246v1.952h8.967v6.1h-8.723V199h-7.625v-26.23h-5.368v-6.1h5.368v-2.074c0-3.497 1.017-6.253 3.05-8.266s4.9-3.019 8.601-3.019c2.928 0 5.226.59 6.893 1.769l-2.135 5.734c-1.301-.895-2.704-1.342-4.209-1.342zm23.724 39.955c-3.294 0-6.263-.712-8.906-2.135s-4.707-3.406-6.192-5.948-2.226-5.418-2.226-8.631.742-6.08 2.226-8.601 3.549-4.494 6.192-5.917 5.612-2.135 8.906-2.135c3.335 0 6.324.712 8.967 2.135s4.707 3.396 6.192 5.917 2.226 5.388 2.226 8.601-.742 6.09-2.226 8.631-3.549 4.525-6.192 5.948-5.632 2.135-8.967 2.135zm0-6.527c2.806 0 5.124-.935 6.954-2.806s2.745-4.331 2.745-7.381-.915-5.51-2.745-7.381-4.148-2.806-6.954-2.806-5.114.935-6.924 2.806-2.714 4.331-2.714 7.381.905 5.51 2.714 7.381 4.118 2.806 6.924 2.806zm32.264-21.716c2.196-3.416 6.059-5.124 11.59-5.124v7.259a9.68 9.68 0 0 0-1.769-.183c-2.969 0-5.287.864-6.954 2.592s-2.501 4.22-2.501 7.473V199h-7.625v-32.574h7.259v4.758zm59.775-5.124c4.107 0 7.361 1.189 9.76 3.568s3.599 5.948 3.599 10.706V199h-7.625v-17.69c0-2.847-.63-4.992-1.891-6.436s-3.07-2.165-5.429-2.165c-2.562 0-4.616.844-6.161 2.531s-2.318 4.098-2.318 7.229V199h-7.625v-17.69c0-2.847-.63-4.992-1.891-6.436s-3.07-2.165-5.429-2.165c-2.603 0-4.667.834-6.192 2.501s-2.287 4.087-2.287 7.259V199h-7.625v-32.574h7.259v4.148c1.22-1.464 2.745-2.582 4.575-3.355s3.863-1.159 6.1-1.159c2.44 0 4.605.457 6.496 1.372a10.55 10.55 0 0 1 4.484 4.057c1.342-1.708 3.07-3.04 5.185-3.996s4.453-1.433 7.015-1.433z" fill="#000"/></svg>