<svg xmlns="http://www.w3.org/2000/svg" xmlns:xlink="http://www.w3.org/1999/xlink" width="670" height="138" fill="none" xmlns:v="https://vecta.io/nano"><style><![CDATA[.B{stroke:#fff}.C{stroke-opacity:.3}.D{stroke-width:.5}]]></style><path d="M119.841 34.5l27.169 15.669 29.864-17.25L119.841 0 60.113 34.5l29.864 17.25 29.864-17.25z" fill="url(#A)"/><path d="M119.966 34.283l-.125-.072-.125.072-29.739 17.178L60.613 34.5 119.841.289l56.533 32.63L147.01 49.88l-27.044-15.597z" class="B C D"/><path d="M149.741 54.912V86.25l-29.9 17.25V138l59.764-34.5V37.662l-29.864 17.25z" fill="url(#B)"/><path d="M149.866 86.466l.125-.072v-.144-31.193l29.364-16.961v65.26l-59.264 34.211v-33.923l29.775-17.178z" class="B C D"/><path d="M60.113 103.5L32.944 87.831 3.08 105.081 60.113 138l59.728-34.5-29.864-17.25-29.864 17.25z" fill="url(#C)"/><path d="M59.988 103.717l.125.072.125-.073 29.739-17.177 29.364 16.961-59.228 34.211-56.533-32.63L32.944 88.12l27.044 15.597z" class="B C D"/><path d="M30.213 51.75l29.9-17.25V0L.349 34.5v65.837l29.864-17.249V51.75z" fill="url(#D)"/><path d="M30.088 51.534l-.125.072v.144 31.193L.599 99.904v-65.26L59.863.433v33.923L30.088 51.534z" class="B C D"/><g fill="#000"><use xlink:href="#E"/><path d="M260.059 51.194c-7.102 0-11.055 4.891-11.323 6.901V39.469h-9.581v46.9h9.581v-19.43c.268-1.273 3.283-7.571 9.179-7.571 3.283 0 5.628 1.809 5.628 7.571v19.43h9.581V66.336c0-10.988-6.566-15.142-13.065-15.142zm36.587-.067c-7.571 0-17.621 5.762-17.621 17.956s10.586 17.755 17.822 17.755c5.025 0 10.318-2.077 14.07-6.365l-7.906-4.02c-1.273 1.34-3.283 2.144-6.097 2.144-3.283 0-6.968-2.211-8.04-6.03h24.924c.201-1.139.268-2.345.268-3.484 0-12.194-9.983-17.956-17.42-17.956zm0 8.308c3.149 0 6.633 1.943 7.705 5.896h-15.343c1.072-3.953 4.288-5.896 7.638-5.896zM342.577 39c-11.658 0-23.651 9.782-23.651 24.053 0 14.003 11.993 23.785 23.651 23.785 6.231 0 11.725-2.345 15.745-6.03l-6.03-7.303c-2.345 1.943-5.494 3.752-9.514 3.752-7.236 0-12.998-6.298-12.998-14.338 0-7.906 5.762-14.338 12.998-14.338 4.02 0 7.102 1.608 9.313 3.551l6.097-7.303c-4.02-3.685-9.38-5.829-15.611-5.829zm42.082 12.194c-7.303 0-10.519 5.092-11.256 11.524V51.529h-9.514v34.84h9.514V71.294c.603-6.7 5.226-11.122 11.189-11.122 1.273 0 2.211 0 3.35.201v-8.911c-.804-.201-2.077-.268-3.283-.268zm34.468.335l-9.179 22.713-9.849-22.713h-9.447l14.74 33.902-5.494 13.668h9.38l19.296-47.57h-9.447z"/><use xlink:href="#F"/><use xlink:href="#E" x="260.006"/><path d="M514.662 51.127c-7.236 0-17.822 5.762-17.822 17.956s10.586 17.755 17.822 17.755c7.169 0 17.755-5.561 17.755-17.755s-10.586-17.956-17.755-17.956zm0 8.174c3.953 0 8.174 3.35 8.174 9.782 0 6.231-4.221 9.514-8.174 9.514-4.02 0-8.241-3.283-8.241-9.514 0-6.432 4.221-9.782 8.241-9.782zm32.986 16.683h-10.586v10.385h10.586V75.984zm20.935-24.857c-7.303 0-16.281 5.896-16.281 17.755 0 12.261 8.978 17.956 16.281 17.956 5.561 0 8.911-3.752 8.978-5.092v4.623h9.581v-34.84h-9.581v4.087c-.067-1.474-3.417-4.489-8.978-4.489zm1.608 8.174c4.02 0 7.772 2.479 7.772 9.581 0 7.035-3.752 9.715-7.772 9.715-4.221 0-8.308-3.484-8.308-9.715 0-6.03 4.087-9.581 8.308-9.581z"/><use xlink:href="#F" x="160.771"/><use xlink:href="#F" x="201.523"/></g><defs><linearGradient id="A" x1="77.315" y1="7.624" x2="110.007" y2="81.386" gradientUnits="userSpaceOnUse"><stop stop-color="#4a2fec"/><stop offset="1" stop-color="#2fecec"/></linearGradient><linearGradient id="B" x1="119.901" y1="135.851" x2="160.355" y2="58.274" gradientUnits="userSpaceOnUse"><stop stop-color="#00bf57"/><stop offset="1" stop-color="#39aaec"/></linearGradient><linearGradient id="C" x1="119.901" y1="102.744" x2="57.311" y2="45.368" gradientUnits="userSpaceOnUse"><stop stop-color="#ecd92f"/><stop offset="1" stop-color="#ec2f46"/></linearGradient><linearGradient id="D" x1="2.115" y1="98.287" x2="11.45" y2="8.553" gradientUnits="userSpaceOnUse"><stop stop-color="#ec2f2f"/><stop offset="1" stop-color="#dd2fec"/></linearGradient><path id="E" d="M233.33 59.301v-7.772h-7.437v-6.03h-9.581v6.03h-3.417v7.772h3.417v15.946c0 9.648 4.623 11.524 10.184 11.524 3.149 0 5.293-.469 6.767-1.206v-7.839c-1.474.603-2.68.804-4.489.804-2.278 0-2.881-1.809-2.881-3.35V59.301h7.437z"/><path id="F" d="M451.78 51.127c-5.494 0-8.911 3.015-8.911 4.489v-4.087h-9.581v47.57h9.581V81.746c0 1.34 3.417 5.092 8.911 5.092 7.303 0 16.348-5.695 16.348-17.956 0-11.859-8.978-17.755-16.348-17.755zm-1.541 27.47c-4.02 0-7.839-2.68-7.839-9.715 0-7.102 3.819-9.581 7.839-9.581 4.221 0 8.308 3.551 8.308 9.581 0 6.231-4.087 9.715-8.308 9.715z"/></defs></svg>