<svg width="155" height="24" viewBox="0 0 155 24" fill="none" xmlns="http://www.w3.org/2000/svg">
<g clip-path="url(#clip0_201_334)">
<path d="M3.69904 20.4343C1.84961 18.6752 0.880859 16.1246 0.880859 12.8704V0.732974H8.27859V12.6065C8.27859 14.1897 8.54279 15.421 9.15927 16.1246C9.77575 16.8282 10.5684 17.1801 11.6252 17.1801C12.682 17.1801 13.5627 16.8282 14.0911 16.1246C14.7076 15.421 14.9718 14.1897 14.9718 12.6065V0.732974H22.2814V12.7824C22.2814 16.0367 21.3127 18.5873 19.4632 20.4343C17.5257 22.2813 14.9718 23.1608 11.5371 23.1608C8.19052 23.1608 5.54847 22.2813 3.69904 20.4343V20.4343ZM28.4462 2.93178C29.2388 2.93178 29.6792 3.19564 29.8553 3.4595C30.1195 3.72335 30.3837 3.98721 30.3837 4.77878C30.3837 5.57035 30.1195 5.92216 29.8553 6.09806C29.5911 6.36192 29.2388 6.62578 28.4462 6.62578C27.6536 6.62578 27.3013 6.36192 27.0371 6.09806C26.7729 5.83421 26.5087 5.4824 26.5087 4.77878C26.5087 4.07516 26.7729 3.72335 27.0371 3.4595C27.3013 3.28359 27.6536 2.93178 28.4462 2.93178ZM28.4462 0.732974C27.3013 0.732974 26.3326 1.17274 25.5399 1.87635C24.7473 2.57997 24.3951 3.54745 24.3951 4.77878C24.3951 6.01011 24.7473 6.97759 25.5399 7.68121C26.3326 8.47278 27.3013 8.82459 28.5343 8.82459C29.7672 8.82459 30.736 8.47278 31.5286 7.68121C32.3212 6.88964 32.6735 5.92216 32.6735 4.77878C32.6735 3.6354 32.3212 2.57997 31.5286 1.87635C30.6479 1.17274 29.6792 0.732974 28.4462 0.732974V0.732974ZM41.3042 6.53783H34.8752V0.732974H55.1309V6.44987H48.7019V22.6331H41.3042V6.53783V6.53783ZM61.9121 21.7536C60.1127 20.8164 58.5936 19.4206 57.5087 17.7078C56.4519 15.9487 55.9235 14.0138 55.9235 11.815C55.9235 9.61616 56.4519 7.68121 57.5087 5.92216C58.5655 4.16311 60.0627 2.84383 61.9121 1.87635C63.7615 0.732974 65.8752 0.293213 68.253 0.293213C70.6309 0.293213 72.7445 0.820927 74.5939 1.7884C76.3933 2.7256 77.9125 4.1214 78.9973 5.83421C80.0542 7.5053 80.5826 9.52821 80.5826 11.727C80.5826 13.9258 80.0542 15.8608 78.9973 17.6198C77.9405 19.3789 76.4434 20.6981 74.5939 21.6656C72.7445 22.6331 70.6309 23.1608 68.253 23.1608C65.8752 23.1608 63.7615 22.7211 61.9121 21.7536V21.7536ZM70.7189 16.5644C71.4766 16.0977 72.0871 15.427 72.4803 14.6294C72.9206 13.8379 73.0968 12.8704 73.0968 11.727C73.0968 10.5836 72.9206 9.61616 72.4803 8.82459C72.0399 8.03302 71.4235 7.3294 70.7189 6.88964C70.0144 6.44987 69.1337 6.18602 68.253 6.18602C67.3724 6.18969 66.5103 6.43857 65.7635 6.90469C65.0167 7.3708 64.4149 8.03568 64.0257 8.82459C63.5854 9.61616 63.4093 10.5836 63.4093 11.727C63.4093 12.8704 63.6735 13.8379 64.0257 14.6294C64.4661 15.421 65.0826 16.1246 65.7871 16.5644C66.4917 17.0042 67.3723 17.268 68.253 17.268C69.1337 17.1801 70.0144 17.0042 70.7189 16.5644V16.5644ZM83.3127 0.732974H94.1451C96.611 0.732974 98.7246 1.17274 100.662 2.05226C102.446 2.89167 103.968 4.19878 105.066 5.83421C106.122 7.5053 106.651 9.44025 106.651 11.6391C106.651 13.8379 106.122 15.7728 105.066 17.4439C104.009 19.115 102.6 20.3463 100.662 21.2259C98.8127 22.1054 96.611 22.5451 94.1451 22.5451H83.3127V0.732974ZM93.8809 16.9162C95.4661 16.9162 96.699 16.4764 97.6678 15.5969C98.6365 14.7174 99.0769 13.3981 99.0769 11.727C99.0769 10.0559 98.6365 8.82459 97.6678 7.85711C96.699 6.97759 95.4661 6.53783 93.8809 6.53783H90.7104V16.9162H93.8809ZM123.912 18.8512H115.546L114.048 22.6331H106.563L116.162 0.732974H123.472L132.983 22.7211H125.321L123.912 18.8512V18.8512ZM121.887 13.574L119.773 8.03302L117.659 13.574H121.887V13.574ZM145.841 14.7174V22.6331H138.443V14.5415L130.165 0.645022H138.003L142.494 8.20892L146.986 0.645022H154.119L145.841 14.7174V14.7174Z" fill="#263238"/>
</g>
<defs>
<clipPath id="clip0_201_334">
<rect width="155" height="23.4539" fill="white"/>
</clipPath>
</defs>
</svg>
