<svg xmlns="http://www.w3.org/2000/svg" width="201" height="38" fill="none" xmlns:v="https://vecta.io/nano"><path d="M37.395 18.853c0 10.209-8.28 18.497-18.503 18.497C8.677 37.35.396 29.062.396 18.853c0-2.292.415-4.476 1.175-6.494h3.978l.064.447L7.84 29.719c.038.326.191.505.434.582.083.019.179.032.281.032h4.105c.357 0 .613-.18.754-.485l6.136-13.211.127 1.296 1.194 11.786c.045.358.198.543.473.594.063.013.12.02.191.02h4.022c.358 0 .665-.18.798-.53l8.249-20.72c.14.224.276.454.409.697a18.393 18.393 0 012.381 9.073z" fill="#3f92c5"/><path d="M5.549 12.36l.064.446H1.424l.185-.446h3.94zm14.001 4.277l.128 1.296-5.797 12.648a.78.78 0 0 1-.754.505H9.003c-.396 0-.664-.185-.709-.633l-.019-.152a1.21 1.21 0 0 0 .281.031h4.105a.785.785 0 0 0 .754-.484l6.136-13.21zM35.014 9.78l-8.16 20.763c-.127.358-.44.543-.798.543h-4.028c-.396 0-.62-.185-.671-.633l-.012-.14a.9.9 0 0 0 .19.02h4.023c.358 0 .665-.18.798-.53l8.25-20.72.408.697zM18.892.35A18.45 18.45 0 0 0 4.4 7.36h-.006v.007h4.955c.095 0 .191.012.274.031a.89.89 0 0 1 .115.045.286.286 0 0 1 .096.064c.026.02.051.045.07.07s.038.051.05.083c.026.026.04.058.046.096.019.032.032.07.037.109s.02.076.02.114l1.762 13.472.007-.006v.013l.293-.645v-.007l5.977-12.954a.9.9 0 0 1 .204-.294.619.619 0 0 1 .185-.121.324.324 0 0 1 .108-.039 1.04 1.04 0 0 1 .25-.031h4.271a.72.72 0 0 1 .191.032c.039.012.077.025.11.044a.467.467 0 0 1 .222.255.089.089 0 0 1 .014.045.058.058 0 0 1 .012.039c.007.012.007.025.013.037.013.052.019.103.026.16l1.193 11.972.358-.887v-.007l5.701-14.232A18.405 18.405 0 0 0 18.893.35zm38.264 16.702L58.286 24c.02.137.04.38.057.725l.073 2.133a21.79 21.79 0 0 1 .463-1.326l.64-1.56 2.903-6.919h4.238l-6.219 13.416h-4.158l-1.197-6.947-.105-.616a33.477 33.477 0 0 1-.356-2.57l-.547 1.694a28.59 28.59 0 0 1-.53 1.436l-2.886 7.003h-4.143L43.44 17.052h4.252l1.273 6.661a26.08 26.08 0 0 1 .258 1.634l.127 1.497.449-1.607a19.55 19.55 0 0 1 .53-1.498l2.574-6.687h4.253zm9.657 13.416L69.294 9.27h3.816l-.883 7.536a19.44 19.44 0 0 1-.187 1.251 16.9 16.9 0 0 1-.265 1.211c.913-.94 1.798-1.62 2.653-2.038a6.23 6.23 0 0 1 2.775-.629c1.04 0 1.896.177 2.569.533a3.19 3.19 0 0 1 1.474 1.6 3.92 3.92 0 0 1 .284 1.265c.031.47-.01 1.207-.128 2.207l-.05.426-.917 7.836h-3.898l.776-6.633c.193-1.65.128-2.74-.192-3.269s-.947-.792-1.876-.792a3.54 3.54 0 0 0-1.523.335c-.477.224-.892.54-1.239.95a3.59 3.59 0 0 0-.642 1.093c-.152.412-.279 1.036-.376 1.875l-.063.534-.691 5.907h-3.898zm27.989-6.728c.141-1.205-.051-2.156-.576-2.858s-1.3-1.054-2.33-1.054c-1.058 0-1.93.35-2.619 1.047s-1.102 1.652-1.245 2.865.046 2.157.566 2.83 1.305 1.013 2.363 1.013c1.076 0 1.95-.338 2.62-1.013s1.08-1.618 1.221-2.83zm2.77 6.727h-3.776l.28-1.926c-.627.846-1.336 1.47-2.126 1.867s-1.719.594-2.783.594c-1.779 0-3.136-.661-4.07-1.983s-1.276-3.068-1.023-5.238c.266-2.261 1.008-4.023 2.227-5.285s2.78-1.895 4.687-1.895c.993 0 1.84.224 2.54.67s1.253 1.114 1.66 1.997l.26-2.215h3.693l-1.57 13.414zm4.143.001l1.213-10.366h-1.874l.357-3.05h1.873l.523-4.457h3.897l-.521 4.457h1.872l-.356 3.05h-1.873l-1.214 10.366h-3.897zm8.655 0l1.214-10.366h-1.874l.359-3.05h1.872l.522-4.457h3.899l-.523 4.457h1.873l-.357 3.05h-1.874l-1.213 10.366h-3.898zm19.108-6.688c.129-1.094-.088-1.966-.649-2.617s-1.382-.978-2.456-.978-1.969.323-2.674.971-1.12 1.522-1.25 2.625c-.128 1.093.084 1.97.635 2.626s1.368.984 2.444.984c1.067 0 1.959-.328 2.679-.984s1.144-1.533 1.271-2.626zm3.964.028c-.243 2.061-1.147 3.775-2.716 5.143s-3.432 2.05-5.593 2.05c-2.179 0-3.896-.684-5.149-2.05s-1.759-3.082-1.517-5.143a7.8 7.8 0 0 1 2.735-5.142c1.583-1.377 3.455-2.065 5.616-2.065 2.17 0 3.878.679 5.123 2.038s1.745 3.082 1.501 5.17m6.003 6.659h-3.898l1.57-13.416h3.898l-.245 2.105c.74-.882 1.498-1.53 2.271-1.942a5.33 5.33 0 0 1 2.539-.614c1.114 0 1.991.227 2.634.683s1.06 1.145 1.244 2.066c.726-.912 1.511-1.597 2.353-2.06a5.497 5.497 0 0 1 2.672-.689c.949 0 1.733.176 2.354.526s1.071.879 1.354 1.58a4.31 4.31 0 0 1 .257 1.299c.025.484-.02 1.216-.136 2.2l-.048.426-.917 7.836h-3.898l.776-6.633c.19-1.631.152-2.717-.118-3.255s-.82-.806-1.65-.806c-1.003 0-1.774.374-2.311 1.12s-.908 1.97-1.107 3.667l-.692 5.907h-3.897l.776-6.633c.184-1.577.155-2.643-.09-3.2s-.746-.835-1.502-.835c-1.032 0-1.822.377-2.375 1.13s-.927 1.963-1.123 3.631l-.691 5.907zm21.771 0l1.57-13.416h3.885L165.1 30.468h-3.884zm1.875-18.928c.072-.619.358-1.151.856-1.6s1.059-.67 1.68-.67c.628 0 1.142.221 1.543.664s.561.977.489 1.606-.364 1.168-.867 1.614-1.07.671-1.7.671c-.619 0-1.125-.228-1.519-.684a1.988 1.988 0 0 1-.482-1.6zm5.962 18.928l1.569-13.416h3.818l-.248 2.105c.805-.873 1.635-1.519 2.49-1.934a6.238 6.238 0 0 1 2.761-.622c1.039 0 1.89.176 2.557.526a3.27 3.27 0 0 1 1.486 1.608c.157.374.252.794.284 1.264s-.011 1.207-.13 2.207l-.048.426-.917 7.836h-3.899l.777-6.633c.193-1.65.128-2.74-.192-3.269s-.948-.792-1.878-.792a3.54 3.54 0 0 0-1.522.335c-.477.224-.892.54-1.238.95-.276.32-.489.684-.643 1.093s-.278 1.036-.376 1.875l-.063.534-.69 5.907h-3.898zm27.507-8.096c-.011-.849-.244-1.488-.699-1.921s-1.121-.65-1.996-.65-1.601.218-2.175.65-.984 1.072-1.231 1.92h6.101zm3.581 2.352h-10.08c.042.968.309 1.689.8 2.169s1.206.718 2.145.718c.712 0 1.34-.139 1.887-.411s1.028-.688 1.439-1.244l2.96 1.572c-.867 1.176-1.853 2.05-2.959 2.618s-2.376.856-3.807.856c-2.17 0-3.811-.647-4.927-1.943s-1.547-3.036-1.29-5.225c.246-2.105 1.113-3.837 2.598-5.195s3.264-2.038 5.332-2.038c2.134 0 3.746.636 4.837 1.908s1.509 3.006 1.251 5.204a5.583 5.583 0 0 1-.06.389 19.45 19.45 0 0 1-.126.622z" fill="#0f77b7"/></svg>