<svg xmlns="http://www.w3.org/2000/svg" xmlns:xlink="http://www.w3.org/1999/xlink" viewBox="0 0 1409.03 644.03"><defs><style>.cls-1,.cls-2,.cls-3{fill:#eff4f9;}.cls-2{opacity:0.3;}.cls-2,.cls-3{isolation:isolate;}.cls-3{opacity:0.6;}.cls-4{fill:#ff6161;}.cls-5{opacity:0.1;}.cls-10,.cls-12,.cls-6,.cls-7{fill:#fff;}.cls-7{opacity:0.25;}.cls-8{fill:#d1d3d4;}.cls-9{fill:#d461ff;}.cls-10,.cls-29{opacity:0.15;}.cls-11{fill:#ffa05f;}.cls-12{opacity:0.34;}.cls-13{fill:#b0edff;}.cls-14{fill:#61daff;}.cls-15,.cls-37{fill:#395b80;}.cls-16{fill:url(#linear-gradient);}.cls-17{fill:#ff9200;}.cls-18{fill:url(#linear-gradient-2);}.cls-19,.cls-41{fill:#2e313a;}.cls-20{fill:url(#linear-gradient-3);}.cls-21{fill:url(#linear-gradient-4);}.cls-22{fill:url(#linear-gradient-5);}.cls-23{fill:url(#linear-gradient-6);}.cls-24{fill:#d69547;}.cls-25{fill:#d6721e;}.cls-26{fill:#d5753e;}.cls-27{fill:#d57328;}.cls-28{fill:url(#linear-gradient-7);}.cls-30{fill:#1e374c;}.cls-31{fill:url(#linear-gradient-8);}.cls-32{fill:#ededbb;}.cls-33{fill:#d6753e;}.cls-34{fill:none;}.cls-35{fill:#9e512b;}.cls-36{fill:#542713;}.cls-37,.cls-38,.cls-39,.cls-41,.cls-42,.cls-43,.cls-47,.cls-48,.cls-49,.cls-50,.cls-51{fill-rule:evenodd;}.cls-38{fill:url(#linear-gradient-9);}.cls-39,.cls-40{fill:#294865;}.cls-42{fill:url(#linear-gradient-10);}.cls-44{fill:#39474b;}.cls-45{fill:#e77b00;}.cls-46{fill:#db6e00;}.cls-47{fill:#794c00;}.cls-48{fill:#6c3f00;}.cls-49{fill:#5f3200;}.cls-50{fill:#677980;}.cls-51{fill:#f1f2f2;}.cls-52{fill:url(#linear-gradient-11);}</style><linearGradient id="linear-gradient" x1="1088.42" y1="503.08" x2="1128.56" y2="503.08" gradientTransform="matrix(-1, 0, 0, 1, 1595.71, 0)" gradientUnits="userSpaceOnUse"><stop offset="0" stop-color="#1e2128"/><stop offset="1" stop-color="#2e313a"/></linearGradient><linearGradient id="linear-gradient-2" x1="126.87" y1="56.92" x2="207.1" y2="51.13" gradientTransform="translate(837.61 569.09) rotate(-36.29)" gradientUnits="userSpaceOnUse"><stop offset="0" stop-color="#f6921e"/><stop offset="1" stop-color="#ca6928"/></linearGradient><linearGradient id="linear-gradient-3" x1="439.74" y1="462.93" x2="482.76" y2="462.58" gradientTransform="matrix(-1, 0, 0, 1, 1595.71, 0)" gradientUnits="userSpaceOnUse"><stop offset="0" stop-color="#f7931a"/><stop offset="1" stop-color="#cc6806"/></linearGradient><linearGradient id="linear-gradient-4" x1="350" y1="526.86" x2="383.53" y2="526.59" gradientTransform="matrix(-1, -0.06, -0.06, 1, 1531.98, 26.61)" xlink:href="#linear-gradient-3"/><linearGradient id="linear-gradient-5" x1="446.62" y1="371.76" x2="493.98" y2="389.97" xlink:href="#linear-gradient-3"/><linearGradient id="linear-gradient-6" x1="652.7" y1="392.66" x2="692.46" y2="528.98" gradientTransform="translate(368.52)" gradientUnits="userSpaceOnUse"><stop offset="0" stop-color="#f0cd59"/><stop offset="1" stop-color="#f7931a"/></linearGradient><linearGradient id="linear-gradient-7" x1="477.9" y1="513.22" x2="499.19" y2="612.31" gradientTransform="matrix(-1, 0, 0, 1, 1595.71, 0)" gradientUnits="userSpaceOnUse"><stop offset="0" stop-color="#294865"/><stop offset="1" stop-color="#395b80"/></linearGradient><linearGradient id="linear-gradient-8" x1="473.73" y1="512.16" x2="545.73" y2="498.61" xlink:href="#linear-gradient"/><linearGradient id="linear-gradient-9" x1="439.54" y1="334.72" x2="705.43" y2="334.72" xlink:href="#linear-gradient"/><linearGradient id="linear-gradient-10" x1="609.98" y1="317.74" x2="721.11" y2="317.74" gradientTransform="translate(320.08)" xlink:href="#linear-gradient"/><linearGradient id="linear-gradient-11" x1="202.3" y1="113" x2="282.54" y2="107.21" xlink:href="#linear-gradient-2"/></defs><title>cz-home-ad2</title><g id="Layer_2" data-name="Layer 2"><g id="Layer_1-2" data-name="Layer 1"><path class="cls-1" d="M1037.62,399.18h90a2,2,0,0,1,2,2v90a2,2,0,0,1-2,2h-90a2,2,0,0,1-2-2v-90a2,2,0,0,1,2-2m0-3a5,5,0,0,0-5,5v90a5,5,0,0,0,5,5h90a5,5,0,0,0,5-5v-90a5,5,0,0,0-5-5Z"/><polygon class="cls-1" points="1066.44 274.92 1074.4 263.96 1077.93 267.77 1085.77 256.97 1098.8 274.92 1085.02 274.92 1072.74 274.92 1066.44 274.92"/><path class="cls-1" d="M1077.28,260.48a1.76,1.76,0,1,1,1.76-1.76A1.75,1.75,0,0,1,1077.28,260.48Z"/><path class="cls-1" d="M1081.12,289.2v57.36l-3.94,4.81v7.77l-1.48,1.38-.93,18.56,6.33-6.09-.14,7.63,1.85,1.28,1.91-1.39.09-7.18,5.83,5.13-.23-13-1.43-2.4.36-7.89-1-1.6.48-2.47-4.7-4.65V289.2l23.17-8.21,3.66-1.3-2.18-3.22-23.67-34.81-2.48-3.65-2.48,3.65-23.67,34.81-2.18,3.22L1058,281Zm25.17-11-23.67,8.39L1059,278.16l23.67-34.81Zm-22.6,88.5,5.47,6.3,0,2.39-5.51-4.85Zm0-6.69,4.13,3.87,1.21,2,0,.89-5.36-5.32Zm0-1.22V353h.43V351.1l3.51,4,.3.49-.28,6.16Zm-7.16,12.84,5.31-5.39v4.15l-5.51,5.31Zm5.31-14v3c-1.09,1-3.79,3.49-5,4.56l.19-3.88Zm-.72-6.58v2h.72v2.64c-.93.73-2.56,1.93-3.28,2.5v-4.54Z"/><path class="cls-1" d="M1037.62,218h90a2,2,0,0,1,2,2v90a2,2,0,0,1-2,2h-90a2,2,0,0,1-2-2V220a2,2,0,0,1,2-2m0-3a5,5,0,0,0-5,5v90a5,5,0,0,0,5,5h90a5,5,0,0,0,5-5V220a5,5,0,0,0-5-5Z"/><path class="cls-1" d="M1017.62,195.66H1394V608H1017.62V195.66m-5-15a10,10,0,0,0-10,10V613a10,10,0,0,0,10,10H1399a10,10,0,0,0,10-10V190.66a10,10,0,0,0-10-10Z"/><g id="Layer_2-2" data-name="Layer 2"><g id="Layer_1-2-2" data-name="Layer 1-2"><path class="cls-1" d="M1401.87,622.24s-73.74.8-104.66-40.8a168.17,168.17,0,0,1-22.43-39.89l-5-10.63c-.12-.23-.23-.46-.34-.69h0l-.34-.65c0-.08-.09-.16-.14-.24A24,24,0,0,0,1257.52,519a5.36,5.36,0,0,0-.6-.24,20.89,20.89,0,0,0-2.14-.75,21.92,21.92,0,0,0-2.23-.54,24.8,24.8,0,0,0-12,.59c-.59.17-1.2.37-1.78.6-.76.3-1.53.63-2.28,1a25.91,25.91,0,0,0-4.18,2.62,25.46,25.46,0,0,0-7.32,8.87,6.24,6.24,0,0,0-.37.73s-6,10.91-7.22,13.92l-.29.69-3.66,9-3.55,7.43c-.36.77-.73,1.52-1.11,2.26a.06.06,0,0,0,0,.06c-.38.68-.76,1.44-1.17,2.17-.15.26-.29.54-.45.8a80.31,80.31,0,0,1-38.13,34.5c-.69.29-1.38.58-2.07.85-2.37.92-4.75,1.76-7.15,2.46a76.23,76.23,0,0,1-7.51,1.85,83.41,83.41,0,0,1-40.19-2c-1.95-.58-3.91-1.24-5.81-2l-.13,0a150.32,150.32,0,0,1-15.87-8q-3.65-2.12-7.15-4.44c-1.27-.84-2.52-1.69-3.76-2.57l-.81-.58a115.07,115.07,0,0,1-31.92-34.43c-.74-1.19-1.45-2.42-2.14-3.65l-39.65-70.56-9-18.81c-.19-.4-.38-.8-.59-1.19h0c-.2-.39-.4-.77-.61-1.15-.08-.13-.16-.29-.24-.42a42.38,42.38,0,0,0-20.14-18.23l-1.07-.45c-1.26-.48-2.51-.92-3.78-1.29s-2.63-.69-4-1a44,44,0,0,0-21.23,1.06c-1,.31-2.07.68-3.13,1.06a40.13,40.13,0,0,0-4,1.77,45.43,45.43,0,0,0-21,21.59s-2.75,5-5.78,10.7c-2.85,5.39-5.93,11.31-7,13.92l-.49,1.18L901,492.8l-7.77,16.32c-.54,1.15-1.09,2.29-1.67,3.4a.35.35,0,0,0-.05.08c-.57,1.09-1.14,2.18-1.74,3.26l-.69,1.22a121.14,121.14,0,0,1-57.5,52c-1,.43-2.07.86-3.06,1.26-3.58,1.42-7.16,2.67-10.79,3.73a108.41,108.41,0,0,1-11.32,2.75,125.58,125.58,0,0,1-53.13-1l-33.54-15.55A151.88,151.88,0,0,1,700.4,549.5a170.07,170.07,0,0,1-39.24-35.75,164.12,164.12,0,0,1-24.09-40.34L595.4,372l-23.31-56.7L571,312.56c-5-12.21-29.27-56.4-29.27-56.4a104.27,104.27,0,0,0-48.12-49.48c-3-1.49-6.09-2.85-9.23-4.05-2.36-.89-4.76-1.71-7.18-2.43a100.89,100.89,0,0,0-48.63-2.41,92.41,92.41,0,0,0-9.08,2.23c-2.91.85-5.78,1.86-8.66,3l-2.46,1a97.08,97.08,0,0,0-46.13,41.74c-.18.32-.37.65-.54,1-.49.86-.95,1.73-1.38,2.62v0c-.46.91-.91,1.82-1.38,2.76l-20.52,43.09L247.51,456.92c-1.59,2.83-3.22,5.64-4.91,8.4a264.38,264.38,0,0,1-73.14,78.86c-.63.43-1.24.87-1.87,1.32-2.83,2-5.71,4-8.61,5.89a344.41,344.41,0,0,1-55.85,29.9c-22.42,9.48-91.76,39.52-103.13,41H1401.87Z"/><path class="cls-2" d="M1148.24,622.24l-195,.8H938.54L618,622.35l-581.59-.84L176.85,361.23a69.85,69.85,0,0,1,9.87-13.49c10.77-11.47,25.32-18.86,42.4-20.85l2.61-.27a97.31,97.31,0,0,1,21,.57,116.6,116.6,0,0,1,22,5.26h.09q3,1,6,2.23c14.3,4.89,28.91,7,43,5.83.88-.08,1.75-.16,2.61-.27a70.79,70.79,0,0,0,25.72-7.92,65.39,65.39,0,0,0,16.71-12.82c.61-.65,1.19-1.29,1.76-2l1.3-2.26,36.59-64.5,34.55-62.41,20.27-35.53a67.13,67.13,0,0,1,8.09-11.36c10.92-12.43,26.12-20.34,44.18-22.25l2.6-.24a96,96,0,0,1,17.29.3A123,123,0,0,1,575.32,131q1.5.69,3,1.5,5.26,2.68,10.42,5.84c1.71.77,3.44,1.5,5.18,2.17,2.23.85,4.5,1.62,6.78,2.3a95.45,95.45,0,0,0,45.94,2.28c2.88-.56,5.73-1.26,8.58-2.11s5.48-1.75,8.18-2.82c.77-.31,1.55-.63,2.32-1a88.52,88.52,0,0,0,20.72-12.45c4.82-5.12,10-10.59,15.6-16a.08.08,0,0,0,0,0c9.31-8.95,19.79-17.79,31.71-24.65A.53.53,0,0,0,734,86a100.32,100.32,0,0,1,24.34-10.16c1.18-.32,2.37-.6,3.57-.87l2-.41.28,0c.58-.12,1.18-.23,1.77-.33l2.53-.42c.85-.13,1.53-.21,2.3-.31,1.88-.21,3.78-.37,5.72-.47,2.14-.1,4.29-.17,6.41-.2H783c2.41,0,4.82.14,7.21.33l2.14.21a97.06,97.06,0,0,1,17.45,3.51c2.28.69,4.55,1.46,6.78,2.3q2.63,1,5.19,2.17c1.19.53,2.36,1.08,3.52,1.66a94.48,94.48,0,0,1,9.92,5.68c2.07,1.37,4.14,2.8,6.12,4.33a98,98,0,0,1,29.42,36.72S966.29,421.46,1148.24,622.24Z"/><path class="cls-3" d="M1014.24,86.38c-9.11-17.46-18.13-28.91-31.14-38.88a103.16,103.16,0,0,0-17-10.61c-3-1.5-6.09-2.85-9.22-4-2.36-.9-4.76-1.72-7.18-2.44a101.32,101.32,0,0,0-37.49-4A100,100,0,0,0,901.08,28q-4.55.89-9.07,2.23c-2.91.85-5.79,1.86-8.66,3-.82.33-1.65.69-2.46,1A97.08,97.08,0,0,0,834.76,76c-.19.32-.37.65-.55,1-.49.87-30.75,55.51-31.11,56.05a114.85,114.85,0,0,1-51.7,44.34c-1,.42-1.94.83-2.93,1.22-2.37.94-4.75,1.79-7.14,2.57-1.05.34-2.07.69-3.15,1q-5.38,1.6-10.79,2.66a120.29,120.29,0,0,1-57.84-2.87q-4.32-1.29-8.54-2.91a117.63,117.63,0,0,1-11-4.82,123.78,123.78,0,0,1-56.71-57.68,17.36,17.36,0,0,1-.84-2.17l-.12-.37a.09.09,0,0,0,0-.07,123.72,123.72,0,0,0-57.19-58.76,118.54,118.54,0,0,0-11-4.81c-2.82-1.08-5.67-2.06-8.55-2.92a121,121,0,0,0-34.23-5.12c-1,0-2,0-3,0a119.48,119.48,0,0,0-20.66,2.23A107.61,107.61,0,0,0,447,47.19q-5.17,1.52-10.29,3.54c-1,.39-2,.81-2.92,1.21a115.53,115.53,0,0,0-54.88,49.64c-.22.38-.43.78-.64,1.18-.59,1-1.13,2.06-1.67,3.1,0,0,0,0,0,.07-.55,1.07-1.09,2.17-1.6,3.26l-8.32,17.46c-.19.41-.4.8-.62,1.19-1.38,2.33-2.68,4.74-3.89,7.21l-40,81.93-6.92,14.15L277.38,308.7h0l-34.86,71.5c-.14.3-.29.59-.46.89l-39.79,70.65C190.85,472,117.78,620.21,120.54,620.25l543.43.82,125.39.81h212.81a8.7,8.7,0,0,0,1.15,0h0c8.69-.59,381.11.37,381.11.37-81.24-17.44-105.22-49.25-127.73-73.46C1075.58,353.87,1055.4,179,1014.24,86.38Z"/></g></g><path class="cls-4" d="M459.66,214.63,480,236a1.57,1.57,0,0,1-.6,2.56h0a127.91,127.91,0,0,1-26.3,6.37h0a1.57,1.57,0,0,1-1.7-2Z"/><path class="cls-5" d="M451.68,241.78h.23l2.6-.34a106.84,106.84,0,0,0,22-5.33l2.46-.88a1,1,0,0,0,.21-.1l1.07,1.12a1.31,1.31,0,0,1-.51,2.13l-2.47.89a106.68,106.68,0,0,1-22,5.33l-2.6.34a1.31,1.31,0,0,1-1.42-1.67Z"/><ellipse class="cls-4" cx="435.05" cy="113.03" rx="100.29" ry="113.7" transform="translate(-14.38 105.59) rotate(-13.62)"/><path class="cls-6" d="M440.76,206.05a69.37,69.37,0,0,0,16.35-2c20.38-4.94,37.46-18.77,48.1-38.95,11.09-21,13.88-46.24,7.88-71C502.69,51.17,467.47,20,429.34,20A69.3,69.3,0,0,0,413,22c-43,10.42-68.15,59.75-56,110C367.42,174.88,402.64,206.05,440.76,206.05Z"/><path class="cls-4" d="M440.76,186.05a49.68,49.68,0,0,0,11.64-1.39c14.72-3.57,27.2-13.81,35.12-28.84,8.81-16.71,11-36.95,6.13-57C485.4,64.74,458.35,40,429.34,40a49.8,49.8,0,0,0-11.64,1.39c-15,3.65-27.67,14.19-35.57,29.7-8.42,16.55-10.44,36.48-5.68,56.13C384.71,161.31,411.76,186.05,440.76,186.05Z"/><path class="cls-6" d="M440.76,166.05a29.45,29.45,0,0,0,6.93-.83c9.07-2.19,16.93-8.84,22.14-18.73,6.53-12.39,8.09-27.64,4.39-42.95C468.2,78.72,448.91,60,429.34,60a29.58,29.58,0,0,0-6.93.83c-9.28,2.25-17.25,9.11-22.46,19.33-6.25,12.3-7.7,27.34-4.06,42.35C401.9,147.33,421.19,166.05,440.76,166.05Z"/><path class="cls-4" d="M440.76,146.05a9.45,9.45,0,0,0,2.23-.27c3.35-.81,6.69-3.95,9.15-8.62,4.26-8.08,5.2-18.35,2.64-28.91C450.69,91.35,438.32,80,429.34,80a9.43,9.43,0,0,0-2.22.27c-3.46.84-6.87,4.11-9.34,9-4.09,8-5,18.19-2.45,28.56C419.42,134.7,431.79,146.05,440.76,146.05Z"/><path class="cls-7" d="M346.89,86.83c-6.39,34.77,9.23,67.41,20.64,68.89,17.93,2.31-1.82-26.68,4.57-61.45s36.51-61.92,18.6-64.47C381.4,28.48,353.29,52.06,346.89,86.83Z"/><path class="cls-5" d="M450.51,210.53c53.83-13,85.49-73.08,70.71-134.11a125.93,125.93,0,0,0-21.5-46,123.9,123.9,0,0,1,32.81,59c14.78,61-16.88,121.08-70.71,134.12-38.55,9.33-78-8-102.75-40.95C383.62,206.92,417.4,218.55,450.51,210.53Z"/><path class="cls-8" d="M486.83,375.5c-3.18,61.16-7.23,139,17.31,220.49l-1.44.16c-24.52-81.62-20.47-159.5-17.29-220.73.4-7.68.78-14.94,1.09-22,1.06-23.94,0-58.71-11-88.47-6.6-17.78-13.74-25.41-13.81-25.48l1-1c.3.31,7.37,7.85,14.08,25.86,11.16,30,12.23,65,11.17,89.13C487.6,360.55,487.23,367.81,486.83,375.5Z"/><path class="cls-8" d="M503.78,394.92c3.16,40-10.18,67-24.31,95.65-1.69,3.43-3.44,7-5.15,10.53-9.19,19.07-14.26,40.34-15.06,63.22a200.84,200.84,0,0,0,1.15,28.79H459a199.64,199.64,0,0,1-1.13-28.82c.8-23.08,5.91-44.55,15.19-63.81,1.72-3.56,3.47-7.1,5.16-10.53,14-28.45,27.29-55.31,24.17-94.92-1.84-23.2,7-47.11,14.66-63.09a199.16,199.16,0,0,1,17.3-29.37l1.14.85a196.4,196.4,0,0,0-17.18,29.17C510.67,348.39,502,372,503.78,394.92Z"/><path class="cls-9" d="M543.18,277.57l6.66,28.68a1.56,1.56,0,0,1-1.82,1.89h0a127.29,127.29,0,0,1-25.89-7.88h0a1.57,1.57,0,0,1-.46-2.58Z"/><path class="cls-5" d="M522.51,296.9l.2.1,2.41,1a106.61,106.61,0,0,0,21.66,6.59l2.58.49.22,0,.35,1.5a1.31,1.31,0,0,1-1.52,1.59l-2.57-.5a106.42,106.42,0,0,1-21.66-6.59l-2.41-1a1.31,1.31,0,0,1-.38-2.16Z"/><ellipse class="cls-9" cx="573.61" cy="177.55" rx="113.7" ry="100.29" transform="translate(236.79 674.65) rotate(-73.08)"/><path class="cls-6" d="M566.58,270.21c37,0,71.44-28.49,83.85-69.29,7.42-24.39,6.08-49.73-3.77-71.36C637.2,108.8,621,94,600.89,87.9a69.8,69.8,0,0,0-20.25-3c-36.95,0-71.44,28.49-83.85,69.29-7.42,24.39-6.08,49.73,3.77,71.36,9.46,20.76,25.72,35.56,45.78,41.66A69.34,69.34,0,0,0,566.58,270.21Z"/><path class="cls-9" d="M566.58,250.21c28.23,0,54.84-22.66,64.72-55.11,6-19.73,5-40.06-2.84-57.24-7-15.47-18.9-26.41-33.4-30.82a49.24,49.24,0,0,0-14.42-2.15c-28.23,0-54.84,22.66-64.71,55.11-6,19.73-5,40.06,2.83,57.25,7,15.46,18.91,26.41,33.4,30.81A49.29,49.29,0,0,0,566.58,250.21Z"/><path class="cls-6" d="M566.58,230.21c19.2,0,38.37-17.21,45.58-40.93,4.58-15.06,3.91-30.38-1.9-43.13-4.63-10.17-12.1-17.26-21-20a29.47,29.47,0,0,0-8.6-1.28c-19.19,0-38.36,17.22-45.58,40.93-4.58,15.07-3.91,30.39,1.9,43.14,4.63,10.16,12.1,17.26,21,20A29.47,29.47,0,0,0,566.58,230.21Z"/><path class="cls-9" d="M566.58,210.21c8.8,0,21.42-10.23,26.45-26.75,3.16-10.4,2.82-20.71-1-29-2.19-4.8-5.33-8.13-8.64-9.13a9.32,9.32,0,0,0-2.78-.42c-8.8,0-21.42,10.23-26.45,26.75-3.16,10.4-2.82,20.71,1,29,2.19,4.79,5.34,8.12,8.64,9.13A9.69,9.69,0,0,0,566.58,210.21Z"/><path class="cls-10" d="M511,110.19c-23.18,26.7-26.31,62.75-17.23,69.82,14.27,11.11,12-23.9,35.16-50.6s62.9-34.79,48.78-46.08C570.36,77.47,534.17,83.5,511,110.19Z"/><path class="cls-5" d="M537.38,269.39c53,16.12,110.77-19.51,129-79.59a125.9,125.9,0,0,0,4.83-50.5,123.8,123.8,0,0,1-1.7,67.44c-18.28,60.08-76,95.72-129,79.59-37.94-11.54-63.15-46.5-67.69-87.47C481.6,232.29,504.79,259.47,537.38,269.39Z"/><path class="cls-8" d="M459.43,566.58a403.86,403.86,0,0,0-16.92,39.24l-1.22-.79A403.69,403.69,0,0,1,458.16,566c10.71-21.39,22.32-38.65,34.52-51.3,27.4-28.4,39.59-55.22,45-72.72,5.86-19,5.24-31.38,5.23-31.5l1.41-.08c0,.12.66,12.73-5.26,31.92-5.45,17.67-17.74,44.74-45.36,73.36C481.6,528.18,470.07,545.32,459.43,566.58Z"/><path class="cls-11" d="M552.07,385.47l6.74,28.66A1.57,1.57,0,0,1,557,416h0a128.11,128.11,0,0,1-25.91-7.81h0a1.57,1.57,0,0,1-.46-2.59Z"/><path class="cls-5" d="M531.46,404.84a1,1,0,0,0,.2.11l2.41,1a106.44,106.44,0,0,0,21.68,6.53l2.57.49.23,0,.35,1.5a1.31,1.31,0,0,1-1.52,1.59l-2.57-.49a106.63,106.63,0,0,1-21.68-6.53l-2.41-1a1.31,1.31,0,0,1-.39-2.16Z"/><ellipse class="cls-11" cx="582.24" cy="285.37" rx="113.7" ry="100.29" transform="matrix(0.29, -0.96, 0.96, 0.29, 141, 760.49)"/><path class="cls-6" d="M575.26,378c37,0,71.52-28.58,83.86-69.5,7.36-24.41,6-49.75-4-71.35-9.51-20.74-25.8-35.49-45.88-41.54a69.54,69.54,0,0,0-20.06-3c-37,0-71.53,28.58-83.86,69.51-14.91,49.47,7.45,100.11,49.84,112.89A69.53,69.53,0,0,0,575.26,378Z"/><path class="cls-11" d="M575.26,358c28.29,0,54.9-22.73,64.71-55.27,5.95-19.75,4.89-40.08-3-57.24-7.09-15.45-19-26.36-33.48-30.73a49.45,49.45,0,0,0-14.29-2.11c-28.29,0-54.9,22.73-64.71,55.28-5.83,19.36-4.92,39.37,2.58,56.35,7,15.92,19.06,27.15,33.88,31.62A49.44,49.44,0,0,0,575.26,358Z"/><path class="cls-6" d="M575.26,338c19.23,0,38.39-17.26,45.56-41,4.54-15.08,3.83-30.4-2-43.13-4.66-10.16-12.14-17.23-21.07-19.92a29.35,29.35,0,0,0-8.52-1.26c-19.23,0-38.39,17.26-45.56,41.05-4.46,14.79-3.85,29.89,1.73,42.51C550,326.74,557.6,334,566.74,336.79A29.68,29.68,0,0,0,575.26,338Z"/><path class="cls-11" d="M575.26,318c8.82,0,21.42-10.25,26.41-26.82,3.14-10.41,2.77-20.71-1-29-2.2-4.8-5.36-8.12-8.66-9.11a9.54,9.54,0,0,0-2.75-.41c-8.82,0-21.42,10.25-26.41,26.82-3.08,10.23-2.77,20.4.87,28.66,2.2,5,5.42,8.44,8.83,9.47A9.53,9.53,0,0,0,575.26,318Z"/><path class="cls-12" d="M519.44,218.17c-23.1,26.76-26.14,62.82-17,69.87,14.3,11.07,11.92-23.94,35-50.7s62.81-35,48.65-46.2C578.73,185.29,542.55,191.42,519.44,218.17Z"/><path class="cls-5" d="M546.25,377.3c53,16,110.72-19.8,128.84-79.93a126,126,0,0,0,4.7-50.51,123.86,123.86,0,0,1-1.52,67.45c-18.12,60.13-75.81,95.91-128.84,79.93-38-11.45-63.27-46.34-67.92-87.3C490.37,340.35,513.63,367.47,546.25,377.3Z"/><path class="cls-8" d="M495.11,552a403.08,403.08,0,0,0,12.32,40.92l-1.44.19a406.05,406.05,0,0,1-12.26-40.77c-5.58-23.26-7.81-44-6.61-61.48,2.68-39.37-5.26-67.75-12.4-84.62C467,388,458.53,378.87,458.44,378.78l1-1c.09.09,8.7,9.32,16.53,27.81,7.21,17,15.23,45.66,12.53,85.34C487.35,508.34,489.56,528.88,495.11,552Z"/><path class="cls-13" d="M449.38,353.78,473,371.37a1.56,1.56,0,0,1-.17,2.62h0A127.21,127.21,0,0,1,448,384.69h0a1.57,1.57,0,0,1-2-1.68Z"/><path class="cls-5" d="M446.08,381.88l.23-.05,2.5-.77a106.86,106.86,0,0,0,20.79-9l2.28-1.29.19-.13,1.24.92a1.31,1.31,0,0,1-.14,2.19l-2.28,1.29a106.6,106.6,0,0,1-20.8,9l-2.5.77a1.31,1.31,0,0,1-1.69-1.4Z"/><ellipse class="cls-14" cx="408.01" cy="257.76" rx="100.29" ry="113.7" transform="translate(-68.69 182.49) rotate(-23.31)"/><path class="cls-6" d="M417.37,349.51a69.66,69.66,0,0,0,27.72-5.69C485.75,326.3,502.2,273.44,481.75,226c-15.45-35.87-48.85-60-83.1-60a69.56,69.56,0,0,0-27.72,5.69c-19.25,8.29-33.76,24.81-40.85,46.49-7.39,22.59-5.9,47.92,4.19,71.34C349.73,325.4,383.12,349.51,417.37,349.51Z"/><path class="cls-14" d="M417.37,329.51a49.77,49.77,0,0,0,19.81-4.06c30.53-13.15,42.29-54.22,26.21-91.55C451.05,205.26,425,186,398.65,186a49.71,49.71,0,0,0-19.8,4c-13.91,6-24.48,18.19-29.76,34.35-5.87,18-4.61,38.26,3.55,57.2C365,310.26,391,329.51,417.37,329.51Z"/><path class="cls-6" d="M417.37,309.51a29.79,29.79,0,0,0,11.89-2.43c20.06-8.64,27.28-38.53,15.76-65.26-9.08-21.08-28.15-35.8-46.37-35.8a30,30,0,0,0-11.89,2.42c-8.56,3.69-15.19,11.57-18.66,22.19-4.36,13.32-3.32,28.62,2.91,43.08C380.09,294.78,399.15,309.51,417.37,309.51Z"/><path class="cls-14" d="M417.37,289.51a9.85,9.85,0,0,0,4-.79c3.72-1.61,6.71-6.05,8.19-12.18,2-8.18.92-18-2.89-26.81-6.64-15.4-19.38-23.71-28-23.71a9.89,9.89,0,0,0-4,.79c-3.17,1.37-5.92,5-7.56,10-2.84,8.68-2,19,2.26,28.94C396,281.19,408.75,289.51,417.37,289.51Z"/><path class="cls-7" d="M316.7,246.78c-.45,35.36,20.44,64.9,31.94,64.43,18.07-.73-6.29-26-5.84-61.34s25.56-67.18,7.48-66.68C340.89,183.45,317.15,211.43,316.7,246.78Z"/><path class="cls-5" d="M439.66,351.28c50.87-21.92,72-86.44,47.12-144.12a125.94,125.94,0,0,0-28.92-41.67,123.9,123.9,0,0,1,42.26,52.59C525,275.75,503.87,340.27,453,362.19c-36.42,15.69-78.24,5.28-108.17-23.07C373.12,359,408.38,364.75,439.66,351.28Z"/><path class="cls-15" d="M402.66,596.69a40.3,40.3,0,0,0,17.86,3,25.91,25.91,0,0,1,4.82-.15,25,25,0,0,1,9,3.79,112.34,112.34,0,0,0,24,10.47,105.23,105.23,0,0,0,40.86,3.53c1.32-.15,2.65-.32,4-.53a10.84,10.84,0,0,1,5.57,0,16.15,16.15,0,0,1,3.46,2.18,22.22,22.22,0,0,0,14,3.75c.14-1.66.3-3.32.31-5a22.65,22.65,0,0,0-.3-4c-.47-2.67-2.15-5.33-2.77-8-2-8.9.1-18.4,0-27.29,0-1.74-.1-3.47-.16-5.22a161.64,161.64,0,0,0-2.92-24c-3-15.16-9.13-26.68-17.59-39.37l.9-1a25.41,25.41,0,0,1,3.75-3.28c3-2.12,6.56-3.23,9.69-5l.65-.38a11.23,11.23,0,0,0,5.75-8.05,10.47,10.47,0,0,0-.43-3.47c-.72-2.53-2.32-5.16-4.33-5.73a8.34,8.34,0,0,0-4.15.12l0,0a1.49,1.49,0,0,1-1.94-.8c-.36-.6-.68-1.2-1-1.82a17.7,17.7,0,0,0-2.38-3.78,5.42,5.42,0,0,0-4.49-1.95,2.74,2.74,0,0,0-1.13.43c-.6.4-1,1-1.64,1.46-1.83,1.25-4.54.24-6.42-1.38a6.32,6.32,0,0,1-.6-.56,31.63,31.63,0,0,0-4.7-4.48c-2-1.3-5.16-1.32-6.08.8a2.5,2.5,0,0,1-.39.74h0a1.47,1.47,0,0,1-1.18.11,30.53,30.53,0,0,1-6-1.88l-1.53-.7a31.73,31.73,0,0,0-5.76-2.37,7.7,7.7,0,0,0-5.76.18,4.51,4.51,0,0,0-1.43,1.42c-2.14,3.16-1.53,7.71.1,11.4a83.59,83.59,0,0,0,6.58,10.33,23,23,0,0,1,3.28,7.17,5.64,5.64,0,0,1,.15.82,16.76,16.76,0,0,0,.36,3.25,28.22,28.22,0,0,0-4.45,1.54,52.89,52.89,0,0,0-6.47,3.36l-.54.33a62.34,62.34,0,0,0-9.17,7.43,106.71,106.71,0,0,0-14.82,17.62,115.87,115.87,0,0,0-14.92,31.48,120.36,120.36,0,0,0-4.07,18.87,26.63,26.63,0,0,0-9.3,5.75A28,28,0,0,0,402.66,596.69Z"/><path class="cls-16" d="M467.15,503.51a39.51,39.51,0,0,1,10.4-1.79,31,31,0,0,1,11,2,62.92,62.92,0,0,1,11.72,5.79c1.2.77,3.88,3.08,5.07,3s1.88-2.77.35-3a1.31,1.31,0,0,0,.39.05,1.77,1.77,0,0,0,1.21-1.93,5.44,5.44,0,0,0-1.49-2.66,33.3,33.3,0,0,0-22.64-11.23,18.42,18.42,0,0,0-10,1.89c-3.93,2.2-3.52,4.11-2.39,4.6l.16,0C469.59,500.47,467.07,502.53,467.15,503.51Z"/><polygon class="cls-6" points="865.79 505.31 868.8 485.93 856.84 492.07 862.58 497.76 859.97 499.53 865.79 505.31"/><circle class="cls-6" cx="857.1" cy="497.31" r="1.06"/><path class="cls-17" d="M867.41,512.36l.87-1.6,7.22-13.39.24-.44-.1-.49-2.82-14.95-.34-1.79-1.65.78-23,10.94-1.87.88,1.51,1.42,18.64,17.39Zm1.39-26.43-3,19.38L860,499.53l2.61-1.77-5.74-5.69Zm-10.65,11.54a1.06,1.06,0,1,1-.88-1.21A1.06,1.06,0,0,1,858.15,497.47Z"/><path class="cls-1" d="M1284,218h90a2,2,0,0,1,2,2v90a2,2,0,0,1-2,2h-90a2,2,0,0,1-2-2V220a2,2,0,0,1,2-2m0-3a5,5,0,0,0-5,5v90a5,5,0,0,0,5,5h90a5,5,0,0,0,5-5V220a5,5,0,0,0-5-5Z"/><polygon class="cls-1" points="1312.85 274.92 1320.81 263.96 1324.34 267.77 1332.18 256.97 1345.21 274.92 1331.43 274.92 1319.15 274.92 1312.85 274.92"/><path class="cls-1" d="M1323.69,260.48a1.76,1.76,0,1,1,1.76-1.76A1.76,1.76,0,0,1,1323.69,260.48Z"/><path class="cls-1" d="M1327.53,289.2v57.36l-3.94,4.81v7.77l-1.48,1.38-.93,18.56,6.33-6.09-.14,7.63,1.86,1.28,1.9-1.39.09-7.18,5.84,5.13-.24-13-1.43-2.4.36-7.89-1-1.6.48-2.47-4.7-4.65V289.2L1353.7,281l3.66-1.3-2.18-3.22-23.67-34.81L1329,238l-2.48,3.65-23.67,34.81-2.18,3.22,3.66,1.3Zm25.17-11L1329,286.55l-23.67-8.39L1329,243.35Zm-22.6,88.5,5.47,6.3,0,2.39-5.51-4.85Zm0-6.69,4.13,3.87,1.21,2,0,.89-5.36-5.32Zm0-1.22V353h.43V351.1l3.51,4,.31.49-.29,6.16Zm-7.16,12.84,5.31-5.39v4.15l-5.51,5.31Zm5.31-14v3c-1.09,1-3.79,3.49-5,4.56l.19-3.88Zm-.72-6.58v2h.72v2.64c-.93.73-2.55,1.93-3.28,2.5v-4.54Z"/><path class="cls-1" d="M1284,399.18h90a2,2,0,0,1,2,2v90a2,2,0,0,1-2,2h-90a2,2,0,0,1-2-2v-90a2,2,0,0,1,2-2m0-3a5,5,0,0,0-5,5v90a5,5,0,0,0,5,5h90a5,5,0,0,0,5-5v-90a5,5,0,0,0-5-5Z"/><polygon class="cls-1" points="1312.85 456.65 1320.81 445.69 1324.34 449.5 1332.18 438.7 1345.21 456.65 1331.43 456.65 1319.15 456.65 1312.85 456.65"/><path class="cls-1" d="M1323.69,442.21a1.76,1.76,0,1,1,1.76-1.76A1.76,1.76,0,0,1,1323.69,442.21Z"/><path class="cls-1" d="M1327.53,470.93v56.23a2,2,0,0,0,.15,2.58,6.25,6.25,0,0,0-3.19,2.83,25.77,25.77,0,0,0-4,14.86,12.09,12.09,0,0,0,2,6.89,8.3,8.3,0,0,0,5.77,3.28v2.15a2.08,2.08,0,0,0-1.3,1.92,2.18,2.18,0,0,0,4.36,0,2.06,2.06,0,0,0-1-1.73v-2.41a8.32,8.32,0,0,0,4.3-2.11c2-1.92,3.14-5,3.14-8.76,0-.24,0-.48,0-.73a24.56,24.56,0,0,0-4.6-13.34,8,8,0,0,0-2.68-2.5,2,2,0,0,0,0-3.45V470.93l23.17-8.21,3.66-1.3-2.18-3.22-23.67-34.81-2.48-3.65-2.48,3.65-23.67,34.81-2.18,3.22,3.66,1.3Zm25.17-11L1329,468.28l-23.67-8.39L1329,425.08Zm-22.35,90.78,4.22,3.12a6.41,6.41,0,0,1-.71.77,7,7,0,0,1-3.5,1.77Zm0-3.38,6.07,2.05a11.07,11.07,0,0,1-.61,2.25l-5.45-2.59Zm0-4.43,6.12,1.08c.09.68.15,1.36.18,2,0,.31,0,.65,0,1l-6.29-1.33Zm0-4.28,5,.68c.25.71.46,1.44.64,2.18l-5.66-.15Zm0-3.09,2.79-.94a21.69,21.69,0,0,1,1.55,2.94l-4.33-.17Zm0-4.18a7.76,7.76,0,0,1,2,2l.09.13-2,.89Zm-6.06,23.23,4-3.66,0,5.53A7.15,7.15,0,0,1,1324.24,554.54Zm-2.23-4.1,6.21-3.18v2l-5.52,3.22A10.12,10.12,0,0,1,1322,550.44Zm-.4-4.66,6.6-2.83v2.76l-6.56,2.35c0-.22,0-.45,0-.68s0-.63,0-.94S1321.61,546,1321.61,545.78Zm.82-5.63,5.77-1.61v2.62l-6.31,1.53A24.91,24.91,0,0,1,1322.43,540.15Zm2.53-6.09,3.24,1.44v1.83l-5.2,1A24.33,24.33,0,0,1,1325,534.06Zm3.22-3.23v3.41l-2.44-1.44A4.42,4.42,0,0,1,1328.18,530.83Z"/><path class="cls-1" d="M1160.83,218h90a2,2,0,0,1,2,2v90a2,2,0,0,1-2,2h-90a2,2,0,0,1-2-2V220a2,2,0,0,1,2-2m0-3a5,5,0,0,0-5,5v90a5,5,0,0,0,5,5h90a5,5,0,0,0,5-5V220a5,5,0,0,0-5-5Z"/><polygon class="cls-1" points="1189.65 274.92 1197.6 263.96 1201.14 267.77 1208.97 256.97 1222 274.92 1208.23 274.92 1195.95 274.92 1189.65 274.92"/><path class="cls-1" d="M1200.49,260.48a1.76,1.76,0,1,1,1.75-1.76A1.75,1.75,0,0,1,1200.49,260.48Z"/><path class="cls-1" d="M1204.33,289.2v53.15a5.11,5.11,0,0,1-1-.68c.22.55.38,1.15,1,1.42v.1c-1.86.1-3,.8-3.3,2.41a2.59,2.59,0,0,1,2.84-1.05c-1.38.34-2.15,1.82-2.56,3.18s-.7,2.88-1.75,3.86a8.9,8.9,0,0,0,3.87-2.22c-1.94,2.11-4,4.49-4,7.34a18.25,18.25,0,0,1,2.61-2.59,9.44,9.44,0,0,0-2.71,6,26.32,26.32,0,0,0,1,8.07,11.87,11.87,0,0,1,2.82-2.47,9.85,9.85,0,0,0-1.41,8.28,29.09,29.09,0,0,0,3.62,7.87,16.43,16.43,0,0,0,4.08-15.51c.36,1,.71,2.09,1.08,3.13a10.23,10.23,0,0,0-.78-10.61,7.7,7.7,0,0,1,2.42,2.78c.88-1.19.54-2.92-.2-4.21s-1.83-2.37-2.46-3.71a4.79,4.79,0,0,0,2.72,1.78l-.72-3.38c-.57-2.69-1.18-5.47-2.85-7.65a3.7,3.7,0,0,1,2.11,1,3.35,3.35,0,0,0-2.92-1.76,2.12,2.12,0,0,0,1.34-1.38,4.82,4.82,0,0,1-1.76.55V289.2l23.16-8.21,3.67-1.3-2.19-3.22-23.66-34.81-2.48-3.65-2.49,3.65-23.66,34.81-2.19,3.22,3.67,1.3Zm25.16-11-23.66,8.39-23.67-8.39,23.67-34.81Zm-24.27,68.33c0-.75,0-1.43,0-2h1.2c0,.61,0,1.29,0,2,0,1.52,0,3.3-.05,5.19s0,3.93-.07,6-.07,4.05-.1,5.95c0,1,0,1.87-.06,2.74s0,1.7-.06,2.46-.06,1.45-.08,2.07,0,1.16-.08,1.6c-.05.89-.09,1.4-.09,1.4s0-.51-.08-1.4c0-.44-.06-1-.08-1.6s-.07-1.31-.09-2.07,0-1.59-.06-2.46,0-1.79,0-2.74c0-1.9-.07-3.93-.1-5.95s-.06-4.06-.08-6S1205.24,348,1205.22,346.49Z"/><path class="cls-1" d="M1160.83,399.18h90a2,2,0,0,1,2,2v90a2,2,0,0,1-2,2h-90a2,2,0,0,1-2-2v-90a2,2,0,0,1,2-2m0-3a5,5,0,0,0-5,5v90a5,5,0,0,0,5,5h90a5,5,0,0,0,5-5v-90a5,5,0,0,0-5-5Z"/><polygon class="cls-1" points="1208.97 438.7 1222 456.65 1208.23 456.65 1195.95 456.65 1189.65 456.65 1197.6 445.69 1201.14 449.5 1208.97 438.7"/><path class="cls-1" d="M1200.49,442.21a1.76,1.76,0,1,1,1.75-1.76A1.75,1.75,0,0,1,1200.49,442.21Z"/><path class="cls-1" d="M1177.49,461.42l3.67,1.3,23.17,8.21v61.71a1.72,1.72,0,0,0-.29,1,1.8,1.8,0,0,0,1.06,1.64v22.51h1.46V535.23a1.8,1.8,0,0,0,1.06-1.64,1.78,1.78,0,0,0-.29-1V470.93l23.16-8.21,3.67-1.3L1232,458.2l-23.66-34.81-2.48-3.65-2.49,3.65-23.66,34.81Zm4.67-1.53,23.67-34.81,23.66,34.81-23.66,8.39Z"/><polygon class="cls-1" points="1201.34 556.47 1198.18 559.25 1198.22 556.11 1199.22 554.44 1198.23 555.05 1198.27 552.24 1200.15 549.75 1198.28 550.8 1198.37 544.12 1203.38 539.21 1198.39 542.2 1198.43 538.93 1204.57 535.69 1204.35 555.29 1198.12 563.63 1198.15 561.32 1201.34 556.47"/><polygon class="cls-1" points="1213.27 543.12 1211.23 542.81 1213.28 544.02 1213.31 545.83 1208.45 543.17 1213.33 547.8 1213.45 557.06 1209.34 554.57 1213.47 558.76 1213.53 563.63 1207.3 555.3 1207.08 535.69 1213.22 538.94 1213.27 543.12"/><path class="cls-18" d="M1013.68,480.28a9,9,0,0,1,8.38-.07c4.35,2.24,10.12,7.5,9.35,19.56-1.22,19.06-17.39,36.56-32.43,36.65-14.49.09-25.12-6.59-26.85-8.15s0-6,5.94-6.1,18.17,1.31,25.49-11.3,1.11-16.81,4.8-24.18C1010.37,482.67,1012,481.2,1013.68,480.28Z"/><path class="cls-19" d="M1005.44,500.31s-7.79,10.92-7.36,21.94c.88,22.72,7.9,13.68,8,12.68S1005.44,500.31,1005.44,500.31Z"/><path class="cls-20" d="M1141.11,479.22a7.83,7.83,0,0,0-2.42-6.42c5.39-.75,9.6-3.35,9.4-9.69-.2-6.18-4.28-8.95-9.42-10a7.8,7.8,0,0,0,2.87-6.59c-.43-13.36-24.43-1.78-24.43-1.78l-.13,10.33,0,1.3-.16,12,0,1.5-.14,10.14S1140.33,492.56,1141.11,479.22Z"/><path class="cls-21" d="M1138.23,543.15a6.09,6.09,0,0,0-1.58-5.1c4.23-.34,7.63-2.15,7.77-7.09s-2.9-7.17-6.85-8.2a6.09,6.09,0,0,0,2.55-5c.29-10.41-18.92-2.54-18.92-2.54l-.6,8-.07,1-.7,9.37-.09,1.16-.58,7.88S1137,553.49,1138.23,543.15Z"/><path class="cls-22" d="M1145.68,392.88a8.1,8.1,0,0,0-5.45-5.7c5.68-4,9.26-9.43,6.31-16.37-2.87-6.76-8.59-7.42-14.75-5.48a10.35,10.35,0,0,0,.38-9c-6.21-14.61-28,12.57-28,12.57l4.28,11.58.53,1.46,5,13.5.62,1.68,4.19,11.36S1150.51,408.19,1145.68,392.88Z"/><path class="cls-23" d="M1125.29,522.29l.2,13.49s3.35,46.94,31.29,46.94c0,0,39.71,4.15,52.4-47.56a1,1,0,0,1,2,.32c-3.66,36.09-23.14,110.95-105.78,72.94l-4.12,21.65a.92.92,0,0,1-1.58.44l-25.57-31L1026,600.6l-15.7,23.8a.91.91,0,0,1-1.68-.48l-2.7-133.78s-85.16,12.07-100.62,13.78c0,0-28.1-176.64,81.59-186.08,148.08-16.76,136.9,104.5,136.9,104.5l1.08,72.74Z"/><path class="cls-24" d="M1023.24,418.68c0,5.66-9.18,10.25-20.51,10.25s-20.51-4.59-20.51-10.25,9.18-10.25,20.51-10.25S1023.24,413,1023.24,418.68Z"/><path class="cls-24" d="M959,416.6c.66,2.79-2.74,6-7.58,7.13s-9.31-.18-10-3,2.73-6,7.58-7.13S958.3,413.81,959,416.6Z"/><path class="cls-24" d="M1043.26,426.57c.47,2-2,4.33-5.49,5.16s-6.73-.13-7.21-2.15,2-4.33,5.48-5.16S1042.77,424.56,1043.26,426.57Z"/><path class="cls-24" d="M1002.51,436.92c.47,2-2,4.28-5.42,5.1s-6.65-.13-7.12-2.13,1.95-4.28,5.41-5.1S1002,434.92,1002.51,436.92Z"/><path class="cls-25" d="M1050.58,513.4s4.72,15.24,12.23,19.44c-5.19,6.66-14.28,13.47-24.16-1.34,3.31-2.76,6.88-8.15,10.63-17.32,0,0-14.61,35.72-31.34,1.32,0,0,7.46,25.46,19.85,16.66,4.59,9.78,14.22,23.46,26,1.14,5.33,2.22,13-3.69,20.24-21.51C1084,511.79,1067.3,547.8,1050.58,513.4Z"/><path class="cls-26" d="M1102.93,611.19s46.89,19.75,72.09-.12l-7.71-13.17-55.07-.22c-.57,0-13.62,2.61-13.62,2.61Z"/><path class="cls-27" d="M1058.17,512.61s4.71,15.27,12.22,19.48c-5.18,6.66-14.26,13.48-24.12-1.35,3.3-2.77,6.86-8.16,10.6-17.34,0,0-15.65,33.66-32.36-.79,0,0,8.53,27.6,20.9,18.79,4.58,9.79,14.19,23.49,25.94,1.15,5.32,2.22,11.92-1.31,19.18-19.15C1090.53,513.4,1074.87,547.06,1058.17,512.61Z"/><path class="cls-28" d="M1103.7,622.35s-3.65-.9-11.51,0c0,0-16.53-18.64-19-22.2,0,0-23.74,3.48-46.62.39l-10.13,17s-5.91-1.54-8.51-.48l-.59-45-.18-13.22,12.34.57,1.74.08s.79.09,2.46.14c4.56.16,15.65.07,34.72-2.75,1.29-.19,2.62-.39,4-.61,28.85-4.56,64.83-10.08,64.83-10.08s3.67,15.79,9.54,24.43,18.24,13.18,31.32,9.62,24.07-11.56,30.69-22.91c0,0,7.78,1.72,6.7,16.75,0,0-1.66,3.64-4.55,8.72l0,.06c-4.86,8.55-13.18,21.12-22.86,27.21-15.45,9.73-30.15,16.43-73.14,2.59h0Z"/><path class="cls-29" d="M1025.81,517.05l0-.1c0,.24,0,.38,0,.38Z"/><path class="cls-29" d="M1029.13,505.1,1025.85,517c-1.76-2.05-.74-13.7,2.19-17.66l.75-.61S1028.42,499.5,1029.13,505.1Z"/><path class="cls-29" d="M1045,517c-3.19-6.33-8.29-15.85-8.29-15.85a28,28,0,0,1,.84-3.29l3.34,2,3.26,5.77Z"/><path class="cls-29" d="M1045,517c.74-.67,1.48-1.33,2.23-2l2.25-2,2.26-1.94,2.28-1.92c-.74.66-1.48,1.32-2.23,2l-2.25,2-2.26,1.94Z"/><path class="cls-29" d="M1025.81,517.33c-.66-.72-1.29-1.45-1.91-2.19s-1.22-1.5-1.82-2.26-1.19-1.52-1.76-2.3-1.14-1.57-1.65-2.39l.94,1.11q.46.54.93,1.11c.62.74,1.22,1.5,1.82,2.26C1023.55,514.19,1024.72,515.72,1025.81,517.33Z"/><path class="cls-30" d="M1200.94,582.9c-4.86,8.55-13.18,21.12-22.86,27.21-15.45,9.73-30.15,16.43-73.14,2.59l1.48-10.81s31.79,24.37,63.78,8.92A74.77,74.77,0,0,0,1200.94,582.9Z"/><path class="cls-30" d="M1035.76,563.47s-.11,11.35,2,18.16Z"/><path class="cls-31" d="M1005,550.87a12.63,12.63,0,0,0,.53,3.07s0,1.57.08,3.19a10.09,10.09,0,0,0,.51,3.48c.25.26,9.68,1.26,26.51.72h0l2.16-.08a426.82,426.82,0,0,0,56.18-6.2c11.68-2,24.36-4.67,37.93-8.08,0,0-.7-4.74-.92-6s1-3.87.92-6.61-4.17-82.67-4.11-87.63c0,0,.67-4.78-.64-4.44,0,0-38.74,34.5-119.18,43.89C1004.93,486.2,1003.64,537.13,1005,550.87Z"/><path class="cls-32" d="M1084,457.46c-.72-25.53-5.6-33.94-11.52-33.94s-12.08,22-11.52,48.89Z"/><path d="M1126.19,541.53c-4.86,1.18-9.72,2.32-14.62,3.32s-9.79,2-14.7,2.9c-9.83,1.79-19.7,3.35-29.61,4.54s-19.87,2-29.84,2.55l-7.49.23-1.87,0h-1.87l-3.75,0c-5,.1-10-.33-15-.5a236.4,236.4,0,0,0,30,1c2.5,0,5-.22,7.5-.34l3.75-.2,3.74-.31c2.49-.22,5-.39,7.48-.65l7.46-.83c9.93-1.28,19.82-2.82,29.63-4.77S1116.58,544.31,1126.19,541.53Z"/><path d="M1123.3,448a42.2,42.2,0,0,1-6,5c-1.06.75-2.1,1.52-3.22,2.2s-2.17,1.43-3.3,2.07c-2.26,1.3-4.48,2.64-6.82,3.79l-3.47,1.79-3.54,1.64-3.54,1.63-3.61,1.51c-2.39,1-4.79,2-7.24,2.89s-4.87,1.85-7.33,2.7l-7.42,2.44c-2.45.86-5,1.56-7.46,2.3l-7.49,2.21c-5,1.29-10.08,2.64-15.13,3.89s-10.15,2.38-15.25,3.46l-15.32,3.16,15.42-2.68c5.12-1,10.21-2.13,15.32-3.2,2.56-.52,5.08-1.21,7.61-1.84l7.59-1.91,7.53-2.17c2.5-.73,5-1.42,7.49-2.27l7.43-2.49c2.46-.87,4.89-1.84,7.33-2.75s4.86-1.92,7.26-2.95l3.61-1.54,3.53-1.7,3.52-1.7,3.46-1.86c2.32-1.2,4.54-2.58,6.77-3.93,1.12-.68,2.18-1.46,3.26-2.18s2.13-1.51,3.17-2.3A39,39,0,0,0,1123.3,448Z"/><path class="cls-33" d="M905.32,503.92a589.53,589.53,0,0,0,60.16-5.67,462.58,462.58,0,0,0,59.35-12c19.41-5.55,38.89-12.59,55.49-24.84,8.08-6.19,15.65-14,19.09-23.92a40.49,40.49,0,0,0,2.14-15.2,80.65,80.65,0,0,0-2.36-15,102.18,102.18,0,0,1,1,15,38.68,38.68,0,0,1-3.11,14.32c-3.67,9.08-11,16.1-19,21.68-16.41,11-35.41,17.77-54.58,23.13s-38.91,9.35-58.62,13.07c-9.86,1.86-19.78,3.47-29.71,5C925.24,501.12,915.28,502.48,905.32,503.92Z"/><line class="cls-34" x1="1094.27" y1="554.46" x2="1030.57" y2="562.93"/><path class="cls-24" d="M947.62,389.37a45,45,0,0,1-32-8.76A37.61,37.61,0,0,0,948,393.31a38.32,38.32,0,0,0,29.05-19.5A45.68,45.68,0,0,1,947.62,389.37Z"/><path class="cls-24" d="M944.94,383.77A38.06,38.06,0,0,1,921,370,31.91,31.91,0,0,0,944.49,387a31.13,31.13,0,0,0,27.19-9.55A37.23,37.23,0,0,1,944.94,383.77Z"/><path class="cls-33" d="M923.64,352.45c-.3-19.9,21.51-35,41.64-26.6,8.9,3.71,14.69,11.48,17.18,20.62a27.84,27.84,0,0,1-8.52,28.69,31.76,31.76,0,0,1-3.63,2.68c-15.1,8.39-36.9,3.36-44.32-14A28.9,28.9,0,0,1,923.64,352.45Z"/><path class="cls-32" d="M925.23,349.28c-.28-18.84,20.37-33.14,39.43-25.2,9.17,3.83,15.25,12.78,16.94,22.42a26.34,26.34,0,0,1-11.05,26.1l-1.12.73c-14.3,7.94-34.95,3.18-42-13.23A27.37,27.37,0,0,1,925.23,349.28Z"/><path class="cls-33" d="M995.11,351.89c-.32-21.39,23.12-37.62,44.76-28.6,9.57,4,15.79,12.35,18.47,22.18a29.94,29.94,0,0,1-9.15,30.83,33.43,33.43,0,0,1-3.91,2.89c-16.23,9-39.67,3.6-47.65-15A31.14,31.14,0,0,1,995.11,351.89Z"/><path class="cls-32" d="M996.81,348.49c-.3-20.26,21.9-35.63,42.4-27.1,9.86,4.11,16.39,13.75,18.2,24.1a28.29,28.29,0,0,1-11.87,28.06l-1.21.79c-15.37,8.54-37.57,3.41-45.12-14.23A29.52,29.52,0,0,1,996.81,348.49Z"/><path class="cls-35" d="M948.72,353a11.12,11.12,0,1,1-11.12-11.12A11.12,11.12,0,0,1,948.72,353Z"/><path class="cls-36" d="M944.75,353a7.15,7.15,0,1,1-7.15-7.14A7.15,7.15,0,0,1,944.75,353Z"/><path class="cls-6" d="M952.06,353.63a5.23,5.23,0,1,1-5.23-5.23A5.23,5.23,0,0,1,952.06,353.63Z"/><path class="cls-35" d="M1023.27,352.63a12,12,0,1,1-11.95-12A11.95,11.95,0,0,1,1023.27,352.63Z"/><path class="cls-36" d="M1019,352.63a7.69,7.69,0,1,1-7.68-7.69A7.68,7.68,0,0,1,1019,352.63Z"/><path class="cls-6" d="M1026.56,352.56a5.62,5.62,0,1,1-5.62-5.62A5.62,5.62,0,0,1,1026.56,352.56Z"/><path class="cls-24" d="M1034.09,390.91A54.77,54.77,0,0,1,997.52,377a45.44,45.44,0,0,0,73.1-.1A54.79,54.79,0,0,1,1034.09,390.91Z"/><path class="cls-24" d="M1029.43,385.29a44.89,44.89,0,0,1-29.57-12.37,37.22,37.22,0,0,0,59.86,1.93A44.89,44.89,0,0,1,1029.43,385.29Z"/><path class="cls-37" d="M864.89,312.27c5.77,7.59,15.28,15.38,27.63,20.9l1.16.51,1.12.47h0a89.19,89.19,0,0,0,36.85,6.6c1.37,0,2.74-.11,4.14-.21h.72l2.28,0h0a45.85,45.85,0,0,0,7.13-.53q3.25-.3,6.46-.74c7.71-1,28.65-7.47,48.36-13.59a.34.34,0,0,1,.1,0l1.87-.61,1.17-.37,6.51-2c9.42-2.83,18.25-5,23.75-5.35,24.67,2.87,42.6,10.92,55.62,21.37a83.5,83.5,0,0,1,16.53,17.78,87.84,87.84,0,0,1,6.17,10.37,102.59,102.59,0,0,1,8,21.52,160.66,160.66,0,0,0,20.17.84c40.21-1.09,57.64-15.44,62.17-35.71h0c.11-.48.21-1,.3-1.44.17-.9.32-1.82.44-2.75,0-.2.06-.41.08-.61.1-.79.18-1.58.24-2.38l0-.4c0-.45.06-.91.08-1.36s0-1.06.06-1.59,0-1,0-1.53c0-1.5,0-3-.15-4.57-.89-14-12.15-25.24-25.86-33-18.61-10.56-39.79-13.74-61.42-12.84-.44,0-.87,0-1.31.06l-.49,0-1.22.07c-2.48.14-5,.34-7.44.58q-2.79.27-5.6.63c-1.91.24-3.83.5-5.74.79-.95.14-1.91.29-2.86.45l-.26,0c-1.82.3-3.64.61-5.46.95l-2.85.54-2.84.57-2.84.6-.37.08c-4.22.91-8.41,1.91-12.56,3h0q-2.94.73-5.84,1.54l-1.74.47c-1.69.45-3.34.91-5,1.36l-.27.08-2.43.69-.07,0-3.49,1-1.68.5c-3.22,1-6.4,1.93-9.51,2.89h0l-1,.31c-7,2.19-14.82,5.63-23.44,8-2.1.57-4.24,1.07-6.44,1.48h-.12a62.39,62.39,0,0,1-6.81.86l-1,.07c-1.26.06-2.5.1-3.76.1h0a84.67,84.67,0,0,1-9.56-.5,105.24,105.24,0,0,1-14.14-2.51h-.08a142.23,142.23,0,0,1-13.65-4.18,1.06,1.06,0,0,1-.25-.09c-.34-.11-.68-.24-1-.37l-1.28-.47c-.42-.15-.85-.31-1.27-.48-.84-.31-1.68-.64-2.52-1l-2.51-1-2.08-.86q-2.7-1.15-5.34-2.34L936,303.89q-2.41-1.12-4.8-2.26l-2.36-1.14-2.34-1.14c-4.33-2.13-8.53-4.27-12.57-6.29l-3-1.52-.39-.19-2.94-1.45c-1.24-.61-2.46-1.2-3.66-1.76l-1.6-.75q-2.42-1.14-4.72-2.13l-1.45-.61c-.92-.38-1.83-.75-2.73-1.09-1.12-.44-2.22-.85-3.3-1.21L889,282a.35.35,0,0,0-.11,0l-1.28-.4c-1-.29-1.89-.54-2.81-.75l-.26-.05a27.2,27.2,0,0,0-8.89-.77C861.29,281.47,851.73,295,864.89,312.27Z"/><path class="cls-38" d="M1112.6,349.31a3.15,3.15,0,0,1-.23,1.67q-.12.28-.27.57a2.12,2.12,0,0,1-.11.21c-.09.16-.18.32-.29.48a6.25,6.25,0,0,1-.44.61l0,0c-.15.19-.31.37-.49.56s-.37.39-.58.58-.43.38-.66.56a16.28,16.28,0,0,1-3.13,1.94,87.84,87.84,0,0,1,6.17,10.37,115.11,115.11,0,0,0,25.89-4.64c18.79-5.72,26.17-18.22,4.48-31.1-22.52-13.39-73.22-23-106.51-13.8a17.85,17.85,0,0,0-2.18,0c24.67,2.87,42.6,10.92,55.62,21.37,7.47,1.58,13.61,3.43,17.62,5.49l.51.27a18.36,18.36,0,0,1,2.18,1.37l.41.33c.15.13.29.25.42.38a4.54,4.54,0,0,1,.38.38,5.13,5.13,0,0,1,.53.64l.09.13c.08.13.16.26.23.39a3.39,3.39,0,0,1,.18.39,2.67,2.67,0,0,1,.13.4A2.7,2.7,0,0,1,1112.6,349.31Zm-199-19.13h0c4.76,2.69,10.73,3,15.21,2.64.65,0,1.25-.1,1.83-.16h0a38.62,38.62,0,0,0,4.65-.78h0l1-.18c2.4-.42,8.49-1.5,14.85-2.76,9.31-1.84,19.19-4.07,18.9-5.15-.17-.61.18-1.78.1-3-.17-2.81-2.61-5.81-19-2.47a25.3,25.3,0,0,1-2.77.4c-.63.06-1.26.1-1.9.11h0c-.6,0-1.21,0-1.82,0-22.86-.68-51.78-24.27-54.27-13.49C887.79,317,912.84,329.8,913.58,330.18Z"/><path class="cls-39" d="M882.83,281.69s14,4.31,32.35,15.46a193.23,193.23,0,0,0,34.68,16.27l1.33.44.4-.47.26-.3c.19-.21.36-.42.53-.63.33-.39.65-.78,1-1.18l.11-.13-1.28-.47h0l-1.27-.47-2.52-1-2.51-1-2.08-.86q-2.7-1.15-5.34-2.34L936,303.89q-2.41-1.12-4.8-2.26l-2.36-1.14-2.34-1.14c-4.33-2.13-8.53-4.27-12.57-6.29l-3-1.52-.39-.19c-1-.5-2-1-2.94-1.45-1.24-.61-2.46-1.2-3.66-1.76l-1.6-.75q-2.42-1.14-4.72-2.13l-1.45-.61c-.92-.38-1.83-.75-2.73-1.09-1.12-.44-2.22-.85-3.3-1.21L889,282a.35.35,0,0,0-.11,0l-1.28-.4c-1-.29-1.89-.54-2.81-.75l-.25-.06h0Zm9.69,51.48,1.16.51,1.12.47h0c11.63,4.74,24.25,6.58,36.85,6.6,1.58,0,3.16,0,4.73-.08l2.41-.1h0c2.39-.12,4.77-.29,7.13-.53q3.25-.3,6.46-.74c7.71-1,28.65-7.47,48.36-13.59l2-.61,1.17-.37,6.51-2c2.84-.89,5.6-1.74,8.22-2.54,3.73-1.14,7.41-2.23,11.08-3.27,19-5.44,37.92-9.86,62.72-15.39,29.59-6.6,64-.44,64-.44,42.28,11.21,44.77,40.38,44.77,40.38a82.57,82.57,0,0,0,1.56,12.07c.11-.48.21-1,.3-1.44.17-.9.32-1.82.44-2.75,0-.2.06-.41.08-.61.1-.79.18-1.58.24-2.38l0-.4c0-.45.06-.91.08-1.36s0-1.06.06-1.59,0-1,0-1.53c0-1.5,0-3-.15-4.57-.89-14-12.15-25.24-25.86-33-18.61-10.56-39.79-13.74-61.42-12.84l-1.31.05-.49,0-1.22.07c-2.48.14-5,.34-7.44.58q-2.79.27-5.6.63c-1.91.24-3.83.5-5.74.79-.95.14-1.91.29-2.86.45l-.26,0c-1.82.3-3.64.61-5.46.95l-2.85.54-2.84.57-2.84.6-.37.08c-4.5,1-8.86,2.07-13,3.13h0l-5.39,1.39-1.74.47c-1.69.45-3.34.91-5,1.36l-.27.08-2.43.69-.07,0-3.49,1-1.68.5c-3.2,1-6.16,1.92-8.82,2.8h0c-4.21,1.41-7.68,2.69-10.23,3.76l-4,1.68q-3.53,1.47-7,2.9c-9.42,3.88-18.62,7.49-27.78,10.61a219,219,0,0,1-32.79,8.71c-4.54.8-9.14,1.43-13.8,1.84q-3.54.33-7.14.48C920.26,338.41,902,335.4,892.52,333.17Z"/><path class="cls-40" d="M996.41,319.9c-.14.06-49.54,20.87-83.4,12.81-16.14-3.84-40.09-11.83-45.36-29.8,4.63,10.65,21.07,21.36,46,27.29,33,7.87,81.69-12.62,81.83-12.68l1,2.38Z"/><path class="cls-41" d="M1089.84,338.75a83.5,83.5,0,0,1,16.53,17.78,16.28,16.28,0,0,0,3.13-1.94c.23-.18.45-.37.66-.56s.4-.39.58-.58.34-.37.49-.56l0,0a6.25,6.25,0,0,0,.44-.61c.11-.16.2-.32.29-.48a2.12,2.12,0,0,0,.11-.21q.15-.29.27-.57a3.15,3.15,0,0,0,.23-1.67,2.7,2.7,0,0,0-.08-.39,2.67,2.67,0,0,0-.13-.4,3.39,3.39,0,0,0-.18-.39c-.07-.13-.15-.26-.23-.39l-.09-.13a5.13,5.13,0,0,0-.53-.64,4.54,4.54,0,0,0-.38-.38c-.13-.13-.27-.25-.42-.38l-.41-.33a18.36,18.36,0,0,0-2.18-1.37l-.51-.27C1103.45,342.18,1097.31,340.33,1089.84,338.75Z"/><path class="cls-39" d="M930.06,333.28c1.09-1.68,19.45-13.51,29.44-31s33.68-59.63,40-67.36,36.42-15.94,82.39,1.82c37.9,14.63,35.35,42.49,33.41,54.33-71.26,3.14-124.71,40.73-185.29,42.17Z"/><path class="cls-37" d="M953.76,310.77a70.44,70.44,0,0,0,5.74-8.45c10-17.45,33.68-59.63,40-67.36,4.85-5.89,23.39-12,52.21-6.83l.6,1.41c-67.09,10-10.57,62.74,24,66.64-12.73,2.67-25.56,9.06-36.07,11-15.47,2.81-31.56,1.82-38.78,2.82-12,1.65-38.24,11.75-47.73.81Z"/><path class="cls-42" d="M930.06,333.28c1-1.57,17.24-12.08,27.49-27.78.44.09.89.2,1.33.31,5-1,34.59-7.12,79.44-.75,1,.14,2,.29,2.87.45-38.31,11.9-73.33,26.87-111.13,27.77Z"/><path class="cls-15" d="M927.65,334.62l2.44-.06h.35q7.08-.18,14-1c3.39-.37,6.76-.85,10.11-1.42l.27,0c19.35-3.29,38.28-9.39,57.68-15.85l4.45-1.49,4.24-1.42c6.27-2.09,12.6-4.19,19-6.19h.06c5.11-1.59,10.25-3.15,15.49-4.59h0l.07,0c18.72-5.19,38.35-9.2,59.54-10.13l1,0,.17-1c0-.08,0-.17,0-.26,1-6.07,2-16.1-1.87-26.51-4-10.58-13-21.49-32.39-29s-35.91-10.38-49.12-10.67c-18.68-.41-30.82,4.49-34.72,9.23C993,240.87,974.7,273,963.31,293c-1.57,2.76-2.95,5.19-4.94,8.66a68.15,68.15,0,0,1-6.2,9h0c-.76.94-1.53,1.85-2.31,2.74-1.68,1.93-3.41,3.74-5.11,5.41a151.73,151.73,0,0,1-12.4,10.79c-1.29,1-2.26,1.79-2.84,2.36a3.6,3.6,0,0,0-.53.59l-.17.26-1.09,1.68Zm28.13-5.31c-2.29.41-4.58.77-6.88,1.1-4.14.58-8.31,1-12.51,1.28-.9.07-1.8.12-2.71.16l.27-.21a144.89,144.89,0,0,0,14.53-12.92,91.21,91.21,0,0,0,6.18-7l.06-.08c1.46-1.84,2.85-3.78,4.15-5.8h0c.59-.93,1.17-1.88,1.73-2.85l4.94-8.67c11.35-19.93,29.59-52,35-58.52,3.52-4.28,14.88-8.7,32.69-8.3a118.7,118.7,0,0,1,19.12,2.06,165.69,165.69,0,0,1,29.12,8.44c18.54,7.16,27.16,17.49,30.91,27.46,3.53,9.41,2.75,18.57,1.86,24.44a245.29,245.29,0,0,0-41.45,5.75h0c-11.87,2.63-23.29,5.92-34.46,9.44h0q-5.79,1.83-11.49,3.71h0c-3.56,1.17-7.09,2.36-10.61,3.54-4.22,1.41-8.41,2.81-12.58,4.17q-3.32,1.1-6.62,2.14l-1,.31a316.49,316.49,0,0,1-39.69,10.27Z"/><path class="cls-15" d="M1065,247.19s-14.61-1.72-18.84,1.49c-2.18,1.66-.31,4.92,5,9.79,12.92,11.82,17.08,12.69,30.21,20.43,0,0-13-1.62-31.71-18.79-21.38-19.56,7.75-14.14,7.83-14.12l7.49,1.2Z"/><path class="cls-37" d="M1052,234.5s31.55,1.85,46,16.39,13.2,26.86,13.2,26.86-2.5-30.5-59.17-43.25Z"/><polygon class="cls-6" points="991.3 279.02 992.45 281.93 1002.1 273.73 1004.87 287.43 994.93 287.39 986.06 287.36 981.51 287.34 991.3 279.02"/><ellipse class="cls-6" cx="995.32" cy="275.04" rx="1.66" ry="1.02" transform="translate(63.85 720.77) rotate(-41.02)"/><path class="cls-6" d="M987.2,270.44l28.38.1c.77,0,1.08.67.68,1.48l-8.51,17.56a2.69,2.69,0,0,1-2.12,1.47l-28.38-.1c-.78,0-1.08-.67-.69-1.48l8.52-17.56a2.66,2.66,0,0,1,2.12-1.47m.47-1a4.45,4.45,0,0,0-3.53,2.46l-8.51,17.55c-.66,1.36-.15,2.47,1.14,2.47l28.38.1a4.42,4.42,0,0,0,3.53-2.45L1017.2,272c.66-1.37.15-2.47-1.14-2.48l-28.39-.1Z"/><path d="M1040.28,595.94q-.73-.06-1.44-.06l41.89-58.49L1047.91,420l2.32-.61,32.89,117.85.21.59-.4.48-41.33,57.75Z"/><path d="M1039.22,427.85c3.26-2.66,5.51-4.62,7-6.72.26,0,.52.1.79.12a14.61,14.61,0,0,0,3.81-.11c-1.47,3.67-4.31,6.74-8.27,10.36-17.78,16-35.7,29.57-43.19,51.79a16.3,16.3,0,0,0-7.9-5.25C999.35,457.21,1021.44,442.45,1039.22,427.85Z"/><path d="M995.86,480.14c9.12-17.85,21.46-31.36,34.89-38.2-13.49,12.05-25.57,24.1-31.42,41.37A16.59,16.59,0,0,0,995.86,480.14Z"/><path class="cls-43" d="M986.44,508.26a14.86,14.86,0,0,0,6.69-1.13,70,70,0,0,0-4.43,16.36,11.18,11.18,0,0,0-2.65-.74,12,12,0,0,0-3.23-.58c-.24,0-.47-.11-.72-.15l-.54-.15a16.72,16.72,0,0,0,4.92-9.64A12.87,12.87,0,0,0,986.44,508.26Z"/><path class="cls-43" d="M984.86,517.36a16.81,16.81,0,0,0,1.62-5.13,13.1,13.1,0,0,0,.12-1.86c.21-.7.43-1.38.65-2.07a14.6,14.6,0,0,0,5.88-1.17,70,70,0,0,0-4.43,16.36,11.18,11.18,0,0,0-2.65-.74,11,11,0,0,0-2.09-.47c.1-.63.2-1.26.31-1.89C984.45,519.37,984.65,518.37,984.86,517.36Z"/><path class="cls-43" d="M983.85,519.13l101.74,17.94-.4,2.29-103-18.16A16.58,16.58,0,0,0,983.85,519.13Z"/><polygon class="cls-43" points="1090.6 530.95 1071.98 527.67 1066.89 533.77 1085.59 537.07 1090.6 530.95"/><polygon class="cls-43" points="1087.8 546.82 1069.18 543.54 1066.49 536.06 1085.19 539.36 1087.8 546.82"/><path d="M1072.34,527.14c5.89-.14,18.18,1.31,25.5-11.29a31.54,31.54,0,0,0,2.82-6.22.48.48,0,0,1,.1-.35l0-.06c1.14-5.18.32-10.43.31-12.26,0-4.39,3.19-9.11,4.52-10.26s5.55-5.05,11.58-1.23,10.32,10.24,8.64,21.32c-1,6.31-1.76,14-5.07,19.51l-2.06-1.38c-6.36,9.67-16.12,16.42-25.44,16.47-14.5.09-25.12-6.58-26.85-8.15S1066.46,527.29,1072.34,527.14Z"/><polygon class="cls-44" points="1048.64 415.07 1081.46 532.44 1010.49 631.51 1012.45 632.88 1083.66 533.38 1084.06 532.9 1083.85 532.31 1050.96 414.45 1048.64 415.07"/><path class="cls-45" d="M998,485.63c-1.91-2.07-5.8-4.57-7.72-6.64,5.65-24,30.21-40.15,49.63-56.09,7.9-6.47,10-8.71,8.74-19.23-.3-2.34,2.93-1.45,3.31.42,2.28,10.71-1.26,15.6-8.76,22.46C1023.59,444.25,1003.77,458.94,998,485.63Z"/><path class="cls-45" d="M1009.33,618.87c4.71,9,6.36,14.82.56,24.1-1,1.64-4.34,1.36-3.26-.73,4.75-9.55,3.58-12.27-1.62-21.14-12.81-21.53-30.36-45.17-27.47-69.6,2.51-1.29,7-2.31,9.52-3.6C983.32,574.94,996.93,595.52,1009.33,618.87Z"/><path class="cls-46" d="M993.45,481.75c9.31-21.1,23-37.1,38-44.76-15.31,13.67-28.82,27.34-33.44,48.64A42.93,42.93,0,0,0,993.45,481.75Z"/><path class="cls-46" d="M1001.86,605C990.34,592.71,983,572.91,981.43,550a43.18,43.18,0,0,0,5.63-2.08C984.12,569.5,992.14,587,1001.86,605Z"/><path class="cls-47" d="M973.46,521.51c-.79,16.54,10.87,22.29-1.53,32.78,7.17.39,13.72-1,19.33-5.17-5.42-24.17-2.22-42.34,11.14-63.2-3.86-5.79-9.52-9.39-16.39-11.46,8.17,14.34-5.26,15.52-10,31.92a77.77,77.77,0,0,0-2.59,15.13Z"/><path class="cls-48" d="M986,552.12a25.09,25.09,0,0,0,5.25-3c-5.42-24.17-2.22-42.34,11.14-63.2a24.73,24.73,0,0,0-3.91-4.62A91.48,91.48,0,0,0,986,552.12Z"/><path class="cls-49" d="M988.14,479.32a19.56,19.56,0,0,0-2.13-4.86c6.87,2.07,12.53,5.67,16.39,11.46-.87,1.35-1.65,2.63-2.44,4-3.08-5.74-9.22-9.26-11.82-10.58Z"/><path class="cls-49" d="M975.6,550.45a19.69,19.69,0,0,1-3.67,3.84c7.17.39,13.72-1,19.33-5.17-.36-1.56-.65-3-.93-4.57-4.85,4.33-11.84,5.54-14.73,5.9Z"/><polygon class="cls-50" points="1085.91 534.4 859.24 494.82 859.64 492.53 1086.32 532.12 1085.91 534.4"/><polygon class="cls-51" points="1091.33 526 1072.71 522.71 1067.62 528.82 1086.32 532.12 1091.33 526"/><polygon class="cls-51" points="1088.53 541.87 1069.91 538.59 1067.22 531.11 1085.91 534.4 1088.53 541.87"/><polygon class="cls-51" points="1088.53 541.87 1069.91 538.59 1067.22 531.11 1085.91 534.4 1088.53 541.87"/><path d="M1120.48,521.87s-15.82-10.49-18.29-13.47-1.71-3.56-1.71-3.56S1117.62,516.35,1120.48,521.87Z"/><path class="cls-52" d="M1107.67,480.82a9,9,0,0,1,8.39-.07c4.34,2.24,10.12,7.5,9.34,19.56C1124.18,519.38,1108,536.87,1093,537c-14.5.09-25.13-6.58-26.85-8.15s0-5.95,5.93-6.1,18.18,1.31,25.49-11.29,1.11-16.81,4.8-24.18C1104.36,483.21,1106,481.75,1107.67,480.82Z"/><path class="cls-19" d="M1100.48,504.84c3.1,1.24,13,6.84,20,17,3.31-5.5,4.1-13.2,5.06-19.51,1.68-11.08-2.62-17.49-8.64-21.32s-10.25.08-11.58,1.23-4.55,5.87-4.52,10.26C1100.81,494.36,1101.64,499.64,1100.48,504.84Z"/></g></g></svg>