<?xml version="1.0" encoding="utf-8"?>
<!-- Generator: Adobe Illustrator 22.0.1, SVG Export Plug-In . SVG Version: 6.00 Build 0)  -->
<svg version="1.1" id="Layer_1" xmlns="http://www.w3.org/2000/svg" xmlns:xlink="http://www.w3.org/1999/xlink" x="0px" y="0px"
	 viewBox="0 0 315 450" style="enable-background:new 0 0 315 450;" xml:space="preserve">
<style type="text/css">
	.st0{fill:#EFF4F9;}
	.st1{fill:#FF6161;}
	.st2{opacity:0.1;enable-background:new    ;}
	.st3{fill:#FFFFFF;}
	.st4{opacity:0.25;fill:#FFFFFF;enable-background:new    ;}
	.st5{fill:#D1D3D4;}
	.st6{fill:#D461FF;}
	.st7{opacity:0.15;fill:#FFFFFF;enable-background:new    ;}
	.st8{fill:#FFA05F;}
	.st9{opacity:0.34;fill:#FFFFFF;enable-background:new    ;}
	.st10{fill:#B0EDFF;}
	.st11{fill:#61DAFF;}
	.st12{fill:#395B80;}
	.st13{fill:url(#SVGID_1_);}
	.st14{fill:url(#SVGID_2_);}
	.st15{fill:#2E313A;}
	.st16{fill:url(#SVGID_3_);}
	.st17{fill:url(#SVGID_4_);}
	.st18{fill:url(#SVGID_5_);}
	.st19{fill:url(#SVGID_6_);}
	.st20{fill:#D69547;}
	.st21{fill:#D6721E;}
	.st22{fill:#D5753E;}
	.st23{fill:#D57328;}
	.st24{fill:url(#SVGID_7_);}
	.st25{opacity:0.15;enable-background:new    ;}
	.st26{fill:#1E374C;}
	.st27{fill:url(#SVGID_8_);}
	.st28{fill:#EDEDBB;}
	.st29{fill:#D6753E;}
	.st30{fill:none;}
	.st31{fill:#9E512B;}
	.st32{fill:#542713;}
	.st33{fill:url(#SVGID_9_);}
	.st34{fill:#294865;}
	.st35{fill:url(#SVGID_10_);}
	.st36{fill:#F1F2F2;}
	.st37{fill:#39474B;}
	.st38{fill:#E77B00;}
	.st39{fill:#DB6E00;}
	.st40{fill:#794C00;}
	.st41{fill:#6C3F00;}
	.st42{fill:#5F3200;}
	.st43{fill:#677980;}
	.st44{fill:url(#SVGID_11_);}
	.st45{fill:#FF9200;}
</style>
<path class="st0" d="M11,441.9c2.6-2.4,4.9-5.1,6.7-8.1c0.8-1,1.5-2,2.1-3.1c0.2-0.3,0.4-0.7,0.6-1l11.2-19.9l2.5-5.3
	c0.1-0.1,0.1-0.2,0.2-0.3c0.1-0.1,0.1-0.2,0.2-0.3c0,0,0-0.1,0.1-0.1c1.3-2.3,3.3-4.1,5.7-5.1l0.3-0.1c0.4-0.1,0.7-0.3,1.1-0.4
	c0.4-0.1,0.7-0.2,1.1-0.3c2-0.4,4-0.3,6,0.3c0.3,0.1,0.6,0.2,0.9,0.3c0.4,0.1,0.8,0.3,1.1,0.5c2.6,1.3,4.7,3.4,5.9,6.1
	c0,0,0.8,1.4,1.6,3c0.8,1.5,1.7,3.2,2,3.9l0.1,0.3l0.5,1.3l2.2,4.6c0.2,0.3,0.3,0.6,0.5,1c0,0,0,0,0,0c0.2,0.3,0.3,0.6,0.5,0.9
	l0.2,0.3c3.7,6.5,9.3,11.7,16.2,14.7c0.3,0.1,0.6,0.2,0.9,0.4c1,0.4,2,0.8,3,1.1c1,0.3,2.1,0.6,3.2,0.8c5,1,10.1,0.9,15-0.3l9.5-4.4
	c1.9-0.9,3.7-1.9,5.5-3c4.2-2.8,7.9-6.2,11.1-10.1c2.8-3.4,5.1-7.3,6.8-11.4l11.8-28.6l6.6-16l0.3-0.8c1.4-3.4,8.3-15.9,8.3-15.9
	c2.8-6.1,7.6-11,13.6-14c0.8-0.4,1.7-0.8,2.6-1.1c0.7-0.3,1.3-0.5,2-0.7c4.4-1.3,9.2-1.6,13.7-0.7c0.9,0.2,1.7,0.4,2.6,0.6
	c0.8,0.2,1.6,0.5,2.4,0.8l0.7,0.3c5.5,2.4,10.1,6.5,13,11.8c0.1,0.1,0.1,0.2,0.2,0.3c0.1,0.2,0.3,0.5,0.4,0.7l0.4,0.8l5.8,12.1
	l25.6,45.6c0.4,0.8,0.9,1.6,1.4,2.4c5.3,8.7,12.3,16.3,20.6,22.2c0.2,0.1,0.3,0.2,0.5,0.4c0.8,0.6,1.6,1.1,2.4,1.7
	c5,3.3,41.6,19.6,44.8,20h-79.9L0,450C3.9,447.8,7.6,445.1,11,441.9z"/>
<g>
	<path class="st1" d="M74.7,117.4L82,125c0.2,0.2,0.2,0.6,0,0.8c-0.1,0.1-0.1,0.1-0.2,0.1l0,0c-3.1,1.1-6.2,1.9-9.4,2.3l0,0
		c-0.3,0-0.6-0.2-0.6-0.5c0-0.1,0-0.2,0-0.2L74.7,117.4z"/>
	<path class="st2" d="M71.8,127.1L71.8,127.1l1-0.1c2.7-0.4,5.3-1,7.9-1.9l0.9-0.3c0,0,0.1,0,0.1,0l0.4,0.4c0.2,0.2,0.2,0.5,0,0.7
		c0,0-0.1,0.1-0.2,0.1l-0.9,0.3c-2.6,0.9-5.2,1.6-7.9,1.9l-0.9,0.1c-0.3,0-0.5-0.1-0.5-0.4c0-0.1,0-0.1,0-0.2L71.8,127.1z"/>
	
		<ellipse transform="matrix(0.9719 -0.2355 0.2355 0.9719 -17.2071 17.7909)" class="st1" cx="65.9" cy="80.9" rx="35.9" ry="40.7"/>
	<path class="st3" d="M67.9,114.3c2,0,3.9-0.2,5.9-0.7c7.3-1.8,13.4-6.7,17.2-14c4-7.5,5-16.6,2.8-25.4c-3.7-15.4-16.3-26.5-30-26.5
		c-2,0-3.9,0.2-5.9,0.7c-15.4,3.7-24.4,21.4-20.1,39.4C41.7,103.1,54.3,114.3,67.9,114.3z"/>
	<path class="st1" d="M67.9,107.1c1.4,0,2.8-0.2,4.2-0.5c5.3-1.3,9.7-4.9,12.6-10.3c3.2-6,3.9-13.2,2.2-20.4
		c-3-12.2-12.6-21.1-23-21.1c-1.4,0-2.8,0.2-4.2,0.5c-5.4,1.3-9.9,5.1-12.7,10.6c-3,5.9-3.7,13.1-2,20.1
		C47.8,98.3,57.5,107.1,67.9,107.1z"/>
	<path class="st3" d="M67.9,99.9c0.8,0,1.7-0.1,2.5-0.3c3.2-0.8,6.1-3.2,7.9-6.7c2.3-4.4,2.9-9.9,1.6-15.4
		C77.8,68.7,70.9,62,63.8,62c-0.8,0-1.7,0.1-2.5,0.3c-3.3,0.8-6.2,3.3-8,6.9c-2.2,4.4-2.8,9.8-1.5,15.2C54,93.2,60.9,99.9,67.9,99.9
		z"/>
	<path class="st1" d="M67.9,92.8c0.3,0,0.5,0,0.8-0.1c1.2-0.3,2.4-1.4,3.3-3.1c1.5-2.9,1.9-6.6,0.9-10.4c-1.5-6.1-5.9-10.1-9.1-10.1
		c-0.3,0-0.5,0-0.8,0.1c-1.2,0.3-2.5,1.5-3.3,3.2c-1.5,2.9-1.8,6.5-0.9,10.2C60.3,88.7,64.7,92.8,67.9,92.8z"/>
	<path class="st4" d="M34.3,71.6C32,84,37.6,95.7,41.7,96.2c6.4,0.8-0.7-9.6,1.6-22S56.4,52,50,51.1C46.7,50.7,36.6,59.1,34.3,71.6z
		"/>
	<path class="st2" d="M71.4,115.9c19.3-4.7,30.6-26.2,25.3-48.1c-1.4-6-4-11.6-7.7-16.5c5.8,5.8,9.9,13.1,11.8,21.1
		c5.3,21.9-6,43.4-25.3,48.1c-13.8,3.3-27.9-2.9-36.8-14.7C47.5,114.6,59.6,118.8,71.4,115.9z"/>
	<path class="st5" d="M84.4,175c-1.1,21.9-2.6,49.8,6.2,79l-0.5,0.1c-8.8-29.2-7.3-57.1-6.2-79.1c0.1-2.8,0.3-5.4,0.4-7.9
		c0.4-8.6,0-21-3.9-31.7c-2.4-6.4-4.9-9.1-4.9-9.1l0.4-0.4c0.1,0.1,2.6,2.8,5,9.3c4,10.7,4.4,23.3,4,31.9
		C84.7,169.6,84.6,172.2,84.4,175z"/>
	<path class="st5" d="M90.5,182c1.1,14.3-3.6,24-8.7,34.3c-0.6,1.2-1.2,2.5-1.8,3.8c-3.3,6.8-5.1,14.5-5.4,22.7
		c-0.1,3.4,0,6.9,0.4,10.3h-0.5c-0.4-3.4-0.5-6.9-0.4-10.3c0.3-8.3,2.1-16,5.4-22.9c0.6-1.3,1.2-2.5,1.8-3.8c5-10.2,9.8-19.8,8.7-34
		c-0.7-8.3,2.5-16.9,5.3-22.6c1.8-3.7,3.8-7.2,6.2-10.5l0.4,0.3c-2.3,3.3-4.4,6.8-6.2,10.5C93,165.3,89.9,173.7,90.5,182z"/>
	<path class="st6" d="M104.6,139.9l2.4,10.3c0.1,0.3-0.1,0.6-0.4,0.7c-0.1,0-0.2,0-0.2,0l0,0c-3.2-0.6-6.3-1.6-9.3-2.8l0,0
		c-0.3-0.1-0.4-0.5-0.3-0.7c0-0.1,0.1-0.1,0.1-0.2L104.6,139.9z"/>
	<path class="st2" d="M97.2,146.8L97.2,146.8l0.9,0.4c2.5,1.1,5.1,1.9,7.8,2.4l0.9,0.2h0.1l0.1,0.5c0.1,0.3-0.1,0.5-0.3,0.6
		c-0.1,0-0.1,0-0.2,0l-0.9-0.2c-2.7-0.5-5.3-1.3-7.8-2.4L97,148c-0.2-0.1-0.3-0.4-0.2-0.6c0-0.1,0.1-0.1,0.1-0.2L97.2,146.8z"/>
	<ellipse transform="matrix(0.291 -0.9567 0.9567 0.291 -17.66 184.3039)" class="st6" cx="115.5" cy="104.1" rx="40.7" ry="35.9"/>
	<path class="st3" d="M113,137.3c13.3,0,25.6-10.2,30-24.8c2.7-8.7,2.2-17.8-1.4-25.6c-3.4-7.4-9.2-12.7-16.4-14.9
		c-2.4-0.7-4.8-1.1-7.3-1.1c-13.2,0-25.6,10.2-30,24.8c-2.7,8.7-2.2,17.8,1.4,25.6c3.4,7.4,9.2,12.7,16.4,14.9
		C108.1,136.9,110.6,137.3,113,137.3z"/>
	<path class="st6" d="M113,130.1c10.1,0,19.6-8.1,23.2-19.7c2.1-7.1,1.8-14.4-1-20.5c-2.5-5.5-6.8-9.5-12-11
		c-1.7-0.5-3.4-0.8-5.2-0.8c-10.1,0-19.6,8.1-23.2,19.7c-2.1,7.1-1.8,14.4,1,20.5c2.5,5.5,6.8,9.5,12,11
		C109.5,129.8,111.3,130.1,113,130.1z"/>
	<path class="st3" d="M113,122.9c6.9,0,13.7-6.2,16.3-14.7c1.6-5.4,1.4-10.9-0.7-15.5c-1.7-3.6-4.3-6.2-7.5-7.2
		c-1-0.3-2-0.5-3.1-0.5c-6.9,0-13.7,6.2-16.3,14.7c-1.6,5.4-1.4,10.9,0.7,15.5c1.7,3.6,4.3,6.2,7.5,7.2
		C110.9,122.8,112,122.9,113,122.9z"/>
	<path class="st6" d="M113,115.8c3.2,0,7.7-3.7,9.5-9.6c1.1-3.7,1-7.4-0.4-10.4c-0.8-1.7-1.9-2.9-3.1-3.3c-0.3-0.1-0.7-0.2-1-0.2
		c-3.2,0-7.7,3.7-9.5,9.6c-1.1,3.7-1,7.4,0.4,10.4c0.8,1.7,1.9,2.9,3.1,3.3C112.3,115.7,112.7,115.8,113,115.8z"/>
	<path class="st7" d="M93.1,79.9c-8.3,9.6-9.4,22.5-6.2,25c5.1,4,4.3-8.6,12.6-18.1s22.5-12.5,17.5-16.5
		C114.4,68.2,101.4,70.4,93.1,79.9z"/>
	<path class="st2" d="M102.5,137c19,5.8,39.7-7,46.2-28.5c1.8-5.9,2.4-12,1.7-18.1c2,8,1.8,16.3-0.6,24.2
		c-6.5,21.5-27.2,34.3-46.2,28.5c-13.6-4.1-22.6-16.7-24.3-31.3C82.6,123.7,90.9,133.4,102.5,137z"/>
	<path class="st5" d="M105,187.5l-0.5,0c0,0,0.2,4.5-1.9,11.3c-1.9,6.3-6.3,15.9-16.1,26.1c-4.4,4.5-8.5,10.7-12.4,18.4
		c-0.7,1.4-1.3,2.7-1.9,4.1c0.1,0.1,0.3,0.2,0.4,0.3c0.6-1.4,1.3-2.8,2-4.2c3.8-7.6,7.9-13.8,12.3-18.2c9.9-10.3,14.3-20,16.3-26.3
		C105.3,192.1,105,187.5,105,187.5z"/>
	<path class="st8" d="M107.8,178.6l2.4,10.3c0.1,0.3-0.1,0.6-0.4,0.7c-0.1,0-0.1,0-0.2,0l0,0c-3.2-0.6-6.3-1.5-9.3-2.8l0,0
		c-0.3-0.1-0.4-0.5-0.3-0.7c0-0.1,0.1-0.1,0.1-0.2L107.8,178.6z"/>
	<path class="st2" d="M100.4,185.5C100.4,185.5,100.5,185.5,100.4,185.5l0.9,0.4c2.5,1.1,5.1,1.8,7.8,2.3l0.9,0.2h0.1l0.1,0.5
		c0.1,0.3-0.1,0.5-0.3,0.6c-0.1,0-0.1,0-0.2,0l-0.9-0.2c-2.7-0.5-5.3-1.3-7.8-2.3l-0.9-0.4c-0.2-0.1-0.4-0.4-0.3-0.6
		c0-0.1,0.1-0.1,0.1-0.2L100.4,185.5z"/>
	
		<ellipse transform="matrix(0.2892 -0.9573 0.9573 0.2892 -51.5186 215.2525)" class="st8" cx="119.2" cy="142.3" rx="40.9" ry="36"/>
	<path class="st3" d="M116.1,175.9c13.3,0,25.6-10.2,30-24.9c2.6-8.7,2.1-17.8-1.4-25.6c-3.4-7.4-9.2-12.7-16.4-14.9
		c-2.3-0.7-4.8-1.1-7.2-1.1c-13.3,0-25.6,10.2-30,24.9c-5.3,17.7,2.7,35.9,17.9,40.4C111.3,175.5,113.7,175.9,116.1,175.9z"/>
	<path class="st8" d="M116.1,168.7c10.1,0,19.7-8.1,23.2-19.8c2.1-7.1,1.8-14.4-1.1-20.5c-2.5-5.5-6.8-9.4-12-11
		c-1.7-0.5-3.4-0.8-5.1-0.8c-10.1,0-19.7,8.1-23.2,19.8c-2.1,6.9-1.8,14.1,0.9,20.2c2.5,5.7,6.8,9.7,12.1,11.3
		C112.7,168.5,114.4,168.7,116.1,168.7z"/>
	<path class="st3" d="M116.1,161.6c6.9,0,13.8-6.2,16.3-14.7c1.6-5.4,1.4-10.9-0.7-15.5c-1.7-3.6-4.3-6.2-7.5-7.1
		c-1-0.3-2-0.5-3.1-0.5c-6.9,0-13.8,6.2-16.3,14.7c-1.6,5.3-1.4,10.7,0.6,15.2c1.6,3.8,4.4,6.4,7.6,7.4
		C114.1,161.4,115.1,161.6,116.1,161.6z"/>
	<path class="st8" d="M116.1,154.4c3.2,0,7.7-3.7,9.5-9.6c1.1-3.7,1-7.4-0.4-10.4c-0.8-1.7-1.9-2.9-3.1-3.3c-0.3-0.1-0.7-0.1-1-0.1
		c-3.2,0-7.7,3.7-9.5,9.6c-1.1,3.7-1,7.3,0.3,10.3c0.8,1.8,1.9,3,3.2,3.4C115.5,154.3,115.8,154.4,116.1,154.4z"/>
	<path class="st9" d="M96.1,118.6c-8.3,9.6-9.4,22.5-6.1,25c5.1,4,4.3-8.6,12.5-18.2s22.5-12.5,17.4-16.6
		C117.4,106.8,104.4,109,96.1,118.6z"/>
	<path class="st2" d="M105.7,175.6c19,5.7,39.7-7.1,46.2-28.6c1.8-5.9,2.4-12,1.7-18.1c2.1,8,1.9,16.3-0.5,24.2
		c-6.5,21.5-27.2,34.4-46.2,28.6c-13.6-4.1-22.7-16.6-24.3-31.3C85.7,162.4,94,172.1,105.7,175.6z"/>
	<path class="st5" d="M87.4,238.2c1.2,5,2.7,9.9,4.4,14.7l-0.5,0.1c-1.7-4.8-3.2-9.7-4.4-14.6c-2-8.3-2.8-15.8-2.4-22
		c1-14.1-1.9-24.3-4.4-30.3c-2.8-6.5-5.8-9.8-5.8-9.8l0.4-0.4c0,0,3.1,3.3,5.9,10c2.6,6.1,5.5,16.4,4.5,30.6
		C84.6,222.6,85.4,229.9,87.4,238.2z"/>
	<path class="st10" d="M71,167.2l8.5,6.3c0.2,0.2,0.3,0.5,0.1,0.8c0,0.1-0.1,0.1-0.2,0.2l0,0c-2.8,1.6-5.8,2.9-8.9,3.8l0,0
		c-0.3,0.1-0.6-0.1-0.7-0.4c0-0.1,0-0.1,0-0.2L71,167.2z"/>
	<path class="st2" d="M69.8,177.3L69.8,177.3l1-0.3c2.6-0.8,5.1-1.9,7.4-3.2l0.8-0.5l0.1,0l0.4,0.3c0.2,0.2,0.3,0.4,0.1,0.7
		c0,0.1-0.1,0.1-0.1,0.1l-0.8,0.5c-2.4,1.3-4.9,2.4-7.5,3.2l-0.9,0.3c-0.2,0.1-0.5-0.1-0.6-0.3c0-0.1,0-0.1,0-0.2L69.8,177.3z"/>
	
		<ellipse transform="matrix(0.9184 -0.3957 0.3957 0.9184 -47.966 33.0779)" class="st11" cx="56.2" cy="132.8" rx="35.9" ry="40.7"/>
	<path class="st3" d="M59.5,165.7c3.4,0,6.8-0.7,9.9-2c14.6-6.3,20.5-25.2,13.1-42.2c-5.5-12.9-17.5-21.5-29.8-21.5
		c-3.4,0-6.8,0.7-9.9,2c-6.9,3-12.1,8.9-14.6,16.7c-2.6,8.1-2.1,17.2,1.5,25.6C35.3,157,47.3,165.7,59.5,165.7z"/>
	<path class="st11" d="M59.5,158.5c2.4,0,4.9-0.5,7.1-1.5c10.9-4.7,15.2-19.4,9.4-32.8c-4.4-10.3-13.8-17.2-23.2-17.2
		c-2.4,0-4.9,0.5-7.1,1.4c-5,2.1-8.8,6.5-10.7,12.3c-2.1,6.4-1.7,13.7,1.3,20.5C40.8,151.6,50.1,158.5,59.5,158.5z"/>
	<path class="st3" d="M59.5,151.4c1.5,0,2.9-0.3,4.3-0.9c7.2-3.1,9.8-13.8,5.6-23.4c-3.3-7.6-10.1-12.8-16.6-12.8
		c-1.5,0-2.9,0.3-4.3,0.9c-3.1,1.3-5.4,4.1-6.7,8c-1.6,4.8-1.2,10.3,1,15.4C46.2,146.1,53,151.4,59.5,151.4z"/>
	<path class="st11" d="M59.5,144.2c0.5,0,1-0.1,1.4-0.3c1.3-0.6,2.4-2.2,2.9-4.4c0.7-2.9,0.3-6.4-1-9.6c-2.4-5.5-6.9-8.5-10-8.5
		c-0.5,0-1,0.1-1.4,0.3c-1.1,0.5-2.1,1.8-2.7,3.6c-1,3.1-0.7,6.8,0.8,10.4C51.9,141.2,56.5,144.2,59.5,144.2z"/>
	<path class="st4" d="M23.5,128.9c-0.2,12.7,7.3,23.3,11.4,23.1c6.5-0.3-2.3-9.3-2.1-22c0.2-12.7,9.2-24.1,2.7-23.9
		C32.1,106.2,23.6,116.2,23.5,128.9z"/>
	<path class="st2" d="M67.5,166.3c18.2-7.9,25.8-31,16.9-51.6c-2.4-5.6-5.9-10.7-10.4-14.9c6.7,4.8,11.9,11.3,15.1,18.8
		c8.9,20.7,1.3,43.8-16.9,51.6c-13,5.6-28,1.9-38.8-8.3C43.7,169.1,56.3,171.1,67.5,166.3z"/>
	<path class="st12" d="M49.5,288.9c2,0.8,4.2,1.2,6.4,1.1c0.6-0.1,1.2-0.1,1.7-0.1c1.2,0.2,2.2,0.7,3.2,1.4c2.7,1.6,5.6,2.8,8.6,3.8
		c4.7,1.4,9.7,1.8,14.6,1.3c0.5-0.1,0.9-0.1,1.4-0.2c0.7-0.2,1.3-0.2,2,0c0.4,0.2,0.9,0.5,1.2,0.8c1.5,1,3.2,1.5,5,1.3
		c0.1-0.6,0.1-1.2,0.1-1.8c0-0.5,0-1-0.1-1.4c-0.2-1-0.8-1.9-1-2.9c-0.7-3.2,0-6.6,0-9.8c0-0.6,0-1.2-0.1-1.9
		c-0.1-2.9-0.5-5.8-1-8.6c-1.1-5.4-3.3-9.6-6.3-14.1l0.3-0.4c0.4-0.4,0.9-0.8,1.3-1.2c1.1-0.8,2.4-1.2,3.5-1.8l0.2-0.1
		c1.1-0.6,1.9-1.7,2.1-2.9c0-0.4,0-0.8-0.2-1.2c-0.3-0.9-0.8-1.8-1.6-2.1c-0.5-0.1-1-0.1-1.5,0l0,0c-0.3,0.1-0.6,0-0.7-0.3
		c-0.1-0.2-0.2-0.4-0.4-0.7c-0.2-0.5-0.5-0.9-0.9-1.4c-0.4-0.5-1-0.7-1.6-0.7c-0.1,0-0.3,0.1-0.4,0.2c-0.2,0.1-0.4,0.4-0.6,0.5
		c-0.7,0.4-1.6,0.1-2.3-0.5c-0.1-0.1-0.1-0.1-0.2-0.2c-0.5-0.6-1.1-1.1-1.7-1.6c-0.7-0.5-1.8-0.5-2.2,0.3c0,0.1-0.1,0.2-0.1,0.3l0,0
		c-0.1,0.1-0.3,0.1-0.4,0c-0.7-0.1-1.5-0.4-2.1-0.7l-0.5-0.3c-0.7-0.4-1.3-0.6-2.1-0.8c-0.7-0.2-1.4-0.2-2.1,0.1
		c-0.2,0.1-0.4,0.3-0.5,0.5c-0.8,1.1-0.5,2.8,0,4.1c0.7,1.3,1.5,2.5,2.4,3.7c0.5,0.8,0.9,1.7,1.2,2.6c0,0.1,0,0.2,0.1,0.3
		c0,0.4,0,0.8,0.1,1.2c-0.5,0.1-1.1,0.3-1.6,0.6c-0.8,0.3-1.6,0.7-2.3,1.2l-0.2,0.1c-1.2,0.8-2.3,1.7-3.3,2.7c-2,1.9-3.8,4-5.3,6.3
		c-2.3,3.5-4.1,7.3-5.3,11.3c-0.7,2.2-1.2,4.5-1.5,6.8c-1.2,0.4-2.4,1.2-3.3,2.1C50.8,286.6,50.1,287.7,49.5,288.9z"/>
	
		<linearGradient id="SVGID_1_" gradientUnits="userSpaceOnUse" x1="744.6588" y1="196.5955" x2="759.0475" y2="196.5955" gradientTransform="matrix(-1 0 0 -1 831.6799 451.97)">
		<stop  offset="0" style="stop-color:#1E2128"/>
		<stop  offset="1" style="stop-color:#2E313A"/>
	</linearGradient>
	<path class="st13" d="M72.6,255.5c1.2-0.4,2.5-0.6,3.7-0.6c1.3,0,2.7,0.2,3.9,0.7c1.5,0.5,2.9,1.2,4.2,2.1c0.4,0.3,1.4,1.1,1.8,1.1
		c0.4,0,0.7-1,0.1-1.1c0,0,0.1,0,0.1,0c0.3-0.1,0.5-0.4,0.4-0.7c-0.1-0.4-0.3-0.7-0.5-1c-2.1-2.4-5-3.8-8.1-4
		c-1.2-0.1-2.5,0.1-3.6,0.7c-1.4,0.8-1.3,1.5-0.9,1.6H74C73.5,254.4,72.6,255.2,72.6,255.5z"/>
</g>
<g>
	
		<linearGradient id="SVGID_2_" gradientUnits="userSpaceOnUse" x1="-914.1228" y1="903.6274" x2="-876.319" y2="906.3557" gradientTransform="matrix(0.9961 -8.809374e-02 -8.809374e-02 -0.9961 1192.7338 1213.0996)">
		<stop  offset="0" style="stop-color:#F6921E"/>
		<stop  offset="1" style="stop-color:#CA6928"/>
	</linearGradient>
	<path class="st14" d="M233.3,379.3c1.4,0.1,2.7,0.8,3.4,2c1.2,2,2.2,5.5-1,10.2c-5.1,7.4-15.9,10.5-22,6.8
		c-5.9-3.5-8.5-8.8-8.8-9.8s1.5-2.4,3.9-1c2.4,1.4,7,5,13,1.7s4.6-6.5,7.8-8.6C231.4,379.5,232.4,379.3,233.3,379.3z"/>
	<path class="st15" d="M218.1,388.5c0,0-3.7,5.1-3.5,10.3c0.4,10.7,3.7,6.4,3.8,6S218.1,388.5,218.1,388.5z"/>
	
		<linearGradient id="SVGID_3_" gradientUnits="userSpaceOnUse" x1="542.7004" y1="81.0866" x2="562.9711" y2="81.2515" gradientTransform="matrix(-1 0 0 -1 831.6799 451.97)">
		<stop  offset="0" style="stop-color:#F7931A"/>
		<stop  offset="1" style="stop-color:#CC6806"/>
	</linearGradient>
	<path class="st16" d="M282,378.6c0.1-1.1-0.3-2.2-1.1-3c2.5-0.4,4.5-1.6,4.4-4.6c-0.1-2.9-2-4.2-4.4-4.7c0.9-0.8,1.4-1.9,1.4-3.1
		c-0.2-6.3-11.5-0.8-11.5-0.8l-0.1,4.9v0.6l-0.1,5.7v0.7l-0.1,4.8C270.5,378.9,281.6,384.9,282,378.6z"/>
	
		<linearGradient id="SVGID_4_" gradientUnits="userSpaceOnUse" x1="412.0821" y1="27.8909" x2="427.8812" y2="28.0181" gradientTransform="matrix(-1 -6.000000e-02 6.000000e-02 -1 696.7908 455.6591)">
		<stop  offset="0" style="stop-color:#F7931A"/>
		<stop  offset="1" style="stop-color:#CC6806"/>
	</linearGradient>
	<path class="st17" d="M280.6,408.7c0.1-0.9-0.1-1.8-0.7-2.4c2-0.2,3.6-1,3.7-3.3c0.1-2.3-1.4-3.4-3.2-3.9c0.8-0.5,1.2-1.4,1.2-2.4
		c0.1-4.9-8.9-1.2-8.9-1.2l-0.3,3.8l0,0.5l-0.3,4.4l0,0.5l-0.3,3.7C271.6,408.5,280,413.6,280.6,408.7z"/>
	
		<linearGradient id="SVGID_5_" gradientUnits="userSpaceOnUse" x1="545.9391" y1="124.0231" x2="568.2548" y2="115.4427" gradientTransform="matrix(-1 0 0 -1 831.6799 451.97)">
		<stop  offset="0" style="stop-color:#F7931A"/>
		<stop  offset="1" style="stop-color:#CC6806"/>
	</linearGradient>
	<path class="st18" d="M284.1,337.9c-0.3-1.3-1.3-2.3-2.6-2.7c2.7-1.9,4.4-4.4,3-7.7c-1.4-3.2-4-3.5-7-2.6c0.7-1.3,0.8-2.9,0.2-4.2
		c-2.9-6.9-13.2,5.9-13.2,5.9l2,5.5l0.2,0.7l2.4,6.4l0.3,0.8l2,5.4C271.5,345.2,286.4,345.1,284.1,337.9z"/>
	
		<linearGradient id="SVGID_6_" gradientUnits="userSpaceOnUse" x1="-143.026" y1="114.1858" x2="-124.2915" y2="49.9529" gradientTransform="matrix(1 0 0 -1 368.52 451.97)">
		<stop  offset="0" style="stop-color:#F0CD59"/>
		<stop  offset="1" style="stop-color:#F7931A"/>
	</linearGradient>
	<path class="st19" d="M274.5,398.9l0.1,6.4c0,0,1.6,22.1,14.7,22.1c0,0,18.7,2,24.7-22.4c0-0.3,0.3-0.4,0.5-0.4
		c0.3,0,0.4,0.3,0.4,0.5c-1.7,17-10.9,52.3-49.8,34.4l-1.9,10.2c0,0.2-0.3,0.4-0.5,0.3c-0.1,0-0.2-0.1-0.2-0.1l-12-14.6l-22.7,0.5
		l-7.4,11.2c-0.1,0.2-0.4,0.3-0.6,0.1c-0.1-0.1-0.2-0.2-0.2-0.4l-1.3-63c0,0-40.1,5.7-47.4,6.5c0,0-13.2-83.2,38.4-87.7
		c69.8-7.9,64.5,49.2,64.5,49.2l0.5,34.3L274.5,398.9z"/>
	<path class="st20" d="M226.4,350c0,2.7-4.3,4.8-9.7,4.8s-9.7-2.2-9.7-4.8c0-2.7,4.3-4.8,9.7-4.8S226.4,347.4,226.4,350z"/>
	<path class="st20" d="M196.2,349.1c0.3,1.3-1.3,2.8-3.6,3.4c-2.3,0.5-4.4-0.1-4.7-1.4c-0.3-1.3,1.3-2.8,3.6-3.4
		C193.7,347.1,195.8,347.8,196.2,349.1z"/>
	<path class="st20" d="M235.9,353.8c0.2,0.9-0.9,2-2.6,2.4c-1.6,0.4-3.2-0.1-3.4-1c-0.2-1,0.9-2,2.6-2.4
		C234.1,352.4,235.6,352.8,235.9,353.8z"/>
	<path class="st20" d="M216.7,358.6c0.2,0.9-0.9,2-2.6,2.4s-3.1-0.1-3.4-1c-0.2-0.9,0.9-2,2.5-2.4
		C214.9,357.3,216.4,357.7,216.7,358.6z"/>
	<path class="st21" d="M239.3,394.7c0,0,2.2,7.2,5.8,9.2c-2.4,3.1-6.7,6.3-11.4-0.6c1.6-1.3,3.2-3.8,5-8.2c0,0-6.9,16.8-14.8,0.6
		c0,0,3.5,12,9.4,7.9c2.2,4.6,6.7,11.1,12.3,0.5c2.5,1,6.1-1.7,9.5-10.1C255.1,393.9,247.2,410.9,239.3,394.7z"/>
	<path class="st22" d="M264,440.8c0,0,22.1,9.3,34-0.1l-3.6-6.2l-25.9-0.1c-0.3,0-6.4,1.2-6.4,1.2L264,440.8z"/>
	<path class="st23" d="M242.9,394.3c0,0,2.2,7.2,5.8,9.2c-2.4,3.1-6.7,6.4-11.4-0.6c1.6-1.3,3.2-3.8,5-8.2c0,0-7.4,15.9-15.2-0.4
		c0,0,4,13,9.8,8.9c2.2,4.6,6.7,11.1,12.2,0.5c2.5,1,5.6-0.6,9-9C258.1,394.7,250.8,410.5,242.9,394.3z"/>
	
		<linearGradient id="SVGID_7_" gradientUnits="userSpaceOnUse" x1="560.6998" y1="57.3807" x2="570.7314" y2="10.6903" gradientTransform="matrix(-1 0 0 -1 831.6799 451.97)">
		<stop  offset="0" style="stop-color:#294865"/>
		<stop  offset="1" style="stop-color:#395B80"/>
	</linearGradient>
	<path class="st24" d="M264.4,446c0,0-1.7-0.4-5.4,0c0,0-7.8-8.8-9-10.5c0,0-11.2,1.6-22,0.2l-4.8,8c0,0-2.8-0.7-4-0.2l-0.3-21.2
		l-0.1-6.2l5.8,0.3l0.8,0c0,0,0.4,0,1.2,0.1c2.1,0.1,7.4,0,16.4-1.3c0.6-0.1,1.2-0.2,1.9-0.3c13.6-2.1,30.5-4.7,30.5-4.7
		s1.7,7.4,4.5,11.5c2.8,4.1,8.6,6.2,14.8,4.5c6.2-1.7,11.3-5.4,14.5-10.8c0,0,3.7,0.8,3.2,7.9c0,0-0.8,1.7-2.1,4.1v0
		c-2.3,4-6.2,10-10.8,12.8c-7.3,4.6-14.2,7.7-34.5,1.2l0,0L264.4,446z"/>
	<path class="st25" d="M229.2,390.8l-1.5,5.6c-0.8-1-0.3-6.5,1-8.3l0.4-0.3C229.1,387.8,228.9,388.1,229.2,390.8z"/>
	<path class="st25" d="M236.7,396.4c-1.5-3-3.9-7.5-3.9-7.5c0.1-0.5,0.2-1,0.4-1.6l1.6,0.9l1.5,2.7L236.7,396.4z"/>
	<path class="st25" d="M236.7,396.4c0.3-0.3,0.7-0.6,1.1-0.9l1.1-0.9l1.1-0.9l1.1-0.9c-0.3,0.3-0.7,0.6-1.1,0.9l-1.1,0.9l-1.1,0.9
		L236.7,396.4z"/>
	<path class="st25" d="M227.6,396.5c-0.3-0.3-0.6-0.7-0.9-1c-0.3-0.3-0.6-0.7-0.9-1.1c-0.3-0.4-0.6-0.7-0.8-1.1
		c-0.3-0.4-0.5-0.7-0.8-1.1l0.4,0.5c0.1,0.2,0.3,0.3,0.4,0.5c0.3,0.3,0.6,0.7,0.9,1.1C226.6,395.1,227.1,395.8,227.6,396.5z"/>
	<path class="st26" d="M310.2,427.4c-2.3,4-6.2,10-10.8,12.8c-7.3,4.6-14.2,7.7-34.5,1.2l0.7-5.1c0,0,15,11.5,30.1,4.2
		C301.7,437.6,306.7,433.1,310.2,427.4z"/>
	<path class="st26" d="M232.3,418.3c0,0-0.1,5.3,0.9,8.6L232.3,418.3z"/>
	
		<linearGradient id="SVGID_8_" gradientUnits="userSpaceOnUse" x1="558.7146" y1="57.8854" x2="592.6404" y2="64.2701" gradientTransform="matrix(-1 0 0 -1 831.6799 451.97)">
		<stop  offset="0" style="stop-color:#1E2128"/>
		<stop  offset="1" style="stop-color:#2E313A"/>
	</linearGradient>
	<path class="st27" d="M217.8,412.3c0,0.5,0.1,1,0.2,1.4c0,0,0,0.7,0,1.5c0,0.6,0.1,1.1,0.2,1.6c0.1,0.1,4.6,0.6,12.5,0.3l0,0l1,0
		c8.9-0.4,17.7-1.4,26.5-2.9c5.5-0.9,11.5-2.2,17.9-3.8c0,0-0.3-2.2-0.4-2.8s0.5-1.8,0.4-3.1c0-1.3-2-39-1.9-41.3
		c0,0,0.3-2.3-0.3-2.1c0,0-18.3,16.3-56.2,20.7C217.8,381.9,217.2,405.9,217.8,412.3z"/>
	<path class="st28" d="M255.1,368.3c-0.3-12-2.6-16-5.4-16s-5.7,10.4-5.4,23L255.1,368.3z"/>
	<path d="M274.9,407.9c-2.3,0.6-4.6,1.1-6.9,1.6c-2.3,0.5-4.6,0.9-6.9,1.4c-4.6,0.8-9.3,1.6-14,2.1s-9.4,0.9-14.1,1.2l-3.5,0.1h-0.9
		h-0.9h-1.8c-2.4,0-4.7-0.2-7.1-0.2c4.7,0.5,9.4,0.6,14.1,0.5c1.2,0,2.4-0.1,3.5-0.2l1.8-0.1l1.8-0.1c1.2-0.1,2.4-0.2,3.5-0.3
		l3.5-0.4c4.7-0.6,9.3-1.3,14-2.2C265.8,410.3,270.4,409.2,274.9,407.9z"/>
	<path d="M273.6,363.9c-0.9,0.9-1.8,1.7-2.8,2.4c-0.5,0.4-1,0.7-1.5,1c-0.5,0.3-1,0.7-1.6,1c-1.1,0.6-2.1,1.2-3.2,1.8l-1.6,0.8
		l-1.7,0.8l-1.7,0.8l-1.7,0.7c-1.1,0.5-2.3,0.9-3.4,1.4c-1.2,0.4-2.3,0.9-3.5,1.3l-3.5,1.1c-1.2,0.4-2.4,0.7-3.5,1.1l-3.5,1
		c-2.4,0.6-4.7,1.2-7.1,1.8c-2.4,0.6-4.8,1.1-7.2,1.6l-7.2,1.5l7.3-1.3c2.4-0.5,4.8-1,7.2-1.5c1.2-0.2,2.4-0.6,3.6-0.9l3.6-0.9
		l3.5-1c1.2-0.3,2.4-0.7,3.5-1.1l3.5-1.2c1.2-0.4,2.3-0.9,3.5-1.3c1.1-0.4,2.3-0.9,3.4-1.4l1.7-0.7l1.7-0.8l1.7-0.8l1.6-0.9
		c1.1-0.6,2.1-1.2,3.2-1.9c0.5-0.3,1-0.7,1.5-1c0.5-0.3,1-0.7,1.5-1.1C271.8,365.6,272.8,364.8,273.6,363.9z"/>
	<path class="st29" d="M170.9,390.2c9.5-0.4,18.9-1.3,28.3-2.7c9.4-1.3,18.8-3.2,28-5.7c9.1-2.6,18.3-5.9,26.1-11.7
		c3.8-2.9,7.4-6.6,9-11.3c0.8-2.3,1.1-4.7,1-7.2c-0.1-2.4-0.5-4.8-1.1-7.1c0.3,2.3,0.5,4.7,0.5,7.1c-0.1,2.3-0.6,4.6-1.5,6.7
		c-1.7,4.3-5.2,7.6-9,10.2c-7.7,5.2-16.7,8.4-25.7,10.9c-9,2.5-18.3,4.4-27.6,6.2c-4.6,0.9-9.3,1.6-14,2.4
		C180.3,388.9,175.6,389.5,170.9,390.2z"/>
	<line class="st30" x1="259.9" y1="414" x2="229.9" y2="418"/>
	<path class="st20" d="M190.8,336.2c-5.4,0.6-10.8-0.9-15.1-4.1c3.8,4.4,9.5,6.6,15.3,6c5.8-0.7,10.9-4.1,13.7-9.2
		C201.1,333,196.2,335.6,190.8,336.2z"/>
	<path class="st20" d="M189.5,333.6c-4.4-0.7-8.5-3-11.3-6.5c2.2,4.3,6.3,7.3,11.1,8c4.7,0.7,9.5-1,12.8-4.5
		C198.5,333.2,194,334.2,189.5,333.6z"/>
	<path class="st29" d="M179.5,318.8c-0.1-9.4,10.1-16.5,19.6-12.5c4.2,1.7,6.9,5.4,8.1,9.7c1.4,4.9-0.2,10.2-4,13.5
		c-0.5,0.5-1.1,0.9-1.7,1.3c-7.1,4-17.4,1.6-20.9-6.6C179.9,322.5,179.5,320.7,179.5,318.8z"/>
	<path class="st28" d="M180.3,317.3c-0.1-8.9,9.6-15.6,18.6-11.9c4.3,1.8,7.2,6,8,10.6c0.8,4.8-1.2,9.6-5.2,12.3l-0.5,0.3
		c-6.7,3.7-16.5,1.5-19.8-6.2C180.6,320.8,180.3,319.1,180.3,317.3z"/>
	<path class="st29" d="M213.2,318.6c-0.2-10.1,10.9-17.7,21.1-13.5c4.5,1.9,7.4,5.8,8.7,10.5c1.5,5.3-0.2,10.9-4.3,14.5
		c-0.6,0.5-1.2,1-1.8,1.4c-7.6,4.2-18.7,1.7-22.5-7.1C213.6,322.5,213.2,320.6,213.2,318.6z"/>
	<path class="st28" d="M214,317c-0.1-9.5,10.3-16.8,20-12.8c4.6,1.9,7.7,6.5,8.6,11.4c0.9,5.1-1.3,10.3-5.6,13.2l-0.6,0.4
		c-7.2,4-17.7,1.6-21.3-6.7C214.4,320.7,214,318.9,214,317z"/>
	<path class="st31" d="M191.3,315.2c0,2.9-2.3,5.2-5.2,5.2c-2.9,0-5.2-2.3-5.2-5.2s2.3-5.2,5.2-5.2l0,0
		C189,309.9,191.3,312.3,191.3,315.2z"/>
	<path class="st32" d="M189.5,315.2c0,1.9-1.5,3.4-3.4,3.4c-1.9,0-3.4-1.5-3.4-3.4c0-1.9,1.5-3.4,3.4-3.4c0,0,0,0,0,0
		C187.9,311.8,189.5,313.3,189.5,315.2z"/>
	<path class="st3" d="M191.6,319.4c0,1.4-1.1,2.5-2.5,2.5c-1.4,0-2.5-1.1-2.5-2.5c0-1.4,1.1-2.5,2.5-2.5l0,0
		C190.5,316.9,191.6,318,191.6,319.4z"/>
	<path class="st31" d="M226.5,315c0,3.1-2.5,5.7-5.7,5.7c-3.1,0-5.7-2.5-5.7-5.7c0-3.1,2.5-5.7,5.7-5.7c0,0,0,0,0,0
		C223.9,309.3,226.5,311.8,226.5,315C226.5,315,226.5,315,226.5,315z"/>
	<path class="st32" d="M224.4,315c0,2-1.6,3.6-3.6,3.6c-2,0-3.6-1.6-3.6-3.6c0-2,1.6-3.6,3.6-3.6c0,0,0,0,0,0
		C222.8,311.4,224.4,313,224.4,315C224.4,315,224.4,315,224.4,315z"/>
	<path class="st3" d="M226.7,318.9c0,1.5-1.2,2.6-2.6,2.6c-1.5,0-2.6-1.2-2.6-2.6c0-1.5,1.2-2.6,2.6-2.6l0,0
		C225.5,316.2,226.7,317.4,226.7,318.9z"/>
	<path class="st20" d="M231.6,337c-6.4,0-12.5-2.3-17.2-6.6c7,9.5,20.4,11.5,29.9,4.5c1.7-1.3,3.2-2.8,4.5-4.5
		C244,334.6,237.9,337,231.6,337z"/>
	<path class="st20" d="M229.4,334.3c-5.2-0.2-10.2-2.2-13.9-5.8c5.5,8,16.4,10,24.4,4.5c1.4-1,2.7-2.2,3.8-3.6
		C239.6,332.7,234.6,334.5,229.4,334.3z"/>
	<path class="st12" d="M151.8,299.9c2.7,3.6,7.2,7.2,13,9.8l0.5,0.2l0.5,0.2l0,0c5.5,2.3,11.4,3.3,17.4,3.1c0.6,0,1.3-0.1,2-0.1h0.3
		h1.1l0,0c1.1,0,2.2-0.1,3.4-0.2c1-0.1,2-0.2,3-0.3c3.6-0.5,13.5-3.5,22.8-6.4c0,0,0,0,0,0l0.9-0.3l0.6-0.2l3.1-0.9
		c4.4-1.3,8.6-2.4,11.2-2.5c11.6,1.4,20.1,5.1,26.2,10.1c3,2.4,5.6,5.2,7.8,8.4c1.1,1.6,2.1,3.2,2.9,4.9c1.6,3.2,2.9,6.6,3.8,10.1
		c3.2,0.3,6.3,0.5,9.5,0.4c18.9-0.5,27.2-7.3,29.3-16.8l0,0c0.1-0.2,0.1-0.5,0.1-0.7c0.1-0.4,0.2-0.9,0.2-1.3c0-0.1,0-0.2,0-0.3
		c0-0.4,0.1-0.7,0.1-1.1v-0.2c0-0.2,0-0.4,0-0.6c0-0.2,0-0.5,0-0.7s0-0.5,0-0.7c0-0.7,0-1.4-0.1-2.2c-0.4-6.6-5.7-11.9-12.2-15.5
		c-8.8-5-18.7-6.5-28.9-6.1c-0.2,0-0.4,0-0.6,0h-0.2l-0.6,0c-1.2,0.1-2.4,0.2-3.5,0.3c-0.9,0.1-1.8,0.2-2.6,0.3
		c-0.9,0.1-1.8,0.2-2.7,0.4c-0.4,0.1-0.9,0.1-1.3,0.2h-0.1c-0.9,0.1-1.7,0.3-2.6,0.4l-1.3,0.3l-1.3,0.3l-1.3,0.3l-0.2,0
		c-2,0.4-4,0.9-5.9,1.4l0,0c-0.9,0.2-1.8,0.5-2.8,0.7l-0.8,0.2c-0.8,0.2-1.6,0.4-2.4,0.6l-0.1,0l-1.1,0.3h0l-1.6,0.5l-0.8,0.2
		c-1.5,0.5-3,0.9-4.5,1.4l0,0l-0.5,0.1c-3.3,1-7,2.7-11,3.8c-1,0.3-2,0.5-3,0.7h-0.1c-1.1,0.2-2.1,0.3-3.2,0.4l-0.5,0
		c-0.6,0-1.2,0-1.8,0l0,0c-1.5,0-3-0.1-4.5-0.2c-2.2-0.2-4.5-0.6-6.7-1.2h0c-2.2-0.5-4.3-1.2-6.4-2c0,0-0.1,0-0.1,0
		c-0.2-0.1-0.3-0.1-0.5-0.2l-0.6-0.2c-0.2-0.1-0.4-0.1-0.6-0.2c-0.4-0.1-0.8-0.3-1.2-0.5L190,298l-1-0.4c-0.8-0.4-1.7-0.7-2.5-1.1
		l-1.2-0.5c-0.8-0.4-1.5-0.7-2.3-1.1l-1.1-0.5l-1.1-0.5c-2-1-4-2-5.9-3l-1.4-0.7l-0.2-0.1l-1.4-0.7c-0.6-0.3-1.2-0.6-1.7-0.8
		l-0.8-0.4c-0.8-0.4-1.5-0.7-2.2-1l-0.7-0.3c-0.4-0.2-0.9-0.4-1.3-0.5c-0.5-0.2-1-0.4-1.6-0.6l-0.5-0.2c0,0,0,0-0.1,0l-0.6-0.2
		c-0.5-0.1-0.9-0.3-1.3-0.4l-0.1,0c-1.4-0.4-2.8-0.5-4.2-0.4C150.1,285.4,145.6,291.8,151.8,299.9z"/>
	
		<linearGradient id="SVGID_9_" gradientUnits="userSpaceOnUse" x1="542.5925" y1="141.4978" x2="667.9329" y2="141.4978" gradientTransform="matrix(-1 0 0 -1 831.6799 451.97)">
		<stop  offset="0" style="stop-color:#1E2128"/>
		<stop  offset="1" style="stop-color:#2E313A"/>
	</linearGradient>
	<path class="st33" d="M268.5,317.4c0,0.3,0,0.5-0.1,0.8c0,0.1-0.1,0.2-0.1,0.3c0,0,0,0.1-0.1,0.1c0,0.1-0.1,0.2-0.1,0.2
		c-0.1,0.1-0.1,0.2-0.2,0.3l0,0c-0.1,0.1-0.1,0.2-0.2,0.3c-0.1,0.1-0.2,0.2-0.3,0.3s-0.2,0.2-0.3,0.3c-0.5,0.4-1,0.7-1.5,0.9
		c1.1,1.6,2.1,3.2,2.9,4.9c4.1-0.3,8.2-1,12.2-2.2c8.9-2.7,12.3-8.6,2.1-14.7c-10.6-6.3-34.5-10.8-50.2-6.5c-0.3,0-0.7,0-1,0
		c11.6,1.4,20.1,5.1,26.2,10.1c3.5,0.7,6.4,1.6,8.3,2.6l0.2,0.1c0.4,0.2,0.7,0.4,1,0.6l0.2,0.2c0.1,0.1,0.1,0.1,0.2,0.2
		c0.1,0.1,0.1,0.1,0.2,0.2c0.1,0.1,0.2,0.2,0.2,0.3l0,0.1c0,0.1,0.1,0.1,0.1,0.2c0,0.1,0.1,0.1,0.1,0.2c0,0.1,0,0.1,0.1,0.2
		C268.5,317.2,268.5,317.3,268.5,317.4z M174.8,308.3L174.8,308.3c2.2,1.3,5.1,1.4,7.2,1.2c0.3,0,0.6,0,0.9-0.1l0,0
		c0.7-0.1,1.5-0.2,2.2-0.4l0,0l0.5-0.1c1.1-0.2,4-0.7,7-1.3c4.4-0.9,9-1.9,8.9-2.4c-0.1-0.3,0.1-0.8,0-1.4c-0.1-1.3-1.2-2.7-9-1.2
		c-0.4,0.1-0.9,0.1-1.3,0.2c-0.3,0-0.6,0-0.9,0.1l0,0c-0.3,0-0.6,0-0.9,0c-10.8-0.3-24.4-11.4-25.6-6.4
		C162.6,302.1,174.4,308.2,174.8,308.3L174.8,308.3z"/>
	<path class="st34" d="M160.3,285.5c0,0,6.6,2,15.2,7.3c5.2,3.1,10.7,5.7,16.3,7.7l0.6,0.2l0.2-0.2l0.1-0.1c0.1-0.1,0.2-0.2,0.2-0.3
		c0.2-0.2,0.3-0.4,0.5-0.6l0.1-0.1l-0.6-0.2l0,0l-0.6-0.2l-1.2-0.5L190,298l-1-0.4c-0.8-0.4-1.7-0.7-2.5-1.1l-1.2-0.5
		c-0.8-0.4-1.5-0.7-2.3-1.1l-1.1-0.5l-1.1-0.5c-2-1-4-2-5.9-3l-1.4-0.7l-0.2-0.1c-0.5-0.2-0.9-0.5-1.4-0.7c-0.6-0.3-1.2-0.6-1.7-0.8
		l-0.8-0.4c-0.8-0.4-1.5-0.7-2.2-1l-0.7-0.3c-0.4-0.2-0.9-0.4-1.3-0.5c-0.5-0.2-1-0.4-1.6-0.6l-0.5-0.2c0,0,0,0-0.1,0l-0.6-0.2
		c-0.5-0.1-0.9-0.3-1.3-0.4l-0.1,0l0,0L160.3,285.5z M164.8,309.8l0.5,0.2l0.5,0.2l0,0c5.5,2.2,11.4,3.1,17.4,3.1c0.7,0,1.5,0,2.2,0
		l1.1,0l0,0c1.1-0.1,2.2-0.1,3.4-0.2c1-0.1,2-0.2,3-0.3c3.6-0.5,13.5-3.5,22.8-6.4l0.9-0.3l0.6-0.2l3.1-0.9c1.3-0.4,2.6-0.8,3.9-1.2
		c1.8-0.5,3.5-1.1,5.2-1.5c9-2.6,17.9-4.6,29.6-7.3c13.9-3.1,30.2-0.2,30.2-0.2c19.9,5.3,21.1,19,21.1,19c0.1,1.9,0.4,3.8,0.7,5.7
		c0.1-0.2,0.1-0.5,0.1-0.7c0.1-0.4,0.2-0.9,0.2-1.3c0-0.1,0-0.2,0-0.3c0-0.4,0.1-0.7,0.1-1.1v-0.2c0-0.2,0-0.4,0-0.6s0-0.5,0-0.7
		c0-0.2,0-0.5,0-0.7c0-0.7,0-1.4-0.1-2.2c-0.4-6.6-5.7-11.9-12.2-15.5c-8.8-5-18.7-6.5-28.9-6.1l-0.6,0h-0.2l-0.6,0
		c-1.2,0.1-2.4,0.2-3.5,0.3c-0.9,0.1-1.8,0.2-2.6,0.3c-0.9,0.1-1.8,0.2-2.7,0.4c-0.4,0.1-0.9,0.1-1.3,0.2h-0.1
		c-0.9,0.1-1.7,0.3-2.6,0.4l-1.3,0.3l-1.3,0.3l-1.3,0.3l-0.2,0c-2.1,0.5-4.2,1-6.1,1.5l0,0l-2.5,0.7l-0.8,0.2
		c-0.8,0.2-1.6,0.4-2.4,0.6l-0.1,0l-1.1,0.3h0l-1.6,0.5l-0.8,0.2c-1.5,0.5-2.9,0.9-4.2,1.3l0,0c-2,0.7-3.6,1.3-4.8,1.8l-1.9,0.8
		c-1.1,0.5-2.2,0.9-3.3,1.4c-4.4,1.8-8.8,3.5-13.1,5c-5,1.8-10.2,3.1-15.5,4.1c-2.1,0.4-4.3,0.7-6.5,0.9c-1.1,0.1-2.2,0.2-3.4,0.2
		C177.9,312.2,169.3,310.8,164.8,309.8z"/>
	<path class="st34" d="M213.8,303.5c-0.1,0-23.3,9.8-39.3,6c-7.6-1.8-18.9-5.6-21.4-14c2.2,5,9.9,10.1,21.7,12.9
		c15.5,3.7,38.5-5.9,38.6-6L213.8,303.5L213.8,303.5z"/>
	<path class="st15" d="M257.8,312.4c3,2.4,5.6,5.2,7.8,8.4c0.5-0.2,1-0.6,1.5-0.9c0.1-0.1,0.2-0.2,0.3-0.3c0.1-0.1,0.2-0.2,0.3-0.3
		s0.2-0.2,0.2-0.3l0,0c0.1-0.1,0.1-0.2,0.2-0.3c0.1-0.1,0.1-0.2,0.1-0.2c0,0,0-0.1,0.1-0.1c0-0.1,0.1-0.2,0.1-0.3
		c0.1-0.2,0.1-0.5,0.1-0.8c0-0.1,0-0.1,0-0.2c0-0.1,0-0.1-0.1-0.2c0-0.1-0.1-0.1-0.1-0.2c0-0.1-0.1-0.1-0.1-0.2l0-0.1
		c-0.1-0.1-0.2-0.2-0.2-0.3c-0.1-0.1-0.1-0.1-0.2-0.2c-0.1-0.1-0.1-0.1-0.2-0.2l-0.2-0.2c-0.3-0.2-0.7-0.5-1-0.6l-0.2-0.1
		C264.2,314,261.3,313.1,257.8,312.4z"/>
	<path class="st34" d="M182.5,309.8c0.5-0.8,9.2-6.4,13.9-14.6s15.9-28.1,18.8-31.7s17.2-7.5,38.8,0.9c17.9,6.9,16.7,20,15.7,25.6
		C236.2,291.4,211.1,309.1,182.5,309.8L182.5,309.8z"/>
	<path class="st12" d="M193.7,299.2c1-1.3,1.9-2.6,2.7-4c4.7-8.2,15.9-28.1,18.8-31.7c2.3-2.8,11-5.7,24.6-3.2l0.3,0.7
		c-31.6,4.7-5,29.6,11.3,31.4c-6,1.3-12,4.3-17,5.2c-7.3,1.3-14.9,0.9-18.3,1.3C210.5,299.6,198.2,304.4,193.7,299.2L193.7,299.2z"
		/>
	
		<linearGradient id="SVGID_10_" gradientUnits="userSpaceOnUse" x1="-137.5475" y1="149.485" x2="-85.184" y2="149.485" gradientTransform="matrix(1 0 0 -1 320.08 451.97)">
		<stop  offset="0" style="stop-color:#1E2128"/>
		<stop  offset="1" style="stop-color:#2E313A"/>
	</linearGradient>
	<path class="st35" d="M182.5,309.8c0.5-0.7,8.1-5.7,13-13.1c0.2,0,0.4,0.1,0.6,0.1c2.4-0.5,16.3-3.4,37.4-0.4
		c0.5,0.1,0.9,0.1,1.4,0.2C216.8,302.3,200.3,309.4,182.5,309.8L182.5,309.8z"/>
	<path class="st12" d="M181.4,310.4l1.1,0h0.2c2.2-0.1,4.4-0.2,6.6-0.5c1.6-0.2,3.2-0.4,4.8-0.7h0.1c9.1-1.6,18-4.4,27.2-7.5
		l2.1-0.7l2-0.7c3-1,5.9-2,9-2.9h0c2.4-0.7,4.8-1.5,7.3-2.2l0,0h0c8.8-2.4,18.1-4.3,28.1-4.8h0.5l0.1-0.5c0,0,0-0.1,0-0.1
		c0.5-2.9,0.9-7.6-0.9-12.5c-1.9-5-6.1-10.1-15.3-13.7c-9.1-3.5-16.9-4.9-23.1-5c-8.8-0.2-14.5,2.1-16.4,4.3
		c-2.6,3.1-11.2,18.3-16.5,27.7c-0.7,1.3-1.4,2.4-2.3,4.1c-0.9,1.5-1.8,2.9-2.9,4.2l0,0c-0.4,0.4-0.7,0.9-1.1,1.3
		c-0.8,0.9-1.6,1.8-2.4,2.5c-1.9,1.8-3.8,3.5-5.8,5.1c-0.6,0.5-1.1,0.8-1.3,1.1c-0.1,0.1-0.2,0.2-0.2,0.3l-0.1,0.1L181.4,310.4
		L181.4,310.4z M194.7,307.9c-1.1,0.2-2.2,0.4-3.2,0.5c-2,0.3-3.9,0.5-5.9,0.6c-0.4,0-0.8,0.1-1.3,0.1l0.1-0.1
		c2.4-1.9,4.7-3.9,6.8-6.1c1-1,2-2.1,2.9-3.3l0,0c0.7-0.9,1.3-1.8,2-2.7l0,0c0.3-0.4,0.6-0.9,0.8-1.3l2.3-4.1
		c5.3-9.4,13.9-24.5,16.5-27.6c1.7-2,7-4.1,15.4-3.9c3,0.1,6,0.4,9,1c4.7,0.9,9.3,2.2,13.7,4c8.7,3.4,12.8,8.2,14.6,12.9
		c1.7,4.4,1.3,8.8,0.9,11.5c-6.6,0.3-13.1,1.3-19.5,2.7l0,0c-5.6,1.2-11,2.8-16.2,4.4l0,0c-1.8,0.6-3.6,1.2-5.4,1.7l0,0
		c-1.7,0.6-3.3,1.1-5,1.7c-2,0.7-4,1.3-5.9,2c-1,0.3-2.1,0.7-3.1,1l-0.5,0.1c-6.1,2-12.4,3.6-18.7,4.8L194.7,307.9z"/>
	<path class="st12" d="M246.1,269.2c0,0-6.9-0.8-8.9,0.7c-1,0.8-0.1,2.3,2.4,4.6c6.1,5.6,8,6,14.2,9.6c0,0-6.1-0.8-14.9-8.9
		c-10.1-9.2,3.7-6.7,3.7-6.7L246.1,269.2L246.1,269.2z"/>
	<path class="st12" d="M240,263.3c0,0,14.9,0.9,21.7,7.7c6.8,6.9,6.2,12.7,6.2,12.7S266.7,269.3,240,263.3L240,263.3z"/>
	<polygon class="st3" points="211.4,284.2 211.9,285.6 216.5,281.7 217.8,288.2 213.1,288.2 208.9,288.2 206.8,288.2 	"/>
	
		<ellipse transform="matrix(0.7545 -0.6563 0.6563 0.7545 -132.9554 209.3054)" class="st3" cx="213.3" cy="282.4" rx="0.8" ry="0.5"/>
	<path class="st3" d="M209.5,280.2l13.4,0c0.4,0,0.5,0.3,0.3,0.7l-4,8.3c-0.2,0.4-0.6,0.6-1,0.7l-13.4,0c-0.4,0-0.5-0.3-0.3-0.7
		l4-8.3C208.6,280.5,209,280.2,209.5,280.2 M209.7,279.7c-0.7,0.1-1.3,0.5-1.7,1.2l-4,8.3c-0.3,0.6-0.1,1.2,0.5,1.2l13.4,0
		c0.7-0.1,1.3-0.5,1.7-1.2l4-8.3c0.3-0.6,0.1-1.2-0.5-1.2L209.7,279.7L209.7,279.7z"/>
	<polygon points="258.2,402.9 249.4,401.4 247,404.3 255.8,405.8 	"/>
	<path d="M249.6,401.2c2.8-0.1,8.6,0.6,12-5.3c0.5-0.9,1-1.9,1.3-2.9c0-0.1,0-0.1,0-0.2v0c0.5-2.4,0.2-4.9,0.1-5.8
		c0-2.1,1.5-4.3,2.1-4.8c0.6-0.5,2.6-2.4,5.5-0.6c2.8,1.8,4.9,4.8,4.1,10c-0.5,3-0.8,6.6-2.4,9.2l-1-0.7c-3,4.6-7.6,7.7-12,7.8
		c-6.8,0-11.8-3.1-12.7-3.8S246.8,401.2,249.6,401.2z"/>
	<polygon class="st36" points="258.5,400.6 249.7,399.1 247.3,401.9 256.2,403.5 	"/>
	<polygon class="st36" points="257.2,408.1 248.4,406.5 247.2,403 256,404.6 	"/>
	<g>
		<path d="M225,427.1c-0.2-0.1-0.4-0.2-0.6-0.3l27.9-19.3l4-57.3l1.1,0.1l-4.1,57.5l0,0.3l-0.3,0.1l-27.5,19.1L225,427.1z"/>
		<path d="M251.1,352.4c1.9-0.7,3.2-1.2,4.2-1.9c0.1,0,0.2,0.1,0.3,0.2c0.5,0.3,1.1,0.4,1.7,0.6c-1.2,1.4-3,2.3-5.3,3.3
			c-10.4,4.3-20.5,7.5-27.4,16.1c-0.5-1.4-1.4-2.7-2.7-3.6C228.8,359.1,240.9,356,251.1,352.4z"/>
		<path d="M223.6,368.7c6.9-6.5,14.5-10.5,21.5-11.4c-7.9,3.2-15.2,6.6-20.5,13.4C224.4,370,224,369.3,223.6,368.7z"/>
		<path d="M212.1,384.1l42.3,24.1l-0.5,1L211,384.8C211.4,384.6,211.8,384.3,212.1,384.1z"/>
		<polygon points="253.9,412.8 246.1,408.4 246.1,404.7 253.9,409.1 		"/>
		<polygon class="st37" points="257.3,348.2 253.3,405.5 206.1,438.2 206.8,439.1 254.1,406.2 254.4,406.1 254.4,405.8 258.5,348.3 
					"/>
		<path class="st38" d="M223.7,371.5c-0.5-1.2-1.9-2.9-2.4-4.2c6.3-9.8,19.8-13,30.9-17c4.5-1.6,5.8-2.3,6.9-7.1
			c0.2-1.1,1.5-0.2,1.4,0.7c-0.7,5.1-3,6.7-7.4,8.6C241.6,357.2,230.5,360.5,223.7,371.5z"/>
		<path class="st38" d="M207.6,432.4c0.7,4.7,0.5,7.6-3.6,10.8c-0.7,0.6-2.1-0.1-1.3-0.8c3.6-3.5,3.5-4.9,2.6-9.6
			c-2.3-11.6-6.3-24.9-1.2-35.2c1.3-0.2,3.5,0.1,4.8-0.1C203,408.8,205.8,420.1,207.6,432.4z"/>
		<path class="st39" d="M222.3,369c7.5-7.9,16.1-12.8,24-13.8c-9,3.6-17.1,7.6-22.5,16.3C223.3,370.6,222.8,369.8,222.3,369z"/>
		<path class="st39" d="M206.5,425.1c-3.2-7.3-3.3-17.2-0.4-27.6c0.9,0.1,1.9,0,2.8,0C204.2,406.5,205,415.5,206.5,425.1z"/>
		<path class="st40" d="M207.1,383.5c-3,7.2,1.3,11.6-5.9,14.3c3.1,1.3,6.2,1.7,9.4,0.8c1.4-11.6,5.7-19.1,15-26.3
			c-0.8-3.2-2.7-5.7-5.5-7.7c1.4,7.7-4.8,6.1-9.5,12.6C209.3,379.2,208.1,381.3,207.1,383.5L207.1,383.5z"/>
		<path class="st41" d="M207.8,399.1c1-0.1,1.9-0.2,2.8-0.5c1.4-11.6,5.7-19.1,15-26.3c-0.2-0.9-0.6-1.8-1-2.7
			C215.2,376.7,209.2,387.4,207.8,399.1z"/>
		<path class="st42" d="M220.3,367.1c0.1-0.8,0-1.7-0.2-2.5c2.7,2,4.7,4.5,5.5,7.7c-0.6,0.5-1.1,0.9-1.7,1.4
			C223.4,370.6,221.3,368.1,220.3,367.1L220.3,367.1z"/>
		<polygon class="st43" points="255,407 160.7,353.6 161.2,352.6 255.5,406.1 		"/>
		<polygon class="st36" points="255,410.8 247.2,406.4 247.2,402.6 255,407 		"/>
	</g>
	<path d="M272.3,398.7c0,0-7.5-4.9-8.6-6.3c-1.2-1.4-0.8-1.7-0.8-1.7S270.9,396.1,272.3,398.7z"/>
	
		<linearGradient id="SVGID_11_" gradientUnits="userSpaceOnUse" x1="-888.647" y1="847.9344" x2="-850.8385" y2="850.6626" gradientTransform="matrix(0.806 -0.5919 -0.5919 -0.806 1465.463 564.9122)">
		<stop  offset="0" style="stop-color:#F6921E"/>
		<stop  offset="1" style="stop-color:#CA6928"/>
	</linearGradient>
	<path class="st44" d="M266.2,379.3c1.2-0.7,2.7-0.7,4,0c2,1.1,4.8,3.5,4.4,9.2c-0.6,9-8.2,17.2-15.3,17.3c-6.8,0-11.8-3.1-12.7-3.8
		s0-2.8,2.8-2.9c2.8-0.1,8.6,0.6,12-5.3c3.4-5.9,0.5-7.9,2.3-11.4C264.7,380.5,265.4,379.8,266.2,379.3z"/>
	<path class="st15" d="M262.8,390.6c1.5,0.6,6.1,3.2,9.4,8c1.6-2.6,1.9-6.2,2.4-9.2c0.8-5.2-1.2-8.2-4.1-10c-2.8-1.8-4.8,0-5.5,0.6
		c-0.6,0.5-2.1,2.8-2.1,4.8C263,385.7,263.4,388.2,262.8,390.6z"/>
</g>
<path class="st45" d="M162.7,345.6l-12,0l-1,0l0.4,0.9l4.4,11.2l0.3,0.8l0.7-0.5l5.8-4.2l0.2-0.1l0.1-0.2l1.9-6.9l0.2-0.8
	L162.7,345.6z M153.9,350.2c-0.2,0.2-0.5,0.3-0.7,0.1c-0.2-0.2-0.3-0.5-0.1-0.7c0.2-0.2,0.5-0.3,0.7-0.1
	C153.9,349.7,154,349.9,153.9,350.2C153.9,350.2,153.9,350.2,153.9,350.2z M155.5,355.1l-1.3-3.6l1.5-0.2l-1.3-3.6l6.3-0.2
	L155.5,355.1z"/>
</svg>
