<svg xmlns="http://www.w3.org/2000/svg" xmlns:xlink="http://www.w3.org/1999/xlink" viewBox="0 0 452.76 722.02"><defs><style>.cls-1{fill:#eff4f9;}.cls-2{fill:#F08B3E;}.cls-3{fill:#70beff;}.cls-4{fill:#d1d3d4;}.cls-5{fill:#76c8ff;}.cls-6{fill:url(#linear-gradient);}.cls-7{fill:url(#linear-gradient-2);}.cls-8{fill:url(#linear-gradient-3);}.cls-9{fill:url(#linear-gradient-4);}.cls-10{fill:url(#linear-gradient-5);}.cls-11{fill:url(#linear-gradient-6);}.cls-12{fill:url(#linear-gradient-7);}.cls-13{fill:#ededbb;}.cls-14{fill:#d69547;}.cls-15{fill:#d6721e;}.cls-16{fill:#d6753e;}.cls-17{fill:#9e512b;}.cls-18{fill:#542713;}.cls-19{fill:#fff;}.cls-20{fill:#d5753e;}.cls-21{fill:#d57328;}.cls-22{fill:url(#linear-gradient-8);}.cls-23{fill:url(#linear-gradient-9);}.cls-24{opacity:0.15;}.cls-25{fill:url(#linear-gradient-10);}.cls-26{fill:url(#linear-gradient-11);}.cls-27{fill:#563411;}.cls-28{fill:#2f4259;}.cls-29{fill:url(#linear-gradient-12);}.cls-30{fill:url(#linear-gradient-13);}.cls-31{fill:url(#linear-gradient-14);}.cls-32{fill:url(#linear-gradient-15);}.cls-33{fill:url(#linear-gradient-16);}.cls-34{fill:#cececd;}.cls-35{fill:#c1c0c0;}.cls-36{fill:#edeced;}.cls-37{fill:url(#linear-gradient-17);}</style><linearGradient id="linear-gradient" x1="-618.48" y1="1046.71" x2="-575.14" y2="1046.71" gradientTransform="matrix(-0.99, 0.14, 0.14, 0.99, -534.14, -322.02)" gradientUnits="userSpaceOnUse"><stop offset="0" stop-color="#d69547"/><stop offset="1" stop-color="#cc6806"/></linearGradient><linearGradient id="linear-gradient-2" x1="204.46" y1="637.84" x2="226.69" y2="637.84" gradientUnits="userSpaceOnUse"><stop offset="0" stop-color="#415675"/><stop offset="1" stop-color="#546c96"/></linearGradient><linearGradient id="linear-gradient-3" x1="205.41" y1="610.67" x2="213.75" y2="610.67" xlink:href="#linear-gradient-2"/><linearGradient id="linear-gradient-4" x1="82.49" y1="576.52" x2="117.76" y2="576.24" gradientUnits="userSpaceOnUse"><stop offset="0" stop-color="#f7931a"/><stop offset="1" stop-color="#cc6806"/></linearGradient><linearGradient id="linear-gradient-5" x1="-10.07" y1="674.44" x2="17.42" y2="674.22" gradientTransform="translate(55.93 -41.3) rotate(-3.49)" xlink:href="#linear-gradient-4"/><linearGradient id="linear-gradient-6" x1="88.13" y1="501.76" x2="126.97" y2="516.69" xlink:href="#linear-gradient-4"/><linearGradient id="linear-gradient-7" x1="-1203.46" y1="518.9" x2="-1170.85" y2="630.69" gradientTransform="matrix(-1, 0, 0, 1, -1010.47, 0)" gradientUnits="userSpaceOnUse"><stop offset="0" stop-color="#f0cd59"/><stop offset="1" stop-color="#f7931a"/></linearGradient><linearGradient id="linear-gradient-8" x1="-1582.24" y1="631.5" x2="-1533.53" y2="631.5" gradientTransform="matrix(-1, 0, 0, 1, -1374.56, 0)" gradientUnits="userSpaceOnUse"><stop offset="0" stop-color="#e2e2e2"/><stop offset="0.52" stop-color="#f7f7f7"/><stop offset="1" stop-color="#e2e2e2"/></linearGradient><linearGradient id="linear-gradient-9" x1="-1488.72" y1="601.13" x2="-1502.81" y2="695.52" gradientTransform="matrix(-1, 0, 0, 1, -1374.56, 0)" xlink:href="#linear-gradient-2"/><linearGradient id="linear-gradient-10" x1="186.99" y1="605.4" x2="195.28" y2="609.74" gradientUnits="userSpaceOnUse"><stop offset="0" stop-color="#e2e2e2"/><stop offset="1" stop-color="#f7f7f7"/></linearGradient><linearGradient id="linear-gradient-11" x1="-1523.81" y1="596.39" x2="-1551.03" y2="612.17" gradientTransform="matrix(-1, 0, 0, 1, -1374.56, 0)" xlink:href="#linear-gradient-10"/><linearGradient id="linear-gradient-12" x1="159.69" y1="632.49" x2="206.67" y2="631.23" xlink:href="#linear-gradient-2"/><linearGradient id="linear-gradient-13" x1="-1468.59" y1="632.9" x2="-1518.19" y2="610.88" gradientTransform="matrix(-1, 0, 0, 1, -1374.56, 0)" xlink:href="#linear-gradient-2"/><linearGradient id="linear-gradient-14" x1="-1512.92" y1="576.18" x2="-1500.69" y2="600.11" gradientTransform="matrix(-1, 0, 0, 1, -1374.56, 0)" xlink:href="#linear-gradient-2"/><linearGradient id="linear-gradient-15" x1="213.17" y1="594.98" x2="195.07" y2="607.82" xlink:href="#linear-gradient-2"/><linearGradient id="linear-gradient-16" x1="-1520.84" y1="-229.59" x2="-1455.04" y2="-234.34" gradientTransform="matrix(-0.81, -0.59, -0.59, 0.81, -1206.85, -74.9)" gradientUnits="userSpaceOnUse"><stop offset="0" stop-color="#f6921e"/><stop offset="1" stop-color="#ca6928"/></linearGradient><linearGradient id="linear-gradient-17" x1="-1565.05" y1="583.13" x2="-1581.02" y2="569.58" gradientTransform="matrix(-1, -0.05, -0.05, 1, -1421.87, -34.06)" xlink:href="#linear-gradient-2"/></defs><title>cz-moon-tablet-mobile</title><g id="Layer_2" data-name="Layer 2"><g id="Layer_1-2" data-name="Layer 1"><ellipse class="cls-1" cx="155.19" cy="713.41" rx="84.16" ry="6.51"/><path class="cls-2" d="M107.93,393.85A34.57,34.57,0,0,1,98,372.52a.19.19,0,0,0-.38,0,34.21,34.21,0,0,1-31.23,31.23.19.19,0,0,0,0,.38,34.21,34.21,0,0,1,31.23,31.23.19.19,0,0,0,.38,0,34.21,34.21,0,0,1,31.23-31.23.19.19,0,0,0,0-.38A34.57,34.57,0,0,1,107.93,393.85Z"/><path class="cls-2" d="M33.05,430.78a22.53,22.53,0,0,1-6.42-13.85.13.13,0,0,0-.25,0A22.53,22.53,0,0,1,20,430.78,22.53,22.53,0,0,1,6.11,437.2a.12.12,0,1,0,0,.24A22.55,22.55,0,0,1,20,443.87a22.51,22.51,0,0,1,6.42,13.85.13.13,0,0,0,.25,0A22.2,22.2,0,0,1,46.9,437.44a.12.12,0,1,0,0-.24A22.51,22.51,0,0,1,33.05,430.78Z"/><path class="cls-2" d="M438.79,14A22.52,22.52,0,0,1,432.36.12a.12.12,0,1,0-.24,0A22.51,22.51,0,0,1,425.7,14a22.6,22.6,0,0,1-13.85,6.43.12.12,0,1,0,0,.24,22.18,22.18,0,0,1,20.27,20.27.12.12,0,1,0,.24,0,22.2,22.2,0,0,1,20.28-20.27.12.12,0,1,0,0-.24A22.58,22.58,0,0,1,438.79,14Z"/><path class="cls-2" d="M59.53,327.27a49.48,49.48,0,0,1-14.14-30.46.27.27,0,0,0-.53,0,49.47,49.47,0,0,1-14.13,30.46A49.59,49.59,0,0,1,.26,341.41a.27.27,0,0,0,0,.53,49.52,49.52,0,0,1,30.47,14.13,49.52,49.52,0,0,1,14.13,30.46.27.27,0,1,0,.53,0A48.84,48.84,0,0,1,90,341.94a.27.27,0,0,0,0-.53A49.54,49.54,0,0,1,59.53,327.27Z"/><path class="cls-3" d="M432.24,192.51A171.17,171.17,0,0,1,397.5,296.16c-.76,1-1.54,2-2.33,3-.49.64-1,1.26-1.54,1.91-.71.91-1.47,1.8-2.23,2.7-1,1.25-2.11,2.47-3.21,3.68s-2.28,2.5-3.43,3.72-2.18,2.25-3.28,3.33-2.06,2-3.11,3-1.93,1.79-2.91,2.65c-.54.51-1.1,1-1.64,1.47-.86.78-1.72,1.52-2.6,2.25l-1.45,1.21c-2.2,1.83-4.43,3.6-6.73,5.29-1.3,1-2.62,1.95-4,2.88l-.12.08c-1.28.91-2.6,1.79-3.92,2.67q-4.07,2.72-8.32,5.17t-8.61,4.7c-2.18,1.11-4.42,2.2-6.66,3.21-.75.34-1.49.68-2.25,1l-1.89.81c-.88.39-1.78.76-2.67,1.11l-2,.8c-1.09.44-2.17.84-3.26,1.23-1.29.47-2.59.93-3.89,1.37-.71.25-1.4.49-2.11.71s-1.32.42-2,.62c-1.05.34-2.11.66-3.18,1-3,.88-6.05,1.67-9.12,2.36l-1.54.36c-2.47.54-5,1.05-7.48,1.47-.82.15-1.63.29-2.46.4-2.8.48-5.64.85-8.51,1.15l-2.91.31c-1,.08-1.94.17-2.91.23-1.33.11-2.68.19-4,.26H269c-.9.06-1.79.09-2.69.11l-3,.08q-1.49,0-3,0a172,172,0,0,1-172-172c0-1.26,0-2.51,0-3.78,0-.41,0-.81,0-1.2,0-1.12.09-2.25.14-3.36.08-1.86.2-3.7.35-5.55,0-.47.09-.93.12-1.4.1-1.15.2-2.3.34-3.45s.25-2.28.4-3.41.29-2.21.46-3.33c0-.3.09-.59.14-.88.15-1,.32-2,.49-3s.33-1.94.52-2.9c.15-.8.32-1.59.47-2.39s.29-1.38.44-2.07.31-1.39.46-2.08c.29-1.22.59-2.44.89-3.64.07-.33.17-.67.26-1q.45-1.77,1-3.51c.24-.83.47-1.66.73-2.49.15-.55.32-1.09.51-1.65.6-2,1.28-4,2-6,.14-.41.27-.8.42-1.19s.19-.55.31-.83c.24-.65.49-1.31.73-2,.76-2,1.55-4,2.4-6,.52-1.25,1.06-2.48,1.62-3.72s1.28-2.77,1.94-4.16c.22-.43.44-.89.68-1.33.52-1.1,1.08-2.18,1.64-3.25a.28.28,0,0,1,0-.11c.47-.9.94-1.79,1.43-2.67,1.52-2.79,3.13-5.55,4.82-8.25.27-.44.54-.88.83-1.32a1.69,1.69,0,0,1,.22-.35c.47-.76.94-1.51,1.43-2.25.12-.17.22-.34.34-.51.69-1.05,1.4-2.08,2.13-3.11.22-.34.46-.66.69-1,.78-1.14,1.59-2.25,2.42-3.35.93-1.25,1.86-2.48,2.82-3.7q1.17-1.5,2.37-2.94c.54-.68,1.1-1.34,1.67-2,1.3-1.55,2.64-3.09,4-4.58l1.44-1.57c.69-.76,1.39-1.48,2.09-2.21.39-.41.78-.79,1.19-1.2q3.12-3.19,6.39-6.2c1-1,2.09-1.89,3.17-2.82s2-1.71,3-2.54c.17-.15.33-.29.5-.42l.05,0c.53-.44,1.07-.88,1.61-1.3,1.33-1.09,2.69-2.15,4.06-3.18,4.27-3.26,8.73-6.3,13.33-9.16,1.45-.9,2.91-1.77,4.39-2.64,2.76-1.6,5.55-3.12,8.4-4.56.56-.29,1.12-.56,1.67-.81a172.44,172.44,0,0,1,116-13q4.69,1.08,9.26,2.48a168.43,168.43,0,0,1,24.74,9.52c.56.25,1.12.52,1.67.81A172,172,0,0,1,432.24,192.51Z"/><path class="cls-4" d="M261.63,357c1.35,4.44,5.73,18.57-3.45,24.24s6.46,5.55,13,3.2,21.9-.65,22-5.42-14-4-16.77-19S261.63,357,261.63,357Z"/><path class="cls-4" d="M256.33,613.64s-1.38-1-1.46-1c-1.11-.12-2.41-1.25-2.29-2.36,4.19-38.56,22.41-81.69,17.51-99.3-3.72-13.38-3.41-50.19-3.11-85.79.26-31.06.51-60.4-2.06-68.09a2,2,0,0,1,3.84-1.27c2.77,8.33,2.53,36.62,2.25,69.39-.28,33.68-.6,71.85,3,84.68,5,18-12.16,61.72-16.42,101C257.45,611.89,257.35,613.64,256.33,613.64Z"/><path class="cls-5" d="M397.5,296.15A172,172,0,1,1,150.77,59.87,171.09,171.09,0,0,0,116,163.55c0,2.71.06,5.4.2,8.07v0a23.38,23.38,0,0,0,7.86,44.1,172.26,172.26,0,0,0,79.17,97.48,22.76,22.76,0,0,0-1.18,7.31,23.4,23.4,0,0,0,44.56,10A172.32,172.32,0,0,0,397.5,296.15Z"/><path class="cls-5" d="M297.12,251.24A25.81,25.81,0,0,1,286,202.15c-.44,0-.88-.07-1.34-.07a29.12,29.12,0,1,0,23,46.92A25.69,25.69,0,0,1,297.12,251.24Z"/><path class="cls-5" d="M184.92,140.39A25.81,25.81,0,0,1,173.75,91.3c-.45,0-.89-.07-1.34-.07a29.12,29.12,0,1,0,23,46.92A25.69,25.69,0,0,1,184.92,140.39Z"/><path class="cls-5" d="M336.28,127.22a25.81,25.81,0,0,1-11.17-49.09c-.45,0-.89-.07-1.34-.07a29.12,29.12,0,1,0,23,46.92A25.64,25.64,0,0,1,336.28,127.22Z"/><path class="cls-5" d="M234.7,333a17.33,17.33,0,0,1-7.5-33c-.3,0-.59,0-.9,0a19.54,19.54,0,1,0,15.44,31.5A17.38,17.38,0,0,1,234.7,333Z"/><path class="cls-5" d="M136,205a17.33,17.33,0,0,1-7.5-32.95c-.3,0-.6,0-.9,0a19.54,19.54,0,1,0,15.44,31.49A17.25,17.25,0,0,1,136,205Z"/><circle class="cls-5" cx="242.54" cy="149.46" r="9.28"/><circle class="cls-5" cx="315.21" cy="297.12" r="9.28"/><circle class="cls-5" cx="372.65" cy="244.92" r="7.84"/><circle class="cls-5" cx="382.93" cy="168.17" r="7.01"/><circle class="cls-5" cx="244.08" cy="63.21" r="9.11"/><circle class="cls-5" cx="189.6" cy="250.74" r="17.49"/><path class="cls-6" d="M196.46,617.31c2.82,5,7.44,17.33,19.49,12.26,0,0,5.07-2.62,7.72-6.78s3.94-.5,3.69,2-6.47,31.61-31.08,18c-4.47-2.49-14.42-13.7-12.64-23.8C185.56,608,195,614.72,196.46,617.31Z"/><path class="cls-7" d="M217.8,627.36S228,633,226.55,636c-3.61,7.5-20.5,12.92-21.14,12.25-2.15-2.26,0-19.78,0-19.78"/><path class="cls-8" d="M206,600.41s6.68,9,7.65,18-8.17-8.53-8.25-9.34S206,600.41,206,600.41Z"/><path class="cls-9" d="M94.67,589.88a6.44,6.44,0,0,1,2-5.26c-4.42-.62-7.87-2.75-7.71-8s3.51-7.34,7.72-8.17a6.39,6.39,0,0,1-2.35-5.4c.36-11,20-1.46,20-1.46l.11,8.47,0,1.07.13,9.88,0,1.23.11,8.31S95.31,600.82,94.67,589.88Z"/><path class="cls-10" d="M97,642.31a5,5,0,0,1,1.3-4.18c-3.47-.28-6.25-1.76-6.37-5.82s2.38-5.88,5.62-6.72a5,5,0,0,1-2.09-4.09C95.25,613,111,619.41,111,619.41l.49,6.59.06.83.57,7.68.07,1,.48,6.46S98.05,650.79,97,642.31Z"/><path class="cls-11" d="M90.93,519.08a6.59,6.59,0,0,1,4.46-4.67c-4.65-3.32-7.59-7.75-5.17-13.43s7-6.09,12.09-4.5a8.52,8.52,0,0,1-.31-7.41c5.09-12,22.92,10.31,22.92,10.31l-3.5,9.5-.44,1.19-4.09,11.08-.51,1.37-3.44,9.32S87,531.63,90.93,519.08Z"/><path class="cls-12" d="M107.65,625.21l-.17,11s-2.75,38.5-25.66,38.5c0,0-32.57,3.41-43-39a.82.82,0,0,0-1.62.27c3,29.59,19,91,86.75,59.81l3.38,17.75a.75.75,0,0,0,1.3.36l21-25.43,39.42.9L201.94,709a.75.75,0,0,0,1.37-.4l2.21-109.71s69.84,9.9,82.53,11.3c0,0,23-144.86-66.91-152.6-121.45-13.75-112.28,85.69-112.28,85.69L108,602.89Z"/><path class="cls-13" d="M141.5,572c.59-20.94,4.6-27.84,9.45-27.84s9.91,18,9.45,40.1Z"/><path class="cls-14" d="M191.34,540.23c0,4.65,7.53,8.41,16.82,8.41S225,544.88,225,540.23s-7.52-8.4-16.81-8.4S191.34,535.59,191.34,540.23Z"/><path class="cls-14" d="M244.06,538.53c-.55,2.29,2.24,4.91,6.21,5.85s7.63-.15,8.18-2.44-2.24-4.91-6.22-5.85S244.6,536.24,244.06,538.53Z"/><path class="cls-14" d="M174.92,546.71c-.39,1.65,1.62,3.55,4.5,4.23s5.52-.11,5.91-1.77-1.62-3.54-4.49-4.22S175.32,545.05,174.92,546.71Z"/><path class="cls-14" d="M208.34,555.19c-.39,1.64,1.6,3.51,4.44,4.18s5.46-.1,5.85-1.74-1.61-3.51-4.45-4.18S208.72,553.56,208.34,555.19Z"/><path class="cls-15" d="M168.92,617.91s-3.87,12.5-10,16c4.26,5.46,11.72,11,19.82-1.1-2.72-2.27-5.64-6.68-8.72-14.21,0,0,12,29.3,25.71,1.09,0,0-6.12,20.88-16.29,13.66-3.76,8-11.65,19.23-21.3.94-4.38,1.82-10.64-3-16.6-17.65C141.5,616.59,155.2,646.12,168.92,617.91Z"/><path class="cls-16" d="M288.05,610.14a483.12,483.12,0,0,1-49.34-4.65A381.27,381.27,0,0,1,190,595.63c-15.92-4.56-31.89-10.33-45.51-20.37-6.62-5.09-12.82-11.49-15.65-19.62a33.44,33.44,0,0,1-1.76-12.47,65.62,65.62,0,0,1,2-12.28,83.39,83.39,0,0,0-.85,12.28,31.81,31.81,0,0,0,2.54,11.74c3,7.45,9.07,13.21,15.63,17.78,13.46,9,29,14.58,44.76,19s31.91,7.67,48.08,10.72c8.08,1.53,16.21,2.84,24.36,4.09S279.87,609,288.05,610.14Z"/><path class="cls-14" d="M253.35,516.19A36.88,36.88,0,0,0,279.56,509,30.87,30.87,0,0,1,253,519.43a31.42,31.42,0,0,1-23.82-16A37.5,37.5,0,0,0,253.35,516.19Z"/><path class="cls-14" d="M255.55,511.6a31.15,31.15,0,0,0,19.67-11.32,26.19,26.19,0,0,1-19.3,14,25.55,25.55,0,0,1-22.3-7.83A30.5,30.5,0,0,0,255.55,511.6Z"/><path class="cls-16" d="M273,485.92c.24-16.32-17.64-28.7-34.15-21.82-7.3,3-12,9.42-14.09,16.92a22.84,22.84,0,0,0,7,23.52,24.73,24.73,0,0,0,3,2.2c12.38,6.88,30.26,2.75,36.34-11.46A23.64,23.64,0,0,0,273,485.92Z"/><path class="cls-13" d="M271.71,483.32c.24-15.45-16.7-27.18-32.33-20.66-7.53,3.13-12.51,10.48-13.89,18.38a21.58,21.58,0,0,0,9.06,21.4c.3.21.61.41.92.6,11.72,6.52,28.66,2.61,34.42-10.85A22.47,22.47,0,0,0,271.71,483.32Z"/><path class="cls-16" d="M214.41,485.46c.26-17.54-19-30.85-36.71-23.46-7.85,3.28-12.95,10.13-15.15,18.19a24.55,24.55,0,0,0,7.51,25.29,28.45,28.45,0,0,0,3.2,2.37c13.31,7.39,32.54,3,39.08-12.32A25.5,25.5,0,0,0,214.41,485.46Z"/><path class="cls-13" d="M213,482.67c.25-16.62-18-29.22-34.77-22.22-8.08,3.37-13.44,11.27-14.93,19.76a23.21,23.21,0,0,0,9.74,23l1,.64c12.6,7,30.81,2.8,37-11.67A24.06,24.06,0,0,0,213,482.67Z"/><path class="cls-17" d="M243.61,475.86a9.12,9.12,0,1,0,9.12-9.11A9.12,9.12,0,0,0,243.61,475.86Z"/><path class="cls-18" d="M246.86,475.86a5.87,5.87,0,1,0,5.87-5.86A5.87,5.87,0,0,0,246.86,475.86Z"/><path class="cls-19" d="M240.75,478.39A4.29,4.29,0,1,0,245,474.1,4.29,4.29,0,0,0,240.75,478.39Z"/><path class="cls-17" d="M182.47,475.56a9.81,9.81,0,1,0,9.8-9.8A9.81,9.81,0,0,0,182.47,475.56Z"/><path class="cls-18" d="M186,475.56a6.31,6.31,0,1,0,6.3-6.3A6.31,6.31,0,0,0,186,475.56Z"/><path class="cls-19" d="M179.66,477.51a4.61,4.61,0,1,0,4.6-4.61A4.61,4.61,0,0,0,179.66,477.51Z"/><path class="cls-14" d="M182.44,517.46a44.93,44.93,0,0,0,30-11.38,37.27,37.27,0,0,1-60-.08A44.93,44.93,0,0,0,182.44,517.46Z"/><path class="cls-14" d="M186.26,512.85a36.85,36.85,0,0,0,24.25-10.14,30.54,30.54,0,0,1-49.09,1.58A36.8,36.8,0,0,0,186.26,512.85Z"/><path class="cls-14" d="M201.54,448.71c-14.29-5-42.43.58-49.78,11.47-.42-.29,4.43-16.15,22.17-18.6S201.54,448.71,201.54,448.71Z"/><path class="cls-14" d="M277.47,468.13c-2.28-12.23-24-19.65-36.38-15.41-.16-.49,12.83-9.34,28.9-1.43C279.59,456,277.47,468.13,277.47,468.13Z"/><path class="cls-20" d="M126,698.11s-38.45,16.2-59.12-.09l6.33-10.81,45.16-.18c.46,0,11.17,2.14,11.17,2.14Z"/><path class="cls-21" d="M162.69,617.27s-3.86,12.52-10,16c4.25,5.46,11.7,11.06,19.78-1.1-2.71-2.27-5.63-6.7-8.7-14.23,0,0,12.85,27.61,26.54-.64,0,0-7,22.63-17.13,15.41-3.76,8-11.64,19.26-21.27.94-4.37,1.82-9.78-1.07-15.74-15.71C136.15,617.91,149,645.52,162.69,617.27Z"/><path class="cls-22" d="M161.5,610.2v12l.95,31.4,0,.6,28.63,3.29,5.29.37.32-2.19L196,618.17l1.38-5.77-.7-4.87-9.27-1.19-.61-.5a70.4,70.4,0,0,1-.59,8.08,53.61,53.61,0,0,1-2.55,11.2s-1.09-7.68-2.69-14.76c-.42-1.83-.87-3.62-1.34-5.23l-2.74,1.66-7,4.25Z"/><path class="cls-23" d="M125.35,707.26s3-.73,9.44,0c0,0,13.56-15.28,15.55-18.21,0,0,19.47,2.86,38.23.33l8.31,14s4.85-1.27,7-.4l.49-36.89.14-10.84-10.12.47-1.42.06s-.66.08-2,.12c-3.74.13-12.84,0-28.48-2.25l-3.26-.5c-23.67-3.75-53.18-8.27-53.18-8.27s-3,12.95-7.82,20-15,10.8-25.69,7.88A41.26,41.26,0,0,1,47.34,654s-6.39,1.42-5.5,13.74c0,0,1.37,3,3.73,7.15l0,0c4,7,10.81,17.32,18.74,22.31,12.68,8,24.73,13.48,60,2.13h0Z"/><path class="cls-24" d="M189.23,620.91l0-.09,0,.31Z"/><path class="cls-24" d="M186.51,611.11l2.69,9.71c1.44-1.68.61-11.23-1.8-14.48l-.61-.5S187.09,606.52,186.51,611.11Z"/><path class="cls-25" d="M201.18,598.48c-1.29,2.51-3.14,6.17-4.5,9a40.56,40.56,0,0,0-1.73,4c-.73,2.49-5.72,9.43-5.72,9.43.53-4.44-1.18-14.27-2.44-15.07a138.2,138.2,0,0,0,12.77-7.75l1.56.38Z"/><path class="cls-24" d="M173.51,620.82c2.62-5.19,6.8-13,6.8-13a24.5,24.5,0,0,0-.69-2.7l-2.74,1.66-2.67,4.73Z"/><path class="cls-26" d="M179.62,605.13s-5.75,12.94-6.11,15.69c0,0-14.5-12.41-16.89-15s-11.76-22.35-11.76-22.35S165.26,599.72,179.62,605.13Z"/><path class="cls-24" d="M173.51,620.82l-1.83-1.62-1.85-1.6L168,616l-1.87-1.57,1.83,1.62,1.85,1.6,1.85,1.59Z"/><path class="cls-24" d="M189.23,621.13c.54-.58,1.06-1.18,1.57-1.79s1-1.23,1.49-1.85,1-1.25,1.44-1.89.93-1.28,1.35-2l-.77.91c-.25.3-.51.6-.76.91-.5.61-1,1.23-1.49,1.85C191.09,618.56,190.13,619.82,189.23,621.13Z"/><path class="cls-24" d="M182.07,655.73c1.58-10.46,1.87-30.4,1.87-30.6h-.59c0,.2-.29,20.1-1.86,30.52Z"/><path class="cls-27" d="M195.8,654A83.29,83.29,0,0,1,164,652.36l-.44,4.3s15.92,4.42,32.67,1.12Z"/><path class="cls-28" d="M194.5,655.83c0,.56.09,1.11.14,1.63.52,5.55,1.36,8.86,2.46,9.5,1.53.88,4.79,0,7.24-.91l.15-10.84-8.08.47.64-37.83-1.15-6.33A181.91,181.91,0,0,0,194,638.16,173,173,0,0,0,194.5,655.83Z"/><path class="cls-29" d="M206,662.25a1,1,0,0,1-.61.81c-1.44.47-5.86,1.83-8.4,1.06s-3.08-35.6-1.12-51.83c.23-1.87.49-3.5.78-4.79a12.81,12.81,0,0,1,.61-2.09,43,43,0,0,1,3.83-6.94h.06c1.41.35,3,.72,4.53,1.07l.56.12c0,.26,0,.54,0,.81s0,.3,0,.46C206.76,618.44,207.52,654.91,206,662.25Z"/><path class="cls-28" d="M104.81,650.19l54,3.06-13.51-64.67s16.4,9.92,20.35,27.46,1,45.14,1,45.15a14.2,14.2,0,0,1-1.51,5.54c-2.12,3.37-37.73-2-61.1-14.9Z"/><path class="cls-30" d="M103.48,650.56l2.7,1.21h0c30.31,13.26,57.65,15.07,58.64,10.29s4.91-45.54-4.92-59.8c-4.31-12.36-51.61-37-51.61-37-.36,0-.63.46-.83,1.35-1.13,4.9-.18,22.61-.41,45.44C106.8,639,103.48,650.56,103.48,650.56Z"/><path class="cls-31" d="M120.15,580.41c3.89,1.65,13.13,3.21,14,3,.38-.1-.37.84-1.3,1.89l-.18.2c-1.07,1.2-2.3,2.47-2.3,2.47h0c.89.48,29.35,16,32.95,21.73a.23.23,0,0,0,0-.09h0c-.31-1-2.8-9-5-12.53a40.64,40.64,0,0,0-14.57-14.33c-7.69-4.61-33.2-16.54-34.7-22.3h0a15.11,15.11,0,0,1-.28-3.82h-.85a2.35,2.35,0,0,0-2.18,1.17C102.72,565,116.27,578.75,120.15,580.41Z"/><path class="cls-28" d="M163.37,609.86c-3.69-5.79-33.37-21.51-33.37-21.51s4.62-4.76,3.77-4.55-10.07-1.35-14-3-17.81-15.6-14.5-22.61c.87-1.84,2.29-1.52,3.13-1.58-.29.17-1.38.36-1.73,1.16-2.94,7.18,10.6,21,14.48,22.62s13.13,3.2,14,3-3.77,4.57-3.77,4.57,26.78,12.71,31.93,21.72C163.83,611.21,163.32,609.67,163.37,609.86Z"/><path class="cls-28" d="M45.61,674.91c4,7,10.81,17.32,18.74,22.31,12.68,8,24.73,13.48,60,2.13l-1.22-8.87s-26.07,20-52.3,7.32A61.17,61.17,0,0,1,45.61,674.91Z"/><path class="cls-28" d="M181.07,659s.09,9.3-1.63,14.89Z"/><path class="cls-32" d="M206.29,600.48c-2.47,1.93-7.18,5.91-9.46,9.84a12.06,12.06,0,0,0-.93,2c.23-1.87.49-3.5.78-4.79a12.81,12.81,0,0,1,.61-2.09,43,43,0,0,1,3.83-6.94h.06c1.41.35,3,.72,4.53,1.07l.56.12C206.27,599.93,206.28,600.21,206.29,600.48Z"/><path class="cls-28" d="M207.94,600.05c-.56.28-1.11.57-1.64.89a30.51,30.51,0,0,0-10,10.48c.17-.38.35-.74.53-1.1,3.77-7.62,7.5-10.07,8.88-10.77l.56.12Z"/><path class="cls-28" d="M108,609.93s1,17.44,10.17,25.43c5.34,4.67,13.48,5.66,19.31,5.68a15.27,15.27,0,0,0,11.26-5l3.57-3.89"/><path class="cls-4" d="M165.45,716.19c-8.19,1.56-15.42,1.08-22-4.28l-1.8,4.35c4.08,0,22.64,3.18,19.78-6.14-1.35-4.4-7.75-4.48-11.32-5.2l-5.68-1.14a1.65,1.65,0,0,0,1.87-.51c.08-.38,1.12-1.38,1.34-1.94a2.47,2.47,0,0,0-.65-2.49c-2.81-2.2-2-2.06-.85-5.8,2.08-7,2.65-14.71,3.64-21.94,2-14.63,3.46-29.33,2.77-44.11-.13-2.76-.64-5.85-.2-8.62,1-6.4,5.45-8.7,11.2-9.7a29.28,29.28,0,0,1,22.31,5.4c8.41,6,14.56,14.73,23.39,20.19,5.43,3.36,16,7.18,22.38,4.48,5.17-2.18,5.44-11.1,3.9-15.69-5.17-15.37-33.22-7.27-20.07,8,6.4,7.44,18.69,9.28,27.58,5.25,9.66-4.38,14.09-15.64,14.59-25.65.17-3.28-4.93-3.27-5.1,0-.29,6-2.39,13-6.54,17.36-5.67,6-18.18,7.23-24.83,1.77-2.67-2.19-5.78-7.08-1.45-9.62,4.08-2.4,10.85,2.49,11.38,6.55.18,1.35.16,5.23-.67,6.2-1.72,2.05-6.61,1.06-8.79.68-19.43-3.42-27.51-26.55-47.42-30-7.15-1.25-17.54-.59-23,4.93-6.6,6.63-3.5,18.66-3.52,26.85,0,15.44-2.17,30.79-4.48,46-.79,5.23-2.77,9.58-3.93,14.56-.47,2-.77,3.11.71,4.79.32.37,2.25,1.81,2.86,1.58s.72-3.71-2-1.53a4.7,4.7,0,0,0-1.29,5.71c1.83,3.2,7.67,3,10.66,3.64,2.38.48,9.1.89,3.22,1-3.91.07-7.84,0-11.75,0-2,0-3.59,2.9-1.81,4.35,8.16,6.64,16.72,7.55,27,5.6,3.22-.61,1.85-5.53-1.36-4.92Z"/><path class="cls-28" d="M137.77,638.74a10,10,0,0,0,4.52-4.36c1.33-3,3-8.7,2.56-9.11l-1.28.08-1.48,1.3-1.54,2.29-1,2.15-.73,2.59-.87,2Z"/><path class="cls-33" d="M122.09,591.2a7.36,7.36,0,0,0-6.87-.06c-3.57,1.84-8.3,6.15-7.67,16,1,15.63,14.33,31.31,26.6,30.06s20.6-5.4,22-6.68,0-4.89-4.87-5-14.91,1.07-20.91-9.26-.91-13.79-3.93-19.83C124.81,593.16,123.48,592,122.09,591.2Z"/><path class="cls-34" d="M143.57,624.77c-.13.62-.28,1.43-.41,2s-.24,1.14-.24,1.14l.23.06,3.22.78.16,0s0-.06,0-.16c0-.26.05-.82.08-1.43s.07-1.4.06-1.88l-.24,0-2.63-.46Z"/><path class="cls-34" d="M143.06,636l.23,0,2.39-.4h0l.25,0h0c.13-.85.33-2.36.46-3.46.1-.77.17-1.35.17-1.35l-.37,0-3.29-.17h-.2a4.72,4.72,0,0,0,0,1.57C142.77,633.36,142.92,635.08,143.06,636Z"/><path class="cls-35" d="M146.44,625.27c0,.51,0,1.3,0,1.79s0,.7,0,.85,0,.25,0,.47,0,.23,0,.36l.16,0s0-.06,0-.16c0-.26.05-.82.08-1.43s.07-1.4.06-1.88Z"/><path class="cls-35" d="M145.69,635.57l.25,0h0c.13-.85.33-2.36.46-3.46.1-.77.17-1.35.17-1.35l-.37,0c-.06.64-.11,1.23-.14,1.59s0,.33,0,.33S145.86,634.37,145.69,635.57Z"/><path class="cls-35" d="M143.57,624.77c-.13.62-.28,1.43-.41,2s-.24,1.14-.24,1.14l.23.06c.08-.46.16-.9.25-1.31.14-.63.28-1.31.41-1.84Z"/><path class="cls-35" d="M143.06,636l.23,0c-.11-1-.25-2.34-.33-3.7h0c0-.59,0-1.18,0-1.74h-.2a4.72,4.72,0,0,0,0,1.57C142.77,633.36,142.92,635.08,143.06,636Z"/><ellipse class="cls-36" cx="144.55" cy="629.56" rx="3.14" ry="3.13" transform="translate(-410.42 299.04) rotate(-46.29)"/><path class="cls-35" d="M141.5,631.16a3.44,3.44,0,1,1,4.64,1.44A3.45,3.45,0,0,1,141.5,631.16Zm.54-.28a2.83,2.83,0,0,0,3.82,1.19,2.86,2.86,0,0,0,1.21-3.83,2.84,2.84,0,0,0-5,2.64Z"/><path class="cls-35" d="M145.42,634a6.07,6.07,0,0,0-.85,0c-.27,0-.55,0-.83,0a1.43,1.43,0,0,0,.42.1h.42A3.06,3.06,0,0,0,145.42,634Z"/><path class="cls-35" d="M145.27,635.14a6.1,6.1,0,0,0-.74,0l-.73,0a.91.91,0,0,0,.36.09,1.61,1.61,0,0,0,.38,0A2.29,2.29,0,0,0,145.27,635.14Z"/><path class="cls-35" d="M145.9,625.64a2.16,2.16,0,0,0-.73-.24,2,2,0,0,0-.77,0l.38.07.37.06C145.4,625.59,145.64,625.62,145.9,625.64Z"/><path class="cls-19" d="M144.07,627.47a3.44,3.44,0,0,1,1,.08,2.17,2.17,0,0,1,.85.41,2.43,2.43,0,0,1,.58.73c.08.14.13.3.2.45s.09.31.15.47a4,4,0,0,0,0-.5,3.51,3.51,0,0,0-.15-.49,2.06,2.06,0,0,0-.6-.83,1.89,1.89,0,0,0-.95-.41A2.45,2.45,0,0,0,144.07,627.47Z"/><path class="cls-37" d="M144.86,624.87s-2.86.38-4.81,5.17a33.55,33.55,0,0,0-2.28,8.7s-8.28,1.18-16.84-5.72S108.82,618,107.44,608.86s2.15-14.34,7.09-17.48,8.4.06,9.49,1,3.74,4.82,3.71,8.42S126,621.6,144.86,624.87Z"/></g></g></svg>