<svg xmlns="http://www.w3.org/2000/svg" xmlns:xlink="http://www.w3.org/1999/xlink" viewBox="0 0 419.19 424.67"><defs><style>.cls-1{fill:#eff4f9;}.cls-2{fill:#F08B3E;}.cls-3{fill:#70beff;}.cls-4{fill:#d1d3d4;}.cls-5{fill:#76c8ff;}.cls-6{fill:url(#linear-gradient);}.cls-7{fill:url(#linear-gradient-2);}.cls-8{fill:url(#linear-gradient-3);}.cls-9{fill:url(#linear-gradient-4);}.cls-10{fill:url(#linear-gradient-5);}.cls-11{fill:url(#linear-gradient-6);}.cls-12{fill:url(#linear-gradient-7);}.cls-13{fill:#ededbb;}.cls-14{fill:#d69547;}.cls-15{fill:#d6721e;}.cls-16{fill:#d6753e;}.cls-17{fill:#9e512b;}.cls-18{fill:#542713;}.cls-19{fill:#fff;}.cls-20{fill:#d5753e;}.cls-21{fill:#d57328;}.cls-22{fill:url(#linear-gradient-8);}.cls-23{fill:url(#linear-gradient-9);}.cls-24{opacity:0.15;}.cls-25{fill:url(#linear-gradient-10);}.cls-26{fill:url(#linear-gradient-11);}.cls-27{fill:#563411;}.cls-28{fill:#2f4259;}.cls-29{fill:url(#linear-gradient-12);}.cls-30{fill:url(#linear-gradient-13);}.cls-31{fill:url(#linear-gradient-14);}.cls-32{fill:url(#linear-gradient-15);}.cls-33{fill:url(#linear-gradient-16);}.cls-34{fill:#cececd;}.cls-35{fill:#c1c0c0;}.cls-36{fill:#edeced;}.cls-37{fill:url(#linear-gradient-17);}</style><linearGradient id="linear-gradient" x1="-31.2" y1="751.17" x2="-5.71" y2="751.17" gradientTransform="matrix(-0.99, 0.14, 0.14, 0.99, 148.5, -371.09)" gradientUnits="userSpaceOnUse"><stop offset="0" stop-color="#d69547"/><stop offset="1" stop-color="#cc6806"/></linearGradient><linearGradient id="linear-gradient-2" x1="273.15" y1="375.16" x2="286.23" y2="375.16" gradientUnits="userSpaceOnUse"><stop offset="0" stop-color="#415675"/><stop offset="1" stop-color="#546c96"/></linearGradient><linearGradient id="linear-gradient-3" x1="273.71" y1="359.18" x2="278.61" y2="359.18" xlink:href="#linear-gradient-2"/><linearGradient id="linear-gradient-4" x1="201.41" y1="339.1" x2="222.16" y2="338.93" gradientUnits="userSpaceOnUse"><stop offset="0" stop-color="#f7931a"/><stop offset="1" stop-color="#cc6806"/></linearGradient><linearGradient id="linear-gradient-5" x1="101.44" y1="401.6" x2="117.61" y2="401.46" gradientTransform="translate(78.33 -22.66) rotate(-3.49)" xlink:href="#linear-gradient-4"/><linearGradient id="linear-gradient-6" x1="204.73" y1="295.12" x2="227.57" y2="303.9" xlink:href="#linear-gradient-4"/><linearGradient id="linear-gradient-7" x1="-642.21" y1="305.2" x2="-623.03" y2="370.95" gradientTransform="matrix(-1, 0, 0, 1, -375.8, 0)" gradientUnits="userSpaceOnUse"><stop offset="0" stop-color="#f0cd59"/><stop offset="1" stop-color="#f7931a"/></linearGradient><linearGradient id="linear-gradient-8" x1="-1014.94" y1="371.43" x2="-986.29" y2="371.43" gradientTransform="matrix(-1, 0, 0, 1, -739.9, 0)" gradientUnits="userSpaceOnUse"><stop offset="0" stop-color="#e2e2e2"/><stop offset="0.52" stop-color="#f7f7f7"/><stop offset="1" stop-color="#e2e2e2"/></linearGradient><linearGradient id="linear-gradient-9" x1="-959.94" y1="353.57" x2="-968.22" y2="409.09" gradientTransform="matrix(-1, 0, 0, 1, -739.9, 0)" xlink:href="#linear-gradient-2"/><linearGradient id="linear-gradient-10" x1="262.87" y1="356.08" x2="267.75" y2="358.63" gradientUnits="userSpaceOnUse"><stop offset="0" stop-color="#e2e2e2"/><stop offset="1" stop-color="#f7f7f7"/></linearGradient><linearGradient id="linear-gradient-11" x1="-980.57" y1="350.78" x2="-996.58" y2="360.06" gradientTransform="matrix(-1, 0, 0, 1, -739.9, 0)" xlink:href="#linear-gradient-10"/><linearGradient id="linear-gradient-12" x1="246.82" y1="372.01" x2="274.45" y2="371.27" xlink:href="#linear-gradient-2"/><linearGradient id="linear-gradient-13" x1="-948.09" y1="372.25" x2="-977.26" y2="359.3" gradientTransform="matrix(-1, 0, 0, 1, -739.9, 0)" xlink:href="#linear-gradient-2"/><linearGradient id="linear-gradient-14" x1="-974.17" y1="338.89" x2="-966.97" y2="352.97" gradientTransform="matrix(-1, 0, 0, 1, -739.9, 0)" xlink:href="#linear-gradient-2"/><linearGradient id="linear-gradient-15" x1="278.27" y1="349.95" x2="267.63" y2="357.5" xlink:href="#linear-gradient-2"/><linearGradient id="linear-gradient-16" x1="-1075.56" y1="-376.53" x2="-1036.86" y2="-379.32" gradientTransform="matrix(-0.81, -0.59, -0.59, 0.81, -845.81, 43.43)" gradientUnits="userSpaceOnUse"><stop offset="0" stop-color="#f6921e"/><stop offset="1" stop-color="#ca6928"/></linearGradient><linearGradient id="linear-gradient-17" x1="-1042.14" y1="335.82" x2="-1051.53" y2="327.85" gradientTransform="matrix(-1, -0.05, -0.05, 1, -805.23, -18.86)" xlink:href="#linear-gradient-2"/></defs><title>cz-moon-3</title><g id="Layer_2" data-name="Layer 2"><g id="Layer_1-2" data-name="Layer 1"><ellipse class="cls-1" cx="244.17" cy="419.61" rx="49.5" ry="3.83"/><path class="cls-1" d="M181.56,414.57c-1.94-1.95-3.79-3.95-5.57-6a137.5,137.5,0,0,1-24.6,2.21c-75.72,0-137.32-61.6-137.32-137.32s61.6-137.33,137.32-137.33a136.92,136.92,0,0,1,39.85,5.91q-.8-6-1.6-11.92a148.09,148.09,0,0,0-38.25-5c-81.8,0-148.34,66.55-148.34,148.35S69.59,421.81,151.39,421.81a147.79,147.79,0,0,0,34.34-4Z"/><path class="cls-1" d="M43.9,134.16l-8.78-11.7A175.75,175.75,0,0,0,0,157.58l11.7,8.78c3.12-4.17,6.45-8.15,10-12l11.34,11a71.87,71.87,0,0,1,10.17-10.51L32,144Q37.72,138.82,43.9,134.16Z"/><path class="cls-1" d="M75,232a.54.54,0,0,1,.74-.21h0c6.78,2.74,73,30.91,79.93,35l.51.25a8.25,8.25,0,1,1-7.91,14.47,2.61,2.61,0,0,1-.28-.17c-6.14-2.92-66.75-44.29-72.77-48.56h0A.55.55,0,0,1,75,232Z"/><path class="cls-1" d="M152.35,186.19a.55.55,0,0,1,.55.55h0c.89,7.25,8.33,78.81,8.14,86.86a5.46,5.46,0,0,1,0,.57,8.25,8.25,0,0,1-16.5.09c0-.11,0-.21,0-.32-.42-6.79,6.39-79.86,7.21-87.2h0A.55.55,0,0,1,152.35,186.19Z"/><path class="cls-1" d="M161.56,389c-.32.42-.71.95-1.19,1.5v1.4a2.65,2.65,0,0,1-2.65,2.65h-12.4a2.66,2.66,0,0,1-2.66-2.65V379.5a2.66,2.66,0,0,1,2.66-2.65h12.4a2.63,2.63,0,0,1,.8.12l1.7-2.62a5.66,5.66,0,0,0-2.5-.57h-12.4a5.73,5.73,0,0,0-5.73,5.72v12.41a5.74,5.74,0,0,0,5.73,5.73h12.4a5.74,5.74,0,0,0,5.73-5.73v-5.58c-.76,1.12-1.37,2-1.63,2.34Z"/><path class="cls-1" d="M154.94,387.66a1,1,0,0,1-1.82.07c-.32-.51-3.33-5.47-4.09-5.72s-2.64.56-3.71,1.32a1.39,1.39,0,0,0-.37,1.88s1.63,2.7,3,4.4,2.77,2.52,5.85,1.95,4.84-3.27,5.84-4.59,9-13.2,9-13.7-1.13-.76-2.95-.25a4.76,4.76,0,0,0-2.7,2.2l-5.79,8.92S155.63,386.66,154.94,387.66Z"/><path class="cls-1" d="M103.81,373.61c-.32.43-.71.95-1.19,1.51v1.39a2.66,2.66,0,0,1-2.65,2.66H87.57a2.66,2.66,0,0,1-2.66-2.66v-12.4a2.66,2.66,0,0,1,2.66-2.66H100a2.63,2.63,0,0,1,.8.13l1.7-2.63a5.81,5.81,0,0,0-2.5-.57H87.57a5.74,5.74,0,0,0-5.73,5.73v12.4a5.74,5.74,0,0,0,5.73,5.73H100a5.74,5.74,0,0,0,5.73-5.73v-5.57c-.76,1.12-1.37,2-1.63,2.33Z"/><path class="cls-1" d="M97.19,372.27a1,1,0,0,1-1.82.06c-.32-.5-3.33-5.47-4.09-5.72s-2.64.57-3.71,1.32a1.41,1.41,0,0,0-.37,1.89s1.63,2.7,3,4.4,2.77,2.51,5.85,1.95,4.84-3.27,5.84-4.59,9-13.2,9-13.71-1.13-.75-3-.25a4.76,4.76,0,0,0-2.7,2.2l-5.79,8.93S97.88,371.26,97.19,372.27Z"/><path class="cls-1" d="M64.58,331.91c-.32.43-.71.95-1.18,1.51v1.39a2.66,2.66,0,0,1-2.66,2.66H48.34a2.66,2.66,0,0,1-2.65-2.66v-12.4a2.66,2.66,0,0,1,2.65-2.66h12.4a2.63,2.63,0,0,1,.8.13l1.71-2.63a5.85,5.85,0,0,0-2.51-.57H48.34a5.74,5.74,0,0,0-5.73,5.73v12.4a5.74,5.74,0,0,0,5.73,5.73h12.4a5.74,5.74,0,0,0,5.73-5.73v-5.58c-.76,1.13-1.37,2-1.63,2.34Z"/><path class="cls-1" d="M58,330.57a1,1,0,0,1-1.83.06c-.31-.5-3.33-5.47-4.08-5.72s-2.64.57-3.71,1.32a1.4,1.4,0,0,0-.38,1.89s1.63,2.7,3,4.4,2.77,2.51,5.85,1.94,4.84-3.26,5.85-4.58,9-13.2,9.05-13.71-1.13-.75-3-.25a4.76,4.76,0,0,0-2.7,2.2l-5.78,8.93S58.66,329.56,58,330.57Z"/><path class="cls-1" d="M47.71,277.29c-.32.42-.71.95-1.18,1.5v1.4a2.66,2.66,0,0,1-2.66,2.65H31.47a2.66,2.66,0,0,1-2.66-2.65V267.78a2.66,2.66,0,0,1,2.66-2.65h12.4a2.63,2.63,0,0,1,.8.12l1.7-2.62a5.64,5.64,0,0,0-2.5-.58H31.47a5.74,5.74,0,0,0-5.73,5.73v12.41a5.73,5.73,0,0,0,5.73,5.72h12.4a5.73,5.73,0,0,0,5.73-5.72v-5.58c-.76,1.12-1.37,2-1.63,2.33Z"/><path class="cls-1" d="M41.09,275.94a1,1,0,0,1-1.82.06c-.31-.5-3.33-5.46-4.09-5.72s-2.64.57-3.71,1.32a1.41,1.41,0,0,0-.37,1.89s1.63,2.7,2.95,4.4,2.77,2.51,5.85,1.95,4.84-3.27,5.84-4.59,9-13.2,9.06-13.7-1.14-.76-3-.25a4.76,4.76,0,0,0-2.7,2.2l-5.78,8.92S41.78,274.94,41.09,275.94Z"/><path class="cls-1" d="M64.58,218.21c-.32.43-.71.95-1.18,1.51v1.39a2.66,2.66,0,0,1-2.66,2.65H48.34a2.65,2.65,0,0,1-2.65-2.65v-12.4a2.66,2.66,0,0,1,2.65-2.66h12.4a2.63,2.63,0,0,1,.8.12l1.71-2.62a5.71,5.71,0,0,0-2.51-.57H48.34a5.74,5.74,0,0,0-5.73,5.73v12.4a5.74,5.74,0,0,0,5.73,5.73h12.4a5.74,5.74,0,0,0,5.73-5.73v-5.58c-.76,1.13-1.37,2-1.63,2.34Z"/><path class="cls-1" d="M58,216.87a1,1,0,0,1-1.83.06c-.31-.5-3.33-5.47-4.08-5.72s-2.64.56-3.71,1.32a1.39,1.39,0,0,0-.38,1.88s1.63,2.71,3,4.4,2.77,2.52,5.85,1.95,4.84-3.27,5.85-4.59,9-13.2,9.05-13.7-1.13-.75-3-.25a4.76,4.76,0,0,0-2.7,2.2l-5.78,8.93S58.66,215.86,58,216.87Z"/><path class="cls-1" d="M105.83,178.24c-.31.43-.7.95-1.18,1.5v1.4a2.65,2.65,0,0,1-2.65,2.65H89.59a2.65,2.65,0,0,1-2.65-2.65V168.73a2.65,2.65,0,0,1,2.65-2.65H102a2.63,2.63,0,0,1,.8.12l1.7-2.62A5.66,5.66,0,0,0,102,163H89.59a5.73,5.73,0,0,0-5.72,5.72v12.41a5.73,5.73,0,0,0,5.72,5.73H102a5.74,5.74,0,0,0,5.73-5.73v-5.58c-.77,1.12-1.37,2-1.64,2.34C106,178,105.93,178.12,105.83,178.24Z"/><path class="cls-1" d="M99.22,176.89a1,1,0,0,1-1.82.07c-.32-.51-3.34-5.47-4.09-5.72s-2.64.56-3.71,1.32a1.39,1.39,0,0,0-.38,1.88s1.64,2.71,3,4.4,2.76,2.52,5.84,1.95,4.84-3.27,5.85-4.59,9-13.2,9-13.7-1.13-.75-3-.25a4.76,4.76,0,0,0-2.7,2.2l-5.79,8.92S99.91,175.89,99.22,176.89Z"/><path class="cls-2" d="M216.37,231.65a20.39,20.39,0,0,1-5.82-12.54.11.11,0,1,0-.22,0A20.13,20.13,0,0,1,192,237.48a.11.11,0,1,0,0,.22,20.11,20.11,0,0,1,18.37,18.37.11.11,0,0,0,.22,0,20.11,20.11,0,0,1,18.37-18.37.11.11,0,1,0,0-.22A20.43,20.43,0,0,1,216.37,231.65Z"/><path class="cls-2" d="M172.33,253.37a13.23,13.23,0,0,1-3.78-8.15.07.07,0,0,0-.14,0,13.06,13.06,0,0,1-11.92,11.93.07.07,0,1,0,0,.14,13.06,13.06,0,0,1,11.92,11.93.07.07,0,0,0,.14,0,13.06,13.06,0,0,1,11.93-11.93.07.07,0,0,0,0-.14A13.25,13.25,0,0,1,172.33,253.37Z"/><path class="cls-2" d="M411,8.22A13.25,13.25,0,0,1,407.2.07a.07.07,0,0,0-.14,0,13.25,13.25,0,0,1-3.78,8.15A13.25,13.25,0,0,1,395.13,12a.07.07,0,0,0,0,.14,13.06,13.06,0,0,1,11.93,11.92c0,.1.13.1.14,0a13.06,13.06,0,0,1,11.92-11.92.07.07,0,1,0,0-.14A13.23,13.23,0,0,1,411,8.22Z"/><path class="cls-2" d="M187.91,192.49a29.07,29.07,0,0,1-8.32-17.91.16.16,0,1,0-.31,0,28.73,28.73,0,0,1-26.23,26.23.16.16,0,1,0,0,.31,28.71,28.71,0,0,1,26.23,26.23.16.16,0,1,0,.31,0,28.73,28.73,0,0,1,26.23-26.23.16.16,0,1,0,0-.31A29.07,29.07,0,0,1,187.91,192.49Z"/><path class="cls-3" d="M407.13,113.23a100.66,100.66,0,0,1-20.44,61c-.45.6-.9,1.18-1.37,1.76-.29.38-.6.75-.9,1.12-.42.54-.87,1.07-1.32,1.59-.61.74-1.24,1.45-1.89,2.17s-1.34,1.47-2,2.19-1.28,1.32-1.93,2-1.21,1.19-1.83,1.77-1.13,1.06-1.71,1.56c-.32.3-.65.59-1,.87-.51.46-1,.89-1.53,1.32l-.86.72c-1.29,1.07-2.6,2.11-4,3.11-.76.57-1.54,1.14-2.32,1.69l-.07,0c-.76.53-1.53,1.05-2.31,1.57-1.59,1.06-3.22,2.08-4.89,3s-3.35,1.9-5.07,2.76c-1.28.66-2.59,1.29-3.91,1.89l-1.32.59c-.37.17-.75.33-1.12.47s-1,.45-1.57.66l-1.18.47c-.64.26-1.27.49-1.92.72s-1.52.55-2.28.81c-.42.15-.83.29-1.25.42l-1.17.36c-.62.2-1.24.39-1.87.57q-2.66.78-5.37,1.39l-.9.21c-1.45.32-2.92.62-4.4.87l-1.45.23c-1.65.28-3.31.5-5,.68l-1.71.18-1.71.14q-1.19.09-2.37.15h-.18c-.52,0-1.05.05-1.58.06l-1.77.05-1.77,0A101.15,101.15,0,0,1,204.81,113.23q0-1.11,0-2.22c0-.24,0-.48,0-.71,0-.66.05-1.32.08-2,0-1.09.12-2.18.21-3.26,0-.28.05-.55.07-.82.06-.68.12-1.36.2-2s.14-1.34.23-2,.17-1.3.27-2c0-.18.05-.34.08-.51.09-.6.19-1.19.29-1.77s.2-1.15.31-1.71.19-.94.28-1.4.16-.82.25-1.23l.27-1.22c.17-.71.35-1.43.53-2.14,0-.2.1-.39.15-.6.18-.7.37-1.38.57-2.07.13-.49.27-1,.42-1.46.09-.33.19-.65.3-1,.36-1.18.76-2.35,1.16-3.51.08-.24.16-.47.25-.7a4.09,4.09,0,0,1,.18-.49c.14-.38.29-.77.43-1.16.45-1.17.91-2.35,1.41-3.5.31-.73.63-1.46,1-2.18s.76-1.63,1.15-2.45l.39-.79c.31-.64.64-1.28,1-1.9l0-.07c.28-.53.56-1.06.84-1.57C218,63.19,219,61.57,220,60c.16-.26.31-.52.48-.78a1.2,1.2,0,0,1,.13-.21c.28-.45.56-.88.85-1.32l.2-.3c.4-.61.82-1.22,1.25-1.83.13-.2.27-.38.41-.58.45-.67.93-1.33,1.42-2s1.09-1.46,1.66-2.18.92-1.16,1.39-1.73c.32-.4.64-.78,1-1.17.77-.92,1.55-1.82,2.37-2.69l.84-.93c.41-.45.82-.87,1.24-1.3.22-.24.45-.47.69-.71,1.22-1.25,2.48-2.46,3.76-3.64.61-.56,1.23-1.12,1.87-1.66s1.15-1,1.75-1.5l.29-.24,0,0,1-.77c.78-.63,1.58-1.26,2.38-1.87,2.52-1.92,5.14-3.7,7.85-5.38q1.27-.8,2.58-1.56c1.62-.94,3.26-1.83,4.94-2.68l1-.48a101.47,101.47,0,0,1,68.21-7.65q2.76.64,5.45,1.46a98.54,98.54,0,0,1,14.55,5.6l1,.47A101.16,101.16,0,0,1,407.13,113.23Z"/><path class="cls-4" d="M306.78,210c.79,2.61,3.37,10.93-2,14.26s3.8,3.27,7.67,1.88,12.88-.38,13-3.19-8.26-2.36-9.87-11.17S306.78,210,306.78,210Z"/><path class="cls-4" d="M303.66,360.93s-.81-.59-.86-.59c-.65-.07-1.42-.74-1.35-1.39,2.47-22.68,13.18-48.05,10.3-58.4-2.18-7.87-2-29.53-1.83-50.47.16-18.26.3-35.52-1.2-40a1.19,1.19,0,1,1,2.25-.75c1.63,4.9,1.49,21.54,1.33,40.81-.17,19.81-.36,42.26,1.74,49.81,2.94,10.59-7.15,36.3-9.66,59.38C304.32,359.9,304.26,360.93,303.66,360.93Z"/><path class="cls-5" d="M386.69,174.19a101.16,101.16,0,1,1-145.12-139,100.65,100.65,0,0,0-20.45,61c0,1.59,0,3.17.12,4.74h0a13.75,13.75,0,0,0,4.62,25.94,101.38,101.38,0,0,0,46.57,57.34,13.35,13.35,0,0,0-.7,4.29,13.77,13.77,0,0,0,26.21,5.88,101.33,101.33,0,0,0,88.75-20.21Z"/><path class="cls-5" d="M327.65,147.77a15.18,15.18,0,0,1-6.57-28.87c-.26,0-.52,0-.78,0a17.13,17.13,0,1,0,13.52,27.6A15.13,15.13,0,0,1,327.65,147.77Z"/><path class="cls-5" d="M261.66,82.57a15.18,15.18,0,0,1-6.57-28.87c-.27,0-.52,0-.79,0a17.13,17.13,0,1,0,13.53,27.6A15.13,15.13,0,0,1,261.66,82.57Z"/><path class="cls-5" d="M350.68,74.83A15.19,15.19,0,0,1,344.11,46c-.26,0-.52,0-.79,0a17.13,17.13,0,1,0,13.53,27.6A15.14,15.14,0,0,1,350.68,74.83Z"/><path class="cls-5" d="M290.94,195.88a10.19,10.19,0,0,1-4.41-19.38l-.53,0A11.49,11.49,0,1,0,295.08,195,10.24,10.24,0,0,1,290.94,195.88Z"/><path class="cls-5" d="M232.89,120.59a10.19,10.19,0,0,1-4.41-19.38l-.53,0A11.49,11.49,0,1,0,237,119.71,10.24,10.24,0,0,1,232.89,120.59Z"/><circle class="cls-5" cx="295.55" cy="87.91" r="5.46"/><circle class="cls-5" cx="338.29" cy="174.76" r="5.46"/><circle class="cls-5" cx="372.08" cy="144.06" r="4.61"/><circle class="cls-5" cx="378.12" cy="98.91" r="4.12"/><circle class="cls-5" cx="296.45" cy="37.18" r="5.36"/><circle class="cls-5" cx="264.41" cy="147.48" r="10.29"/><path class="cls-6" d="M268.44,363.09c1.67,3,4.38,10.19,11.47,7.21a13.42,13.42,0,0,0,4.54-4c1.56-2.46,2.32-.29,2.17,1.15s-3.81,18.59-18.28,10.56c-2.63-1.46-8.48-8-7.43-14C262,357.61,267.59,361.56,268.44,363.09Z"/><path class="cls-7" d="M281,369s6,3.29,5.14,5.09c-2.12,4.41-12.05,7.59-12.43,7.2-1.26-1.33,0-11.63,0-11.63"/><path class="cls-8" d="M274.07,353.14s3.93,5.29,4.5,10.58-4.8-5-4.85-5.5S274.07,353.14,274.07,353.14Z"/><path class="cls-9" d="M208.58,347a3.77,3.77,0,0,1,1.16-3.09c-2.6-.37-4.63-1.62-4.53-4.68s2.06-4.32,4.54-4.8a3.77,3.77,0,0,1-1.38-3.18c.21-6.45,11.78-.86,11.78-.86l.07,5V336l.07,5.82v.72l.07,4.89S209,353.39,208.58,347Z"/><path class="cls-10" d="M210,377.79a2.9,2.9,0,0,1,.76-2.46c-2-.16-3.68-1-3.75-3.42s1.4-3.46,3.31-4a2.9,2.9,0,0,1-1.23-2.4c-.14-5,9.12-1.23,9.12-1.23l.29,3.88,0,.48.34,4.52,0,.56.29,3.8S210.57,382.78,210,377.79Z"/><path class="cls-11" d="M206.37,305.31a3.9,3.9,0,0,1,2.63-2.75c-2.74-1.95-4.46-4.55-3-7.9s4.14-3.58,7.11-2.64a5,5,0,0,1-.18-4.36c3-7.05,13.48,6.06,13.48,6.06l-2.06,5.59-.26.7-2.41,6.51-.29.81-2,5.48S204,312.69,206.37,305.31Z"/><path class="cls-12" d="M216.21,367.73l-.1,6.5s-1.62,22.65-15.09,22.65c0,0-19.16,2-25.27-22.94a.49.49,0,0,0-1,.15c1.77,17.41,11.17,53.52,51,35.18l2,10.45a.45.45,0,0,0,.77.21l12.33-15,23.19.53L271.67,417a.44.44,0,0,0,.81-.23l1.3-64.53s41.07,5.82,48.53,6.65c0,0,13.56-85.21-39.35-89.76-71.43-8.08-66,50.41-66,50.41l-.52,35.09Z"/><path class="cls-13" d="M236.12,336.46c.35-12.32,2.7-16.37,5.56-16.37s5.82,10.6,5.55,23.58Z"/><path class="cls-14" d="M265.43,317.75c0,2.73,4.43,4.95,9.9,4.95s9.89-2.22,9.89-4.95-4.43-4.94-9.89-4.94S265.43,315,265.43,317.75Z"/><path class="cls-14" d="M296.44,316.75c-.32,1.34,1.32,2.89,3.66,3.44s4.49-.09,4.8-1.44-1.31-2.88-3.65-3.44S296.76,315.4,296.44,316.75Z"/><path class="cls-14" d="M255.78,321.56c-.23,1,1,2.09,2.64,2.49s3.25-.07,3.48-1-.95-2.09-2.64-2.49S256,320.59,255.78,321.56Z"/><path class="cls-14" d="M275.43,326.55c-.23,1,.94,2.06,2.62,2.46s3.2-.06,3.43-1-.94-2.06-2.61-2.46S275.66,325.59,275.43,326.55Z"/><path class="cls-15" d="M252.24,363.44s-2.27,7.35-5.9,9.38c2.51,3.21,6.89,6.5,11.66-.65-1.6-1.33-3.32-3.93-5.13-8.35,0,0,7.05,17.23,15.12.63,0,0-3.6,12.28-9.58,8-2.21,4.72-6.85,11.31-12.53.55-2.57,1.07-6.25-1.78-9.76-10.38C236.12,362.66,244.18,380,252.24,363.44Z"/><path class="cls-16" d="M322.31,358.87a285.17,285.17,0,0,1-29-2.74,223.2,223.2,0,0,1-28.64-5.8c-9.36-2.68-18.75-6.07-26.76-12-3.9-3-7.55-6.76-9.21-11.54a19.54,19.54,0,0,1-1-7.33,38.66,38.66,0,0,1,1.14-7.22,50.17,50.17,0,0,0-.5,7.22,18.71,18.71,0,0,0,1.5,6.91c1.77,4.38,5.33,7.76,9.19,10.45,7.92,5.31,17.08,8.57,26.33,11.16s18.77,4.51,28.27,6.3c4.76.9,9.54,1.68,14.33,2.41S317.51,358.17,322.31,358.87Z"/><path class="cls-14" d="M301.91,303.61a21.68,21.68,0,0,0,15.41-4.22,18.17,18.17,0,0,1-15.61,6.13,18.52,18.52,0,0,1-14-9.41A22,22,0,0,0,301.91,303.61Z"/><path class="cls-14" d="M303.2,300.91a18.29,18.29,0,0,0,11.57-6.66,15.41,15.41,0,0,1-11.35,8.24,15,15,0,0,1-13.12-4.61A18,18,0,0,0,303.2,300.91Z"/><path class="cls-16" d="M313.48,285.81c.14-9.6-10.38-16.88-20.09-12.84a14.59,14.59,0,0,0-8.29,9.95,13.44,13.44,0,0,0,4.11,13.84,15,15,0,0,0,1.76,1.29c7.28,4.05,17.79,1.62,21.37-6.74A14.05,14.05,0,0,0,313.48,285.81Z"/><path class="cls-13" d="M312.71,284.28c.14-9.09-9.83-16-19-12.16a14.25,14.25,0,0,0-8.17,10.81,12.68,12.68,0,0,0,5.33,12.59l.54.36c6.9,3.83,16.86,1.53,20.24-6.39A13.16,13.16,0,0,0,312.71,284.28Z"/><path class="cls-16" d="M279,285.54c.16-10.32-11.15-18.15-21.59-13.8a15.65,15.65,0,0,0-8.91,10.7,14.43,14.43,0,0,0,4.42,14.87,16,16,0,0,0,1.88,1.39c7.83,4.35,19.14,1.74,23-7.24A14.89,14.89,0,0,0,279,285.54Z"/><path class="cls-13" d="M278.18,283.89c.15-9.77-10.56-17.18-20.45-13.06A15.28,15.28,0,0,0,249,282.45,13.63,13.63,0,0,0,254.68,296c.19.13.38.26.58.38,7.41,4.12,18.12,1.65,21.76-6.86A14,14,0,0,0,278.18,283.89Z"/><path class="cls-17" d="M296.18,279.89a5.36,5.36,0,1,0,5.36-5.36A5.36,5.36,0,0,0,296.18,279.89Z"/><path class="cls-18" d="M298.09,279.89a3.45,3.45,0,1,0,3.45-3.45A3.46,3.46,0,0,0,298.09,279.89Z"/><path class="cls-19" d="M294.5,281.37a2.52,2.52,0,1,0,2.52-2.52A2.52,2.52,0,0,0,294.5,281.37Z"/><path class="cls-17" d="M260.22,279.71A5.77,5.77,0,1,0,266,274,5.76,5.76,0,0,0,260.22,279.71Z"/><path class="cls-18" d="M262.28,279.71A3.71,3.71,0,1,0,266,276,3.7,3.7,0,0,0,262.28,279.71Z"/><path class="cls-19" d="M258.56,280.86a2.71,2.71,0,1,0,2.71-2.71A2.72,2.72,0,0,0,258.56,280.86Z"/><path class="cls-14" d="M260.2,304.36a26.46,26.46,0,0,0,17.64-6.7,21.92,21.92,0,0,1-35.26-.05A26.43,26.43,0,0,0,260.2,304.36Z"/><path class="cls-14" d="M262.45,301.64a21.62,21.62,0,0,0,14.26-6,18,18,0,0,1-28.87.93A21.62,21.62,0,0,0,262.45,301.64Z"/><path class="cls-14" d="M271.43,263.92c-8.4-3-25,.34-29.27,6.75-.25-.18,2.6-9.5,13-10.94S271.43,263.92,271.43,263.92Z"/><path class="cls-14" d="M316.09,275.34c-1.33-7.19-14.08-11.56-21.39-9.06-.1-.29,7.54-5.5,17-.84C317.34,268.22,316.09,275.34,316.09,275.34Z"/><path class="cls-20" d="M227,410.61s-22.61,9.53-34.77-.06l3.72-6.35,26.56-.11c.28,0,6.57,1.26,6.57,1.26Z"/><path class="cls-21" d="M248.58,363.06s-2.27,7.36-5.89,9.39c2.5,3.22,6.88,6.51,11.64-.64-1.6-1.34-3.32-3.94-5.12-8.37,0,0,7.55,16.24,15.61-.38,0,0-4.11,13.31-10.08,9.06-2.21,4.73-6.84,11.33-12.51.56-2.57,1.07-5.75-.63-9.26-9.24C233,363.44,240.53,379.68,248.58,363.06Z"/><path class="cls-22" d="M247.88,358.9V366l.56,18.46v.36l16.84,1.93,3.11.22.19-1.29-.42-22.06.81-3.39-.41-2.87-5.45-.7-.36-.29a41,41,0,0,1-.35,4.75,31.41,31.41,0,0,1-1.5,6.59s-.64-4.52-1.58-8.68c-.25-1.08-.51-2.13-.79-3.08l-1.61,1-4.1,2.5Z"/><path class="cls-23" d="M226.62,416a17.75,17.75,0,0,1,5.55,0s8-9,9.15-10.71a92.49,92.49,0,0,0,22.49.19l4.88,8.21s2.86-.74,4.11-.23l.28-21.7.09-6.37-5.95.27-.84,0s-.38,0-1.19.07a97.37,97.37,0,0,1-16.75-1.33c-.62-.09-1.26-.18-1.92-.29-13.91-2.2-31.27-4.86-31.27-4.86s-1.77,7.61-4.6,11.78-8.8,6.36-15.11,4.64a24.25,24.25,0,0,1-14.8-11.05s-3.76.83-3.24,8.08c0,0,.81,1.76,2.2,4.2l0,0c2.34,4.13,6.36,10.19,11,13.13,7.46,4.69,14.55,7.92,35.29,1.25h0Z"/><path class="cls-24" d="M264.2,365.2l0-.05,0,.18Z"/><path class="cls-24" d="M262.59,359.44l1.58,5.71c.85-1,.36-6.61-1.05-8.52l-.36-.29S262.94,356.74,262.59,359.44Z"/><path class="cls-25" d="M271.22,352c-.76,1.48-1.84,3.63-2.64,5.31a22,22,0,0,0-1,2.34c-.43,1.46-3.37,5.54-3.37,5.54.32-2.61-.69-8.39-1.43-8.86a80.39,80.39,0,0,0,7.51-4.56l.92.22Z"/><path class="cls-24" d="M255,365.15c1.54-3,4-7.64,4-7.64a14.58,14.58,0,0,0-.41-1.59l-1.61,1-1.57,2.78Z"/><path class="cls-26" d="M258.54,355.92s-3.38,7.61-3.59,9.23c0,0-8.53-7.3-9.94-8.81s-6.91-13.15-6.91-13.15S250.09,352.74,258.54,355.92Z"/><path class="cls-24" d="M255,365.15l-1.08-.95-1.08-.95-1.1-.93-1.1-.93,1.08.95,1.09,1,1.09.93Z"/><path class="cls-24" d="M264.2,365.33c.31-.34.62-.69.91-1.05s.59-.72.88-1.09.57-.73.85-1.11.55-.76.8-1.15l-.46.53-.45.54-.87,1.09C265.29,363.82,264.72,364.56,264.2,365.33Z"/><path class="cls-24" d="M260,385.68c.93-6.15,1.1-17.88,1.1-18h-.34c0,.12-.17,11.82-1.1,17.95Z"/><path class="cls-27" d="M268.06,384.69a49.12,49.12,0,0,1-18.7-1l-.25,2.53a46.78,46.78,0,0,0,19.21.66Z"/><path class="cls-28" d="M267.29,385.74c0,.33,0,.66.08,1,.31,3.27.81,5.21,1.45,5.59.9.52,2.82,0,4.26-.54l.09-6.37-4.75.27.37-22.25-.67-3.72A106,106,0,0,0,267,375.35,100.61,100.61,0,0,0,267.29,385.74Z"/><path class="cls-29" d="M274.08,389.52a.61.61,0,0,1-.37.47c-.84.28-3.44,1.08-4.93.63s-1.81-20.94-.66-30.49a25.75,25.75,0,0,1,.46-2.81,6.93,6.93,0,0,1,.35-1.23,25.61,25.61,0,0,1,2.26-4.09h0l2.67.63.33.07c0,.16,0,.31,0,.47v.27C274.51,363.75,275,385.2,274.08,389.52Z"/><path class="cls-28" d="M214.54,382.42l31.77,1.81-7.95-38s9.65,5.83,12,16.15.57,26.55.57,26.56a8.43,8.43,0,0,1-.88,3.25c-1.26,2-22.2-1.16-35.94-8.76Z"/><path class="cls-30" d="M213.76,382.64l1.59.71h0c17.82,7.8,33.91,8.86,34.49,6.06s2.89-26.79-2.9-35.18c-2.53-7.27-30.35-21.79-30.35-21.79-.21,0-.37.27-.49.8-.66,2.88-.11,13.29-.24,26.72C215.71,375.84,213.76,382.64,213.76,382.64Z"/><path class="cls-31" d="M223.57,341.38a33.14,33.14,0,0,0,8.21,1.77c.22-.06-.22.49-.76,1.11l-.11.12c-.63.7-1.35,1.45-1.35,1.45h0c.52.29,17.26,9.44,19.38,12.78l0-.05h0a40.32,40.32,0,0,0-3-7.37,23.8,23.8,0,0,0-8.57-8.43c-4.52-2.71-19.52-9.73-20.41-13.12h0a8.78,8.78,0,0,1-.17-2.25h-.5a1.38,1.38,0,0,0-1.28.69C213.31,332.3,221.28,340.4,223.57,341.38Z"/><path class="cls-28" d="M249,358.7c-2.17-3.4-19.63-12.65-19.63-12.65s2.72-2.8,2.23-2.68a32.7,32.7,0,0,1-8.22-1.76c-2.28-1-10.47-9.17-8.52-13.3.51-1.08,1.34-.89,1.83-.93-.16.1-.81.22-1,.69-1.73,4.22,6.23,12.32,8.52,13.3a33.19,33.19,0,0,0,8.21,1.76c.5-.12-2.22,2.69-2.22,2.69s15.76,7.47,18.78,12.77C249.25,359.5,249,358.59,249,358.7Z"/><path class="cls-28" d="M179.72,397c2.34,4.13,6.36,10.19,11,13.13,7.46,4.69,14.55,7.92,35.29,1.25l-.72-5.22s-15.33,11.76-30.76,4.31A36,36,0,0,1,179.72,397Z"/><path class="cls-28" d="M259.39,387.59s.06,5.48-1,8.76Z"/><path class="cls-32" d="M274.23,353.18a24.21,24.21,0,0,0-5.57,5.79,7.06,7.06,0,0,0-.54,1.16,25.75,25.75,0,0,1,.46-2.81,6.93,6.93,0,0,1,.35-1.23,25.61,25.61,0,0,1,2.26-4.09h0l2.67.63.33.07C274.22,352.87,274.22,353,274.23,353.18Z"/><path class="cls-28" d="M275.2,352.93c-.33.17-.66.34-1,.52a18,18,0,0,0-5.88,6.17c.1-.22.21-.44.31-.65,2.22-4.48,4.41-5.92,5.23-6.33l.33.07C274.55,352.79,274.88,352.87,275.2,352.93Z"/><path class="cls-28" d="M216.41,358.75s.61,10.26,6,14.95c3.15,2.75,7.93,3.33,11.36,3.34a9,9,0,0,0,6.63-2.93l2.1-2.29"/><path class="cls-4" d="M250.21,421.25c-4.82.91-9.07.63-12.94-2.53l-1.06,2.57c2.4,0,13.31,1.87,11.63-3.62-.79-2.59-4.56-2.63-6.66-3.05l-3.34-.68a1,1,0,0,0,1.11-.29c0-.23.65-.82.78-1.15a1.44,1.44,0,0,0-.38-1.46c-1.65-1.3-1.15-1.21-.5-3.41,1.22-4.13,1.56-8.65,2.14-12.91a142.59,142.59,0,0,0,1.63-25.94,25.27,25.27,0,0,1-.12-5.07c.6-3.77,3.21-5.12,6.59-5.71a17.25,17.25,0,0,1,13.12,3.18c5,3.52,8.57,8.66,13.76,11.87,3.19,2,9.39,4.23,13.16,2.64,3-1.28,3.2-6.53,2.3-9.23-3-9-19.55-4.27-11.81,4.72,3.76,4.38,11,5.46,16.23,3.09,5.68-2.58,8.28-9.2,8.58-15.09.09-1.93-2.91-1.92-3,0-.18,3.5-1.41,7.63-3.85,10.21-3.34,3.52-10.69,4.25-14.61,1-1.56-1.29-3.39-4.16-.85-5.66s6.38,1.47,6.7,3.86c.1.79.09,3.07-.4,3.64-1,1.21-3.89.63-5.17.4-11.43-2-16.18-15.61-27.89-17.66-4.21-.73-10.32-.35-13.55,2.9-3.88,3.9-2.06,11-2.07,15.79,0,9.08-1.28,18.11-2.64,27.07-.46,3.08-1.63,5.63-2.31,8.56-.28,1.18-.45,1.83.42,2.82.19.22,1.32,1.07,1.68.93s.42-2.18-1.18-.9a2.78,2.78,0,0,0-.76,3.36c1.08,1.88,4.52,1.78,6.27,2.14,1.4.28,5.36.53,1.9.58-2.3,0-4.61,0-6.91,0-1.2,0-2.11,1.7-1.06,2.56,4.79,3.9,9.83,4.44,15.86,3.29,1.89-.36,1.09-3.25-.8-2.89Z"/><path class="cls-28" d="M233.93,375.69a5.88,5.88,0,0,0,2.65-2.57c.79-1.73,1.74-5.11,1.51-5.36l-.75.06-.88.76-.9,1.35-.57,1.26-.43,1.52-.51,1.18Z"/><path class="cls-33" d="M224.71,347.73a4.33,4.33,0,0,0-4.05,0c-2.09,1.08-4.88,3.62-4.51,9.44.59,9.19,8.43,18.41,15.64,17.68s12.12-3.18,13-3.93,0-2.88-2.87-2.95-8.76.63-12.29-5.45-.54-8.1-2.32-11.66A6.26,6.26,0,0,0,224.71,347.73Z"/><path class="cls-34" d="M237.34,367.47c-.08.37-.17.84-.24,1.17s-.15.68-.15.68l.14,0,1.9.46.09,0v-.09c0-.15,0-.48,0-.84s0-.82,0-1.11l-.15,0-1.54-.27Z"/><path class="cls-34" d="M237,374.09l.13,0,1.41-.23h0l.15,0h0c.08-.5.19-1.39.27-2,.06-.46.1-.8.1-.8h-.22l-1.93-.1h-.12a2.84,2.84,0,0,0,0,.92C236.86,372.53,237,373.54,237,374.09Z"/><path class="cls-35" d="M239,367.77c0,.3,0,.76,0,1.05v.5c0,.05,0,.14,0,.28a1.25,1.25,0,0,0,0,.21l.09,0v-.09c0-.15,0-.48,0-.84s0-.82,0-1.11Z"/><path class="cls-35" d="M238.58,373.83l.15,0h0c.08-.5.19-1.39.27-2,.06-.46.1-.8.1-.8h-.22c0,.38-.06.73-.08.94s0,.19,0,.19S238.69,373.12,238.58,373.83Z"/><path class="cls-35" d="M237.34,367.47c-.08.37-.17.84-.24,1.17s-.15.68-.15.68l.14,0c0-.27.1-.53.15-.77s.16-.77.24-1.08Z"/><path class="cls-35" d="M237,374.09l.13,0c-.06-.56-.15-1.37-.19-2.18h0c0-.34,0-.69,0-1h-.12a2.84,2.84,0,0,0,0,.92C236.86,372.53,237,373.54,237,374.09Z"/><ellipse class="cls-36" cx="237.91" cy="370.29" rx="1.85" ry="1.84" transform="translate(-194.15 286.41) rotate(-46.29)"/><path class="cls-35" d="M236.12,371.23a2,2,0,1,1,2.73.85A2,2,0,0,1,236.12,371.23Zm.32-.16a1.67,1.67,0,1,0,.71-2.26A1.67,1.67,0,0,0,236.44,371.07Z"/><path class="cls-35" d="M238.42,372.89a2.68,2.68,0,0,0-.49,0l-.49,0a.65.65,0,0,0,.24.06h.25A2,2,0,0,0,238.42,372.89Z"/><path class="cls-35" d="M238.34,373.57h-.44l-.43,0a.79.79,0,0,0,.22.05h.22A1.63,1.63,0,0,0,238.34,373.57Z"/><path class="cls-35" d="M238.71,368a1.66,1.66,0,0,0-.43-.14,1.36,1.36,0,0,0-.45,0l.22,0,.21,0A3.44,3.44,0,0,0,238.71,368Z"/><path class="cls-19" d="M237.63,369.06a2.13,2.13,0,0,1,.57.05,1.23,1.23,0,0,1,.5.24,1.3,1.3,0,0,1,.34.43,2.06,2.06,0,0,1,.12.26l.09.28c0-.1,0-.2,0-.3a1.47,1.47,0,0,0-.08-.28,1.16,1.16,0,0,0-.36-.49,1.13,1.13,0,0,0-.56-.24A1.31,1.31,0,0,0,237.63,369.06Z"/><path class="cls-37" d="M238.1,367.53s-1.69.22-2.83,3a19.73,19.73,0,0,0-1.34,5.12,14,14,0,0,1-9.91-3.36,21.22,21.22,0,0,1-7.93-14.21c-.81-5.35,1.26-8.44,4.16-10.29a4.3,4.3,0,0,1,5.59.59,8,8,0,0,1,2.18,4.95C228,355.49,227,365.61,238.1,367.53Z"/><path class="cls-1" d="M175.56,68.49H127.22a7.31,7.31,0,0,0-7.31,7.32h0a7.31,7.31,0,0,0,7.31,7.31h16.86v28.81a74.37,74.37,0,0,1,14.62,0V83.12h16.86a7.31,7.31,0,0,0,7.31-7.31h0A7.31,7.31,0,0,0,175.56,68.49Z"/><path class="cls-1" d="M157.54,172.37h-12.3a5.68,5.68,0,0,1-5.68-5.68v-12.3a5.69,5.69,0,0,1,5.68-5.69h12.3a5.69,5.69,0,0,1,5.69,5.69v12.3A5.68,5.68,0,0,1,157.54,172.37Zm-12.3-20.62a2.64,2.64,0,0,0-2.63,2.64v12.3a2.64,2.64,0,0,0,2.63,2.64h12.3a2.64,2.64,0,0,0,2.64-2.64v-12.3a2.64,2.64,0,0,0-2.64-2.64Z"/></g></g></svg>